<?xml version="1.0" encoding="UTF-8"?><svg id="Layer_5" xmlns="http://www.w3.org/2000/svg" width="300" height="300" viewBox="0 0 300 300"><defs><style>.cls-1{stroke-linejoin:round;}.cls-1,.cls-2{stroke-linecap:round;}.cls-1,.cls-2,.cls-3{stroke:#000;}.cls-1,.cls-2,.cls-3,.cls-4{fill:none;}.cls-2,.cls-3,.cls-4{stroke-miterlimit:10;}.cls-4{stroke:#fff;}.cls-5,.cls-6,.cls-7,.cls-8,.cls-9,.cls-10,.cls-11,.cls-12,.cls-13,.cls-14,.cls-15,.cls-16{stroke-width:0px;}.cls-6{fill:#4d0099;}.cls-7{fill:#4a95a5;}.cls-8{fill:#281f15;}.cls-9{fill:#9b78bc;}.cls-10{fill:#956b4d;}.cls-11{fill:#1a1a1a;}.cls-12{fill:#423426;}.cls-13{fill:#d53584;}.cls-14{fill:#3246ff;}.cls-15{fill:#805297;}.cls-16{fill:#fff;}</style></defs><path class="cls-16" d="m187.9,276.7c5.1,1.2,4.6,8.6,4.6,8.6,0,0-.5,2-3.5,3.1-4.5.8-8.1.3-11-.7h0c-.5-3.7.3-7.1,2.4-9h0c.5-.6,1.2-1,1.9-1.3.9-.3,1.8-.6,2.5-.7,1.2-.2,2.3-.2,3.1,0Z"/><path class="cls-9" d="m173.4,270.6l14.5,6.1c-.9-.2-1.9-.2-3.1,0l-10.8-4.5s-.8,0-.6-1.6Z"/><path class="cls-15" d="m168.5,273.1s-.3-4.4,2.4-5.5c1-.4,1.7-.5,2.1-.3,0,0,0,0,.2,0,.6.3.6,1.3.4,2.5,0,.2,0,.4,0,.6-.2,1.6.6,1.6.6,1.6l10.8,4.5c-.7.1-1.6.4-2.5.7-.7.3-1.4.7-1.9,1.3h0c-1.7,0-8-3.5-11.9-5.5h0Z"/><path class="cls-15" d="m171.1,224.8c-5,2.7-10.9,4.1-17,4.6-6.5.5-13.3,0-19.2-.9-6-1-11.2-2.4-14.7-3.7-2.2-.9-3.7-1.7-4.3-2.4,1.3-9.6,7.6-35.3,8.6-40.8.4-2.3,1.1-4.6,1.6-6.5,13.3,3.7,29,4.7,42,0,2,10,7.2,31.4,9.1,45.1-1.8,1.8-3.9,3.3-6.1,4.5Z"/><path class="cls-15" d="m167.1,272.4s-1.2-6.4,3-6c.8,0,1.7.4,2.9,1-.4-.2-1.1-.1-2.1.3-2.7,1.1-2.4,5.5-2.4,5.5h0c-.5-.3-1-.5-1.4-.7h0Z"/><path class="cls-10" d="m200.4,132.6c-3.8-1.4-8.6.2-11.7,2.7-2.4-1-6.2.9-6.3,3.5-.6,0-1.2.5-1.8,1-1.5-.3-3.2-.6-4.7-.6-1.3-2.4-4.3-8.8-5.5-11.7-2.5.5-2.8,2.6-5.5,2.9-.1,3.3-.5,6.9-1.1,11.7,6,11.3,4.7,16.5,18.5,9-1.5,4.9,6.6,4.5,4.7-.4.9-.2,1.7-.9,2.1-1.7,1.9,1.5,5.3,1.6,5.6-1.4,1,0,2.3.5,3.2-.3,1.4-2.2,3.6-7.9-1.3-5.7h0c-2,.4-4.3-1-2.9-3.1,1.6-2.4,5.8-3.2,6.8-5.7Z"/><path class="cls-10" d="m170.1,266.4c-4.2-.5-3,6-3,6h0c-.8-.4-1.4-.7-1.6-.7-1.4-.4-2.2,1.5-3.3,1.4-.6,0-1.2-.7-1.7-1.3-.2-1.2-.4-2.3-.7-3.4-2.9-14.1-6.4-22.3-6.7-30.2-.2-3.7,1.1-8.5,1.1-8.5v-.2c6.1-.5,12-1.9,17-4.6,0,.4.6,2.4.5,3.5,0,1.3-.8,4.6-.8,4.6,0,0-.6,29.1-.7,33.4Z"/><path class="cls-9" d="m165.5,271.6c.2,0,.8.4,1.6.8.4.2.9.5,1.4.7,3.9,2.1,10.2,5.6,11.9,5.5-2,2-2.9,5.3-2.4,9-4.5-1.4-7.6-3.8-10.2-4.7-6.6.3-8.4-1.7-9.5-2.6,0,0,0-.2,0-.4,0-1.5-.2-7-.6-9.4-.2-2,1.2-2.3,2.1-2.3.2,1.1.4,2.3.7,3.4.5.7,1.1,1.2,1.7,1.3,1.1.1,1.9-1.8,3.3-1.4Z"/><path class="cls-9" d="m158.3,123.7l1.9-.2c1,0,2,.7,2.1,1.7,0,0,0,.1,0,.2,0,.8-.5,1.5-1.3,1.7-.1,0-.3,0-.4.1l-1.8.2h-.1c-1,.1-2-.6-2-1.6,0,0,0-.1,0-.2,0-.8.6-1.6,1.3-1.8.1,0,.2,0,.3,0Z"/><path class="cls-15" d="m158.3,280.4c1.1.9,2.9,3,9.5,2.6,2.7.8,5.8,3.3,10.2,4.7h0c3,1,6.6,1.4,11,.7,3-1.1,3.5-3.1,3.5-3.1l.8.5v2.3s-1.3,3.1-6.1,2.9-10.2-1.3-12.7-2.2c-2.4-.9-5.7-3-6.4-3.1-.7-.1-8.4-.2-9.9-2.6s0-3,0-3h0c0,.2,0,.3,0,.4Z"/><path class="cls-9" d="m155.8,121.9c0-.5.2-.9.5-1.3.2-.3.6-.5,1-.6l1.9-.4c.2,0,.3,0,.4,0,.8,0,1.6.6,1.8,1.5,0,.1,0,.3,0,.4,0,.9-.6,1.6-1.5,1.8l-1.9.4s0,0-.1,0c-1,.2-1.9-.5-2.1-1.4,0-.1,0-.3,0-.4Z"/><path class="cls-7" d="m156.2,143.5c.6,6-1.8,11.2-5.5,11.6-3.7.4-7.1-4.2-7.8-10.2l13.3-1.4Z"/><path class="cls-11" d="m153.6,63.6c-2.5-.1-2.8,0-6.4,1.3-.8-1.5.3-2.2,2.8-2.7,3-.6,3.6,1,3.6,1.4Z"/><path class="cls-16" d="m153.1,83.1c0,1,0,4.9-4.6,5.6-2.8.4-6.7-1.8-8.5-4.1.9.3,2,.5,3.1.6,3.4.1,7.5-.9,9.9-2.1Z"/><path class="cls-5" d="m151.3,71.2c-.6-1.5-.6-3,0-3.2.6-.2,1.6.8,2.2,2.3s.6,2.9,0,3.2c-.6.2-1.6-.8-2.2-2.3Z"/><path class="cls-12" d="m150,52.1h-.1c-4.6.5-9.5-.7-13.1-3.4.8-.2,1.6-.2,2.3-.3,2.7-.2,5,.2,7,1.1,1.5.7,2.8,1.5,4,2.6Z"/><path class="cls-13" d="m156.2,143.5l-13.3,1.4c-.6-6,1.8-11.2,5.5-11.6,3.7-.4,7.2,4.2,7.8,10.2Z"/><path class="cls-9" d="m138.5,125.7c1.1-.1,2.1.7,2.2,1.8,0,0,0,.1,0,.2,0,1-.7,1.8-1.6,2,0,0-.1,0-.2,0l-2.1.2h0c-1.1.1-2.1-.7-2.2-1.8,0,0,0-.1,0-.2,0-1,.8-1.9,1.8-2l2-.2Z"/><path class="cls-9" d="m137.4,121.5c1.1-.2,2.1.5,2.3,1.5,0,0,0,0,0,.1,0,0,0,.2,0,.3,0,.9-.6,1.8-1.6,2l-2,.4c-1.1.2-2.2-.4-2.4-1.5,0-.2,0-.3,0-.4,0-.6.2-1.1.7-1.5.3-.2.6-.4.9-.5l2-.5s0,0,.1,0Z"/><path class="cls-12" d="m136.6,48.7c.3,1.9-1.5,3.7-3.4,4.1-2,.4-4-.2-5.9-.8,2.8-1.4,5.8-2.6,8.7-3.2.2,0,.4,0,.6,0Z"/><path class="cls-5" d="m135.6,74.9c.7,1.7.6,3.3-.1,3.6s-1.9-.8-2.5-2.5c-.7-1.7-.6-3.3.1-3.6.7-.3,1.9.8,2.5,2.5Z"/><path class="cls-11" d="m135.9,67.9c-5.6.7-6.7,3.6-7.6,2.7-.6-.7,1.1-2.3,1.9-2.9,1.6-1.1,4.1-1.8,5.3-1,.4.3.8.5.4,1.1Z"/><path class="cls-10" d="m153.6,96c6.4-4.8,6.9-11.7,6.1-16.6-.6-3.9-1.4-5.9-2-7.4-.7-1.7-1.1-2.9-1.1-5.6-.3-2.6-1.3-6.9-3.6-10.7-.8-1.3-1.8-2.6-2.9-3.7h-.1c-4.6.5-9.5-.7-13.1-3.4,0,0-.1,0-.2,0,.3,1.9-1.5,3.7-3.4,4.1-2,.4-4-.2-5.9-.8,0,0,0,0,0,0,.5,1.9-1.5,4.9-3,6.1-1.5,1.3-3.8,1.6-5.6.8,1.3,3.9.3,8.5-2.6,11.4,0,0,0,.2,0,.3,3.8,2.6,5.7,7.9,4.3,12.3h0c.3.7.7,1.4,1,2.1-.8-.5-2.4-.7-3.2,0-1,.7-1.1,2-1,3.1,0,.8.3,1.5.5,1.8.7,1.3,1.9,3.3,3.6,4.3,1,.6,2.8,1.1,4,.8.6.2,1.1.4,1.6.6,1.6.7,2.9,1.9,3.3,4,1.8,1.2,2.1,5,1.8,6.9,4.2.8,3.3,7.2,3.3,7.2,2.1.8,4.2,6.4,2,7.8h0c1.1-.2,2.1.5,2.3,1.6,0,0,0,0,0,.1,4.3,2,9,1.8,9.9,1.7,3.8-.2,5.4-3,5.4-6.1-.7-1.7-.7-3.6-.7-3.6-2.5-1.5-1.6-3.3-1.2-6.4-1.6-.2-3.3-2.2-3.6-3.7.2-2.6.8-7.1.8-7.1,1.2-.6,2.4-1.3,3.3-2Zm-25.3-25.4c-.6-.7,1.1-2.3,1.9-2.9,1.6-1.1,4.1-1.8,5.3-1,.4.3.8.5.4,1.1-5.6.7-6.7,3.6-7.6,2.7Zm7.2,7.9c-.7.3-1.9-.8-2.5-2.5-.7-1.7-.6-3.3.1-3.6.7-.3,1.9.8,2.5,2.5.7,1.7.6,3.3-.1,3.6Zm18-5c-.6.2-1.6-.8-2.2-2.3-.6-1.5-.6-3,0-3.2.6-.2,1.6.8,2.2,2.3s.6,2.9,0,3.2Zm-3.5-11.3c3-.6,3.6,1,3.6,1.4-2.5-.1-2.8,0-6.4,1.3-.8-1.5.3-2.2,2.8-2.7Zm-1.5,26.5c-2.8.4-6.7-1.8-8.5-4.1.9.3,2,.5,3.1.6,3.4.1,7.5-.9,9.9-2.1,0,1,0,4.9-4.6,5.6Z"/><path class="cls-16" d="m161.7,106c-1.2-1.4-4.2-1.4-5.2-1.1,0,0,0,0,0,0,3.5,1.9,2.1,7.8,2.1,7.8,0,0,0,0,0,0,.3.7,2.3,4.9.9,6.8.8,0,1.6.6,1.8,1.5,0,.1,0,.3,0,.4,0,.9-.6,1.6-1.5,1.8l-1.9.4s0,0-.1,0c-1,.2-1.9-.5-2.1-1.4,0-.1,0-.3,0-.4,0-.5.2-.9.5-1.3-.5-.5-.9-1.1-1.2-1.8,0,3.1-1.6,5.9-5.4,6.1-.9,0-5.6.3-9.9-1.7,0,0,0,.2,0,.3,0,.9-.6,1.8-1.6,2l-2,.4c-1.1.2-2.2-.4-2.4-1.5,0-.2,0-.3,0-.4,0-.6.2-1.1.7-1.5h0s0,0,0,0c-1.8-1.6-2.9-3.6-2.1-6.6,0,0,0,0-.1,0-1.2-.6-8.6-5.2-6.2-9.1-.5,0-1.5-.1-2.5-.4h0c0,.1,0,.1,0,.1-3.5.4-6.7,4.8-9,8.9l-4.6,9.5c1.1.7,3.2,2.8,4.6,2.8,2.5,0,3.4,3.6,5.3,3,2.3-.7,3.3,1.3,5,1.6-.2.7-.4,1.4-.6,2h0c1.5,3.5,3.1,11.5,3.4,15.4.2,2,0,7.9-.7,13.5-.5,5.1-1.2,10-2.1,11.7.5.2,1,.3,1.5.4,13.3,3.7,29,4.7,42,0,.5-.2,1-.3,1.4-.5-1.7-9.4-6.8-24.4-5.8-32,0-.3,0-.5,0-.8.6-4.8,1-8.5,1.1-11.7,1.4-.5,2.1-.3,2.8-1.3.6-1,1.8-1.1,2.8-1.6.6-.3,1.2-.7,1.4-1.4.3-.9,1.4-1.4,2.2-2.2-4.5-6.7-10.1-15.1-12.4-17.8Zm-22.6,23.8h0s0,0,0,0c.1,1.5-.5,6-1.4,7.2-.5-1.3-.7-5.5-.8-6.8h0c-1.1,0-2.1-.8-2.2-2,0,0,0-.1,0-.2,0-1,.8-1.9,1.8-2l2-.2c1.1-.1,2.1.7,2.2,1.8,0,0,0,.1,0,.2,0,1-.7,1.8-1.6,2Zm11.7,25.4c-3.7.4-7.1-4.2-7.8-10.2-.6-6,1.8-11.2,5.5-11.6,3.7-.4,7.2,4.2,7.8,10.2.6,6-1.8,11.2-5.5,11.6Zm10.2-28c0,1.4-.7,6.4-1,7.7-.6-.3-.7-3.6-.7-4.4s-.2-2.3-.5-3h-.1c-1,.1-2-.6-2-1.6,0,0,0-.1,0-.2,0-.8.6-1.6,1.3-1.8.1,0,.2,0,.3,0l1.9-.2c1,0,2,.7,2.1,1.7,0,0,0,.1,0,.2,0,.8-.5,1.5-1.3,1.7Z"/><path class="cls-12" d="m124.3,58.2c-1.5,1.3-3.8,1.6-5.6.8,0,0-.1-.2-.2-.2,1.6-2.2,5-4.7,8.8-6.7.5,1.9-1.5,4.9-3,6.1Z"/><path class="cls-9" d="m123,273.7h-.2c.1-1.1.3-2.1.5-3.1,0,0,2.2-.6.8,7.1,0,.4-.2.9-.2,1.3-1.5,3.5-3,7.4-5.1,10.6,0,0-.8-4.4-4.3-6.9h0s3.3-5.5,3.3-5.5c0,0,.5-1.1.8-2.4h.1s1.2-1.1,2.1.4c.6,1,1.5-.4,2.1-1.6Z"/><path class="cls-12" d="m120.4,82.9h0s0,0,0,0h0Z"/><path class="cls-10" d="m118.7,274.5s3.8-6.2-3.5-6.2c0,0-1.5-.1-2.8.4,1.5-4.6,2.4-22,3.1-27.3.7-5.4,4.7-16.6,4.7-16.6,3.5,1.3,8.7,2.8,14.7,3.7,0,0,.3,8.3-1.9,13.9-3.5,9.1-7.9,17.9-9.8,28.2-.2,1-.3,2-.5,3h.2c-.6,1.3-1.5,2.6-2.1,1.7-.9-1.5-2.1-.4-2.1-.4h-.1c0-.2,0-.3,0-.4Z"/><path class="cls-12" d="m118.4,58.8s0,0,0,0c0,0,.1.2.2.2l-.2-.2Z"/><path class="cls-12" d="m118.7,59c1.3,3.9.3,8.5-2.6,11.4,0,0,0,0,0,0-.3-3.1.1-6.3,1.5-10,.2-.4.4-.8.6-1.2,0,0,.1-.2.2-.3l.2.2Z"/><path class="cls-12" d="m116.4,72.2c-.1-.5-.2-1.1-.2-1.6,3.8,2.6,5.7,7.9,4.3,12.3h0c-1.9-4-3.3-7.4-4-10.7Z"/><path class="cls-16" d="m114.5,282.7c3.5,2.5,4.3,6.9,4.3,6.9-2.7,4.2-6.4,7-12.1,5.5-4.7-1.2-6.9-5.8-6.8-7.2,0-.2,0-.4.2-.7.2-.7.7-1.6,1.5-2.8,0,0,0,0,0-.2.4-.6,2.2-2.8,5.6-3.2,1.1-.2,2.3-.2,3.7.1,1.5.3,2.7.8,3.6,1.5Z"/><path class="cls-15" d="m118.7,274.5c.3-1.9.2-4.1-2.6-4.4-4.4-.6-6.2,2.2-5.8,4.5h0c-.1-.3-.2-.7-.2-1-.6-3,.8-4.3,2.3-4.9h0c1.4-.5,2.8-.4,2.8-.4,7.3,0,3.5,6.2,3.5,6.2Z"/><path class="cls-15" d="m107.1,280.9s2.4-3.7,3.5-5.6c0-.2-.2-.4-.2-.7-.5-2.3,1.4-5.1,5.8-4.5,2.7.3,2.9,2.6,2.6,4.4,0,.1,0,.2,0,.4-.3,1.3-.8,2.4-.8,2.4l-3.3,5.4h0c-1-.7-2.2-1.3-3.6-1.5-1.4-.3-2.6-.3-3.7-.1h0Z"/><path class="cls-9" d="m110.4,274.6h0c0,.2.1.5.2.7-1.1,1.9-3.5,5.6-3.5,5.6h0c-3.4.6-5.2,2.7-5.6,3.3,1.3-2.1,3.5-4.7,6.3-7.2.8-1.4,1.5-3,2.3-3.4,0,.3.1.6.2,1Z"/><path class="cls-8" d="m160.6,127.2l-1.8.2c.2.7.5,2.2.5,3s.2,4.1.7,4.4c.3-1.4,1-6.3,1-7.7-.1,0-.3,0-.4.1Z"/><path class="cls-8" d="m159.5,119.6c1.4-2-.6-6.1-.9-6.8,0,0,0,0,0,0,0,0,1.4-5.9-2.1-7.8,0,0,0,0,0,0,.4-1.8.4-7.6-2.8-8.8-1,.7-2.1,1.4-3.3,2,0,0-.6,4.5-.8,7.1.3,1.5,2,3.5,3.6,3.7-.4,3.1-1.3,4.8,1.2,6.4,0,0,0,1.9.7,3.6.3.7.7,1.3,1.2,1.8.2-.3.6-.5,1-.6l1.9-.4c.2,0,.3,0,.4,0Z"/><path class="cls-8" d="m153,55.7c2.3,3.7,3.3,8,3.6,10.7,0,2.7.5,3.9,1.1,5.6,1.1-7.2,2.5-15.5-5.3-22.8-.2-.2-.5-.4-.7-.7-2.2-1.9-5.2-3.6-8.1-4.4,0,0,0,0,0,0-2.9-.9-5.8-.8-7.5,1h0c-1.1-.6-2.1-1-3.2-1.3h0c-4.5-1.4-8.9-.5-12.8,1.4-.2,0-.4.2-.6.3-5.1,2.7-9.1,7.1-11.1,10-1.3,2-2.2,4.2-2.7,6.5,0,.1,0,.2,0,.4h0c-1.1,4.7-.9,9.7-.1,13.5.1.6.2,1.2.4,1.7,1.2,4.6,3.5,8.7,6.2,11.7,1.9,2.1,4,3.8,6.1,5-.2,1.6-.3,2.9-.3,4.1.2,5.4,3,7.1,5.4,7.8,1.1.3,2,.3,2.5.4-2.4,3.9,5,8.5,6.2,9.1,0,0,.1,0,.1,0-.8,3,.3,5.1,2.1,6.6h0c0,0,0,0,0,0,.3-.2.6-.4.9-.5l2-.5s0,0,.1,0h0c2.2-1.5.1-7.1-2-7.9,0,0,.9-6.4-3.3-7.2.3-1.9,0-5.7-1.8-6.9-.4-2.2-1.7-3.3-3.3-4-.5-.2-1.1-.4-1.6-.6-1.2.2-3-.2-4-.8-1.7-1-2.9-3-3.6-4.3-.2-.3-.4-1-.5-1.8-.1-1.1,0-2.3,1-3.1.8-.6,2.3-.4,3.2,0-.3-.7-.7-1.4-1-2.1,0,0,0,0,0,0-1.9-4-3.3-7.4-4-10.7-.1-.5-.2-1.1-.2-1.6,0,0-.1,0-.2-.1,0,0,0,0,.2-.2,0,0,0,0,0,0-.3-3.1.1-6.3,1.5-10,.2-.4.4-.8.6-1.2,0,0,.1-.2.2-.3,0,0,0,0,0,0,1.6-2.2,5-4.7,8.8-6.7,0,0,0,0,0,0,0,0,0,0,0,0,2.8-1.4,5.8-2.6,8.7-3.2.2,0,.4,0,.6,0,0,0,0-.1,0-.2,0,0,.1,0,.2.1.8-.2,1.6-.2,2.3-.3,2.7-.2,5,.2,7,1.1,1.5.7,2.8,1.5,4,2.6,1.2,1.1,2.1,2.3,2.9,3.7Z"/><path class="cls-8" d="m139.1,129.8h0c0,0-.1,0-.2,0l-2.1.2h0,0c.2,1.5.4,5.7.8,7,1-1.2,1.6-5.7,1.4-7.2h0Z"/><path class="cls-10" d="m124.5,161c-.4-.4-1-.7-1.5-.5-.5.2-.8.6-1.1,1.1-.2.5-.4.9-.8,1.3-.4.4-1,.5-1.4.2h0c.3-.7.5-1.3.6-2,0-.7,0-1.4-.4-1.9,0,0-.1-.1-.2-.2-.2-.2-.5-.3-.8-.3,0-.4.1-.8.2-1.2.2-1.7.1-3.2.3-4.1.5-3.8,2.4-11.8,4.7-19.2h0c.2-.7.4-1.4.6-2.1-1.7-.3-2.7-2.3-5-1.6-1.9.6-2.8-3-5.3-3l-6.3,22.4c-.2.9-.2,1.7-.2,2.5-.7,0-1.3.3-1.9.5-2.1.9-3.9,2.4-5.4,4.1-.3.3-.6.7-.7,1.1-.2.4,0,1,.3,1.2.4.4,1.1.2,1.6,0,1.5-.5,3.1-.9,4.6-1.4,1.1,1,1.1,2.8,1,4.2,0,1.5.2,3.4,1.6,3.9,1,.4,2.1,0,3-.8.3.9,1.4,1.5,2.4,1.5,1,0,2-.5,2.9-1.1,1.6,1.3,4.2,1.5,5.9.2,1.1-.7,1.9-2,1.9-3.3,0-.2,0-.3,0-.4,0-.5-.2-1.1-.5-1.5Z"/><path class="cls-15" d="m99.8,287.9c-.1,1.4,2.1,5.9,6.8,7.2,5.7,1.5,9.4-1.4,12.1-5.5,2.1-3.2,3.6-7.1,5.1-10.6,0-.5.2-.9.2-1.3.8.9.3,2.7.3,2.7l-1.4,3.3s-1,3.9-2.8,8.3c-1.8,4.4-7.5,7-13.4,6.4-5.9-.7-7.7-5.9-7.7-5.9v-4.2l1-.9c0,.3-.2.5-.2.7Z"/><path class="cls-2" d="m126.1,175.2c-.5,1.9-1.1,4.2-1.6,6.5-1.1,5.5-7.4,31.1-8.6,40.8.6.7,2.1,1.5,4.3,2.4,3.5,1.3,8.7,2.8,14.7,3.7,5.9.9,12.7,1.4,19.2.9,6.1-.5,12-1.9,17-4.6,2.3-1.2,4.3-2.7,6.1-4.5"/><path class="cls-2" d="m177.2,220.3c-1.9-13.7-7.1-35.1-9.1-45.1"/><path class="cls-2" d="m112.4,268.7c0,0,0,.2,0,.3"/><path class="cls-2" d="m120.2,224.8s-4.1,11.2-4.7,16.6c-.6,5.3-1.5,22.7-3.1,27.3"/><path class="cls-2" d="m134.9,228.5s.3,8.3-1.9,13.9c-3.5,9.1-7.9,17.9-9.8,28.2-.2,1-.3,2-.5,3"/><path class="cls-2" d="m171.1,224.7s0,0,0,0c0,.4.6,2.4.5,3.5,0,1.3-.8,4.6-.8,4.6,0,0-.6,29.1-.7,33.4v.5"/><path class="cls-2" d="m154.1,229.6s-1.2,4.8-1.1,8.5c.3,7.9,3.9,16,6.7,30.2.2,1.1.4,2.3.7,3.4,0,.2,0,.3,0,.5"/><path class="cls-2" d="m101.6,284.2c1.3-2.1,3.5-4.7,6.3-7.2.8-1.4,1.5-3,2.3-3.4"/><path class="cls-2" d="m123.2,270.6s2.2-.6.8,7.1c0,.4-.2.9-.2,1.3-1.5,3.5-3,7.4-5.1,10.6-2.7,4.2-6.4,7-12.1,5.5-4.7-1.2-6.9-5.8-6.8-7.2,0-.2,0-.4.2-.7.2-.7.7-1.6,1.5-2.8"/><path class="cls-2" d="m118.8,289.6s-.8-4.4-4.3-6.9c-1-.7-2.2-1.3-3.6-1.5-1.4-.3-2.6-.3-3.7-.1-3.4.5-5.2,2.6-5.6,3.2,0,0,0,.2,0,.2"/><path class="cls-2" d="m118.8,274.9s1.2-1.1,2.1.4c.6,1,1.5-.4,2.1-1.6.3-.6.5-1.2.6-1.3"/><path class="cls-2" d="m114.5,282.7l3.3-5.4s.5-1.1.8-2.4c0-.1,0-.2,0-.4.3-1.9.2-4.1-2.6-4.4-4.4-.6-6.2,2.2-5.8,4.5,0,.2.1.5.2.7-1.1,1.9-3.5,5.6-3.5,5.6"/><path class="cls-2" d="m118.7,274.5s3.8-6.2-3.5-6.2c0,0-1.5-.1-2.8.4h0c-1.5.6-2.8,1.9-2.3,4.9,0,.3.1.6.2,1s0,.2.1.4"/><path class="cls-2" d="m100,287.2l-1,.9v4.2s1.7,5.2,7.7,5.9c5.9.7,11.6-2,13.4-6.4,1.8-4.4,2.8-8.3,2.8-8.3l1.4-3.3s.5-1.7-.3-2.7"/><path class="cls-2" d="m180.4,278.7c-2,2-2.9,5.3-2.4,9"/><path class="cls-2" d="m160.4,268.3s-.3,0-.6,0c-.9,0-2.3.4-2.1,2.3.3,2.4.6,7.9.6,9.4,0,.2,0,.3,0,.4,1.1.9,2.9,3,9.5,2.6,2.7.8,5.8,3.3,10.2,4.7h0c3,1,6.6,1.4,11,.7,3-1.1,3.5-3.1,3.5-3.1,0,0,.5-7.4-4.6-8.6-.9-.2-1.9-.2-3.1,0-.7.1-1.6.4-2.5.7-.7.3-1.4.7-1.9,1.3"/><path class="cls-2" d="m159.5,270c0,.4.4,1.1.9,1.7.5.7,1.1,1.2,1.7,1.3,1.1.1,1.9-1.8,3.3-1.4.2,0,.8.4,1.6.8.4.2.9.5,1.4.7,3.9,2.1,10.2,5.6,11.9,5.5h0"/><path class="cls-2" d="m173.1,267.5c.6.3.6,1.3.4,2.5,0,.2,0,.4,0,.6-.2,1.6.6,1.6.6,1.6l10.8,4.5"/><path class="cls-2" d="m168.5,273.1s-.3-4.4,2.4-5.5c1-.4,1.7-.5,2.1-.3"/><path class="cls-2" d="m167.1,272.4s-1.2-6.4,3-6c.8,0,1.7.4,2.9,1,0,0,0,0,.2,0"/><line class="cls-2" x1="173.4" y1="270.6" x2="187.9" y2="276.7"/><path class="cls-2" d="m192.5,285.2l.8.5v2.3s-1.3,3.1-6.1,2.9-10.2-1.3-12.7-2.2c-2.4-.9-5.7-3-6.4-3.1-.7-.1-8.4-.2-9.9-2.6s0-3,0-3"/><path class="cls-2" d="m130.3,99.6c-.4-2.2-1.7-3.3-3.3-4-.5-.2-1.1-.4-1.6-.6"/><path class="cls-2" d="m156.6,66.4c0,2.7.5,3.9,1.1,5.6.6,1.5,1.3,3.5,2,7.4.8,4.8.3,11.8-6.1,16.6-1,.7-2.1,1.4-3.3,2,0,0-.6,4.5-.8,7.1,0,.7,0,1.2,0,1.5"/><path class="cls-1" d="m147.3,64.9c-.8-1.5.3-2.2,2.8-2.7,3-.6,3.6,1,3.6,1.4-2.5-.1-2.8,0-6.4,1.3Z"/><path class="cls-1" d="m135.9,67.9c.4-.6,0-.8-.4-1.1-1.2-.8-3.7-.2-5.3,1-.8.6-2.5,2.2-1.9,2.9.8.9,2-2,7.6-2.7Z"/><path class="cls-1" d="m151.3,71.2c.6,1.5,1.6,2.5,2.2,2.3.6-.2.7-1.7,0-3.2s-1.6-2.6-2.2-2.3c-.6.2-.7,1.7,0,3.2Z"/><path class="cls-1" d="m132.9,76c.7,1.7,1.8,2.8,2.5,2.5s.8-1.9.1-3.6c-.7-1.7-1.8-2.8-2.5-2.5-.7.3-.8,1.9-.1,3.6Z"/><path class="cls-1" d="m153.1,83.1c-2.4,1.2-6.5,2.2-9.9,2.1-1.1,0-2.2-.2-3.1-.6,1.8,2.2,5.7,4.5,8.5,4.1,4.6-.7,4.6-4.6,4.6-5.6Z"/><path class="cls-1" d="m121.4,85.1c-.8-.5-2.4-.7-3.2,0-1,.7-1.1,2-1,3.1s.3,1.5.5,1.8c.7,1.3,1.9,3.3,3.6,4.3,1,.6,2.8,1.1,4,.8.8-.2,1.4-.7,1.2-1.8"/><path class="cls-1" d="m116.1,70.2s0,0,0,0c0,0,0,.2,0,.3,0,.5.1,1.1.2,1.6.7,3.3,2.1,6.7,4,10.7,0,0,0,0,0,0,.3.7.7,1.4,1,2.1"/><path class="cls-3" d="m118.2,59.1c-.3.4-.5.8-.6,1.2-1.4,3.7-1.8,6.9-1.5,10"/><path class="cls-1" d="m156.6,66.4c-.3-2.6-1.3-6.9-3.6-10.7-.8-1.3-1.8-2.6-2.9-3.7-1.1-1.1-2.4-2-4-2.6-2-.8-4.3-1.3-7-1.1-.7,0-1.5.1-2.3.3,0,0-.1,0-.2,0-.2,0-.4,0-.6,0-2.9.6-5.9,1.8-8.7,3.2,0,0,0,0,0,0-3.8,2-7.2,4.4-8.8,6.7,0,0,0,0,0,0,0,0-.2.2-.2.3"/><path class="cls-2" d="m124,134.2c.2-.7.4-1.4.6-2,.9-2.7,1.7-5.2,2.6-7.4"/><path class="cls-2" d="m119.3,153.4c.5-3.8,2.4-11.8,4.7-19.2"/><line class="cls-2" x1="114.3" y1="127.6" x2="108" y2="150"/><path class="cls-2" d="m124.6,132.1c-1.7-.3-2.7-2.3-5-1.6-1.9.6-2.8-3-5.3-3s-3.5-2.1-4.6-2.8l4.6-9.5c2.2-4.1,5.5-8.5,9-8.9"/><path class="cls-2" d="m170.5,127.3c1.2,2.9,4.2,9.4,5.5,11.7v.2"/><path class="cls-2" d="m164.9,130.2c1.4-.5,2.1-.3,2.8-1.3.6-1,1.8-1.1,2.8-1.6.6-.3,1.2-.7,1.4-1.4.3-.9,1.4-1.4,2.2-2.2-4.5-6.7-10.1-15.1-12.4-17.8-1.2-1.4-4.2-1.4-5.2-1.1"/><path class="cls-2" d="m180.6,139.7c-1.5-.3-3.2-.6-4.7-.6-1.7,0-3.3.1-4.2.7-2.7,1.7-4.6,3.4-4.9,5.9,0,.7.3,2.3.9,3.9.7,1.7,1.5,3.4,2.4,4.1,1.9,1.6,6,.4,8.1-.9,2.1-1.2,2.1-.7,4.1-1.9,0,0,.1,0,.2,0"/><path class="cls-2" d="m119.1,157.5c.2-1.7.1-3.2.3-4.1"/><path class="cls-2" d="m108,150c-.2.9-.2,1.7-.2,2.5"/><path class="cls-2" d="m169.5,174.7c-.5.2-1,.4-1.4.5-13,4.6-28.7,3.7-42,0-.5-.1-1-.3-1.5-.4.9-1.7,1.6-6.6,2.1-11.7.6-5.6.8-11.4.7-13.5-.3-3.9-1.9-12-3.4-15.4h0"/><path class="cls-2" d="m164.6,120.8c.2,1.5.3,3,.3,4.5,0,1.6,0,3.2,0,5-.1,3.3-.5,6.9-1.1,11.7,0,.2,0,.5,0,.8-1,7.6,4.1,22.7,5.8,32"/><path class="cls-2" d="m151.7,48.6c.2.2.5.4.7.7,7.8,7.3,6.4,15.6,5.3,22.8"/><path class="cls-3" d="m143.6,44.2c2.9.8,5.9,2.6,8.1,4.4"/><path class="cls-1" d="m136,45.1h0c1.7-1.8,4.5-1.8,7.5-1"/><path class="cls-1" d="m132.9,43.8c1.1.3,2.1.8,3.2,1.3"/><path class="cls-1" d="m105.6,62.4c0-.1,0-.3,0-.4.6-2.3,1.5-4.5,2.7-6.5,2-3,6-7.3,11.1-10,.2,0,.4-.2.6-.3,3.8-1.9,8.2-2.8,12.8-1.4"/><path class="cls-1" d="m127,95.5h0c-2.5,1-5.7.5-8.8-1.2-2.1-1.2-4.2-2.9-6.1-5-2.7-3.1-5-7.1-6.2-11.7-.1-.5-.3-1.1-.4-1.7-.7-3.8-.9-8.8.1-13.5"/><path class="cls-2" d="m163.8,142c1.2,2.8,2.6,4.8,3.9,7.6"/><path class="cls-2" d="m139.7,123.2c4.3,2,9,1.8,9.9,1.7,3.8-.2,5.4-3,5.4-6.1h0"/><path class="cls-2" d="m143.3,81.4c.6-2.6,7.5-7,8.3-2.5"/><path class="cls-1" d="m149.9,52.2c-4.6.4-9.5-.8-13.1-3.5,0,0-.1,0-.2-.1,0,0,0,.1,0,.2.3,1.9-1.5,3.7-3.4,4.1-2,.4-4-.2-5.9-.8,0,0,0,0,0,0,0,0,0,0,0,0,.5,1.9-1.5,4.9-3,6.1-1.5,1.3-3.8,1.6-5.6.8,1.3,3.9.3,8.5-2.6,11.4l-.2.2c0,0,.1,0,.2.1,3.8,2.6,5.7,7.9,4.3,12.3h0c0,.1,0,.2,0,.3"/><path class="cls-2" d="m156.2,143.5c.6,6-1.8,11.2-5.5,11.6-3.7.4-7.1-4.2-7.8-10.2-.6-6,1.8-11.2,5.5-11.6,3.7-.4,7.2,4.2,7.8,10.2Z"/><line class="cls-2" x1="143" y1="144.9" x2="156.2" y2="143.5"/><path class="cls-2" d="m118.2,94.3h0c-.2,1.6-.3,3-.3,4.2.2,5.4,3,7.1,5.4,7.8s2,.3,2.5.4c-2.4,3.9,5,8.5,6.2,9.1,0,0,.1,0,.1,0-.8,3,.3,5.1,2.1,6.6"/><path class="cls-2" d="m153.6,96c3.2,1.2,3.2,6.9,2.8,8.8,0,0,0,0,0,0,3.5,1.9,2.1,7.8,2.1,7.8,0,0,0,0,0,0,.3.7,2.3,4.9.9,6.8"/><path class="cls-2" d="m130.3,99.6c1.8,1.2,2.1,5,1.8,6.9,4.2.8,3.3,7.2,3.3,7.2,2.1.8,4.2,6.4,2,7.8"/><path class="cls-2" d="m149.5,105.1c.3,1.5,2,3.5,3.6,3.7-.4,3.1-1.3,4.8,1.2,6.4,0,0,0,1.9.7,3.6.3.7.7,1.3,1.2,1.8,0,0,.1.1.2.2"/><path class="cls-2" d="m139.7,123.2c0,0,0,.2,0,.3,0,.9-.6,1.8-1.6,2l-2,.4c-1.1.2-2.2-.4-2.4-1.5,0-.2,0-.3,0-.4,0-.6.2-1.1.7-1.5.3-.2.6-.4.9-.5l2-.5s0,0,.1,0c1.1-.2,2.1.5,2.3,1.5,0,0,0,0,0,.1Z"/><path class="cls-2" d="m139.1,129.8c0,0-.1,0-.2,0l-2.1.2h0c-1.1.1-2.1-.7-2.2-1.8,0,0,0-.1,0-.2,0-1,.8-1.9,1.8-2l2-.2c1.1-.1,2.1.7,2.2,1.8,0,0,0,.1,0,.2,0,1-.7,1.8-1.6,2Z"/><path class="cls-2" d="m159.5,119.6c.8,0,1.6.6,1.8,1.5,0,.1,0,.3,0,.4,0,.9-.6,1.6-1.5,1.8l-1.9.4s0,0-.1,0c-1,.2-1.9-.5-2.1-1.4,0-.1,0-.3,0-.4,0-.5.2-.9.5-1.3.2-.3.6-.5,1-.6l1.9-.4c.2,0,.3,0,.4,0Z"/><path class="cls-2" d="m161,127.1c-.1,0-.3,0-.4.1l-1.8.2h-.1c-1,.1-2-.6-2-1.6,0,0,0-.1,0-.2,0-.8.6-1.6,1.3-1.8.1,0,.2,0,.3,0l1.9-.2c1,0,2,.7,2.1,1.7,0,0,0,.1,0,.2,0,.8-.5,1.5-1.3,1.7Z"/><path class="cls-2" d="m136.8,130.1c.2,1.4.4,5.6.8,6.8,1-1.2,1.6-5.7,1.4-7.2"/><path class="cls-2" d="m158.8,127.4c.2.7.5,2.2.5,3s.2,4.1.7,4.4c.3-1.4,1-6.3,1-7.7"/><path class="cls-2" d="m182.5,140c0-.5,0-.9,0-1.3,0-1,.4-1.7,1.4-2.5,1.4-1.1,3.2-1.6,4.9-1,3.1-2.5,7.3-3.6,11.2-2.9.2,0,.4,0,.5.3.2.3-.2.8-.5,1l-4.6,3.2c-.6.4-1.3.9-1.7,1.5-.4.7-.6,1.5-.2,2.2.6,1,2,1,3.1.9"/><path class="cls-2" d="m189.3,144.3c.1.6.9.7,1.5.5.6-.2.9-.7,1.4-1.1s1-.7,1.6-.5c.2,0,.4.2.6.5.2.4.3,1,.4,1.5,0,.7.1,1.5,0,2.2,0,0,0,0,0,.1-.1.8-.5,1.5-1.2,1.9-.7.4-1.6.5-2.4.3-.7-.2-1.4-.6-2-1,0,0-.1,0-.2,0"/><path class="cls-2" d="m182.4,138.7c-.6,0-1.2.5-1.8,1-.7.7-1.4,1.7-1.7,2.6-.5,1.8-.2,5.2.4,6.4.6,1.1,1.7,2,3,2.1,0,0,.1,0,.2,0"/><path class="cls-3" d="m194.4,143.7c.4-1,1.2-1.8,2.2-2.3.2-.1.5-.2.8-.3.4-.1.9-.2,1.3-.1.4,0,.8.3,1,.7.2.6,0,1.2-.2,1.8-.4.9-.7,1.9-1.1,2.8s-.2.6-.5.8c-.4.4-1,.5-1.5.4-.6,0-1.1-.2-1.6-.1"/><path class="cls-2" d="m187,150.5c-.5-2-1.9-4.3-3.5-2.7-.5.4-.7,1.1-.9,1.7-.1.5-.2.9-.3,1.4,0,0,0,0,0,.1,0,.4,0,.7-.1,1.1,0,.6,0,1.2.4,1.6.4.5,1.2.6,1.9.7.7,0,1.5,0,2-.3.4-.3.6-.8.7-1.3.1-.5,0-1.3-.2-2.2Z"/><path class="cls-2" d="m187,150.5c.9-.2,1.7-.9,2.1-1.7,0,0,0,0,0-.1"/><path class="cls-2" d="m117.9,98.5h0c3.6.8,6.5,0,9.4.2,1,0,1.6.4,2.9.9"/><path class="cls-2" d="m125.8,106.6c2.3-.1,4-.4,6.3-.2"/><path class="cls-2" d="m156.5,104.9c-1.6.7-3.1,2.2-3.4,4"/><path class="cls-2" d="m158.6,112.7c-1.5.6-3.5,1.1-4.3,2.5"/><path class="cls-2" d="m132,115.6c1.2-1.2,1.8-2.3,3.4-2"/><path class="cls-3" d="m135.9,45c0,0,.1,0,.2,0,1.3.7,2.4,1.8,3,3"/><path class="cls-3" d="m116.1,72.3c-.9,1.8-2.7,2.9-4.6,3.4-1.9.5-3.9.4-5.9.2"/><path class="cls-3" d="m105.5,75.9s0,0,0,0c2.9,5,9.1,7.9,14.8,7h0s0,0,0,0"/><path class="cls-3" d="m111.8,89.4c0,0,.2,0,.2,0,1.9-.2,3.8,0,5.1-1.3"/><path class="cls-3" d="m105.6,62.4h0c1.7,4.5,5.6,7.2,10.4,7.8"/><path class="cls-3" d="m119.5,45.5c-2.1,1.7-2.9,3.3-3.5,5.9-.6,2.5.8,5.3,2.5,7.3,0,0,.1.2.2.2"/><path class="cls-3" d="m132.9,43.8h0c-1.8-.1-3.2,1-4.4,2.4s-1.8,3.3-1.5,5.2"/><path class="cls-3" d="m143.5,44.2s0,0,0,0c1.3,1.1,2.7,3.3,2.6,5"/><path class="cls-3" d="m151.6,48.7c1.7,1.9,2.2,4.6,1.5,7"/><path class="cls-3" d="m118.6,59c-.1,0-.2,0-.3.1-4,1.7-8.2,3.2-12.6,3h0"/><path class="cls-3" d="m120.1,45.2s0,0,0,0c1.1,3,3.7,5.4,6.8,6.3.1,0,.2,0,.3,0"/><path class="cls-3" d="m136.7,48.6c0,0,0,0-.2,0-1.8-.8-3.2-2.9-3.7-4.7"/><polygon class="cls-6" points="193.6 97.7 201 112.8 185.9 120.2 178.5 105.1 193.6 97.7"/><polygon class="cls-14" points="163.3 18.5 151.7 30.6 139.6 19 151.2 6.9 163.3 18.5"/><polygon class="cls-14" points="128 144.2 125 160.7 123.5 160.5 109.9 157.9 108.5 157.7 111.5 141.2 128 144.2"/><polygon class="cls-4" points="139.6 19 151.7 30.6 163.3 18.5 151.2 6.9 139.6 19"/><polyline class="cls-4" points="123.5 160.5 125 160.7 128 144.2 111.5 141.2 108.5 157.7 109.9 157.9"/><line class="cls-4" x1="109.9" y1="157.9" x2="123.5" y2="160.5"/><polygon class="cls-4" points="201 112.8 185.9 120.2 178.5 105.1 193.6 97.7 201 112.8"/><path class="cls-10" d="m124.5,161c-2.3-2.4-2.6,3.2-4.8,2,2-3.4-1-6.2-3.8-3,.3-3.6-4-1.4-5.4,0-.9-.3-1.8-.8-2.6-1.5-.1-2.1.2-4.2.8-6.2-6.2.4-15.2,11.1-2.4,5.9,2.3,2.2-.7,11.3,5.6,7.4.8,2.2,3.9,1.7,5.4.4,3.1,3.3,9.8-.9,7.2-4.9Z"/><path class="cls-1" d="m108.7,152.3c-1.1,0-1.8.3-2.8.7-2.1.9-3.9,2.4-5.4,4.1-.3.3-.6.7-.8,1.1-.1.4,0,1,.3,1.2.4.4,1.1.2,1.6,0l4.6-1.4c.1,0,.2.2.3.3.8,1,.8,2.6.7,3.9,0,1.5.2,3.4,1.6,3.9,1,.4,2.1,0,3-.8.3-.2.6-.5.8-.8.9-.9,1.7-2,2.4-3,.3-.5.7-1.1.8-1.7.1-.6,0-1.3-.6-1.7-.7-.5-1.7-.3-2.5.2-.9.5-1.7.8-2.3,1.5-.2.1-.3.3-.5.5"/><path class="cls-1" d="m112,165.7c.3,1,1.3,1.3,2.3,1.4,1.1,0,2.1-.5,2.9-1.1,1-.8,1.9-1.8,2.4-2.9.3-.6.5-1.3.6-2,0-.7,0-1.4-.4-1.9-.5-.6-1.5-.7-2.3-.4-.8.3-1.2.7-1.7,1.2"/><path class="cls-1" d="m117.3,166c1.6,1.5,4,1.6,5.8.3,1.2-.8,2-2.3,1.9-3.7,0-.6-.2-1.1-.5-1.5-.4-.4-1-.6-1.5-.5-.5.2-.8.6-1,1.1-.2.4-.4.9-.8,1.3-.4.4-1,.5-1.4.2"/></svg>