<?xml version="1.0" encoding="UTF-8"?><svg id="Layer_5" xmlns="http://www.w3.org/2000/svg" width="300" height="300" viewBox="0 0 300 300"><defs><style>.cls-1{stroke-linejoin:round;}.cls-1,.cls-2{stroke:#000;stroke-linecap:round;}.cls-1,.cls-2,.cls-3{fill:none;}.cls-2,.cls-3{stroke-miterlimit:10;}.cls-3{stroke:#fff;}.cls-4,.cls-5,.cls-6,.cls-7,.cls-8,.cls-9,.cls-10,.cls-11,.cls-12{stroke-width:0px;}.cls-5{fill:#4d0099;}.cls-6{fill:#5f4c49;}.cls-7{fill:#26affa;}.cls-8{fill:#94df5d;}.cls-9{fill:#383838;}.cls-10{fill:#c2c8c3;}.cls-11{fill:#3246ff;}.cls-12{fill:#fff;}</style></defs><path class="cls-6" d="m110.7,155.5c.2,0,.5.1.7.3,0,0,0,0,0,0-.3-.1-.5-.2-.8-.4Z"/><path class="cls-6" d="m161.7,271.5c-1.4-.4-2.2,1.5-3.4,1.4-.6,0-1.1-.6-1.6-1.2,0-1.2,0-2.4-.1-3.6-.5-8.6-2.5-15.1-2.9-22.7,3.9.9,9.2,1.1,14-1.3,0,1.1-1.4,21.8-1.5,22.7-3.8-.5-3,5.5-3,5.5h0c-.8-.4-1.3-.7-1.6-.8Z"/><path class="cls-7" d="m121.7,160.3c.1-1.3.2-2.5,0-3.2-.3-4-1.4-18.1-2.6-21.7h0c.5-3.9.8-7.9,1.2-10.7.4-4.1.5-9.9-.6-13.3-.9-2.8-1.8-6.5-5.8-7.7h0c0,0,.1,0,.2,0l10.7-1.2c0,2.2.5,3.5,2.1,5,2,1.9,10.1,3.4,12.9,3,7.4-1,11-3,11.7-6.2.3-1.2.2-.5,0-2.8,1,.1,2.2.2,3.6.4,0,0,5.9,6.4,6.7,16.2,1,6.1,1.6,12.2,2,17.9.3,4.3.5,8.3.7,11.9.2,3.1.3,5.8.5,8.2.7,8.7,1.7,16.1,1.5,24.6-2.1.8-10,2.7-20.1,3-7.6.2-16.5-.6-25.2-3.4-.7-.2-1.3-.4-2-.7.2-3.5,1.8-13.5,2.2-19.3Z"/><path class="cls-9" d="m119,283.6s-1,3.9-2.8,8.3c-1.8,4.4-7.5,7-13.5,6.3s-7.7-5.9-7.7-5.9v-4.3l1-.9c0,.3-.2.5-.2.7-.1,1.4,2.1,6,6.8,7.2,5.7,1.5,9.4-1.4,12.1-5.5,2.1-3.2,3.6-7.2,5.1-10.6,0-.5.2-.9.2-1.3.8.9.3,2.7.3,2.7l-1.4,3.3Z"/><path class="cls-12" d="m119.4,270.5s2.2-.6.8,7.1c0,.4-.2.9-.2,1.3-1.5,3.5-3,7.4-5.1,10.6,0,0-.8-4.4-4.3-6.9h0s3.3-5.5,3.3-5.5c0,0,.5-1.1.8-2.4h.1c.2,0,1.3-1,2.1.4.6,1,1.5-.4,2.1-1.6h-.2c.1-1.2.3-2.2.4-3.1h0Z"/><path class="cls-12" d="m153.9,270.5c-.4-2.7,2.7-2.3,2.7-2.3h0c0,1.2.1,2.3.1,3.6.5.6,1.1,1.1,1.6,1.2,1.1.1,1.9-1.8,3.4-1.4.3,0,.8.4,1.6.8.4.2.9.5,1.4.7,3.9,2.1,10.2,5.7,11.9,5.6-2,2-2.9,5.4-2.4,9.1-4.5-1.4-7.6-3.9-10.3-4.7-6.7.3-8.4-1.8-9.5-2.7,0,0,0-.2,0-.4,0-1.5-.2-7-.6-9.5Z"/><path class="cls-12" d="m146.7,83.8c-1.6.8-4.1,1.2-6.2.2-1.3-.6-3.9-2.1-5.1-3.1-.3-.3,2.2-.5,5.4-.9,3.2-.4,7-1.1,9.2-2.1.4-.2.8-.5,1.1-.7l-.3.4c-.5,3.1-1.4,5-4.1,6.3Z"/><path class="cls-9" d="m189.6,285.7v2.3s-1.3,3.1-6.1,3c-4.8-.1-10.3-1.3-12.7-2.2-2.5-.9-5.7-3-6.4-3.1-.7-.1-8.4-.1-10-2.6-1.6-2.5,0-3,0-3h0c0,.2,0,.3,0,.4,1.1.9,2.9,3,9.5,2.7,2.7.8,5.8,3.3,10.3,4.7,3,1,6.6,1.4,11.1.7,3-1.2,3.5-3.1,3.5-3.1l.8.5Z"/><path class="cls-12" d="m184,276.6c5.3,1,4.8,8.6,4.8,8.6,0,0-.5,2-3.5,3.1-4.5.8-8.1.3-11.1-.7-.5-3.7.3-7.1,2.4-9.1h0c.5-.5,1.2-1,1.9-1.3,2.3-.9,4.1-1,5.4-.7Z"/><path class="cls-12" d="m168.2,267.4c1.5.2,1.5,2.5,1.5,2.5l14.3,6.6h0c-1.4-.3-3.2,0-5.4.8-.7.3-1.4.8-1.9,1.3h0c-1.7,0-8-3.4-11.9-5.6,0,0-.3-4.4,2.4-5.5.4-.2.8-.2,1.1-.2Z"/><path class="cls-6" d="m200.7,129c-4-1.4-8.9.2-12.1,2.8-2.3-1-6,.7-6.5,3.1,0,0-1.3.5-1.1.5-1.8-.8-4.6-1.5-7.1-1.3-.3-1.3-.5-2.2-.9-3.8-1.7,3.4-5.4,5.6-9.2,5.6.5,14.6.4,18.7,15.4,11.5.5.3,1,.5,1.6.5-1.5,5.7,7.9,4.9,4.3-1.9.2.5.4,1,.5,1.6.9-.2,1.7-.9,2.2-1.8,2.4,2,6.2,1.2,5.9-2.4,1.3,0,3.3.6,3.7-1.2,2.2-3.8,1.8-7.8-3-4.2-5.1-3.5,5.7-6.2,6.2-9Z"/><path class="cls-8" d="m173.7,128.8c-.2.5-.4,1-.6,1.5-.7,1.4-1.8,2.7-3.1,3.7-1.7,1.2-3.9,2-6,2-.4-5.7-1-11.8-2-17.9-.9-9.7-6.7-16.2-6.7-16.2,3.9.3,8.6.8,9.9,2.6,2.4,3.3,6.7,16.1,8.5,24.5Z"/><path class="cls-6" d="m158.4,76.2c-1.3-9.8-3.6-7.7-4.2-14.3-.7-7.8-2.9-10.6-3.1-11-4.2-7-10.5-10.2-17.5-10.2-6.7,0-15.9,2-20.4,7.3-4.9,5.8-11.7,13.1-.4,28.7-.3.3-.6.6-.7,1-.4,1.1,0,2.3.6,3.3.8,1.7,1.9,3.3,3.1,4.6.7.7,1.3,1.3,2.2,1.7.8.3,1.7.4,2.4,0h.2c5.4,4.3,7.2,6.4,8.1,9.3.2.7.4,1.5.5,2.4.4,2.6,7.6,3.3,10.6,3,3.3-.3,7.6-1.9,7.5-3.7,0-.9,0-1.7.1-2.4.2-1.3.5-2.3.5-2.3,4-3.1,11.4-9.8,10.4-17.6Zm-33.1-15.3c-2.2.4-1.7.8-4.7,1.3.2-1.6,7-7.2,10.7-3.6,0,.8-.6,1.3-1.1,1.7-.5.3-4.3.5-4.9.6Zm6.5,11.1c-.7.3-1.9-.9-2.6-2.6-.7-1.7-.6-3.4.2-3.7.7-.3,1.9.9,2.6,2.6s.6,3.4-.1,3.7Zm18.5-17.2c.1.3-1.2.3-3.2.5-.4,0-4.5,1.5-4.9,1.3-.4-.2-.8-.7-.7-1.3.5-2.8,7.7-2.8,8.8-.5Zm-.6,11.6c-.6.2-1.6-.8-2.3-2.4-.6-1.6-.6-3.1,0-3.3.6-.2,1.7.8,2.3,2.4.6,1.6.6,3.1,0,3.3Zm1.1,11.2c-.5,3.1-1.4,5-4.1,6.3-1.6.8-4.1,1.2-6.2.2-1.3-.6-3.9-2.1-5.1-3.1-.3-.3,2.2-.5,5.4-.9,3.2-.4,7-1.1,9.2-2.1.4-.2.8-.5,1.1-.7l-.3.4Z"/><path class="cls-8" d="m151.6,101.4c.1,2.4.2,1.7,0,2.8-.7,3.1-4.3,5.1-11.7,6.2-2.8.4-10.9-1.1-12.9-3-1.6-1.5-2-2.8-2.1-5,0-.6,0-1.3,0-2.1,0-.5,1.5-3.1,3.8-3.5.2.7.4,1.5.5,2.4.4,2.6,7.6,3.3,10.6,3,3.3-.3,7.6-1.9,7.5-3.7,0-.9,0-1.7.1-2.4,1.9,0,4.1,3.7,4.2,5.4Z"/><path class="cls-4" d="m150.3,54.7c.1.3-1.2.3-3.2.5-.4,0-4.5,1.5-4.9,1.3-.4-.2-.8-.7-.7-1.3.5-2.8,7.7-2.8,8.8-.5Z"/><path class="cls-4" d="m149.7,63c.6,1.6.6,3.1,0,3.3s-1.6-.8-2.3-2.4c-.6-1.6-.6-3.1,0-3.3.6-.2,1.7.8,2.3,2.4Z"/><path class="cls-10" d="m166.7,180.6c-2.1.8-10,2.7-20.1,3-7.6.2-16.5-.6-25.2-3.4-1.1,5.5-9.3,46.7-13.5,60.2.9,1,1.9,2.3,2.9,3.4,0,0,.2.2.2.2,2.9,2.9,7,5.2,15.4,2.8,1.2-.3,2.4-.7,3.7-1.3,1.5-8.2,8.9-34.4,12.4-47.4h0c1.8,6.5,8.5,21.3,7.3,45.8,1,.5,2.2,1,3.7,1.3,3.9.9,9.2,1.1,14-1.3,1.4-.7,2.7-1.5,4-2.6,1.2-27.2-5.2-57.5-5-60.9Z"/><path class="cls-4" d="m131.9,68.3c.7,1.7.6,3.4-.1,3.7-.7.3-1.9-.9-2.6-2.6-.7-1.7-.6-3.4.2-3.7.7-.3,1.9.9,2.6,2.6Z"/><path class="cls-4" d="m131.3,58.6c0,.8-.6,1.3-1.1,1.7-.5.3-4.3.5-4.9.6-2.2.4-1.7.8-4.7,1.3.2-1.6,7-7.2,10.7-3.6Z"/><path class="cls-6" d="m126.6,246.9c-3.5,9.1-5.8,14-7.3,23.6-.1,1-.3,2-.4,3h.2c-.6,1.3-1.5,2.7-2.1,1.7-.8-1.4-1.9-.5-2.1-.4h-.1c0-.2,0-.3,0-.4,0,0,3.8-6.3-3.5-6.3,0,0-1.5-.1-2.9.4,1.5-4.5,2.1-19.1,2.7-24.5,2.9,2.9,7,5.2,15.4,2.8Z"/><path class="cls-8" d="m119.8,111.4c1,3.3,1,9.1.6,13.3-.3,2.8-.7,6.8-1.2,10.7-.2,1.5-.3,2.9-.6,4.3-.2.2-.5.3-.7.4h0c-2.5,1.2-5.5.9-8.1,0-2.2-.9-4.1-2.2-5.9-3.7-.6-.4-1.1-.9-1.6-1.4l4.4-19.8c1-3.4,3.6-10.8,7.3-11.4,4,1.3,4.9,4.9,5.8,7.7Z"/><path class="cls-6" d="m120.9,158.5c-.4-.4-1-.7-1.6-.5-.5.2-.8.6-1.1,1.1-.2.5-.5,1-.8,1.3-.4.4-1,.5-1.4.2h0c.3-.7.5-1.4.6-2.1,0-.7,0-1.4-.4-1.9,0,0-.1-.1-.2-.2,0,0,0,0,0,0h0c-.2-.6-.5-1.1-.7-1.6q0,.2,0,0c.4-3,1.6-8.1,2.6-14.7-2.5,1.1-5.5.9-8.1,0-2.2-.9-4.1-2.2-5.9-3.7l-1.3,13.6c-.3,0-.6.2-.9.3-2.2.9-4,2.5-5.6,4.3-.3.3-.6.7-.8,1.2-.2.4,0,1,.3,1.3.4.4,1.1.2,1.7,0,1.6-.5,3.2-1,4.8-1.5,1.2,1,1.1,2.8,1,4.4,0,1.6.2,3.5,1.7,4.1,1.1.4,2.2,0,3.1-.8.3,1.1,1.4,1.6,2.5,1.6,1.1,0,2.2-.5,3-1.2,1.7,1.6,4.1,1.6,6,.3,1.2-.8,2-2.2,2-3.7v-.2c0-.6-.2-1.2-.6-1.6Z"/><path class="cls-12" d="m112.3,270c2.7.3,2.9,2.6,2.6,4.4,0,.1,0,.2,0,.4-.3,1.3-.8,2.4-.8,2.4l-3.3,5.5h0c-1-.7-2.2-1.3-3.6-1.6-1.4-.3-2.6-.3-3.7-.1h0c0-.1,2.4-3.9,3.5-5.8,0-.2-.2-.5-.2-.7-.5-2.3,1.4-5.1,5.8-4.5Z"/><path class="cls-9" d="m108.5,268.6c1.4-.6,2.9-.4,2.9-.4,7.3,0,3.5,6.3,3.5,6.3.3-1.9.2-4.1-2.6-4.4-4.4-.5-6.3,2.2-5.8,4.5h0c-.1-.3-.2-.7-.2-1-.6-3,.8-4.3,2.3-4.9Z"/><path class="cls-12" d="m110.6,282.7c3.5,2.5,4.3,6.9,4.3,6.9-2.7,4.2-6.4,7-12.1,5.5-4.7-1.2-6.9-5.8-6.8-7.2,0-.2,0-.4.2-.7.2-.7.7-1.7,1.5-2.8,0,0,0-.1.2-.3.6-.7,2.3-2.6,5.5-3,1.1-.2,2.3-.2,3.7.1,1.5.3,2.7.8,3.6,1.6Z"/><path class="cls-12" d="m106.5,274.5h0c0,.2.1.5.2.7-1.1,1.9-3.5,5.7-3.5,5.7h0c-3.2.6-4.9,2.4-5.5,3.2,1.3-2.1,3.4-4.6,6.2-7,.8-1.4,1.5-3,2.3-3.5,0,.3.1.6.2,1Z"/><path class="cls-2" d="m111.2,244.1c2.9,2.9,7,5.2,15.4,2.8,1.2-.3,2.4-.7,3.7-1.3,1.5-8.2,8.9-34.4,12.4-47.4,1.2-4.3,1.9-7.1,1.8-7.4"/><path class="cls-2" d="m108,240.5c.9,1,1.9,2.3,2.9,3.4"/><path class="cls-2" d="m121.5,180.3c-1.1,5.5-9.3,46.7-13.5,60.2"/><path class="cls-2" d="m144.5,190.9s.9-1.7,2.3-2.8c.2-.2.4-.3.6-.5"/><path class="cls-2" d="m142.8,198.3c1.8,6.5,8.5,21.2,7.3,45.8,1,.5,2.2,1,3.7,1.3,3.9.9,9.2,1.1,14-1.3,1.4-.7,2.7-1.5,4-2.6,1.2-27.2-5.2-57.5-5-60.9"/><path class="cls-2" d="m111.2,244.1h0c-.6,5.4-1.2,20.1-2.7,24.5,0,0,0,.2,0,.3"/><path class="cls-2" d="m126.6,246.9c-3.5,9.1-5.8,14-7.3,23.6-.1,1-.3,2-.4,3"/><path class="cls-2" d="m167.8,244.1h0c0,1.1-1.4,21.8-1.5,22.7h0"/><path class="cls-2" d="m153.8,245.4c.3,7.6,2.4,14.1,2.9,22.7,0,1.2.1,2.3.1,3.6"/><path class="cls-2" d="m97.8,284c1.3-2.1,3.4-4.6,6.2-7,.8-1.4,1.5-3,2.3-3.5"/><path class="cls-2" d="m119.4,270.5s2.2-.6.8,7.1c0,.4-.2.9-.2,1.3-1.5,3.5-3,7.4-5.1,10.6-2.7,4.2-6.4,7-12.1,5.5-4.7-1.2-6.9-5.8-6.8-7.2,0-.2,0-.4.2-.7.2-.7.7-1.7,1.5-2.8"/><path class="cls-2" d="m114.9,289.5s-.8-4.4-4.3-6.9c-1-.7-2.2-1.3-3.6-1.6-1.4-.3-2.6-.3-3.7-.1-3.2.4-4.9,2.3-5.5,3-.2.2-.2.3-.2.3"/><path class="cls-2" d="m114.9,274.9h0c.2-.2,1.3-1,2.1.3.6,1,1.5-.4,2.1-1.6.3-.6.5-1.2.6-1.3"/><path class="cls-2" d="m110.6,282.6l3.3-5.5s.5-1.1.8-2.4c0-.1,0-.2,0-.4.3-1.9.2-4.1-2.6-4.4-4.4-.5-6.3,2.2-5.8,4.5,0,.2.1.5.2.7-1.1,1.9-3.5,5.7-3.5,5.7"/><path class="cls-2" d="m114.8,274.4s3.8-6.3-3.5-6.3c0,0-1.5-.1-2.9.4-1.5.6-2.8,1.9-2.3,4.9,0,.3.1.6.2,1s0,.2.1.4"/><path class="cls-2" d="m96.1,287.2l-1,.9v4.3s1.7,5.2,7.7,5.9,11.6-1.9,13.5-6.3c1.8-4.4,2.8-8.3,2.8-8.3l1.4-3.3s.5-1.8-.3-2.7"/><path class="cls-2" d="m176.6,278.6c-2,2-2.9,5.4-2.4,9.1"/><path class="cls-2" d="m156.6,268.2s-3-.4-2.7,2.3c.3,2.4.6,8,.6,9.5,0,.2,0,.3,0,.4,1.1.9,2.9,3,9.5,2.7,2.7.8,5.8,3.3,10.3,4.7,3,1,6.6,1.4,11.1.7,3-1.2,3.5-3.1,3.5-3.1,0,0,.5-7.6-4.8-8.6-1.4-.3-3.2-.1-5.4.7-.7.3-1.4.8-1.9,1.3"/><path class="cls-2" d="m155.7,269.9c0,.4.5,1.2,1,1.8.5.6,1.1,1.1,1.6,1.2,1.1.1,1.9-1.8,3.4-1.4.3,0,.8.4,1.6.8.4.2.9.5,1.4.7,3.9,2.1,10.2,5.7,11.9,5.6h0"/><path class="cls-2" d="m164.7,273.1s-.3-4.4,2.4-5.5c.4-.2.8-.2,1.1-.2,1.5.2,1.5,2.5,1.5,2.5l14.3,6.6"/><path class="cls-2" d="m163.3,272.3s-.8-6,3-5.5c.5,0,1.2.2,1.9.6.1,0,.2,0,.3.2"/><path class="cls-2" d="m188.8,285.2l.8.5v2.3s-1.3,3.1-6.1,3c-4.8-.1-10.3-1.3-12.7-2.2-2.5-.9-5.7-3-6.4-3.1-.7-.1-8.4-.1-10-2.6-1.6-2.5,0-3,0-3"/><path class="cls-2" d="m112.8,76.9c-11.3-15.6-4.4-22.9.4-28.7,4.5-5.4,13.7-7.4,20.4-7.3,7,0,13.3,3.2,17.5,10.2.2.3,2.5,3.2,3.1,11,.6,6.6,2.9,4.5,4.2,14.3,1,7.7-6.4,14.5-10.4,17.6,0,0-.3,1-.5,2.3-.1.7-.2,1.6-.1,2.4,0,1.8-4.2,3.4-7.5,3.7-3,.3-10.2-.5-10.6-3-.1-.9-.3-1.6-.5-2.4-.9-3-2.7-5.1-8.1-9.3"/><path class="cls-1" d="m147.4,63.9c.6,1.6,1.6,2.6,2.3,2.4s.7-1.7,0-3.3c-.6-1.6-1.6-2.6-2.3-2.4-.7.2-.7,1.7,0,3.3Z"/><path class="cls-1" d="m129.1,69.4c.7,1.7,1.9,2.9,2.6,2.6.7-.3.8-2,.1-3.7s-1.9-2.9-2.6-2.6c-.8.3-.8,1.9-.2,3.7Z"/><path class="cls-1" d="m116.5,76.9c-.7-.5-1.6-.7-2.4-.6-.4,0-.9.3-1.2.6-.3.3-.6.6-.7,1-.4,1.1,0,2.3.6,3.3.8,1.7,1.9,3.3,3.1,4.6.7.7,1.3,1.3,2.2,1.7.8.3,1.7.4,2.4,0,0,0,0,0,.2,0,.7-.5,1.1-1.7.6-2.6"/><path class="cls-1" d="m140.4,77.1c3.2-4.4,7.5-4.1,8.2-2.2"/><path class="cls-2" d="m118.6,139.7c.2-1.4.4-2.8.6-4.3.5-3.9.8-7.9,1.2-10.7"/><path class="cls-2" d="m115.2,154.8c.4-3,1.6-8.1,2.6-14.7"/><line class="cls-2" x1="103.8" y1="136.3" x2="102.5" y2="149.9"/><path class="cls-2" d="m124.8,102.4l-10.7,1.2c0,0-.1,0-.2,0h0c-3.7.7-6.3,8.1-7.3,11.4l-4.4,19.8"/><path class="cls-2" d="m173.1,130.2c.4,1.6.6,2.5.9,3.8,0,0,0,.1,0,.2"/><path class="cls-2" d="m151.6,101.4c1,.1,2.2.2,3.6.4,3.9.3,8.6.8,9.9,2.6,2.4,3.3,6.7,16.1,8.5,24.5"/><path class="cls-2" d="m181,135.4c-1.8-.8-4.6-1.5-7.1-1.3-1.7,0-3.2.5-4.1,1.5-2.4,2.4-3.4,5.1-3.8,7.7-.2,1.5-.8,5.2.9,6.7.3.3.7.5,1.2.6,2.2.6,5.4-.4,7.2-1.5,1.4-.9,2.6-1.2,3.9-1.7"/><path class="cls-2" d="m168.2,150.6c-2.4-.8-2.7-.9-3.5-2.8"/><path class="cls-2" d="m166.7,180.6c-2.1.8-10,2.7-20.1,3-7.6.2-16.5-.6-25.2-3.4-.7-.2-1.3-.4-2-.7.2-3.5,1.8-13.5,2.2-19.3.1-1.3.2-2.5,0-3.2-.3-4-1.4-18.1-2.6-21.7"/><path class="cls-2" d="m161.9,117.9c1,6.1,1.6,12.2,2,17.9.3,4.3.5,8.3.7,11.9.2,3.1.3,5.8.5,8.2.7,8.7,1.7,16.1,1.5,24.6"/><path class="cls-2" d="m114,103.7c4,1.3,4.9,4.9,5.8,7.7,1,3.3,1,9.1.6,13.3"/><path class="cls-2" d="m161.9,117.9c-.9-9.7-6.7-16.2-6.7-16.2"/><path class="cls-2" d="m128.7,96.8h0c-2.3.4-3.8,3-3.8,3.5,0,.8,0,1.5,0,2.1,0,2.2.5,3.5,2.1,5,2,1.9,10.1,3.4,12.9,3,7.4-1,11-3,11.7-6.2.3-1.2.2-.5,0-2.8,0-1.6-2.2-5.4-4.2-5.4"/><path class="cls-1" d="m150.3,54.7c-1.2-2.3-8.3-2.3-8.8.5"/><path class="cls-1" d="m131.3,58.6c-3.7-3.6-10.5,2-10.7,3.6"/><path class="cls-1" d="m120.6,62.2c3-.5,2.5-.9,4.7-1.3.6,0,4.4-.2,4.9-.6.5-.3,1-.9,1.1-1.7"/><path class="cls-1" d="m141.5,55.2c0,.6.3,1.1.7,1.3.4.2,4.4-1.3,4.9-1.3,1.9-.1,3.3-.2,3.2-.5"/><line class="cls-2" x1="185.7" y1="147.6" x2="185.8" y2="147.6"/><path class="cls-2" d="m182.1,136.7c0-.7-.1-1.3,0-1.8.1-.8.5-1.4,1.4-2.1,1.5-1.2,3.3-1.7,5-1,3.2-2.6,7.5-3.8,11.6-3,.2,0,.4,0,.6.3.2.3-.2.8-.5,1l-4.8,3.3c-.7.5-1.3.9-1.8,1.6s-.6,1.6-.2,2.3c.2.4.6.7,1.1.8.4.1.8.2,1.2.2.3,0,.7,0,1,0"/><path class="cls-2" d="m188.2,141.2c.2.6,1,.8,1.5.6s1-.7,1.4-1.1,1.1-.7,1.6-.5c.2,0,.4.2.6.5.3.4.4,1,.4,1.5,0,.4,0,.9,0,1.3s0,.7,0,1c0,0,0,0,0,.1-.2.8-.6,1.6-1.2,2-.7.5-1.6.5-2.4.3-.7-.2-1.4-.6-2.1-1,0,0-.1,0-.2,0"/><path class="cls-2" d="m179.6,136c-1,.7-1.8,1.9-2.2,3.1-.6,1.8-.3,5.4.4,6.7.3.6.9,1.2,1.5,1.6.5.3,1,.5,1.6.5,0,0,.1,0,.2,0"/><path class="cls-2" d="m193.4,139.5c.2-.6.6-1.1,1.1-1.5.6-.6,1.2-1,2-1.2.4-.1.9-.2,1.3-.1.4,0,.9.4,1.1.8.3.6,0,1.2-.2,1.8-.4,1-.8,2-1.2,2.9-.1.3-.2.6-.5.8-.4.4-1,.5-1.6.4s-1.1-.2-1.7-.1"/><path class="cls-2" d="m185.7,147.6c-.5-2.1-1.9-4.5-3.7-2.8-.3.2-.5.6-.6.9-.1.3-.2.6-.3.8,0,0,0,0,0,0-.1.5-.2.9-.3,1.4,0,.4,0,.8-.1,1.3,0,.6,0,1.2.4,1.7.5.5,1.2.6,1.9.7.7,0,1.5,0,2.1-.4.4-.3.6-.8.7-1.3.1-.5,0-1.4-.2-2.3Z"/><path class="cls-2" d="m185.8,147.6h0c.9-.3,1.7-.9,2.1-1.8,0,0,0,0,0-.2"/><line class="cls-2" x1="115.9" y1="160.7" x2="116" y2="160.7"/><path class="cls-2" d="m115.9,156.4c-.2-.6-.5-1.1-.7-1.6-.2-.4-.4-.7-.6-1-.6-.8-1.3-1.6-2.2-2-1.3-.5-2.8-.4-3.9-1.1-1.7-1.2-3.9-1.3-5.9-.7-.3,0-.6.2-.9.3-2.2.9-4,2.5-5.6,4.3-.3.3-.6.7-.8,1.2-.2.4,0,1,.3,1.3.4.4,1.1.2,1.7,0,1.6-.5,3.2-1,4.8-1.5,1.2,1,1.1,2.8,1,4.4,0,1.6.2,3.5,1.7,4.1,1.1.4,2.2,0,3.1-.8.3-.2.6-.5.8-.8.9-1,1.8-2,2.5-3.1.3-.5.7-1,.8-1.6,0,0,0,0,0-.2.1-.6,0-1.3-.5-1.7,0,0,0,0,0,0-.2-.2-.5-.3-.7-.3"/><path class="cls-2" d="m107.8,163.2c.3,1.1,1.4,1.6,2.5,1.6s2.2-.5,3-1.2c1.1-.8,2-1.8,2.5-3h0c.3-.7.5-1.3.6-2.1,0-.7,0-1.4-.4-1.9,0,0-.1-.1-.2-.2,0,0,0,0,0,0-.2-.2-.6-.3-.9-.3-.4,0-.9,0-1.2.2,0,0,0,0-.1,0-.7.3-1.2.8-1.7,1.4h-.1"/><path class="cls-2" d="m113.4,163.7c1.7,1.6,4.1,1.6,6,.3,1.2-.8,2-2.2,2-3.7v-.2c0-.6-.2-1.2-.6-1.6-.4-.4-1-.7-1.6-.5-.5.2-.8.6-1.1,1.1-.2.5-.5,1-.8,1.3s-1,.5-1.4.2"/><path class="cls-2" d="m102.2,134.9c.5.5,1.1.9,1.6,1.4,1.8,1.5,3.8,2.8,5.9,3.7,2.6,1,5.6,1.2,8.1,0h0c.2-.1.5-.2.7-.4"/><path class="cls-2" d="m173.7,128.8c-.2.5-.4,1-.6,1.5-.7,1.4-1.8,2.7-3.1,3.7-1.7,1.2-3.9,2-6,2h0"/><path class="cls-1" d="m151,77.1c-.3.3-.6.5-1.1.7-2.1,1.1-6,1.7-9.2,2.1-3.2.4-5.7.7-5.4.9,1.2,1,3.8,2.5,5.1,3.1,2.1,1,4.6.5,6.2-.2,2.7-1.2,3.6-3.1,4.1-6.3"/><rect class="cls-5" x="182.6" y="90.4" width="19.5" height="19.5" transform="translate(-24.5 95.1) rotate(-26.2)"/><rect class="cls-11" x="162.8" y="6" width="19.5" height="19.5" transform="translate(16.5 91) rotate(-31)"/><polygon class="cls-11" points="128.2 140.3 124.7 159.5 122.4 159 107.6 156.3 105.6 156 109.1 136.8 128.2 140.3"/><polygon class="cls-5" points="121.4 18 111.1 34.5 94.6 24.2 104.9 7.7 121.4 18"/><rect class="cls-3" x="162.8" y="6" width="19.5" height="19.5" transform="translate(16.5 91) rotate(-31)"/><polyline class="cls-3" points="122.4 159 124.7 159.5 128.2 140.3 109.1 136.8 105.6 156 107.6 156.3"/><line class="cls-3" x1="107.6" y1="156.3" x2="122.4" y2="159"/><rect class="cls-3" x="182.6" y="90.4" width="19.5" height="19.5" transform="translate(-24.5 95.1) rotate(-26.2)"/><polygon class="cls-3" points="121.4 18 111.1 34.5 94.6 24.2 104.9 7.7 121.4 18"/><path class="cls-6" d="m120.9,158.5c-2.4-2.5-2.7,3.4-4.9,2.2,2.1-3.5-1-6.5-3.9-3.1.3-3.7-4.2-1.5-5.6,0-1-.3-1.9-.9-2.7-1.6-.1-2.2.2-4.4.8-6.5-6.4.4-15.7,11.6-2.5,6.2,2.4,2.3-.8,11.9,5.8,7.8.9,2.3,4,1.7,5.6.4,3.2,3.5,10-1,7.4-5.2Z"/><path class="cls-1" d="m104.6,149.3c-1.1,0-1.8.3-2.9.8-2.2.9-4,2.6-5.6,4.3-.3.4-.6.7-.8,1.2-.1.5,0,1,.3,1.3.4.4,1.1.2,1.7,0,1.6-.5,3.2-1,4.7-1.5.2.1.3.3.4.5.7,1.1.7,2.6.6,4,0,1.6.2,3.5,1.7,4.1,1,.4,2.1,0,3.1-.8.3-.3.6-.5.9-.8.9-1,1.8-2.1,2.5-3.2.4-.5.7-1.1.8-1.8.1-.7,0-1.4-.6-1.8-.7-.6-1.8-.3-2.6.2-.9.5-1.7.9-2.4,1.5-.2.1-.3.3-.5.5"/><path class="cls-1" d="m108,163.4c.3,1.1,1.3,1.4,2.4,1.4,1.1,0,2.1-.5,3-1.2,1.1-.8,2-1.8,2.5-3,.3-.7.5-1.4.6-2.1,0-.7,0-1.4-.4-2-.6-.6-1.5-.7-2.3-.4s-1.2.7-1.8,1.3"/><path class="cls-1" d="m113.5,163.6c1.7,1.6,4.1,1.6,6,.3,1.2-.9,2.1-2.4,2-3.9,0-.6-.2-1.2-.6-1.6-.4-.4-1-.7-1.5-.5-.5.2-.8.6-1.1,1.1-.3.5-.5,1-.8,1.4-.4.4-1,.5-1.4.2"/></svg>