<?xml version="1.0" encoding="UTF-8"?><svg id="Layer_5" xmlns="http://www.w3.org/2000/svg" width="300" height="300" viewBox="0 0 300 300"><defs><style>.cls-1{stroke-linecap:round;stroke-linejoin:round;}.cls-1,.cls-2{stroke:#000;}.cls-1,.cls-2,.cls-3{fill:none;}.cls-2,.cls-3{stroke-miterlimit:10;}.cls-3{stroke:#fff;}.cls-4{fill:#4d0099;}.cls-4,.cls-5,.cls-6,.cls-7,.cls-8,.cls-9,.cls-10,.cls-11,.cls-12,.cls-13,.cls-14,.cls-15,.cls-16{stroke-width:0px;}.cls-5{fill:#4fb22a;}.cls-6{fill:#274a85;}.cls-7{fill:#292a4c;}.cls-8{fill:#292a4a;}.cls-9{fill:#3f414f;}.cls-10{fill:#1e160d;}.cls-11{fill:#122666;}.cls-12{fill:#cda580;}.cls-13{fill:#3246ff;}.cls-14{fill:#fff;}.cls-15{fill:#f4f4f4;}.cls-16{fill:#050504;}</style></defs><path class="cls-11" d="m185.9,264.5c-1.9,2.4-6.3,5.3-9.4,6-1.9.4-4,.5-5.3.6l.2-5.3h-.3c0-.2.1-.4.1-.5,2.2-5.9,6.1-15.7,9.3-26.6,1-.7,5.2-3.7,9.9-5.5,2-.8,4-1.4,5.9-1.5,0,0,11.4-2.6,13.4,4.5,1,3.3,1.2,5.6-.9,12,0,0-4.6,11.4-6.7,18.2-3,10.2,0,10.2-1.5,15-.4,0-.7,0-1.2.1-3.6.5-8.7,1.9-12.6,1.4-2.8-.3-5-1.5-5.7-4.5,0,0,4.2-12.2,4.8-13.8Z"/><path class="cls-9" d="m205.2,290.1s.2,2.1,0,2.2c-.2.2-6.8,2.8-13.1,2-6.3-.7-11.9-4.6-11.9-4.6v-1.7c.1.1.2.2.2.3.6.5,1.6,1.1,3,1.7h0c2.3,1,5.5,1.9,9.2,1.8,5.8-.1,11.8-1.7,11.8-1.7,0,0,0-.2,0-.5h.2l.6.5Z"/><path class="cls-9" d="m199.4,281.4c5,.5,5.1,6.5,5,8.3,0,.3,0,.5,0,.5,0,0-6,1.6-11.8,1.7-3.7,0-6.9-.8-9.2-1.8h0c-.3-1.6,1.2-6.3,3.4-7.2h0c3.9.4,9-1,12.6-1.5Z"/><path class="cls-5" d="m197.1,183.1l-1.5,11c-.9.4-2,.5-2.9.9,1.2-2.9,1.9-4.6,1.9-4.6,1.1-1.9,1.9-4.5,2.4-7.2Z"/><path class="cls-15" d="m195.6,194.1l-1.6,11.8h0c-1.9.7-3.8,1.5-5.7,2.2h-.1c1.7-5.4,3.4-10,4.6-13.1.9-.4,2-.5,2.9-.9Z"/><path class="cls-6" d="m194,205.9l-3.7,27.2c-4.7,1.9-8.9,4.8-9.9,5.5,1.2-4.2,2.3-8.6,3.2-13,1.2-6.3,2.8-12.3,4.5-17.6h.1c1.9-.7,3.8-1.4,5.7-2.2h0Z"/><path class="cls-10" d="m187.2,127.6c1,3.7-.6,11.6-1.2,13.5-1,3-3.1,10.6-10.1,15.5h0c-.5-2.9-.4-6.1.5-11.5.8-.7,1.1-1.7,1.4-2.7.4-1.7.7-3.4.4-5.2-.3-1.7-1.3-3.4-2.9-4.1-1.6-.7-3.7-.2-4.5,1.3-.3.4-1.3,1.6-1.8,1.5s-1.1-.4-1.5-.7c-1.7-1.2-1.4-2.9-1.6-4.7-.9-5.8-5.9-13.5-11.9-13.3-3.4,0-8-4.2-12.9-1.5-4.3,2.4-7.9,2.6-9.6,6.7-1.4,3.5-3.5,5.3-2.8,11.1,0-.2-.1-.3-.1-.3-.7-2.1-2.4-4.3-3.4-7.8-2.2-8.2,2.2-9.6,3.4-11.6.8-1.3,0-5.5,3.7-7.8,2.1-1.4,4.8-.3,6.2-1,2.8-1.3,3.2-4.6,5.9-6.1,2.3-1.2,6.1.2,7.9-.1,1.9-.4,3.9-2,5.7-2.6,3.4-1.2,4.9,3,8.5,3.5,1.6.2,6.2-.5,8.8,1.4,2,1.4,3.5,6.3,5.1,8.5,2.2,3,4.5,2.7,5,5.3.7,4.1.9,8.8,2,12.8Z"/><path class="cls-9" d="m186.8,282.8h0c-2.1,1-3.7,5.7-3.4,7.2-1.4-.6-2.4-1.2-3-1.7,0-.1,0-.2,0-.3-.5-2.9.8-9.7.8-9.7.7,3,2.9,4.2,5.7,4.5Z"/><path class="cls-7" d="m178,163.5s4.1,0,4.1,5c0,.4,0,.7,0,1.1-4.3,5.7-12.5,14.7-20.8,14.4-1.2-.9-2-4.1-1.4-8.9,0-.9.2-1.8.4-2.8.8-2.1,1.5-3.2,1.7-3.4.2.7.3,1.3.5,2,.1.9.5,4.2,1.2,5.5,10.2-2.7,15.1-11.1,15.1-11.1-.2-.6-.4-1.1-.6-1.6h0Z"/><path class="cls-12" d="m141.5,158.4h0c1.1,3.1,3.6,4.3,7.1,3.8,6.1-.8,7.8-5.9,7.6-6.4-4.4,1.8-10.2,3.6-14.7,2.6Zm19.5,8.2c-4.6,2.8-9.2,4.6-12.2,4.6-7.5,0-15.3-10.9-16.6-15.3-1.3-4.4-1.6-13-1.6-14.5,0-1.4-1.5-6.3-2-7.7h0c-.7-5.8,1.4-7.6,2.8-11.1,1.7-4.1,5.3-4.4,9.6-6.7,5-2.7,9.6,1.5,12.9,1.5,6-.2,11,7.5,11.9,13.3.3,1.9,0,3.5,1.6,4.7.4.3.9.6,1.5.7s1.6-1.1,1.8-1.5c.8-1.5,2.9-2.1,4.5-1.3,1.6.7,2.6,2.4,2.9,4.1.3,1.7,0,3.5-.4,5.2-.3,1-.6,2-1.4,2.7-.9,5.4-1,8.6-.5,11.5.4,2.2,1.1,4.3,2.1,7,.2.5.4,1.1.6,1.6,0,0-4.9,8.4-15.1,11.1-.7-1.2-1-4.6-1.2-5.5-.1-.7-.3-1.3-.5-2h0c-.2-.7-.5-1.4-.9-2.3Zm-2-32.7c.5-.2.9-.7.8-1.2-.1-.7-1.1-1-1.9-1.2-2-.4-4.1-.6-6.2-.5-2.1,0-4.2-.3-3.8,2,0,.6.4,1.2,1,1.5.8.4,1.9,0,2.8-.1,2.1-.3,2.8-.3,4.9-.3s1.8,0,2.3-.2Zm-2.9,11c1-.1,1.6-1.9,1.3-4-.2-2.1-1.2-3.7-2.2-3.6-1,.1-1.6,1.9-1.4,4s1.3,3.7,2.2,3.6Zm-18-10c2.2-4.5-4.1-1.9-5.6-.8-.4.3-.7.6-1,1s-.3.9-.1,1.3c.4.8,1.6,0,2.4-.5,1.1-.6,4-.2,4.3-1Zm-1.1,11c.7-.2.9-1.7.5-3.5-.4-1.8-1.2-3.2-1.9-3-.7.1-.9,1.7-.5,3.5.4,1.8,1.2,3.2,1.9,3Z"/><path class="cls-13" d="m171.1,271.1v3.3c-.1,0-2.7.9-2.7.9,0-1.4-.2-3-.8-4.6.6,0,1.3-.2,2-.4.1-.9.6-2.5,1.4-4.7h.3c0,0-.2,5.4-.2,5.4Z"/><path class="cls-8" d="m171.1,265.3c0,.1,0,.3-.1.4-.8,2.2-1.3,3.8-1.4,4.7-.7.1-1.4.3-2,.4-4.6.9-5.1.4-9.6-3.5-.3-1.2-.4-3.2,0-5.8h0c3.6,3.1,8.5,4.5,13.2,3.8Z"/><path class="cls-13" d="m169.7,210.8l-6.1,22c1.8-7.3,3.8-15,5.8-22h.3Z"/><path class="cls-15" d="m173.5,196.3c-1.3,4.3-2.7,9.2-4.2,14.4l-7.8-1.7-12.5-2.8c0-3.4.4-7.1.8-10.4,7.5,2.2,16.1,2.5,23.7.5Z"/><path class="cls-13" d="m161.5,209l7.8,1.7c-2,7.1-4,14.7-5.8,22h0s-2.3,0-2.3,0l.3-23.8Z"/><path class="cls-12" d="m156.9,279.8c0-1.6-.9-3.5-2-3.8-1.3-.4-2.2,1.5-4.9,1.3-1.7-.1-2-1.5-2-2.6s.1-1.2.1-1.2c0,0,3.6-.7,4.5-1.4.9-.7,1.3-1.7,2.1-3,.8-1.4,3.1-1.9,3.1-1.9,4.5,3.9,5,4.4,9.6,3.5.6,1.5.8,3.2.8,4.6,0,2.3-.5,4.2-.7,4.5-.2.5-1,.7-1.2.7-.2,0-.2,1-.5,1.1-.3,0-1.2.5-1.5.7-.3.1-.9,1.1-1.4,1.3s-1.7-.5-2.1-.4c-.4.1-.6,1.3-1.5,1.5-.2,0-.6,0-1.2-.2-2.3-.6-6.8-2.2-6.8-2.2l-.2-.4,5.6-2.1h0Z"/><path class="cls-13" d="m161.2,232.8h2.3c-.8,3.3-1.6,6.6-2.3,9.7h-.1s.1-9.7.1-9.7Z"/><polygon class="cls-13" points="149.1 206.2 161.5 209 161.2 232.8 146.9 232.6 147.2 205.8 149.1 206.2"/><path class="cls-13" d="m161.2,232.8v9.7c-.1,0,0,0,0,0-1,4.7-1.9,9.1-2.6,12.9l-12,1.7.3-24.6,14.3.2Z"/><path class="cls-10" d="m159.9,132.7c0,.5-.3,1-.8,1.2-.5.2-1.7.2-2.3.2-2.2,0-2.9,0-4.9.3s-2,.6-2.8.1c-.6-.3-.9-.9-1-1.5-.4-2.2,1.7-1.9,3.8-2,2.1,0,4.2.1,6.2.5.8.1,1.8.5,1.9,1.2Z"/><path class="cls-9" d="m158.2,286.7s.4,1,.3,1.4c-.1.3-9.6,5.2-14.4,5.2s-9.2-.6-12.1-3l-.3-.7,3.5-1.4v.3c.6.6,4.1,1.8,8.3,1.8s14.1-3.2,14.7-3.5Z"/><path class="cls-9" d="m158.2,284.8s.6,1.6,0,1.9c-.6.3-10.6,3.5-14.7,3.5s-7.7-1.2-8.1-1.8v-.3c-.1,0,11-4.3,11-4.3l4.9-1.9.2.4s4.5,1.6,6.8,2.2v.2Z"/><path class="cls-16" d="m157.5,140.8c.3,2.1-.4,3.9-1.3,4s-2-1.5-2.2-3.6.4-3.9,1.4-4c1-.1,2,1.5,2.2,3.6Z"/><path class="cls-13" d="m152.7,272.2c.9-.7,1.3-1.7,2.1-3,.8-1.4,3.1-1.9,3.1-1.9-.3-1.2-.4-3.2,0-5.8.1-1.7.4-3.8.8-6l-12,1.7-.2,17.5v9.1c0,0,4.8-1.9,4.8-1.9l5.6-2.1h0c0-1.6-.9-3.5-2-3.8-1.3-.4-2.2,1.5-4.9,1.3-1.7-.1-2-1.5-2-2.6s.1-1.2.1-1.2c0,0,3.6-.7,4.5-1.4Z"/><path class="cls-14" d="m156.2,155.8c.2.5-1.5,5.6-7.6,6.4-3.5.4-6-.7-7.1-3.7h0c4.5.9,10.2-.9,14.7-2.7Z"/><path class="cls-5" d="m194.3,169c-1.9-1-4.2-.9-6.2-.4h0c0,0-6,0-6,0,0,.4,0,.7,0,1.1-4.3,5.7-12.5,14.7-20.8,14.4-1.2-.9-2-4.1-1.4-8.9h-.2s-5.8,3-6,3.4c-.2.3-3.5,1-5,6.1,0,.4-.2.7-.3,1.1,0,0-5,9.2-8.9,18.4l7.8,1.7,1.9.4c0-3.4.4-7.1.8-10.4,7.5,2.2,16.1,2.5,23.7.5-1.3,4.3-2.7,9.2-4.2,14.4h.3c0,0-6.1,22-6.1,22h0c-.8,3.4-1.6,6.6-2.3,9.7-1,4.7-1.9,9.1-2.6,12.9-.4,2.2-.6,4.3-.8,6h0c3.6,3.1,8.5,4.5,13.2,3.8,2.2-5.9,6.1-15.7,9.3-26.6,1.2-4.2,2.3-8.6,3.2-13,1.2-6.3,2.8-12.3,4.5-17.6,1.7-5.4,3.4-9.9,4.6-13.1,1.2-2.9,1.9-4.6,1.9-4.6,1.1-1.9,1.9-4.5,2.4-7.2,0-.2,0-.4,0-.7.9-5.7.1-11.8-2.9-13.4Z"/><polygon class="cls-4" points="139.4 204.1 147.2 205.8 146.9 232.6 130.2 232.4 130.2 232.2 130.6 202.1 139.4 204.1"/><polygon class="cls-13" points="146.9 232.6 146.6 257.2 130 260.1 130.1 249.4 130.2 232.4 146.9 232.6"/><polygon class="cls-13" points="146.6 257.2 146.5 274.7 146.4 283.8 135.2 288.1 131.7 289.5 129.9 290.2 130 260.1 146.6 257.2"/><path class="cls-10" d="m132.6,134c1.5-1.1,7.8-3.7,5.6.8-.4.8-3.2.3-4.3,1-.7.4-2,1.3-2.4.5-.2-.4-.1-.9.1-1.3s.6-.7,1-1Z"/><path class="cls-16" d="m137.6,142.2c.4,1.8.2,3.4-.5,3.5-.7.1-1.5-1.2-1.9-3-.4-1.8-.2-3.4.5-3.5.7-.1,1.5,1.2,1.9,3Z"/><polygon class="cls-4" points="130.6 201.9 130.6 202.1 130.3 202.1 130.2 232.2 113 232.2 113.1 205.5 130.6 201.9"/><polygon class="cls-4" points="130.6 202.1 130.2 232.2 130.2 232.2 130.3 202.1 130.6 202.1"/><rect class="cls-13" x="130.2" y="232.2" width="0" height=".2"/><polygon class="cls-13" points="130.2 232.4 130.1 249.4 130.2 232.4 130.2 232.4"/><polygon class="cls-13" points="130.2 232.2 130.2 232.4 130.1 249.4 129.9 259.9 112.9 256.7 113 232.2 130.2 232.2"/><polygon class="cls-13" points="129.9 259.9 129.6 290 112.7 283.2 112.9 256.7 129.9 259.9"/><polygon class="cls-13" points="113.1 205.5 113 232.2 98.4 232.1 98.4 208.5 113.1 205.5"/><polygon class="cls-13" points="113 232.2 112.9 256.7 98.4 253.9 98.4 232.1 113 232.2"/><polygon class="cls-13" points="112.9 256.7 112.7 283.2 98.3 277.5 98.4 253.9 112.9 256.7"/><polygon class="cls-13" points="98.4 208.5 98.4 232.1 87.7 232.1 87.6 210.7 98.4 208.5"/><polygon class="cls-13" points="98.4 232.1 98.4 253.9 87.8 251.8 87.7 232.1 98.4 232.1"/><polygon class="cls-13" points="98.4 253.9 98.3 277.5 87.8 273.3 87.8 251.8 98.4 253.9"/><path class="cls-2" d="m171.1,271.1c1.3,0,3.5-.2,5.3-.6,3.1-.7,7.6-3.6,9.4-6"/><path class="cls-2" d="m159.6,175s-5.8,3-6,3.4c-.2.3-3.5,1-5,6.1,0,.4-.2.7-.3,1.1,0,0-5,9.2-8.9,18.4"/><path class="cls-2" d="m151.7,184.9s0,.2-.1.5c-.3,1.4-1.1,5.5-1.7,10.4-.4,3.3-.7,7-.8,10.4"/><polyline class="cls-3" points="146.4 283.8 135.2 288.1 131.7 289.5 129.9 290.2 130 260.1"/><polyline class="cls-3" points="156.9 279.8 151.3 282 146.4 283.8 146.5 274.7 146.6 257.2"/><line class="cls-3" x1="158.7" y1="255.5" x2="146.6" y2="257.2"/><polyline class="cls-3" points="171.3 265.8 171.1 271.1 171 274.5 168.4 275.4"/><line class="cls-3" x1="161.1" y1="242.5" x2="161.2" y2="232.8"/><polyline class="cls-3" points="161.5 209 169.3 210.7 169.7 210.8"/><line class="cls-3" x1="163.5" y1="232.8" x2="161.2" y2="232.8"/><polyline class="cls-3" points="147.2 205.8 149.1 206.2 161.5 209 161.2 232.8 146.9 232.6"/><polyline class="cls-3" points="146.9 232.6 146.6 257.2 130 260.1 130.1 249.4"/><polyline class="cls-3" points="130.6 202.1 139.4 204.1 147.2 205.8 146.9 232.6 130.2 232.4"/><polyline class="cls-3" points="112.7 283.2 129.6 290 129.9 259.9"/><polyline class="cls-3" points="98.3 277.5 112.7 283.2 112.9 256.7"/><line class="cls-3" x1="98.4" y1="253.9" x2="112.9" y2="256.7"/><polyline class="cls-3" points="87.8 251.8 87.8 273.3 98.3 277.5 98.4 253.9"/><polyline class="cls-3" points="87.7 232.1 87.8 251.8 98.4 253.9 98.4 232.1"/><polyline class="cls-3" points="98.4 208.5 87.6 210.7 87.7 232.1 98.4 232.1"/><polyline class="cls-3" points="113.1 205.5 98.4 208.5 98.4 232.1 113 232.2"/><polyline class="cls-3" points="113 232.2 112.9 256.7 129.9 259.9 130.1 249.4 130.2 232.4 130.2 232.2"/><polygon class="cls-3" points="113 232.2 130.2 232.2 130.2 232.2 130.6 202.1 130.6 201.9 113.1 205.5 113 232.2"/><path class="cls-2" d="m128.6,133.6c.4,1.4,2.1,6.4,2,7.7,0,1.6.2,10.1,1.6,14.5,1.3,4.4,9.1,15.4,16.6,15.3,3,0,7.6-1.8,12.2-4.6,2-1.3,4.1-2.7,6-4.3"/><path class="cls-2" d="m128.5,133.3s0,.1.1.3"/><path class="cls-2" d="m161.9,168.8c-.2-.7-.5-1.4-.9-2.2"/><path class="cls-2" d="m178.6,165.2s-4.9,8.4-15.1,11.1c-.7-1.2-1-4.6-1.2-5.5-.1-.7-.3-1.3-.5-2"/><path class="cls-2" d="m178,163.5s4.1,0,4.1,5c0,.4,0,.7,0,1.1-4.3,5.7-12.5,14.7-20.8,14.4-1.2-.9-2-4.1-1.4-8.9,0-.9.2-1.8.4-2.8.8-2.1,1.5-3.2,1.7-3.4h0"/><line class="cls-2" x1="182.1" y1="168.5" x2="188.1" y2="168.5"/><path class="cls-2" d="m163.5,232.8c1.8-7.3,3.8-15,5.8-22,1.5-5.2,2.9-10.2,4.2-14.4,2.6-8.6,4.6-14.5,5.1-14.5"/><path class="cls-2" d="m158.7,255.5c.6-3.8,1.5-8.2,2.6-12.9"/><path class="cls-2" d="m197.1,183.1c-.4,2.7-1.3,5.3-2.4,7.2,0,0-.8,1.7-1.9,4.6-1.3,3.2-2.9,7.7-4.6,13.1-1.7,5.3-3.3,11.4-4.5,17.6-.8,4.4-1.9,8.8-3.2,13-3.2,11-7.1,20.7-9.3,26.6,0,.1,0,.3-.1.4-.8,2.2-1.3,3.8-1.4,4.7-.7.1-1.4.3-2,.4-4.6.9-5.1.4-9.6-3.5-.3-1.2-.4-3.2,0-5.8.1-1.7.4-3.8.8-6"/><path class="cls-2" d="m183.1,170.7s2.3-1.4,5-2.1c2-.5,4.3-.6,6.2.4,3,1.6,3.8,7.7,2.9,13.4"/><path class="cls-2" d="m197.2,182.4c0,.2,0,.4,0,.7l-1.5,11-1.6,11.8-3.7,27.2v.3"/><path class="cls-2" d="m158,267.3s-2.3.5-3.1,1.9c-.8,1.4-1.2,2.3-2.1,3-.9.7-4.5,1.4-4.5,1.4,0,0-.1.5-.1,1.2,0,1,.3,2.5,2,2.6,2.7.2,3.6-1.6,4.9-1.3,1.1.3,2,2.2,2,3.8,0,.3,0,.6,0,.8"/><path class="cls-2" d="m151.5,282.4s4.5,1.6,6.8,2.2c.6.1,1,.2,1.2.2.9-.2,1.1-1.4,1.5-1.5.4-.1,1.5.5,2.1.4s1.1-1.1,1.4-1.3c.3-.1,1.3-.6,1.5-.7.3,0,.3-1,.5-1.1.2,0,1-.2,1.2-.7.1-.4.6-2.2.7-4.5,0-1.4-.2-3-.8-4.6"/><path class="cls-2" d="m180.2,238.8s0,0,.2-.2c1-.7,5.2-3.7,9.9-5.5,2-.8,4-1.4,5.9-1.5,0,0,11.4-2.6,13.4,4.5,1,3.3,1.2,5.6-.9,12"/><path class="cls-2" d="m194.9,244.4s-2.7,1.9-5.1,6.3c-2.4,4.4-3.4,12.3-4,13.8-.6,1.6-4.8,13.8-4.8,13.8"/><path class="cls-2" d="m181.1,278.3c.7,3,2.9,4.2,5.7,4.5,3.9.4,9-.9,12.6-1.4.4,0,.8,0,1.2-.1,1.5-4.8-1.5-4.8,1.5-15,2-6.9,6.7-18.2,6.7-18.2"/><path class="cls-2" d="m186.8,282.9c-2.1.9-3.7,5.6-3.4,7.1"/><path class="cls-2" d="m181.1,278.3s-1.3,6.8-.8,9.7c0,.1,0,.2,0,.3.6.5,1.6,1.1,3,1.7h0c2.3,1,5.5,1.9,9.2,1.8,5.8-.1,11.8-1.7,11.8-1.7,0,0,0-.2,0-.5,0-1.7,0-7.7-5-8.3"/><path class="cls-2" d="m204.6,289.7l.6.5s.2,2.1,0,2.2c-.2.2-6.8,2.8-13.1,2-6.3-.7-11.9-4.6-11.9-4.6v-1.7"/><path class="cls-2" d="m158.2,284.8s.6,1.6,0,1.9c-.6.3-10.6,3.5-14.7,3.5s-7.7-1.2-8.1-1.8"/><path class="cls-2" d="m158.2,286.7s.4,1,.3,1.4c-.1.3-9.6,5.2-14.4,5.2s-9.2-.6-12.1-3"/><path class="cls-2" d="m157.5,140.8c.3,2.1-.4,3.9-1.3,4s-2-1.5-2.2-3.6.4-3.9,1.4-4c1-.1,2,1.5,2.2,3.6Z"/><path class="cls-2" d="m137.6,142.2c.4,1.8.2,3.4-.5,3.5-.7.1-1.5-1.2-1.9-3-.4-1.8-.2-3.4.5-3.5.7-.1,1.5,1.2,1.9,3Z"/><path class="cls-2" d="m149.9,195.8c7.5,2.2,16.1,2.5,23.7.5"/><path class="cls-2" d="m192.7,195c.9-.4,2-.5,2.9-.9h0"/><path class="cls-2" d="m188.2,208.1c1.9-.7,3.8-1.5,5.7-2.2"/><path class="cls-2" d="m158,261.5c3.6,3.1,8.5,4.5,13.2,3.8h0"/><path class="cls-2" d="m138.2,134.8c-.4.8-3.2.3-4.3,1-.7.4-2,1.3-2.4.5-.2-.4-.1-.9.1-1.3s.6-.7,1-1c1.5-1.1,7.8-3.7,5.6.8Z"/><path class="cls-2" d="m148,133c0,.6.4,1.2,1,1.5.8.4,1.9,0,2.8-.1,2.1-.3,2.8-.3,4.9-.3s1.8,0,2.3-.2c.5-.2.9-.7.8-1.2-.1-.7-1.1-1-1.9-1.2-2-.4-4.1-.6-6.2-.5-2.1,0-4.2-.3-3.8,2Z"/><path class="cls-2" d="m170.8,134.5c.8-1.5,2.9-2.1,4.5-1.3,1.6.7,2.6,2.4,2.9,4.1.3,1.7,0,3.5-.4,5.2-.3,1-.6,2-1.4,2.7-.8.7-2.1.7-2.7-.1"/><path class="cls-2" d="m176.4,145.1c-.9,5.4-1,8.6-.5,11.5.4,2.2,1.1,4.3,2.1,7,.2.5.4,1.1.6,1.6"/><path class="cls-2" d="m128.6,133.6h0c-.7-5.8,1.4-7.6,2.8-11.1,1.7-4.1,5.3-4.4,9.6-6.7,5-2.7,9.6,1.5,12.9,1.5,6-.2,11,7.5,11.9,13.3.3,1.9,0,3.5,1.6,4.7.4.3.9.6,1.5.7s1.6-1.1,1.8-1.5"/><path class="cls-2" d="m128.5,133.3c-.7-2.1-2.4-4.3-3.4-7.8-2.2-8.2,2.2-9.6,3.4-11.6.8-1.3,0-5.5,3.7-7.8,2.1-1.4,4.8-.3,6.2-1,2.8-1.3,3.2-4.6,5.9-6.1,2.3-1.2,6.1.2,7.9-.1,1.9-.4,3.9-2,5.7-2.6,3.4-1.2,4.9,3,8.5,3.5,1.6.2,6.2-.5,8.8,1.4,2,1.4,3.5,6.3,5.1,8.5,2.2,3,4.5,2.7,5,5.3.7,4.1.9,8.8,2,12.8,1,3.7-.6,11.6-1.2,13.5-1,3-3.1,10.6-10.1,15.5"/><path class="cls-1" d="m141.4,149.6c-1.4,4.8,2.9,4.5,6.1,3.6"/><path class="cls-1" d="m156.2,155.8c.2.5-1.5,5.6-7.6,6.4-3.5.4-6-.7-7.1-3.7"/><path class="cls-1" d="m141,158.3c.2,0,.3,0,.5.1,4.5,1,10.2-.8,14.7-2.6"/></svg>