<?xml version="1.0" encoding="UTF-8"?><svg id="Layer_5" xmlns="http://www.w3.org/2000/svg" width="300" height="300" viewBox="0 0 300 300"><defs><style>.cls-1{stroke-linecap:round;}.cls-1,.cls-2,.cls-3,.cls-4{stroke-miterlimit:10;}.cls-1,.cls-4{fill:none;stroke:#000;}.cls-2{fill:#3246ff;}.cls-2,.cls-3{stroke:#fff;stroke-width:4.2px;}.cls-3{fill:#4d0099;}.cls-5{fill:#626365;}.cls-5,.cls-6,.cls-7,.cls-8,.cls-9,.cls-10,.cls-11,.cls-12,.cls-13,.cls-14{stroke-width:0px;}.cls-6{fill:#71b2e2;}.cls-7{fill:#374f75;}.cls-8{fill:#154593;}.cls-9{fill:#211d16;}.cls-10{fill:#db413e;}.cls-11{fill:#73523e;}.cls-12{fill:#fff;}.cls-13{fill:#eac36e;}.cls-14{fill:#050504;}</style></defs><rect class="cls-2" x="41.8" y="183.7" width="70.4" height="76.5"/><rect class="cls-2" x="112.3" y="183.7" width="76.5" height="76.5"/><rect class="cls-2" x="112.3" y="114.3" width="76.5" height="69.4"/><rect class="cls-2" x="188.7" y="183.7" width="69.4" height="76.5"/><rect class="cls-2" x="188.7" y="114.3" width="69.4" height="69.4"/><rect class="cls-2" x="188.7" y="39.8" width="69.4" height="74.5"/><rect class="cls-2" x="112.3" y="39.8" width="76.5" height="74.5"/><rect class="cls-2" x="41.8" y="114.3" width="70.4" height="69.4"/><rect class="cls-3" x="41.8" y="39.8" width="70.4" height="74.5"/><path class="cls-11" d="m240.1,133.3h0s0,0,0,0Zm50.5-4c.5,0,1,0,1.5.4,1,.6,1.4,1.9,1.6,3.1.4,2.4.3,4.8-.2,7.2-.3,1.3-.8,2.5-1.6,3.5-.6.8-1.6,1.3-2.5,1.5-.3,0-.6,0-.9,0-.6,0-1.3-.4-1.8-.8-.7,2.9-1.4,6.1-2.5,9-1.1,2.8-2.5,5.4-4.5,7.2-.6.5-1.3,1-2,1.4-4.6,2.7-9.4,5.2-13.4,6.4-2.3.7-4.3,1-6,.8-4.8-.7-11.8-9.3-15.3-15.5-2.8-5-4.7-14.8-2.8-20.2,0,.1,0,0,0,0,0-5.1,0-7.2.3-12.3,13.5-3.1,28.2-3.3,41.8,0,0,3.2.1,5.7.2,8.9,0,.9,0,1.9.7,2.5.7.7,1.8.6,2.7.2.7-.4,1.2-.9,1.7-1.6h0c.7-.5,1-1.1,1.8-1.4.4-.1.8-.2,1.2-.2Zm-21.9.9c3.2-1,6.9,1.7,10,.4-.6-2.6-3-4.4-5.6-5.1-2.9-.7-8.7-1.1-8.2,3.2.1.9.8,1.9,1.7,2,.7,0,1.4-.3,2-.5Zm4.2,6.5c0-2-.7-3.6-1.6-3.6s-1.6,1.6-1.6,3.6.7,3.6,1.6,3.6,1.6-1.6,1.6-3.6Zm-14,22.1c6.2-.8,10.5-6.2,10.9-8.1-5.3,2.1-17.4,3.6-17.4,3.6.3,1.3,3.9,4.8,6.6,4.4Zm-6.8-29c.2-.8,1.5-3.4.8-4-.6-.6-2.9-.3-3.7-.2-2.5.4-4.9,1.7-5.9,3.6-.2.4-.3.8,0,1.1.4.3,1,.1,1.5,0,2.3-.7,4.9-.9,7.3-.5Zm-1.7,6.2c0-2-.7-3.6-1.6-3.6s-1.6,1.6-1.6,3.6.7,3.6,1.6,3.6,1.6-1.6,1.6-3.6Z"/><path class="cls-13" d="m292.7,101.3c-.1,2.5-.2,4.9-.2,7.2-17.7-6-38.3-4.6-54.4-2.2h0c-.1-2.2-.2-4.5-.2-7.3,8.1-2.7,24.4-3.2,31.1-2.7,8.5.6,15.6,2.5,23.7,5Z"/><path class="cls-12" d="m292.5,108.5c0,2.5,0,4.9-.1,7.3-17.3-5.1-36-4.2-53.9-2h0c-.2-2.5-.3-4.9-.4-7.6h0c16.2-2.4,36.7-3.7,54.4,2.2Z"/><path class="cls-13" d="m240.5,121c-.6.1-1.1.3-1.6.4,0-2.8-.2-5.2-.3-7.6h0c17.9-2.2,36.6-3.1,53.9,2,0,2.6-.3,5.2-.6,8-.2,0-.5-.2-.7-.3-2.9-1.1-5.8-2-8.8-2.7-13.6-3.2-28.3-3-41.8,0Z"/><path class="cls-9" d="m287.6,130.9h0c-.5.6-1,1.2-1.7,1.6-.8.4-2,.5-2.7-.2-.6-.6-.7-1.6-.7-2.5,0-3.2-.1-5.7-.2-8.9,3,.7,6,1.6,8.8,2.7v.2c0,1.9,0,3.7-.5,5.6-.4,0-.8,0-1.2.2-.9.3-1.1.9-1.8,1.4Z"/><path class="cls-9" d="m288.3,145c.3,0,.6,0,.9,0-1.2,2.5-3.5,6-5.2,8.2,1.1-2.9,1.8-6,2.5-9,.5.5,1.1.8,1.8.8Z"/><path class="cls-8" d="m256.4,190.4c1-.6,2-1.2,2.9-1.8h0c.6-.4,1.1-.7,1.7-1.1,1.9-1.3,3.3-2.4,4.6-3.3h0c1.7-2.3,3.6-3.7,5.5-4.4,1.8-.7,2.5-.5,4.5-.8,2-.3,4-.8,5.5-2,1.6-1.2,2.6-3.3,2.1-5.2h0c12.1,9,7.8,28.4,5.8,39.7-2.2,12.2-1,16.2-2.4,30.5-.5,5.5-1.6,14.5-3,20.6h-.6c0-.2-18.4-9.3-27.4-15.5-2.5-4-4.8-7.5-7.2-11,.5-1.8.8-3.2,1.1-4.5h.1c5.4-6.5,9.7-13.9,12.6-21.8h0c-1.1.4-2.2.8-3.4,1.3-1.2.5-2.6,1-4.1,1.5-.5.2-1,.4-1.5.6-4.8,2-10.7,5.3-16.4,7.4-.2,0-.4.1-.5.2l-.2-.5c-4-5.6-5.5-12.9-3.9-19.6v-.4c8-2.9,16.9-6.2,24.2-10.2Z"/><path class="cls-6" d="m282.9,262.6h.6c-.2.9-.3,1.6-.5,2.2-.6,2.4-1.7,4.7-3,6.8-7.7-5.9-14.9-12.5-21.5-19.6h0c-1-1.6-2-3.2-2.9-4.7,8.9,6.2,27.4,15.2,27.4,15.3Z"/><path class="cls-6" d="m280,172.8c0-1,0-2,0-2.9,1.1.6,2.2,1.2,3.1,1.9h0c.5,2-.5,4-2.1,5.2-1.6,1.2-3.6,1.7-5.5,2-1.9.3-2.7,0-4.5.8-1.9.7-3.7,2.1-5.5,4.3h0c-1.3,1-2.7,2.1-4.6,3.4-.5.4-1.1.8-1.7,1.1,1.6-5.4,6.3-7.9,10.9-10.6.6-.3,1.2-.7,1.8-1.1.9-.6,1.8-1.2,2.7-1.9,1.6-1.1,3.4-2.1,5.4-2.3Z"/><path class="cls-11" d="m280,169.9c0,.9,0,1.9,0,2.9-1.9.2-3.7,1.2-5.4,2.3-.9.6-1.8,1.3-2.7,1.9-.6.4-1.2.7-1.8,1.1-.2,0-.3.2-.5.2-1.7.8-3.8,1.1-5.5.4h0s.2-.5.2-.5c0-.6,0-1.2,0-1.7,0-3,0-4.7-.1-8.3,4-1.2,8.7-3.7,13.4-6.4.7-.4,1.4-.9,2-1.4,0,3.8.2,6.3.4,9.5Z"/><path class="cls-7" d="m227.8,242.5c-3.4,16.3-3.4,29.2-3.5,29.2h0c-.4.1-.8.2-1.2.3-6.5,1.4-13.5-.3-19-4-1.1-.8-2.2-1.6-3.2-2.5.1-.1.2-.3.2-.4,5.8-13,12-41.4,16.5-48.3,3.1,1.8,7.9,2.7,9.7,2.6.7,1.1,1.4,2.2,2.3,3.3,2.1-.2,4.4-.8,6.7-1.6.2,0,.3-.1.5-.2,4.6,5.7,8.2,10.5,11.6,15.4,2.4,3.4,4.7,7,7.2,11,.9,1.5,1.9,3.1,2.9,4.8h0c6.6,7,13.8,13.6,21.5,19.6-2,3.1-4.8,5.7-8.2,7-4.4,1.7-13.5,1.7-17.8-.1-4.4-1.8-7.5-5.7-10.1-9.6-6.2-9.2-9.4-13.1-13.6-21.5-1.2-2.5-1.9-3.8-2.4-4.8Z"/><path class="cls-9" d="m278.6,130.6c-3.1,1.3-6.8-1.4-10-.4-.7.2-1.3.6-2,.5-.9-.1-1.6-1-1.7-2-.6-4.3,5.3-3.9,8.2-3.2,2.6.6,5,2.5,5.6,5.1Z"/><ellipse class="cls-14" cx="271.2" cy="136.7" rx="1.6" ry="3.6"/><path class="cls-11" d="m270.2,178c.6-.4,1.2-.7,1.8-1.1-.6.4-1.2.8-1.8,1.1Z"/><path class="cls-10" d="m264.1,178.6h0c1.8.7,3.8.4,5.5-.4.2,0,.3-.2.5-.2-4.6,2.7-9.3,5.3-10.9,10.6h0c-.9.6-1.9,1.2-2.9,1.8.8-3.9,2.8-8.1,5.1-11.2.8-1.1,1.7-2,2.6-2.8h.3c0,.5,0,1.1,0,1.7l-.2.5Z"/><path class="cls-12" d="m269.7,150.8c-.3,1.9-4.7,7.3-10.9,8.1-2.6.3-6.3-3.1-6.6-4.4,0,0,12.2-1.5,17.4-3.6Z"/><path class="cls-6" d="m262.1,209.9h0c-2.9,8-7.2,15.4-12.6,21.9h-.1c.6-2.7.9-4.9,1.7-8.6,2.9-3.6,5.5-7.6,7.6-11.7h0c1.2-.6,2.3-1.1,3.4-1.6Z"/><path class="cls-8" d="m261.3,179l.2.2c-2.3,3.1-4.3,7.3-5.1,11.2-7.2,4.1-16.2,7.3-24.3,10.2-1.5.5-3,1.1-4.5,1.6l-.2-.5c-.3-.3-.6-.5-1-.6,12.4-6.1,24-13.5,34.8-22.1Z"/><path class="cls-10" d="m258.7,211.3h0c-2.1,4.3-4.7,8.2-7.6,11.8.5-2.4,1.1-5.5,2-9.7.5-.2,1-.4,1.5-.6,1.5-.5,2.8-1,4.1-1.5Z"/><path class="cls-9" d="m252.9,125.9c.7.6-.6,3.2-.8,4-2.4-.4-5-.2-7.3.5-.5.2-1.1.3-1.5,0-.4-.3-.2-.8,0-1.1,1-1.9,3.4-3.3,5.9-3.6.8-.1,3.1-.4,3.7.2Z"/><path class="cls-14" d="m248.8,132.5c.9,0,1.6,1.6,1.6,3.6s-.7,3.6-1.6,3.6-1.6-1.6-1.6-3.6.7-3.6,1.6-3.6Z"/><path class="cls-6" d="m227.3,219.4c-3-4.9-4.3-10.4-2.7-16.1,1-.4,2-.7,3-1.1,1.4-.5,2.9-1,4.5-1.6v.4c-1.5,6.7,0,14.1,4,19.6l.2.5c-2.3.8-4.5,1.4-6.7,1.6-.8-1.1-1.6-2.2-2.3-3.3Z"/><path class="cls-11" d="m226.5,201.1c.4.1.7.4,1,.6l.2.5c-1,.4-2.1.7-3,1.1-1.6,5.8-.3,11.2,2.7,16.1-1.8.1-6.5-.8-9.7-2.6-1.6-.9-2.8-2.1-2.9-3.4,0,0-1.4-6.7,4.3-10.5,1.2-.8,3.2-1.5,4.6-1.9,1-.3,2.1-.3,3,.1Z"/><path class="cls-12" d="m223.1,272.1c.2,2.6.2,4-.2,6.4-2,1.4-6.3,2.1-8.8,1.9-2.5-.2-5.2-.3-7.7-.4-1.5,0-3.4,0-5.4.3.6-4.5-.9-7.1-2.9-8.7,2.7-1.3,3.5-1.3,5.9-3.5,5.6,3.7,12.5,5.4,19,4Z"/><path class="cls-5" d="m201,280.3c2-.3,4-.4,5.4-.3,2.5.2,5.2.2,7.7.4,2.5.2,6.8-.4,8.8-1.9.3,1.3,1,2.4,0,3.2-1.1.8-5.6,1.7-6.9,1.8-3.3.2-6.3-.4-9.6-.7-3.7-.3-9.3,1-13,1.4-3.7.3-7.6,1.1-11-.3-.9-.4-2.8-1.1-3.1-2-.3-1,.2-3,1.1-2.6h.3c0,0,0,.2,0,.2,3.1,2.4,7,2.6,10.9,2.2,2.4-.2,6.2-.9,9.6-1.4Z"/><path class="cls-12" d="m204.1,268.1c-2.4,2.2-3.2,2.2-5.9,3.5-2.3-1.9-5.4-2.1-6.4-2,1.2-.2,3.7-.9,4.8-1.5.9-.5,3.6-1.5,4.4-2.5,1,.9,2.1,1.8,3.2,2.5Z"/><path class="cls-12" d="m198.2,271.6c2,1.6,3.4,4.2,2.9,8.7-3.4.4-7.2,1.1-9.6,1.4-3.9.4-7.8.1-10.9-2.2,0,0,0-.1,0-.2.3-4.6,2.2-7.4,4.3-8,2.5-.8,4.3-1.4,6.9-1.6,1-.1,4.1.2,6.4,2Z"/><path class="cls-4" d="m252.8,145.5c0,.9.2,1.9.9,2.5.6.6,1.5.8,2.4.8,2,.2,4-.2,5.8-1"/><path class="cls-4" d="m252,129.9c-2.4-.4-5-.2-7.3.5-.5.2-1.1.3-1.5,0-.4-.3-.2-.8,0-1.1,1-1.9,3.4-3.3,5.9-3.6.8-.1,3.1-.4,3.7.2.7.6-.6,3.2-.8,4Z"/><path class="cls-4" d="m264.9,128.7c.1.9.8,1.9,1.7,2,.7,0,1.4-.3,2-.5,3.2-1,6.9,1.7,10,.4-.6-2.6-3-4.4-5.6-5.1-2.9-.7-8.7-1.1-8.2,3.2Z"/><path class="cls-4" d="m287.6,130.9c.7-.5,1-1.1,1.8-1.4.4-.1.8-.2,1.2-.2.5,0,1,0,1.5.4,1,.6,1.4,1.9,1.6,3.1.4,2.4.3,4.8-.2,7.2-.3,1.3-.8,2.5-1.6,3.5-.6.8-1.6,1.3-2.5,1.5-.3,0-.6,0-.9,0-.6,0-1.3-.4-1.8-.8-.5-.4-.8-1-.8-1.7"/><path class="cls-4" d="m240.1,133.3c0-5.1,0-7.2.3-12.3h0"/><path class="cls-4" d="m240.1,133.3s0,0,0,0h0Z"/><path class="cls-4" d="m240.1,133.3h0"/><path class="cls-4" d="m286.6,144.2c-.7,2.9-1.4,6.1-2.5,9-1.1,2.8-2.5,5.4-4.5,7.2-.6.5-1.3,1-2,1.4-4.6,2.7-9.4,5.2-13.4,6.4-2.3.7-4.3,1-6,.8-4.8-.7-11.8-9.3-15.3-15.5-2.8-5-4.7-14.8-2.8-20.2,0,.1,0,0,0,0"/><path class="cls-4" d="m269.7,150.8c-.3,1.9-4.7,7.3-10.9,8.1-2.6.3-6.3-3.1-6.6-4.4,0,0,12.2-1.5,17.4-3.6Z"/><path class="cls-4" d="m282.3,120.9h0c0,3.2.1,5.7.2,8.9,0,.9,0,1.9.7,2.5.7.7,1.8.6,2.7.2.7-.4,1.2-.9,1.7-1.6h0c0-.1.2-.3.3-.4"/><path class="cls-4" d="m292.4,115.9c0,2.6-.3,5.2-.6,8-.2,0-.5-.2-.7-.3-2.9-1.1-5.8-2-8.8-2.7-13.6-3.2-28.3-3-41.8,0-.6.1-1.1.3-1.6.4,0-2.8-.2-5.2-.3-7.6-.2-2.5-.3-4.9-.4-7.6-.1-2.2-.2-4.5-.2-7.3,8.1-2.7,24.4-3.2,31.1-2.7,8.5.6,15.6,2.5,23.7,5-.1,2.5-.2,4.9-.2,7.2,0,2.5,0,4.9-.1,7.3Z"/><path class="cls-4" d="m291,123.8c.1,1.9,0,3.7-.4,5.6,0,.1,0,.2,0,.3"/><path class="cls-4" d="m289.3,145c-1.2,2.5-3.5,6-5.2,8.2"/><path class="cls-4" d="m238.1,106.3c16.2-2.4,36.7-3.7,54.4,2.2,0,0,0,0,0,0"/><path class="cls-4" d="m238.5,113.9c17.9-2.2,36.6-3.1,53.9,2,.1,0,.3,0,.4.1"/><path class="cls-4" d="m259.3,188.6c-.9.6-1.9,1.2-2.9,1.8-7.2,4.1-16.2,7.3-24.3,10.2-1.5.5-3,1.1-4.5,1.6-1,.4-2.1.7-3,1.1-2.1.8-4.1,1.5-5.8,2.3"/><path class="cls-4" d="m278,181.3c-6.4-.7-8.4,0-12.5,2.9-1.3.9-2.7,2-4.6,3.3-.5.4-1.1.8-1.7,1.1"/><path class="cls-4" d="m264,176.4c-.9.8-1.7,1.7-2.6,2.8-2.3,3.1-4.3,7.3-5.1,11.2v.5"/><path class="cls-4" d="m253.1,213.5c-.9,4.2-1.5,7.3-2,9.7-.7,3.8-1.1,6-1.7,8.6-.3,1.3-.6,2.7-1.1,4.5h0"/><path class="cls-4" d="m224.4,233c2.6,7.3,2.3,7.2,3.4,9.5.5,1,1.2,2.3,2.4,4.8,4.2,8.4,7.4,12.3,13.6,21.5,2.6,3.9,5.7,7.8,10.1,9.6,4.4,1.8,13.4,1.8,17.8.1,3.4-1.3,6.2-3.9,8.2-7,1.4-2.1,2.4-4.4,3-6.8.2-.6.3-1.3.5-2,1.4-6.1,2.5-15.2,3-20.6,1.3-14.3.2-18.4,2.4-30.5,2-11.3,6.3-30.7-5.8-39.8-.9-.7-2-1.3-3.1-1.9"/><path class="cls-4" d="m236.6,220.7c0,0,.1.1.2.2,4.6,5.7,8.2,10.5,11.6,15.4,2.4,3.4,4.7,7,7.2,11,.9,1.5,1.9,3.1,2.9,4.8,0,0,0,0,0,.1"/><path class="cls-4" d="m226.8,201.7c.2,0,.4,0,.6,0-.3-.3-.6-.5-1-.6-.9-.4-2-.4-3-.1-1.3.4-3.4,1.2-4.6,1.9-5.6,3.7-4.3,10.5-4.3,10.5.2,1.4,1.3,2.5,2.9,3.4,3.1,1.8,7.9,2.7,9.7,2.6,0,0,0,0,.1,0"/><path class="cls-4" d="m264.2,168.1c0,3.5,0,5.2.1,8.3,0,.5,0,1.1,0,1.7"/><path class="cls-4" d="m279.6,160.3c0,3.8.2,6.3.4,9.5,0,.9,0,1.9,0,2.9v.4"/><path class="cls-4" d="m224.4,271.8c0,0,0-12.9,3.5-29.2,0-.3.1-.5.2-.8"/><path class="cls-4" d="m224.4,271.8h0s0,0,0,0"/><line class="cls-4" x1="224.3" y1="271.8" x2="224.3" y2="271.8"/><path class="cls-4" d="m200.5,265.2c.1.1.2.2.4.3,1,.9,2.1,1.8,3.2,2.5,5.6,3.7,12.5,5.4,19,4,.4,0,.8-.2,1.2-.3h0"/><path class="cls-4" d="m217.7,216.7h0c-4.5,7-10.7,35.4-16.5,48.4"/><path class="cls-4" d="m280,172.8h0c-1.9.2-3.7,1.2-5.4,2.3-.9.6-1.8,1.3-2.7,1.9-.6.4-1.2.8-1.8,1.1-.2,0-.3.2-.5.2-1.7.8-3.8,1.1-5.5.4h0c0,0-.1,0-.2,0"/><path class="cls-4" d="m224.6,203.3c-1.6,5.8-.3,11.2,2.7,16.1.7,1.1,1.4,2.2,2.3,3.3,2.1-.2,4.4-.8,6.7-1.6.2,0,.3-.1.5-.2,5.7-2.1,11.6-5.5,16.4-7.4.5-.2,1-.4,1.5-.6,1.5-.5,2.8-1,4.1-1.5,1.2-.5,2.3-1,3.4-1.5,4.6-2.1,8.1-4.3,13.6-8"/><path class="cls-4" d="m261.3,179c-10.8,8.6-22.4,16-34.8,22.1h-.1"/><path class="cls-4" d="m258.5,252c6.6,7.1,13.8,13.7,21.5,19.6,0,0,.1.1.2.2"/><path class="cls-4" d="m201,280.3s0,0,0,0c.6-4.5-.9-7.1-2.9-8.7-2.3-1.9-5.4-2.1-6.4-2-2.6.2-4.3.8-6.9,1.6-2.2.7-4,3.4-4.3,8,0,0,0,.1,0,.2,3.1,2.4,7,2.6,10.9,2.2,2.4-.2,6.2-.9,9.6-1.4,2-.3,4-.4,5.4-.3,2.5.2,5.2.2,7.7.4,2.5.2,6.8-.4,8.8-1.9"/><path class="cls-1" d="m198.2,271.6c2.7-1.3,3.5-1.3,5.9-3.5,0,0,0,0,0,0"/><path class="cls-4" d="m180.2,279.2c-.9-.3-1.4,1.7-1.1,2.6.3,1,2.2,1.7,3.1,2,3.4,1.4,7.4.6,11,.3,3.7-.3,9.3-1.7,13-1.4,3.3.3,6.3.9,9.6.7,1.3,0,5.9-1,6.9-1.8,1-.8.3-1.9,0-3.2"/><path class="cls-4" d="m191.7,269.5c1.2-.2,3.7-.9,4.8-1.5.9-.5,3.6-1.5,4.4-2.5.1-.1.2-.3.2-.4"/><path class="cls-1" d="m223.1,272.1c.2,2.6.2,4-.2,6.4"/><path class="cls-4" d="m255.1,247c.1,0,.3.2.4.3,8.9,6.2,27.4,15.2,27.4,15.3"/><path class="cls-4" d="m283,171.8c.5,1.9-.5,4-2.1,5.2-1.6,1.2-3.6,1.7-5.5,2-1.9.3-2.7,0-4.5.8-1.9.7-3.7,2.1-5.5,4.3"/><path class="cls-4" d="m262.2,210c-2.9,7.9-7.2,15.3-12.6,21.8"/><path class="cls-4" d="m232.2,201c-1.6,6.7-.2,14.1,3.9,19.6"/><path class="cls-4" d="m272,176.9c-.6.4-1.2.7-1.8,1.1-4.6,2.7-9.3,5.3-10.9,10.6h0"/><path class="cls-4" d="m258.7,211.4c-2.1,4.2-4.7,8.1-7.6,11.7,0,.1-.2.2-.2.3"/></svg>