<?xml version="1.0" encoding="UTF-8"?><svg xmlns="http://www.w3.org/2000/svg" width="300" height="300" viewBox="0 0 300 300"><defs><style>.cls-1{stroke-linecap:round;stroke-linejoin:round;}.cls-1,.cls-2,.cls-3{fill:none;}.cls-1,.cls-3{stroke:#000;}.cls-2,.cls-4,.cls-5,.cls-6,.cls-7,.cls-8,.cls-9,.cls-10,.cls-11,.cls-12,.cls-13{stroke-width:0px;}.cls-14{fill:#3246ff;}.cls-14,.cls-15{stroke:#fff;stroke-width:4.2px;}.cls-14,.cls-15,.cls-3{stroke-miterlimit:10;}.cls-15{fill:#4d0099;}.cls-5{fill:#53898b;}.cls-6{fill:#38312e;}.cls-7{fill:#16100d;}.cls-8{fill:#ccc;}.cls-9{fill:#be5fa6;}.cls-10{fill:#866249;}.cls-11{fill:#856149;}.cls-12{fill:#fff;}.cls-13{fill:#e7e7e7;}</style></defs><g id="Layer_5"><rect class="cls-2" x="1.8" y="1" width="298.4" height="289"/><rect class="cls-14" x="41.8" y="183.7" width="70.4" height="76.5"/><rect class="cls-14" x="112.3" y="183.7" width="76.5" height="76.5"/><rect class="cls-15" x="112.3" y="114.3" width="76.5" height="69.4"/><rect class="cls-14" x="188.7" y="183.7" width="69.4" height="76.5"/><rect class="cls-14" x="188.7" y="114.3" width="69.4" height="69.4"/><rect class="cls-14" x="188.7" y="39.8" width="69.4" height="74.5"/><rect class="cls-15" x="112.3" y="39.8" width="76.5" height="74.5"/><rect class="cls-15" x="41.8" y="114.3" width="70.4" height="69.4"/><rect class="cls-15" x="41.8" y="39.8" width="70.4" height="74.5"/></g><g id="Layer_2"><path class="cls-8" d="m295.1,276.9c.3.3.4,2.5.4,2.9-.3,2.4-2,3.2-6.3,4.5-5.4,1.6-9.9-1.5-12.2-4.3-2.6-3.1-3.7-6.1-3.9-6.7,0,0,0-.2,0-.2l-1.3-2.9c0,0,0-.2,0-.3-.1-.4-.3-1.7.3-2.4,0,.3.1.7.2,1.1,0,.1,0,.2,0,.3,1.4,3.3,3,6.7,5.2,9.1h0c2.8,3.1,6.5,4.8,11.7,3.5,4.4-1.1,5.7-3,5.6-4.4,0-.2,0-.4-.2-.7l.4.4Z"/><path class="cls-8" d="m293.2,273.7h0c.7,1.1,1.2,2.1,1.5,2.8h0c0,.3.1.5.2.7.1,1.4-1.2,3.2-5.6,4.4-5.3,1.3-8.9-.4-11.7-3.5h0c0-.3.8-6.1,6.9-7.3,5.6-1.1,8.2,2.2,8.8,2.9Z"/><path class="cls-8" d="m285.1,263.7h0c.7.4,1.3,1.7,2,3,0,.2.2.3.4.4,2.6,2.3,4.5,4.7,5.7,6.6h0c-.5-.7-3.2-4-8.8-2.9-6.1,1.2-6.9,7-6.9,7.2-2.2-2.5-3.8-5.8-5.2-9.1,0,0,0-.2,0-.3,0-.4-.1-.7-.2-1.1-.2-.9-.3-1.7-.3-2.4,1.5,0,3,0,4.4-.1,2.1-.2,4.2-.7,6.3-1.5,1-.4,1.9-.8,2.9-1.3,0,.4,0,.9-.1,1.4Z"/><path class="cls-9" d="m233.9,162.3c-2.6-3.2-4.4-6.4-5.2-9.5-1.6-5.8-4.4-16.7-3.6-29,1-2.6,0-26.3,13.5-32,.3-.1.7-.3,1-.4,2.4-.4,5.6,0,8.3,1.3.5,2.2,2.3,4.3,4.3,5.2,3,1.2,7.8.9,10.6-.8,1.4-.8,2.7-1.8,3.8-2.9-.2.3,2.4-1.7,4.9-2.6v.4c2.8.2,5.1,1.2,7,2.7,10.1,7.7,10.4,28.9,10.4,28.9,0,12.7-1.2,20.5-4.8,30-.6,1.6-1.8,3.3-3.3,4.9-4.3,4.8-11.5,9.5-17.6,13.5-1.1.7-2.3,1.5-3.3,2.1h0c.8-2.2.4-4.7-1.1-6.4h0c-.1,0-.3.2-.4.3-2.7-.7-4.4-3.8-7.1-4-1.3,0-2.5.5-3.4,1.4-.2.2-.4.5-.6.7-.9,1.3-1.3,2.9-1.6,4.5,0,.6-.2,1.2-.2,1.8,0,0-.1,0-.2,0-4.5-3.2-8.4-6.7-11.3-10.3Zm30.3-48.7c.3-1.1.2-2.4-.5-3.3-1.9-2.4-4.5-.7-6.6.3-2.7,1.3-3.3-1.4-5.3-2.6-1.6-1-3.9-1.1-5.1.3-1.2,1.4-.9,3.5-.3,5.3,1.4,4.3,3.9,8.2,7.2,11.3,3.2-2.6,6.5-5.1,9-8.4.7-.9,1.4-1.9,1.7-3Z"/><path class="cls-6" d="m259.8,49.9c-.6-.6-1.2-1.2-1.8-1.8-3.7-3.6-9.3-6-11.4-10.4h0c-7.2,7.2-9.4,10.8-9.6,20.9-.5-.3-1.5,0-2.3,1.1-1.4-7.9-2.3-26.7,12.5-30.5,7.5-2,15.7-1.7,22.9,1,3.1,1.2,6.2,2.8,8.2,5.4,5.9,7.7,5.5,12.1,5.5,19.1,0,7-3.2,15-2.4,23.7-2.5-1.3-4.4-2.8-5.9-4.4-3.7-4-4.7-8.6-6.2-12.1-1.6-3.8-4.3-6.9-7.2-9.8-.8-.8-1.6-1.6-2.4-2.3Z"/><path class="cls-9" d="m280.9,158.6c.1,3,.3,6,.4,8.9-2.2,1-4.2,1.7-6.2,2.3-3.2,1-6.3,1.6-9.8,2-.7,0-1.4.2-2.1.2,6.1-3.9,13.3-8.7,17.6-13.5Z"/><path class="cls-9" d="m271.5,91.7c-2.5.8-5.1,2.8-4.9,2.6,1.1-1.2,1.9-2.5,1.9-3.9,0-1-.2-1.9-.2-2.8,1.1-.4,2.4-.3,3.6,0,1.2.3,2.3.8,3.5,1.1.9.2,1.9.3,2.9.5s1.9.7,2.4,1.5c.5.8,1.4,3-2.1,3.8h0c-1.9-1.4-4.2-2.3-6.9-2.6v-.4Z"/><path class="cls-6" d="m274.1,77.2c2.6,4.4,3.7,7.1,4.2,12.2-.9-.3-1.9-.3-2.9-.5-1.2-.3-2.3-.8-3.5-1.1-1.2-.3-2.4-.5-3.6,0,0-1.2-.2-2.5-.2-4.5,1.1-.7,3.8-2.6,5.9-6Z"/><path class="cls-10" d="m249.7,50.4s0,0,0,0h0c-4.1-1.3-9.4,0-10.1,1.5.9.4,1.8.4,2.9.3l4.8-.3c.7,0,1.5-.1,2.1-.4.6-.3.9-.8.4-1.1Zm-11.7,20.8c-.2-1.2-.3-2.4-.2-3.7.2-6.9-.8-8.9-.8-8.9.2-10.2,2.4-13.8,9.6-20.9h0c2.1,4.4,7.7,6.8,11.4,10.4.6.6,1.2,1.2,1.8,1.8-.7.1-1.3.3-2,.5-.1,0-.3.9.3,1.3.6.3,1.4.4,2.1.4.8,0,1.1,0,1.9.1,2.9,2.9,5.6,6,7.2,9.8,1.5,3.6,2.5,8.2,6.2,12.1-.4,1.1-.9,2.1-1.5,3-2.1,3.4-4.9,5.3-5.9,6-10.2,6.2-14.5,6.2-19.7,2.6-1.5-1.1-3.1-2.5-5-4.1-3-2.6-4.9-6.4-5.5-10.4Zm9.5,4.4h0c1.2,2.1,2.5,3.2,5.3,3.6,1.7.2,5.2-.1,6.9-1.1,1.6-1,2.3-1.3,4.3-4-.9.9-11.6,3.2-16.4,1.6Zm17-16.3c0-1.8-.8-3.3-1.7-3.3s-1.7,1.5-1.7,3.3.8,3.3,1.7,3.3,1.7-1.5,1.7-3.3Zm-19.3,0c0-1.6-.6-2.9-1.4-2.9s-1.4,1.3-1.4,2.9.6,2.9,1.4,2.9,1.4-1.3,1.4-2.9Z"/><path class="cls-11" d="m268.3,87.7c0,.9.1,1.7.2,2.8,0,1.4-.8,2.7-1.9,3.9-1.1,1.1-2.4,2.1-3.8,2.9-2.8,1.7-7.6,2-10.6.8-2.1-.9-3.9-3-4.3-5.2-.2-1-.2-2,.2-2.9.2-.9.4-1.8.4-2.8,0-.5,0-.9,0-1.4,5.2,3.6,9.4,3.6,19.7-2.6,0,2,0,3.4.2,4.5Z"/><path class="cls-13" d="m263.7,110.3c.7.9.8,2.2.5,3.3-.3,1.1-.9,2.1-1.7,3-2.5,3.2-5.8,5.8-9,8.4-3.3-3.1-5.8-7-7.2-11.3-.6-1.8-.9-3.9.3-5.3,1.2-1.4,3.5-1.3,5.1-.3,2,1.3,2.6,4,5.3,2.6,2-1,4.7-2.7,6.6-.3Z"/><path class="cls-4" d="m262.8,56.1c.9,0,1.7,1.5,1.7,3.3s-.8,3.3-1.7,3.3-1.7-1.5-1.7-3.3.8-3.3,1.7-3.3Z"/><path class="cls-12" d="m263.9,74c-2,2.7-2.7,3.1-4.3,4-1.7,1-5.1,1.3-6.9,1.1-2.8-.4-4.1-1.5-5.3-3.5h0c4.9,1.5,15.5-.8,16.4-1.7Z"/><path class="cls-7" d="m262.2,52.2c-.8,0-1.1,0-1.9-.1-.7,0-1.5-.1-2.1-.4-.6-.3-.4-1.2-.3-1.3.6-.2,1.3-.4,2-.5.8.8,1.6,1.5,2.4,2.3Z"/><path class="cls-10" d="m259.9,174.2h0c-.9.7-1.8,1.3-2.6,1.8-1.5,1.6-3.4,2.3-5.6,2.5-2.4.2-5-1.1-5.9-3.4-.3-.8-.4-1.6-.4-2.4,0,0,0,0,0-.1,0-.6,0-1.2.2-1.8.2-1.6.6-3.2,1.6-4.5.2-.3.4-.5.6-.7.9-.9,2.2-1.5,3.4-1.4,2.7.2,4.5,3.3,7.1,4l.4-.4h0c1.4,1.8,1.9,4.3,1.1,6.4Z"/><path class="cls-7" d="m249.7,50.4c.5.3.2.9-.4,1.1-.6.3-1.4.3-2.1.4l-4.8.3c-1.1,0-2.1,0-2.9-.3.7-1.4,6-2.8,10.1-1.5h0s0,0,0,0Z"/><path class="cls-9" d="m238.4,91.5c2.4-2.9,6.3-4.6,10.1-4.4,0,.9-.2,1.8-.4,2.8-.4.9-.4,1.9-.2,2.9-2.7-1.3-5.9-1.6-8.3-1.3-.3.1-.7.2-1,.4v-.3Z"/><path class="cls-8" d="m246.8,270s1.4.5,0,2.8c-1.4,2.3-8.5,2.3-9.2,2.4-.7.1-3.7,2.1-5.9,2.9-1.1.4-3,.9-5.1,1.3l-.3-1.7c.8-.2,1.5-.4,2.2-.6,4-1.3,6.8-3.4,9.2-4.3.2,0,.4,0,.6,0,4.9.2,6.8-1.1,7.9-2,.3-.2.5-.5.6-.9h0Z"/><path class="cls-8" d="m246.9,266.1c0,1.4-.1,2.8-.1,3.6,0,.1,0,.2,0,.3,0,.3-.3.6-.6.9-1.1.9-3,2.1-7.9,2-.2,0-.4,0-.6,0-2.4.9-5.2,3-9.2,4.3h0c.6-4.4-.9-8.3-4-9.6-2.2-.8-3.9-1-5.2-.7l9.5-4c0,.2,0,.4,0,.6.7.8,2.7,1.4,5.2,1.8.6.1,1.3.2,1.9.3,2.1.3,4.3.4,6.4.5,1.7,0,3.4,0,4.7,0Z"/><path class="cls-4" d="m243.8,56.4c.8,0,1.4,1.3,1.4,2.9s-.6,2.9-1.4,2.9-1.4-1.3-1.4-2.9.6-2.9,1.4-2.9Z"/><path class="cls-9" d="m245.3,172.6c-.9,0-1.8-.2-2.7-.3-4.4-.6-7.5-1.5-8.7-2.3h-.6c.2-3.8.4-6.6.6-7.7,2.9,3.6,6.8,7.2,11.3,10.3Z"/><path class="cls-11" d="m237,58.7s1,2.1.8,8.9c0,1.2,0,2.5.2,3.7-1.1-.3-4.6-3.8-4.6-7.3s.5-3.2,1.2-4.1c.8-1.1,1.8-1.4,2.3-1.1Z"/><path class="cls-5" d="m286.2,252.5h0c-.2-3.9-.4-7.8-.6-11.5-.2-4.5-.3-8.9-.5-12.6-.2-3.4-.3-6.3-.6-8.5,0-.3,0-.7-.1-1.4-.1-2-.3-5.8-.6-10.3-.1-2.6-.3-5.5-.5-8.5-.2-3.1-.3-6.3-.5-9.5-.3-4.6-.5-9.1-.7-12.9-.3-5.2-.6-8.9-.7-9.8,0,0,0,0,0,0-2.2,1-4.2,1.7-6.2,2.3-3.2,1-6.3,1.6-9.8,2-.7,0-1.4.2-2.1.2-1.1.7-2.3,1.5-3.3,2.1-.9.6-1.8,1.2-2.6,1.7-1.5,1.6-3.4,2.3-5.6,2.5-2.4.2-5-1.1-5.9-3.4-.3-.8-.4-1.6-.4-2.4,0,0-.1,0-.2-.1-.9,0-1.8-.2-2.7-.3-4.4-.6-7.5-1.5-8.7-2.3h-.6c-.1,2.1-.3,4.6-.4,7.4-.2,3.5-.4,7.3-.5,11.3-.1,2.9-.2,5.9-.4,8.8-.1,3.1-.2,6.2-.3,9.2,0,2.7-.2,5.3-.3,7.7-.1,3.8-.2,7.2-.3,9.8,0,2.7,0,4.6,0,5.4,0,.8,0,2.5-.1,4.8-.1,2.4-.3,5.3-.5,8.4-.2,2.4-.4,4.9-.5,7.4-.2,2.6-.4,5-.6,7.1-.2,2.5-.4,4.6-.6,5.7,0,.2,0,.4,0,.6.7.8,2.7,1.4,5.2,1.8.6.1,1.3.2,1.9.3,2.1.3,4.3.4,6.4.5,1.7,0,3.4,0,4.7,0,1.7,0,2.9-.3,3.1-.5.1-2.3.2-4.2.2-6,0-3.2.1-5.7.2-8.3,0-2,.1-4.1.3-6.6.2-2.5.4-5.3.8-9,.2-1.7.4-3.5.6-5.5.1-1.2.3-2.3.4-3.5.4-3.1.7-6.3,1.1-9.4.3-2.5.7-5,1-7.4.4-3.1.8-6,1.2-8.6.6-4.3,1.1-7.7,1.5-9.9.2-1.2.3-2,.3-2.2.2,1.2.4,2.4.6,3.7h0c.5,3.1,1.1,6.6,1.7,10.1.5,2.9,1,5.8,1.5,8.7.6,3.3,1.1,6.5,1.6,9.4.6,3.7,1.2,7,1.5,9.4,0,.2,0,.5.1.8.3,2.4.7,7.1,1,12.2.3,4,.5,8.3.5,12.2h0s0,0,0,0c0,3.4,0,6.5-.1,8.7,1.9.3,3.7.5,5.5.6,1.5,0,3,0,4.4-.1,2.1-.2,4.2-.7,6.3-1.5,1-.4,1.9-.8,2.9-1.3.6-.3,1.1-.6,1.7-.9-.3-2.8-.5-5.8-.7-8.8Z"/><path class="cls-8" d="m224.5,267.6c3.1,1.3,4.6,5.2,4,9.6h0c-.7.2-1.5.4-2.2.6-2.2.4-4.8.6-7.8,0-.1,0-.3,0-.4-.1-1.9-.8-2.7-2-2.9-2.5,0-.1,0-.2,0-.3,0,0,0-.2,0-.3,0-1.3.1-6.7,4.3-7.7h0c1.3-.3,3-.2,5.2.7Z"/><path class="cls-8" d="m226.3,277.8l.3,1.7c-2.1.4-4.5.7-6.7.7-3.2,0-4.8-1.4-5.3-2.2-.2-.3-.3-.6-.3-.9v-.8c0-.6.3-1.1.8-1.4h0c0,.1,0,.2,0,.3.2.6,1,1.7,2.9,2.5.1,0,.3,0,.4.1,3,.5,5.6.4,7.8,0Z"/><path class="cls-1" d="m294.6,276.5c-.2-.7-.7-1.6-1.5-2.8-1.2-1.9-3.2-4.3-5.7-6.6-.1-.1-.3-.3-.4-.4-.7-1.3-1.3-2.6-2-3"/><path class="cls-1" d="m277.5,278c2.8,3.1,6.5,4.8,11.7,3.5,4.4-1.1,5.7-3,5.6-4.4,0-.2,0-.4-.2-.7"/><path class="cls-1" d="m271.6,265.1c0,.7.2,1.5.3,2.4,0,.3.1.7.2,1.1,0,.1,0,.2,0,.3,1.4,3.3,3,6.7,5.2,9.1"/><path class="cls-1" d="m277.5,278h0c0-.3.8-6.1,6.9-7.3,5.6-1.1,8.2,2.2,8.8,2.9,0,0,0,.1,0,.1"/><path class="cls-1" d="m285.2,262.3c0,.4,0,.9-.1,1.4,0,.4-.2.8-.3,1.3"/><path class="cls-1" d="m294.6,276.5h0s.4.4.4.4c.3.3.4,2.5.4,2.9-.3,2.4-2,3.2-6.3,4.5-5.4,1.6-9.9-1.5-12.2-4.3-2.6-3.1-3.7-6.1-3.9-6.7,0,0,0-.2,0-.2l-1.3-2.9c0,0,0-.2,0-.3-.1-.4-.3-1.7.3-2.4t0,0"/><path class="cls-1" d="m219.3,266.9c1.3-.3,3-.2,5.2.7,3.1,1.3,4.6,5.2,4,9.6"/><path class="cls-1" d="m246.9,266.1c0,1.4-.1,2.8-.1,3.6,0,.1,0,.2,0,.3,0,.3-.3.6-.6.9-1.1.9-3,2.1-7.9,2-.2,0-.4,0-.6,0-2.4.9-5.2,3-9.2,4.3-.7.2-1.5.4-2.2.6-2.2.4-4.8.6-7.8,0-.1,0-.3,0-.4-.1-1.9-.8-2.7-2-2.9-2.5,0-.1,0-.2,0-.3,0,0,0-.2,0-.3,0-1.3.1-6.7,4.3-7.7"/><polyline class="cls-1" points="228.8 262.9 219.3 266.9 219.3 266.9"/><path class="cls-1" d="m215,274.9c-.5.3-.8.8-.8,1.4v.8c0,.3.1.7.3.9.6.8,2.1,2.3,5.3,2.2,2.2,0,4.6-.3,6.7-.7,2.1-.4,3.9-.9,5.1-1.3,2.3-.9,5.3-2.8,5.9-2.9.7-.1,7.8-.1,9.2-2.4,1.4-2.3,0-2.8,0-2.8"/><path class="cls-3" d="m237,58.7s1,2.1.8,8.9c0,1.2,0,2.5.2,3.7.6,4,2.4,7.7,5.5,10.4,1.9,1.6,3.5,3,5,4.1,5.2,3.6,9.4,3.6,19.7-2.6,1.1-.7,3.8-2.6,5.9-6,.6-.9,1.1-1.9,1.5-3"/><path class="cls-3" d="m262.2,52.2h0c-.8,0-1.1,0-1.9-.1-.7,0-1.5-.1-2.1-.4-.6-.3-.4-1.2-.3-1.3.6-.2,1.3-.4,2-.5,0,0,.1,0,.1,0"/><path class="cls-3" d="m268.5,90.4c0-1-.2-1.9-.2-2.8,0-1.2-.2-2.5-.2-4.5"/><path class="cls-3" d="m248,92.8c0,0-.1,0-.2,0-2.7-1.3-5.9-1.6-8.3-1.3"/><path class="cls-3" d="m266.6,94.3c-.2.3,2.4-1.7,4.9-2.6.8-.3,1.6-.4,2.2-.3"/><path class="cls-3" d="m233.9,162.3h0c-.2,1.1-.4,3.9-.6,7.7-.1,2.2-.3,4.7-.4,7.4-.2,3.5-.4,7.3-.5,11.3-.1,2.9-.2,5.9-.4,8.8-.1,3.1-.2,6.2-.3,9.2,0,2.7-.2,5.3-.3,7.7-.1,3.8-.2,7.2-.3,9.8,0,2.7,0,4.6,0,5.4,0,.8,0,2.5-.1,4.8-.1,2.4-.3,5.3-.5,8.4-.2,2.4-.4,4.9-.5,7.4-.2,2.6-.4,5-.6,7.1-.2,2.5-.4,4.6-.6,5.7,0,.2,0,.4,0,.6"/><path class="cls-3" d="m257.7,189.3c0,.2-.2,1-.3,2.2-.3,2.1-.9,5.6-1.5,9.9-.4,2.6-.8,5.5-1.2,8.6-.3,2.4-.7,4.9-1,7.4-.4,3.1-.8,6.2-1.1,9.4-.1,1.2-.3,2.3-.4,3.5-.2,2-.4,3.9-.6,5.5-.4,3.7-.6,6.6-.8,9-.2,2.5-.3,4.5-.3,6.6,0,2.6-.1,5-.2,8.3,0,1.7-.1,3.7-.2,6"/><path class="cls-3" d="m261.4,211.8c.6,3.3,1.1,6.5,1.6,9.4.6,3.7,1.2,7,1.5,9.4,0,.2,0,.5.1.8.3,2.4.7,7.1,1,12.2.3,4,.5,8.3.5,12.2,0,3.4,0,6.5-.1,8.7"/><path class="cls-3" d="m259.9,203.1c.5,2.9,1,5.8,1.5,8.7"/><path class="cls-3" d="m256.5,180.2c.1,1.9.6,5.1,1.2,9h0c.2,1.2.4,2.4.6,3.7.5,3.1,1.1,6.6,1.7,10.1"/><path class="cls-3" d="m281.4,167.6c.2.9.4,4.6.7,9.8.2,3.8.5,8.2.7,12.9.2,3.1.3,6.4.5,9.5.2,3,.3,5.9.5,8.5.2,4.6.5,8.3.6,10.3,0,.7,0,1.1.1,1.4.2,2.2.4,5.1.6,8.5.2,3.7.3,8,.5,12.6.2,3.7.4,7.6.6,11.5.2,3,.4,6,.7,8.8"/><path class="cls-3" d="m245.2,59.3c0,1.6-.6,2.9-1.4,2.9s-1.4-1.3-1.4-2.9.6-2.9,1.4-2.9,1.4,1.3,1.4,2.9Z"/><path class="cls-3" d="m264.5,59.4c0,1.8-.8,3.3-1.7,3.3s-1.7-1.5-1.7-3.3.8-3.3,1.7-3.3,1.7,1.5,1.7,3.3Z"/><path class="cls-3" d="m247.6,68.6c0,2.3,7.3,3,9.1,2"/><path class="cls-3" d="m247.1,75.5c.1,0,.3,0,.4.1,4.9,1.6,15.5-.7,16.4-1.6-2,2.7-2.7,3.1-4.3,4-1.7,1-5.1,1.3-6.9,1.1-2.8-.4-4.1-1.5-5.3-3.5"/><path class="cls-3" d="m237,58.7c-.5-.3-1.5,0-2.3,1.1-.7.9-1.2,2.2-1.2,4.1,0,3.5,3.5,7.1,4.6,7.3,0,0,0,0,.1,0"/><path class="cls-3" d="m245.5,172.6h0c0,0-.1,0-.2,0-.9,0-1.8-.2-2.7-.3-4.4-.6-7.5-1.5-8.7-2.3"/><path class="cls-1" d="m265.4,171.9c-.7,0-1.4.2-2.1.2"/><path class="cls-3" d="m281.4,167.6s0,0,0,0c-2.2,1-4.2,1.7-6.2,2.3-3.2,1-6.3,1.6-9.8,2"/><path class="cls-3" d="m248.4,85.4c0,0,0,.2,0,.3,0,.5,0,.9,0,1.4,0,.9-.2,1.8-.4,2.8"/><path class="cls-3" d="m249.7,50.4s0,0,0,0"/><path class="cls-3" d="m249.7,50.4c.5.3.2.9-.4,1.1-.6.3-1.4.3-2.1.4l-4.8.3c-1.1,0-2.1,0-2.9-.3.7-1.4,6-2.8,10.1-1.5h0s0,0,0,0Z"/><path class="cls-3" d="m268.5,90.4c0,1.4-.8,2.7-1.9,3.9-1.1,1.1-2.4,2.1-3.8,2.9-2.8,1.7-7.6,2-10.6.8-2.1-.9-3.9-3-4.3-5.2-.2-1-.2-2,.2-2.9"/><path class="cls-3" d="m263.7,110.3c.7.9.8,2.2.5,3.3-.3,1.1-.9,2.1-1.7,3-2.5,3.2-5.8,5.8-9,8.4-3.3-3.1-5.8-7-7.2-11.3-.6-1.8-.9-3.9.3-5.3,1.2-1.4,3.5-1.3,5.1-.3,2,1.3,2.6,4,5.3,2.6,2-1,4.7-2.7,6.6-.3Z"/><path class="cls-3" d="m268.1,147.2c.4,1.8.7,6.4,1.1,8.2h0"/><path class="cls-3" d="m243.3,143.2c-.9,7.1-2.2,12-2.2,12"/><path class="cls-1" d="m278.2,89.4c.9.3,1.9.7,2.4,1.5.5.8,1.4,3-2.1,3.8"/><path class="cls-3" d="m268.2,87.7s0,0,0,0c1.1-.4,2.4-.3,3.6,0,1.2.3,2.3.8,3.5,1.1.9.2,1.9.3,2.9.5"/><path class="cls-3" d="m248.5,87.1h0c-3.8-.2-7.6,1.5-10.1,4.4"/><path class="cls-3" d="m245.8,35.4c.1.8.4,1.6.7,2.3,2.1,4.4,7.7,6.8,11.4,10.4.6.6,1.2,1.2,1.8,1.8.8.8,1.6,1.5,2.4,2.3,2.9,2.9,5.6,6,7.2,9.8,1.5,3.6,2.5,8.2,6.2,12.1,1.5,1.6,3.4,3.1,5.9,4.4-.9-8.7,2.3-16.7,2.4-23.7,0-7,.4-11.4-5.5-19.1"/><path class="cls-3" d="m246.5,37.7c-7.2,7.2-9.4,10.8-9.6,20.9"/><path class="cls-3" d="m273.9,76.9c0,0,0,.1.1.2,2.6,4.4,3.7,7.1,4.2,12.2"/><path class="cls-3" d="m234.6,59.8c-1.4-7.9-2.3-26.7,12.5-30.5,7.5-2,15.7-1.7,22.9,1,3.1,1.2,6.2,2.8,8.2,5.4"/><path class="cls-3" d="m280.9,158.3c0,.1,0,.2,0,.3.1,3,.3,6,.4,8.9,0,.7,0,1.3,0,2"/><path class="cls-3" d="m286.9,261.3c-.6.3-1.1.7-1.7.9-1,.5-1.9.9-2.9,1.3-2.1.8-4.2,1.3-6.3,1.5-1.4.1-2.9.2-4.4.1-1.8,0-3.6-.3-5.5-.6"/><path class="cls-3" d="m250,265.6c-.2.3-1.4.4-3.1.5-1.3,0-2.9,0-4.7,0-2.1,0-4.4-.2-6.4-.5-.7,0-1.3-.2-1.9-.3-2.5-.4-4.5-1-5.2-1.8"/><path class="cls-3" d="m275.2,170c0,2.6.2,5.3.2,8,.1,3.8.3,7.6.4,11.4.1,3.1.3,6.2.4,9.3.2,3.2.3,6.5.6,9.7.2,4,.5,8,.8,11.9.3,3.6.6,7.2.9,10.7.3,3.9.7,7.8,1.2,11.7.4,4.1.9,8.1,1.4,12.2.2,1.2.3,2.5.5,3.7.2,1.6.4,3.1.6,4.7"/><path class="cls-3" d="m265.4,172.1c.2,2.1.3,4.3.5,6.4.3,3.8.6,7.6.9,11.4.3,3.3.5,6.5.8,9.8.3,3.3.6,6.6.8,9.8.3,3.9.7,7.7,1,11.6.3,3.6.6,7.3.9,10.9.3,3.9.6,7.8,1,11.7.4,4.2.7,8.5,1,12.7.1,1.5.2,3,.4,4.5,0,0,0,.1,0,.2,0,.5.3,3.2.3,4"/><path class="cls-3" d="m251.7,178.5c0,0,0,.1,0,.2-.8,3.7-1.5,7.4-2.2,11.1-.6,2.9-1.1,5.8-1.6,8.7-.6,3.1-1.1,6.3-1.6,9.4-.5,2.9-.9,5.9-1.3,8.8-.5,3.5-.9,6.9-1.2,10.4-.3,3.2-.6,6.5-.9,9.8-.2,2.7-.4,5.5-.5,8.2-.1,2.4-.2,4.8-.2,7.2,0,2.6,0,5.1,0,7.7,0,1,0,2,0,3,0,1,0,2,0,2.9"/><path class="cls-3" d="m242.6,172.4c-.3,1.9-.5,3.9-.8,5.9-.4,3.5-.8,7-1.2,10.5-.3,2.9-.6,5.9-.9,8.9-.3,3.1-.6,6.3-.9,9.4-.3,2.9-.5,5.8-.8,8.7-.3,3.5-.6,6.9-.9,10.4-.3,3.3-.5,6.7-.8,10-.2,2.7-.4,5.4-.6,8.1-.2,2.5-.4,4.9-.6,7.3-.2,2-.3,3.9-.5,5.9,0,.5,0,1.1-.1,1.6-.2,2-.3,4.1-.5,6.1"/><path class="cls-3" d="m286.7,252.1c-.2.1-.3.2-.5.3-1.5,1.1-3.2,1.9-5.1,2.5-2.8.9-5.8,1.3-8.8,1.4-2.1,0-4.1-.1-5.9-.5"/><path class="cls-3" d="m286,240.8c-.1,0-.2.1-.3.1-1.8.8-3.8,1.4-5.9,1.8-2.7.5-5.6.8-8.4.9-1.8,0-3.5,0-5.1,0"/><path class="cls-3" d="m285.3,228.3c0,0-.2,0-.2.1-2.1,1.2-4.3,2-6.6,2.6-2.7.7-5.4,1-8.2,1-1.8,0-3.6-.3-5.3-.6"/><path class="cls-3" d="m284.5,218.4s0,0-.1,0c-2,.8-4.3,1.4-6.8,1.8-2.7.4-5.5.7-8.2.8-2.2,0-4.4.1-6.3,0"/><path class="cls-3" d="m283.9,208.1h-.1c-2.1,0-4.5,0-7,.2-2.8.2-5.7.5-8.4,1.1-2.5.5-4.9,1.3-6.9,2.3"/><path class="cls-3" d="m283.4,199.7c-2.2-.6-4.6-.9-7.1-1-2.9,0-5.9.3-8.7,1-2.9.7-5.5,1.9-7.7,3.4h0"/><path class="cls-3" d="m282.6,190.2c-2.1-.4-4.4-.7-6.7-.9-3-.2-6.1,0-9,.5-3,.6-5.9,1.5-8.4,3.1"/><path class="cls-3" d="m282.2,177.3s0,0-.1,0c-2.1.2-4.4.4-6.7.6-3,.2-6.2.4-9.5.5-3.1.1-6.3.2-9.4.2-1.6,0-3.2,0-4.8,0-3.4,0-6.7-.2-9.8-.4-3.2-.2-6.2-.5-8.9-.9h0"/><path class="cls-3" d="m257.5,191.6c0,0-.2,0-.2,0-2.1-.6-4.9-1.2-7.8-1.7-2.9-.4-6-.8-8.8-1-2.9-.2-5.7-.3-7.8-.2"/><path class="cls-3" d="m255.8,201.4c-2-1.4-4.8-2.3-8-2.8-2.6-.5-5.5-.7-8.2-.9-2.7-.1-5.3-.2-7.4-.2"/><path class="cls-3" d="m231.9,206.6c1.7.1,4.1.3,6.9.5,2.4.2,5,.5,7.5.8,3.3.5,6.4,1.1,8.3,2,0,0,.2,0,.3.1"/><path class="cls-3" d="m253.7,217.3h0c-2.4,0-5.4-.2-8.6-.6-2.3-.2-4.7-.6-7-1-2.5-.4-4.8-.9-6.6-1.5"/><path class="cls-3" d="m252.6,226.7s-.1,0-.2,0c-2.4.5-5.5.7-8.7.4-2.2-.1-4.5-.5-6.6-1-2.2-.5-4.2-1.2-5.8-2.1"/><path class="cls-3" d="m251.7,235.7s0,0-.1,0c-2.4.8-5.5,1.2-8.6,1.2-2.2,0-4.5-.3-6.6-.8-1.8-.4-3.5-1-4.9-1.8"/><path class="cls-3" d="m250.8,244.8s0,0-.1,0c-2.5.4-5.4.6-8.3.4-2.3-.1-4.6-.4-6.7-.9s-3.5-.9-5-1.5"/><path class="cls-3" d="m250.4,251.3c-2.5.8-5.4,1.1-8.2,1.1-2.4,0-4.9-.3-7.1-.8-1.8-.4-3.5-.9-5-1.5"/><path class="cls-3" d="m250.4,259.6s0,0-.1,0c-1,.2-2,.3-3,.4-.5,0-1.1,0-1.6.1-1.1,0-2.3,0-3.5,0-1.1,0-2.2-.1-3.3-.2-1.5-.2-3-.4-4.4-.8-.3,0-.6-.2-.9-.2-1.4-.4-2.8-.9-4.1-1.6"/><path class="cls-1" d="m239.5,91.5c-.3.1-.7.2-1,.4-13.5,5.6-12.5,29.3-13.5,32"/><path class="cls-1" d="m277.8,130.1c-.6-6.2-.3-9.4-.8-12.8"/><path class="cls-1" d="m271.6,92.1c2.7.2,5,1.2,6.9,2.7,10.1,7.7,10.4,28.9,10.4,28.9"/><path class="cls-1" d="m289,123.7c0,12.7-1.2,20.5-4.8,30-.6,1.6-1.8,3.3-3.3,4.9-4.3,4.8-11.5,9.5-17.6,13.5-1.1.7-2.3,1.5-3.3,2.1-.9.6-1.8,1.2-2.6,1.7-.2.1-.4.3-.6.4"/><path class="cls-1" d="m225.1,123.8c-.8,12.2,2,23.2,3.6,29,.8,3.1,2.7,6.3,5.2,9.5,2.9,3.6,6.8,7.2,11.3,10.3,0,0,.1,0,.2.1"/><path class="cls-1" d="m277.8,130.1c-.5,6.2-1,10.2-2.1,15.4-.3,1.6-.6,3.1-1.4,4.5-1,1.9-1.3,2-2.9,3.3-.8.6-1.5,1.3-2.3,2.1-3.6,3.7-6.9,9-10.4,12.3l-.4.4"/><path class="cls-1" d="m235.6,147.2c2,2.5,3.8,5.2,5.5,8,2.2,3.5,4.3,7,6.6,10.4"/><path class="cls-1" d="m258.9,167.8c1.4,1.7,1.9,4.2,1.1,6.3,0-.1,0-.2.1-.4"/><path class="cls-1" d="m235,119.3c0,6.8.6,10.7.4,14.7,0,1.4,1,9.2.3,13.3"/><path class="cls-1" d="m258.4,168.2c-2.7-.7-4.4-3.8-7.1-4-1.3,0-2.5.5-3.4,1.4-.2.2-.4.5-.6.7-.9,1.3-1.3,2.9-1.6,4.5,0,.6-.2,1.2-.2,1.8,0,0,0,0,0,.1,0,.8.1,1.6.4,2.4.9,2.2,3.5,3.5,5.9,3.4,2.2-.2,4.2-.9,5.6-2.5.1-.1.3-.3.4-.4"/></g></svg>