<?xml version="1.0" encoding="UTF-8"?><svg id="Layer_5" xmlns="http://www.w3.org/2000/svg" width="300" height="300" viewBox="0 0 300 300"><path d="m196.43,288.09v2.15s-1.24,2.91-5.79,2.8c-4.55-.11-9.75-1.2-12.07-2.07-2.33-.88-5.41-2.88-6.08-2.99-.69-.11-7.98-.13-9.46-2.48-1.47-2.37,0-2.88,0-2.88h.01c0,.2,0,.3-.01.35,1.08.85,2.74,2.82,9.05,2.53,4.26,1.33,9.62,6.92,20.25,5.1,2.87-1.1,3.32-2.99,3.32-2.99l.79.48Z" style="fill:#1e171e; stroke-width:0px;"/><path d="m176.66,275.77l18.98,11.85s-.45,1.89-3.32,2.99c-10.63,1.82-15.98-3.77-20.25-5.1-6.32.29-7.98-1.68-9.05-2.53.02-.04.02-.15.01-.35,0-.3-.04-.82-.07-1.68h0c1.6-.11,3.2-.25,4.8-.43,3.51-.41,7.59-1.46,8.9-4.75Z" style="fill:#1e171e; stroke-width:0px;"/><path d="m186.72,151.22c.04-.31.11-.62.18-.93.02,1.42.04,2.7.06,3.64-.35-.41-.38-1-.35-1.53.02-.4.06-.79.11-1.18Z" style="fill:#383838; stroke-width:0px;"/><path d="m204.12,133.65c-.11-.17-.33-.22-.53-.25-3.75-.66-7.77.4-10.7,2.83-1.64-.61-3.31-.13-4.68.95-1,.77-1.35,1.42-1.38,2.39-.19.02-.4.09-.59.17-1.13.5-2.31,1.92-2.74,3.31-.53,1.69-.25,5.04.36,6.16.58,1.07,1.66,1.93,2.86,2,.04-.31.22,1.77.24,2.71.41.5,1.13.58,1.78.63.67.04,1.41.07,1.94-.33.38-.3.58-.77.7-1.23.11-.46.05-1.26-.15-2.09h.01c.85-.26,1.6-.88,2-1.66.62.37,1.25.74,1.94.93.75.2,1.6.18,2.26-.25.62-.4,1-1.13,1.14-1.86,0-.04.01-.08.02-.12h.04c.52-.05,1.04.07,1.57.12.53.04,1.1-.03,1.47-.41.21-.22.33-.51.45-.79.36-.91.72-1.81,1.08-2.72.22-.54.43-1.16.19-1.69-.18-.38-.57-.63-.98-.71-.41-.09-.84-.02-1.24.11-.27.08-.53.19-.77.32l-.02-.04c-1.08.1-2.41.09-2.98-.84-.38-.63-.24-1.47.17-2.09.41-.61,1.03-1.05,1.63-1.47,1.47-1.03,2.95-2.05,4.42-3.08.33-.23.71-.64.48-.97Z" style="fill:#cb9183; stroke-width:0px;"/><path d="m186.72,151.22c-.06.39-.09.78-.11,1.18-.02.54,0,1.13.35,1.53-1.81,1.06-8.94.86-12.02-.22-.02,0-.06-.02-.08-.02-.44-.16-.79-.34-1.03-.54-1.61-1.36-1.05-4.86-.87-6.21.32-2.46,1.29-4.93,3.48-7.18.94-.97,2.27-1.53,3.71-1.75,1.91-.29,4.01.02,5.65.75.22.33.33.64.41.99-1.13.5-2.31,1.92-2.74,3.31-.53,1.69-.25,5.04.37,6.16.58,1.07,1.66,1.93,2.87,2Z" style="fill:#524d52; stroke-width:0px;"/><path d="m180.15,137.7l.02.3c-1.44.22-2.77.77-3.71,1.75-2.19,2.25-3.16,4.72-3.48,7.18-.18,1.36-.74,4.85.87,6.21.24.2.59.38,1.03.54-2.1-.66-2.84-.85-3.71-2.78l-.44.03c-.36-7.22,2.58-15.07,1.07-26.79.64-3.83.46-7.8-.55-11.55-.12-.46-.26-.92-.41-1.37,1.23.51,2.13,1.03,2.49,1.52,2.65,3.69,4.82,17,6.84,24.96Z" style="fill:#524d52; stroke-width:0px;"/><path d="m122.96,255.44l-.8-.06c-2.18-8.06,7.33-69.14,10.56-92.34.68-4.91,1.08-8.12,1.03-8.78-.29-3.76-2.44-12.95-4.38-15.73.46-3.09.89-6.05,1.2-8.53.14,2.13.47,4.29,1.12,6.6,1.81,6.41,6.32,10.08,8.39,12.34-1.36-3.73,1.53-13.12,2.99-16.8,1.47-3.68,2.82-10.45,2.39-14.39-.07-.66-.31-1.47-.67-2.38,4.1,1.99,7.96.34,10.04-1.5.56-.5.84-1.02.98-1.56,4,5.23,5.17,12.52,5.26,19.11.09,6.58.35,13.68,4.37,18.89,2.31-4.06,2.3-5.24,3.38-8.62,1.08-3.38-.61-7.48.87-10.7,1-2.18,1.7-4.5,2.09-6.86,1.51,11.71-1.43,19.57-1.07,26.79.06,1.13.19,2.23.44,3.34,9.73,43.64,10.08,102.23,8.24,103.44-.51.15-1.03.2-1.55.18-7.59-.4-16.84-18.24-18.87-18.24-2.7,0-4.87,17.82-36.02,15.79Z" style="fill:#b994c8; stroke-width:0px;"/><path d="m138.17,279.02c-.08-.01-.17-.03-.25-.05-2.76-.61-5.49-1.36-8.19-2.23-1.53-.5-3.11-1.09-4.46-1.95-1.1-.69-2.04-1.57-2.67-2.7-1.15-2.05-.25-11.8.36-16.65,31.15,2.03,33.32-15.79,36.02-15.79,2.03,0,11.28,17.84,18.87,18.24.46,6.36-.58,16.4-1.18,17.88-1.32,3.29-5.39,4.34-8.9,4.75-1.6.19-3.19.33-4.8.42-8.3.51-16.67-.14-24.8-1.92Z" style="fill:#524d52; stroke-width:0px;"/><path d="m130.37,94.97l.51.24c2.78,2.19,4.55,4.47,5.72,6.7,1.91,2.56,6.45,9.12,8.19,13.48.37.91.61,1.71.67,2.38.43,3.94-.93,10.71-2.39,14.39-1.46,3.68-4.35,13.08-2.99,16.8-2.07-2.26-6.58-5.93-8.39-12.34-.65-2.3-.98-4.46-1.12-6.6h0c-.17-2.5-.08-4.95.05-7.53.23-4.47-2.09-9.09-6.24-10.75-.14.02-.27.04-.41.09,0,0,0,0,0,0-6.83,1.29-2.11-9.18-4.96-12.92-11.86-15.57-5.15-41.23,11.26-46.73,8.22-2.75,20.25-.9,27.28,4.16,6.76,4.88,11.16,22.97,10.43,31.01-.45,4.99-1.11,10.09-.06,14.99.66,3.04,1.96,5.91,2.91,8.88.15.45.28.91.41,1.37,1.01,3.75,1.19,7.72.55,11.55-.39,2.36-1.09,4.68-2.09,6.86-1.49,3.22.2,7.31-.87,10.7-1.08,3.38-1.06,4.56-3.38,8.62-4.02-5.22-4.28-12.31-4.37-18.89-.09-6.58-1.26-13.88-5.26-19.11.3-1.23-.2-2.56-.11-3.89.2-2.68-.03-4.78.79-7.33,6.43-6.86,7.98-8.34,7.81-14.46-.24-9.15-4.2-8.27-3.46-15.12,0-6.71-9.97-18.58-19.7-16.38,1.11,7.18.5,14.07-1.27,20.1-.34-.25-.67-.34-.94-.24-.69.27-.76,1.79-.12,3.42-1.52,4-1.18,4.51-3.34,8.21-1.84,3.16-2.35,5.36-5.09,8.34Z" style="fill:#49424f; stroke-width:0px;"/><path d="m164.3,86.63c.17,6.13-1.38,7.6-7.81,14.46-.82,2.55-.59,4.65-.79,7.33-.09,1.33.41,2.66.11,3.89-.14.54-.42,1.06-.98,1.56-2.08,1.84-5.94,3.5-10.04,1.5-1.74-4.36-6.28-10.92-8.19-13.48-1.16-2.22-2.93-4.5-5.72-6.7l-.51-.24c2.74-2.97,3.25-5.18,5.09-8.34,2.15-3.7,1.81-4.21,3.34-8.21.64,1.61,1.73,2.69,2.43,2.42.7-.28.76-1.81.12-3.43-.39-.99-.95-1.77-1.49-2.17,1.77-6.03,2.39-12.93,1.27-20.1,9.73-2.2,19.7,9.67,19.7,16.38-.74,6.85,3.22,5.97,3.46,15.12Zm-6.52-11.02c.59-.24.62-1.6.06-3.07-.58-1.47-1.52-2.46-2.12-2.23-.59.24-.62,1.6-.04,3.07.57,1.47,1.52,2.46,2.1,2.23Zm-5.8,16.13c5.54-.98,5.74-4.83,5.53-5.09-.2-.25-8.45,3.32-12.04,2.2,1.64,1.87,4.05,3.32,6.51,2.89Zm.72-23.55c1.52-1.16,3.17-1.45,4.85-1.81-.72-1.42-4.14-3.53-7.26,1.13-.38.57-.06,1.53.48,1.59s1.45-.54,1.93-.9Z" style="fill:#cb9183; stroke-width:0px;"/><path d="m157.84,72.54c.57,1.47.54,2.83-.06,3.07-.59.23-1.53-.76-2.1-2.23-.58-1.47-.55-2.83.04-3.07.59-.23,1.54.76,2.12,2.23Z" style="stroke-width:0px;"/><path d="m157.5,86.64c.21.26.01,4.11-5.53,5.09-2.46.43-4.87-1.01-6.51-2.89,3.58,1.12,11.83-2.46,12.04-2.2Z" style="fill:#fff; stroke-width:0px;"/><path d="m157.55,66.37c-1.68.37-3.33.66-4.85,1.81-.48.37-1.4.97-1.93.9s-.86-1.02-.48-1.59c3.12-4.65,6.53-2.55,7.26-1.13Z" style="stroke-width:0px;"/><path d="m141.35,77.41c.64,1.62.58,3.15-.12,3.43-.7.27-1.79-.81-2.43-2.42.39-1.03.75-2.09,1.06-3.18.54.4,1.1,1.18,1.49,2.17Z" style="stroke-width:0px;"/><path d="m138.93,75c.27-.11.6-.01.94.24-.32,1.09-.67,2.15-1.06,3.18-.64-1.62-.57-3.14.12-3.42Z" style="stroke-width:0px;"/><path d="m138.17,279.02c.41.9.02,2.17.02,2.17l-1.37,3.13s-.91,3.7-2.64,7.89c-1.75,4.18-7.14,6.68-12.8,6.03-5.67-.66-7.28-5.59-7.28-5.59l.76-4.02c.1,1.55,2.26,5.52,6.48,6.61,9.62,2.44,13.15-7.74,16.34-15.32.14-.71.14-.35.24-.94.08.02.17.04.25.05Z" style="fill:#1e171e; stroke-width:0px;"/><path d="m137.92,278.97c-.09.59-.09.24-.24.94-3.19,7.57-6.72,17.76-16.34,15.32-4.23-1.09-6.39-5.06-6.48-6.61l.17-.89c.66-1.89,3.23-5.96,7.46-9.63,1.3-1.23,2.5-2.42,2.78-3.3,1.35.86,2.93,1.45,4.46,1.95,2.69.87,5.43,1.62,8.19,2.23Z" style="fill:#1e171e; stroke-width:0px;"/><path d="m124.38,111.73c4.15,1.66,6.47,6.28,6.24,10.75-.13,2.58-.22,5.03-.05,7.52h0c-.31,2.49-.74,5.45-1.2,8.54-1.26,8.37-2.76,17.65-2.8,20.54,0,0-.01-.01-.02-.01-.35-.85-.7-1.71-1.21-2.48-.51-.79-1.21-1.48-2.07-1.84-1.17-.5-2.56-.33-3.61-1.04-1.78-1.19-4.16-1.21-6.16-.45-.09-.09-.17-.18-.25-.27l4.37-30.67c.87-3.04,3.21-9.61,6.35-10.49,0,0,0,0,0,0,.13-.02.27-.05.41-.09Z" style="fill:#524d52; stroke-width:0px;"/><path d="m126.56,159.08v.03s-.01-.03-.02-.04c0,0,.01,0,.02.01Z" style="fill:#8c6649; stroke-width:0px;"/><path d="m115.03,287.72l-.17.89c0-.08,0-.15,0-.22.01-.17.07-.4.17-.67Z" style="fill:#f0efed; stroke-width:0px;"/><path d="m136.61,101.9c-1.16-2.22-2.93-4.5-5.72-6.7" style="fill:none; stroke:#000; stroke-miterlimit:10;"/><path d="m155.81,112.32c-.14.54-.42,1.06-.98,1.56-2.08,1.84-5.94,3.5-10.04,1.5" style="fill:none; stroke:#000; stroke-linecap:round; stroke-linejoin:round;"/><path d="m160.84,71.51c-.74,6.85,3.22,5.97,3.46,15.12.17,6.13-1.38,7.6-7.81,14.46-.82,2.55-.59,4.65-.79,7.33-.09,1.33.41,2.66.11,3.89" style="fill:none; stroke:#000; stroke-miterlimit:10;"/><path d="m155.68,73.38c.57,1.47,1.52,2.46,2.1,2.23.59-.24.62-1.6.06-3.07-.58-1.47-1.52-2.46-2.12-2.23-.59.24-.62,1.6-.04,3.07Z" style="fill:none; stroke:#000; stroke-linecap:round; stroke-linejoin:round;"/><path d="m138.8,78.42c.64,1.61,1.73,2.69,2.43,2.42.7-.28.76-1.81.12-3.43-.39-.99-.95-1.77-1.49-2.17-.34-.25-.67-.34-.94-.24-.69.27-.76,1.79-.12,3.42Z" style="fill:none; stroke:#000; stroke-linecap:round; stroke-linejoin:round;"/><path d="m145.47,88.85c1.64,1.87,4.05,3.32,6.51,2.89,5.54-.98,5.74-4.83,5.53-5.09-.2-.25-8.45,3.32-12.04,2.2Z" style="fill:none; stroke:#000; stroke-miterlimit:10;"/><path d="m148.45,85.23c.63-1.34,2.59-2.72,4.02-3.12,1.42-.41,3.41-.77,4.02,1.01" style="fill:none; stroke:#000; stroke-linecap:round; stroke-linejoin:round;"/><path d="m130.57,130c.02-.12.04-.25.05-.37" style="fill:none; stroke:#000; stroke-linecap:round; stroke-linejoin:round;"/><path d="m126.56,159.08c.04-2.9,1.55-12.18,2.8-20.54.46-3.09.89-6.05,1.2-8.53" style="fill:none; stroke:#000; stroke-miterlimit:10;"/><path d="m123.96,111.82c-3.14.88-5.48,7.46-6.35,10.49l-4.37,30.67c.09.09.17.19.25.27" style="fill:none; stroke:#000; stroke-miterlimit:10;"/><path d="m124.38,111.73c-.14.02-.27.04-.41.09" style="fill:none; stroke:#000; stroke-miterlimit:10;"/><path d="m170.83,111.22c1.23.51,2.13,1.03,2.49,1.52,2.65,3.69,4.82,17,6.84,24.96" style="fill:none; stroke:#000; stroke-linecap:round; stroke-linejoin:round;"/><path d="m170.38,111.04c.15.06.3.12.45.19" style="fill:none; stroke:#000; stroke-miterlimit:10;"/><path d="m174.95,153.7c3.08,1.08,10.21,1.28,12.02.22" style="fill:none; stroke:#000; stroke-miterlimit:10;"/><path d="m186.23,139.74c-.08-.35-.2-.66-.41-.99-1.64-.73-3.74-1.04-5.65-.75-1.44.22-2.77.77-3.71,1.75-2.19,2.25-3.16,4.72-3.48,7.18-.18,1.36-.74,4.85.87,6.21.24.2.59.38,1.03.54" style="fill:none; stroke:#000; stroke-miterlimit:10;"/><path d="m174.95,153.7s-.06-.02-.08-.02c-2.1-.66-2.84-.85-3.71-2.78" style="fill:none; stroke:#000; stroke-miterlimit:10;"/><path d="m179.4,257.71c-.51.15-1.03.2-1.55.18-7.59-.4-16.84-18.24-18.87-18.24-2.7,0-4.87,17.82-36.02,15.79l-.8-.06c-2.18-8.06,7.33-69.14,10.56-92.34.68-4.91,1.08-8.12,1.03-8.78-.29-3.76-2.44-12.95-4.38-15.73" style="fill:none; stroke:#000; stroke-linecap:round; stroke-miterlimit:10;"/><path d="m171.78,124.14c1.51,11.71-1.43,19.57-1.07,26.79.06,1.13.19,2.23.44,3.34,9.73,43.64,10.08,102.23,8.24,103.44" style="fill:none; stroke:#000; stroke-linecap:round; stroke-miterlimit:10;"/><path d="m157.55,66.37c-.72-1.42-4.14-3.53-7.26,1.13-.38.57-.06,1.53.48,1.59s1.45-.54,1.93-.9c1.52-1.16,3.17-1.45,4.85-1.81Z" style="fill:none; stroke:#000; stroke-miterlimit:10;"/><path d="m186.9,140.81c-.06-.47-.08-.88-.07-1.24.03-.97.38-1.62,1.38-2.39,1.37-1.08,3.04-1.56,4.68-.95,2.93-2.43,6.95-3.48,10.7-2.83.2.03.41.08.53.25.23.33-.14.74-.48.97-1.47,1.03-2.95,2.05-4.42,3.08-.61.42-1.23.86-1.63,1.47-.41.62-.56,1.46-.17,2.09.57.93,1.9.94,2.98.84" style="fill:none; stroke:#000; stroke-miterlimit:10;"/><path d="m193.47,144.98c.14.55.88.72,1.4.51s.89-.68,1.32-1.05c.42-.37,1-.67,1.53-.48.23.09.4.24.53.44.25.39.33.93.37,1.42.06.71.11,1.43-.01,2.13,0,.04-.01.08-.02.12-.15.74-.52,1.46-1.14,1.86-.66.43-1.51.45-2.26.25-.69-.19-1.32-.56-1.94-.93-.06-.03-.11-.06-.16-.09" style="fill:none; stroke:#000; stroke-miterlimit:10;"/><path d="m186.83,139.57c-.19.02-.4.09-.59.17-1.13.5-2.31,1.92-2.74,3.31-.53,1.69-.25,5.04.37,6.16.58,1.07,1.66,1.93,2.87,2,.06,0,.12,0,.17,0" style="fill:none; stroke:#000; stroke-miterlimit:10;"/><path d="m198.32,144.35c.43-.94,1.18-1.71,2.1-2.19.25-.13.51-.24.77-.32.4-.12.83-.19,1.24-.11.41.08.8.33.98.71.24.53.02,1.14-.19,1.69-.36.91-.72,1.81-1.08,2.72-.12.28-.24.57-.45.79-.37.38-.95.45-1.47.41-.53-.04-1.05-.17-1.57-.11" style="fill:none; stroke:#000; stroke-miterlimit:10;"/><path d="m191.23,150.9c-.49-1.97-1.78-4.16-3.4-2.65-.45.42-.67,1.01-.82,1.6-.04.14-.07.29-.11.43-.07.31-.14.62-.18.93-.06.39-.09.78-.11,1.18-.02.54,0,1.13.35,1.53.41.5,1.13.58,1.78.63.67.04,1.41.07,1.94-.33.38-.3.58-.77.7-1.23.11-.46.05-1.26-.15-2.09Z" style="fill:none; stroke:#000; stroke-miterlimit:10;"/><path d="m191.24,150.89c.85-.25,1.6-.87,2-1.66.02-.04.05-.09.07-.13" style="fill:none; stroke:#000; stroke-miterlimit:10;"/><path d="m137.92,278.97c-.09.59-.09.24-.24.94-3.19,7.57-6.72,17.76-16.34,15.32-4.23-1.09-6.39-5.06-6.48-6.61,0-.08,0-.15,0-.22.01-.17.07-.4.17-.67.66-1.89,3.23-5.96,7.46-9.63,1.3-1.23,2.5-2.42,2.78-3.3" style="fill:none; stroke:#000; stroke-linecap:round; stroke-linejoin:round;"/><path d="m115.03,287.72l-.17.89-.76,4.02s1.62,4.94,7.28,5.59c5.66.66,11.05-1.84,12.8-6.03,1.73-4.19,2.64-7.89,2.64-7.89l1.37-3.13s.38-1.26-.02-2.17c-.06-.14-.14-.27-.25-.38" style="fill:none; stroke:#000; stroke-linecap:round; stroke-linejoin:round;"/><path d="m162.96,280.95c.04.86.07,1.38.07,1.68,0,.2,0,.3-.01.35,1.08.85,2.74,2.82,9.05,2.53,4.26,1.33,9.62,6.92,20.25,5.1,2.87-1.1,3.32-2.99,3.32-2.99" style="fill:none; stroke:#000; stroke-linecap:round; stroke-linejoin:round;"/><line x1="176.66" y1="275.77" x2="195.64" y2="287.62" style="fill:none; stroke:#000; stroke-linecap:round; stroke-linejoin:round;"/><path d="m195.64,287.62l.79.48v2.15s-1.24,2.91-5.79,2.8c-4.55-.11-9.75-1.2-12.07-2.07-2.33-.88-5.41-2.88-6.08-2.99-.69-.11-7.98-.13-9.46-2.48-1.47-2.37,0-2.88,0-2.88" style="fill:none; stroke:#000; stroke-linecap:round; stroke-linejoin:round;"/><path d="m125.93,98.9c1.97-1.49,3.38-2.77,4.45-3.93,2.74-2.97,3.25-5.18,5.09-8.34,2.15-3.7,1.81-4.21,3.34-8.21.39-1.03.75-2.09,1.06-3.18,1.77-6.03,2.39-12.93,1.27-20.1,9.73-2.2,19.7,9.67,19.7,16.38" style="fill:none; stroke:#000; stroke-miterlimit:10;"/><path d="m136.61,101.9c1.91,2.56,6.45,9.12,8.19,13.48.37.91.61,1.71.67,2.38.43,3.94-.93,10.71-2.39,14.39-1.46,3.68-4.35,13.08-2.99,16.8-2.07-2.26-6.58-5.93-8.39-12.34-.65-2.3-.98-4.46-1.12-6.6h0c-.17-2.5-.08-4.95.05-7.53.23-4.47-2.09-9.09-6.24-10.75-.14.04-.28.06-.41.09,0,0,0,0,0,0-6.83,1.29-2.11-9.18-4.96-12.92-11.86-15.57-5.15-41.23,11.26-46.73,8.22-2.75,20.25-.9,27.28,4.16,6.76,4.88,11.16,22.97,10.43,31.01-.45,4.99-1.11,10.09-.06,14.99.66,3.04,1.96,5.91,2.91,8.88.15.45.28.91.41,1.37,1.01,3.75,1.19,7.72.55,11.55-.39,2.36-1.09,4.68-2.09,6.86-1.49,3.22.2,7.31-.87,10.7-1.08,3.38-1.06,4.56-3.38,8.62" style="fill:none; stroke:#000; stroke-linecap:round; stroke-linejoin:round;"/><path d="m155.81,112.32c4,5.23,5.17,12.52,5.26,19.11.09,6.58.35,13.68,4.37,18.89" style="fill:none; stroke:#000; stroke-linecap:round; stroke-linejoin:round;"/><path d="m122.97,255.35s0,.06-.01.09c-.61,4.85-1.51,14.59-.36,16.65.64,1.14,1.58,2.01,2.67,2.7,1.35.86,2.93,1.45,4.46,1.95,2.69.87,5.43,1.62,8.19,2.23.08.02.17.04.25.05,8.12,1.78,16.5,2.43,24.8,1.92,1.6-.09,3.2-.24,4.8-.42,3.51-.41,7.59-1.46,8.9-4.75.6-1.48,1.65-11.52,1.18-17.88" style="fill:none; stroke:#000; stroke-linecap:round; stroke-miterlimit:10;"/><path d="m152.16,116.42c2.46,4.65,3.44,12.74,3.65,18.36.21,5.62.44,8.54.3,14.16-.23,9.42,1.49,18.77,2.77,28.11,2.47,18.11,1.74,43.9.84,62.16" style="fill:none; stroke:#fff; stroke-linecap:round; stroke-linejoin:round;"/><path d="m146.18,122.75c.92,4.59,1.74,13.53,1.34,16.82s-.97,16.87-.63,23.43c.57,11.24-.16,26.5.7,37.72,1.16,15.21.35,34.61-.9,49.8" style="fill:none; stroke:#fff; stroke-linecap:round; stroke-linejoin:round;"/><path d="m164.9,151.04c-.63,7.35,1.88,14.53,3,21.83,3.66,23.94,3.67,56.92,3.89,80.68" style="fill:none; stroke:#fff; stroke-linecap:round; stroke-linejoin:round;"/><path d="m136.99,146.97c3.45,16.36.26,39.57-.41,56.27-.66,16.39-.53,30.46-2.12,50.93" style="fill:none; stroke:#fff; stroke-linecap:round; stroke-linejoin:round;"/><rect x="189.98" y="29.83" width="22.88" height="22.9" transform="translate(23.86 144.95) rotate(-41.86)" style="fill:#3246ff; stroke-width:0px;"/><rect x="189.98" y="94.43" width="22.89" height="22.9" transform="translate(-26.05 99.79) rotate(-26.2)" style="fill:#4d0099; stroke-width:0px;"/><polygon points="168.93 5.58 165.04 28.14 142.47 24.23 146.39 1.67 168.93 5.58" style="fill:#4d0099; stroke-width:0px;"/><path d="m112.29,159.81l1.04-5.67,2.47-13.42,22.52,4.13-4.13,22.54-4.37-.8s.02-.05.04-.07c.51-.8.35-3.31-.69-4-.71-.48-1.94.99-2.61,1.9-.16.04-.37-.2-.55-.16-.16.04-.57.15-.75.18.24-.33.4-.58.49-.71.4-.64.91-2.07-.46-2.87-1.3-.75-3.58,1.33-3.82,1.55l-.15-.04c.26-.8.22-1.57-.33-2.14-1.35-1.44-6.85,3.47-6.85,3.47l-.9-.16-1.57-.29.62-3.44Z" style="fill:#3246ff; stroke-width:0px;"/><path d="m129.16,162.51c-.71-.48-1.94.99-2.61,1.9-.16.04-.37-.2-.55-.16-.16.04-.57.15-.75.18.24-.33.4-.58.49-.71.4-.64.91-2.07-.46-2.87-1.3-.75-3.58,1.33-3.82,1.55l-.15-.04c.26-.8.22-1.57-.33-2.14-1.35-1.44-6.85,3.47-6.85,3.47l-.9-.16c-.29.91-.69,2.47-.48,2.98.35.73,1.26.97,2.69,1.08.91.07,1.48-.31,2.18-.91v.02c-.11.24.75,1.35,2.28,1.94s2.28-.53,2.58-.64c.05-.02.24-.22.48-.53,0,0,1.11.99,3.13,1.15,1.94.18,3.18-1.22,3.73-2.03,0-.04.02-.05.04-.07.51-.8.35-3.31-.69-4Z" style="fill:#cb9183; stroke-width:0px;"/><path d="m113.33,154.14l-1.04,5.67-.26-.66s-4.75,2.47-6.34,1.54c-1.61-.91,4-6,5.43-6.29.64-.13,1.48-.2,2.21-.26Z" style="fill:#cb9183; stroke-width:0px;"/><polygon points="104.59 42.93 110.3 65.1 88.11 70.8 82.42 48.63 104.59 42.93" style="fill:#3246ff; stroke-width:0px;"/><path d="m112.29,159.81l-.26-.66s-4.75,2.47-6.34,1.54c-1.61-.91,4-6,5.43-6.29.64-.13,1.48-.2,2.21-.26" style="fill:none; stroke:#000; stroke-miterlimit:10;"/><path d="m112.76,166.52c-.22-.51.18-2.07.48-2.98" style="fill:none; stroke:#000; stroke-miterlimit:10;"/><polygon points="142.47 24.23 165.04 28.14 168.93 5.58 146.39 1.67 142.47 24.23" style="fill:none; stroke:#fff; stroke-miterlimit:10;"/><polyline points="129.65 166.55 129.82 166.59 134.19 167.4 138.32 144.86 115.8 140.73 113.33 154.14 112.29 159.81 111.67 163.25 113.24 163.54 114.14 163.7" style="fill:none; stroke:#fff; stroke-miterlimit:10;"/><path d="m126.09,165.09s.18-.29.46-.68c.68-.91,1.9-2.38,2.61-1.9,1.04.69,1.21,3.2.69,4-.02.02-.04.04-.04.07-.55.8-1.79,2.21-3.73,2.03-2.01-.16-3.13-1.15-3.13-1.15" style="fill:none; stroke:#000; stroke-miterlimit:10;"/><path d="m121.45,162.42l.02-.02c.24-.22,2.52-2.3,3.82-1.55,1.37.8.86,2.23.46,2.87-.09.13-.26.38-.49.71s-.53.73-.84,1.15c-.49.68-1.04,1.41-1.44,1.88-.24.31-.42.51-.48.53-.29.11-1.04,1.22-2.58.64-1.54-.58-2.39-1.7-2.28-1.94" style="fill:none; stroke:#000; stroke-miterlimit:10;"/><path d="m114.14,163.7s5.5-4.92,6.85-3.47c.55.57.58,1.33.33,2.14-.26.82-.84,1.68-1.48,2.38-.27.31-.57.57-.84.79-.55.44-.97.82-1.37,1.15-.69.6-1.26.99-2.18.91-1.43-.11-2.34-.35-2.69-1.08" style="fill:none; stroke:#000; stroke-miterlimit:10;"/><path d="m126.55,164.42c-.16.04-.37-.2-.55-.16-.16.04-.57.15-.75.18" style="fill:none; stroke:#000; stroke-miterlimit:10;"/><rect x="189.98" y="94.43" width="22.89" height="22.9" transform="translate(-26.04 99.63) rotate(-26.16)" style="fill:none; stroke:#fff; stroke-miterlimit:10;"/><polygon points="110.3 65.1 88.11 70.8 82.42 48.63 104.59 42.93 110.3 65.1" style="fill:none; stroke:#fff; stroke-miterlimit:10;"/><rect x="189.98" y="29.83" width="22.88" height="22.9" transform="translate(23.8 144.84) rotate(-41.83)" style="fill:none; stroke:#fff; stroke-miterlimit:10;"/></svg>