<?xml version="1.0" encoding="UTF-8"?><svg id="Layer_5" xmlns="http://www.w3.org/2000/svg" width="300" height="300" viewBox="0 0 300 300"><path d="m185.75,264.64c-1.86,2.38-6.33,5.28-9.41,5.99-1.93.43-4.07.56-5.41.58l.09-10.98h-.02c.37-1.43.69-2.87.97-4.26l-.02-.15c.87-.13,1.84-.3,2.92-.52.28-2.21,1.51-4.5,3.16-8.95.76-2.03,1.62-4.52,2.51-7.66,1.3-.93,5.28-3.65,9.67-5.4,1.93-.76,3.96-1.36,5.88-1.51,0,0,11.33-2.57,13.34,4.46.95,3.29,1.21,5.58-.93,11.93,0,0-4.63,11.31-6.64,18.18-2.96,10.16-.02,10.16-1.47,14.98-.35.04-.74.07-1.15.13-3.59.52-8.63,1.88-12.56,1.43-2.75-.3-4.95-1.49-5.69-4.5,0,0,4.19-12.19,4.76-13.75Z" style="fill:#38596c; stroke-width:0px;"/><path d="m204.98,290.14s.22,2.05,0,2.2c-.24.17-6.75,2.75-13.02,2.03-6.29-.74-11.87-4.54-11.87-4.54l.13-1.73c.02.11.06.22.07.33.6.47,1.64,1.08,3.01,1.66v.02c2.29.97,5.51,1.84,9.15,1.77,5.8-.11,11.74-1.73,11.74-1.73,0,0,.02-.17.02-.47h.17l.6.47Z" style="fill:#3f414f; stroke-width:0px;"/><path d="m199.24,281.46c4.97.54,5.08,6.51,4.99,8.22,0,.3-.02.47-.02.47,0,0-5.93,1.62-11.74,1.73-3.65.07-6.86-.8-9.15-1.77v-.02c-.3-1.56,1.23-6.21,3.37-7.11v-.09c3.93.45,8.97-.91,12.56-1.43Z" style="fill:#cbb0a1; stroke-width:0px;"/><path d="m199.4,136.36c.48,2.96.61,5.77-1.25,8.09-1.84,2.34-3.68,5.32-2.64,8.13.84,2.33,1.86,4.2,2.16,6.66.41,3.39-2.23,5.26-2.57,8.65-.11,1.06.19,2.08.56,3.11-.41-.67-.93-1.19-1.54-1.53-1.9-1.02-4.15-.91-6.14-.45l-.02-.09h-5.99l-.15-.04c.24-1.4-.06-2.83-1.32-3.93-.54-.45-1.19-.74-1.9-.89-.22-.06-.45-.07-.67-.09l-.17-.17c1.41-1.32,2.87-2.98,4.37-4.99,2.6-4.2,3.93-7.03,4.13-17.08.19-10.9-6.36-18.18-9.12-19.81-2.25-1.36-17.69,7.55-21.8,8.76-8.06,2.36-9,9.19-6.7,20.39,1.47,5.58,4.33,9.45,6.03,11.22,1.79,1.86,3.94,3.83,6.47,5.15.3.67.5,1.27.69,1.8v.02c-1.25,1.71-1.28,4.07-2.03,6.03-.02.07-.06.13-.07.2l-.2-.07s-5.75,3.03-5.99,3.37c-.19.28-2.62.8-4.22,4.15l-.24-.13c-3.46-2.18-9.25-11.52-7.11-15.03,1.15-1.88,2.34-3.66,2.44-5.88.13-3.01-1.45-7.96-3.24-10.38-3.22-4.33-2.85-9.82.76-14.94,4.46-6.34,1.8-9.75,5.15-17.28,1.49-3.39,5.62-7.81,15.2-8.28,7.13-.35,9.15,1.86,15.93,4.13,0,0,4.46-1.45,10.14,2.6,2.62,1.88,3.27,7.03,5.19,9.64,2.47,3.33,5.21,4.84,5.86,8.95Z" style="fill:#4b392d; stroke-width:0px;"/><path d="m186.68,282.89v.09c-2.14.89-3.66,5.54-3.37,7.11-1.38-.58-2.42-1.19-3.01-1.66-.02-.11-.06-.22-.07-.33-.52-2.92.76-9.71.76-9.71.74,3.01,2.94,4.2,5.69,4.5Z" style="fill:#cbb0a1; stroke-width:0px;"/><path d="m161.15,167.47c-2.53-1.32-4.69-3.29-6.47-5.15-1.69-1.77-4.56-5.64-6.03-11.22-2.31-11.2-1.36-18.03,6.7-20.39,4.11-1.21,19.55-10.12,21.8-8.76,2.75,1.64,9.3,8.91,9.12,19.81-.2,10.05-1.53,12.87-4.13,17.08-1.51,2.01-2.96,3.66-4.37,4.99-6.55,6.25-12.15,5.99-16.61,3.65Zm13.45-23.27c.95-.06,1.67-1.53,1.58-3.31-.09-1.77-.95-3.16-1.9-3.11-.95.04-1.66,1.51-1.58,3.27.09,1.79.95,3.18,1.9,3.14Zm-3.57,14.79c1.62-1.15,1.58-.48,3.46-3.5-.95,1.02-10.38,3.63-15.26,1.84,1.34,2.12,2.72,3.24,5.58,3.48,1.75.15,4.54-.65,6.21-1.82Zm-16.13-14.25c.78-.04,1.34-1.3,1.27-2.87-.07-1.53-.76-2.75-1.54-2.72s-1.36,1.32-1.28,2.87.78,2.75,1.56,2.72Z" style="fill:#dbbcab; stroke-width:0px;"/><path d="m178.36,165.83l.24-1.75c.71.15,1.36.45,1.9.89,1.27,1.1,1.56,2.53,1.32,3.93-.11.69-.35,1.38-.69,1.99-2.05,3.81-4.37,7.26-7.31,10.18-1.77,1.77-3.76,3.33-6.05,4.65-.09-3.11-1.53-6.16-3.83-8.26-.2-.19-.41-.37-.63-.54l.17-.19c9.23-2.47,14.06-9.58,14.88-10.9Z" style="fill:#8cb3c4; stroke-width:0px;"/><path d="m178.6,164.08l-.24,1.75c-.82,1.32-5.66,8.43-14.88,10.9-.69-1.23-1.04-4.58-1.17-5.45-.11-.69-.26-1.32-.47-1.99v-.02c-.19-.54-.39-1.13-.69-1.8,4.46,2.34,10.06,2.6,16.61-3.65l.17.17c.22.02.45.04.67.09Z" style="fill:#dbbcab; stroke-width:0px;"/><path d="m178.03,246.35c-1.66,4.45-2.88,6.73-3.16,8.95-1.08.22-2.05.39-2.92.52-3.91.6-6.06.24-9.49-2.46-.41-.32-.84-.69-1.3-1.08-.41-1.43-.39-3.81-.07-6.85v-.02c.07-.78.19-1.6.32-2.46,3.74,2.87,11.76,3.94,16.28,3.26l.35.13Z" style="fill:#8cb3c4; stroke-width:0px;"/><path d="m176.19,140.88c.09,1.79-.63,3.26-1.58,3.31-.95.04-1.8-1.36-1.9-3.14-.07-1.77.63-3.24,1.58-3.27.95-.06,1.8,1.34,1.9,3.11Z" style="stroke-width:0px;"/><path d="m174.49,155.49c-1.88,3.01-1.84,2.34-3.46,3.5-1.67,1.17-4.46,1.97-6.21,1.82-2.87-.24-4.24-1.36-5.58-3.48,4.87,1.79,14.31-.82,15.26-1.84Z" style="fill:#fff; stroke-width:0px;"/><path d="m156.89,279.87c-.02-1.56-.89-3.48-1.99-3.76-1.28-.35-2.18,1.47-4.84,1.27-1.66-.11-1.97-1.53-1.97-2.57,0-.65.11-1.15.11-1.15,0,0,3.63-.69,4.52-1.4.89-.69,1.28-1.66,2.1-3.01s3.11-1.9,3.11-1.9c.69-.26,1.9-1.19,2.1-1.9.99-3.44,1.73-6.98,2.18-10.53.09-.5.15-1.02.2-1.53l.04-.04c3.42,2.7,5.58,3.05,9.49,2.46l.02.15c-.28,1.4-.6,2.83-.97,4.26-.89,3.63-2.05,7.29-3.46,10.62.6,1.53.78,3.14.78,4.56-.02,2.33-.54,4.17-.67,4.52-.2.54-.99.67-1.23.74-.22.09-.22.97-.48,1.06-.26.07-1.23.54-1.54.67-.32.11-.86,1.1-1.38,1.25s-1.66-.47-2.07-.35c-.39.11-.63,1.3-1.51,1.51-.19.04-.63-.04-1.23-.17-2.29-.56-6.77-2.18-6.77-2.18l-.17-.45,5.6-2.14h.02Z" style="fill:#dbbcab; stroke-width:0px;"/><path d="m170.92,271.2l-.04,3.33-2.57.87c0-1.41-.19-3.03-.78-4.56,1.41-3.33,2.57-7,3.46-10.62h.02l-.09,10.98Z" style="fill:#3246ff; stroke-width:0px;"/><path d="m169.58,211.1l-6.12,21.92h-.22c1.49-6.88,3.52-14.7,5.6-22.08l.74.17Z" style="fill:#3246ff; stroke-width:0px;"/><path d="m161.49,209.31l7.35,1.62c-2.08,7.39-4.11,15.2-5.6,22.08h-2.08l.33-23.7Z" style="fill:#3246ff; stroke-width:0px;"/><path d="m163.48,176.73l-.17.19-.04-.04c-2.33,1.64-4.17,3.98-5.21,6.64.43-1.1.24-2.79.48-4,.28-1.36.73-2.7,1.19-4,.02-.07.06-.13.07-.2.74-1.95.78-4.32,2.03-6.03.2.67.35,1.3.47,1.99.13.87.48,4.22,1.17,5.45Z" style="fill:#8cb3c4; stroke-width:0px;"/><path d="m161.15,233.01h2.08c-.8,3.65-1.43,7.01-1.84,9.95-.11-.07-.2-.15-.3-.24l.06-9.71Z" style="fill:#3246ff; stroke-width:0px;"/><path d="m161.15,233.01l-.06,9.71-.02,2.7v.02c-.32,3.03-.33,5.41.07,6.85.47.39.89.76,1.3,1.08l-.04.04c-.06.5-.11,1.02-.2,1.53l-15.57,2.4.26-24.52,14.25.2Z" style="fill:#3246ff; stroke-width:0px;"/><path d="m146.64,257.33l15.57-2.4c-.45,3.55-1.19,7.09-2.18,10.53-.2.71-1.41,1.64-2.1,1.9,0,0-2.29.54-3.11,1.9s-1.21,2.33-2.1,3.01c-.89.71-4.52,1.4-4.52,1.4,0,0-.11.5-.11,1.15l-1.62-.02.17-17.47Z" style="fill:#3246ff; stroke-width:0px;"/><polygon points="149.08 206.56 157.53 208.43 161.49 209.31 161.15 233.01 146.9 232.81 147.18 206.13 149.08 206.56" style="fill:#3246ff; stroke-width:0px;"/><path d="m161.1,242.72c.09.09.19.17.3.24-.13.86-.24,1.67-.32,2.46l.02-2.7Z" style="fill:#3246ff; stroke-width:0px;"/><path d="m158.16,286.72s.39,1.04.28,1.38c-.13.33-9.58,5.13-14.31,5.13s-9.15-.61-12.09-3.01l-.28-.73,3.52-1.36.11.32c.47.6,4.02,1.77,8.11,1.77s14.05-3.18,14.66-3.5Z" style="fill:#3f414f; stroke-width:0px;"/><path d="m158.16,284.82s.61,1.6,0,1.9c-.61.32-10.55,3.5-14.66,3.5s-7.65-1.17-8.11-1.77l-.11-.32,11.11-4.26,4.89-1.86.17.45s4.48,1.62,6.77,2.18l-.06.19Z" style="fill:#cbb0a1; stroke-width:0px;"/><path d="m156.89,279.87h-.02l-5.6,2.14-4.89,1.86.09-9.08,1.62.02c0,1.04.32,2.46,1.97,2.57,2.66.2,3.55-1.62,4.84-1.27,1.1.28,1.97,2.2,1.99,3.76Z" style="fill:#3246ff; stroke-width:0px;"/><path d="m156.17,141.87c.07,1.56-.48,2.83-1.27,2.87s-1.49-1.17-1.56-2.72.5-2.83,1.28-2.87,1.47,1.19,1.54,2.72Z" style="stroke-width:0px;"/><path d="m195.66,171c-.41-.67-.93-1.19-1.54-1.53-1.9-1.02-4.15-.91-6.14-.45l-.02-.09h-5.99l-.15-.04c-.11.69-.35,1.38-.69,1.99-2.05,3.81-4.37,7.26-7.31,10.18-1.77,1.77-3.76,3.33-6.05,4.65-.09-3.11-1.53-6.16-3.83-8.26-.2-.19-.41-.37-.63-.54l-.04-.04c-2.33,1.64-4.17,3.98-5.21,6.64.43-1.1.24-2.79.48-4,.28-1.36.73-2.7,1.19-4l-.2-.07s-5.75,3.03-5.99,3.37c-.19.28-2.62.8-4.22,4.15-.28.58-.52,1.23-.74,1.97-.09.35-.19.71-.26,1.1,0,0-4.93,9.13-8.91,18.38l7.78,1.71,1.9.43,8.45,1.88,3.96.87,7.35,1.62.74.17-6.12,21.92h-.22c-.8,3.65-1.43,7.01-1.84,9.95,3.74,2.87,11.76,3.94,16.28,3.26l.35.13c.76-2.03,1.62-4.52,2.51-7.66,1.3-.93,5.28-3.65,9.67-5.4l6.81-50.45c.67-4.5.32-9.25-1.36-11.83Z" style="fill:#7ca5bb; stroke-width:0px;"/><polygon points="139.41 204.42 147.18 206.13 146.9 232.81 130.31 232.6 130.31 232.4 130.62 202.46 139.41 204.42" style="fill:#4d0099; stroke-width:0px;"/><polygon points="146.9 232.81 146.64 257.33 130.07 260.23 130.12 249.51 130.31 232.6 146.9 232.81" style="fill:#3246ff; stroke-width:0px;"/><polygon points="146.64 257.33 146.47 274.8 146.38 283.87 135.28 288.13 131.76 289.49 129.92 290.2 130.07 260.23 146.64 257.33" style="fill:#3246ff; stroke-width:0px;"/><polygon points="130.62 202.2 130.62 202.46 130.36 202.41 130.21 232.4 113.12 232.38 113.27 205.77 130.62 202.2" style="fill:#4d0099; stroke-width:0px;"/><polygon points="130.62 202.46 130.31 232.4 130.21 232.4 130.36 202.41 130.62 202.46" style="fill:#4d0099; stroke-width:0px;"/><rect x="130.21" y="232.4" width=".09" height=".2" style="fill:#3246ff; stroke-width:0px;"/><polygon points="130.31 232.6 130.12 249.51 130.21 232.6 130.31 232.6" style="fill:#3246ff; stroke-width:0px;"/><polygon points="130.21 232.4 130.21 232.6 130.12 249.51 130.01 260.06 113.01 256.79 113.12 232.38 130.21 232.4" style="fill:#3246ff; stroke-width:0px;"/><polygon points="130.01 260.06 129.71 289.98 112.86 283.26 113.01 256.79 130.01 260.06" style="fill:#3246ff; stroke-width:0px;"/><polygon points="113.27 205.77 113.12 232.38 98.55 232.36 98.57 208.79 113.27 205.77" style="fill:#3246ff; stroke-width:0px;"/><polygon points="113.12 232.38 113.01 256.79 98.53 254.01 98.55 232.36 113.12 232.38" style="fill:#3246ff; stroke-width:0px;"/><polygon points="113.01 256.79 112.86 283.26 98.51 277.53 98.53 254.01 113.01 256.79" style="fill:#3246ff; stroke-width:0px;"/><polygon points="98.57 208.79 98.55 232.36 87.91 232.34 87.85 211 98.57 208.79" style="fill:#3246ff; stroke-width:0px;"/><polygon points="98.55 232.36 98.53 254.01 87.97 251.99 87.91 232.34 98.55 232.36" style="fill:#3246ff; stroke-width:0px;"/><polygon points="98.53 254.01 98.51 277.53 88.02 273.34 87.97 251.99 98.53 254.01" style="fill:#3246ff; stroke-width:0px;"/><path d="m170.92,271.2c1.34-.02,3.48-.15,5.41-.58,3.09-.71,7.55-3.61,9.41-5.99" style="fill:none; stroke:#000; stroke-miterlimit:10;"/><path d="m159.53,175.45s-5.75,3.03-5.99,3.37c-.19.28-2.62.8-4.22,4.15-.28.58-.52,1.23-.74,1.97-.09.35-.19.71-.26,1.1,0,0-4.93,9.13-8.91,18.38" style="fill:none; stroke:#000; stroke-miterlimit:10;"/><path d="m151.65,185.25s-.04.19-.11.52c-.47,2.36-2.36,12.32-2.46,20.78" style="fill:none; stroke:#000; stroke-miterlimit:10;"/><polyline points="146.38 283.87 135.28 288.13 131.76 289.49 129.92 290.2 130.07 260.23" style="fill:none; stroke:#fff; stroke-miterlimit:10;"/><polyline points="156.87 279.87 151.27 282.01 146.38 283.87 146.47 274.8 146.64 257.33 158.62 255.6" style="fill:none; stroke:#fff; stroke-miterlimit:10;"/><polyline points="162.42 254.89 162.21 254.93 146.64 257.33" style="fill:none; stroke:#fff; stroke-miterlimit:10;"/><polyline points="171.01 260.23 170.92 271.2 170.88 274.53 168.32 275.41" style="fill:none; stroke:#fff; stroke-miterlimit:10;"/><polyline points="161.08 245.42 161.1 242.72 161.15 233.01" style="fill:none; stroke:#fff; stroke-miterlimit:10;"/><polyline points="161.49 209.31 168.84 210.93 169.58 211.1" style="fill:none; stroke:#fff; stroke-miterlimit:10;"/><polyline points="163.46 233.01 163.24 233.01 161.15 233.01" style="fill:none; stroke:#fff; stroke-miterlimit:10;"/><polyline points="147.18 206.13 149.08 206.56 157.53 208.43 161.49 209.31 161.15 233.01 146.9 232.81" style="fill:none; stroke:#fff; stroke-miterlimit:10;"/><polyline points="146.9 232.81 146.64 257.33 130.07 260.23 130.12 249.51" style="fill:none; stroke:#fff; stroke-miterlimit:10;"/><polyline points="130.62 202.46 139.41 204.42 147.18 206.13 146.9 232.81 130.31 232.6" style="fill:none; stroke:#fff; stroke-miterlimit:10;"/><polyline points="112.86 283.26 129.71 289.98 130.01 260.06" style="fill:none; stroke:#fff; stroke-miterlimit:10;"/><polyline points="98.51 277.53 112.86 283.26 113.01 256.79" style="fill:none; stroke:#fff; stroke-miterlimit:10;"/><line x1="98.53" y1="254.01" x2="113.01" y2="256.79" style="fill:none; stroke:#fff; stroke-miterlimit:10;"/><polyline points="87.97 251.99 88.02 273.34 98.51 277.53 98.53 254.01" style="fill:none; stroke:#fff; stroke-miterlimit:10;"/><polyline points="87.91 232.34 87.97 251.99 98.53 254.01 98.55 232.36" style="fill:none; stroke:#fff; stroke-miterlimit:10;"/><polyline points="98.57 208.79 87.85 211 87.91 232.34 98.55 232.36" style="fill:none; stroke:#fff; stroke-miterlimit:10;"/><polyline points="113.27 205.77 98.57 208.79 98.55 232.36 113.12 232.38" style="fill:none; stroke:#fff; stroke-miterlimit:10;"/><polyline points="113.12 232.38 113.01 256.79 130.01 260.06 130.12 249.51 130.31 232.6 130.31 232.4" style="fill:none; stroke:#fff; stroke-miterlimit:10;"/><polygon points="113.12 232.38 130.21 232.4 130.31 232.4 130.62 202.46 130.62 202.2 113.27 205.77 113.12 232.38" style="fill:none; stroke:#fff; stroke-miterlimit:10;"/><path d="m161.84,169.27c-.19-.54-.39-1.13-.69-1.8-.06-.13-.11-.28-.19-.43" style="fill:none; stroke:#000; stroke-miterlimit:10;"/><path d="m178.49,165.63s-.04.07-.13.2c-.82,1.32-5.66,8.43-14.88,10.9-.69-1.23-1.04-4.58-1.17-5.45-.11-.69-.26-1.32-.47-1.99" style="fill:none; stroke:#000; stroke-miterlimit:10;"/><path d="m177.93,163.99c.22.02.45.04.67.09.71.15,1.36.45,1.9.89,1.27,1.1,1.56,2.53,1.32,3.93-.11.69-.35,1.38-.69,1.99-2.05,3.81-4.37,7.26-7.31,10.18-1.77,1.77-3.76,3.33-6.05,4.65-.09-3.11-1.53-6.16-3.83-8.26-.2-.19-.41-.37-.63-.54l-.04-.04c-2.33,1.64-4.17,3.98-5.21,6.64.43-1.1.24-2.79.48-4,.28-1.36.73-2.7,1.19-4,.02-.07.06-.13.07-.2.74-1.95.78-4.32,2.03-6.03v-.02" style="fill:none; stroke:#000; stroke-miterlimit:10;"/><line x1="181.97" y1="168.94" x2="187.96" y2="168.94" style="fill:none; stroke:#000; stroke-miterlimit:10;"/><path d="m161.08,245.42c.07-.78.19-1.6.32-2.46.41-2.94,1.04-6.31,1.84-9.95,1.49-6.88,3.52-14.7,5.6-22.08,4.35-15.26,8.95-28.72,9.66-28.72" style="fill:none; stroke:#000; stroke-miterlimit:10;"/><line x1="161.08" y1="245.44" x2="161.08" y2="245.42" style="fill:none; stroke:#fff; stroke-miterlimit:10;"/><path d="m182.96,171.12s2.25-1.4,5.02-2.08c1.99-.47,4.24-.58,6.14.45.61.33,1.13.86,1.54,1.53,1.67,2.59,2.03,7.33,1.36,11.83-.45,2.96-1.3,5.8-2.49,7.87,0,0-7.55,16.76-11.05,35.2-.99,5.21-1.99,9.38-2.94,12.78-.89,3.14-1.75,5.64-2.51,7.66-1.66,4.45-2.88,6.73-3.16,8.95-1.08.22-2.05.39-2.92.52-3.91.6-6.06.24-9.49-2.46-.41-.32-.84-.69-1.3-1.08-.41-1.43.03-6.75.35-9.78" style="fill:none; stroke:#000; stroke-miterlimit:10;"/><polyline points="197.02 182.84 190.21 233.29 190.18 233.59" style="fill:none; stroke:#000; stroke-miterlimit:10;"/><path d="m162.42,253.4c-.06.5-.11,1.02-.2,1.53-.45,3.55-1.19,7.09-2.18,10.53-.2.71-1.41,1.64-2.1,1.9,0,0-2.29.54-3.11,1.9s-1.21,2.33-2.1,3.01c-.89.71-4.52,1.4-4.52,1.4,0,0-.11.5-.11,1.15,0,1.04.32,2.46,1.97,2.57,2.66.2,3.55-1.62,4.84-1.27,1.1.28,1.97,2.2,1.99,3.76,0,.28-.04.56-.09.8" style="fill:none; stroke:#000; stroke-miterlimit:10;"/><path d="m171.96,255.97c-.28,1.4-.6,2.83-.97,4.26-.89,3.63-2.05,7.29-3.46,10.62.6,1.53.78,3.14.78,4.56-.02,2.33-.54,4.17-.67,4.52-.2.54-.99.67-1.23.74-.22.09-.22.97-.48,1.06-.26.07-1.23.54-1.54.67-.32.11-.86,1.1-1.38,1.25s-1.66-.47-2.07-.35c-.39.11-.63,1.3-1.51,1.51-.19.04-.63-.04-1.23-.17-2.29-.56-6.77-2.18-6.77-2.18" style="fill:none; stroke:#000; stroke-miterlimit:10;"/><path d="m180.09,239s.15-.11.45-.32c1.3-.93,5.28-3.65,9.67-5.4,1.93-.76,3.96-1.36,5.88-1.51,0,0,11.33-2.57,13.34,4.46.95,3.29,1.21,5.58-.93,11.93" style="fill:none; stroke:#000; stroke-miterlimit:10;"/><path d="m194.75,244.58s-2.66,1.92-5.04,6.27c-2.38,4.37-3.37,12.22-3.96,13.79-.58,1.56-4.76,13.75-4.76,13.75" style="fill:none; stroke:#000; stroke-miterlimit:10;"/><path d="m180.99,278.39c.74,3.01,2.94,4.2,5.69,4.5,3.93.45,8.97-.91,12.56-1.43.41-.06.8-.09,1.15-.13,1.45-4.82-1.49-4.82,1.47-14.98,2.01-6.86,6.64-18.18,6.64-18.18" style="fill:none; stroke:#000; stroke-miterlimit:10;"/><path d="m186.68,282.98c-2.14.89-3.66,5.54-3.37,7.11" style="fill:none; stroke:#000; stroke-miterlimit:10;"/><path d="m180.99,278.39s-1.28,6.79-.76,9.71c.02.11.06.22.07.33.6.47,1.64,1.08,3.01,1.66v.02c2.29.97,5.51,1.84,9.15,1.77,5.8-.11,11.74-1.73,11.74-1.73,0,0,.02-.17.02-.47.09-1.71-.02-7.68-4.99-8.22" style="fill:none; stroke:#000; stroke-miterlimit:10;"/><path d="m204.39,289.68l.6.47s.22,2.05,0,2.2c-.24.17-6.75,2.75-13.02,2.03-6.29-.74-11.87-4.54-11.87-4.54l.13-1.73" style="fill:none; stroke:#000; stroke-miterlimit:10;"/><path d="m158.16,284.82s.61,1.6,0,1.9c-.61.32-10.55,3.5-14.66,3.5s-7.65-1.17-8.11-1.77" style="fill:none; stroke:#000; stroke-miterlimit:10;"/><path d="m158.16,286.72s.39,1.04.28,1.38c-.13.33-9.58,5.13-14.31,5.13s-9.15-.61-12.09-3.01" style="fill:none; stroke:#000; stroke-miterlimit:10;"/><path d="m161.02,242.67s.06.04.07.06c.09.09.19.17.3.24,3.74,2.87,11.76,3.94,16.28,3.26" style="fill:none; stroke:#000; stroke-miterlimit:10;"/><path d="m163.81,177.63c-3.76,9.84-5.19,19.87-6.23,30.58" style="fill:none; stroke:#000; stroke-miterlimit:10;"/><path d="m148.65,151.1c1.47,5.58,4.33,9.45,6.03,11.22,1.79,1.86,3.94,3.83,6.47,5.15,4.46,2.34,10.06,2.6,16.61-3.65,1.41-1.32,2.87-2.98,4.37-4.99" style="fill:none; stroke:#000; stroke-linecap:round; stroke-linejoin:round;"/><path d="m152.07,136.1c.82-2.07,2.57-1.92,3.5-.87" style="fill:none; stroke:#000; stroke-linecap:round; stroke-linejoin:round;"/><path d="m172.93,134.6c1.64-1.75,3.93-1.02,4.33.28" style="fill:none; stroke:#000; stroke-linecap:round; stroke-linejoin:round;"/><path d="m156.17,141.87c.07,1.56-.48,2.83-1.27,2.87s-1.49-1.17-1.56-2.72.5-2.83,1.28-2.87,1.47,1.19,1.54,2.72Z" style="fill:none; stroke:#000; stroke-linecap:round; stroke-linejoin:round;"/><path d="m176.19,140.88c.09,1.79-.63,3.26-1.58,3.31-.95.04-1.8-1.36-1.9-3.14-.07-1.77.63-3.24,1.58-3.27.95-.06,1.8,1.34,1.9,3.11Z" style="fill:none; stroke:#000; stroke-linecap:round; stroke-linejoin:round;"/><path d="m160.63,146.45c-.86,5.67.41,5.95,5.93,4.8" style="fill:none; stroke:#000; stroke-linecap:round; stroke-linejoin:round;"/><path d="m159.24,157.33c4.87,1.79,14.31-.82,15.26-1.84-1.88,3.01-1.84,2.34-3.46,3.5-1.67,1.17-4.46,1.97-6.21,1.82-2.87-.24-4.24-1.36-5.58-3.48Z" style="fill:none; stroke:#000; stroke-linecap:round; stroke-linejoin:round;"/><path d="m186.27,141.76c-.2,10.05-1.53,12.87-4.13,17.08" style="fill:none; stroke:#000; stroke-linecap:round; stroke-linejoin:round;"/><path d="m186.27,141.76c.19-10.9-6.36-18.18-9.12-19.81-2.25-1.36-17.69,7.55-21.8,8.76-8.06,2.36-9,9.19-6.7,20.39" style="fill:none; stroke:#000; stroke-linecap:round; stroke-linejoin:round;"/><path d="m196.61,174.04c-.17-1.04-.6-2.05-.95-3.03-.37-1.02-.67-2.05-.56-3.11.33-3.39,2.98-5.26,2.57-8.65-.3-2.46-1.32-4.33-2.16-6.66-1.04-2.81.8-5.79,2.64-8.13,1.86-2.33,1.73-5.13,1.25-8.09-.65-4.11-3.39-5.62-5.86-8.95-1.92-2.6-2.57-7.76-5.19-9.64-5.67-4.06-10.14-2.6-10.14-2.6-6.77-2.27-8.8-4.48-15.93-4.13-9.58.47-13.71,4.89-15.2,8.28-3.35,7.53-.69,10.94-5.15,17.28-3.61,5.12-3.98,10.6-.76,14.94,1.79,2.42,3.37,7.37,3.24,10.38-.09,2.21-1.28,4-2.44,5.88-2.14,3.52,3.65,12.86,7.11,15.03" style="fill:none; stroke:#000; stroke-linecap:round; stroke-linejoin:round;"/></svg>