<?xml version="1.0" encoding="UTF-8"?><svg id="Layer_5" xmlns="http://www.w3.org/2000/svg" width="300" height="300" viewBox="0 0 300 300"><defs><style>.cls-1{stroke-linejoin:round;}.cls-1,.cls-2{fill:none;stroke:#000;stroke-linecap:round;}.cls-2,.cls-3{stroke-miterlimit:10;}.cls-3{fill:#4d0099;stroke:#fff;stroke-width:4.2px;}.cls-4,.cls-5,.cls-6,.cls-7,.cls-8,.cls-9,.cls-10,.cls-11,.cls-12{stroke-width:0px;}.cls-5{fill:#474763;}.cls-6{fill:#2c2826;}.cls-7{fill:#5b5b77;}.cls-8{fill:#21222a;}.cls-9{fill:#22222a;}.cls-10{fill:#bc8968;}.cls-11{fill:#332921;}.cls-12{fill:#fff;}</style></defs><rect class="cls-3" x="41.8" y="183.7" width="70.4" height="76.5"/><rect class="cls-3" x="112.3" y="183.7" width="76.5" height="76.5"/><rect class="cls-3" x="112.3" y="114.3" width="76.5" height="69.4"/><rect class="cls-3" x="188.7" y="183.7" width="69.4" height="76.5"/><rect class="cls-3" x="188.7" y="114.3" width="69.4" height="69.4"/><rect class="cls-3" x="188.7" y="39.8" width="69.4" height="74.5"/><rect class="cls-3" x="112.3" y="39.8" width="76.5" height="74.5"/><rect class="cls-3" x="41.8" y="114.3" width="70.4" height="69.4"/><rect class="cls-3" x="41.8" y="39.8" width="70.4" height="74.5"/><path class="cls-10" d="m262,140.5h0c-.4-4.4,4.1-4.3,7.7-4.3,1,0,1.9,0,2.6-.2,5.4-1.1,7.8-9.3,9.9-12.5,1.3-1.9,2.2-3.2,3.2-4.3-.6-.8-2.3-2.6-3.5-3.9,3.5-1.7,8-4.2,10.3-6.5,2.5,3.2,3.6,4.1,4.6,6.5,2.1,5-2.9,13.8-6.9,17.4-3,2.7-9.3,7.8-12,10.8.9,2.8-2.4,6.3-4.5,7.8-.3.2-.9.6-1.6.9-2.6,1.2-6.8,2.4-6.3-.6-1-.1-3-1.5-1.7-2.9-1.2-.3-2.4-1.8-1.4-3.5-3.6-1.3-2.2-3.2-.3-4.7Z"/><path class="cls-5" d="m281.9,115.3c-1.5.7-2.8,1.3-3.6,1.6-.7-.8-1.5-1.8-2.3-2.8h.2c5.6-1.9,12.5-5.5,16.1-10.2h0c.9,1.4,1.5,2.3,1.5,2.3,0,.8-.5,1.7-1.5,2.6-2.3,2.3-6.8,4.8-10.3,6.5Z"/><path class="cls-7" d="m226,108.7c-.3.6-1.2,1.7-2,2.9h-.2c-4.3-.1-10.7-5-14.1-7.8,2.6-4.7,10.3-16,13-19,2.5-2.7,5.8-7,14.4-6.9h.2c-.6,4.3.3,6.3,2.9,8.7,4.9,4.5,18,1.6,20.4-4.2.4-.9.6-2.4.4-3.9h.2c0,.5,4,.6,7.1.8,1.4,0,2.6.2,3.1.4,5.5,1.6,16.7,18,20.7,24.1h0c-3.5,4.7-10.5,8.3-16.1,10.1h-.2c-2.1-2.6-4.3-5.9-6.1-8.7-.3,3.6-.8,20.2-.5,23.9.1,1.7.2,4.2.4,7-3.6,0-8.1,0-7.7,4.3h0c-1.8,1.5-3.3,3.4.3,4.7-1,1.8.2,3.2,1.4,3.5-1.3,1.3.7,2.7,1.7,2.9-.5,3,3.7,1.8,6.3.6,0,.4,2.9,12.1,3.2,13.6-18.4,9.7-43.4,4.3-50.6.2,1.3-8,.7-4.9,1.1-11.1,0-.9.1-1.7.2-2.5.6-7.3,1.4-12.7,1.6-18.2.1-3.4,0-6.8-.5-10.7-.7-4.9-.9-9.9-.6-14.8Z"/><path class="cls-9" d="m285.4,276.6c.2,1.3-.2,6.2-1.1,7.1-1.1,1-2.8,1-4.3,1-4.7-.3-9.5-.6-14.2-1-1.7-.1-3.6-.4-4.7-1.7-1.3-1.6-1.2-9.5,0-11.2,1.8-2.6,3.2-2.7,6.2-3.2,2.4-.4,5.7-.7,8.8.5.8.5,1.7.9,2.5,1.4,2.3,1.4,6.3,4.5,6.8,7.2Z"/><path class="cls-8" d="m221.7,267.6c-.6.2-1.2.4-1.8.7.6-3.7,1.4-42.8,1.7-51.2.2-5.4.5-36.5,2.6-51.2,7.2,4.2,32.2,9.6,50.6-.2v.2c1.8,8.6,1.2,52.3,1.6,56.2.9,8.5.6,30.5.1,46.1-.2,0-.3-.1-.5-.2-3.2-1.3-6.4-1-8.8-.5-3.1.5-4.4.7-6.2,3.2-13.3,8-6.2-51.8-6.5-55.3-.3-2.8-3.5-23.3-5.4-33.4-.5,2.8-2.3,23-3.7,31.8-2,14.9,1.6,59.2-9.8,57.8-1.1-1.8-1.9-3-4-3.4-2.1-.4-9.7.2-10.1-.4h0Z"/><path class="cls-10" d="m234.2,63.7h0c1.3,2.3,2.7,3.6,5.7,4,1.9.2,5.6-.1,7.4-1.2,1.8-1.1,2.5-1.5,4.7-4.5-1,1-12.5,3.6-17.8,1.8Zm-7.4-26.2c2.1-9.2,7-16.1,17.9-13.7,5.5-2.3,16.2-4.7,21,21,1.1-1.5,3.5-1.4,4.8-.2,1.4,1.2,1.8,3.3,1.7,5.2,0,1-.4,2.1-1,2.9-.6.7-1.3,1.1-2.1,1.3-1.1.3-2.2.3-3.3.3-.2,2.3-.5,4.3-1.1,6-.4,1.1-.8,2.1-1.2,3-1.8,3.5-4.3,5.4-6,6.4-.5.3-1,.6-1.3.8-8,5-12.5,6.8-16.5,6.1-.7-.1-1.3-.3-2-.6-2.4-1-4.8-2.9-7.9-5.7-2.1-1.9-3-3.6-3.9-6.3-.5-7-1.1-17.8.9-26.5Zm24.8,8.1c0-2-.9-3.7-1.9-3.7s-1.9,1.6-1.9,3.7.8,3.7,1.9,3.7,1.9-1.6,1.9-3.7Zm-20.9,0c0-1.8-.7-3.2-1.5-3.2s-1.5,1.4-1.5,3.2.7,3.2,1.5,3.2,1.5-1.4,1.5-3.2Z"/><path class="cls-6" d="m265.9,20.4c5.2,7,6.8,12.4,4.6,24.3-1.4-1.2-3.7-1.3-4.8.2-4.8-25.7-15.5-23.4-21-21-1.3-5.2,3.1-11.1,8.7-11.1h0c5,.9,9.2,3.1,12.6,7.7Z"/><path class="cls-6" d="m268.4,79.1v.3c-3.1-.2-7.1-.4-7.1-.8h-.2c-.2-2-1.2-3.8-3.3-3.8-.1-1.3-.3-2.8-.3-5,1.7-1,4.2-2.9,6-6.4,4.8,4.3,5.3,15.8,4.9,15.8Z"/><path class="cls-11" d="m265.7,54.3c1.1,0,2.3,0,3.3-.3-1,2.4-2.4,4.4-4,6.5h-.4c.5-1.8.9-3.8,1.1-6.2Z"/><path class="cls-5" d="m261,78.6c.2,1.5,0,3-.4,3.9-2.4,5.9-15.4,8.7-20.4,4.2-2.7-2.4-3.6-4.5-2.9-8.7,0-.6.2-1.2.4-1.9.6.3,1.3.5,2,.6h0c1.3,5.7,4.3,7.2,9.1,6.8,4.2-.3,9.4-2.9,9.1-6,0-1-.2-1.8-.3-2.7,2.2,0,3.1,1.8,3.3,3.8Z"/><path class="cls-10" d="m258,77.5c.2,3.1-4.9,5.6-9.1,6-4.9.4-7.8-1.1-9.1-6.8h0c4,.7,8.4-1.2,16.5-6.1.3-.2.8-.5,1.3-.8,0,2.3.1,3.7.3,5,0,.9.2,1.7.3,2.7Z"/><path class="cls-6" d="m226.7,37.6c-2,8.7-1.4,19.5-.9,26.5.2,2.4.3,4.4.4,5.6-11.3-5.2-21.9-57.6,16.1-57.7,4,0,7.7.1,11,.8h0c-5.6,0-9.9,5.9-8.7,11.1-10.9-2.4-15.9,4.5-17.9,13.7Z"/><path class="cls-4" d="m249.6,42c1,0,1.9,1.6,1.9,3.7s-.9,3.7-1.9,3.7-1.9-1.6-1.9-3.7.8-3.7,1.9-3.7Z"/><path class="cls-12" d="m252,62c-2.1,3-2.9,3.4-4.7,4.5-1.8,1.1-5.6,1.5-7.4,1.2-3-.4-4.4-1.6-5.7-3.9h0c5.3,1.7,16.8-.9,17.8-1.9Z"/><path class="cls-9" d="m235.8,271.6c1.1,1.8,1.7,10.3,0,11.5-1.2.9-15,1.2-19.4,1.3-.4,0-3-.4-3.4-.6-1.3-.5-.9-8.5-.4-9.8,1-2.6,4.3-4.5,7.3-5.7.6-.3,1.2-.5,1.8-.7h0c.4.7,8,.2,10.1.5,2.1.4,2.9,1.6,4,3.4Z"/><path class="cls-4" d="m229.1,42.4c.8,0,1.5,1.4,1.5,3.2s-.7,3.2-1.5,3.2-1.5-1.4-1.5-3.2.7-3.2,1.5-3.2Z"/><path class="cls-10" d="m215.9,117.4c1.5,2.5,2.4,5.5,3.6,8,.9,1.9,2.1,3.2,3.4,4.8.8,1,3.8,3.9,3.8,4.1h.4c-.2,5.5-1,10.9-1.6,18.2h0c-1.6-.4-2.5-.6-3.5-3.3-.8-2.1-1.2-3.9-1.9-6-1.6-4.8-4.9-7.5-8.6-11.4-5-5.2-9.9-11.9-5.6-18.4.7-1.1,1.4-2,3.1-5.3,1.5,2,5.3,4.5,8.9,6h0c-1.3,2.5-1.9,3.7-2.1,3.4Z"/><path class="cls-5" d="m224,111.7c-1,1.4-1.9,2.8-2.3,3.4h0c-1.1-.2-2.3-.6-3.5-1.1-3.6-1.5-7.4-4-8.9-6-.7-1-.9-1.9-.3-2.5.1-.4.4-.9.8-1.6,3.3,2.8,9.8,7.6,14.1,7.7h.2Z"/><path class="cls-2" d="m225.9,64.1c.9,2.7,1.8,4.4,3.9,6.3,3.1,2.8,5.5,4.7,7.9,5.7.6.3,1.3.5,2,.6,4,.7,8.4-1.2,16.5-6.1.3-.2.8-.5,1.3-.8,1.7-1,4.2-2.9,6-6.4.4-.9.9-1.9,1.2-3,.5-1.7.9-3.7,1.1-6"/><path class="cls-2" d="m225.5,38.6c.4-.4.8-.8,1.3-1,1.9-1,4.5-.7,5.9.2"/><path class="cls-2" d="m245.7,37.7c3-2.2,7.1-1.1,7.7.6"/><path class="cls-2" d="m239.7,76.7c1.3,5.7,4.3,7.2,9.1,6.8,4.2-.3,9.4-2.9,9.1-6,0-1-.2-1.8-.3-2.7-.1-1.3-.3-2.8-.3-5h0"/><path class="cls-2" d="m237.7,76.1c-.1.7-.3,1.3-.4,1.9-.6,4.2.3,6.2,2.9,8.7,4.9,4.5,18,1.6,20.4-4.2.4-.9.6-2.4.4-3.9-.2-2-1.2-3.8-3.3-3.8"/><path class="cls-2" d="m237.2,78c-8.6,0-12,4.2-14.4,6.9-2.7,3-10.4,14.3-13,19-.4.7-.7,1.2-.8,1.6-.7.6-.5,1.5.3,2.5,1.5,2,5.3,4.5,8.9,6,1.2.5,2.5.9,3.5,1.2.1,0,.2,0,.3,0"/><path class="cls-2" d="m269.8,105.2c-.9-1.3-1.6-2.5-2.3-3.5"/><path class="cls-2" d="m261.3,78.5s0,0,0,0c0,.5,4,.6,7.1.8,1.4,0,2.6.2,3.1.4,5.5,1.6,16.7,18,20.7,24.1.9,1.4,1.5,2.3,1.5,2.3,0,.8-.5,1.7-1.5,2.6-2.3,2.3-6.8,4.8-10.3,6.5-1.5.7-2.8,1.3-3.6,1.6-.7-.8-1.5-1.8-2.3-2.8-2.1-2.7-4.3-6-6.1-8.8"/><path class="cls-2" d="m227.5,96.6c-.8,3.9-1.3,8-1.5,12.1-.2,5,0,10,.6,14.8.5,3.9.7,7.3.5,10.7-.2,5.5-1,10.9-1.6,18.2,0,.8-.1,1.6-.2,2.5"/><path class="cls-2" d="m269.8,105.2h0c-.3,3.6-.8,20.2-.5,23.9.1,1.7.2,4.2.4,7,0,0,0,0,0,.1"/><path class="cls-2" d="m225.4,154.9c-.4,6.2.1,3.1-1.1,11.1,7.2,4.2,32.2,9.6,50.6-.2.2,0,.3-.2.4-.2"/><path class="cls-2" d="m274.9,166v-.2c-.4-1.5-3.2-13.2-3.2-13.6h0"/><path class="cls-2" d="m224.3,166c-2.2,14.6-2.4,45.8-2.6,51.2-.3,8.3-1.1,47.5-1.7,51.2"/><path class="cls-2" d="m249.2,182c-.5,2.8-2.3,23-3.7,31.8-2,14.9,1.6,59.2-9.8,57.8"/><path class="cls-2" d="m248.1,176.7c.2.7.6,2.7,1.1,5.3,1.9,10.1,5.1,30.6,5.4,33.4.3,3.5-6.8,63.4,6.5,55.3"/><path class="cls-2" d="m274.9,166c1.8,8.6,1.1,52.3,1.6,56.2.9,8.5.6,30.5.1,46.1h0"/><path class="cls-2" d="m230.6,45.6c0,1.8-.7,3.2-1.5,3.2s-1.5-1.4-1.5-3.2.7-3.2,1.5-3.2,1.5,1.4,1.5,3.2Z"/><path class="cls-2" d="m251.5,45.7c0,2-.9,3.7-1.9,3.7s-1.9-1.6-1.9-3.7.8-3.7,1.9-3.7,1.9,1.6,1.9,3.7Z"/><path class="cls-2" d="m233.9,55.8c0,2.6,5.2,2.6,7.1,2.5"/><path class="cls-1" d="m233.7,63.6c.1,0,.3.1.4.2,5.3,1.8,16.8-.8,17.8-1.8-2.1,3-2.9,3.4-4.7,4.5-1.8,1.1-5.6,1.5-7.4,1.2-3-.4-4.4-1.6-5.7-3.9"/><path class="cls-2" d="m270.5,44.7c2.2-11.9.6-17.3-4.6-24.3-3.4-4.6-7.6-6.7-12.6-7.7-3.3-.7-7-.8-11-.8-38,0-27.4,52.4-16.1,57.7"/><path class="cls-2" d="m274.7,266.6c.3.6.9,1.1,1.4,1.5.8.5,1.7.9,2.5,1.4,2.3,1.4,6.3,4.5,6.8,7.2.2,1.3-.2,6.2-1.1,7.1-1.1,1-2.8,1-4.3,1-4.7-.3-9.5-.6-14.2-1-1.7-.1-3.6-.4-4.7-1.7-1.3-1.6-1.2-9.5,0-11.2,1.8-2.6,3.2-2.7,6.2-3.2,2.4-.4,5.7-.7,8.8.5.2,0,.3.1.5.2.7.3,1.3.7,2,1.2"/><path class="cls-2" d="m221.8,267.8c.4.6,8,0,10.1.4,2.1.4,2.9,1.6,4,3.4s1.7,10.3,0,11.5c-1.2.9-15,1.2-19.4,1.3-.4,0-3-.4-3.4-.6-1.3-.5-.9-8.5-.4-9.8,1-2.6,4.3-4.5,7.3-5.7.6-.3,1.2-.5,1.8-.7.2,0,.5-.2.7-.3"/><path class="cls-2" d="m244.7,23.9c-1.3-5.2,3.1-11.1,8.7-11.1"/><path class="cls-2" d="m226.3,69.7c0-1.2-.2-3.2-.4-5.6-.5-7-1.1-17.8.9-26.5,2.1-9.2,7-16.1,17.9-13.7,5.5-2.3,16.2-4.7,21,21"/><path class="cls-2" d="m265.7,44.9c1.1-1.5,3.5-1.4,4.8-.2,1.4,1.2,1.8,3.3,1.7,5.2,0,1-.4,2.1-1,2.9-.6.7-1.3,1.1-2.1,1.3-1.1.3-2.2.3-3.3.3"/><path class="cls-2" d="m269.2,53.8c0,0,0,.2-.1.2-1,2.4-2.4,4.4-4,6.5"/><path class="cls-2" d="m292.2,103.9c-3.5,4.6-10.5,8.3-16.1,10.1"/><path class="cls-2" d="m223.8,111.6c-4.3-.1-10.7-4.9-14.1-7.7,0,0,0,0,0,0"/><path class="cls-1" d="m209.2,108c-1.8,3.3-2.4,4.3-3.1,5.3-4.3,6.6.6,13.2,5.6,18.4,3.7,3.9,7.1,6.6,8.6,11.4.7,2.1,1.1,3.9,1.9,6,1,2.7,1.8,2.9,3.5,3.3"/><path class="cls-1" d="m218,114c-1.3,2.4-1.9,3.7-2.1,3.4,0,0,0,0,0,0"/><path class="cls-1" d="m212.2,113.3c1.6,1,2.8,2.5,3.8,4.1,1.5,2.5,2.4,5.5,3.6,8,.9,1.9,2.1,3.2,3.4,4.8.8,1,3.8,3.9,3.8,4.1s0,0,0,0"/><path class="cls-1" d="m281.9,115.2s0,0,0,0c1.2,1.3,2.9,3.1,3.5,3.9"/><path class="cls-1" d="m292.2,108.7c2.5,3.2,3.6,4.1,4.6,6.5,2.1,5-2.9,13.8-6.9,17.4-3,2.7-9.3,7.8-12,10.8"/><path class="cls-1" d="m272.3,136c5.4-1.1,7.8-9.3,9.9-12.5,1.3-1.9,2.2-3.2,3.2-4.3,1.2-1.3,2.6-2.3,5-3.8"/><path class="cls-2" d="m271.7,152.2c.7-.3,1.3-.7,1.6-.9,2.1-1.6,5.4-5.1,4.5-7.8"/><path class="cls-1" d="m264.6,138.5c-.5.5-1.6,1.2-2.6,2-1.8,1.5-3.3,3.4.3,4.7-1,1.8.2,3.2,1.4,3.5-1.3,1.3.7,2.7,1.7,2.9-.5,3,3.7,1.8,6.3.6"/><path class="cls-1" d="m272.3,136c-.7.1-1.7.2-2.6.2-3.6,0-8.1,0-7.7,4.3"/><path class="cls-1" d="m226,108.7c-.3.6-1.2,1.7-2,2.9-1,1.4-1.9,2.8-2.3,3.4"/><path class="cls-2" d="m263.4,63.3h0c4.8,4.3,5.3,15.8,4.9,15.8s0,0,0,0"/></svg>