<?xml version="1.0" encoding="UTF-8"?><svg id="Layer_5" xmlns="http://www.w3.org/2000/svg" width="300" height="300" viewBox="0 0 300 300"><rect x="1.78" y="1.02" width="298.4" height="289.02" style="fill:none; stroke-width:0px;"/><rect x="41.83" y="183.71" width="70.44" height="76.47" style="fill:#3246ff; stroke:#fff; stroke-miterlimit:10; stroke-width:4.17px;"/><rect x="112.27" y="183.71" width="76.47" height="76.47" style="fill:#3246ff; stroke:#fff; stroke-miterlimit:10; stroke-width:4.17px;"/><rect x="112.27" y="114.28" width="76.47" height="69.43" style="fill:#4d0099; stroke:#fff; stroke-miterlimit:10; stroke-width:4.17px;"/><rect x="188.74" y="183.71" width="69.43" height="76.47" style="fill:#3246ff; stroke:#fff; stroke-miterlimit:10; stroke-width:4.17px;"/><rect x="188.74" y="114.28" width="69.43" height="69.43" style="fill:#3246ff; stroke:#fff; stroke-miterlimit:10; stroke-width:4.17px;"/><rect x="188.74" y="39.82" width="69.43" height="74.46" style="fill:#3246ff; stroke:#fff; stroke-miterlimit:10; stroke-width:4.17px;"/><rect x="112.27" y="39.82" width="76.47" height="74.46" style="fill:#4d0099; stroke:#fff; stroke-miterlimit:10; stroke-width:4.17px;"/><rect x="41.83" y="114.28" width="70.44" height="69.43" style="fill:#4d0099; stroke:#fff; stroke-miterlimit:10; stroke-width:4.17px;"/><rect x="41.83" y="39.82" width="70.44" height="74.46" style="fill:#4d0099; stroke:#fff; stroke-miterlimit:10; stroke-width:4.17px;"/><path d="m277.52,122.8c-.47,6.26-.99,10.27-1.97,15.47-.29,1.56-.6,3.15-1.32,4.55-.97,1.87-1.2,2.02-2.78,3.35-4.33,3.63-8.07,10.46-12.15,14.56-.13.14-.27.27-.4.39-2.55-.68-4.18-3.79-6.8-4-1.22-.09-2.42.52-3.29,1.45-3.92-6.15-7.27-12.73-11.62-18.55.69-4.06-.35-11.99-.29-13.37.08-1.75.08-3.56.07-5.61h-.66c-3.14-.67-5.48-1.25-7.25-2.13-1.14-.57-2.04-1.26-2.76-2.18.99-2.71,4.02-17.55,6.87-20.84,2.23-2.57,7.47-4.73,16.38-7.4.58,4.03,1.78,8.02,7.94,8.42,5.04.33,8.63-1.9,11.18-7.86,1.41-.81,12.51,2.42,13.63,3.35,4.95,4.13,9.22,24.07,9.22,24.07.04.92-.82,1.72-2.17,2.44-3.18,1.69-9.04,2.88-11.84,3.87Z" style="fill:#f9daf0; stroke-width:0px;"/><path d="m290.15,274.14h0c.68,1.05,1.13,1.95,1.36,2.59.09.26.15.48.16.65.11,1.32-1.18,3.15-5.48,4.25-5.14,1.29-8.73-.39-11.43-3.4,0,0,.67-5.89,6.78-7.02,5.78-1.09,8.35,2.54,8.61,2.94Z" style="fill:#878586; stroke-width:0px;"/><path d="m289.36,118.93c-1.35,10.41-2.35,18.02-5.81,27.64-.78,2.17-2.47,4.42-4.66,6.65-3.43,3.48-8.09,6.91-12.49,9.97h0c-2.09,1.46-4.13,2.83-5.94,4.07l-.05-.08c.75-2.12.34-4.64-1.05-6.37l-.06-.07c4.08-4.1,7.81-10.92,12.15-14.56,1.58-1.33,1.81-1.48,2.78-3.35.73-1.4,1.03-2.99,1.32-4.55.98-5.2,1.5-9.21,1.97-15.47,2.8-.99,8.66-2.18,11.84-3.87Z" style="fill:#e0bfa9; stroke-width:0px;"/><path d="m275.66,51.3c-4.08-2.13-7.77-5.04-10.81-8.54.6,1.74,1.21,3.48,1.81,5.22-5.11-.9-9.98-3.21-13.97-6.62.31,1.64.61,3.28.92,4.91-5.75-.78-11.11-4.23-14.31-9.22-2.54,5.8-2.33,23-2.21,25.73.04,1.18.17,2.48.46,3.83.99,4.76,2.32,7.58,5.8,10.75,2.53,2.3,4.73,4.39,7.01,5.77,0,.21-.14,1.22-.31,2.31-7.7.24-15.4-1.54-22.46-4.73,10.84-2.59-.64-20.78,5.38-38.65,1.84-5.47,3.28-11.42,7.66-15.04,4.39-3.62,14.21-4.14,19.82-3.99,8.12.2,19.11,6.97,21.18,15.04,6.82,26.64-4.55,39.06,9.25,41.84-6.37,4.39-15.6,5.85-23.24,5-.26-1.68-.43-3.47-.45-4.72,1.37-1,2.84-2.19,4.43-3.58,1.84-2.01,5.23-4.84,6.38-9.82-.01-4.51-.53-10.4-2.33-15.49Z" style="fill:#332628; stroke-width:0px;"/><path d="m270.09,262.48c.2,3.49,3.82,3.41,4.18,2.64,0,0-3.47-5.71,3.21-5.71,0,0,2.58-.2,3.97,1.27h0c.69.73,1.08,1.86.75,3.61h0c.66.41,1.29,1.68,1.95,2.92.09.16.21.31.34.43,2.55,2.23,4.46,4.6,5.66,6.48h0c-.26-.39-2.83-4.03-8.61-2.93-6.12,1.14-6.78,7.02-6.78,7.02-2.15-2.4-3.75-5.63-5.11-8.86-.04-.1-.07-.2-.09-.3-.08-.37-.15-.73-.2-1.06h0c-1.25-6.98.76-6.47.76-6.47-.03.34-.04.66-.02.95Z" style="fill:#878586; stroke-width:0px;"/><path d="m283.12,222.26c.62,5.62-1.24,15.37-1.82,25.83h-.2c-3.22,2.15-7.33,2.96-11.12,2.17l-.33.05c-.41-2.91-.96-5.42-1.42-7.46-1.66-7.42-2.4-15.16-2.96-22.7-.25-3.29-.07-5.98-.37-9.19-.11-1.14-.26-2.04-.46-2.85,3.39.63,6.28.89,10.42-.14,1.22-.3,3.7-1.24,6.01-2.32-.04,2.92-.24,5.57.11,7.49.6,3.23,1.76,5.54,2.15,9.11Z" style="fill:#e0bfa9; stroke-width:0px;"/><path d="m281.1,248.08h.2c-.23,4.17-.26,8.44.15,12.61-1.39-1.47-3.97-1.27-3.97-1.27-6.68,0-3.21,5.71-3.21,5.71-.36.77-3.97.85-4.18-2.64.33-4.54.04-8.64-.45-12.17l.33-.05c3.8.78,7.9-.02,11.12-2.18Z" style="fill:#f9daf0; stroke-width:0px;"/><path d="m278.59,161.2c-4.36,1.51-4.74,1.96-12.19,1.98,4.4-3.05,9.06-6.49,12.49-9.97-.04,7.19-.14,5.66-.03,7.07.04.25.09.53.14.83l-.41.08Z" style="fill:#f9daf0; stroke-width:0px;"/><path d="m286.19,281.62c4.3-1.1,5.59-2.93,5.48-4.25-.01-.17-.06-.38-.16-.65l.4.38c.32.3.38,2.39.38,2.82-.33,2.34-1.92,3.1-6.11,4.33-5.3,1.56-9.63-1.44-11.95-4.18-2.53-2.98-3.64-5.87-3.8-6.51-.02-.08-.05-.15-.08-.23l-1.22-2.78c-.04-.09-.06-.17-.09-.26-.1-.42-.32-1.61.3-2.3.05.33.12.69.2,1.06.02.1.05.21.09.3,1.36,3.23,2.96,6.46,5.11,8.86,2.71,3.01,6.29,4.7,11.43,3.4Z" style="fill:#878586; stroke-width:0px;"/><path d="m267.64,84.91c.28,1.78.66,3.44,1.04,4.16-2.55,5.97-6.14,8.2-11.18,7.86-6.16-.4-7.36-4.4-7.94-8.42.03-.21.27-1.71.48-3.08.17-1.09.31-2.1.31-2.31,4.37,2.67,9.03,2.79,16.85-2.93.02,1.25.19,3.04.45,4.72Z" style="fill:#e0bfa9; stroke-width:0px;"/><path d="m266.66,47.97c-.6-1.74-1.21-3.48-1.81-5.22,3.04,3.51,6.73,6.42,10.81,8.54,1.8,5.1,2.32,10.98,2.33,15.49-1.14,4.98-4.54,7.81-6.38,9.82-1.58,1.39-3.06,2.58-4.43,3.58-7.81,5.72-12.48,5.6-16.85,2.93-2.28-1.38-4.48-3.47-7.01-5.77-3.47-3.17-4.8-5.99-5.8-10.75-.28-1.35-.41-2.65-.46-3.83-.11-2.73-.33-19.93,2.21-25.73,3.2,4.99,8.56,8.44,14.31,9.22-.31-1.64-.61-3.28-.92-4.91,3.99,3.41,8.86,5.72,13.97,6.62Zm-.54,7.15c.19-1.49-.32-2.78-1.12-2.88-.8-.1-1.61,1.01-1.8,2.51s.31,2.78,1.11,2.88c.81.1,1.62-1.01,1.82-2.51Zm-5.69,19.64c1.64-1.3,2.35-1.76,4.33-5.34-.97,1.18-12.16,4.41-16.86,1.93l.36.29c1.2,2.68,2.5,4.13,5.3,4.6,1.72.3,5.18-.14,6.87-1.48Zm-15.42-16.9c.79-.12,1.26-1.4,1.03-2.85s-1.05-2.53-1.85-2.41c-.79.13-1.27,1.4-1.04,2.86s1.06,2.53,1.86,2.41Z" style="fill:#e0bfa9; stroke-width:0px;"/><path d="m264.99,52.24c.81.1,1.31,1.39,1.12,2.88-.19,1.49-1.01,2.61-1.82,2.51-.8-.1-1.3-1.39-1.11-2.88s1-2.61,1.8-2.51Z" style="stroke-width:0px;"/><path d="m257.94,169.02c-1.41,1.6-3.28,2.36-5.39,2.52-2.29.18-4.74-1.13-5.6-3.39-.29-.77-.39-1.58-.39-2.41,0-.64.06-1.3.16-1.93.23-1.59.62-3.2,1.5-4.51.17-.26.37-.5.57-.71.88-.93,2.07-1.54,3.29-1.45,2.63.21,4.25,3.32,6.8,4,.13-.13.27-.26.4-.39l.06.07c1.39,1.73,1.8,4.26,1.05,6.37l.05.08c-.9.61-1.75,1.2-2.52,1.76Z" style="fill:#e0bfa9; stroke-width:0px;"/><path d="m252.42,206.61c-.2,1.6-.45,3.19-.96,4.62,1.22,7.19-.17,14.58-.76,16.67-2.66,9.35-4.79,15.14-6,22.91h-.06c-3.72.86-7.73.42-11.18-1.21.29-8.11.46-19.04.3-21.44-.33-4.95-.08-9.68,1.61-17.63-.2-.94-.31-2.2-.33-3.52,4.75,1.55,10.36,1.85,17.39-.41Z" style="fill:#e0bfa9; stroke-width:0px;"/><path d="m241.54,161.65c-2.51-2.26-4.69-4.66-6.47-7.06-2.21-3-3.78-6.05-4.53-8.94-1.51-5.81-2.23-14.39-1.49-26.72,1.77.88,4.11,1.46,7.25,2.13h.66c.01,2.05,0,3.85-.07,5.6-.06,1.38.98,9.31.29,13.37,4.34,5.82,7.7,12.4,11.62,18.55-.21.22-.4.46-.57.71-.88,1.31-1.27,2.92-1.5,4.51-.1.63-.16,1.29-.16,1.93-1.78-1.3-3.46-2.67-5.02-4.09Z" style="fill:#e0bfa9; stroke-width:0px;"/><path d="m248.25,71.64l-.36-.29c4.7,2.48,15.89-.74,16.86-1.93-1.98,3.58-2.69,4.03-4.33,5.34-1.69,1.34-5.15,1.78-6.87,1.48-2.8-.47-4.1-1.92-5.3-4.6Z" style="fill:#fff; stroke-width:0px;"/><path d="m246.03,55.01c.23,1.46-.24,2.73-1.03,2.85-.79.13-1.63-.95-1.86-2.41s.25-2.73,1.04-2.86c.79-.12,1.62.96,1.85,2.41Z" style="stroke-width:0px;"/><path d="m243.69,261.51c-.16.65-1.35,2.58-2.37,2.7-1.03.1-1.73-1.65-3.03-1.25-.24.07-.75.33-1.46.7h0s1.82-4.52-2.58-5.36c-.48-.09-.9-.16-1.3.01.19-1.15.37-4.56.52-8.7,3.45,1.64,7.46,2.07,11.18,1.2h.06c-.43,2.73-.75,5.69-.93,9.12-.03.51-.06,1.05-.08,1.59Z" style="fill:#f9daf0; stroke-width:0px;"/><path d="m235.08,154.59c1.78,2.41,3.96,4.8,6.47,7.06-2.01-.41-4.11-.18-6.4-1.56-.73-.37-.32.55-.32-5.3l.25-.21Z" style="fill:#f9daf0; stroke-width:0px;"/><path d="m228.96,204.22c1.07-9.12,5.48-40.85,6.19-44.12,2.29,1.37,4.39,1.15,6.4,1.56,1.55,1.42,3.23,2.79,5.02,4.09,0,.83.1,1.64.39,2.41.85,2.25,3.3,3.56,5.6,3.39,2.11-.16,3.99-.92,5.39-2.52.77-.55,1.62-1.14,2.52-1.76,1.81-1.25,3.85-2.61,5.94-4.07h0c7.45-.03,7.84-.47,12.19-1.98l.41-.08h0c1.53,9.29,6.55,41.73,6.55,41.73-.82.83-2.69,1.86-4.69,2.8-2.31,1.08-4.79,2.02-6.01,2.32-4.15,1.02-7.04.77-10.42.14-.54-.1-1.1-.21-1.67-.33-1.04-.21-2.15-.44-3.37-.67v.03c-.04-.33-.66-11.33-1.62-19.7h-.11c-.47,6.25-2.1,12.43-3.39,18.53-.63.23-1.24.45-1.85.63-7.02,2.25-12.64,1.96-17.39.41-2.19-.71-4.2-1.68-6.08-2.8Z" style="fill:#878586; stroke-width:0px;"/><path d="m232.94,258.3c.4-.17.82-.1,1.3-.01,4.4.85,2.58,5.35,2.58,5.35h0c.7-.36,1.22-.62,1.46-.69,1.3-.4,2.01,1.36,3.03,1.25,1.02-.12,2.22-2.05,2.37-2.7.02-.54.05-1.08.08-1.59.37-.04,1.84-.07,1.55,2.09-.27,2.01-.49,6.43-.51,8.13,0,.11-.02.23-.04.34-.08.33-.27.62-.54.84-1.08.88-2.96,2.07-7.71,1.9-.19,0-.39.02-.56.08-2.37.82-5.11,2.91-9,4.14h0c.61-4.23-.85-8.01-3.88-9.3-2.16-.81-3.83-.95-5.11-.65h0s13.15-5.47,13.15-5.47c.63-2.49,1.2-3.41,1.84-3.71Z" style="fill:#878586; stroke-width:0px;"/><path d="m223.06,268.13c3.03,1.29,4.49,5.07,3.88,9.29h0c-.71.23-1.46.42-2.25.58-2.16.42-4.65.53-7.56.06-.12-.02-.26-.06-.37-.1-1.91-.78-2.62-1.92-2.86-2.45-.04-.1-.08-.2-.1-.3-.02-.09-.03-.17-.03-.26-.03-1.25.11-6.52,4.17-7.46,1.28-.3,2.94-.16,5.11.65Z" style="fill:#878586; stroke-width:0px;"/><path d="m244.83,270.49s1.4.48,0,2.72c-1.41,2.22-8.34,2.24-9,2.34-.64.1-3.57,2-5.78,2.82-1.13.42-2.99.9-5.1,1.28l-.25-1.65c.79-.15,1.54-.35,2.25-.57,3.89-1.23,6.63-3.31,9-4.14.18-.06.37-.09.56-.08,4.75.17,6.63-1.03,7.71-1.9.27-.22.46-.51.54-.84l.06.02Z" style="fill:#878586; stroke-width:0px;"/><path d="m213.05,276.52c0-.54.28-1.04.74-1.32h.02c.02.1.05.2.1.3.24.53.96,1.68,2.86,2.45.11.05.25.08.37.1,2.91.47,5.39.37,7.56-.06l.25,1.65c-2.02.36-4.28.63-6.39.68-3.17.08-4.65-1.37-5.21-2.16-.19-.26-.29-.57-.29-.9v-.75Z" style="fill:#878586; stroke-width:0px;"/><path d="m235.04,207.01c.03,1.32.13,2.57.33,3.52-1.69,7.94-1.94,12.68-1.61,17.63.16,2.4,0,13.33-.3,21.44-.15,4.15-.33,7.56-.52,8.7h0" style="fill:none; stroke:#000; stroke-linecap:round; stroke-linejoin:round;"/><path d="m252.42,206.61c-.2,1.6-.45,3.19-.96,4.62,1.22,7.19-.17,14.58-.76,16.67-2.66,9.35-4.79,15.14-6,22.91-.43,2.72-.75,5.67-.93,9.11-.03.51-.06,1.05-.08,1.59" style="fill:none; stroke:#000; stroke-linecap:round; stroke-linejoin:round;"/><path d="m264.43,208.11c.19.81.35,1.71.46,2.85.3,3.21.12,5.9.37,9.19.57,7.54,1.31,15.28,2.96,22.7.46,2.04,1.01,4.56,1.42,7.46.49,3.53.78,7.63.45,12.17,0,.07-.01.14-.02.21" style="fill:none; stroke:#000; stroke-linecap:round; stroke-linejoin:round;"/><path d="m280.86,205.65c-.04,2.92-.24,5.57.11,7.49.6,3.23,1.76,5.54,2.15,9.11.62,5.62-1.24,15.37-1.82,25.83-.23,4.16-.26,8.43.15,12.59" style="fill:none; stroke:#000; stroke-linecap:round; stroke-linejoin:round;"/><path d="m269.35,268c.05.33.12.69.2,1.06.02.1.05.21.09.3,1.36,3.23,2.96,6.46,5.11,8.86,2.71,3.01,6.29,4.7,11.43,3.4,4.3-1.1,5.59-2.93,5.48-4.25-.01-.17-.06-.38-.16-.65-.23-.64-.68-1.54-1.36-2.6-1.2-1.88-3.12-4.25-5.66-6.48-.13-.12-.26-.27-.34-.43-.66-1.24-1.29-2.51-1.95-2.92" style="fill:none; stroke:#000; stroke-linecap:round; stroke-linejoin:round;"/><path d="m270.11,261.53s-2.01-.51-.76,6.46" style="fill:none; stroke:#000; stroke-linecap:round; stroke-linejoin:round;"/><path d="m274.75,278.22s.67-5.89,6.78-7.02c5.78-1.09,8.35,2.54,8.61,2.94.02.02.02.03.02.03" style="fill:none; stroke:#000; stroke-linecap:round; stroke-linejoin:round;"/><path d="m274.27,265.12c-.36.77-3.97.85-4.18-2.64-.02-.29-.02-.61.02-.95" style="fill:none; stroke:#000; stroke-linecap:round; stroke-linejoin:round;"/><path d="m274.27,265.12s-3.47-5.71,3.21-5.71c0,0,2.58-.2,3.97,1.27h0c.69.73,1.08,1.86.75,3.61-.07.38-.18.79-.33,1.24" style="fill:none; stroke:#000; stroke-linecap:round; stroke-linejoin:round;"/><path d="m291.51,276.73l.4.38c.32.3.38,2.39.38,2.82-.33,2.34-1.92,3.1-6.11,4.33-5.3,1.56-9.63-1.44-11.95-4.18-2.53-2.98-3.64-5.87-3.8-6.51-.02-.08-.05-.15-.08-.23l-1.22-2.78c-.04-.09-.06-.17-.09-.26-.1-.42-.32-1.61.3-2.3h0" style="fill:none; stroke:#000; stroke-linecap:round; stroke-linejoin:round;"/><path d="m243.69,259.93s.03,0,.08-.01c.37-.04,1.84-.07,1.55,2.09-.27,2.01-.49,6.43-.51,8.13,0,.11-.02.23-.04.34-.08.33-.27.62-.54.84-1.08.88-2.96,2.07-7.71,1.9-.19,0-.39.02-.56.08-2.37.82-5.11,2.91-9,4.14-.71.22-1.46.41-2.25.57-2.16.42-4.65.53-7.56.06-.12-.02-.26-.06-.37-.1-1.91-.78-2.62-1.92-2.86-2.45-.04-.1-.08-.2-.1-.3-.02-.09-.03-.17-.03-.26-.03-1.25.11-6.52,4.17-7.46,1.28-.3,2.94-.16,5.11.65,3.03,1.29,4.49,5.07,3.88,9.29" style="fill:none; stroke:#000; stroke-linecap:round; stroke-linejoin:round;"/><path d="m243.69,261.51c-.16.65-1.35,2.58-2.37,2.7-1.03.1-1.73-1.65-3.03-1.25-.24.07-.75.33-1.46.7-.71.37-1.6.86-2.58,1.4" style="fill:none; stroke:#000; stroke-linecap:round; stroke-linejoin:round;"/><path d="m236.82,263.64s1.82-4.51-2.58-5.35c-.48-.09-.9-.16-1.3.01-.64.29-1.2,1.22-1.84,3.71" style="fill:none; stroke:#000; stroke-linecap:round; stroke-linejoin:round;"/><line x1="231.1" y1="262.01" x2="217.96" y2="267.47" style="fill:none; stroke:#000; stroke-linecap:round; stroke-linejoin:round;"/><path d="m213.79,275.2c-.46.28-.74.78-.74,1.32v.75c0,.33.1.63.29.9.57.79,2.05,2.24,5.21,2.16,2.12-.05,4.37-.32,6.39-.68,2.12-.38,3.97-.86,5.1-1.28,2.21-.82,5.15-2.72,5.78-2.82.66-.1,7.59-.12,9-2.34,1.4-2.24,0-2.72,0-2.72" style="fill:none; stroke:#000; stroke-linecap:round; stroke-linejoin:round;"/><path d="m249.56,88.51c-8.92,2.67-14.15,4.82-16.38,7.4-2.85,3.29-5.89,18.13-6.87,20.84.71.93,1.62,1.62,2.76,2.18,1.77.88,4.11,1.46,7.25,2.13" style="fill:none; stroke:#000; stroke-linecap:round; stroke-linejoin:round;"/><path d="m268.68,89.08c1.41-.81,12.51,2.42,13.63,3.35,4.95,4.13,9.22,24.07,9.22,24.07.04.92-.82,1.72-2.17,2.44-3.18,1.69-9.04,2.88-11.84,3.87-.22.08-.42.15-.6.23-.58-6.29-.46-7.95-1-11.42" style="fill:none; stroke:#000; stroke-linecap:round; stroke-linejoin:round;"/><path d="m260.46,167.26c-.9.61-1.75,1.2-2.52,1.76-.18.13-.35.25-.53.38" style="fill:none; stroke:#000; stroke-linecap:round; stroke-linejoin:round;"/><path d="m266.4,163.19c-2.09,1.46-4.13,2.83-5.94,4.07" style="fill:none; stroke:#000; stroke-miterlimit:10;"/><path d="m289.36,118.93c-1.35,10.41-2.35,18.02-5.81,27.64-.78,2.17-2.47,4.42-4.66,6.65-3.43,3.48-8.09,6.91-12.49,9.97" style="fill:none; stroke:#000; stroke-linecap:round; stroke-linejoin:round;"/><path d="m229.06,118.93c-.75,12.33-.03,20.9,1.49,26.72.75,2.89,2.33,5.94,4.53,8.94,1.78,2.41,3.96,4.8,6.47,7.06,1.55,1.42,3.23,2.79,5.02,4.09" style="fill:none; stroke:#000; stroke-linecap:round; stroke-linejoin:round;"/><path d="m277.52,122.8c-.47,6.26-.99,10.27-1.97,15.47-.29,1.56-.6,3.15-1.32,4.55-.97,1.87-1.2,2.02-2.78,3.35-4.33,3.63-8.07,10.46-12.15,14.56-.13.14-.27.27-.4.39" style="fill:none; stroke:#000; stroke-linecap:round; stroke-linejoin:round;"/><path d="m237.18,140.03c4.34,5.82,7.7,12.4,11.62,18.55" style="fill:none; stroke:#000; stroke-linecap:round; stroke-linejoin:round;"/><path d="m259.36,160.81c1.39,1.73,1.8,4.26,1.05,6.37.04-.13.07-.25.11-.38" style="fill:none; stroke:#000; stroke-linecap:round; stroke-linejoin:round;"/><path d="m237.08,62.77c.04,1.18.17,2.48.46,3.83.99,4.76,2.32,7.58,5.8,10.75,2.53,2.3,4.73,4.39,7.01,5.77,4.37,2.67,9.03,2.79,16.85-2.93,1.37-1,2.84-2.19,4.43-3.58.12-.1.24-.21.37-.31" style="fill:none; stroke:#000; stroke-miterlimit:10;"/><path d="m277.99,66.79c-1.14,4.98-4.54,7.81-6.38,9.82-.07.07-.14.15-.2.23" style="fill:none; stroke:#000; stroke-miterlimit:10;"/><path d="m249.56,88.51c.03-.21.27-1.71.48-3.08.17-1.09.31-2.1.31-2.31" style="fill:none; stroke:#000; stroke-miterlimit:10;"/><line x1="236.75" y1="116.33" x2="236.77" y2="116.33" style="fill:none; stroke:#000; stroke-miterlimit:10;"/><line x1="228.48" y1="104.71" x2="228.49" y2="104.71" style="fill:none; stroke:#000; stroke-miterlimit:10;"/><path d="m249.56,88.51c.58,4.03,1.78,8.02,7.94,8.42,5.04.33,8.63-1.9,11.18-7.86" style="fill:none; stroke:#000; stroke-linecap:round; stroke-linejoin:round;"/><path d="m234.83,154.79c0,5.85-.41,4.94.32,5.3" style="fill:none; stroke:#000; stroke-miterlimit:10;"/><path d="m236.89,111.52c0,3.85.05,6.9.07,9.54.01,2.05,0,3.86-.07,5.61-.06,1.38.98,9.31.29,13.37" style="fill:none; stroke:#000; stroke-miterlimit:10;"/><path d="m278.89,153.22c-.04,7.19-.14,5.66-.03,7.07.01.09.02.2.03.33" style="fill:none; stroke:#000; stroke-miterlimit:10;"/><path d="m249.16,64.51c1.47,3.72,5.48,3.59,8.5,1.64" style="fill:none; stroke:#000; stroke-miterlimit:10;"/><path d="m246.03,55.01c.23,1.46-.24,2.73-1.03,2.85-.79.13-1.63-.95-1.86-2.41s.25-2.73,1.04-2.86c.79-.12,1.62.96,1.85,2.41Z" style="fill:none; stroke:#000; stroke-miterlimit:10;"/><path d="m263.19,54.74c-.19,1.49.31,2.78,1.11,2.88.81.1,1.62-1.01,1.82-2.51.19-1.49-.32-2.78-1.12-2.88-.8-.1-1.61,1.01-1.8,2.51Z" style="fill:none; stroke:#000; stroke-miterlimit:10;"/><path d="m247.89,71.35c4.7,2.48,15.89-.74,16.86-1.93-1.98,3.58-2.69,4.03-4.33,5.34-1.69,1.34-5.15,1.78-6.87,1.48-2.8-.47-4.1-1.92-5.3-4.6" style="fill:none; stroke:#000; stroke-miterlimit:10;"/><line x1="248.25" y1="71.64" x2="247.89" y2="71.35" style="fill:none; stroke:#000; stroke-miterlimit:10;"/><path d="m241.96,161.75c-.14-.03-.28-.07-.42-.1-2.01-.41-4.11-.18-6.4-1.56" style="fill:none; stroke:#000; stroke-miterlimit:10;"/><path d="m278.59,161.2c-4.36,1.51-4.74,1.96-12.19,1.98h0" style="fill:none; stroke:#000; stroke-miterlimit:10;"/><path d="m275.29,50.32c.13.32.25.65.37.98,1.8,5.1,2.32,10.98,2.33,15.49" style="fill:none; stroke:#000; stroke-miterlimit:10;"/><path d="m237.08,62.77c-.11-2.73-.33-19.93,2.21-25.73" style="fill:none; stroke:#000; stroke-miterlimit:10;"/><path d="m227.58,80.71c10.84-2.59-.64-20.78,5.38-38.65,1.84-5.47,3.28-11.42,7.66-15.04,4.39-3.62,14.21-4.14,19.82-3.99,8.12.2,19.11,6.97,21.18,15.04,6.82,26.64-4.55,39.06,9.25,41.84" style="fill:none; stroke:#000; stroke-miterlimit:10;"/><path d="m267.18,79.91c0,.09,0,.19,0,.29.02,1.25.19,3.04.45,4.72.28,1.78.66,3.44,1.04,4.16" style="fill:none; stroke:#000; stroke-miterlimit:10;"/><line x1="262.69" y1="208.16" x2="262.76" y2="207.78" style="fill:none; stroke:#000; stroke-miterlimit:10;"/><path d="m257.66,187.45c-.47,6.23-2.1,12.42-3.39,18.52-.63.23-1.24.45-1.85.63-7.02,2.25-12.64,1.96-17.39.41-2.19-.71-4.2-1.68-6.08-2.8,1.07-9.12,5.48-40.85,6.19-44.12" style="fill:none; stroke:#000; stroke-miterlimit:10;"/><path d="m259.39,207.15h0v-.03c1.22.23,2.33.46,3.37.67.57.12,1.13.23,1.67.33,3.39.63,6.28.89,10.42-.14,1.22-.3,3.7-1.24,6.01-2.32,2-.94,3.87-1.97,4.69-2.8,0,0-5.02-32.44-6.55-41.73h0c-.05-.3-.1-.58-.14-.83-.01-.07-.02-.14-.03-.2" style="fill:none; stroke:#000; stroke-miterlimit:10;"/><path d="m256.8,180.9c.35,1.69.68,3.99.97,6.54.97,8.37,1.58,19.37,1.62,19.7" style="fill:none; stroke:#000; stroke-miterlimit:10;"/><path d="m253.41,177.71c1.82,1.72,2.42,2.16,3.38,3.19" style="fill:none; stroke:#000; stroke-miterlimit:10;"/><path d="m290.88,79.91c-6.37,4.39-15.6,5.85-23.24,5l-.16-.02" style="fill:none; stroke:#000; stroke-miterlimit:10;"/><path d="m250.17,85.43s-.09,0-.13,0c-7.7.24-15.4-1.54-22.46-4.73" style="fill:none; stroke:#000; stroke-miterlimit:10;"/><path d="m239.29,37.04c3.2,4.99,8.56,8.44,14.31,9.22-.31-1.64-.61-3.28-.92-4.91,3.99,3.41,8.86,5.72,13.97,6.62-.6-1.74-1.21-3.48-1.81-5.22,3.04,3.51,6.73,6.42,10.81,8.54,1.4.73,2.84,1.37,4.32,1.91-.35-.16-.71-.32-1.07-.48" style="fill:none; stroke:#000; stroke-miterlimit:10;"/><path d="m248.78,48.64c-2.08-.79-7.34-.52-9.49.05" style="fill:none; stroke:#000; stroke-miterlimit:10;"/><path d="m261.87,49.08c2.04-.21,4.79-1.11,8.83.83" style="fill:none; stroke:#000; stroke-miterlimit:10;"/><path d="m258.89,161.13c-2.55-.68-4.18-3.79-6.8-4-1.22-.09-2.42.52-3.29,1.45-.21.22-.4.46-.57.71-.88,1.31-1.27,2.92-1.5,4.51-.1.63-.16,1.29-.16,1.93,0,.83.1,1.64.39,2.41.85,2.25,3.3,3.56,5.6,3.39,2.11-.16,3.99-.92,5.39-2.52" style="fill:none; stroke:#000; stroke-linecap:round; stroke-linejoin:round;"/><path d="m281.1,248.08c-3.22,2.16-7.33,2.97-11.12,2.18" style="fill:none; stroke:#000; stroke-linecap:round; stroke-linejoin:round;"/><path d="m244.64,250.8c-3.72.87-7.73.43-11.18-1.2-.08-.03-.16-.07-.23-.11" style="fill:none; stroke:#000; stroke-linecap:round; stroke-linejoin:round;"/></svg>