<?xml version="1.0" encoding="UTF-8"?><svg id="Layer_5" xmlns="http://www.w3.org/2000/svg" width="300" height="300" viewBox="0 0 300 300"><defs><style>.cls-1{stroke-linecap:round;stroke-linejoin:round;}.cls-1,.cls-2{stroke:#000;}.cls-1,.cls-2,.cls-3{fill:none;}.cls-2,.cls-3{stroke-miterlimit:10;}.cls-3{stroke:#fff;}.cls-4,.cls-5,.cls-6,.cls-7,.cls-8,.cls-9,.cls-10,.cls-11,.cls-12,.cls-13,.cls-14{stroke-width:0px;}.cls-5{fill:#4d0099;}.cls-6{fill:#54ab80;}.cls-7{fill:#adadad;}.cls-8{fill:#e1a639;}.cls-9{fill:#d8d8d7;}.cls-10{fill:#af877b;}.cls-11{fill:#332921;}.cls-12{fill:#fff;}.cls-13{fill:#ffcf69;}.cls-14{fill:#eb80ac;}</style></defs><path class="cls-14" d="m185.2,119.6c-1.3-1.3-2.4-4.1-2.6-5.7-.3-1.9-.8-14.1-3.3-23.6,0,0-.2-.4-.3-1h0c1.9-.9,4-1.2,6-1,0,0,.1,0,.2,0,.1.3.2.6.3,1,2.4,8,8.3,22.4,9.1,26.4.8,4.4-.3,11.2-.7,11.6s-8.7,3.6-11.2,3.1c-.6-5.6-3.6-9.2-4.7-10.3,0,0,5.7-1.4,7.3-.5Z"/><path class="cls-7" d="m194.7,285v4s-2.9,3.3-9.3,4.2c-6.3,1-9.6-2-9.6-2l-.3-3.1.7-.8h0c0,.2,0,.4,0,.5.3.8,2.4,3.8,8.4,2.9,5.4-.8,9.8-3.3,10-5.9h0Z"/><path class="cls-9" d="m194.6,284.3c0,.2,0,.5,0,.7-.2,2.5-4.6,5-10,5.9-5.9.9-8.1-2.2-8.4-2.9,0-.1,0-.3,0-.5,0-.9.1-2.4.6-3.8h0s2.4-3.4,5.7-4.9h0c1.1-.5,2.2-.8,3.4-.7,1.4.1,2.6.5,3.7,1,2.6,1.2,4.1,3.2,4.3,3.5,0,0,0,0,0,0,.2.6.4,1.1.5,1.6Z"/><path class="cls-9" d="m190.8,273.7c.3,3.5,2.2,6.5,3.3,8.9-.3-.3-1.8-2.3-4.3-3.5-.3-.1-1.5-3.2-1.7-4.8.3-.4.5-.7.6-1.1,1.6-1.9,1.2-4.3-.4-5.5,0-.8-.1-1.6-.2-2.4h.1c2,2.3,2.2,4.1,2.6,8.4Z"/><path class="cls-10" d="m184,82.8v-.2h1.8s.7-3.4.7-3.4v-3.8h.3s2.2,2.7,2.4,3.7c.2,1,.9,6.4.4,7.2-.5.8-2.1,2.9-2.1,2.9h-2.1c-.1-.2-.2-.6-.3-.9,0,0-.1,0-.2,0-2-.3-4.1,0-6,.9h0s0,0,0,0c-.6-1.8-1.4-5.5,1.3-6,1.1-.2,2.6-.4,3.9-.4Z"/><path class="cls-9" d="m188,274.4c.2,1.6,1.5,4.7,1.7,4.8-1.1-.5-2.3-.9-3.7-1-1.2,0-2.4.2-3.4.7.1-.2,1.1-2.6.5-4.9-.7-2.3-.9-5.3,2.6-5.2,3,0,3.7,2.5,3,4.5-.2.4-.4.8-.6,1.1Z"/><path class="cls-9" d="m188.2,267.7c1.6,1.2,2,3.6.4,5.5.8-2.1,0-4.5-3-4.5-3.6,0-3.3,2.9-2.6,5.2-.9-1.1-1.5-2.5-1.5-3.8s.9-2.8,3.2-3.2c1.5-.2,2.7.1,3.5.8Z"/><path class="cls-6" d="m180.6,265.4c-2-8-6.6-15.8-7.8-20.5-1.1-4.1-1.3-9-1.3-9-1.4-1.4-4-6.4-5.3-9.1-.5-1-.8-1.6-.8-1.6v-.3c2.3,0,4.6-.2,6.8-.4,3.3-.4,6.7-1,9.7-2.5,0,0,.7,1.8,1.1,8.9,1.8,2.1,2.8,3.9,3.3,9.4.4,5,1,16.2,1.6,25.2,0,.8.1,1.6.2,2.4-.8-.7-2-1-3.5-.8-2.3.4-3.2,1.7-3.2,3.2-.2-1.6-.5-3.2-.9-4.7Z"/><polygon class="cls-5" points="186.6 12.5 186.6 34.7 162.8 34.6 163 12.3 186.6 12.5"/><polygon class="cls-5" points="186.6 34.7 186.5 55.7 162.5 55.7 162.8 34.6 186.6 34.7"/><path class="cls-5" d="m186.5,55.7v19.7c0,0,0,3.8,0,3.8h-11s-6.9,0-6.9,0c-.8-2.1-2-4-3.6-6.1-.8-1.1-1.7-2.1-2.6-2.9v-14.5h24.1Z"/><path class="cls-5" d="m186.5,79.2l-.7,3.4h-1.8s-6.5,0-6.5,0h-7.9c-.2-1.2-.5-2.3-1-3.4h6.9c0,0,11,0,11,0Z"/><path class="cls-13" d="m185.3,214c-.7,3.3-.3,6.3-3.3,7.9-3,1.6-6.3,2.2-9.7,2.5-2.3.2-4.6.4-6.8.4-7.1.1-14.2-.8-21-2.6-1.5-.4-3-.9-4.6-1.3-3.1-1-6.3-2-9.5-2.5-3.1-.5-5.2-.3-7.5.5-1.3.5-2.6,1.1-4.2,1.9,4.6-14.6,11.9-37.7,11.9-37.7l.9-3c.7-5.8,1.2-11.7,1-17.4,12.2,1,24.6.2,36.6-2.4h.3c.7,4.9,1.7,10.8,3.3,17.7,3.1,13.9,4.2,24.6,12.6,36Z"/><path class="cls-9" d="m183,273.9c.7,2.2-.4,4.7-.5,4.9h0c-3.4,1.5-5.7,4.9-5.7,4.9h0c0-.2.2-.4.3-.6,3.3-5.6,2.1-11.6,1.9-14-.2-2.1,1.2-3.3,1.7-3.7.4,1.6.7,3.2.9,4.7,0,1.3.6,2.7,1.5,3.8Z"/><path class="cls-8" d="m182.6,130.4c.3,2.7,0,5.8-1.2,9.2-1-.2-2.1-.4-3.1-.5h0c2.1-6.2,1-13.7-3.1-18.7h0c1.3-.4,2.4-.7,2.4-.7l.4.4c1.1,1.1,4.1,4.8,4.7,10.3Z"/><path class="cls-13" d="m126.2,138.6c-3.1-3.6-5,0-9.5.3-1.8-6.2-2.2-12.8,3.7-18.9l5,1.5h0c1.9-.8,5.3-1.9,7.2-1.4,1.7.5,4.1,1.7,5.6,2.6h0c-1.2.2-1.6,2.6-1.6,3.8,0,2-.2,4.1-.3,6.1,0,1.2-.1,2.4.4,3.5.9,2.1,3.2,3.1,5.4,3.7,3.5.9,7.2,1.1,10.7.7,1.9-.2,3.9-.7,5-2.3.9-1.3.8-2.9.8-4.5-.1-3.5.2-7.5,0-11,1.5-1,4.1-2.6,5.7-2.7.6,0,1.3,0,2,0,1.6,0,3.6.4,5.3.9.2,0,2.1-.4,3.7-.8h0c4.1,5.2,5.3,12.6,3.1,18.8h0c-3.9-.7-7.4-1.1-8.8,0-.8,3.2-1.3,8.1-.6,15.8h-.3c-11.6,4-24.4,4.8-36.4,2.1-.7-6.4-2.4-12.6-6.1-18.4Z"/><path class="cls-10" d="m137.3,110.9h0c1.1,2.1,2.4,3.1,5,3.5,1.6.2,4.9-.1,6.5-1.1,1.6-1,2.2-1.3,4.1-3.9-.9.9-10.9,3.1-15.5,1.6Zm4.3,11.2c-2.5-.6-4.9-2.5-8.1-5.4-3.7-3.3-4.9-8.5-5.4-13.6-.6-6.2-1.3-7.7-1.3-7.7-.1-.4-.2-.8-.2-1.1-.6-2.3-.2.3-.3-3.1-.3-7.5,1.8-15.6,14.2-13.6,4.8-2,20.2-5.6,24.4,16.9,1-1.3,3-1.3,4.2-.2,1.2,1.1,1.6,2.9,1.5,4.5,0,.9-.3,1.8-.9,2.5-.5.6-1.2,1-1.9,1.2-.9.3-2,.3-2.9.2-.7,10.4-6.6,13-8.4,14.2-.8.5-1.6,1-2.3,1.4-5.2,3-8.5,4.3-11.4,4-.4,0-.8-.1-1.2-.2Zm12.5-27c0-1.8-.8-3.2-1.6-3.2s-1.6,1.4-1.6,3.2.7,3.2,1.6,3.2,1.6-1.4,1.6-3.2Zm-18.6,0c0-1.5-.6-2.8-1.3-2.8s-1.3,1.3-1.3,2.8.6,2.8,1.3,2.8,1.3-1.3,1.3-2.8Z"/><path class="cls-11" d="m169.6,82.5c.6,3.1.4,6.8-.5,11.7-1.2-1.1-3.2-1.1-4.2.2-4.2-22.5-19.6-18.9-24.4-16.9-1.1-4.5,2.8-10.9,6.1-11.8h0c6.3-.2,11.7.7,15.9,4.5.9.8,1.8,1.8,2.6,2.9,1.6,2.1,2.8,4,3.6,6.1.4,1.1.7,2.2,1,3.3Z"/><path class="cls-8" d="m169.5,160.2h-.3c-12,2.6-24.4,3.4-36.6,2.4,0-1.9-.2-3.7-.4-5.6,12,2.7,24.7,1.9,36.4-2.1h.3c.1,1.6.3,3.3.6,5.2Z"/><path class="cls-11" d="m166.1,120.1h0c-.8,0-1.5,0-2,0-1.6.1-4.2,1.7-5.7,2.7-.7.4-1.1.8-1.1.8-.8-1.5-2.2-1.8-2.2-1.8h-1c0-1.7,0-3.6,0-3.6.7-.4,1.5-.9,2.3-1.4,1.8-1.1,7.7-3.8,8.4-14.2,1,0,2,0,2.9-.2-.9,2.1-2.1,3.8-3.5,5.6,1.3,3.8,1.8,7.4,1.8,12.1Z"/><path class="cls-8" d="m165.5,225.1s.3.7.8,1.6c-10.5,2.4-20,1.9-30.7,1.1-.3-1.1,4.4-7,4.4-7,1.5.5,3,.9,4.6,1.3,6.8,1.9,13.9,2.7,21,2.6v.3Z"/><polygon class="cls-5" points="163 12.3 162.8 34.6 136.3 34.5 136.7 12.2 163 12.3"/><polygon class="cls-5" points="162.8 34.6 162.5 55.7 136 55.7 136.3 34.5 162.8 34.6"/><path class="cls-5" d="m162.5,55.7v14.5c-4.4-3.7-9.7-4.7-16-4.5-.7,0-1.4,0-2.1,0-2.7.1-6.1.9-8.7,2v-1.5s.2-10.5.2-10.5h26.6Z"/><path class="cls-14" d="m158.4,122.8c.1,3.5-.2,7.5,0,11,0,1.5,0,3.2-.8,4.5-1.1,1.6-3.1,2.1-5,2.3-3.6.4-7.2.2-10.7-.7-2.2-.6-4.6-1.6-5.4-3.7-.5-1.1-.4-2.3-.4-3.5,0-2,.2-4.1.3-6.1,0-1.2.5-3.6,1.6-3.7h0c.9.4,1.4.8,1.4.8,0,0,1.4,7.2,8.5,7.4,7.1.2,8.6-6.9,9.3-7.4,0,0,.4-.3,1.1-.8Z"/><path class="cls-14" d="m142.6,125.3c.8,1.1,2.4,2.7,5.5,3.2,3.6.6,5.4-2.7,6.1-4.5-.1-.5-.1-1.3-.2-2.2h1s1.4.3,2.2,1.8c-.7.5-2.2,7.6-9.3,7.4-7.1-.2-8.5-7.4-8.5-7.4,0,0,1.8-1.4,2-1.5.4.1.8.2,1.2.2h0s0,.9-.2,3.1Z"/><path class="cls-10" d="m154.2,118.2s-.1,1.9,0,3.6c0,.9,0,1.7.2,2.2-.7,1.9-2.5,5.1-6.1,4.5-3.1-.5-4.7-2.1-5.5-3.2.2-2.2.2-3.1.2-3.1h0c2.9.2,6.2-1,11.4-4.1Z"/><ellipse class="cls-4" cx="152.5" cy="95.1" rx="1.6" ry="3.2"/><path class="cls-12" d="m152.9,109.3c-1.9,2.6-2.5,3-4.1,3.9-1.6,1-4.9,1.3-6.5,1.1-2.6-.4-3.9-1.4-5-3.4h0c4.6,1.5,14.7-.8,15.5-1.6Z"/><path class="cls-11" d="m146.5,65.6h0c-3.2,1-7.2,7.4-6.1,11.9-12.3-2-14.4,6.1-14.2,13.6.2,3.4-.2.8.3,3.1h-.3c-.3-.1-.7-.1-1.1.2-.4-4.8-.5-8.8-.1-12.1.2-1.3.4-2.4.7-3.5,1.2-4.6,3.7-7.7,7.9-10.1.6-.4,1.3-.7,2-1,2.6-1.1,6-1.9,8.7-2,.7,0,1.4,0,2.1,0Z"/><path class="cls-7" d="m140,287.8c.5,2.4-.4,3.5-.4,3.5,0,0-6.5,2.6-12.4,3.1-5.9.5-13.3-2.5-13.3-2.5l-.4-2.5.9-1.2h0c0,.3,0,.6,0,.7.8,1.2,6.1,1.8,11.5,2.3,4.2.4,9.4-.8,12.1-1.8.8-.3,1.4-.6,1.7-.8.2-.1.3-.4.3-.8h0Z"/><path class="cls-9" d="m136.3,275.4c-.1-.8-.2-1.6-.3-2.4.6,0,2.3.3,2.5,1.2.2,1,1.9,10.7,1.4,13.6,0,.4-.2.7-.3.8-.3.2-.9.5-1.7.8,0-5.2-3.5-7.6-6.4-8.8l2.5-4.5s0-.1.1-.3c0,0,1.2-.2,2.1-.5Z"/><path class="cls-9" d="m131.6,280.6c2.9,1.2,6.4,3.6,6.4,8.8-2.7,1-7.9,2.2-12.1,1.8-5.4-.5-10.7-1.1-11.5-2.3,0-.2,0-.4,0-.7,0-1.7.9-4.9,4.1-6.9,1.1-.7,2.4-1.2,4.1-1.5,1.4-.3,3-.3,4.8-.2,0,0,1.9.2,4.1,1Z"/><path class="cls-6" d="m136,273c0,.8.2,1.7.3,2.4-.9.3-2.1.5-2.1.5.2-.7.8-2.4.3-3.5-.6-1.4-2.8-2.8-4.1-2.8-1,0-3.4.5-4.1,2.8,0,0,0,0-.1,0,.2-8.7-4.8-30.2-5.2-34.2-.3-4.1,1.2-11.3,1.6-13.2,0-1.2.5-5.9.5-5.9l-.2-.4c2.3-.8,4.4-1,7.5-.5,3.2.6,6.4,1.6,9.5,2.5,0,0-4.7,5.9-4.4,7,.3,1,2.1,8,1.8,12.6-.3,4.3-2.5,20.3-1.5,32.5Z"/><polygon class="cls-5" points="136.7 12.2 136.3 34.5 111.8 34.5 112.4 12 136.7 12.2"/><polygon class="cls-5" points="136.3 34.5 136 55.7 111.3 55.7 111.8 34.5 136.3 34.5"/><path class="cls-5" d="m136,55.7l-.2,10.5v1.5c-.8.3-1.5.6-2.1,1-4.2,2.4-6.7,5.5-7.9,10.1h-15c0-.1.1.6.1.6h-.2l.6-23.7h24.7Z"/><path class="cls-9" d="m134.5,272.4c.5,1.1,0,2.9-.3,3.5,0,.2-.1.3-.1.3l-2.5,4.5c-2.2-.9-4.1-1-4.1-1-1.9-.2-3.5,0-4.8.2h0c0-.1,2.7-2.7,3.7-4.2-.2-1-.3-1.9-.1-2.6,0-.2,0-.4.1-.5.7-2.3,3.1-2.7,4.1-2.8,1.3,0,3.5,1.4,4.1,2.8Z"/><ellipse class="cls-4" cx="134.2" cy="95.1" rx="1.3" ry="2.8"/><path class="cls-10" d="m126.8,95.3s.7,1.5,1.3,7.7c-.9,0-4.2-.8-4.2-4.3s.6-3.9,1.3-4.3c.4-.3.8-.3,1.1-.1h.3c0,.2.1.6.2,1Z"/><path class="cls-9" d="m126.3,272.4c0,.2-.1.4-.1.5,0-.2,0-.3,0-.5,0,0,.1,0,.1,0Z"/><path class="cls-9" d="m126.2,272.5c0,.2,0,.3,0,.5-.1.7,0,1.6.1,2.6-1.1,1.5-3.7,4.1-3.7,4.1h0c-1.7.4-3.1,1-4.1,1.6,0,0,5.1-5,5.7-6.5.6-1.2,1.6-2.1,2-2.3Z"/><path class="cls-5" d="m110.9,79.4v-.8c-.1,0,14.9.1,14.9.1-.3,1.1-.5,2.3-.7,3.5h-7s-6.8,0-6.8,0l-.4-2.8Z"/><path class="cls-8" d="m123,218.8l.2.4s-.5,4.7-.5,5.9c-3.1-1-3.1-3.8-3.9-4.3,1.6-.8,2.9-1.5,4.2-1.9Z"/><path class="cls-10" d="m117.3,82.8c1.1,0,2.1.2,3.1.5.6.2,1.1.4,1.5.8s.5.7.4,1.2c-.5,2-.9,4-1.2,5.9h-.1c-3-1.6-5.3-1.8-7.7-.4.2-.7.3-1.3.4-1.8,0-.3,0-.5.1-.7h0c-.5-.1-1.1-.2-1.8-.3-1.1-.2-2.3-.4-2.9-.9-.4-.6.5-5.8.5-6.2s1-1.4,1-1.4h.2l.4,2.8h6.8s-1.8.5-1.8.5c-1.5,0-3,.5-3.9.9l3.9-.9c.4,0,.7,0,1,0h0Z"/><path class="cls-14" d="m117,119c.6.2,1.2.5,1.6.7h0c-1.1.6-5.1,2.9-5.3,10.8h-.1c-1.7,0-6.6-3.1-7.5-3.9-.9-.8-.7-6.9,0-10.7.6-3.3,5.9-18.1,7.6-25,2.4-1.5,4.7-1.2,7.7.4h.1c-2.6,13.7-2.7,23.6-4.1,27.9Z"/><path class="cls-8" d="m118.9,119.7l1.4.4c-5.9,6-5.4,12.7-3.7,18.9-.7,0-1.5,0-2.3-.1-.8-3.3-1.1-6.1-1-8.4.2-7.8,4.1-10.1,5.3-10.6.2,0,.3-.1.3-.1Z"/><path class="cls-5" d="m116.3,82.7l-3.9.9c.9-.4,2.3-.9,3.9-.9Z"/><polyline class="cls-3" points="110.9 79.4 110.7 79.4 111.3 55.7"/><polyline class="cls-3" points="135.7 67.7 135.8 66.2 136 55.7"/><line class="cls-3" x1="162.5" y1="55.7" x2="136" y2="55.7"/><polyline class="cls-3" points="186.5 55.7 186.5 75.3 186.5 79.2 175.5 79.2"/><line class="cls-3" x1="162.4" y1="70.1" x2="162.5" y2="55.7"/><polyline class="cls-3" points="186.6 34.7 186.5 55.7 162.5 55.7 162.8 34.6"/><polyline class="cls-3" points="163 12.3 186.6 12.5 186.6 34.7 162.8 34.6"/><polyline class="cls-3" points="136.7 12.2 163 12.3 162.8 34.6 136.3 34.5"/><polyline class="cls-3" points="136.3 34.5 136 55.7 111.3 55.7 111.8 34.5"/><polygon class="cls-3" points="136.3 34.5 111.8 34.5 112.4 12 136.7 12.2 136.3 34.5"/><polyline class="cls-3" points="186.5 79.2 185.8 82.6 184 82.6 177.5 82.5"/><line class="cls-3" x1="168.6" y1="79.1" x2="175.5" y2="79.2"/><polyline class="cls-3" points="125 82.3 118.1 82.3 111.2 82.3 110.9 79.4 110.8 78.7 125.8 78.8"/><line class="cls-3" x1="177.5" y1="82.5" x2="169.6" y2="82.5"/><path class="cls-2" d="m186.8,75.3s2.2,2.7,2.4,3.7c.2,1,.9,6.4.4,7.2-.5.8-2.1,2.9-2.1,2.9h-1.7"/><path class="cls-2" d="m184.8,87c.1.4.2.8.3,1.3.1.3.2.6.3,1,2.4,8,8.3,22.4,9.1,26.4.8,4.4-.3,11.2-.7,11.6s-8.7,3.6-11.2,3.1h0"/><path class="cls-2" d="m185.2,119.6c.2.3.5.4.7.6"/><path class="cls-2" d="m179.2,90.2c2.5,9.5,3,21.7,3.3,23.6.3,1.6,1.4,4.4,2.6,5.7"/><path class="cls-2" d="m177.9,120s5.7-1.4,7.3-.5h0"/><path class="cls-2" d="m179.2,90.2s-.2-.4-.3-1h0c-.6-1.8-1.4-5.5,1.3-6,1.1-.2,2.6-.4,3.9-.4s1.7.1,2.3.4"/><path class="cls-2" d="m113.8,88.2c.5.1.8.3,1,.5"/><path class="cls-2" d="m110.7,79.4s-1,.9-1,1.4-.9,5.6-.5,6.2c.6.5,1.8.7,2.9.9.7.1,1.3.2,1.8.3"/><path class="cls-2" d="m113.8,88.2h0c0,.2,0,.4-.1.7,0,.5-.2,1.1-.4,1.8-1.7,6.9-7,21.7-7.6,25-.7,3.8-.9,9.9,0,10.7.9.8,5.9,3.9,7.5,3.9"/><path class="cls-2" d="m114.8,118.3s1.1.3,2.2.7c.6.2,1.2.5,1.6.7"/><path class="cls-2" d="m117.2,82.8h.2c1.1,0,2.1.2,3.1.5.6.2,1.1.4,1.5.8s.5.7.4,1.2c-.5,2-.9,4-1.2,5.9-2.6,13.7-2.7,23.5-4.1,27.8"/><path class="cls-2" d="m142.8,122.3s0,.8-.2,3.1"/><path class="cls-2" d="m154.2,118.2s-.1,1.9,0,3.6c0,.9,0,1.7.2,2.2"/><path class="cls-2" d="m141.6,122h0c-.3.1-2,1.6-2,1.6,0,0,1.4,7.2,8.5,7.4,7.1.2,8.6-6.9,9.3-7.4-.8-1.5-2.2-1.8-2.2-1.8h-.9"/><path class="cls-2" d="m154.6,122.8s-.1.5-.4,1.2c-.7,1.9-2.5,5.1-6.1,4.5-3.1-.5-4.7-2.1-5.5-3.2-.5-.7-.7-1.2-.7-1.2"/><path class="cls-2" d="m157.3,123.6s.4-.3,1.1-.8c1.5-1,4.1-2.6,5.7-2.7.6,0,1.3,0,2,0,1.6,0,3.6.4,5.3.9.7.2,1.4.5,1.9.8"/><path class="cls-2" d="m171.4,121c.2,0,2.1-.4,3.7-.8,1.3-.3,2.4-.6,2.4-.6l.4.4c1.1,1.1,4.1,4.8,4.7,10.3.3,2.7,0,5.8-1.2,9.2-1-.2-2.1-.4-3.1-.5-3.9-.7-7.4-1.1-8.8,0,0,0,0,0,0,0"/><path class="cls-2" d="m139.6,123.6s-.6-.4-1.4-.9c-1.5-.9-3.8-2.1-5.6-2.6-1.9-.5-5.3.7-7.2,1.4-.9.3-1.4.6-1.4.6"/><path class="cls-2" d="m125.4,121.5l-5-1.5-1.4-.4s-.1,0-.3.1c-1.1.5-5.1,2.8-5.3,10.6,0,2.3.2,5.1,1,8.4.8.1,1.6.2,2.3.1,4.5-.4,6.4-3.9,9.5-.3,0,0,0,0,0,.1"/><path class="cls-2" d="m131.6,180c.7-5.8,1.2-11.7,1-17.4,0-1.9-.2-3.7-.4-5.6-.7-6.4-2.4-12.6-6.1-18.4-.9-1.4-1.8-2.8-2.9-4.2"/><path class="cls-2" d="m185.3,214c-8.4-11.5-9.5-22.2-12.6-36-1.6-7-2.6-12.8-3.3-17.8-.3-1.9-.5-3.6-.6-5.3-.7-7.7-.3-12.6.6-15.8,1.5-5.6,4.3-5.7,4.6-5.8"/><path class="cls-2" d="m131.6,180l-.9,3s-7.3,23.1-11.9,37.7c.8.5.8,3.3,3.9,4.3"/><path class="cls-2" d="m123.2,219.2s-.5,4.7-.5,5.9c-.4,1.9-1.9,9.1-1.6,13.2.4,4,5.3,25.5,5.2,34.2,0,.2,0,.3,0,.5"/><path class="cls-2" d="m140,220.9s-4.7,5.9-4.4,7c.3,1,2.1,8,1.8,12.6-.3,4.3-2.5,20.3-1.5,32.5,0,.8.2,1.7.3,2.4,0,0,0,0,0,.1"/><path class="cls-2" d="m182,221.9s.7,1.8,1.1,8.9"/><path class="cls-2" d="m165.5,225.1s.3.7.8,1.6c1.3,2.6,3.9,7.6,5.3,9.1,0,0,.2,4.9,1.3,9,1.2,4.8,5.7,12.5,7.8,20.5.4,1.6.7,3.2.9,4.7"/><path class="cls-2" d="m188.2,267.9c0,0,0-.1,0-.2,0-.8-.1-1.6-.2-2.4-.6-9-1.2-20.2-1.6-25.2-.5-5.5-1.5-7.2-3.3-9.4"/><path class="cls-2" d="m194,282.7c-1-2.5-2.9-5.4-3.3-8.9-.4-4.3-.6-6.1-2.6-8.4"/><path class="cls-2" d="m180.8,265.3s0,0-.1.1c-.4.3-1.9,1.6-1.7,3.7.2,2.4,1.4,8.4-1.9,14-.1.2-.2.4-.3.6-.5,1.3-.7,2.9-.6,3.8,0,.2,0,.4,0,.5.3.8,2.4,3.8,8.4,2.9,5.4-.8,9.8-3.3,10-5.9,0-.2,0-.5,0-.7-.1-.5-.3-1.1-.5-1.6"/><path class="cls-2" d="m176.1,287.5l-.7.8.3,3.1s3.2,3,9.6,2c6.3-1,9.3-4.2,9.3-4.2v-4"/><path class="cls-2" d="m135.8,273s.1,0,.3,0c.6,0,2.3.3,2.5,1.2.2,1,1.9,10.7,1.4,13.6,0,.4-.2.7-.3.8-.3.2-.9.5-1.7.8-2.7,1-7.9,2.2-12.1,1.8-5.4-.5-10.7-1.1-11.5-2.3,0-.2,0-.4,0-.7,0-1.7.9-4.9,4.1-6.9,1.1-.7,2.4-1.2,4.1-1.5,1.4-.3,3-.3,4.8-.2,0,0,1.9.2,4.1,1,2.9,1.2,6.4,3.6,6.4,8.8"/><path class="cls-2" d="m131.6,280.6l2.5-4.5s0-.1.1-.3c.2-.7.8-2.4.3-3.5-.6-1.4-2.8-2.8-4.1-2.8-1,0-3.4.5-4.1,2.8,0,.2-.1.4-.1.5-.1.7,0,1.6.1,2.6-1.1,1.5-3.7,4.1-3.7,4.1"/><path class="cls-2" d="m126.3,272.4s0,0-.1,0c-.4.3-1.4,1.1-2,2.3-.7,1.5-5.7,6.5-5.7,6.5"/><path class="cls-2" d="m134.2,275.9s1.2-.2,2.1-.5c.4-.2.7-.3.8-.6"/><path class="cls-2" d="m114.3,288.2l-.9,1.2.4,2.5s7.4,3,13.3,2.5c5.9-.5,12.4-3.1,12.4-3.1,0,0,.9-1.2.4-3.5"/><path class="cls-2" d="m182.6,278.8c1.1-.5,2.2-.8,3.4-.7,1.4.1,2.6.5,3.7,1,2.6,1.2,4.1,3.2,4.3,3.5,0,0,0,0,0,0"/><path class="cls-2" d="m176.8,283.7s2.4-3.4,5.7-4.9"/><path class="cls-2" d="m182.5,278.8h0c.1-.3,1.1-2.7.5-4.9-.7-2.3-.9-5.3,2.6-5.2,3,0,3.7,2.5,3,4.5-.2.4-.4.8-.6,1.1.2,1.6,1.5,4.7,1.7,4.8"/><path class="cls-2" d="m183,273.9c-.9-1.1-1.5-2.5-1.5-3.8s.9-2.8,3.2-3.2c1.5-.2,2.7.1,3.5.8,1.6,1.2,2,3.6.4,5.5"/><path class="cls-2" d="m111.5,84.1s.4-.2,1-.5c.9-.4,2.3-.9,3.9-.9s.7,0,1,0"/><path class="cls-1" d="m126.3,91.1c.2,3.4-.2.8.3,3.1,0,.3.1.6.2,1.1,0,0,.7,1.5,1.3,7.7.5,5.1,1.7,10.3,5.4,13.6,3.2,2.9,5.6,4.7,8.1,5.4.4.1.8.2,1.2.2,2.9.3,6.2-1,11.4-4,.7-.4,1.5-.9,2.3-1.4,1.8-1.1,7.7-3.8,8.4-14.2"/><ellipse class="cls-1" cx="134.2" cy="95.1" rx="1.3" ry="2.8"/><ellipse class="cls-1" cx="152.5" cy="95.1" rx="1.6" ry="3.2"/><path class="cls-1" d="m140.1,104c0,1.7,4.6,1.8,6.2,1.7"/><path class="cls-1" d="m136.9,110.7c.1,0,.3.1.4.1,4.6,1.6,14.7-.7,15.5-1.6-1.9,2.6-2.5,3-4.1,3.9-1.6,1-4.9,1.3-6.5,1.1-2.6-.4-3.9-1.4-5-3.4"/><path class="cls-1" d="m164.9,94.4c1-1.3,3-1.3,4.2-.2,1.2,1.1,1.6,2.9,1.5,4.5,0,.9-.3,1.8-.9,2.5-.5.6-1.2,1-1.9,1.2-.9.3-2,.3-2.9.2"/><path class="cls-1" d="m126.3,94.3c-.3-.2-.7-.2-1.1.1-.7.5-1.3,1.8-1.3,4.3s3.3,4.3,4.2,4.3"/><path class="cls-1" d="m167.9,102.2c0,0,0,.2-.1.2-.9,2.1-2.1,3.8-3.5,5.6"/><path class="cls-1" d="m164.3,108c1.3,3.8,1.8,7.4,1.8,12.1"/><path class="cls-1" d="m131.1,89.3c1.6-1.9,4.7-1.7,6.3-.7"/><path class="cls-1" d="m149.1,88.1c2.6-1.9,6.2-1,6.7.6"/><path class="cls-1" d="m146.5,65.6c-.7,0-1.4,0-2.1,0-2.7.1-6.1.9-8.7,2-.8.3-1.4.6-2,1-4.2,2.4-6.7,5.5-7.9,10.1-.3,1.1-.5,2.3-.7,3.5-.4,3.3-.3,7.3.1,12.1"/><path class="cls-2" d="m162.4,70.1c-4.2-3.7-9.6-4.7-15.9-4.5"/><path class="cls-1" d="m169.1,94.2c.9-4.9,1.1-8.6.5-11.7-.2-1.2-.5-2.3-1-3.3-.8-2.1-2-4-3.6-6.1-.8-1.1-1.7-2.1-2.6-2.9"/><path class="cls-1" d="m140.4,77.5c-1.1-4.5,2.8-10.9,6.1-11.8"/><path class="cls-1" d="m126.3,91.1c-.3-7.5,1.8-15.6,14.2-13.6,4.8-2,20.2-5.6,24.4,16.9"/><path class="cls-2" d="m118.8,220.8c1.6-.8,2.9-1.5,4.2-1.9,2.3-.8,4.4-1,7.5-.5,3.2.6,6.4,1.6,9.5,2.5,1.5.5,3,.9,4.6,1.3,6.8,1.9,13.9,2.7,21,2.6,2.3,0,4.6-.2,6.8-.4,3.3-.4,6.7-1,9.7-2.5,3-1.6,2.6-4.6,3.3-7.9"/><path class="cls-2" d="m138.1,122.8c-1.2,0-1.6,2.5-1.6,3.7,0,2-.2,4.1-.3,6.1,0,1.2-.1,2.4.4,3.5.9,2.1,3.2,3.1,5.4,3.7,3.5.9,7.2,1.1,10.7.7,1.9-.2,3.9-.7,5-2.3.9-1.3.8-2.9.8-4.5-.1-3.5.2-7.5,0-11"/><path class="cls-2" d="m132,157c0,0,.1,0,.2,0,12,2.7,24.7,1.9,36.4-2.1"/><path class="cls-2" d="m132.5,162.6h0c12.2,1,24.6.2,36.6-2.4"/><path class="cls-2" d="m113.4,90.8c2.4-1.5,4.7-1.2,7.7.4"/><path class="cls-2" d="m185.4,88.3c0,0-.2,0-.3,0"/><path class="cls-2" d="m185.2,88.3c0,0-.1,0-.2,0"/><path class="cls-2" d="m179,89.2c1.9-.9,4-1.2,6-.9"/><path class="cls-2" d="m135.6,227.9c10.7.7,20.2,1.3,30.7-1.1"/><path class="cls-2" d="m120.4,120.1c-5.9,6-5.4,12.7-3.7,18.9h0"/><path class="cls-2" d="m175.1,120.4c4.1,5,5.3,12.5,3.1,18.7"/></svg>