<?xml version="1.0" encoding="UTF-8"?><svg xmlns="http://www.w3.org/2000/svg" width="300" height="300" viewBox="0 0 300 300"><defs><style>.cls-1{stroke-linejoin:round;}.cls-1,.cls-2{stroke-linecap:round;}.cls-1,.cls-2,.cls-3{fill:none;stroke:#000;}.cls-2,.cls-4,.cls-5,.cls-3{stroke-miterlimit:10;}.cls-4{fill:#3246ff;}.cls-4,.cls-5{stroke:#fff;stroke-width:4.2px;}.cls-5{fill:#4d0099;}.cls-6,.cls-7,.cls-8,.cls-9,.cls-10,.cls-11,.cls-12,.cls-13{stroke-width:0px;}.cls-7{fill:#f3f1f1;}.cls-8{fill:#f8ad3b;}.cls-9{fill:#3b2310;}.cls-10{fill:#17baac;}.cls-11{fill:#af52c2;}.cls-12{fill:#c27558;}.cls-13{fill:#fff;}</style></defs><g id="Layer_5"><rect class="cls-4" x="41.8" y="183.7" width="70.4" height="76.5"/><rect class="cls-4" x="112.3" y="183.7" width="76.5" height="76.5"/><rect class="cls-4" x="112.3" y="114.3" width="76.5" height="69.4"/><rect class="cls-4" x="188.7" y="183.7" width="69.4" height="76.5"/><rect class="cls-4" x="188.7" y="114.3" width="69.4" height="69.4"/><rect class="cls-4" x="188.7" y="39.8" width="69.4" height="74.5"/><rect class="cls-4" x="112.3" y="39.8" width="76.5" height="74.5"/><rect class="cls-4" x="41.8" y="114.3" width="70.4" height="69.4"/><rect class="cls-5" x="41.8" y="39.8" width="70.4" height="74.5"/></g><g id="Layer_2"><path class="cls-8" d="m281.6,133.7c.4-2,2.3-1.5,2.9-1s.6,1.6,0,2.2c-.5.6-1.5.7-2.2.3-.5-.3-.9-.9-.8-1.5Z"/><path class="cls-6" d="m267.4,141.6c0-2.1.8-3.8,1.9-3.8s1.9,1.7,1.9,3.8-.9,3.8-1.9,3.8-1.9-1.7-1.9-3.8Z"/><path class="cls-10" d="m212.3,216.9v.2c1.4,9.2,3.4,18.2,6.7,26.9,0,0,0,.2,0,.3-5.8-5.9-10.5-12.7-14-20.1,1.1-3.9,2.2-7,3.4-8.8,1.1.7,2.5,1.2,3.9,1.6Z"/><path class="cls-9" d="m253.4,184.8h0s0,0,.1,0c0,0,0,0-.1,0Z"/><path class="cls-10" d="m253.3,200c-2.7.9-5.3.3-5.9-1.4-.5-1.6,1.3-3.6,4-4.5,2.7-.9,5.3-.3,5.9,1.4.5,1.6-1.3,3.6-4,4.5Z"/><path class="cls-10" d="m220.2,247.2l.4-.2c1.2,2.2,2.6,4.3,4,6.4-3.3,1.2-6.6,1.5-9.8.8-5-1-9.9-4-14.7-8.4.9-4.2,1.8-8.4,2.7-12.3h0c4.1,6.3,10.3,11.2,17.4,13.7Z"/><path class="cls-12" d="m246.2,141.4c0,1.9.7,3.4,1.6,3.4s1.6-1.5,1.6-3.4-.7-3.4-1.6-3.4-1.6,1.5-1.6,3.4Zm-1-8.3c.3,0,4.7.4,5.4.4.9,0,1.6-.8,1.6-1.7,0-.8-.7-1.6-1.5-1.9-2.1-.9-4.4.1-5.9,1.5-.2.2-.4.4-.5.7-.1.3,0,.6.1.8.2.2.6.3.9.2Zm22.8,24c-1.1,1.1-11.5,3.6-16.7,1.3,1.4,2.5,2.8,3.9,5.9,4.4,1.9.3,5-.5,6.9-1.8,1.8-1.2,1.8-.5,4-3.9Zm21.5-12.4c-.5,3.5-4.3,8.4-7,7.4-1.4,5.1-1.1,3.8-4.1,7.6-1.6,1.6-3.1,3-4.5,4.2-8.4,7.2-13.7,7.9-17.6,6.1-3.9-1.8-6.4-6.1-9.3-9.2-2.8-3-4.4-6.5-5.3-9.8-1.5-5.6-.9-10.4-.9-10.4-.1-.6-.2-1.2-.3-1.8-.4-3.6,0-7.6.2-10.7,0-2.9,2.7-4.6,3.8-5.4,1.6-1.2,2.3-3.6,4.2-4.3,2.5-.8,4.8,2.2,7.5,2.1,2.5,0,4.4-2.6,6.8-2.6,2.4,0,4.2,2.6,6.5,3.2,1.5.4,3.1-.2,4.7-.3s3.5.5,3.9,2c.3,1.2-.4,2.5-.3,3.8-.3-.1-.6-.3-.8-.3-.7-.3-1.6-.2-2,.5-.5.8,0,1.8.6,2.6.8,1.2,1.1,1.6,1.9,2.8.1.2.3.5.5.8.3.8.2,1.8-1.5,3.4-.7.6-1.6,1.5-1.5,2.4.3,1.3,1.8,1.9,3.8,1.2.2,0,.5-.1.8-.1,1,0,2.2.3,2.9,1.5.6,1.1,1.7,4.4,2.9,4.2,1.2-.2,1.3-1.8,1.4-3,0-1.2.3-2.2.4-3.2.6.5,1.2,1.2,1.6,2,.6,1.2,1,2.4.8,3.4Zm-22.1-3c0,2.1.8,3.8,1.9,3.8s1.9-1.7,1.9-3.8-.9-3.8-1.9-3.8-1.9,1.7-1.9,3.8Zm4.8-12.2c-1.7-.4-7.3-.6-6.5,2.1.2.6.8,1.1,1.5,1.2.7,0,2.4-.3,3.1-.3,1.8,0,3.1.2,5.1.4.6,0,1-.3.7-.9-.4-.9-1.7-1.9-3.8-2.4Z"/><path class="cls-9" d="m289,141.4h-.4c-.4-.9-1-1.6-1.6-2.1,0-.1,0-.3,0-.4,0-1.2.1-1.9,3.2-2.5.4,0,.8-.2,1.3-.3.1,2.3-.6,4.7-2.5,5.4Z"/><path class="cls-12" d="m274,168.9c-4.8,1.3-8.3,5.4-12.6,7.9-1,.6-2.1,1.1-3.2,1.2-1.2,0-2.4-.3-3.1-1.3.2-.5.4-.9.5-1.4.5-1.7.8-3.5.6-5.2h0c3.9,1.8,9.2,1.1,17.6-6.1h0s0,3,0,4.4c0,.3,0,.6,0,.7Z"/><path class="cls-9" d="m238.5,138.6c-.5-3.8-.9-5.3-1.4-9.1-.3-2.2-.5-4.5.2-6.6.7-2,2.3-3.5,3.1-5.5.9-2.3.8-5.3,2.4-7.1,2.2-2.5,6-1,9-1.7,3.9-1,6.6-5.7,10.6-5.9,3.1-.1,5.7,2.7,8.8,3.2,2.3.4,4.8-.4,6.7,1.2,2.1,1.7,2.1,5.4,3.9,7.5,1.9,2.1,5.3,2,6.8,4.5,1.5,2.4.4,5.6.7,8.5.1,1.5.6,2.9,1.1,4.3-2-1.1-3.3-3.5-3.3-5.4,0-.7,0-1.6-.7-1.8-1.5-.6-3.3,3.1-4.7,3.3,0,0,0,0-.1,0-.6,0-2.6-.8-3.8-1.3-.1-1.2.6-2.5.3-3.8-.4-1.5-2.3-2.1-3.9-2s-3.2.6-4.7.3c-2.4-.6-4.1-3.1-6.5-3.2-2.5,0-4.4,2.6-6.8,2.6-2.7,0-5-3-7.5-2.1-1.9.6-2.6,3.1-4.2,4.3-1.1.8-3.8,2.5-3.8,5.4-.1,3.2-.6,7.1-.2,10.7-.3-.2-1.3-.3-2-.2Z"/><path class="cls-10" d="m236.9,207.4c-2.7.9-5.3.3-5.9-1.4-.5-1.6,1.3-3.6,4-4.5,2.7-.9,5.3-.3,5.9,1.4.5,1.6-1.3,3.6-4,4.5Z"/><path class="cls-9" d="m212.1,271.7c.7-.9.1-2.5-.8-3.1-.9-.5-.4-.4-1.2-.3,0,0-.1,0-.2,0l-8,.5c-1.1,0-2.3.1-3.4-.1-1.1-.3-2.2-.9-2.7-1.9-.2-.4-.3-.8-.4-1.2,0-.3-.1-.6-.2-.9-.2-.7-.5-1.4-1.2-1.8-.6-.4-2.3,1-2.4,1.7-.2,1.2-3.6,2.4-4.7,3-1.1.6-3.7,1.3-4.9,1.5-2.6.2-4.4.9-7,1.7-2.2.7-4.1,3.5-4.4,8.2h-.3c-1-.4-1.4,1.7-1.1,2.7.3,1,2.2,1.7,3.2,2.1,3.5,1.5,7.5.7,11.3.3,3.8-.3,9.5-1.7,13.3-1.4,3.4.3,6.5.9,9.8.7,1.3,0,4.1-1.1,5.2-1.9,1.1-.8.3-2,0-3.3.5-2.5.5-4,.3-6.6Z"/><path class="cls-12" d="m201.9,268.8c-1.1,0-2.3.1-3.4-.1s-2.2-.9-2.7-1.9c-.2-.4-.3-.8-.4-1.2,1.6-5.6,3.2-12.7,4.7-19.8,4.9,4.4,9.7,7.4,14.7,8.4-1.8,5.5-5,8.2-4.7,13.9v.2s-.1,0-.2,0l-8,.5Z"/><path class="cls-9" d="m274,168.9s0,0,0,0c0,0,0,0,0,0Z"/><path class="cls-7" d="m264,160.9c-1.9,1.3-5,2-6.9,1.8-3.1-.4-4.5-1.8-5.9-4.4,5.2,2.4,15.7-.2,16.7-1.3-2.2,3.4-2.1,2.6-4,3.9Z"/><path class="cls-10" d="m261.4,176.8c4.3-2.5,7.8-6.5,12.6-7.9,0,0,0,0,0,0,0,0,0,0,0,0,0,0,0-.3,0-.7,2.1,1.1,3.7,2.5,5.1,4.1-2.1,1.7-4.3,2.3-6.8,3.4-2,.9-4.3,2-6.4,2.9h0c-4.6.1-6.5,2-12.3,6.1-1.4-.1-2.8-.8-3.8-1.8,1.5-3,3.6-5.5,5.7-7.8h0s.2,0,.2,0c-.1.5-.3,1-.5,1.4.7,1,1.9,1.4,3.1,1.3,1.2,0,2.2-.6,3.2-1.2Z"/><path class="cls-12" d="m241.3,151.2c-.8,0-1.5-.3-2.1-.9s-.9-1.3-1.2-2c-1-2.4-1.4-5-1.1-7.6,0-.6.2-1.3.6-1.8.1-.2.6-.3,1-.4.8,0,1.7,0,2,.2,0,.6.2,1.2.3,1.8,0,0-.6,4.8.9,10.4h-.5Z"/><path class="cls-10" d="m228,219.5c-2.5.9-5,1.6-7.4,1.9-.8-1.1-1.6-2.2-2.3-3.3-3.1-5.1-4.4-10.6-2.8-16.5,1-.4,2-.8,3.1-1.1,1.6-.6,3.3-1.2,5-1.8.8,7,2.9,14.2,7.3,19.7-1,.4-2,.8-2.9,1.2Z"/><path class="cls-12" d="m214.4,199.1c1-.3,2.1-.3,3.1.1.4.2.7.4,1,.7l.2.5c-1.1.4-2.1.8-3.1,1.1-1.6,5.9-.3,11.5,2.8,16.5-1.2,0-3.6-.3-6-1-1.4-.4-2.7-1-3.9-1.6-1.6-.9-2.8-2.1-3-3.5,0,0-1.4-6.9,4.4-10.7,1.2-.8,3.3-1.6,4.7-2Z"/><path class="cls-9" d="m275.3,132.8c-2-.2-3.3-.4-5.1-.4-.7,0-2.4.4-3.1.3-.7-.1-1.3-.6-1.5-1.2-.8-2.7,4.8-2.6,6.5-2.1,2.1.6,3.4,1.5,3.8,2.4.3.6,0,1-.7.9Z"/><path class="cls-11" d="m279,172.4c-2.1,1.7-4.3,2.3-6.8,3.4-2,.9-4.3,2-6.4,2.9h0c-4.6.1-6.5,2-12.3,6.1,0,0,0,0,.1,0,0,0,0,0-.1,0,0,0,0,0,0,0-1.4-.1-2.8-.8-3.8-1.8,1.5-3,3.6-5.5,5.7-7.8-11,8.8-25.3,17.8-37.9,24,.4.2.7.4,1,.7l.2.5c1.6-.6,3.3-1.2,5-1.8.8,7,2.9,14.2,7.3,19.7,4.4-1.9,8.7-4.2,12.5-5.9-.3,15.1-1.3,13.8-2.9,23.7h0c-3.7-5.3-7.5-10.4-12.5-16.6-2.5.9-5,1.6-7.4,1.9-.8-1.1-1.6-2.2-2.3-3.3-1.2,0-3.6-.3-6-1v.2c1.4,9.2,3.4,18.2,6.7,26.9,0,0,0,.2,0,.3-5.8-5.9-10.5-12.7-14-20.1-.8,2.8-1.5,5.9-2.3,9.3h0c4.1,6.3,10.3,11.2,17.4,13.7l.4-.2c1.2,2.2,2.6,4.3,4,6.4,3.2,4.8,6.9,9.6,10.6,15.2,2.7,4,5.9,8,10.3,9.8,4.5,1.9,13.7,1.8,18.3,0,5.9-2.2,9.8-8,11.5-14.1,1.6-6.1,3-16.9,3.6-23.2,1.4-14.7.2-18.8,2.4-31.2,1.9-10.6,6-27.9-2.3-37.6Zm-42.1,35c-2.7.9-5.3.3-5.9-1.4-.5-1.6,1.3-3.6,4-4.5,2.7-.9,5.3-.3,5.9,1.4.5,1.6-1.3,3.6-4,4.5Zm16.3-7.3c-2.7.9-5.3.3-5.9-1.4-.5-1.6,1.3-3.6,4-4.5,2.7-.9,5.3-.3,5.9,1.4.5,1.6-1.3,3.6-4,4.5Z"/><path class="cls-9" d="m245.2,133c-.3,0-.7,0-.9-.2-.2-.2-.2-.5-.1-.8,0-.3.3-.5.5-.7,1.5-1.4,3.9-2.4,5.9-1.5.8.3,1.4,1.1,1.5,1.9,0,.8-.7,1.6-1.6,1.7-.7,0-5-.5-5.4-.4Z"/><path class="cls-6" d="m247.8,144.7c-.9,0-1.6-1.5-1.6-3.4s.7-3.4,1.6-3.4,1.6,1.5,1.6,3.4-.7,3.4-1.6,3.4Z"/><path class="cls-13" d="m293.7,133.3c-.4-.6-2.6-1.1-3.2-1.4,0,0,0,0-.1,0-2-1.1-3.3-3.5-3.3-5.4,0-.7,0-1.6-.7-1.8-1.5-.6-3.3,3.1-4.7,3.3,0,0,0,0-.1,0-.6,0-2.6-.8-3.8-1.3-.3-.1-.6-.3-.8-.3-.7-.3-1.6-.2-2,.5-.5.8,0,1.8.6,2.6.8,1.2,1.1,1.6,1.9,2.8.1.2.3.5.5.8.3.8.2,1.8-1.5,3.4-.7.6-1.6,1.5-1.5,2.4.3,1.3,1.8,1.9,3.8,1.2.2,0,.5-.1.8-.1,1,0,2.2.3,2.9,1.5.6,1.1,1.7,4.4,2.9,4.2,1.2-.2,1.3-1.8,1.4-3,0-1.2.3-2.2.4-3.2,0-.1,0-.3,0-.4,0-1.2.1-1.9,3.2-2.5.4,0,.8-.2,1.3-.3.5-.1,1-.3,1.4-.5.8-.4,1.3-1.5.8-2.2Zm-9.2-.5c.6.5.6,1.6,0,2.2-.5.6-1.5.7-2.2.3-.5-.3-.9-.9-.8-1.5.4-2,2.3-1.5,2.9-1Z"/><path class="cls-3" d="m253.4,184.8c-.2.2-.5.3-.7.5-1.5,1.1-3.1,2.1-4.8,3-7.2,4.1-16.2,7.3-24.3,10.2-1.7.6-3.4,1.2-5,1.8-1.1.4-2.1.8-3.1,1.1-2.2.8-4.2,1.6-6,2.3"/><path class="cls-3" d="m265.8,178.7c-4.6.1-6.5,2-12.3,6.1h0"/><path class="cls-3" d="m270.2,178.9c-1.7-.2-3.1-.3-4.4-.3"/><path class="cls-3" d="m255.4,175.2c-2.1,2.3-4.2,4.8-5.7,7.8-.8,1.6-1.5,3.4-1.8,5.3"/><path class="cls-3" d="m243.5,212.2c0,0,0,.2,0,.3-.3,15.1-1.3,13.8-2.9,23.7"/><path class="cls-3" d="m218.4,243c.2.3.3.7.5,1,.5,1,1.1,2,1.6,3,1.2,2.2,2.6,4.3,4,6.4,3.2,4.8,6.9,9.6,10.6,15.2,2.7,4,5.9,8,10.3,9.8,4.5,1.9,13.7,1.8,18.3,0,5.9-2.2,9.8-8,11.5-14.1,1.6-6.1,3-16.9,3.6-23.2,1.4-14.7.2-18.8,2.4-31.2,1.9-10.6,6-27.9-2.3-37.6-1.3-1.6-3-3-5.1-4.1,0,0,0,0,0,0"/><path class="cls-3" d="m227.8,219.3c0,0,.1.1.2.2,5,6.2,8.8,11.3,12.5,16.7,3.2,4.6,6.2,9.4,9.7,15.3"/><path class="cls-3" d="m217.8,199.8c.2,0,.4,0,.6,0-.3-.3-.6-.5-1-.7-.9-.4-2.1-.4-3.1-.1-1.4.4-3.4,1.2-4.7,2-5.8,3.8-4.4,10.7-4.4,10.7.2,1.4,1.4,2.6,3,3.5,1.1.7,2.5,1.2,3.9,1.6,2.4.8,4.9,1.1,6,1,0,0,0,0,.1,0"/><path class="cls-3" d="m214.8,254.1c3.2.6,6.5.4,9.8-.8"/><path class="cls-3" d="m200.1,245.8c4.9,4.4,9.7,7.4,14.7,8.4"/><path class="cls-2" d="m200.1,245.8c-1.5,7.2-3.1,14.3-4.7,19.8"/><path class="cls-3" d="m208.5,215.2s0,0,0,.1c-1.2,1.8-2.3,4.9-3.4,8.8-.8,2.8-1.5,5.9-2.3,9.3-.9,3.9-1.8,8.1-2.7,12.3"/><path class="cls-3" d="m215.5,201.5c-1.6,5.9-.3,11.5,2.8,16.5.7,1.1,1.5,2.3,2.3,3.3,2.3-.2,4.8-.9,7.4-1.9,1-.4,2-.8,2.9-1.2,4.4-1.9,8.7-4.2,12.5-5.9,1-.4,1.9-.8,2.8-1.1,9.3-3.4,13.3-5.7,21.5-11.2"/><path class="cls-3" d="m255.4,175.2h0c-11,8.8-25.3,17.8-37.9,24h-.1"/><path class="cls-3" d="m186,280.6c.5-4,.3-6.6-.3-8.4-.9-2.6-2.6-3.1-3.8-3-2.6.2-4.4.9-7,1.7-2.2.7-4.1,3.5-4.4,8.2,0,0,0,.1,0,.2,3.2,2.4,7.2,2.7,11.1,2.3,1.2-.1,2.8-.4,4.5-.6,3.8-.6,8.1-1.3,10.9-1.1,2.5.2,5.3.2,7.8.5,2.5.2,5-.6,7.1-2"/><path class="cls-2" d="m185.8,272.2c2.8-1.4,7.5-3.1,10-5.4"/><path class="cls-3" d="m170.2,279.1c-1-.3-1.4,1.7-1.1,2.7.3,1,2.2,1.7,3.2,2.1,3.5,1.5,7.5.7,11.3.3,3.8-.3,9.5-1.7,13.3-1.4,3.4.3,6.5.9,9.8.7,1.3,0,4.1-1.1,5.2-1.9,1.1-.8.3-2,0-3.3"/><path class="cls-3" d="m181.9,269.2c1.2-.2,3.8-.9,4.9-1.5s4.5-1.8,4.7-3"/><path class="cls-2" d="m211.9,278.3c.5-2.5.5-4,.3-6.6.7-.9.1-2.5-.8-3.1-.9-.5-.4-.4-1.2-.3,0,0-.1,0-.2,0l-8,.5c-1.1,0-2.3.1-3.4-.1s-2.2-.9-2.7-1.9c-.2-.4-.3-.8-.4-1.2,0-.3-.1-.6-.2-.9-.2-.7-.5-1.4-1.2-1.8-.6-.4-2.3,1-2.4,1.7"/><path class="cls-3" d="m214.8,254.1c-1.8,5.5-5,8.2-4.7,13.9"/><path class="cls-1" d="m240.7,128c-.1,3.2-.6,7.1-.2,10.7,0,.6.2,1.2.3,1.8,0,0-.6,4.8.9,10.4.9,3.2,2.4,6.8,5.3,9.8,2.9,3.1,5.4,7.4,9.3,9.2,3.9,1.9,9.2,1.1,17.6-6.1,1.4-1.2,2.9-2.6,4.5-4.2"/><path class="cls-1" d="m274.1,168.9s0,0,0,0c0,0,0,0,0,0,0,0,0-.3,0-.7,0-1.4,0-4.4,0-4.4"/><path class="cls-1" d="m249.4,141.4c0,1.9-.7,3.4-1.6,3.4s-1.6-1.5-1.6-3.4.7-3.4,1.6-3.4,1.6,1.5,1.6,3.4Z"/><path class="cls-1" d="m271.2,141.6c0,2.1-.9,3.8-1.9,3.8s-1.9-1.7-1.9-3.8.8-3.8,1.9-3.8,1.9,1.7,1.9,3.8Z"/><path class="cls-1" d="m252.1,150.5c.6,4.8,4.8,3.4,8.2,3.4"/><path class="cls-1" d="m251.2,158.3c5.2,2.4,15.7-.2,16.7-1.3-2.2,3.4-2.1,2.6-4,3.9-1.9,1.3-5,2-6.9,1.8-3.1-.4-4.5-1.8-5.9-4.4Z"/><path class="cls-1" d="m287,139.2c.6.5,1.2,1.2,1.6,2,.6,1.2,1,2.4.8,3.4-.5,3.5-4.3,8.4-7,7.4-1.4,5.1-1.1,3.8-4.1,7.6-.1.1-.2.3-.4.5"/><path class="cls-1" d="m265.6,131.6c.2.6.8,1.1,1.5,1.2.7,0,2.4-.3,3.1-.3,1.8,0,3.1.2,5.1.4.6,0,1-.3.7-.9-.4-.9-1.7-1.9-3.8-2.4-1.7-.4-7.3-.6-6.5,2.1Z"/><path class="cls-1" d="m250.6,129.9c.8.3,1.4,1.1,1.5,1.9,0,.8-.7,1.6-1.6,1.7-.7,0-5-.5-5.4-.4-.3,0-.7,0-.9-.2-.2-.2-.2-.5-.1-.8,0-.3.3-.5.5-.7,1.5-1.4,3.9-2.4,5.9-1.5Z"/><path class="cls-1" d="m240.5,138.8c-.3-.2-1.3-.3-2-.2-.5,0-.9.2-1,.4-.4.5-.5,1.2-.6,1.8-.3,2.6.1,5.2,1.1,7.6.3.7.6,1.4,1.2,2s1.3.9,2.1.9"/><path class="cls-1" d="m290.4,131.8c-.5-1.4-.9-2.8-1.1-4.3-.2-2.9.8-6.1-.7-8.5-1.6-2.5-4.9-2.4-6.8-4.5-1.8-2.1-1.8-5.8-3.9-7.5-1.9-1.5-4.4-.8-6.7-1.2-3.1-.6-5.7-3.3-8.8-3.2-4,.1-6.7,4.9-10.6,5.9-3.1.8-6.8-.8-9,1.7-1.6,1.8-1.5,4.8-2.4,7.1-.8,2-2.4,3.4-3.1,5.5-.7,2.1-.5,4.4-.2,6.6.5,3.8.9,5.3,1.4,9.1"/><path class="cls-1" d="m289,141.4c1.9-.6,2.6-3.1,2.5-5.4"/><path class="cls-1" d="m277.8,126.6c-.1-1.2.6-2.5.3-3.8-.4-1.5-2.3-2.1-3.9-2s-3.2.6-4.7.3c-2.4-.6-4.1-3.1-6.5-3.2-2.5,0-4.4,2.6-6.8,2.6-2.7,0-5-3-7.5-2.1-1.9.6-2.6,3.1-4.2,4.3-1.1.8-3.8,2.5-3.8,5.4"/><path class="cls-1" d="m281.7,127.9c1.4-.3,3.2-4,4.7-3.3.6.3.7,1.1.7,1.8,0,2,1.2,4.4,3.3,5.4h.1c.6.4,2.8.9,3.2,1.5.5.7,0,1.8-.8,2.2-.4.2-.9.4-1.4.5-.4.1-.9.2-1.3.3-3.1.6-3.2,1.3-3.2,2.5,0,.1,0,.3,0,.4,0,1-.3,1.9-.4,3.2,0,1.2-.2,2.8-1.4,3-1.3.2-2.3-3-2.9-4.2-.7-1.2-1.9-1.5-2.9-1.5-.3,0-.6,0-.8.1-2,.7-3.5,0-3.8-1.2,0-.9.9-1.8,1.5-2.4,1.7-1.6,1.8-2.6,1.5-3.4-.1-.3-.3-.6-.5-.8-.8-1.2-1.1-1.6-1.9-2.8-.5-.8-1.1-1.8-.6-2.6.4-.7,1.3-.8,2-.5.2,0,.4.2.8.3,1.2.5,3.2,1.3,3.8,1.3,0,0,0,0,.1,0Z"/><path class="cls-1" d="m281.6,133.7c.4-2,2.3-1.5,2.9-1s.6,1.6,0,2.2c-.5.6-1.5.7-2.2.3-.5-.3-.9-.9-.8-1.5Z"/><path class="cls-1" d="m288.7,131c-1-.1-2,.2-2.7.9"/><path class="cls-1" d="m281.8,128c-.5.4-.9,1-.9,1.7,0,.2,0,.5,0,.7"/><path class="cls-1" d="m278.1,132.9c.3.5.8.9,1.4,1.2.2,0,.4.1.6.2"/><path class="cls-1" d="m279.5,139.7c.4-.2.7-.3,1.1-.5.8-.4,1.6-1,2.4-1.6"/><path class="cls-1" d="m286.7,138.1c0-.8-.2-1.6-.8-2.3,0,0,.2.2.3.3"/><path class="cls-3" d="m255.6,175.3c.5-1.7.8-3.5.6-5.2"/><path class="cls-1" d="m274,168.9c-4.8,1.3-8.3,5.4-12.6,7.9-1,.6-2.1,1.1-3.2,1.2-1.2,0-2.4-.3-3.1-1.3.2-.5.4-.9.5-1.4"/><path class="cls-3" d="m274.5,168.8c-.2,0-.3,0-.4.1,0,0,0,0,0,0"/><path class="cls-3" d="m279.1,172.2s0,0-.1.1c-2.1,1.7-4.3,2.3-6.8,3.4-2,.9-4.3,2-6.4,2.9h0c-.1,0-.3.1-.4.2"/><path class="cls-3" d="m249.6,182.9h0c1,1.1,2.4,1.8,3.8,1.9,0,0,0,0,.1,0,0,0,0,0-.1,0h0c0,0-.1,0-.2,0"/><path class="cls-3" d="m223.6,198.6h0c.8,7.1,2.9,14.3,7.3,19.7,0,0,0,.1.1.2"/><path class="cls-3" d="m202.8,233.4c4.1,6.3,10.3,11.2,17.4,13.7-.1-.2-.2-.4-.4-.6"/><path class="cls-3" d="m212.2,217.1c1.4,9.2,3.5,18.2,6.8,26.9,0,0,0,.2,0,.3-5.8-5.9-10.5-12.7-14-20.1,0,0,0,0,0,0"/><path class="cls-3" d="m240.9,202.8c.5,1.6-1.3,3.6-4,4.5-2.7.9-5.3.3-5.9-1.4-.5-1.6,1.3-3.6,4-4.5,2.7-.9,5.3-.3,5.9,1.4Z"/><path class="cls-3" d="m257.3,195.5c.5,1.6-1.3,3.6-4,4.5s-5.3.3-5.9-1.4c-.5-1.6,1.3-3.6,4-4.5,2.7-.9,5.3-.3,5.9,1.4Z"/></g></svg>