<?xml version="1.0" encoding="UTF-8"?><svg xmlns="http://www.w3.org/2000/svg" width="300" height="300" viewBox="0 0 300 300"><defs><style>.cls-1{stroke-linecap:round;stroke-linejoin:round;}.cls-1,.cls-2,.cls-3{fill:none;}.cls-1,.cls-3{stroke:#000;}.cls-2,.cls-4,.cls-5,.cls-6,.cls-7,.cls-8,.cls-9,.cls-10,.cls-11,.cls-12{stroke-width:0px;}.cls-13{fill:#3246ff;}.cls-13,.cls-14{stroke:#fff;stroke-width:4.2px;}.cls-13,.cls-14,.cls-3{stroke-miterlimit:10;}.cls-14{fill:#4d0099;}.cls-5{fill:#271c0a;}.cls-6{fill:#25190a;}.cls-7{fill:#cb302e;}.cls-8{fill:#dca16f;}.cls-9{fill:#c00702;}.cls-10{fill:#cdb65a;}.cls-11{fill:#332921;}.cls-12{fill:#fff;}</style></defs><g id="Layer_5"><rect class="cls-2" x="1.8" y="1" width="298.4" height="289"/><rect class="cls-13" x="41.8" y="183.7" width="70.4" height="76.5"/><rect class="cls-13" x="112.3" y="183.7" width="76.5" height="76.5"/><rect class="cls-14" x="112.3" y="114.3" width="76.5" height="69.4"/><rect class="cls-13" x="188.7" y="183.7" width="69.4" height="76.5"/><rect class="cls-13" x="188.7" y="114.3" width="69.4" height="69.4"/><rect class="cls-13" x="188.7" y="39.8" width="69.4" height="74.5"/><rect class="cls-14" x="112.3" y="39.8" width="76.5" height="74.5"/><rect class="cls-14" x="41.8" y="114.3" width="70.4" height="69.4"/><rect class="cls-14" x="41.8" y="39.8" width="70.4" height="74.5"/></g><g id="Layer_2"><path class="cls-6" d="m247.1,183.8l-.2,2.9c-3.9-.2-7.7-.7-11.3-1.3l.4-2.9c3.5.6,7.3,1,11.1,1.3Z"/><path class="cls-6" d="m250.5,183.9l-.2,2.9c-1.2,0-2.3,0-3.4-.2l.2-2.9c1.1,0,2.3.1,3.4.2Z"/><path class="cls-6" d="m251.3,172.5l-.2,3.1c-4.8-.1-9.6-.6-14-1.3l.4-3.3c4.4.8,9.1,1.4,13.8,1.5Z"/><path class="cls-12" d="m264.2,140.4l.2.2c-2.2,2-4.7,3.9-7.7,6h0c-1.6-1.7-4.5-5.2-5.8-6.9,4.4.2,8.9.5,13.4.8Z"/><path class="cls-6" d="m283.5,182.4h0c-1.6.7-3.4,1.3-5.3,1.8l-.5-3c1.8-.5,3.5-1.1,5.1-1.7h.2c.2,1,.4,2,.6,2.9Z"/><path class="cls-6" d="m256.2,146.9c2.9-.2,5.8-.4,8.6-.9-1.3,1.5-2.5,3.2-3.8,4.9-4.6.7-8.6,1-12.5.9-.8,0-1.6,0-2.4,0-.8,0-1.5-.1-3-.4-1-1.7-2-3.4-3-5h0c1.5.2,3.2.4,4.9.5,0,0,.2.1.2.2,0,0-.1-.1-.2-.2,3.5.3,7.2.3,11,.1Z"/><path class="cls-12" d="m274,125.3c-.3,1.8-.7,3.6-1,5.2h0c-1,1.5-2,2.8-2.9,4h0c-3.6-2.9-5.5-3.9-9.5-7.7t0,0c0,0,0-.2-.1-.2,2.1-1.4,5.9-5.2,8.7-8l.2-.2c1.5,2,2.9,4.2,4.6,6.9Z"/><path class="cls-6" d="m281.2,171h0c-5,2-10.9,3.4-17.1,4.1l-.2-2.9c6-.6,11.7-1.8,16.7-3.9h.1c.2.9.4,1.8.6,2.7Z"/><path class="cls-7" d="m275.6,116c-.4,2.9-1,6.2-1.6,9.3-1.7-2.7-3.2-4.9-4.6-6.9-1.6-2.2-3.1-4-5-6-1.7-1.8-3.6-3.7-6-5.9h0c2.9.1,5.8.2,9.3,0,2.8,3.2,3.8,7.1,7.8,9.7Z"/><path class="cls-12" d="m250.5,113.4c-3.9.3-8.4,0-12.1,0h0c2.1-2.5,4.5-4.8,6.4-6.7,1.7,2.4,3.6,4.7,5.7,6.7Z"/><path class="cls-11" d="m229.1,54.4c-1.4-15.5.8-22.9,9.1-27.7,2.9-1.7,7.8-3,11.6-3.2.8,0,1.5,0,2.2,0h0c-3.5,1.1-7.4,6-6.2,10.9h0c-.8,0-1.5.2-2.3.3-.6.1-1.2.2-1.8.4-4.8,1.1-7.8,3.5-9.5,6.5-.5.9-.9,1.9-1.2,2.9-.3.9-.5,1.9-.6,3-.1,1.2-.2,2.4-.1,3.5.2,3.7-.3.9.3,3.4h-.3c-.3-.1-.8-.1-1.2.2Z"/><path class="cls-6" d="m236,182.5l-.4,2.9c-2.8-.5-5.5-1.1-7.9-1.8h-.2c.1-1,.2-2,.4-2.9h.2c2.4.7,5,1.3,7.8,1.8Z"/><path class="cls-9" d="m254.6,134.1c3.6,2.1,6,4.2,9.6,6.3-4.5-.3-9-.5-13.4-.8-.3-.4-.5-.7-.6-.9h0c1.3-1.3,2.7-2.8,4.2-4.4,0,0,0,0,0,0h0s0,0,0,0c0-.1.2-.2.3-.3Z"/><path class="cls-11" d="m245.8,34.3c-1.2-4.9,2.8-9.8,6.2-10.8h0c8.3-.2,15,1.3,19.9,7.9,4.9,6.6,6.4,11.6,4.3,22.8-1.3-1.2-3.5-1.2-4.6.2-.5-2.8-1.1-5.2-2-7.3-.4-1-.9-2-1.4-2.9-.5-.8-1-1.5-1.5-2.2-3.3-4.3-7.6-6.2-11.5-7.1-1.5-.3-3-.5-4.3-.6-1.6-.1-3-.1-4-.1-.3,0-.5,0-.7,0-.2,0-.3,0-.5,0h0Z"/><path class="cls-6" d="m278.7,159.1h-.4c-4.9,2.1-9.8,3.4-14.9,4l-.2-3.6h0c1-.7,1.9-1.4,2.9-2.1h0c4.7-.6,7.9-1.3,11.6-2.3h0c.3,1.2.6,2.5.9,4Z"/><path class="cls-6" d="m238.7,161.9c-2.5-.5-5-1.2-7.6-1.9h-.5c.2-1.2.3-2.3.5-3.4h.3c2.3.7,3.9,1.1,6.7,1.4h0c1.6,1.4,3.3,2.8,5.1,4.1,0,.2,0,.4,0,.6h0c-1.6-.2-3.1-.5-4.5-.8Z"/><path class="cls-12" d="m237.9,139.2c-1.4-1.8-2.7-3.6-3.9-5.5h0c0-.3,0-.6,0-.8h.1c4.1.4,7.9.7,12,1.1-2.7,1.7-5.1,3.4-7.8,5l-.3.3Z"/><path class="cls-7" d="m272.9,130.5h0c-.3,1.7-.6,3.2-.8,4.3-.3,1.6-.6,3.1-1.3,4.5-1,1.9-1.2,2-2.8,3.3-1.1.9-2.2,2.1-3.3,3.4-2.8.4-5.7.7-8.6.9.1,0,.3-.2.4-.3,3-2.1,5.5-4,7.7-6,2-1.8,3.9-3.8,5.7-6.1,1-1.2,1.9-2.5,2.9-4Z"/><path class="cls-6" d="m263.2,159.5l.2,3.6c-2,.3-4.1.4-6.1.5,1.8-1.2,3.9-2.6,6-4.1h0Z"/><path class="cls-6" d="m237.5,170.9l-.4,3.3c-2.8-.5-5.5-1.1-8-1.8h-.2c.1-1.1.3-2.3.4-3.4h.2c2.5.8,5.2,1.4,7.9,1.9Z"/><path class="cls-7" d="m233.7,120.4c-.4.9-.7,1.9-.8,2.8h0c-.5-4.9-.1-7.6.3-13.7,0,0,0,0,0-.1,1.4-2.1,2.6-2.8,5.1-3.1,1.7-.2,4.3-.2,7-.2-.2.2-.3.3-.5.5-1.9,1.9-4.3,4.2-6.4,6.7-1.8,2.1-3.5,4.4-4.5,6.6,0,.1-.1.3-.2.4Z"/><path class="cls-6" d="m254.3,134.4h0c-1.4,1.6-2.9,3.1-4.2,4.3,0,0,0,0-.1.1-1.3-1.4-2.7-3.1-3.9-4.9h0c2.7.3,5.5,0,8.2.5h0Z"/><path class="cls-6" d="m276,112.9c-.1,1-.2,2-.4,3.1-4-2.6-5-6.5-7.8-9.7-3.5.3-6.4.2-9.3,0h-.7c-2.5-.2-5.1-.3-8.2-.2-1.4,0-2.8,0-4.1,0-2.8,0-5.4,0-7,.2-2.5.3-3.7,1-5.1,3.1.4-3,1.4-5.2,2.8-6-.8-4.9,1.1-11.8,2.5-14.8h0c.7-.2,1.4-.3,2.1-.4h0c-1.7,6.5-2.9,14.3-1.1,15.2,1.1.6,21,.8,26.7.3.7-7.7-.2-8.2,2.7-15.1.7.1,1.6.2,2.5.4-3.2,6.2-2.4,6-2.8,13.3,0,.7,0,1.4.3,1.9.5.7,2.2,3.2,2.7,3.8,1.7,2.5,2.3,3.6,4.2,4.9Z"/><path class="cls-11" d="m269,88.5c-1.2-.2-2-.3-2.1-.2-2.5-1.6-2.9-7-2.9-10.6,2-1.2,5.1-3.6,6.7-8.8h.4c2.5,7,3.7,13.7,3.6,19.7l-1.5.6c-.6-.1-1.1-.2-1.6-.3-.9-.2-1.8-.3-2.5-.4Z"/><path class="cls-6" d="m264.5,183.5c4.7-.4,9.2-1.2,13.2-2.3l.5,3c-4.1,1.1-8.7,1.8-13.5,2.3l-.2-3Z"/><path class="cls-12" d="m233.9,120.5c2.1,2.1,4.4,3.5,7,5.1-1.8,1.4-5.8,5.8-6.8,6.5h-.2c0-1.2-.2-2.6-.5-4.3-.3-1.8-.4-3.2-.6-4.5h0c.2-.9.4-1.9.8-2.8h.1Z"/><path class="cls-4" d="m254.9,55.1c0-1.9.8-3.5,1.8-3.5s1.8,1.5,1.8,3.5-.8,3.4-1.8,3.4-1.8-1.5-1.8-3.4Z"/><path class="cls-11" d="m271.8,63.2c.9,0,1.8,0,2.7-.2-1,2.3-1.7,4-3.3,6h-.4c.5-1.7.9-3.6,1-5.8Z"/><path class="cls-9" d="m260.4,126.5c-.9-1.5-3.1-5.2-5.2-8.1,4.4.4,8.9.4,13.3,0h.6c-2.9,2.9-6.6,6.7-8.7,8.1Z"/><path class="cls-7" d="m234,133.7c1.2,1.9,2.5,3.7,3.9,5.5,2.2,2.7,4.6,5.3,7.2,7.6-1.7-.1-3.3-.3-4.9-.5h0c-2-3.3-4-6.6-6.3-9.7,0-1,0-1.9,0-2.8h0Z"/><path class="cls-9" d="m256.2,146.9c-3.8.2-7.6.2-11-.1,0,0-.1-.2-.2-.2,3.1-4,3.2-4.6,4.7-6.9.4,0,.7,0,1.1,0,1.3,1.7,4.2,5.2,5.8,6.9h0c-.1.2-.3.2-.4.3Z"/><path class="cls-9" d="m240.9,125.5c-2.6-1.5-4.9-2.9-7-5.1h-.1c0-.2.1-.3.2-.5h.1c4.2-.7,8.1-1,12.3-1.8,0,0,0,0,0,0-2.6,3-5.2,6.6-5.2,7.2h-.2Z"/><path class="cls-6" d="m246.1,133.9c-2-2.9-3.8-6-5-8.3,0,0,0,0,0,0,0-.6,2.6-4.2,5.2-7.2,0,0,.2,0,.3,0,1.2,3.1,2.4,5.9,3.8,8.7-1.3,2.3-2.8,4.5-4.4,6.3.3-.1.4.6.2.6h0Z"/><path class="cls-9" d="m257.6,106.8c-1.9,2.3-3.9,4.5-6.1,6.5-.3,0-.6,0-1,0-2.1-2.1-4-4.3-5.7-6.7.2-.2.3-.3.5-.5,1.4,0,2.8,0,4.1,0,3.1,0,5.7,0,8.2.2v.4Z"/><path class="cls-12" d="m254.6,134.1c5,.5,10.4.4,15.4.3h0c-1.9,2.4-3.7,4.3-5.7,6.2l-.2-.2c-3.6-2.1-6-4.2-9.6-6.3Z"/><path class="cls-9" d="m251.8,113.3c4.2-.5,8.2-.3,12.4-.8-3.1,1.8-5.7,3.7-8.7,5.6-.1,0-.3.2-.4.3-1.8-2.5-3.4-4.5-4.2-4.4h0c.2-.3.4-.4.5-.6.1,0,.2,0,.4,0Z"/><path class="cls-12" d="m254.9,118.7c-1.4,2.6-2.9,5.6-4.6,8.4-1.4-2.8-2.6-5.6-3.8-8.7,1.2,0,5.4.3,8.3.3Z"/><path class="cls-6" d="m250.3,127.1c1.2,2.4,2.5,4.8,3.9,7.2,0,0,0,0,0,0,0,0,0,0,0,0,0,0,0,0,0,0-2.6-.5-5.5-.1-8.2-.5.2,0,0-.7-.2-.6,1.6-1.8,3.1-4,4.4-6.3Z"/><path class="cls-6" d="m246.2,118.3s0,0,0,0c0,0,.2,0,.2,0,0,0,0,0,0,.1-.2,0-.3,0-.3,0Z"/><path class="cls-9" d="m270,134.4c-5,0-10.4.2-15.4-.3,2.4-2.6,4.7-5.4,6-7.2,0,0,0,0,0,0,4,3.8,5.9,4.8,9.5,7.6Z"/><path class="cls-12" d="m255.6,118c3-1.9,5.6-3.8,8.7-5.6h0c1.8,1.9,3.4,3.8,5,5.9l-.2.2h-.6c-4.4.3-8.9.3-13.3-.1,0,0,0,0,0,0,.1,0,.3-.2.4-.3Z"/><path class="cls-6" d="m251.1,175.6l.2-3.1c4.2.2,8.4,0,12.6-.3l.2,2.9c-4.2.5-8.6.6-12.9.5Z"/><path class="cls-12" d="m254.2,134.3s0,0,0,0h0Z"/><path class="cls-6" d="m254.3,134.4h0s0,0,0,0h0Z"/><path class="cls-5" d="m271.8,273.7c4.1.7,8.2,1.3,12.3,1.7.7,0,1.5.1,2.1-.2.8-.4,1.1-1.3,1-2.1,0-.8-.4-1.5-.8-2.2,1.5.8,2.9,1.7,4.4,2.7,0,.8-.4,1.7-.5,2.5,0,1,.5,1.9,1.1,2.7.6.8,1.3,1.5,1.7,2.5h0c-.6.4-1.2.6-1.9.6-.5,0-1.1,0-1.6,0-.9-1.7-2.8-2.9-4.7-3.4-2-.5-4.2-.5-6.3-.5v.2c-1.9-.9-3.7-2-5.6-3.5-.4-.3-.7-.6-1.1-.9h0Z"/><path class="cls-6" d="m250.9,113.9c.8,0,2.5,2,4.2,4.4,0,0,0,0,0,0,0,.1-.1.2-.2.3-2.9,0-7.1-.3-8.3-.3,0,0,0,0,0-.1,0,0,0,0-.1,0,1.9-2.3,3.8-4.2,4.5-4.3h0Z"/><path class="cls-9" d="m250.5,113.4c.1.1.3.3.4.4h0c0,.1,0,.1,0,.1-.7,0-2.6,2-4.5,4.3-3.1-1.3-5.7-3.5-8-4.8,3.7,0,8.2.3,12.1,0Z"/><path class="cls-12" d="m233.9,120c1-2.3,2.7-4.5,4.5-6.6h0c2.2,1.3,4.9,3.5,8,4.8,0,0,0,0,0,0-4.2.7-8.1,1.1-12.3,1.8h-.1Z"/><path class="cls-5" d="m225.2,272.7c0-.5-.2-1.1-.7-1.3v-.2c1.4-.8,3.1-1.6,4.7-2.4h0c-.6.7-1.1,1.9-1.4,2.7-.3.8-.4,1.7.2,2.4.8,1,2.3,1,3.6,1,3.2-.1,6.5-.2,9.6-1.1-1.5,1.9-3.7,3.4-6.2,4.4-3.5-1.1-8.1-.2-11.2,1.6h0c-.7,0-1.5-.2-2.2-.4v-.3c1.1-1.7,2.1-3.4,3.1-5.1.3-.4.5-.9.6-1.4Z"/><path class="cls-6" d="m250.3,186.8l.2-2.9c4.7.2,9.4,0,14-.4l.2,3c-4.7.4-9.5.5-14.3.4Z"/><path class="cls-5" d="m274.4,280.9c-3.5-2.4-5.8-6.8-4.6-10.7,0,.6.2,1.2.5,1.7.4.7.9,1.3,1.5,1.8.3.3.7.6,1.1.9,1.9,1.5,3.7,2.6,5.5,3.5,2.6,1.3,5.4,2.2,8.8,3.2.8.2,1.6.4,2.3.5.5,0,1.1,0,1.6,0,.7,0,1.3-.3,1.9-.6.6-.3,1.1-.8,1.4-1.3.5-1,.3-2.2-.2-3.3h0c1.9,2,1.5,5.5-.9,7-1.7,1.1-4,1.1-6.1.9-4.5-.4-9.2-1.2-12.9-3.7Z"/><path class="cls-10" d="m248.5,153.5c0,0,.2,0,.3,0,2.6.2,4.2,3.3,6.8,4,1.9-1.8,3.7-4.2,5.5-6.6-4.6.7-8.6,1-12.5.9-.8,0-1.6,0-2.4,0-.8,0-1.5-.1-3-.4.8,1.2,1.5,2.5,2.3,3.7.8-.9,1.9-1.5,3-1.5Z"/><path class="cls-10" d="m237.5,170.9c4.4.8,9.1,1.4,13.8,1.5,4.2.2,8.4,0,12.6-.3,6-.6,11.7-1.8,16.7-3.9h.1c-.7-3.4-1.3-6.5-1.9-9.2h-.4c-4.9,2.1-9.8,3.4-14.9,4-2,.3-4.1.4-6.1.5-.9.6-1.8,1.2-2.6,1.8-.8,1-1.8,1.6-3,2-.8.3-1.6.4-2.4.5-2.3.2-4.7-1.1-5.6-3.4-.2-.6-.3-1.2-.4-1.8h0c-1.6-.2-3.1-.5-4.5-.8-2.5-.5-5-1.2-7.6-1.9h-.5c-.4,2.8-.8,5.8-1.2,9h.2c2.5.8,5.2,1.4,7.9,1.9Z"/><path class="cls-10" d="m236,182.5c3.5.6,7.3,1,11.1,1.3,1.1,0,2.3.1,3.4.2,4.7.2,9.4,0,14-.4,4.7-.4,9.2-1.2,13.2-2.3,1.8-.5,3.5-1.1,5.1-1.7h.2c-.6-2.9-1.1-5.7-1.7-8.5h0c-5,2-10.9,3.4-17.1,4.1-4.2.5-8.6.6-12.9.5-4.8-.1-9.6-.6-14-1.3-2.8-.5-5.5-1.1-8-1.8h-.1c-.3,2.7-.7,5.5-1.1,8.3h.2c2.4.7,5,1.3,7.8,1.8Z"/><path class="cls-10" d="m283.5,182.4h0c-1.6.7-3.4,1.3-5.3,1.8-4.1,1.1-8.7,1.8-13.5,2.3-4.7.4-9.5.5-14.3.4-1.2,0-2.3,0-3.4-.2-3.9-.2-7.7-.7-11.3-1.3-2.8-.5-5.5-1.1-7.9-1.8h-.2c-1.7,13.5-3.3,26.2-3.8,29.6,1.6.9,5.2,1.9,10,2.7,4.1.7,9.1,1.2,14.5,1.5,1,0,2,0,3,.1,4.4.1,8.9.1,13.3-.2,5.9-.4,11.6-1.2,16.6-2.5h0c.7-.2,1.4-.4,2-.6,1.9-.6,3.7-1.4,5.3-2.2-.6-5.9-2.6-17.7-4.9-29.6Z"/><path class="cls-10" d="m238.1,158h0c-2.4-2.3-4.5-4.6-6.3-6.9h0c-.2,1.6-.5,3.5-.8,5.5h.3c2.3.7,3.9,1.1,6.7,1.4Z"/><path class="cls-10" d="m277.8,155.1h0c-.7-3.1-1.3-5.4-1.6-6.3h0c-2.7,2.9-6.4,5.9-10.2,8.6h0c4.7-.6,7.9-1.3,11.6-2.3Z"/><path class="cls-9" d="m249.7,139.6c-3.8-.2-7.6-.4-11.4-.7,2.7-1.7,5.1-3.4,7.8-5,1.3,1.8,2.6,3.5,3.9,4.9,0,0,0,0,.1-.1h0c-.2.4-.4.6-.5.9Z"/><path class="cls-6" d="m254.3,134.4s0,0,0,0h0s0,0,0,0Z"/><path class="cls-6" d="m245.2,146.8c0,0,.1.1.2.2,0,0-.2-.1-.2-.2,0,0,0,0,0,0Z"/><path class="cls-12" d="m258.4,106.4c2.4,2.2,4.3,4.1,6,5.9h0c-4.2.6-8.2.4-12.4.9-.1,0-.2,0-.4,0,2.2-2,4.3-4.2,6.1-6.5v-.4c.3,0,.5,0,.8,0h0Z"/><path class="cls-9" d="m234.1,132c1-.6,5.1-5,6.8-6.5h.2s0,0,0,0c1.2,2.4,3,5.4,5,8.3-4.1-.4-7.9-.7-12-1.1h-.1c0-.3,0-.5,0-.8h.2Z"/><path class="cls-6" d="m254.3,134.4s0,0,0,0c0,0,0,0,0,0,0,0,0,0,0,0,0,0,0,0,0,0-1.5-2.5-2.8-4.8-3.9-7.2,1.6-2.8,3.1-5.8,4.6-8.4,0-.1.1-.2.2-.3,0,0,0,0,.1,0,2.1,3,4.3,6.6,5.2,8.1,0,0,0,0,0,0,0,0,.1.1.2.2t0,0s0,0,0,0c-1.3,1.8-3.6,4.6-6,7.2,0,.1-.2.2-.3.3h0Z"/><path class="cls-8" d="m276.2,148.8c1.8-2,3.2-3.9,3.9-5.8,3.4-9.6,4.4-17.2,5.8-27.5.5-7.3-.3-21.1-5.2-24.6-.7-.4-4.2-1.2-7.5-1.7-.6-.1-1.1-.2-1.6-.3-3.2,6.2-2.4,6-2.8,13.3,0,.7,0,1.4.3,1.9.5.7,2.2,3.2,2.7,3.8,1.7,2.5,2.3,3.6,4.2,4.9-.1,1-.2,2-.4,3.1-.4,2.9-1,6.2-1.6,9.3-.3,1.8-.7,3.6-1,5.2-.3,1.7-.6,3.2-.8,4.3-.3,1.6-.6,3.1-1.3,4.5-1,1.9-1.2,2-2.8,3.3-1.1.9-2.2,2.1-3.3,3.4-1.3,1.5-2.5,3.2-3.8,4.9-1.8,2.4-3.6,4.8-5.5,6.6-2.5-.7-4.2-3.8-6.8-4,0,0-.2,0-.3,0-1.1,0-2.2.6-3,1.5-.8-1.2-1.5-2.5-2.3-3.7-1-1.7-2-3.4-3-5-2-3.3-4-6.6-6.3-9.7,0-1,0-1.9,0-2.8,0-.3,0-.6,0-.8,0-.3,0-.5,0-.8,0-1.2-.2-2.6-.5-4.3-.3-1.8-.4-3.2-.6-4.5-.5-4.9-.1-7.6.3-13.7,0,0,0,0,0-.1,0,0,0,0,0,0,.4-3,1.4-5.2,2.8-6-.8-4.9,1.1-11.8,2.5-14.8h0c-7.3,1.3-9.3,4.1-10.7,6.4-2.4,3.7-2.1,16.7-2,20.5-.7,12.3,0,20.8,1.5,26.6.8,2.9,2.3,6,4.6,9,1.7,2.3,3.8,4.7,6.3,6.9,1.6,1.4,3.3,2.9,5.1,4.2,0,.2,0,.4,0,.6,0,.6.2,1.3.4,1.8.9,2.2,3.3,3.5,5.6,3.4.8,0,1.7-.2,2.4-.5,1.1-.4,2.1-1.1,3-2,.8-.6,1.7-1.2,2.6-1.8,1.8-1.2,3.9-2.6,6-4.1,1-.7,1.9-1.4,2.9-2.1,3.8-2.7,7.4-5.6,10.2-8.6Z"/><path class="cls-8" d="m225.2,272.7c0-.5-.2-1.1-.7-1.3v-.2c-1.6.8-2.9,1.5-4.1,2.1-1.3.7-2.5,2.1-2.5,3.4,0,1.7,1.8,2.3,3.5,2.7,0,0,0,0,0,0v-.3c1.1-1.7,2.1-3.4,3.1-5.1.3-.4.5-.9.6-1.4Z"/><path class="cls-8" d="m248.2,217.3c-5.4-.3-10.4-.8-14.5-1.5-1.7,8.1-1.4,9.3-1.1,14.3.2,3.7,2.7,32.5,2.1,36-1.6.7-3.5,1.6-5.5,2.6h0c-.6.7-1.1,1.9-1.4,2.7-.3.8-.4,1.7.2,2.4.8,1,2.3,1,3.6,1,3.2-.1,6.5-.2,9.6-1.1,1-1.3,1.7-2.8,1.9-4.5.6-14.5,3-26.1,6.7-39.4.6-2.1,2.6-5.1,1.4-12.5-1,0-2,0-3-.1Z"/><path class="cls-8" d="m284.8,278.4c-2-.5-4.2-.5-6.3-.5v.2c2.6,1.3,5.3,2.2,8.7,3.2.8.2,1.6.4,2.3.5-.9-1.7-2.8-2.9-4.7-3.4Z"/><path class="cls-8" d="m232.2,63.7c.5,5.5,1.8,11,5.8,14.6,3.1,2.7,5.4,4.6,7.7,5.5h0c.3,1.4-2.2,4.1-2.2,4.1-1,0-2,.2-2.9.3h0c-1.7,6.5-2.9,14.3-1.1,15.2,1.1.6,21,.8,26.7.3.7-7.7-.2-8.2,2.7-15.1-1.2-.2-2-.3-2.1-.2-2.5-1.6-2.9-7-2.9-10.6,2-1.2,5.1-3.6,6.7-8.8.5-1.6.9-3.5,1-5.7.9,0,1.8,0,2.7-.2,1-.2,1.9-.6,2.5-1.4.6-.7.9-1.7,1-2.7.2-1.8-.3-3.7-1.6-4.8-1.3-1.2-3.5-1.2-4.6.2-.5-2.8-1.1-5.2-2-7.3-.4-1-.9-2-1.4-2.9-.5-.8-1-1.5-1.5-2.2-3.3-4.3-7.6-6.2-11.5-7.1-1.5-.3-3-.5-4.3-.6-1.6-.1-3-.1-4-.1-.3,0-.5,0-.7,0-.2,0-.3,0-.5,0-.8,0-1.5.2-2.3.3-.6.1-1.2.2-1.8.4-4.8,1.1-7.8,3.5-9.5,6.5-.5.9-.9,1.9-1.2,2.9-.3.9-.5,1.9-.6,3-.1,1.2-.2,2.4-.1,3.5.2,3.7-.3.9.3,3.4h-.3c-.3-.1-.8-.1-1.2.2-.7.5-1.4,1.9-1.4,4.7s3.5,4.6,4.5,4.6Zm5.1-5.6c-.8,0-1.4-1.3-1.4-3s.6-3,1.4-3,1.4,1.3,1.4,3-.6,3-1.4,3Zm4.7,14.1h0c5,1.6,15.8-.8,16.7-1.8-2,2.8-2.7,3.2-4.4,4.2-1.7,1.1-5.2,1.4-7,1.2-2.8-.4-4.2-1.5-5.4-3.6Zm16.3-17.1c0,1.9-.8,3.4-1.8,3.4s-1.8-1.5-1.8-3.4.8-3.5,1.8-3.5,1.8,1.5,1.8,3.5Z"/><path class="cls-8" d="m223.7,279.8c3.7.4,7.8-.1,11.2-1.6-3.5-1.1-8.1-.2-11.2,1.6Z"/><path class="cls-8" d="m294.2,276.7c0-.2-.2-.3-.3-.5-.8-1.1-1.9-1.9-3.1-2.6,0,0,0,0-.1,0,0,.8-.4,1.7-.5,2.5,0,1,.5,1.9,1.1,2.7.6.8,1.3,1.5,1.7,2.5h0c.6-.2,1.1-.7,1.4-1.3.5-1,.3-2.2-.2-3.3Z"/><path class="cls-8" d="m286.2,275.1c.8-.4,1.1-1.3,1-2.1,0-.8-.4-1.5-.8-2.2-2.2-1.3-4.5-2.5-6.9-3.7-1.5-15,4.1-34.9,3.2-42.9-.4-3.7-1-6.1-1.6-9.4-4.9,1.4-10.7,2.2-16.6,2.5v.4c0,2.9-.2.9.1,4.3.6,7.7,1.3,15.6,3,23.2,1,4.5,2.9,15.1,2.4,23.5,0,.3,0,.6,0,.9,0,.2-.1.4-.2.6,0,.6.2,1.2.5,1.7.4.7.9,1.3,1.5,1.8h0c4.1.7,8.2,1.2,12.3,1.6.7,0,1.5.1,2.1-.2Z"/><path class="cls-5" d="m237.5,278.8c-4.1,2-8.6,3.6-13.2,3.9-2,.1-4.1,0-5.7-1.1s-2.1-3.6-.7-4.9c0,1.7,1.8,2.3,3.5,2.7,0,0,0,0,0,0,.7.2,1.4.3,2.2.4h0c3.7.4,7.8-.1,11.2-1.6,2.5-1,4.7-2.5,6.2-4.4,1-1.3,1.7-2.8,1.9-4.5,0,.1,0,.3,0,.4,1,1.7.6,3.9-.7,5.5-1.2,1.6-3.1,2.6-4.9,3.5Z"/><path class="cls-4" d="m237.4,52.1c.8,0,1.4,1.3,1.4,3s-.6,3-1.4,3-1.4-1.3-1.4-3,.6-3,1.4-3Z"/><path class="cls-12" d="m242.1,72.1c5,1.7,15.8-.8,16.7-1.7-2,2.8-2.7,3.2-4.4,4.2-1.7,1.1-5.2,1.4-7,1.2-2.8-.4-4.2-1.5-5.4-3.6h0Z"/><path class="cls-7" d="m233.2,109.5s0,0,0,0c0,0,0,0,0,.1,0,0,0,0,0-.1Z"/><path class="cls-12" d="m238.2,138.9c3.9.3,7.7.5,11.4.7-1.5,2.4-1.6,3-4.7,6.9,0,0,.1.2.2.2,0,0,0,0,0,0-2.6-2.3-5-4.9-7.2-7.6l.3-.3Z"/><path class="cls-1" d="m245.8,83.8c4.1,1.5,8.4,0,17-5.3.3-.2.7-.4,1.2-.7,2-1.2,5.1-3.6,6.7-8.8.5-1.6.9-3.5,1-5.7"/><path class="cls-1" d="m230.3,50.9c.2,3.7-.3.9.3,3.4,0,.3.2.7.3,1.1,0,0,.7,1.6,1.4,8.3.5,5.5,1.8,11,5.8,14.6,3.1,2.7,5.4,4.6,7.7,5.5"/><path class="cls-1" d="m234,48.5c1.7-2,5.1-1.8,6.7-.7"/><path class="cls-1" d="m253,47.6c2.8-2.1,6.6-1.1,7.2.6"/><path class="cls-1" d="m266.9,88.3c-2.5-1.6-2.9-7-2.9-10.6h0"/><path class="cls-1" d="m245.8,83.8h0c.3,1.4-2.2,4.1-2.2,4.1"/><path class="cls-1" d="m243.5,87.9c-1,0-2,.2-2.9.3-.8.1-1.5.2-2.1.3-7.3,1.4-9.3,4.1-10.7,6.4-2.4,3.7-2.1,16.7-2,20.5"/><path class="cls-1" d="m266.9,88.3c0,0,.9,0,2.1.2.7.1,1.6.2,2.5.4.5,0,1.1.2,1.6.3,3.3.6,6.8,1.3,7.5,1.7"/><path class="cls-1" d="m233.2,109.5s0,0,0,.1c-.5,6.1-.8,8.7-.3,13.7.1,1.3.3,2.8.6,4.5.2,1.7.4,3,.5,4.3,0,.3,0,.5,0,.8,0,.3,0,.6,0,.8,0,1,0,1.9,0,2.8"/><path class="cls-1" d="m281.1,214.8c.7-.2,1.4-.4,2-.6,1.9-.6,3.7-1.4,5.3-2.2.1,0,.3-.1.4-.2"/><path class="cls-1" d="m231.8,151.1c-.2,1.6-.5,3.4-.8,5.5-.2,1.1-.3,2.2-.5,3.4-.4,2.8-.8,5.9-1.2,9.1-.1,1.1-.3,2.2-.4,3.4-.3,2.7-.7,5.5-1.1,8.3-.1,1-.2,1.9-.4,2.9-1.7,13.6-3.3,26.2-3.8,29.6,1.6.9,5.2,1.9,10,2.7,4.1.7,9.1,1.2,14.5,1.5,1,0,2,0,3,.1,4.4.1,8.9.1,13.3-.2,5.9-.4,11.6-1.2,16.6-2.5"/><path class="cls-1" d="m288.4,212.1c0,0,0-.1,0-.2-.6-5.9-2.6-17.7-4.9-29.6-.2-1-.4-2-.6-3-.6-2.9-1.1-5.7-1.7-8.4-.2-.9-.4-1.8-.6-2.8-.7-3.3-1.3-6.4-1.9-9.2-.3-1.4-.6-2.8-.9-4-.7-3.1-1.3-5.4-1.6-6.3"/><path class="cls-1" d="m233.7,215.9c-1.7,8.1-1.4,9.3-1.1,14.3.2,3.7,2.7,32.5,2.1,36"/><path class="cls-1" d="m251.2,217.5c1.2,7.4-.8,10.3-1.4,12.5-3.7,13.3-6,24.9-6.7,39.4,0,.1,0,.3,0,.4"/><path class="cls-1" d="m264.5,217.7c0,2.9-.2.9,0,4.3.6,7.7,1.3,15.6,3,23.2,1,4.5,2.9,15.1,2.4,23.5,0,.3,0,.6,0,.9"/><path class="cls-1" d="m281.1,214.8h0c.6,3.3,1.2,5.7,1.6,9.4.9,8-4.7,28-3.2,42.9"/><path class="cls-1" d="m238.8,55.1c0,1.7-.6,3-1.4,3s-1.4-1.3-1.4-3,.6-3,1.4-3,1.4,1.3,1.4,3Z"/><path class="cls-1" d="m258.4,55.1c0,1.9-.8,3.4-1.8,3.4s-1.8-1.5-1.8-3.4.8-3.5,1.8-3.5,1.8,1.5,1.8,3.5Z"/><path class="cls-1" d="m242.3,66.1c1.7,1.8,5.3,1.1,7.1.9"/><path class="cls-1" d="m241.7,71.9c.1,0,.3.1.4.1,5,1.7,15.8-.8,16.7-1.7-2,2.8-2.7,3.2-4.4,4.2-1.7,1.1-5.2,1.4-7,1.2-2.8-.4-4.2-1.5-5.4-3.6"/><path class="cls-1" d="m276.3,54.2c2-11.1.5-16.2-4.3-22.8-4.9-6.6-11.6-8.1-19.9-8-.7,0-1.5,0-2.2,0-3.8.2-8.6,1.5-11.6,3.2-8.3,4.8-10.5,12.2-9.1,27.7h0"/><path class="cls-1" d="m245.8,34.3c-1.2-4.9,2.8-9.8,6.2-10.8"/><path class="cls-1" d="m230.3,50.9c0-1.2,0-2.4.1-3.5.1-1,.3-2,.6-3,.3-1,.7-2,1.2-2.9,1.7-3,4.7-5.3,9.5-6.5.6-.1,1.2-.3,1.8-.4.7-.1,1.5-.2,2.3-.3.2,0,.3,0,.5,0,.2,0,.5,0,.7,0,1.1,0,2.4,0,4,.1,1.3,0,2.8.3,4.3.6,3.9.9,8.2,2.8,11.5,7.1.5.7,1,1.4,1.5,2.2.5.9,1,1.8,1.4,2.9.9,2.1,1.5,4.5,2,7.3"/><path class="cls-1" d="m271.8,54.4c1.1-1.4,3.3-1.3,4.6-.2,1.3,1.2,1.7,3.1,1.6,4.8,0,1-.4,2-1,2.7-.6.8-1.5,1.2-2.5,1.4-.9.2-1.8.2-2.7.2"/><path class="cls-1" d="m230.3,54.3c-.3-.2-.8-.2-1.2,0-.7.5-1.4,1.9-1.4,4.7s3.5,4.6,4.5,4.6"/><path class="cls-1" d="m274.4,63.1h0c-1,2.3-1.7,4-3.3,6"/><path class="cls-1" d="m271.2,69c2.5,6.8,3.7,13.5,3.6,19.6"/><path class="cls-1" d="m264.8,146s0,0,0,0c-2.8.4-5.7.7-8.6.9-3.8.2-7.6.2-11-.1,0,0,0,0,0,0-1.7-.1-3.3-.3-4.9-.5"/><path class="cls-1" d="m238.1,158c-2.8-.3-4.4-.7-6.7-1.4"/><path class="cls-1" d="m277.8,155.1c-3.7,1-7,1.7-11.6,2.3"/><path class="cls-1" d="m243.2,162.7c-1.6-.2-3.1-.5-4.5-.8-2.5-.5-5-1.2-7.6-1.9"/><path class="cls-1" d="m278.3,159.2c-4.9,2-9.8,3.3-14.9,3.9-2,.3-4.1.4-6.1.5,0,0-.1,0-.2,0"/><path class="cls-1" d="m280.5,168.3c-5,2-10.7,3.3-16.7,3.9-4.1.4-8.4.5-12.6.3-4.7-.2-9.4-.7-13.8-1.5-2.8-.5-5.4-1.1-7.9-1.9"/><path class="cls-1" d="m281.1,171c-5,2-10.9,3.4-17.1,4-4.2.5-8.6.6-12.9.5-4.8-.1-9.6-.6-14-1.3-2.8-.5-5.5-1.1-8-1.8"/><path class="cls-1" d="m282.7,179.5c-1.6.6-3.3,1.2-5.1,1.7-4,1.1-8.5,1.9-13.2,2.3-4.6.4-9.3.6-14,.4-1.1,0-2.3,0-3.4-.2-3.9-.2-7.6-.7-11.1-1.3-2.8-.5-5.4-1.1-7.8-1.8"/><path class="cls-1" d="m283.5,182.4c-1.6.7-3.4,1.3-5.3,1.8-4.1,1.1-8.7,1.8-13.5,2.3-4.7.4-9.5.5-14.3.4-1.2,0-2.3,0-3.4-.2-3.9-.2-7.7-.7-11.3-1.3-2.8-.5-5.5-1.1-7.9-1.8"/><path class="cls-1" d="m261.1,150.9s0,0,0,0c-4.6.7-8.6,1-12.5.9-.8,0-1.6,0-2.4,0-.8,0-1.5-.1-3-.4,0,0,0,0,0,0"/><path class="cls-1" d="m269.1,88.3c0,0,0,.2-.1.3-2.9,7-2,7.4-2.7,15.1-5.7.5-25.6.3-26.7-.3-1.7-.9-.6-8.7,1.1-15.1"/><path class="cls-1" d="m271.8,88.5c0,.2-.2.3-.2.5-3.2,6.2-2.4,6-2.8,13.3,0,.7,0,1.4.3,1.9.5.7,2.2,3.2,2.7,3.8,1.7,2.5,2.3,3.6,4.2,4.9,0,0,0,0,0,0"/><path class="cls-1" d="m238.6,88.7c-1.4,3-3.3,9.9-2.5,14.8-1.4.9-2.4,3.1-2.8,6,0,0,0,0,0,.1,0,.6-.1,1.2-.2,1.8"/><path class="cls-1" d="m254.3,134.4h0c-1.4,1.6-2.9,3.1-4.2,4.3,0,0,0,0-.1.1-1.3-1.4-2.7-3.1-3.9-4.9-2-2.9-3.8-6-5-8.3,0,0,0,0,0,0,0-.6,2.6-4.2,5.2-7.2,0,0,0,0,0,0,0,0,0,0,0,0,1.9-2.3,3.8-4.2,4.5-4.3h0c.8,0,2.5,2,4.2,4.4,0,0,0,0,0,0,2.1,3,4.3,6.6,5.2,8.1,0,0,0,.2.1.2"/><path class="cls-1" d="m260.5,126.8s0,0,0,0c-1.3,1.8-3.6,4.6-6,7.2,0,.1-.2.2-.3.3"/><path class="cls-1" d="m258.4,106.4c2.4,2.2,4.3,4.1,6,5.9,1.8,2,3.4,3.8,5,6,1.5,2,2.9,4.2,4.6,6.9,0,0,0,.1,0,.2"/><path class="cls-1" d="m245.3,106.2c-.2.2-.3.3-.5.5-1.9,1.9-4.3,4.2-6.4,6.7-1.8,2.1-3.5,4.4-4.5,6.6,0,.1-.1.3-.2.4-.4.9-.7,1.9-.8,2.8"/><path class="cls-1" d="m272.9,130.5c-1,1.5-2,2.8-2.9,4-1.9,2.4-3.7,4.3-5.7,6.1-2.2,2-4.7,3.9-7.7,6-.1,0-.3.2-.4.3-.2.2-.5.3-.7.5"/><path class="cls-1" d="m234,133.7c1.2,1.9,2.5,3.7,3.9,5.5,2.2,2.7,4.6,5.3,7.2,7.6,0,0,.2.1.2.2,0,0-.1-.1-.2-.2,0,0-.1-.2-.2-.2"/><path class="cls-1" d="m275.7,116.1s0,0-.1,0c-4-2.6-5-6.5-7.8-9.7-3.5.3-6.4.2-9.3,0h-.7c-2.5-.2-5.1-.3-8.2-.2-1.4,0-2.8,0-4.1,0-2.8,0-5.4,0-7,.2-2.5.3-3.7,1-5.1,3.1,0,0,0,0,0,0"/><path class="cls-1" d="m244.8,106.6s0,0,0,0c1.7,2.4,3.6,4.7,5.7,6.7.1.1.3.3.4.4.2-.2.4-.3.5-.5,2.2-2,4.3-4.2,6.1-6.5"/><path class="cls-1" d="m270,134.4c-3.6-2.9-5.5-3.8-9.5-7.6t0,0c0,0-.1-.1-.2-.2,0,0,0,0,0,0,2.1-1.4,5.9-5.2,8.7-8"/><path class="cls-1" d="m234.1,132c1-.6,5.1-5,6.8-6.5-2.6-1.5-4.9-2.9-7-5.1"/><path class="cls-1" d="m245,146.5c3.1-4,3.2-4.6,4.7-6.9.2-.3.3-.5.5-.8,0,.2.3.5.6.9,1.3,1.7,4.2,5.2,5.8,6.9"/><path class="cls-1" d="m268.5,118.4c-4.4.4-8.9.4-13.3,0,0,0,0,0-.1,0,0,0,0,0,0,0,.1,0,.3-.2.4-.3,3-1.9,5.6-3.8,8.7-5.6-4.2.5-8.2.3-12.4.8-.1,0-.2,0-.4,0-.3,0-.6,0-1,0-3.9.3-8.4,0-12.1,0,2.2,1.3,4.9,3.5,8,4.8,0,0,0,0,.1,0,0,0-.2,0-.2,0-4.2.7-8.1,1.1-12.3,1.8"/><path class="cls-1" d="m270,134.4c-5,0-10.4.2-15.4-.3,3.6,2.1,6,4.2,9.6,6.3-4.5-.3-9-.5-13.4-.8-.4,0-.7,0-1.1,0-3.8-.2-7.6-.4-11.4-.7,2.7-1.7,5.1-3.4,7.8-5-4.1-.4-7.9-.7-12-1.1"/><path class="cls-1" d="m255.1,118.7h-.2c-2.9,0-7.1-.3-8.3-.3-.2,0-.3,0-.3,0h0"/><path class="cls-1" d="m246.1,133.9h0c.2,0,0-.7-.2-.6,1.6-1.8,3.1-4,4.4-6.3,1.6-2.8,3.1-5.8,4.6-8.4,0-.1.1-.2.2-.3"/><path class="cls-1" d="m254.3,134.4c-2.6-.5-5.5-.1-8.2-.5"/><path class="cls-1" d="m254.3,134.4h0s0,0,0,0h0"/><path class="cls-1" d="m254.3,134.4h0c0,0,0,0,0,0"/><path class="cls-1" d="m254.2,134.3s0,0,0,0h0Z"/><path class="cls-1" d="m254.3,134.4s0,0,0,0c0,0,0,0,0,0,0,0,0,0,0,0"/><path class="cls-1" d="m246.5,118.2s0,0,0,.1c1.2,3.1,2.4,5.9,3.8,8.7,1.2,2.4,2.5,4.8,3.9,7.2"/><polyline class="cls-3" points="283.1 214.2 278.1 184.2 277.6 181.2 276.7 175.6"/><polyline class="cls-3" points="251.6 167.4 251.3 172.5 251.1 175.6 250.5 183.9 250.3 186.8 248.2 217.3"/><polyline class="cls-3" points="247.4 179.5 247.1 183.8 246.9 186.7 244.8 212.1"/><polyline class="cls-3" points="237.5 170.9 237.1 174.2 236 182.5 235.6 185.4 232.9 205.7"/><polyline class="cls-1" points="238.7 161.9 238.7 161.9 237.5 170.9"/><polyline class="cls-3" points="263.2 159.5 263.4 163.1 263.8 172.1 264 175.1 264.5 183.5 264.6 186.5 264.7 188"/><line class="cls-3" x1="260.6" y1="203.8" x2="261.1" y2="217.5"/><line class="cls-3" x1="256.3" y1="210.6" x2="256.3" y2="217.5"/><line class="cls-3" x1="228.1" y1="202.4" x2="226.6" y2="214"/><path class="cls-1" d="m223.7,279.8c3.7.4,7.8-.1,11.2-1.6,2.5-1,4.7-2.5,6.2-4.4,1-1.3,1.7-2.8,1.9-4.5,0-.2,0-.5,0-.7"/><path class="cls-1" d="m234.7,266.2c-1.6.7-3.5,1.6-5.5,2.6-1.6.8-3.3,1.6-4.8,2.4-1.5.8-2.8,1.5-4,2.1-1.3.7-2.4,2.1-2.5,3.4,0,1.7,1.8,2.3,3.5,2.7,0,0,0,0,0,0,.7.2,1.4.3,2.2.4"/><path class="cls-1" d="m270.1,268.4c0,0,0,.2-.1.3-.2.5-.3,1-.2,1.5,0,.6.2,1.2.5,1.7.4.7.9,1.3,1.5,1.8.3.3.7.6,1.1.9,1.9,1.5,3.7,2.6,5.5,3.5,2.6,1.3,5.4,2.2,8.8,3.2.8.2,1.6.4,2.3.5.5,0,1.1,0,1.6,0,.7,0,1.3-.3,1.9-.6.6-.3,1.1-.8,1.4-1.3.5-1,.3-2.2-.2-3.3,0-.2-.2-.3-.3-.5-.8-1.1-1.9-1.9-3.1-2.6,0,0,0,0-.1,0-1.5-1-2.9-1.8-4.4-2.7-2.2-1.3-4.5-2.5-6.9-3.7"/><path class="cls-1" d="m286.3,270.7s0,0,0,.1c.4.7.7,1.4.8,2.2,0,.8-.2,1.7-1,2.1-.6.3-1.4.3-2.1.2-4.1-.4-8.2-1-12.3-1.7.2,0,.4,0,.6.1"/><path class="cls-1" d="m290.6,273.1c0,.1,0,.3.1.4,0,.8-.4,1.7-.5,2.5,0,1,.5,1.9,1.1,2.7.6.8,1.3,1.5,1.7,2.5"/><path class="cls-1" d="m289.6,282v-.2c-1-1.7-2.9-2.9-4.8-3.4-2-.5-4.2-.5-6.3-.5"/><path class="cls-1" d="m241.9,273.6c-.2,0-.4.1-.7.2-3.1.9-6.4,1-9.6,1.1-1.3,0-2.8,0-3.6-1-.5-.7-.5-1.6-.2-2.4.3-.8.8-2,1.4-2.6"/><path class="cls-1" d="m235.3,278.4c-.1,0-.2,0-.4-.1-3.5-1.1-8.1-.2-11.2,1.6h0"/><path class="cls-1" d="m224.5,271.4c.5.2.7.8.7,1.3,0,.5-.3,1-.6,1.4-1,1.7-2,3.4-3,5.1"/><path class="cls-1" d="m294.3,276.6c1.9,2,1.5,5.6-.9,7.1-1.7,1.1-4,1.1-6.1.9-4.5-.4-9.2-1.2-12.9-3.7-3.5-2.4-5.8-6.8-4.6-10.7,0-.2.1-.4.2-.6"/><path class="cls-1" d="m243.1,269.7c1,1.7.6,3.9-.7,5.5-1.2,1.6-3.1,2.6-4.9,3.5-4.1,2-8.6,3.6-13.2,3.9-2,.1-4.1,0-5.7-1.1s-2.1-3.6-.7-4.9"/><path class="cls-1" d="m255.3,34.9c2.5,3.5,7,7.8,11.5,7.1h0"/><path class="cls-1" d="m246.3,34.7c2,3.8,4.7,7.4,8.6,9.7,3.5,2,9.2,4.3,14.8,2.8"/><path class="cls-1" d="m246,34.7c-2.9,5.6-9.4,11.6-15.7,12.6,0,0,0,0-.1,0"/><path class="cls-1" d="m241.7,34.9c-1.7,2.5-6.5,5.7-9.5,6.5"/><path class="cls-1" d="m251,34.7c.6,1.6,4.4,10.4,17.2,9.7"/><path class="cls-1" d="m243.6,34.7c-4,7.9-11.8,9.4-12.6,9.6"/><path class="cls-1" d="m280.7,91c5,3.5,5.7,17.2,5.2,24.6"/><path class="cls-1" d="m285.9,115.5c-1.3,10.4-2.3,18-5.8,27.5-.7,1.9-2.1,3.9-3.9,5.8-2.7,2.9-6.4,5.9-10.2,8.6-1,.7-1.9,1.4-2.9,2.1-2.1,1.5-4.1,2.8-6,4.1-.9.6-1.8,1.2-2.6,1.8-.2.1-.4.3-.5.4"/><path class="cls-1" d="m225.8,115.5c-.7,12.3,0,20.8,1.5,26.6.8,2.9,2.3,6,4.6,9,1.7,2.3,3.8,4.7,6.3,6.9,1.6,1.4,3.3,2.9,5.1,4.2"/><path class="cls-1" d="m261,150.9c-1.8,2.4-3.6,4.8-5.5,6.6"/><path class="cls-1" d="m276.1,111.3c0,.5,0,1.1-.2,1.6-.1,1-.2,2-.4,3.1-.4,2.9-1,6.2-1.6,9.3-.3,1.8-.7,3.6-1,5.2-.3,1.7-.6,3.2-.8,4.3-.3,1.6-.6,3.1-1.3,4.5-1,1.9-1.2,2-2.8,3.3-1.1.9-2.2,2.1-3.3,3.4-1.3,1.5-2.5,3.2-3.8,4.9"/><path class="cls-1" d="m233.9,136.5c2.3,3.1,4.3,6.4,6.3,9.7,1,1.7,2,3.4,3,5,.8,1.2,1.5,2.5,2.3,3.7"/><path class="cls-1" d="m255.5,157.5c-2.5-.7-4.2-3.8-6.8-4,0,0-.2,0-.3,0-1.1,0-2.2.6-3,1.5-.2.2-.4.5-.6.7-.9,1.3-1.3,2.9-1.5,4.5,0,.6-.2,1.3-.2,1.9,0,.2,0,.4,0,.6,0,.6.2,1.3.4,1.8.9,2.2,3.3,3.5,5.6,3.4.8,0,1.7-.2,2.4-.5,1.1-.4,2.1-1.1,3-2,.1-.1.2-.3.3-.4"/></g></svg>