<?xml version="1.0" encoding="UTF-8"?><svg id="Layer_2" xmlns="http://www.w3.org/2000/svg" width="300" height="300" viewBox="0 0 300 300"><defs><style>.cls-1,.cls-2,.cls-3,.cls-4,.cls-5,.cls-6{fill:none;}.cls-1,.cls-2,.cls-3,.cls-5{stroke-linecap:round;}.cls-1,.cls-2,.cls-3,.cls-5,.cls-6{stroke:#000;}.cls-1,.cls-2,.cls-5{stroke-linejoin:round;}.cls-2,.cls-4{stroke-width:.8px;}.cls-3,.cls-4,.cls-6{stroke-miterlimit:10;}.cls-4{stroke:#fff;}.cls-5{stroke-width:.5px;}.cls-7,.cls-8,.cls-9,.cls-10,.cls-11,.cls-12,.cls-13,.cls-14{stroke-width:0px;}.cls-8{fill:#4d0099;}.cls-9{fill:#5f4c49;}.cls-10{fill:#23232d;}.cls-11{fill:#e0c9c1;}.cls-12{fill:#3246ff;}.cls-13{fill:#fff;}.cls-14{fill:#f0f0f0;}</style></defs><rect class="cls-8" x="182.6" y="90.7" width="19.4" height="19.4" transform="translate(-24.6 95.2) rotate(-26.2)"/><path class="cls-10" d="m189.6,285.7v2.3s-1.3,3.1-6.1,2.9-10.2-1.3-12.7-2.2-5.7-3-6.4-3.1c-.7-.1-8.4-.1-9.9-2.6-1.6-2.5,0-3,0-3h0c0,.2,0,.3,0,.4,1.1.9,2.9,3,9.5,2.7,2.7.8,5.8,3.3,10.2,4.7,3,1,6.6,1.4,11.1.7,3-1.1,3.5-3.1,3.5-3.1l.8.5Z"/><rect class="cls-12" x="162.8" y="6.4" width="19.4" height="19.4" transform="translate(16.3 91) rotate(-31)"/><path class="cls-14" d="m119.2,135.6c-.1,1.1-.2,2.2-.4,3.2l-9.7-1.8-.5,2.6c-1.7-.8-3.3-1.9-4.8-3.1-.5-.4-1.1-.9-1.6-1.3l4.4-19.8c1-3.4,3.6-10.7,7.3-11.4,0,0,.1,0,.2,0l10.6-1.2h0c0,2.2.5,3.5,2.1,5,2,1.9,10.1,3.4,12.9,3,7.4-1,11-3,11.7-6.1.2-1.1.2-.5,0-2.8,3.6.6,11.8.5,13.5,2.9,2.4,3.3,6.7,16.1,8.5,24.4-.2.5-.4,1-.6,1.5h0c-.7,1.5-1.8,2.7-3.1,3.7-1.7,1.3-3.9,2-6,2,.3,4.3.5,8.3.7,11.9.2,3,.3,5.8.5,8.2.7,8.7,1.7,16.1,1.5,24.6-2.1.8-9.9,2.7-20,3-7.6.2-16.5-.5-25.1-3.3-.7-.2-1.3-.4-2-.7.1-3.5,1.8-13.5,2.2-19.3,0-.5,0-.9,0-1.4h.6c0,.1,2.3.5,2.3.5l3.5-19.1-8.4-1.5c-.2-1.5-.5-2.7-.7-3.4Zm39.5-.8c.9-1.8,1.3-5.6.9-7.6-.4-2-.2-3.1-1-4.9-.2-.4-12.2,1-12.6,1.6-.4.7.4,6.2,1.4,8.6,1,2.5,2.8,4.7,5.1,5.3,2.3.6,5-.5,6.2-3Z"/><path class="cls-11" d="m199.6,129.2c-.1-.2-.4-.2-.6-.3-4-.7-8.4.4-11.5,3-1.8-.7-3.6-.1-5.1,1-.5.4-.9.8-1.1,1.2h0s0,0-.1.3c-.1.3-.2.7-.2,1.1-1.8-.8-4.6-1.5-7-1.3-.3-1.3-.5-2.2-.9-3.8-.7,1.4-1.8,2.7-3.1,3.6-1.7,1.3-3.9,2-6,2,.3,4.3.5,8.3.7,11.9.7,1.8,1.1,2,3.1,2.7.1,0,.3,0,.4.2,2.2.6,5.4-.5,7.2-1.6,1.5-.8,2.6-1.2,3.9-1.7.5.3,1,.5,1.6.5,0,.4,0,.8-.1,1.3,0,.6,0,1.2.4,1.7.4.5,1.2.6,1.9.7.7,0,1.5,0,2.1-.3.4-.3.6-.8.7-1.3.1-.5,0-1.4-.2-2.3h0c.9-.3,1.7-.9,2.1-1.8.7.4,1.3.8,2.1,1,.8.2,1.7.2,2.4-.3.7-.4,1.1-1.2,1.2-2,0,0,0,0,0-.1h0c.6,0,1.1,0,1.7.1.6,0,1.2,0,1.6-.4.2-.2.4-.6.5-.9.4-1,.8-2,1.2-2.9.2-.6.5-1.2.2-1.8-.2-.4-.6-.7-1-.8-.4,0-.9,0-1.3.1-.3,0-.6.2-.8.3h0c-1.2,0-2.6,0-3.2-.9-.4-.7-.2-1.6.2-2.3s1.1-1.1,1.8-1.6c1.6-1.1,3.2-2.2,4.8-3.3.4-.2.7-.7.5-1.1Z"/><path class="cls-14" d="m183.9,276.6h0s-14.2-6.6-14.2-6.6c0,0,0-2.3-1.5-2.5-.7-.4-1.4-.6-1.9-.6-3.8-.4-3,5.5-3,5.5h0c-.8-.4-1.4-.7-1.6-.8-1.4-.4-2.2,1.5-3.4,1.4-.6,0-1.1-.6-1.6-1.2,0-1.2,0-2.4-.1-3.6h0s-3-.4-2.7,2.3c.3,2.4.6,7.9.6,9.4,0,.2,0,.3,0,.4,1.1.9,2.9,3,9.5,2.7,2.7.8,5.8,3.3,10.2,4.7,3,1,6.6,1.4,11.1.7,3-1.1,3.5-3.1,3.5-3.1,0,0,.5-7.6-4.8-8.6Z"/><path class="cls-11" d="m167.8,244.2c0,1.1-1.4,21.6-1.5,22.6-3.8-.4-3,5.5-3,5.5h0c-.8-.4-1.4-.7-1.6-.8-1.4-.4-2.2,1.5-3.4,1.4-.6,0-1.1-.6-1.6-1.2,0-1.2,0-2.4-.1-3.6-.5-8.6-2.5-15.1-2.9-22.7,3.9.9,9.2,1.1,14-1.3Z"/><path class="cls-10" d="m159.6,127.2c.4,2,0,5.8-.9,7.6-1.2,2.5-3.9,3.6-6.2,3-2.3-.6-4.1-2.8-5.1-5.3-.9-2.4-1.8-7.8-1.4-8.6.4-.7,12.4-2.1,12.6-1.6.8,1.8.6,2.9,1,4.9Z"/><path class="cls-11" d="m120.4,87.7c-.7.4-1.6.4-2.4,0-.8-.4-1.5-1-2.2-1.7-1.2-1.3-2.3-2.9-3.2-4.6-.5-1-.9-2.2-.6-3.3.1-.3.3-.6.5-.8h4.2c.7,1,1.5,2.1,2.6,2.1,1.2,0,2.2-1.2,2.3-2.4.1-1.2-.4-2.4-1-3.5-.6-1.1-1.3-2.2-1.5-3.4-.3-2,.8-4.1,2.4-5.4,1.6-1.3,3.7-1.8,5.5-2.7,7.5-3.6,17.6-5.6,26.2-5.6.3,1.7.6,3.6.8,5.7.6,6.6,2.9,4.5,4.2,14.2,1,7.7-6.4,14.5-10.4,17.5,0,0-.3,1-.5,2.3,0,.7-.2,1.6-.1,2.4,0,1.8-4.2,3.4-7.5,3.7-3,.3-10.2-.5-10.6-3-.2-.9-.3-1.6-.5-2.4-.9-2.9-2.7-5.1-8.1-9.3h-.2Zm30.3-9.9l.3-.4c-3,2.9-16.4,3.2-15.6,3.8,1.2,1,3.8,2.5,5.1,3.1,2.1,1,4.5.5,6.2-.2,2.7-1.2,3.6-3.1,4.1-6.3Zm-1.1-11.2c.6-.2.7-1.7,0-3.3-.6-1.6-1.6-2.7-2.3-2.4-.6.2-.7,1.7,0,3.3.6,1.6,1.6,2.6,2.3,2.4Zm-17.9,5.7c.7-.3.8-2,.1-3.7-.7-1.7-1.9-2.9-2.6-2.6-.7.3-.8,1.9-.1,3.7.7,1.7,1.9,2.9,2.6,2.6Z"/><path class="cls-10" d="m153.4,56.6c-8.5,0-18.7,1.9-26.2,5.6-1.8.9-3.9,1.3-5.5,2.7-1.6,1.3-2.7,3.4-2.4,5.4.2,1.2.9,2.3,1.5,3.4.6,1.1,1.1,2.3,1,3.5,0,1.2-1.1,2.5-2.3,2.4-1.2,0-2-1.1-2.6-2.1h-4.2c-.2.2-.4.5-.5.8-.4,1.1,0,2.3.6,3.3-12.5-8.2-9.1-27.3-4.3-33.1,4.5-5.3,18.8-10.7,25.6-10.7,7,0,14.9,2.3,19.1,9.3.1.2,1.5,5.2,2.4,9.5-.7,0-1.4,0-2.1,0Z"/><path class="cls-14" d="m151.6,101.7c.1,2.4.2,1.7,0,2.8-.7,3.1-4.3,5.1-11.7,6.1-2.8.4-10.9-1.1-12.9-3-1.6-1.5-2-2.8-2.1-5,0-.6,0-1.3,0-2.1,0-.5,1.5-3.1,3.8-3.5.2.7.4,1.5.5,2.4.4,2.5,7.6,3.3,10.6,3,3.3-.3,7.6-1.9,7.5-3.7,0-.9,0-1.7.1-2.4,1.9,0,4.1,3.7,4.2,5.4Z"/><path class="cls-13" d="m151,77.4l-.3.4c-.5,3.1-1.4,5-4.1,6.3-1.7.8-4.1,1.2-6.2.2-1.3-.6-3.9-2.1-5.1-3.1-.8-.6,12.6-1,15.6-3.8Z"/><path class="cls-7" d="m149.7,63.3c.6,1.6.6,3,0,3.3-.7.2-1.7-.8-2.3-2.4-.6-1.6-.6-3.1,0-3.3.7-.2,1.7.8,2.3,2.4Z"/><path class="cls-10" d="m166.7,180.8c-2.1.8-9.9,2.7-20,3-7.6.2-16.5-.5-25.1-3.3-1.1,5.6-9.3,46.6-13.5,60.1.9,1,1.8,2.3,2.9,3.4,0,0,.2.2.2.2,2.9,2.9,6.9,5.2,15.4,2.8,1.1-.3,2.4-.7,3.7-1.3,1.5-8.2,8.9-34.4,12.3-47.3h0c1.8,6.5,8.5,21.2,7.3,45.8,1,.5,2.2,1,3.7,1.3,3.9.9,9.2,1.1,14-1.3,1.4-.7,2.7-1.5,3.9-2.6,1.2-27.1-5.2-57.4-5.1-60.8Z"/><path class="cls-7" d="m131.9,68.6c.7,1.7.6,3.4-.1,3.7-.8.3-1.9-.9-2.6-2.6-.7-1.8-.6-3.4.1-3.7.7-.3,1.9.9,2.6,2.6Z"/><path class="cls-11" d="m126.6,247c-3.5,9.1-5.8,14-7.3,23.5-.1,1-.3,2-.4,3h.2c-.6,1.3-1.5,2.7-2.1,1.7-.8-1.4-1.9-.5-2.1-.4h-.1c0-.2,0-.3,0-.4,0,0,3.8-6.2-3.5-6.2,0,0-1.5-.1-2.9.4,1.5-4.5,2.1-19.1,2.7-24.5,2.9,2.9,6.9,5.2,15.4,2.8Z"/><path class="cls-9" d="m121.4,159.8s0,0,0,0c0,0,0,0,0,0Z"/><polygon class="cls-8" points="121.4 18.4 111.1 34.9 94.7 24.6 105 8.1 121.4 18.4"/><path class="cls-9" d="m121.2,159c.1.2.2.5.2.8,0-.3-.2-.5-.3-.8h0Z"/><path class="cls-10" d="m120.2,277.6c.8.9.3,2.7.3,2.7l-1.4,3.3s-1,3.9-2.8,8.3c-1.8,4.4-7.5,7-13.5,6.3s-7.7-5.9-7.7-5.9v-4.3l1-.9c0,.3-.2.5-.2.7-.1,1.4,2.1,6,6.8,7.2,5.7,1.5,9.4-1.4,12.1-5.5,2.1-3.2,3.6-7.1,5.1-10.6,0-.5.2-.9.2-1.3Z"/><path class="cls-12" d="m119.9,139l-1.1-.2-9.7-1.8-.5,2.6-1.9,10.4-.7,3.6-.5,2.5,2.4.4h.1s-.1,0-.1,0c.3-.2.6-.3.9-.5.5-.2,1-.5,1.6-.5h0c.4,0,.7,0,1.1.3.1,0,.2.2.3.3.2.3.3.7.3,1.1h.2c.4-.3.7-.6,1.2-.8.1,0,.2-.1.3-.2.4-.2.8-.2,1.2-.2.3,0,.5.1.7.3.1,0,.2.2.3.3.3.4.4.9.4,1.4h0s2.1.4,2.1.4c.2-.2.4-.3.6-.4.5-.2,1.1,0,1.5.5,0,.1.2.2.2.4h.6c0,.1.6.2.6.2l2.3.4,3.5-19.1-8.4-1.5Z"/><path class="cls-14" d="m119.4,270.5h0c-.1,1-.3,2-.4,3h.2c-.6,1.3-1.5,2.7-2.1,1.7-.8-1.4-1.9-.5-2.1-.4h-.1c0-.2,0-.3,0-.4,0,0,3.8-6.2-3.5-6.2,0,0-1.5-.1-2.9.4-1.5.6-2.8,1.9-2.3,4.9-.8.5-1.5,2-2.3,3.5-2.7,2.4-4.8,4.9-6.2,7-.2.2-.2.3-.2.3-.7,1.1-1.2,2.1-1.5,2.8,0,.3-.2.5-.2.7-.1,1.4,2.1,6,6.8,7.2,5.7,1.5,9.4-1.4,12.1-5.5,2.1-3.2,3.6-7.1,5.1-10.6,0-.5.2-.9.2-1.3,1.4-7.6-.8-7.1-.8-7.1Z"/><path class="cls-11" d="m121.5,159.9s0,0,0,0c0-.3-.2-.5-.3-.8h0c0-.1-.2-.2-.2-.4-.4-.4-1-.7-1.5-.5-.2,0-.4.2-.6.4-.1.1-.2.3-.3.4,0,.1-.2.2-.2.3,0,.2-.2.3-.2.4,0,0,0,.2-.1.2,0,0,0,.1-.1.2,0,.2-.2.3-.3.4t0,0c0,0,0,0-.2.1-.4.3-.9.4-1.3,0h0s0,0,0,0c0-.2.2-.3.2-.5.2-.5.3-1,.4-1.5,0,0,0,0,0,0,0-.2,0-.3,0-.5h0c0-.5-.1-1.1-.4-1.4,0-.1-.2-.2-.3-.3-.2-.2-.5-.2-.7-.3-.4,0-.8,0-1.2.2-.1,0-.2,0-.3.2-.5.2-.8.5-1.2.8h-.2c0-.4,0-.9-.3-1.2,0-.1-.2-.2-.3-.3-.3-.2-.7-.3-1.1-.3h0c-.5,0-1.1.2-1.6.5-.3.2-.6.3-.9.5h0s-2.4-.4-2.4-.4l.5-2.5.7-3.6,1.9-10.4c-1.7-.8-3.3-1.9-4.8-3.1l-1.3,13.4c-.2,0-.5.2-.8.3-.9.4-1.7.9-2.5,1.4-.7.5-1.3,1-1.9,1.6-.5.4-1,.9-1.4,1.4-.3.3-.6.7-.8,1.2-.1.4,0,1,.3,1.3.5.4,1.1.2,1.7,0,1.6-.5,3.2-1,4.8-1.5,1.2,1,1.1,2.9,1.1,4.4,0,1.6.2,3.5,1.7,4.1.3.1.6.2.9.1.2,0,.5,0,.8-.1.5-.2,1-.4,1.5-.8,0,.3.3.6.5.8,0,0,.1.1.2.2,0,0,0,0,0,0,.2,0,.3.2.5.3.2,0,.5.2.8.2.1,0,.3,0,.4,0s.3,0,.5,0c.9,0,1.9-.5,2.6-1.1.4.4.9.7,1.5.9.8.3,1.7.4,2.5.2.4,0,.9-.2,1.3-.4.2-.1.5-.2.7-.4,1.2-.9,2.1-2.3,2-3.9,0-.1,0-.3,0-.4Z"/><path class="cls-3" d="m142.7,198.4c1.2-4.3,1.9-7.1,1.8-7.4"/><path class="cls-3" d="m108,240.6c.9,1,1.8,2.3,2.9,3.4"/><path class="cls-3" d="m121.5,180.4h0c-1.1,5.6-9.3,46.7-13.5,60.1"/><path class="cls-3" d="m144.5,191.1s.9-1.7,2.3-2.8c.2-.2.4-.3.6-.5"/><path class="cls-3" d="m142.7,198.5c1.8,6.5,8.5,21.2,7.3,45.7,1,.5,2.2,1,3.7,1.3,3.9.9,9.2,1.1,14-1.3,1.4-.7,2.7-1.5,3.9-2.6,1.2-27.1-5.2-57.4-5.1-60.8"/><path class="cls-3" d="m111.2,244.2h0c-.6,5.4-1.2,20-2.7,24.5,0,0,0,.2,0,.3"/><path class="cls-3" d="m126.6,247c-3.5,9.1-5.8,14-7.3,23.5-.1,1-.3,2-.4,3"/><path class="cls-3" d="m167.8,244.2h0c0,1.1-1.4,21.6-1.5,22.7h0"/><path class="cls-3" d="m153.8,245.5c.3,7.6,2.4,14.1,2.9,22.7,0,1.1.1,2.3.1,3.6"/><path class="cls-3" d="m97.8,284c1.3-2.1,3.4-4.6,6.2-7,.8-1.4,1.5-3,2.3-3.5"/><path class="cls-3" d="m119.4,270.5s2.2-.6.8,7.1c0,.4-.2.9-.2,1.3-1.5,3.4-3,7.4-5.1,10.6-2.7,4.2-6.4,7-12.1,5.5-4.7-1.2-6.9-5.7-6.8-7.2,0-.2,0-.4.2-.7.2-.7.7-1.7,1.5-2.8"/><path class="cls-3" d="m114.9,289.5s-.8-4.4-4.3-6.9c-1-.7-2.2-1.3-3.6-1.6-1.4-.3-2.6-.3-3.7-.1-3.2.4-4.9,2.3-5.5,3-.2.2-.2.3-.2.3"/><path class="cls-3" d="m114.9,274.9h0c.2-.2,1.3-1,2.1.3.6,1,1.5-.4,2.1-1.6.3-.6.5-1.2.6-1.3"/><path class="cls-3" d="m110.6,282.7l3.3-5.5s.5-1.1.8-2.4c0-.1,0-.2,0-.4.3-1.9.2-4.1-2.6-4.4-4.4-.5-6.2,2.2-5.8,4.5,0,.2.1.5.2.7-1.1,1.9-3.5,5.7-3.5,5.7"/><path class="cls-3" d="m114.9,274.5s3.8-6.2-3.5-6.2c0,0-1.5-.1-2.9.4-1.5.6-2.8,1.9-2.3,4.9,0,.3.1.6.2,1s0,.2.1.4"/><path class="cls-3" d="m96.2,287.2l-1,.9v4.3s1.7,5.2,7.7,5.9,11.6-1.9,13.5-6.3c1.8-4.4,2.8-8.3,2.8-8.3l1.4-3.3s.5-1.8-.3-2.7"/><path class="cls-3" d="m176.6,278.6c-2,2-2.9,5.4-2.4,9"/><path class="cls-3" d="m156.6,268.2s-3-.4-2.7,2.3c.3,2.4.6,7.9.6,9.4,0,.2,0,.3,0,.4,1.1.9,2.9,3,9.5,2.7,2.7.8,5.8,3.3,10.2,4.7,3,1,6.6,1.4,11.1.7,3-1.1,3.5-3.1,3.5-3.1,0,0,.5-7.6-4.8-8.6-1.4-.3-3.2-.1-5.4.7-.7.3-1.4.8-1.9,1.3"/><path class="cls-3" d="m155.7,270c0,.4.5,1.1,1,1.8.5.6,1.1,1.1,1.6,1.2,1.1.1,1.9-1.8,3.4-1.4.2,0,.8.4,1.6.8.4.2.9.5,1.4.7,3.9,2.1,10.2,5.7,11.9,5.6h0"/><path class="cls-3" d="m164.7,273.1s-.3-4.4,2.4-5.5c.5-.2.8-.2,1.1-.2,1.5.2,1.5,2.5,1.5,2.5l14.2,6.6"/><path class="cls-3" d="m163.3,272.3s-.8-6,3-5.5c.5,0,1.2.2,1.9.6,0,0,.2,0,.3.2"/><path class="cls-3" d="m188.8,285.2l.8.5v2.3s-1.3,3.1-6.1,2.9-10.2-1.3-12.7-2.2-5.7-3-6.4-3.1c-.7-.1-8.4-.1-9.9-2.6-1.6-2.5,0-3,0-3"/><line class="cls-5" x1="114" y1="103.9" x2="114" y2="103.9"/><path class="cls-3" d="m153.3,56.2c0,.1,0,.2,0,.4.3,1.7.6,3.6.8,5.7.6,6.6,2.9,4.5,4.2,14.2,1,7.7-6.4,14.5-10.4,17.5,0,0-.3,1-.5,2.3,0,.7-.2,1.6-.1,2.4,0,1.8-4.2,3.4-7.5,3.7-3,.3-10.2-.5-10.6-3-.2-.9-.3-1.6-.5-2.4-.9-2.9-2.7-5.1-8.1-9.3"/><path class="cls-3" d="m112.7,81.5c-12.5-8.2-9.1-27.3-4.3-33.1,4.5-5.3,18.8-10.7,25.6-10.7,7,0,14.9,2.3,19.1,9.3.1.2,1.5,5.2,2.4,9.5"/><path class="cls-1" d="m147.4,64.2c.6,1.6,1.6,2.6,2.3,2.4.6-.2.7-1.7,0-3.3-.6-1.6-1.6-2.7-2.3-2.4-.6.2-.7,1.7,0,3.3Z"/><path class="cls-1" d="m129.2,69.7c.7,1.7,1.9,2.9,2.6,2.6.7-.3.8-2,.1-3.7-.7-1.7-1.9-2.9-2.6-2.6-.7.3-.8,1.9-.1,3.7Z"/><path class="cls-1" d="m116.5,77.2c-.7-.5-1.6-.7-2.4-.6-.5,0-1,.3-1.4.7-.2.2-.4.5-.5.8-.4,1.1,0,2.3.6,3.3.8,1.7,1.9,3.3,3.2,4.6.6.7,1.3,1.3,2.2,1.7.8.3,1.7.4,2.4,0,0,0,.1,0,.2,0,.7-.5,1.1-1.7.7-2.5"/><path class="cls-1" d="m143,76.4c3.2-4.4,4.8-3.1,5.5-1.1"/><path class="cls-3" d="m119.2,135.6c.5-3.9.8-7.9,1.1-10.7"/><line class="cls-3" x1="103.9" y1="136.5" x2="102.6" y2="150"/><path class="cls-3" d="m124.8,102.7l-10.6,1.2c0,0-.1,0-.2,0-3.7.7-6.3,8.1-7.3,11.4l-4.4,19.8"/><path class="cls-3" d="m173,130.5c.4,1.6.6,2.5.9,3.8,0,0,0,.1,0,.2"/><path class="cls-3" d="m151.6,101.7c3.6.6,11.8.5,13.5,2.9,2.4,3.3,6.7,16.1,8.5,24.4"/><path class="cls-3" d="m179.6,136.2c0-.5.2-.6.5-.3"/><path class="cls-3" d="m168.1,150.9c2.2.6,5.4-.5,7.2-1.6,1.5-.8,2.6-1.2,3.9-1.7"/><path class="cls-3" d="m180.9,135.6c-1.8-.8-4.6-1.5-7-1.3-1.7,0-3.2.5-4.1,1.5-2.4,2.4-3.4,5.1-3.8,7.7-.2,1.5-.8,5.2.9,6.7.2.2.5.4.8.5"/><path class="cls-3" d="m168.1,150.9c-.2,0-.3,0-.4-.2-2-.7-2.4-.9-3.1-2.7"/><path class="cls-3" d="m119.9,139c-.2-1.5-.5-2.7-.7-3.4"/><path class="cls-3" d="m166.7,180.8c-2.1.8-9.9,2.7-20,3-7.6.2-16.5-.5-25.1-3.3-.7-.2-1.3-.4-2-.7.1-3.5,1.8-13.5,2.2-19.3,0-.5,0-.9,0-1.4"/><path class="cls-3" d="m161.9,118.2c1,6.1,1.6,12.2,2,17.9.3,4.3.5,8.3.7,11.9.2,3,.3,5.8.5,8.2.7,8.7,1.7,16.1,1.5,24.6"/><path class="cls-3" d="m128.7,97.1c-2.3.4-3.8,3-3.8,3.5,0,.8,0,1.5,0,2.1,0,2.2.5,3.5,2.1,5,2,1.9,10.1,3.4,12.9,3,7.4-1,11-3,11.7-6.1.2-1.1.2-.5,0-2.8,0-1.6-2.2-5.4-4.2-5.4"/><polyline class="cls-6" points="195.6 138.3 195.6 138.4 195.6 138.4"/><polyline class="cls-6" points="193.6 144.6 193.7 144.6 193.7 144.6"/><line class="cls-6" x1="193.3" y1="140.8" x2="193.3" y2="140.8"/><line class="cls-6" x1="185.7" y1="147.8" x2="185.7" y2="147.8"/><line class="cls-6" x1="180.9" y1="135.6" x2="181" y2="135.6"/><path class="cls-6" d="m181,136.9c0-.3,0-.6,0-.8,0-.2,0-.4,0-.5,0-.4,0-.7.2-1.1,0,0,0-.2.1-.3h0c.2-.4.6-.8,1.1-1.2,1.5-1.1,3.3-1.7,5.1-1,3.2-2.6,7.5-3.8,11.5-3,.2,0,.4,0,.6.3.2.3-.2.8-.5,1.1-1.6,1.1-3.2,2.2-4.8,3.3-.7.5-1.3.9-1.8,1.6s-.6,1.6-.2,2.3c.6,1,2,1,3.2.9"/><path class="cls-6" d="m188.1,141.4c.1.6.9.8,1.5.6.6-.2,1-.7,1.4-1.1s1.1-.7,1.7-.5c.2,0,.4.2.6.5.3.4.4,1,.4,1.5,0,.8.1,1.6,0,2.3,0,0,0,0,0,.1-.2.8-.6,1.6-1.2,2-.7.5-1.6.5-2.4.3-.8-.2-1.4-.6-2.1-1,0,0-.1,0-.2,0"/><path class="cls-3" d="m180.9,135.6c-.3,0-.6.1-.9.3-.2,0-.3.2-.5.3-1,.7-1.8,2-2.2,3.1-.6,1.8-.3,5.4.4,6.6.4.6.9,1.2,1.5,1.6.5.3,1,.5,1.6.5,0,0,.1,0,.2,0"/><path class="cls-6" d="m193.3,140.8c.5-1,1.3-1.9,2.3-2.4.3-.1.5-.2.8-.3.4-.1.9-.2,1.3-.1.4,0,.9.4,1,.8.3.6,0,1.2-.2,1.8-.4,1-.8,2-1.2,2.9-.1.3-.2.6-.5.9-.4.4-1,.5-1.6.4-.6,0-1.1-.2-1.7-.1"/><path class="cls-6" d="m185.7,147.8c-.5-2.1-1.9-4.5-3.7-2.8-.3.2-.5.6-.6.9-.1.3-.2.6-.3.8,0,0,0,0,0,0-.1.5-.2.9-.3,1.4,0,.4,0,.8-.1,1.3,0,.6,0,1.2.4,1.7.4.5,1.2.6,1.9.7.7,0,1.5,0,2.1-.3.4-.3.6-.8.7-1.3.1-.5,0-1.4-.2-2.3Z"/><path class="cls-6" d="m185.7,147.8c.9-.3,1.7-.9,2.1-1.8,0,0,0,0,0-.1"/><line class="cls-2" x1="116" y1="160.9" x2="116" y2="160.9"/><path class="cls-3" d="m97.5,153.3c-.5.4-1,.9-1.4,1.4-.3.3-.6.7-.8,1.2-.1.4,0,1,.3,1.3.5.4,1.1.2,1.7,0,1.6-.5,3.2-1,4.8-1.5,1.2,1,1.1,2.9,1.1,4.4,0,1.6.2,3.5,1.7,4.1.3.1.6.2.9.1"/><path class="cls-3" d="m106.7,150c-.7-.2-1.4-.3-2.1-.2"/><path class="cls-2" d="m108.7,164.5c.2,0,.3.2.5.3"/><path class="cls-3" d="m107.9,163.5c0,.3.3.6.5.8,0,0,.1.1.2.2"/><path class="cls-2" d="m117.5,160.6s0,0,0,0h0"/><path class="cls-3" d="m118.1,159.8c0,0,0,.2-.1.2"/><path class="cls-2" d="m121.5,159.9s0,0,0,0"/><path class="cls-3" d="m117.5,165c.4,0,.9-.2,1.3-.4"/><path class="cls-3" d="m113.5,163.9c.4.4.9.7,1.5.9"/><path class="cls-3" d="m102.3,135.2c.5.5,1.1.9,1.6,1.3,1.5,1.2,3.1,2.3,4.8,3.1"/><path class="cls-3" d="m173.6,129c-.2.5-.4,1-.6,1.5h0c-.7,1.5-1.8,2.7-3.1,3.7-1.7,1.3-3.9,2-6,2h0"/><path class="cls-1" d="m151,77.4c-3,2.9-16.4,3.2-15.6,3.8,1.2,1,3.8,2.5,5.1,3.1,2.1,1,4.5.5,6.2-.2,2.7-1.2,3.6-3.1,4.1-6.3"/><rect class="cls-4" x="162.8" y="6.4" width="19.4" height="19.4" transform="translate(16.3 91) rotate(-31)"/><line class="cls-4" x1="112.1" y1="157.4" x2="112.4" y2="157.4"/><line class="cls-4" x1="112.1" y1="157.3" x2="112.1" y2="157.3"/><polyline class="cls-4" points="122.4 159.2 124.7 159.7 128.3 140.5 119.9 139 118.8 138.8 109.1 137 108.7 139.6 106.7 150 106.1 153.7 105.6 156.2 108 156.6"/><polyline class="cls-4" points="121.2 159 121.8 159.1 122.4 159.2"/><line class="cls-4" x1="116.7" y1="158.2" x2="118.8" y2="158.6"/><line class="cls-4" x1="112.1" y1="157.3" x2="112.4" y2="157.4"/><polyline class="cls-4" points="111.6 157.3 112.1 157.3 112.1 157.3"/><line class="cls-4" x1="107.6" y1="156.5" x2="108" y2="156.6"/><rect class="cls-4" x="182.6" y="90.7" width="19.4" height="19.4" transform="translate(-24.6 95) rotate(-26.1)"/><polygon class="cls-4" points="121.4 18.4 111.1 34.9 94.7 24.6 105 8.1 121.4 18.4"/><path class="cls-2" d="m112.1,157.3c0-.4,0-.8-.3-1.1,0-.1-.2-.2-.3-.3-.3-.2-.7-.3-1.1-.3h0c-.5,0-1.1.2-1.6.5-.3.2-.6.3-.9.5h0c-.5.3-1,.6-1.5,1-.2.2-.3.3-.5.5"/><path class="cls-2" d="m104.7,149.5c-.8,0-1.4.2-2.1.5-.2,0-.5.2-.8.3-.9.4-1.7.9-2.5,1.4-.7.5-1.3,1-1.9,1.6-.4.4-.8.9-1.2,1.3-.3.4-.6.7-.8,1.2-.2.5,0,1,.3,1.3.4.4,1.1.2,1.7,0,1.6-.5,3.2-1,4.7-1.5.2.2.3.3.4.5.7,1.1.7,2.6.6,4,0,1.6.2,3.5,1.6,4.1.3.1.5.2.8.2s.5,0,.8-.1c.5-.2,1-.4,1.5-.8t0,0c.3-.2.6-.5.8-.8.9-1,1.8-2,2.5-3.2.3-.5.7-1,.8-1.6,0,0,0,0,0-.2,0,0,0-.2,0-.3"/><path class="cls-2" d="m116.7,158.2c0-.5-.1-1-.4-1.4,0-.1-.2-.2-.3-.3-.2-.2-.5-.2-.7-.3-.4,0-.8,0-1.2.2-.1,0-.2,0-.3.2-.5.2-.8.5-1.2.8h0c0,0-.2.2-.3.3"/><line class="cls-4" x1="116.7" y1="158.2" x2="116.7" y2="158.2"/><path class="cls-2" d="m108.1,163.6c0,.3.2.5.3.7,0,0,.1.1.2.2h0c.2.2.3.3.5.3.2.1.5.2.8.2.1,0,.3,0,.4,0s.3,0,.5,0c.9,0,1.9-.5,2.6-1.1,0,0,0,0,0,0,.4-.3.8-.6,1.1-1,0,0,0,0,0,0,.3-.4.7-.8.9-1.2.1-.2.3-.4.4-.7h0c0-.1,0-.1,0-.1,0,0,0,0,0,0,0-.2.2-.3.2-.5.2-.5.3-1,.4-1.5,0,0,0,0,0,0,0-.2,0-.3,0-.5"/><path class="cls-2" d="m117.8,160.2c0,.2-.2.3-.3.4h0c0,0,0,.1-.2.2-.4.2-.9.3-1.2,0"/><path class="cls-3" d="m117.9,160c0,0,0,.1-.1.2"/><path class="cls-2" d="m121.5,159.9s0,0,0,0c0-.3-.1-.5-.2-.8,0-.1-.2-.2-.2-.4-.4-.4-1-.7-1.5-.5-.2,0-.4.2-.6.4-.1.1-.2.3-.3.4,0,.1-.2.2-.2.3s-.2.3-.2.4c0,0,0,.2-.1.2"/><path class="cls-3" d="m118.8,164.6c.2-.1.5-.2.7-.4,1.2-.9,2.1-2.3,2-3.9,0-.1,0-.3,0-.4"/><path class="cls-2" d="m113.5,163.8c.4.4.9.7,1.4.9.8.3,1.7.4,2.5.2.4,0,.9-.2,1.3-.4"/><path class="cls-5" d="m158.6,122.3c.8,1.8.6,2.9,1,4.9.4,2,0,5.8-.9,7.6-1.2,2.5-3.9,3.6-6.2,3-2.3-.6-4.1-2.8-5.1-5.3-.9-2.4-1.8-7.8-1.4-8.6.4-.7,12.4-2.1,12.6-1.6Z"/><path class="cls-1" d="m116.8,77.4c.7,1,1.5,2.1,2.6,2.1,1.2,0,2.2-1.2,2.3-2.4.1-1.2-.4-2.4-1-3.5-.6-1.1-1.3-2.2-1.5-3.4-.3-2,.8-4.1,2.4-5.4,1.6-1.3,3.7-1.8,5.5-2.7,7.5-3.6,17.6-5.6,26.2-5.6.7,0,1.4,0,2.1,0"/></svg>