<?xml version="1.0" encoding="UTF-8"?><svg id="Layer_5" xmlns="http://www.w3.org/2000/svg" width="300" height="300" viewBox="0 0 300 300"><defs><style>.cls-1{stroke-linecap:round;stroke-linejoin:round;}.cls-1,.cls-2{stroke:#000;}.cls-1,.cls-2,.cls-3{fill:none;}.cls-2,.cls-3{stroke-miterlimit:10;}.cls-3{stroke:#fff;}.cls-4,.cls-5,.cls-6,.cls-7,.cls-8,.cls-9,.cls-10,.cls-11,.cls-12,.cls-13,.cls-14,.cls-15{stroke-width:0px;}.cls-5{fill:#4d0099;}.cls-6{fill:#8b0018;}.cls-7{fill:#3e3331;}.cls-8{fill:#ce9a89;}.cls-9{fill:#8c0018;}.cls-10{fill:#b9272c;}.cls-11{fill:#3246ff;}.cls-12{fill:#658317;}.cls-13{fill:#fff;}.cls-14{fill:#ffb92f;}.cls-15{fill:#e9be6d;}</style></defs><path class="cls-6" d="m205.4,284.2c.8,1.2.5,4,.5,4,0,0-5,4.9-12.4,5.7-7.4.8-12.3-5.5-12.3-5.5l-.4-4.9.9-1.1h.1c0,.4-.1.6-.1.6,0,0,1.3,8.3,12.8,7.7,9.7-.5,10.7-5.1,10.8-6.5h.1Z"/><path class="cls-6" d="m203.3,277c2.8,5,2,6.8,2,6.8,0,0,0,.2,0,.5,0,1.5-1.2,6-10.8,6.5-11.5.6-12.8-7.7-12.8-7.7,0,0,0-.2.1-.6,0-.1,0-.3.1-.5h0c.3-.4,3.4-4.4,8-6.5,3.7-1.7,8.5-2.2,13.4,1.6h0Z"/><path class="cls-7" d="m158,52.1c-1.1.4-2.3,1-3.4,1.6-1,.6-2,1.3-3.1,2.1.8-11,2.5-18.1,10.9-23.6,3.1-2,8.1-6,11.9-6.4,4.9-.5,4.1,4.1,11.5,1.3,7.8-.1,11,3.6,12.9,5.3,4.6,4.2,7.4,14.5,7.4,24.4s-1.1,20.8-8.5,22.8c-.2,0-.3,0-.5,0-2.2-.1-3.4-.5-5.2-1.1,3.5-8.1,1.8-15.2.9-27.9v-.6c-3.3-.2-7.4-.2-11.8.2-1-3.5-2.3-7.8-.8-11-1.7,3.3-3,6.8-3,10.8-4.4.1-8.5-.1-12.5.4-2.3.3-4.6.8-7,1.7Z"/><path class="cls-6" d="m203.9,231.8c.8,7.2,1.5,12.2,1.5,12.2-2.9,1.7-6.4,3-10.3,4-3.5,1-7.2,1.7-11.1,2.1-7.8,1-16,1.1-23.2.5-4.2-.4-8.1-1-11.3-1.8-4.5-1.2-7.8-2.8-9.3-4.8-1.2-1.7-1.7-5.8-1.7-10.5,20.7,8,44.2,5.3,65.2-1.7h.2Z"/><path class="cls-15" d="m203.9,231.8h-.2c-21,7.1-44.5,9.8-65.2,1.7,0-1.6,0-3.4,0-5.1,20.5,8,43.9,5.4,64.8-1.6.2,1.7.4,3.4.6,5Z"/><path class="cls-6" d="m184.3,109.8c.9-4.1,14.7-18.2,14.2-21.6,0-.3,0-.6-.1-.8h0c2.4,1,3.8,1.9,5.1,3.4,1.9,2.6,5.6,23.9-5.1,36.2-6.7.3-13.6-2.4-18.3-7.2h0c1.1-3.2,2.4-6.3,3.5-8.6.2-.5.5-1,.7-1.4Z"/><path class="cls-12" d="m202.3,218.5c.4,2.9.7,5.7,1,8.4-20.9,7-44.3,9.6-64.8,1.6.1-2.9.3-5.8.5-8.3,20.7,8.1,42.2,5.4,63.3-1.7Z"/><path class="cls-15" d="m201.7,213.8c.2,1.6.4,3.2.6,4.8-21.1,7.1-42.6,9.7-63.3,1.7.2-1.9.3-3.6.5-5,18.6,6.2,41.1,5.6,62.2-1.5Z"/><path class="cls-6" d="m197.6,269.2c2.7,3.2,4.5,5.8,5.6,7.8-4.9-3.8-9.7-3.3-13.4-1.6l-2.5-8.1c.5.8,1,1.6,1.7,2.1,1.1,1,2.8,1.4,4.1.8,1.1-.5,1.8-1.7,2-3,.1-1,0-2,0-3.1h0c0-.2,0-.4,0-.7,2.3,1.8,1.9,3.7,2.6,5.7Z"/><path class="cls-7" d="m198.5,88.3c.5,3.4-13.3,17.5-14.2,21.6-.2.4-.4.9-.7,1.4h-.1c-.8-1.6-1.3-3-1.6-4.5-.3-1.4-.5-2.8-.5-4.1,0-2.5.4-4.8.9-6.8.7-2.6,1.8-4.7,2.4-6,1.4-2.8,3.4-4.8,3.3-8.1,0,0,0,0,0,0,1.8,1.3,5.6,1.4,7.9,1.3,1.2,1.1,2.1,2.6,2.4,4.5,0,.3.1.6.1.8Z"/><path class="cls-15" d="m180.2,125.5c-.5-.4-.9-.9-1.4-1.3.3-1.5.8-3,1.2-4.4h0c4.7,4.8,11.6,7.5,18.3,7.2-.3.4-.7.8-1,1.1-.6.4-1.4.9-2.2,1.3-1.2.5-2.6.9-4.2.9-3.1,0-6.8-1.1-10.7-4.8Z"/><path class="cls-14" d="m198.2,184.1c.5,4.7,2,17.2,3.5,29.7-21.1,7.1-43.7,7.7-62.2,1.5.2-2,.4-3.2.4-3.2l3.2-26.8v-.4s12.7-.6,12.7-.6v.5s9,6.1,11.3,6.9c2.3.8,8.1-5.3,10.7-6.6,0-3.8-1.1-6.2-2.3-10.5.1-4.6,5.7-19.6,8.4-26.3,2.8-6.7,1.4-11.3,1.4-11.3.2-.3.5-.7.8-1,1.1-1.1,3.5-4.2,4.7-5.6,1.6,0,3-.4,4.2-.9-.3,1.3-3.1,14.8-3.9,20-1,5.6,5.9,26.1,6.9,34.7Z"/><path class="cls-15" d="m196,82.9c-2.3.1-6.1,0-7.9-1.3,1.2-.8,2.5-1.9,4-3,1.8.6,2.9.9,5.2,1.1h0c0,1.1-.4,2.3-1,3.3,0,0-.1,0-.2,0Z"/><path class="cls-8" d="m186.7,264.2c-.2-3.8-1.6-10.3-2.7-14h0c3.9-.5,7.6-1.2,11.1-2.2h0c-.1,3.9-.2,12.5,0,15.4,0,.3,0,.6,0,.7h0c.1,1.1.2,2.1,0,3.1-.2,1.2-.9,2.4-2,3-1.3.6-3,.1-4.1-.8-.7-.6-1.2-1.3-1.7-2.1h0c-.2-.4-.4-.8-.6-1.1,0-.5,0-1.1,0-1.9Z"/><path class="cls-6" d="m186.7,266.1c.2.4.4.7.6,1.1h0s2.5,8.2,2.5,8.2c-4.6,2.1-7.8,6.2-8,6.5.8-3.7,3.3-15,3.2-15.7,0-.7,1.3-1.8,1.6-2,0,.8,0,1.4,0,1.9Z"/><path class="cls-10" d="m170,99.1c-.7-.8-1.3-2-1.1-3.7.1-1.3.2-2.6.4-3.8.2-1,.4-1.9.7-2.7.5-1.3,1.1-2.3,2.2-2.8.2,1.1.2,2.6-.2,4.3-.5.4-.2,2.7,2.2,2.6,2.4-.1,7.4-4.6,7.4-4.6,3-2.4,5.5-5.6,6.2-6.6,0,0,.1,0,.2-.1.1,3.3-1.9,5.3-3.3,8.1-.7,1.3-1.7,3.5-2.4,6-1.3,1-3,2.2-4.6,3.1h0c-2.1,1.3-4.3,2.1-5.9,1.5,0,0-1-.4-1.8-1.3Z"/><path class="cls-4" d="m184.7,57.8c.8,0,1.4,1.2,1.4,2.7s-.6,2.7-1.4,2.7-1.4-1.2-1.4-2.7.6-2.7,1.4-2.7Z"/><path class="cls-6" d="m183.5,111.1h.1c-1.1,2.3-2.5,5.4-3.5,8.6-.5,1.4-.9,2.9-1.2,4.4.5.5.9.9,1.4,1.3-.1.5-.7,2.4-1.3,4.7-.7-6.6-.7-12,.1-17.4.9-2.3,1.8-4,2.9-6,.3,1.4.9,2.9,1.6,4.4Z"/><path class="cls-13" d="m184.7,73.2c-1.9,2.8-2.6,3.2-4.2,4.2-1.7,1.1-5,1.4-6.7,1.2-2.7-.4-4-1.5-5.2-3.7h0c4.8,1.6,15.2-.8,16.1-1.8Z"/><path class="cls-10" d="m175.2,105.8c.8-2.3,1.7-4.6,2.5-6.8h0c1.7-.9,3.3-2.1,4.6-3.1-.6,2-1,4.3-.9,6.8-1.1,3.6-1.9,6.8-2.3,10.1-.8,5.4-.9,10.8-.1,17.4h0c-.4,1.5-.8,3-1.2,4.4,0,0-.7,1.1-1.6,2.7v-.4c.1,0,.1-1.1.1-1.1l.5-24.7h-3.3c0,0,0-.5,0-.5.6-1.6,1.2-3.2,1.8-4.8Z"/><path class="cls-15" d="m181.4,102.6c0,1.3.2,2.7.5,4.1-1,2-1.9,3.7-2.9,6,.5-3.2,1.3-6.5,2.3-10.1Z"/><path class="cls-8" d="m177.7,98.9c-.8,2.3-1.7,4.6-2.5,6.8-1.9,1-3.7,2-5.5,3.1-.3.2-.6.3-1,.2-.3-.1-.4-.4-.6-.7-.5-1.1-.9-2.2-1.2-3.4h-.2c.9-2.1,2-3.9,3.4-5.9.8,1,1.8,1.3,1.8,1.3,1.6.5,3.8-.3,5.9-1.5Z"/><polygon class="cls-11" points="176.7 111.1 176.2 135.8 157.1 135.7 157.5 110.5 161.8 110.6 164.6 110.7 173.4 111 176.7 111.1"/><path class="cls-11" d="m176.2,135.8v1.1s-.1.4-.1.4c-1.4,2.5-3.3,6.4-3.9,9.7-.4,2.3-1.1,6.8-1.9,11.6l-13.5.3.3-23.2h19.1Z"/><path class="cls-9" d="m175.2,105.8c-.6,1.6-1.2,3.2-1.8,4.8v.4s-8.8-.3-8.8-.3v-.4c.6-2,1.2-3.7,2.1-5.4h.2c.3,1.3.7,2.4,1.2,3.5.1.3.3.6.6.7.3.1.7,0,1-.2,1.8-1,3.7-2,5.5-3.1Z"/><polygon class="cls-11" points="170.3 158.7 170.3 158.7 170.3 158.7 170.3 158.7"/><path class="cls-11" d="m156.8,159l-.4,25.3h2.5c0-.1.1-.4.1-.4-2-.4-2.7-3.5-1.9-3.2.6.2,2.5-.2,3.7-.9.4-.3.8-.6,1-.9.8-1.4,5.3-3.3,5.3-3.3.8-2.1,2-9.7,3.1-16.7h0c0,0-13.5.2-13.5.2Z"/><path class="cls-6" d="m166.2,90.9c0,0,0-.1,0-.1l3.7-1.8c-.3.8-.5,1.7-.7,2.7-3.2,5.4-6.1,12.6-7.6,18.7v.4s-4.3-.1-4.3-.1h-2.2c0,0,0-.7,0-.7,2.3-8.2,10.1-17.9,11-19Z"/><path class="cls-10" d="m169.3,91.6c-.2,1.2-.3,2.5-.4,3.8-.2,1.7.4,2.9,1.1,3.7-1.3,1.9-2.5,3.8-3.4,5.7-.8,1.7-1.5,3.5-2,5.4v.4s-2.8,0-2.8,0v-.4c1.4-6.1,4.4-13.2,7.6-18.7Z"/><path class="cls-4" d="m165.4,58c.6,0,1.2,1,1.2,2.3s-.5,2.3-1.2,2.3-1-.8-1.1-1.9c0-.1,0-.3,0-.5,0-1.1.4-2.1.9-2.3,0,0,.2,0,.2,0Z"/><path class="cls-8" d="m193,50.7v-.6c-3.3-.2-7.4-.2-11.8.2-1-3.5-2.3-7.8-.8-11-1.7,3.3-3,6.8-3,10.8-4.4.1-8.5-.1-12.5.4-2.3.3-4.6.8-7,1.7.2,3.1,1.1,6.3,1.8,9.6,0,0-1,3.9,0,8.4.9,4.2,2.2,6.7,5.4,9.5,2.4,2,4.4,3.9,6.6,5.1,0,0,.2.6.3,1.5.2,1.1.2,2.6-.2,4.3-.5.4-.2,2.7,2.2,2.6,2.4-.1,7.4-4.6,7.4-4.6,3-2.4,5.5-5.6,6.2-6.6q-1.9,1.3,0,0c.1-.2.2-.3.2-.3,0,0,0,0,0,0,1.2-.8,2.5-1.9,4-3,3.5-8.1,1.8-15.2.9-27.9Zm-27.6,11.9c-.6,0-1-.8-1.1-1.9,0-.1,0-.3,0-.5,0-1.1.4-2.1.9-2.3,0,0,.2,0,.2,0,.6,0,1.2,1,1.2,2.3s-.5,2.3-1.2,2.3Zm15.1,14.8c-1.7,1.1-5,1.4-6.7,1.2-2.7-.4-4-1.5-5.2-3.7h0c4.8,1.6,15.2-.8,16.1-1.8-1.9,2.8-2.6,3.2-4.2,4.2Zm4.2-14.2c-.8,0-1.4-1.2-1.4-2.7s.6-2.7,1.4-2.7,1.4,1.2,1.4,2.7-.6,2.7-1.4,2.7Z"/><path class="cls-7" d="m159.8,70.1c.9,4.2,2.2,6.7,5.4,9.5-3.3-2.1-5.4-3.6-7.3-6.8-1.2-3.3-2.7-9.5-3.4-19,1.1-.7,2.3-1.2,3.4-1.6.2,3.1,1.1,6.3,1.8,9.6,0,0-1,3.9,0,8.4Z"/><path class="cls-8" d="m190.9,130.3c-3.1,0-6.8-1.1-10.7-4.8-.1.5-.7,2.4-1.3,4.7h0c-.4,1.5-.8,3-1.2,4.4,0,0-.7,1.1-1.6,2.7-1.4,2.5-3.3,6.4-3.9,9.7-.4,2.3-1.1,6.8-1.9,11.6h0,0c-1.1,7.1-2.3,14.7-3.1,16.8,0,0-4.5,2-5.3,3.3-.2.4-.6.7-1,.9-1.3.8-3.1,1.1-3.7.9-.8-.2-.1,2.8,1.9,3.2v.2c-.1,0-2.6.1-2.6.1h-.6s0,.5,0,.5c0,0,9,6.1,11.3,6.9,2.3.8,8.1-5.3,10.7-6.6,0-3.8-1.1-6.2-2.3-10.5.1-4.6,5.7-19.6,8.4-26.3,2.8-6.7,1.4-11.3,1.4-11.3.2-.3.5-.7.8-1,1.1-1.1,3.5-4.2,4.7-5.6Z"/><path class="cls-6" d="m158.1,262.8h0c0-.5,0-1.1.2-1.9h0s1.7.4,1.5,1.9c-.2,1.5,1.4,8.2.9,9.6,0,.1-.1.3-.3.5-1.3,1.5-6.5,4.1-7.1,4.8-.6.7-5.3,5.4-8.1,7.1.4-5.2-2.4-9.2-5.4-11.4,0,0,7.2-5.9,10.9-7.9.9-.5,1.6-.8,1.9-.7,1.7.5,2,1,3.2.5.8-.3,1.7-1.7,2.2-2.5Z"/><path class="cls-6" d="m160.4,272.8c.5,1.6,0,3,0,3,0,0-5.2,2.6-6.1,3.2s-4,4.8-7,7.4c-3,2.7-9,3.6-13.2,3.2-4.3-.3-9.7-4.5-9.7-4.5v-3l1-.8h0c0,.3,0,.5,0,.8,3.4,6.2,16.5,4.3,18.9,3.2.3-.1.6-.3.9-.5,2.7-1.7,7.5-6.4,8.1-7.1.6-.7,5.7-3.3,7.1-4.8Z"/><path class="cls-8" d="m149.3,260.3h0c.2-1.5,0-9.7.2-11.4,3.3.9,7.1,1.5,11.3,1.8-1.1,3.1-2.1,7.4-2.5,10.2-.1.8-.2,1.4-.2,1.9h0c-.5.9-1.4,2.3-2.2,2.6-1.2.5-1.5,0-3.2-.5-.3-.1-1,.2-1.9.7v-.2c-.8.3-1.6.2-2.3-.2-.9-.6-1.2-1.8-.9-2.9,0-.1,0-.3.1-.4,0,0,0,0,0,0,.3-.7.9-1.2,1.6-1.5Z"/><polygon class="cls-5" points="157.5 110.5 157.1 135.7 135.1 135.7 135.3 109.9 155.2 110.4 157.5 110.5"/><polygon class="cls-5" points="157.1 135.7 156.8 159 134.9 159.4 135.1 135.7 157.1 135.7"/><polygon class="cls-11" points="156.8 159 156.4 184.2 155.8 184.2 143.1 184.8 134.7 185.2 134.9 159.4 156.8 159"/><path class="cls-6" d="m150.7,265.3v.2c-3.6,2-10.8,7.9-10.8,7.9-1.7-1.2-3.4-1.9-4.6-1.9-.3,0-.6,0-.9,0h0c5.4-1.8,10.1-5.2,13.5-9.7,0,.1,0,.2-.1.4-.3,1,0,2.2.9,2.9.6.4,1.5.5,2.2.2Z"/><path class="cls-6" d="m139.8,273.4c3,2.2,5.9,6.2,5.4,11.4-.4.2-.6.4-.9.5-2.4,1-15.6,3-18.9-3.2,0-.3,0-.5,0-.8.4-4.9,5.5-9.2,8.9-9.8.3,0,.6,0,.9,0,1.2,0,3,.7,4.6,1.9Z"/><polygon class="cls-5" points="135.3 109.9 135.1 135.7 113.9 135.6 114 109.3 135.3 109.9"/><polygon class="cls-5" points="135.1 135.7 134.9 159.4 113.9 159.9 113.9 135.6 135.1 135.7"/><polygon class="cls-11" points="134.9 159.4 134.7 185.2 113.8 186.3 113.9 159.9 134.9 159.4"/><polygon class="cls-5" points="113.6 109.5 113.5 135.6 106.1 135.4 106.2 111.3 113.6 109.5"/><polygon class="cls-5" points="113.5 135.6 113.4 159.9 106 157.7 106.1 135.4 113.5 135.6"/><polygon class="cls-11" points="113.4 159.9 113.2 186.5 105.9 182.2 106 157.7 113.4 159.9"/><polygon class="cls-5" points="106.2 111.3 106.1 135.4 99.3 135.2 99.4 113 106.2 111.3"/><polygon class="cls-5" points="106.1 135.4 106 157.7 99.2 155.7 99.3 135.2 106.1 135.4"/><polygon class="cls-11" points="106 157.7 105.9 182.2 99.1 178.2 99.2 155.7 106 157.7"/><polygon class="cls-11" points="99.4 113 99.3 135.2 94 134.9 94.1 114.4 99.4 113"/><polygon class="cls-11" points="99.3 135.2 99.2 155.7 93.9 154.1 94 134.9 99.3 135.2"/><polygon class="cls-11" points="99.2 155.7 99.1 178.2 93.9 175.1 93.9 154.1 99.2 155.7"/><path class="cls-2" d="m185.4,136.9s1.4,4.7-1.4,11.3c-2.8,6.7-8.3,21.7-8.4,26.3,1.2,4.3,2.3,6.7,2.3,10.5-2.7,1.3-8.4,7.4-10.7,6.6-2.3-.8-11.3-6.9-11.3-6.9"/><polyline class="cls-3" points="134.7 185.2 113.8 186.3 113.9 159.9"/><polyline class="cls-3" points="156.4 184.2 155.8 184.2 143.1 184.8 134.7 185.2 134.9 159.4"/><line class="cls-3" x1="156.8" y1="159" x2="134.9" y2="159.4"/><polyline class="cls-3" points="158.9 184.1 156.4 184.2 156.8 159"/><polyline class="cls-3" points="157.1 135.7 156.8 159 170.3 158.7 170.3 158.7"/><line class="cls-3" x1="176.2" y1="136.9" x2="176.2" y2="135.8"/><polyline class="cls-3" points="157.5 110.5 161.8 110.6 164.6 110.7 173.4 111 176.7 111.1 176.2 135.8 157.1 135.7"/><polyline class="cls-3" points="135.3 109.9 155.2 110.4 157.5 110.5 157.1 135.7 135.1 135.7"/><polyline class="cls-3" points="135.1 135.7 134.9 159.4 113.9 159.9 113.9 135.6"/><polygon class="cls-3" points="135.1 135.7 113.9 135.6 114 109.3 135.3 109.9 135.1 135.7"/><polyline class="cls-3" points="105.9 182.2 113.2 186.5 113.4 159.9"/><polyline class="cls-3" points="99.1 178.2 105.9 182.2 106 157.7"/><line class="cls-3" x1="99.2" y1="155.7" x2="106" y2="157.7"/><polyline class="cls-3" points="93.9 154.1 93.9 175.1 99.1 178.2 99.2 155.7"/><polyline class="cls-3" points="94 134.9 93.9 154.1 99.2 155.7 99.3 135.2"/><polyline class="cls-3" points="99.4 113 94.1 114.4 94 134.9 99.3 135.2"/><polyline class="cls-3" points="106.2 111.3 99.4 113 99.3 135.2 106.1 135.4"/><polyline class="cls-3" points="106.1 135.4 106 157.7 113.4 159.9 113.5 135.6"/><polygon class="cls-3" points="106.1 135.4 113.5 135.6 113.6 109.5 106.2 111.3 106.1 135.4"/><path class="cls-2" d="m172,90.4c.4-1.6.4-3.2.2-4.3-.1-.9-.3-1.5-.3-1.5"/><path class="cls-2" d="m177.7,98.9c-2.1,1.2-4.3,2-5.9,1.5,0,0-1-.4-1.8-1.3-.7-.8-1.3-2-1.1-3.7.1-1.3.2-2.6.4-3.8.2-1,.4-1.9.7-2.7.5-1.3,1.1-2.3,2.2-2.8"/><path class="cls-2" d="m182.3,95.8c-1.3,1-3,2.2-4.6,3.1"/><path class="cls-2" d="m172,90.4c-.5.4-.2,2.7,2.2,2.6,2.4-.1,7.4-4.6,7.4-4.6,3-2.4,5.5-5.6,6.2-6.6.1-.2.2-.3.2-.3"/><path class="cls-2" d="m198.4,87.4c2.4,1,3.8,1.9,5.1,3.4,1.9,2.6,5.6,23.9-5.1,36.2-.3.4-.7.8-1,1.1-.6.4-1.4.9-2.2,1.3-1.2.5-2.6.9-4.2.9-3.1,0-6.8-1.1-10.7-4.8-.5-.4-.9-.9-1.4-1.3.3-1.5.8-3,1.2-4.4,1.1-3.2,2.4-6.3,3.5-8.5.2-.5.5-1,.7-1.4.8-1.7,1.4-2.7,1.4-2.7"/><path class="cls-2" d="m166.2,90.9c-.7,1.1-6.2,10.3-8.5,19"/><polyline class="cls-2" points="170.1 88.9 170 89 166.3 90.8"/><path class="cls-2" d="m166.3,90.8s0,0,0,.1c-.8,1-8.7,10.8-11,19"/><path class="cls-2" d="m195.2,129.3s0,0,0,.1c-.3,1.3-3.1,14.8-3.9,20"/><path class="cls-2" d="m191.6,129.5s-.2.3-.6.8c-1.1,1.4-3.6,4.5-4.7,5.6-.3.3-.6.7-.8,1-.9,1.2-1.4,2.4-1.4,2.8"/><polyline class="cls-2" points="165.3 183 165.3 183 163.1 184.6"/><path class="cls-2" d="m167.2,175.5s-4.5,2-5.3,3.3c-.2.4-.6.7-1,.9-1.3.8-3.1,1.1-3.7.9-.8-.2-.1,2.8,1.9,3.2,0,0,0,0,0,0,2,.3,5.8-.8,6.2-.9"/><path class="cls-2" d="m178.9,130.2c-.4,1.5-.8,3-1.2,4.4-.2.9-.3,1.7-.4,2.3"/><path class="cls-2" d="m180.2,125.5h0c-.1.5-.7,2.5-1.3,4.7"/><path class="cls-2" d="m177.7,134.6s-.7,1.1-1.6,2.7c-1.4,2.5-3.3,6.4-3.9,9.7-.4,2.3-3.9,23.6-4.7,28.4l2.8-16.8"/><path class="cls-2" d="m191.3,149.4c-1,5.6,5.9,26.1,6.9,34.7.5,4.7,2,17.2,3.5,29.7.2,1.6.4,3.2.6,4.8.4,2.9.7,5.7,1,8.4.2,1.7.4,3.4.6,5,.8,7.2,1.5,12.2,1.5,12.2-2.9,1.7-6.4,3-10.3,4-3.5,1-7.2,1.7-11.1,2.1-7.8,1-16,1.1-23.2.5-4.2-.4-8.1-1-11.3-1.8-4.5-1.2-7.8-2.8-9.3-4.8-1.2-1.7-1.7-5.8-1.7-10.5,0-1.6,0-3.4,0-5.1.1-2.9.3-5.8.5-8.3.2-1.9.3-3.6.5-5,.2-2,.4-3.2.4-3.2l3.2-26.8"/><path class="cls-2" d="m158,262.8c0-.5,0-1.1.2-1.9.4-2.8,1.4-7.1,2.5-10.2"/><path class="cls-2" d="m149.4,248.9c-.1,1.7,0,9.9-.2,11.3"/><path class="cls-2" d="m158.3,260.9s1.7.4,1.5,1.9c-.2,1.5,1.4,8.2.9,9.6,0,.1-.1.3-.3.5-1.3,1.5-6.5,4.1-7.1,4.8-.6.7-5.3,5.4-8.1,7.1-.4.2-.6.4-.9.5-2.4,1-15.6,3-18.9-3.2,0-.3,0-.5,0-.8.4-4.9,5.5-9.2,8.9-9.8.3,0,.6,0,.9,0,1.2,0,3,.7,4.6,1.9,3,2.2,5.9,6.2,5.4,11.4"/><path class="cls-2" d="m139.8,273.4s7.2-5.9,10.9-7.9c.9-.5,1.6-.8,1.9-.7,1.7.5,2,1,3.2.5.8-.3,1.7-1.7,2.2-2.5.3-.5.5-.8.5-.8"/><path class="cls-2" d="m125.4,281.3l-1,.8v3s5.4,4.2,9.7,4.5c4.2.3,10.2-.6,13.2-3.2,3-2.7,6.1-6.9,7-7.4s6.1-3.2,6.1-3.2c0,0,.5-1.4,0-3"/><path class="cls-2" d="m184,250.3c1.1,3.7,2.5,10.2,2.7,14,0,.8,0,1.4,0,1.9,0,0,0,0,0,0"/><path class="cls-2" d="m195.1,248.1c-.1,3.9-.2,12.5,0,15.4,0,.3,0,.6,0,.7"/><path class="cls-2" d="m203.3,277c-1.1-2-2.9-4.6-5.6-7.8-.7-1.9-.3-3.9-2.6-5.7h0"/><path class="cls-2" d="m181.8,281.9c0,.2,0,.4-.1.5,0,.4-.1.6-.1.6,0,0,1.3,8.3,12.8,7.7,9.7-.5,10.7-5.1,10.8-6.5,0-.3,0-.5,0-.5,0,0,.8-1.8-2-6.8"/><path class="cls-2" d="m186.8,264.2h0c-.3.3-1.7,1.3-1.6,2,0,.6-2.4,12-3.2,15.7"/><path class="cls-2" d="m181.8,281.9h0c.3-.4,3.4-4.4,8-6.5,3.7-1.7,8.5-2.2,13.4,1.6h0"/><line class="cls-2" x1="187.3" y1="267.3" x2="189.8" y2="275.4"/><line class="cls-2" x1="186.7" y1="265.5" x2="187.3" y2="267.2"/><path class="cls-2" d="m181.6,282.4l-.9,1.1.4,4.9s4.9,6.4,12.3,5.5c7.4-.8,12.4-5.7,12.4-5.7,0,0,.3-2.9-.5-4"/><path class="cls-2" d="m194.9,263.6c0,.2,0,.4,0,.6.1,1,.2,2.1,0,3.1-.2,1.2-.9,2.4-2,3-1.3.6-3,.1-4.1-.8-.7-.6-1.2-1.3-1.7-2.1h0c-.2-.4-.4-.8-.6-1.1s-.1-.2-.2-.3"/><path class="cls-2" d="m147.8,261.8c.3-.7.9-1.2,1.6-1.5.1,0,.3-.1.5-.2"/><path class="cls-2" d="m151.4,264.8c-.2.2-.4.4-.7.5-.7.3-1.6.2-2.2-.2-.9-.6-1.2-1.8-.9-2.9,0-.1,0-.3.1-.4"/><path class="cls-2" d="m134.3,271.5c5.4-1.7,10.1-5.1,13.5-9.6,0,0,0,0,0,0,0,0,0,0,.1-.1"/><path class="cls-2" d="m203.7,231.9c-21,7-44.5,9.7-65.2,1.7,0,0,0,0,0,0"/><path class="cls-2" d="m203.7,226.7c-.1,0-.2,0-.4.1-20.9,7-44.3,9.6-64.8,1.6,0,0,0,0-.1,0"/><path class="cls-2" d="m202.3,218.5c-21.1,7.1-42.6,9.7-63.3,1.7"/><path class="cls-2" d="m201.7,213.8c-21.1,7.1-43.7,7.7-62.2,1.5"/><path class="cls-2" d="m198.6,127h-.1c-6.7.3-13.6-2.4-18.3-7.2"/><path class="cls-2" d="m181.4,102.6c-1.1,3.6-1.9,6.8-2.3,10.1-.8,5.4-.9,10.8-.1,17.4h0"/><path class="cls-2" d="m177.7,98.9h0c-.8,2.3-1.7,4.6-2.5,6.8-.6,1.6-1.2,3.2-1.8,4.8"/><path class="cls-2" d="m170.1,99s0,0,0,0c-1.3,1.9-2.5,3.8-3.4,5.7-.8,1.7-1.5,3.5-2,5.4"/><path class="cls-2" d="m169.6,91.1c0,.2-.2.3-.3.5-3.2,5.4-6.1,12.6-7.6,18.7"/><path class="cls-2" d="m181.9,106.7c-1,2-1.9,3.7-2.9,6"/><path class="cls-2" d="m175.2,105.8s0,0,0,0c-1.9,1-3.7,2-5.5,3.1-.3.2-.6.3-1,.2-.3-.1-.4-.4-.6-.7-.5-1.1-.9-2.2-1.2-3.4"/><polyline class="cls-1" points="197.2 79.7 197.2 79.6 197.2 79.6"/><line class="cls-1" x1="193" y1="50.7" x2="193" y2="50"/><line class="cls-1" x1="168.6" y1="74.9" x2="168.6" y2="74.9"/><path class="cls-1" d="m151.5,55.8c1.1-.8,2.1-1.5,3.1-2.1,1.1-.7,2.3-1.2,3.4-1.6,2.4-.9,4.7-1.4,7-1.7,4-.5,8-.2,12.5-.4,0-4,1.3-7.5,3-10.8-1.6,3.2-.2,7.5.8,11,4.4-.4,8.5-.4,11.8-.2,1.9,0,3.5.2,4.9.3-.6-6.5-2.5-13.2-8.1-17"/><path class="cls-1" d="m185.9,27.1c-7.4,2.8-6.7-1.8-11.5-1.3-3.8.4-8.9,4.3-11.9,6.4-8.4,5.6-10.1,12.6-10.9,23.6"/><path class="cls-1" d="m165.3,79.5c-3.3-2.1-5.4-3.6-7.3-6.8-1.2-3.3-2.7-9.5-3.4-19,0,0,0-.2,0-.3"/><path class="cls-1" d="m193,50.7c.9,12.7,2.5,19.8-.9,27.9,1.8.6,2.9.9,5.2,1.1.1,0,.3,0,.5,0,7.4-2,8.5-13.2,8.5-22.8s-2.8-20.2-7.4-24.4c-1.9-1.7-5.1-5.4-12.9-5.3"/><path class="cls-1" d="m158,51.9c0,0,0,0,0,.1.2,3.1,1.1,6.3,1.8,9.6,0,0-1,3.9,0,8.4.9,4.2,2.2,6.7,5.4,9.5,2.4,2,4.4,3.9,6.6,5.1,4.1,2.3,8.5,2.4,16-2.8,0,0,.1,0,.2-.1,0,0,0,0,0,0,1.2-.8,2.5-1.9,4-3"/><path class="cls-1" d="m163.4,55.2c.5-1.1,1.2-1.5,1.9-1.5s1.1.3,1.5.8"/><path class="cls-1" d="m183.5,54.7c1.6-1.6,3.8-.8,4.1.5"/><path class="cls-1" d="m165.1,58c0,0,.2,0,.2,0,.6,0,1.2,1,1.2,2.3s-.5,2.3-1.2,2.3-1-.8-1.1-1.9c0-.1,0-.3,0-.5,0-1.1.4-2.1.9-2.3Z"/><path class="cls-1" d="m186.1,60.5c0,1.5-.6,2.7-1.4,2.7s-1.4-1.2-1.4-2.7.6-2.7,1.4-2.7,1.4,1.2,1.4,2.7Z"/><path class="cls-1" d="m170,69.4c2.5,2.5,4.5,1.8,7.3,1.3"/><path class="cls-1" d="m168.3,74.7c.1,0,.2,0,.4.1,4.8,1.7,15.2-.8,16.1-1.7-1.9,2.8-2.6,3.2-4.2,4.2-1.7,1.1-5,1.4-6.7,1.2-2.7-.4-4-1.5-5.2-3.7"/><path class="cls-1" d="m197.2,79.7c0,1-.4,2.3-1,3.2,0,0-.1,0-.2,0-2.3.1-6.1,0-7.9-1.3,0,0,0,0,0,0"/><path class="cls-1" d="m198.5,88.3c0-.3,0-.6-.1-.8-.3-1.9-1.2-3.3-2.4-4.5,0,0-.1-.1-.2-.2"/><path class="cls-1" d="m184.3,109.8c.9-4.1,14.7-18.2,14.2-21.6"/><path class="cls-1" d="m188,81.6h0c.1,3.4-1.9,5.4-3.3,8.2-.7,1.3-1.7,3.5-2.4,6-.6,2-1,4.3-.9,6.8,0,1.3.2,2.7.5,4.1.3,1.4.9,2.9,1.6,4.4"/></svg>