<?xml version="1.0" encoding="UTF-8"?><svg id="Layer_5" xmlns="http://www.w3.org/2000/svg" width="300" height="300" viewBox="0 0 300 300"><defs><style>.cls-1{stroke-linecap:round;stroke-linejoin:round;}.cls-1,.cls-2{stroke:#000;}.cls-1,.cls-2,.cls-3{fill:none;}.cls-2,.cls-3{stroke-miterlimit:10;}.cls-3{stroke:#fff;}.cls-4,.cls-5,.cls-6,.cls-7,.cls-8,.cls-9,.cls-10,.cls-11,.cls-12,.cls-13,.cls-14{stroke-width:0px;}.cls-5{fill:#4b392d;}.cls-6{fill:#4d0099;}.cls-7{fill:#38596c;}.cls-8{fill:#3f414f;}.cls-9{fill:#cbb0a1;}.cls-10{fill:#dbbcab;}.cls-11{fill:#8cb3c4;}.cls-12{fill:#3246ff;}.cls-13{fill:#7ca5bb;}.cls-14{fill:#fff;}</style></defs><path class="cls-7" d="m185.7,264.6c-1.9,2.4-6.3,5.3-9.4,6-1.9.4-4.1.6-5.4.6v-11c0,0,0,0,0,0,.4-1.4.7-2.9,1-4.3h0c.9-.3,1.8-.4,2.9-.7.3-2.2,1.5-4.5,3.2-8.9.8-2,1.6-4.5,2.5-7.7,1.3-.9,5.3-3.6,9.7-5.4,1.9-.8,4-1.4,5.9-1.5,0,0,11.3-2.6,13.3,4.5.9,3.3,1.2,5.6-.9,11.9,0,0-4.6,11.3-6.6,18.2-3,10.2,0,10.2-1.5,15-.4,0-.7,0-1.2.1-3.6.5-8.6,1.9-12.6,1.4-2.8-.3-4.9-1.5-5.7-4.5,0,0,4.2-12.2,4.8-13.7Z"/><path class="cls-8" d="m205,290.1s.2,2,0,2.2c-.2.2-6.8,2.8-13,2-6.3-.7-11.9-4.5-11.9-4.5v-1.7c.1.1.2.2.2.3.6.5,1.6,1.1,3,1.7h0c2.3,1,5.5,1.9,9.2,1.8,5.8-.1,11.7-1.7,11.7-1.7,0,0,0-.2,0-.5h.2l.6.5Z"/><path class="cls-9" d="m199.2,281.5c5,.5,5.1,6.5,5,8.2,0,.3,0,.5,0,.5,0,0-5.9,1.6-11.7,1.7-3.6,0-6.9-.8-9.2-1.8h0c-.3-1.6,1.2-6.2,3.4-7.1h0c3.9.4,9-1,12.6-1.5Z"/><path class="cls-5" d="m199.4,136.4c.5,3,.6,5.8-1.2,8.1-1.8,2.3-3.7,5.3-2.6,8.1.8,2.3,1.9,4.2,2.2,6.7.4,3.4-2.2,5.3-2.6,8.7-.1,1.1.2,2.1.6,3.1-.4-.7-.9-1.2-1.5-1.5-1.9-1-4.1-.9-6.1-.4h0c0,0-6,0-6,0h-.1c.2-1.4,0-2.9-1.3-4-.5-.4-1.2-.7-1.9-.9-.2,0-.4,0-.7,0l-.2-.2c1.4-1.3,2.9-3,4.4-5,2.6-4.2,3.9-7,4.1-17.1.2-10.9-6.4-18.2-9.1-19.8-2.3-1.4-17.7,7.6-21.8,8.8-8.1,2.4-9,9.2-6.7,20.4,1.5,5.6,4.3,9.5,6,11.2,1.8,1.9,3.9,3.8,6.5,5.2.3.7.5,1.3.7,1.8h0c-1.2,1.7-1.3,4.1-2,6,0,0,0,.1,0,.2h-.2c0,0-5.7,3-6,3.3-.2.3-2.6.8-4.2,4.1h-.2c-3.5-2.3-9.2-11.6-7.1-15.2,1.2-1.9,2.3-3.7,2.4-5.9.1-3-1.5-8-3.2-10.4-3.2-4.3-2.8-9.8.8-14.9,4.5-6.3,1.8-9.7,5.2-17.3,1.5-3.4,5.6-7.8,15.2-8.3,7.1-.4,9.2,1.9,15.9,4.1,0,0,4.5-1.5,10.1,2.6,2.6,1.9,3.3,7,5.2,9.6,2.5,3.3,5.2,4.8,5.9,8.9Z"/><path class="cls-9" d="m186.7,282.9h0c-2.1,1-3.7,5.6-3.4,7.2-1.4-.6-2.4-1.2-3-1.7,0-.1,0-.2,0-.3-.5-2.9.8-9.7.8-9.7.7,3,2.9,4.2,5.7,4.5Z"/><path class="cls-10" d="m161.2,167.5c-2.5-1.3-4.7-3.3-6.5-5.2-1.7-1.8-4.6-5.6-6-11.2-2.3-11.2-1.4-18,6.7-20.4,4.1-1.2,19.6-10.1,21.8-8.8,2.8,1.6,9.3,8.9,9.1,19.8-.2,10-1.5,12.9-4.1,17.1-1.5,2-3,3.7-4.4,5-6.5,6.3-12.1,6-16.6,3.6Zm13.5-23.3c.9,0,1.7-1.5,1.6-3.3,0-1.8-.9-3.2-1.9-3.1-.9,0-1.7,1.5-1.6,3.3,0,1.8.9,3.2,1.9,3.1Zm-3.6,14.8c1.6-1.2,1.6-.5,3.5-3.5-.9,1-10.4,3.6-15.3,1.8,1.3,2.1,2.7,3.2,5.6,3.5,1.7.1,4.5-.7,6.2-1.8Zm-16.1-14.3c.8,0,1.3-1.3,1.3-2.9,0-1.5-.8-2.8-1.5-2.7s-1.4,1.3-1.3,2.9.8,2.8,1.6,2.7Z"/><path class="cls-11" d="m178.4,165.8l.2-1.7c.7.1,1.4.4,1.9.9,1.3,1.1,1.6,2.5,1.3,3.9-.1.7-.4,1.4-.7,2-2,3.8-4.4,7.3-7.3,10.2-1.8,1.8-3.8,3.3-6,4.7,0-3.1-1.5-6.2-3.8-8.3-.2-.2-.4-.4-.6-.5l.2-.2c9.2-2.5,14.1-9.6,14.9-10.9Z"/><path class="cls-10" d="m178.6,164.1l-.2,1.7c-.8,1.3-5.7,8.4-14.9,10.9-.7-1.2-1-4.6-1.2-5.5-.1-.7-.3-1.3-.5-2h0c-.2-.6-.4-1.2-.7-1.8,4.5,2.3,10.1,2.6,16.6-3.6l.2.2c.2,0,.4,0,.7,0Z"/><path class="cls-11" d="m178,246.3c-1.7,4.4-2.9,6.7-3.2,8.9-1.1.2-2,.4-2.9.5-3.9.6-6.1.2-9.5-2.5-.4-.3-.8-.7-1.3-1.1-.4-1.4-.4-3.8,0-6.8h0c0-.8.2-1.6.3-2.5,3.7,2.9,11.8,3.9,16.3,3.3h.4Z"/><path class="cls-4" d="m176.2,140.9c0,1.8-.6,3.3-1.6,3.3-.9,0-1.8-1.4-1.9-3.1,0-1.8.6-3.2,1.6-3.3.9,0,1.8,1.3,1.9,3.1Z"/><path class="cls-14" d="m174.5,155.5c-1.9,3-1.8,2.3-3.5,3.5-1.7,1.2-4.5,2-6.2,1.8-2.9-.2-4.2-1.4-5.6-3.5,4.9,1.8,14.3-.8,15.3-1.8Z"/><path class="cls-10" d="m156.9,279.9c0-1.6-.9-3.5-2-3.8-1.3-.4-2.2,1.5-4.8,1.3-1.7-.1-2-1.5-2-2.6s.1-1.2.1-1.2c0,0,3.6-.7,4.5-1.4.9-.7,1.3-1.7,2.1-3s3.1-1.9,3.1-1.9c.7-.3,1.9-1.2,2.1-1.9,1-3.4,1.7-7,2.2-10.5,0-.5.1-1,.2-1.5h0c3.4,2.7,5.6,3,9.5,2.4h0c-.3,1.5-.6,3-1,4.4-.9,3.6-2,7.3-3.5,10.6.6,1.5.8,3.1.8,4.6,0,2.3-.5,4.2-.7,4.5-.2.5-1,.7-1.2.7-.2,0-.2,1-.5,1.1-.3,0-1.2.5-1.5.7-.3.1-.9,1.1-1.4,1.2s-1.7-.5-2.1-.4c-.4.1-.6,1.3-1.5,1.5-.2,0-.6,0-1.2-.2-2.3-.6-6.8-2.2-6.8-2.2l-.2-.4,5.6-2.1h0Z"/><path class="cls-12" d="m170.9,271.2v3.3s-2.6.9-2.6.9c0-1.4-.2-3-.8-4.6,1.4-3.3,2.6-7,3.5-10.6h0v11Z"/><path class="cls-12" d="m169.6,211.1l-6.1,21.9h-.2c1.5-6.9,3.5-14.7,5.6-22.1l.7.2Z"/><path class="cls-12" d="m161.5,209.3l7.3,1.6c-2.1,7.4-4.1,15.2-5.6,22.1h-2.1l.3-23.7Z"/><path class="cls-11" d="m163.5,176.7l-.2.2h0c-2.3,1.6-4.2,3.9-5.2,6.6.4-1.1.2-2.8.5-4,.3-1.4.7-2.7,1.2-4,0,0,0-.1,0-.2.7-2,.8-4.3,2-6,.2.7.4,1.3.5,2,.1.9.5,4.2,1.2,5.5Z"/><path class="cls-12" d="m161.2,233h2.1c-.8,3.6-1.4,7-1.8,10-.1,0-.2-.1-.3-.2v-9.7Z"/><path class="cls-12" d="m161.2,233v9.7c0,0,0,2.7,0,2.7h0c-.3,3.1-.3,5.4,0,6.9.5.4.9.8,1.3,1.1h0c0,.5-.1,1.1-.2,1.6l-15.6,2.4.3-24.5,14.3.2Z"/><path class="cls-12" d="m146.6,257.3l15.6-2.4c-.4,3.6-1.2,7.1-2.2,10.5-.2.7-1.4,1.6-2.1,1.9,0,0-2.3.5-3.1,1.9s-1.2,2.3-2.1,3c-.9.7-4.5,1.4-4.5,1.4,0,0-.1.5-.1,1.2h-1.6s.2-17.5.2-17.5Z"/><polygon class="cls-12" points="149.1 206.6 157.5 208.4 161.5 209.3 161.2 233 146.9 232.8 147.2 206.1 149.1 206.6"/><path class="cls-12" d="m161.1,242.7c0,0,.2.2.3.2-.1.9-.2,1.7-.3,2.5v-2.7Z"/><path class="cls-8" d="m158.2,286.7s.4,1,.3,1.4c-.1.3-9.6,5.1-14.3,5.1s-9.2-.6-12.1-3l-.3-.7,3.5-1.4v.3c.6.6,4.1,1.8,8.2,1.8s14-3.2,14.7-3.5Z"/><path class="cls-9" d="m158.2,284.8s.6,1.6,0,1.9c-.6.3-10.5,3.5-14.7,3.5s-7.6-1.2-8.1-1.8v-.3c-.1,0,11-4.3,11-4.3l4.9-1.9.2.4s4.5,1.6,6.8,2.2v.2Z"/><path class="cls-12" d="m156.9,279.9h0l-5.6,2.1-4.9,1.9v-9.1c0,0,1.7,0,1.7,0,0,1,.3,2.5,2,2.6,2.7.2,3.6-1.6,4.8-1.3,1.1.3,2,2.2,2,3.8Z"/><path class="cls-4" d="m156.2,141.9c0,1.6-.5,2.8-1.3,2.9s-1.5-1.2-1.6-2.7.5-2.8,1.3-2.9,1.5,1.2,1.5,2.7Z"/><path class="cls-13" d="m195.7,171c-.4-.7-.9-1.2-1.5-1.5-1.9-1-4.1-.9-6.1-.4h0c0,0-6,0-6,0h-.1c-.1.7-.4,1.3-.7,2-2,3.8-4.4,7.3-7.3,10.2-1.8,1.8-3.8,3.3-6,4.7,0-3.1-1.5-6.2-3.8-8.3-.2-.2-.4-.4-.6-.5h0c-2.3,1.6-4.2,3.9-5.2,6.6.4-1.1.2-2.8.5-4,.3-1.4.7-2.7,1.2-4h-.2c0,0-5.7,3-6,3.3-.2.3-2.6.8-4.2,4.1-.3.6-.5,1.2-.7,2,0,.4-.2.7-.3,1.1,0,0-4.9,9.1-8.9,18.4l7.8,1.7,1.9.4,8.4,1.9,4,.9,7.3,1.6.7.2-6.1,21.9h-.2c-.8,3.6-1.4,7-1.8,10,3.7,2.9,11.8,3.9,16.3,3.3h.4c.8-1.9,1.6-4.4,2.5-7.5,1.3-.9,5.3-3.6,9.7-5.4l6.8-50.5c.7-4.5.3-9.2-1.4-11.8Z"/><polygon class="cls-6" points="139.4 204.4 147.2 206.1 146.9 232.8 130.3 232.6 130.3 232.4 130.6 202.5 139.4 204.4"/><polygon class="cls-12" points="146.9 232.8 146.6 257.3 130.1 260.2 130.1 249.5 130.3 232.6 146.9 232.8"/><polygon class="cls-12" points="146.6 257.3 146.5 274.8 146.4 283.9 135.3 288.1 131.8 289.5 129.9 290.2 130.1 260.2 146.6 257.3"/><polygon class="cls-6" points="130.6 202.2 130.6 202.5 130.4 202.4 130.2 232.4 113.1 232.4 113.3 205.8 130.6 202.2"/><polygon class="cls-6" points="130.6 202.5 130.3 232.4 130.2 232.4 130.4 202.4 130.6 202.5"/><rect class="cls-12" x="130.2" y="232.4" width="0" height=".2"/><polygon class="cls-12" points="130.3 232.6 130.1 249.5 130.2 232.6 130.3 232.6"/><polygon class="cls-12" points="130.2 232.4 130.2 232.6 130.1 249.5 130 260.1 113 256.8 113.1 232.4 130.2 232.4"/><polygon class="cls-12" points="130 260.1 129.7 290 112.9 283.3 113 256.8 130 260.1"/><polygon class="cls-12" points="113.3 205.8 113.1 232.4 98.6 232.4 98.6 208.8 113.3 205.8"/><polygon class="cls-12" points="113.1 232.4 113 256.8 98.5 254 98.6 232.4 113.1 232.4"/><polygon class="cls-12" points="113 256.8 112.9 283.3 98.5 277.5 98.5 254 113 256.8"/><polygon class="cls-12" points="98.6 208.8 98.6 232.4 87.9 232.3 87.9 211 98.6 208.8"/><polygon class="cls-12" points="98.6 232.4 98.5 254 88 252 87.9 232.3 98.6 232.4"/><polygon class="cls-12" points="98.5 254 98.5 277.5 88 273.3 88 252 98.5 254"/><path class="cls-2" d="m170.9,271.2c1.3,0,3.5-.1,5.4-.6,3.1-.7,7.6-3.6,9.4-6"/><path class="cls-2" d="m159.5,175.5s-5.7,3-6,3.4c-.2.3-2.6.8-4.2,4.1-.3.6-.5,1.2-.7,2,0,.4-.2.7-.3,1.1,0,0-4.9,9.1-8.9,18.4"/><path class="cls-2" d="m151.6,185.3s0,.2-.1.5c-.5,2.4-2.4,12.3-2.5,20.8"/><polyline class="cls-3" points="146.4 283.9 135.3 288.1 131.8 289.5 129.9 290.2 130.1 260.2"/><polyline class="cls-3" points="156.9 279.9 151.3 282 146.4 283.9 146.5 274.8 146.6 257.3 158.6 255.6"/><polyline class="cls-3" points="162.4 254.9 162.2 254.9 146.6 257.3"/><polyline class="cls-3" points="171 260.2 170.9 271.2 170.9 274.5 168.3 275.4"/><polyline class="cls-3" points="161.1 245.4 161.1 242.7 161.2 233"/><polyline class="cls-3" points="161.5 209.3 168.8 210.9 169.6 211.1"/><polyline class="cls-3" points="163.5 233 163.2 233 161.2 233"/><polyline class="cls-3" points="147.2 206.1 149.1 206.6 157.5 208.4 161.5 209.3 161.2 233 146.9 232.8"/><polyline class="cls-3" points="146.9 232.8 146.6 257.3 130.1 260.2 130.1 249.5"/><polyline class="cls-3" points="130.6 202.5 139.4 204.4 147.2 206.1 146.9 232.8 130.3 232.6"/><polyline class="cls-3" points="112.9 283.3 129.7 290 130 260.1"/><polyline class="cls-3" points="98.5 277.5 112.9 283.3 113 256.8"/><line class="cls-3" x1="98.5" y1="254" x2="113" y2="256.8"/><polyline class="cls-3" points="88 252 88 273.3 98.5 277.5 98.5 254"/><polyline class="cls-3" points="87.9 232.3 88 252 98.5 254 98.6 232.4"/><polyline class="cls-3" points="98.6 208.8 87.9 211 87.9 232.3 98.6 232.4"/><polyline class="cls-3" points="113.3 205.8 98.6 208.8 98.6 232.4 113.1 232.4"/><polyline class="cls-3" points="113.1 232.4 113 256.8 130 260.1 130.1 249.5 130.3 232.6 130.3 232.4"/><polygon class="cls-3" points="113.1 232.4 130.2 232.4 130.3 232.4 130.6 202.5 130.6 202.2 113.3 205.8 113.1 232.4"/><path class="cls-2" d="m161.8,169.3c-.2-.5-.4-1.1-.7-1.8,0-.1-.1-.3-.2-.4"/><path class="cls-2" d="m178.5,165.6s0,0-.1.2c-.8,1.3-5.7,8.4-14.9,10.9-.7-1.2-1-4.6-1.2-5.5-.1-.7-.3-1.3-.5-2"/><path class="cls-2" d="m177.9,164c.2,0,.4,0,.7,0,.7.1,1.4.4,1.9.9,1.3,1.1,1.6,2.5,1.3,3.9-.1.7-.4,1.4-.7,2-2,3.8-4.4,7.3-7.3,10.2-1.8,1.8-3.8,3.3-6,4.7,0-3.1-1.5-6.2-3.8-8.3-.2-.2-.4-.4-.6-.5h0c-2.3,1.6-4.2,3.9-5.2,6.6.4-1.1.2-2.8.5-4,.3-1.4.7-2.7,1.2-4,0,0,0-.1,0-.2.7-2,.8-4.3,2-6h0"/><line class="cls-2" x1="182" y1="168.9" x2="188" y2="168.9"/><path class="cls-2" d="m161.1,245.4c0-.8.2-1.6.3-2.5.4-2.9,1-6.3,1.8-10,1.5-6.9,3.5-14.7,5.6-22.1,4.4-15.3,8.9-28.7,9.7-28.7"/><line class="cls-3" x1="161.1" y1="245.4" x2="161.1" y2="245.4"/><path class="cls-2" d="m183,171.1s2.3-1.4,5-2.1c2-.5,4.2-.6,6.1.4.6.3,1.1.9,1.5,1.5,1.7,2.6,2,7.3,1.4,11.8-.4,3-1.3,5.8-2.5,7.9,0,0-7.6,16.8-11.1,35.2-1,5.2-2,9.4-2.9,12.8-.9,3.1-1.7,5.6-2.5,7.7-1.7,4.4-2.9,6.7-3.2,8.9-1.1.2-2,.4-2.9.5-3.9.6-6.1.2-9.5-2.5-.4-.3-.8-.7-1.3-1.1-.4-1.4,0-6.8.3-9.8"/><polyline class="cls-2" points="197 182.8 190.2 233.3 190.2 233.6"/><path class="cls-2" d="m162.4,253.4c0,.5-.1,1-.2,1.5-.4,3.6-1.2,7.1-2.2,10.5-.2.7-1.4,1.6-2.1,1.9,0,0-2.3.5-3.1,1.9s-1.2,2.3-2.1,3c-.9.7-4.5,1.4-4.5,1.4,0,0-.1.5-.1,1.2,0,1,.3,2.5,2,2.6,2.7.2,3.6-1.6,4.8-1.3,1.1.3,2,2.2,2,3.8,0,.3,0,.6,0,.8"/><path class="cls-2" d="m172,256c-.3,1.4-.6,2.8-1,4.3-.9,3.6-2,7.3-3.5,10.6.6,1.5.8,3.1.8,4.6,0,2.3-.5,4.2-.7,4.5-.2.5-1,.7-1.2.7-.2,0-.2,1-.5,1.1-.3,0-1.2.5-1.5.7-.3.1-.9,1.1-1.4,1.2s-1.7-.5-2.1-.4c-.4.1-.6,1.3-1.5,1.5-.2,0-.6,0-1.2-.2-2.3-.6-6.8-2.2-6.8-2.2"/><path class="cls-2" d="m180.1,239s.1-.1.4-.3c1.3-.9,5.3-3.6,9.7-5.4,1.9-.8,4-1.4,5.9-1.5,0,0,11.3-2.6,13.3,4.5.9,3.3,1.2,5.6-.9,11.9"/><path class="cls-2" d="m194.8,244.6s-2.7,1.9-5,6.3c-2.4,4.4-3.4,12.2-4,13.8-.6,1.6-4.8,13.7-4.8,13.7"/><path class="cls-2" d="m181,278.4c.7,3,2.9,4.2,5.7,4.5,3.9.4,9-.9,12.6-1.4.4,0,.8,0,1.2-.1,1.5-4.8-1.5-4.8,1.5-15,2-6.9,6.6-18.2,6.6-18.2"/><path class="cls-2" d="m186.7,283c-2.1.9-3.7,5.5-3.4,7.1"/><path class="cls-2" d="m181,278.4s-1.3,6.8-.8,9.7c0,.1,0,.2,0,.3.6.5,1.6,1.1,3,1.7h0c2.3,1,5.5,1.9,9.2,1.8,5.8-.1,11.7-1.7,11.7-1.7,0,0,0-.2,0-.5,0-1.7,0-7.7-5-8.2"/><path class="cls-2" d="m204.4,289.7l.6.5s.2,2,0,2.2c-.2.2-6.8,2.8-13,2-6.3-.7-11.9-4.5-11.9-4.5v-1.7"/><path class="cls-2" d="m158.2,284.8s.6,1.6,0,1.9c-.6.3-10.5,3.5-14.7,3.5s-7.6-1.2-8.1-1.8"/><path class="cls-2" d="m158.2,286.7s.4,1,.3,1.4c-.1.3-9.6,5.1-14.3,5.1s-9.2-.6-12.1-3"/><path class="cls-2" d="m161,242.7s0,0,0,0c0,0,.2.2.3.2,3.7,2.9,11.8,3.9,16.3,3.3"/><path class="cls-2" d="m163.8,177.6c-3.8,9.8-5.2,19.9-6.2,30.6"/><path class="cls-1" d="m148.7,151.1c1.5,5.6,4.3,9.5,6,11.2,1.8,1.9,3.9,3.8,6.5,5.2,4.5,2.3,10.1,2.6,16.6-3.6,1.4-1.3,2.9-3,4.4-5"/><path class="cls-1" d="m152.1,136.1c.8-2.1,2.6-1.9,3.5-.9"/><path class="cls-1" d="m172.9,134.6c1.6-1.7,3.9-1,4.3.3"/><path class="cls-1" d="m156.2,141.9c0,1.6-.5,2.8-1.3,2.9s-1.5-1.2-1.6-2.7.5-2.8,1.3-2.9,1.5,1.2,1.5,2.7Z"/><path class="cls-1" d="m176.2,140.9c0,1.8-.6,3.3-1.6,3.3-.9,0-1.8-1.4-1.9-3.1,0-1.8.6-3.2,1.6-3.3.9,0,1.8,1.3,1.9,3.1Z"/><path class="cls-1" d="m160.6,146.4c-.9,5.7.4,6,5.9,4.8"/><path class="cls-1" d="m159.2,157.3c4.9,1.8,14.3-.8,15.3-1.8-1.9,3-1.8,2.3-3.5,3.5-1.7,1.2-4.5,2-6.2,1.8-2.9-.2-4.2-1.4-5.6-3.5Z"/><path class="cls-1" d="m186.3,141.8c-.2,10-1.5,12.9-4.1,17.1"/><path class="cls-1" d="m186.3,141.8c.2-10.9-6.4-18.2-9.1-19.8-2.3-1.4-17.7,7.6-21.8,8.8-8.1,2.4-9,9.2-6.7,20.4"/><path class="cls-1" d="m196.6,174c-.2-1-.6-2-.9-3-.4-1-.7-2-.6-3.1.3-3.4,3-5.3,2.6-8.7-.3-2.5-1.3-4.3-2.2-6.7-1-2.8.8-5.8,2.6-8.1,1.9-2.3,1.7-5.1,1.2-8.1-.7-4.1-3.4-5.6-5.9-8.9-1.9-2.6-2.6-7.8-5.2-9.6-5.7-4.1-10.1-2.6-10.1-2.6-6.8-2.3-8.8-4.5-15.9-4.1-9.6.5-13.7,4.9-15.2,8.3-3.3,7.5-.7,10.9-5.2,17.3-3.6,5.1-4,10.6-.8,14.9,1.8,2.4,3.4,7.4,3.2,10.4,0,2.2-1.3,4-2.4,5.9-2.1,3.5,3.6,12.9,7.1,15"/></svg>