<?xml version="1.0" encoding="UTF-8"?><svg id="Layer_5" xmlns="http://www.w3.org/2000/svg" width="300" height="300" viewBox="0 0 300 300"><defs><style>.cls-1{stroke-linecap:round;stroke-linejoin:round;}.cls-1,.cls-2{stroke:#000;}.cls-1,.cls-2,.cls-3{fill:none;}.cls-2,.cls-3{stroke-miterlimit:10;}.cls-3{stroke:#fff;}.cls-4,.cls-5,.cls-6,.cls-7,.cls-8,.cls-9,.cls-10,.cls-11,.cls-12{stroke-width:0px;}.cls-5{fill:#4d0099;}.cls-6{fill:#49506b;}.cls-7{fill:#402a1f;}.cls-8{fill:#434246;}.cls-9{fill:#1f2076;}.cls-10{fill:#b27f62;}.cls-11{fill:#fff;}.cls-12{fill:#e52e20;}</style></defs><path class="cls-6" d="m195.4,285.2v4.1s-2.9,3.3-9.3,4.2c-6.3,1-9.6-2-9.6-2l-.3-3.1.7-.8h0c0,.2,0,.4,0,.5.3.8,2.4,3.8,8.4,2.9,5.4-.8,9.8-3.3,10-5.9h0Z"/><path class="cls-6" d="m195.4,284.5c0,.2,0,.5,0,.7-.2,2.6-4.6,5-10,5.9-5.9.9-8.1-2.2-8.4-2.9,0-.1,0-.3,0-.5,0-.9.1-2.4.6-3.8h0s2.4-3.4,5.7-4.8h0c1.1-.5,2.2-.8,3.4-.7,1.4.1,2.6.5,3.7,1,2.6,1.2,4.1,3.2,4.3,3.5,0,0,0,0,0,0,.2.6.4,1.1.5,1.6Z"/><path class="cls-10" d="m183.2,79.1v-.2h1.8s.7-3,.7-3h-10.6v-.3h10.6v-1.6h0s2.7.4,2.9,1.3c.2,1,.9,6.4.4,7.2-.5.8-2.1,2.9-2.1,2.9h-2.1c2.4,8.1,8.3,22.5,9.1,26.5.8,4.4-.3,11.2-.7,11.6-.4.4-8.7,3.6-11.2,3.1-.6-5.5-3.6-9.2-4.7-10.3,1.3-.3,6-1.3,7.3-.5-1.3-1.3-2.4-4.1-2.6-5.7-.3-1.9-1.1-16.6-3.6-26.1,0,0-.8-4.2,1.2-4.5,1.2-.2,2.5-.4,3.7-.4Z"/><path class="cls-6" d="m191.5,274c.3,3.5,2.3,6.5,3.3,8.9-.3-.3-1.8-2.3-4.3-3.5-.3-.1-1.5-3.2-1.7-4.8.3-.3.5-.7.6-1.1h0c1.6-1.9,1.2-4.3-.4-5.5,0-.9-.1-1.6-.1-2.4h0c2,2.3,2.2,4.1,2.6,8.4Z"/><path class="cls-8" d="m132.4,247.3c-4.7-.1-9.5.6-14.4-.5h0c-1.3-.3-2.6-.8-3.9-1.4-3.1-1-.4-20.2-1.2-20.7,4.6-14.6,14.5-38.4,14.5-38.4,9.3,5.3,20.9,6.5,25.5,6.6s21.9-6.4,21.9-6.4c0,0,9.7,22.7,13.2,31.5,6.2,15.9,5.2,25.8,5.3,26.1-1.3,1.8-2,3.2-2.8,4.2h0c-1.8,2.3-3.8,2.2-14.3-.8-1.1-.3-2.2-.6-3.5-1l-3.6-12.4-16.4-30.7s-3.4-3-3.4-3.4c.3,2.3-9.2,22.4-11.3,29.3-1.9,7.2-1.3,12.2-1.3,18.4-1.4-.3-2.8-.4-4.3-.4Z"/><path class="cls-10" d="m190.5,248.3c.4,5-1.7,9.5-1.6,17.2,0,.8,0,1.6.1,2.4-.9-.6-2.1-1-3.5-.7-2.3.4-3.2,1.7-3.2,3.2-.2-1.7-.4-3.3-.8-4.8-1.5-7.2-4.1-13.4-5.4-18,10.4,2.9,12.5,3.1,14.3.8Z"/><path class="cls-6" d="m188.8,274.6c.2,1.6,1.5,4.7,1.7,4.8-1.1-.5-2.3-.9-3.7-1-1.2,0-2.4.2-3.4.7.1-.2,1.1-2.7.5-4.9-.7-2.3-.9-5.3,2.6-5.2,3,0,3.7,2.5,2.9,4.5-.1.4-.3.8-.6,1.1Z"/><path class="cls-6" d="m189,267.9c1.6,1.2,2,3.6.4,5.5h0c.8-2,0-4.5-2.9-4.5-3.6,0-3.3,2.9-2.6,5.2-.9-1.1-1.5-2.5-1.5-3.8s.9-2.8,3.2-3.2c1.4-.2,2.6.1,3.5.7Z"/><path class="cls-6" d="m183.8,274.2c.7,2.2-.4,4.7-.5,4.9h0c-3.4,1.5-5.7,4.9-5.7,4.9h0c0-.2.2-.4.3-.6,3.3-5.6,2.1-11.5,1.9-14-.2-2.4,1.8-3.8,1.8-3.8.3,1.6.6,3.2.8,4.8,0,1.3.6,2.7,1.5,3.8Z"/><path class="cls-9" d="m181.9,126.6c.3,2.7,0,5.8-1.3,9.2-.7-.1-1.4-.2-2.1-.3h0c2-6.3,0-13.8-3.8-19.1,1.2-.3,2.2-.5,2.2-.5,0,0,.1.1.4.4h0c1.1,1.1,4.1,4.8,4.7,10.3Z"/><path class="cls-11" d="m174.7,116.5c3.8,5.3,5.9,12.9,3.8,19.1h0c-1,0-2,0-2.9,0h0s0-.4,0-.4h0c.4-3.2.8-6.4.4-9.6-.4-3.2-1.7-6.4-4.1-8.5.8-.2,1.9-.4,2.9-.7Z"/><path class="cls-12" d="m171.1,136.5c-1.6,7.7-2.4,22.8,3.7,50,0,0-17.3,6.6-21.9,6.4s-16.2-1.3-25.5-6.6c.7-8.2,4-34.2-.6-48.5-2.7-2.8-6.2-3.3-9.6-3.1-.9-6.2.8-12.7,4.8-17.5h0v-.2c0,0,2.9.8,2.9.8,0,0,7.3.2,10,.9h0c-1.7.2-3.2.4-3.2.4l4.7,2.1,2.9,1.3,6.2,6.4,1.6,1.6s3.2-3.9,7.7-7.4c.9-.7,2.1-1.3,3.1-1.7,2.5-1,4.9-1.3,5.2-1.4-.3-.6-1.7-1-3.2-1.2,2.2-.2,8.7-1.3,10.9-1.3,0,0,.5,0,1.1-.2,2.4,2.1,3.7,5.3,4.1,8.5.4,3.2,0,6.4-.4,9.6h0v.3s0,0,0,0c-1.7.1-3.3.5-4.5.9Z"/><path class="cls-11" d="m163,119.8c-.2.1-2.7.4-5.2,1.4h0c-.5-1.6-1.7-2.8-3.2-3.1h0c.5,0,3.1.1,5.2.5h0c1.5.3,2.8.7,3.2,1.2Z"/><path class="cls-9" d="m154.6,118.1c1.5.4,2.7,1.5,3.2,3h0c-1.1.6-2.2,1.1-3.1,1.8-4.4,3.5-7.7,7.4-7.7,7.4l-1.6-1.6.3-.3h0c.2.2.4.4.5.4,1.3.4,7.3-9.1,7.3-9.1-.1-.5-.2-1.2-.2-1.8h1.2Z"/><path class="cls-7" d="m155.4,87.4c.2.4,0,1.1-.5,1.4-.4.3-1,.3-1.4.2-.5-.1-1-.3-1.5-.3-.4,0-.9,0-1.3,0-.4,0-.9,0-1.3-.2-.4-.2-.4-1-.3-1.4,1.6-.8,5.9-.3,6.2.4Z"/><path class="cls-10" d="m153.5,116.2s0,.8,0,1.8,0,1.2.2,1.8c0,0-6,9.5-7.3,9.1-.2,0-.3-.2-.5-.4-1.4-1.7-3.6-7.2-3.6-7.2.2-2.2,0-2.3,0-2.3h0c3,1.1,6.6.6,11.3-2.8Z"/><path class="cls-4" d="m152.5,91.7c.8,0,1.4,1.2,1.4,2.6s-.7,2.6-1.4,2.6-1.4-1.2-1.4-2.6.6-2.6,1.4-2.6Z"/><path class="cls-11" d="m151.7,108c.8-.2-3.1,4-7.8,3.9-2.8,0-4.7-.8-5.8-3.3h0c3.5,1.4,9.9.5,13.6-.6Z"/><path class="cls-9" d="m145.8,128.5h0l-.3.3-6.2-6.4-2.9-1.3h0c1.1-1.2,2.5-2.2,4-2.7v-.2c.6.3,1.2.6,1.8.8h0s.2,0,0,2.3c0,0,2.2,5.5,3.6,7.2Z"/><path class="cls-11" d="m140.5,118.3v.2c-1.6.6-3,1.5-4.1,2.7h0s-4.7-2.1-4.7-2.1c0,0,1.5-.2,3.2-.3,2.4-.3,5.2-.6,5.4-.6h0c.1,0,.2.1.3.2Z"/><path class="cls-7" d="m139.1,87.5c0,.5-.2.9-.7,1.1-.4.2-.9.2-1.4.2-.5,0-.9-.1-1.4,0-.4,0-.8.2-1.1.4-.4.1-.8.2-1.2.1-.4,0-.8-.4-.8-.8,0-.4.4-1,.8-.9.9-.7,4.3-.8,5.2-.4,0,0,.4.2.5.3Z"/><ellipse class="cls-4" cx="136.1" cy="94.2" rx="1.2" ry="2.3"/><path class="cls-6" d="m135.2,287.8c.5,2.4-.4,3.6-.4,3.6,0,0-6.5,2.6-12.4,3.1-5.9.5-13.3-2.5-13.3-2.5l-.4-2.5.9-1.2h0c0,.3,0,.6,0,.8.8,1.2,6.1,1.8,11.5,2.3,4.2.4,9.4-.8,12.1-1.8.8-.3,1.4-.6,1.7-.8.2-.1.3-.4.3-.8h0Z"/><path class="cls-6" d="m131.5,275.4c-.2-.8-.4-1.6-.5-2.5h0s2.5.1,2.8,1.2c.2,1,1.9,10.6,1.4,13.6,0,.4-.2.7-.3.8-.3.2-.9.5-1.7.8,0-5.2-3.4-7.6-6.4-8.8l2.5-4.5s0-.1.1-.3c0,0,1.2-.2,2.1-.5Z"/><path class="cls-6" d="m126.8,280.6c3,1.2,6.4,3.6,6.4,8.8-2.7,1-7.9,2.2-12.1,1.8-5.4-.5-10.6-1.1-11.5-2.3,0-.2,0-.5,0-.8,0-1.7.9-4.9,4.1-6.9,1.1-.7,2.5-1.2,4.2-1.5,1.4-.3,3-.3,4.8-.2,0,0,1.9.2,4.1,1Z"/><path class="cls-10" d="m132.4,247.3h0c-.3,4.3-3.3,14.8-1.4,25.6.1.8.3,1.7.5,2.5-.9.3-2.1.5-2.1.5.2-.7.8-2.4.3-3.5-.6-1.4-2.8-2.8-4.1-2.8-1,0-3.4.5-4.1,2.8,0,0,0,0-.1,0,.2-8.4-3.1-21.5-3.4-25.6h0s0-.2,0-.2c4.8,1.1,9.7.4,14.4.5h0Z"/><path class="cls-7" d="m168.5,78.8h0c0-1.1-.2-2.1-.6-3.1-.2-.7-.6-1.4-1-2.1-1.3-2.2-3.2-3.9-5.3-5.4-4.3-3-9.7-4.5-14.4-4.7-3.5-.1-8.2.4-12.2,2.2-3,1.4-5.7,3.5-7.1,6.7-.4.9-.7,1.8-1,2.7-.3,1.2-.5,2.3-.7,3.5-.3,2.1-.3,4.2-.3,6.1,0,1.7,0,3.2.1,4.5.4-.2.9-.2,1.2-.2,0-1,0-1.9,0-2.8.4-2.4,1.3-5.6,3.1-7.5.3-.3.6-.6.9-.8,1.4-1,2.3,0,3.7.7,0,0,0,0,0,0,.1,0,.3.1.4.2,1.6.8,3.3,1.3,5.1,1.2,1.7,0,3.3-.7,4.8-1.4,2.1-1,4.1-2.1,6.3-2.4,2.3-.3,4.1.8,5.6,2.5,1,1.1,1.8,2.4,2.6,3.6,1.7,2.7,2.8,6.6,3.4,7.6.6,1,2.4.9,2.3-.4h0c.4-1.1,1.4-1.6,2.3-1.3h0c.3-4,.9-6.9.8-9.5Z"/><path class="cls-6" d="m129.7,272.4c.5,1.1,0,2.9-.3,3.5,0,.2-.1.3-.1.3l-2.5,4.5c-2.2-.9-4.1-1-4.1-1-1.9-.2-3.4,0-4.8.2h0s0-.1,0-.1c0,0,2.7-2.6,3.7-4.1-.2-1-.3-1.9-.1-2.6,0-.2,0-.4.1-.5.7-2.3,3.1-2.7,4.1-2.8,1.3,0,3.5,1.4,4.1,2.8Z"/><path class="cls-10" d="m168.3,88.5c-.2-.1-.4-.2-.6-.2-.9-.2-1.9.3-2.3,1.3h0c0,1.2-1.8,1.4-2.3.4-.6-1-1.7-4.9-3.4-7.6-.8-1.2-1.6-2.5-2.6-3.6-1.5-1.6-3.3-2.8-5.6-2.5-2.3.3-4.3,1.5-6.3,2.4-1.5.7-3.1,1.3-4.8,1.4-1.8.1-3.5-.5-5.1-1.2-.1,0-.3-.1-.4-.2,0,0,0,0,0,0-1.4-.8-2.3-1.8-3.7-.7-.3.2-.6.5-.9.8-1.8,1.9-2.7,5.1-3.1,7.5,0,1,0,1.9,0,2.8-.3,0-.8,0-1.2.2-.4.1-.7.3-.8.6-.3.5-.4,1.1-.5,1.6-.3,1.6-.5,3.3-.3,4.9.3,2.2,2.1,5.2,3.4,4.3h.3c1.1,5,3,8.2,5.3,10.9,2.1,2.5,4.2,5.1,6.7,6.6h0c.1,0,.2.1.3.2.5.3,1.1.6,1.7.8,3,1.1,6.6.6,11.3-2.8.9-.7,1.9-1.5,2.9-2.4,2.2-1.9,7.4-7.3,8.4-13.8h0c.6.1,1.3,0,1.9-.5.9-.7,1.6-1.8,2.1-3,.6-1.3,1-2.8,1-4.3,0-1.5-.6-3.1-1.6-3.8Zm-32.1,8c-.6,0-1.2-1-1.2-2.3s.5-2.3,1.2-2.3,1.2,1,1.2,2.3-.5,2.3-1.2,2.3Zm1-7.6c-.5,0-.9-.1-1.4,0-.4,0-.8.2-1.1.4-.4.1-.8.2-1.2.1-.4,0-.8-.4-.8-.8,0-.4.4-1,.8-.9.9-.7,4.3-.8,5.2-.4,0,0,.4.2.5.3,0,.5-.2.9-.7,1.1-.4.2-.9.2-1.4.2Zm6.9,23.1c-2.8,0-4.7-.8-5.8-3.3h0c3.5,1.4,9.9.5,13.6-.6.8-.2-3.1,4-7.8,3.9Zm8.5-14.9c-.8,0-1.4-1.2-1.4-2.6s.6-2.6,1.4-2.6,1.4,1.2,1.4,2.6-.7,2.6-1.4,2.6Zm2.4-8.1c-.4.3-1,.3-1.4.2-.5-.1-1-.3-1.5-.3-.4,0-.9,0-1.3,0-.4,0-.9,0-1.3-.2-.4-.2-.4-1-.3-1.4,1.6-.8,5.9-.3,6.2.4.2.4,0,1.1-.5,1.4Z"/><path class="cls-11" d="m119.7,116.4h0c0,0,2.3.6,2.3.6v.2c0,0,0,0,0,0-3.9,4.8-5.7,11.4-4.8,17.5-.6,0-1.2.1-1.7.2h0s0-.2,0-.2c-1.7-6.3,0-13.4,4.3-18.3Z"/><path class="cls-6" d="m117.9,279.7h0c-1.7.4-3.1,1-4.2,1.6,0,0,5.1-5,5.7-6.5.6-1.2,1.6-2.1,2-2.3,0,.2,0,.3,0,.5-.1.7,0,1.6.1,2.6-1.1,1.5-3.7,4.1-3.7,4.1Z"/><path class="cls-9" d="m112.8,126.7c.2-7.8,4.1-10.1,5.3-10.6.2,0,.3-.1.3-.1l1.3.4h0c-4.3,4.9-6,12.1-4.3,18.3v.2s0,0,0,0c-.5,0-1.1.1-1.6.2-.8-3.3-1.1-6.1-1-8.4Z"/><path class="cls-10" d="m116.4,115.2c1.7-4.9.8-13.8,4.6-30.5l-1-5.9-2.5-.3h-7s-.4-2.9-.4-2.9h-.2v-2.6c0,0-1.6,3.4-1.6,3.8s0,1.7,0,3.2,0,2.9.3,3.2c.9.8,3.3.9,4.7,1.3h0c-.4,4.7-7.4,23.7-8.1,27.5-.7,3.8-.9,9.9,0,10.7.9.8,5.8,3.9,7.5,3.9h.1c.1-7.8,4.1-10.1,5.3-10.6h0c-.4-.4-1-.6-1.6-.8Z"/><path class="cls-5" d="m162.2,8.8l-26.2-.2-24.3-.2-.6,22.4-.6,21.2-.5,21.1v2.6c0,0,.2,0,.2,0l.4,2.8h6.9s.1,0,.1,0h8.7c.2-1.1.4-2.3.7-3.5.2-.9.6-1.9,1-2.7,1.4-3.3,4.1-5.4,7.1-6.7,4-1.8,8.7-2.3,12.2-2.2,4.7.1,10.1,1.7,14.4,4.7,2.1,1.5,3.9,3.3,5.3,5.4.5.7.8,1.4,1,2.1.4,1,.6,2,.6,3.1h0s7.9,0,7.9,0h6.7s1.8,0,1.8,0l.7-3v-23.8s0-20.9,0-20.9V8.9c0,0-23.5-.2-23.5-.2Z"/><line class="cls-3" x1="135.2" y1="52.1" x2="135" y2="62.6"/><polyline class="cls-3" points="110.2 75.7 110 75.7 110 73.1 110.6 52.1"/><line class="cls-3" x1="135" y1="65.7" x2="135.2" y2="52.1"/><line class="cls-3" x1="161.7" y1="52.1" x2="135.2" y2="52.1"/><polyline class="cls-3" points="185.7 52.1 185.6 74 185.6 75.5 175 75.6 167.9 75.7"/><line class="cls-3" x1="161.6" y1="68.2" x2="161.7" y2="52.1"/><polyline class="cls-3" points="185.7 31.1 185.7 52.1 161.7 52.1 162 31"/><polyline class="cls-3" points="162.2 8.8 185.8 8.9 185.7 31.1 162 31"/><polyline class="cls-3" points="136 8.6 162.2 8.8 162 31 135.6 31"/><polyline class="cls-3" points="135.6 31 135.2 52.1 110.6 52.1 111.1 30.9"/><polygon class="cls-3" points="135.6 31 111.1 30.9 111.7 8.5 136 8.6 135.6 31"/><line class="cls-3" x1="176.5" y1="78.8" x2="168.5" y2="78.8"/><polyline class="cls-3" points="175 75.8 185.6 75.9 185 78.9 183.2 78.9 176.6 78.8"/><polyline class="cls-3" points="126.3 78.6 117.6 78.6 117.5 78.6 110.6 78.6 110.2 75.7 110.1 75 127 75.1"/><line class="cls-3" x1="176.6" y1="78.8" x2="176.5" y2="78.8"/><line class="cls-2" x1="120" y1="78.9" x2="121" y2="84.8"/><path class="cls-2" d="m185.7,74s2.7.4,2.9,1.3c.2,1,.9,6.4.4,7.2-.5.8-2.1,2.9-2.1,2.9h-1.7"/><path class="cls-2" d="m184.2,83.3c.2.7.4,1.4.6,2.3,2.4,8,8.3,22.4,9.1,26.4.8,4.4-.3,11.2-.7,11.6-.4.4-8.7,3.6-11.2,3.1h0"/><path class="cls-2" d="m184.5,115.8c.2.3.5.4.7.6"/><path class="cls-2" d="m178.3,84c2.5,9.5,3.3,24.3,3.6,26.1.3,1.6,1.4,4.4,2.6,5.7"/><path class="cls-2" d="m177.2,116.3c1.3-.3,6-1.3,7.3-.5h0"/><path class="cls-2" d="m176.9,116.4s.1,0,.4,0"/><path class="cls-2" d="m178.3,84s-.8-4.2,1.2-4.5c1.2-.2,2.5-.4,3.7-.4s1.5.1,2,.4"/><path class="cls-2" d="m113.3,84.5c.5.1.8.3,1,.5"/><path class="cls-2" d="m110,73.1s-1.7,3.4-1.7,3.8,0,1.7,0,3.2,0,2.9.3,3.2c.9.8,3.3.9,4.7,1.3"/><path class="cls-2" d="m113.3,84.5h0c-.4,4.7-7.4,23.7-8.1,27.5-.7,3.8-.9,9.9,0,10.7.9.8,5.8,3.9,7.5,3.9"/><path class="cls-2" d="m114.2,114.5s1.1.3,2.2.7c.6.2,1.2.5,1.6.7"/><path class="cls-2" d="m121,84.8c-3.8,16.7-2.9,25.6-4.6,30.5"/><path class="cls-2" d="m142.2,119s.2,0,0,2.3"/><path class="cls-2" d="m153.5,116.2s0,.8,0,1.8,0,1.2.2,1.8"/><path class="cls-2" d="m159.8,118.6c-2.2-.4-4.7-.5-5.2-.6h-1"/><path class="cls-2" d="m140.2,118.1c-.2,0-3.1.4-5.4.6-1.7.2-3.2.3-3.2.3l4.7,2.1,2.9,1.3,6.2,6.4,1.6,1.6s3.2-3.9,7.7-7.4c.9-.7,2.1-1.3,3.1-1.7,2.5-1,4.9-1.3,5.2-1.4-.3-.6-1.7-1-3.2-1.2"/><path class="cls-2" d="m153.6,119.8s-6,9.5-7.3,9.1c-.2,0-.3-.2-.5-.4-1.4-1.7-3.6-7.2-3.6-7.2"/><path class="cls-2" d="m159.8,118.6h0c2.2-.2,8.7-1.3,10.9-1.3"/><path class="cls-2" d="m170.8,117.3c0,0,.5,0,1.1-.2.8-.2,1.9-.4,2.9-.7,1.2-.3,2.2-.5,2.2-.5,0,0,.1.1.4.4h0c1.1,1.1,4.1,4.8,4.7,10.3.3,2.7,0,5.8-1.3,9.2-.7-.1-1.4-.2-2.1-.3-1-.1-2,0-2.9,0-1.7.1-3.3.5-4.5.9-.8.3-1.5.7-2,1.1"/><path class="cls-2" d="m134.8,118.7c-2.7-.7-10-.9-10-.9"/><path class="cls-2" d="m124.8,117.8l-2.8-.8-2.3-.7-1.3-.4s-.1,0-.3.1c-1.1.5-5.1,2.8-5.3,10.6,0,2.3.2,5.1,1,8.4.5,0,1.1-.2,1.6-.2.6,0,1.2-.1,1.7-.2,3.5-.2,6.9.3,9.6,3.1.2.2.4.4.6.6"/><path class="cls-2" d="m173.4,129.6c0,.1-1.3,2-2.3,6.9-1.6,7.7-2.4,22.8,3.7,50,0,0-17.3,6.6-21.9,6.4s-16.2-1.3-25.5-6.6c.7-8.2,4-34.2-.6-48.5-1-3-2.3-5.4-4.1-7.1"/><path class="cls-2" d="m136.6,247.7c0-6.3-.6-11.2,1.3-18.4,2.1-6.9,11.6-27,11.3-29.3"/><path class="cls-2" d="m127.4,186.3s-9.8,23.7-14.5,38.4c.8.5-1.9,19.7,1.2,20.7"/><path class="cls-2" d="m190.5,248.3c-1.8,2.3-3.8,2.1-14.3-.8-1.1-.3-2.2-.6-3.5-1l-3.6-12.4-16.4-30.7s-3.4-3-3.4-3.4"/><path class="cls-2" d="m174.9,186.5s9.7,22.7,13.2,31.5c6.2,15.9,5.2,25.8,5.3,26.1-1.3,1.8-2,3.2-2.8,4.2"/><path class="cls-2" d="m114.1,245.4c1.3.6,2.6,1.1,3.9,1.4h0c4.8,1.1,9.7.4,14.4.5,1.4,0,2.9.2,4.3.4"/><path class="cls-2" d="m118,247c.4,4,3.7,17.2,3.4,25.6,0,.2,0,.3,0,.5"/><path class="cls-2" d="m132.4,247.4c-.3,4.3-3.3,14.8-1.4,25.6.1.8.3,1.7.5,2.5,0,0,0,0,0,.1"/><path class="cls-2" d="m176.1,247l.2.6c1.3,4.6,3.9,10.8,5.4,18,.3,1.6.6,3.2.8,4.8"/><path class="cls-2" d="m189,268.2c0,0,0-.2,0-.3,0-.9-.1-1.6-.1-2.4-.1-7.7,2-12.3,1.6-17.2h0"/><path class="cls-2" d="m194.8,282.9c-1-2.5-2.9-5.4-3.3-8.9-.4-4.3-.6-6.1-2.6-8.4"/><path class="cls-2" d="m181.6,265.5s-2,1.3-1.8,3.8c.2,2.4,1.4,8.4-1.9,14-.1.2-.2.4-.3.6-.5,1.3-.7,2.9-.6,3.8,0,.2,0,.4,0,.5.3.8,2.4,3.8,8.4,2.9,5.4-.8,9.8-3.3,10-5.9,0-.2,0-.5,0-.7-.1-.5-.3-1.1-.5-1.6"/><path class="cls-2" d="m176.9,287.7l-.7.8.3,3.1s3.2,3,9.6,2c6.3-1,9.3-4.2,9.3-4.2v-4.1"/><path class="cls-2" d="m131,273s2.5.1,2.8,1.2c.2,1,1.9,10.6,1.4,13.6,0,.4-.2.7-.3.8-.3.2-.9.5-1.7.8-2.7,1-7.9,2.2-12.1,1.8-5.4-.5-10.6-1.1-11.5-2.3,0-.2,0-.5,0-.8,0-1.7.9-4.9,4.1-6.9,1.1-.7,2.5-1.2,4.2-1.5,1.4-.3,3-.3,4.8-.2,0,0,1.9.2,4.1,1,3,1.2,6.4,3.6,6.4,8.8"/><path class="cls-2" d="m126.8,280.6l2.5-4.5s0-.1.1-.3c.2-.7.8-2.4.3-3.5-.6-1.4-2.8-2.8-4.1-2.8-1,0-3.4.5-4.1,2.8,0,.2-.1.4-.1.5-.1.7,0,1.6.1,2.6-1.1,1.5-3.7,4.1-3.7,4.1"/><path class="cls-2" d="m121.6,272.4s0,0-.1,0c-.4.3-1.4,1.1-2,2.3-.7,1.5-5.7,6.5-5.7,6.5"/><path class="cls-2" d="m129.4,275.9s1.2-.2,2.1-.5c.4-.2.8-.4.9-.6"/><path class="cls-2" d="m109.6,288.2l-.9,1.2.4,2.5s7.4,3,13.3,2.5c5.9-.5,12.4-3.1,12.4-3.1,0,0,.9-1.2.4-3.6"/><path class="cls-2" d="m183.3,279.1c1.1-.5,2.2-.8,3.4-.7,1.4.1,2.6.5,3.7,1,2.6,1.2,4.1,3.2,4.3,3.5,0,0,0,0,0,0"/><path class="cls-2" d="m177.6,283.9s2.4-3.4,5.7-4.8"/><path class="cls-2" d="m183.3,279.1h0c.1-.3,1.1-2.7.5-4.9-.7-2.3-.9-5.3,2.6-5.2,3,0,3.7,2.5,2.9,4.5-.1.4-.3.8-.6,1.1.2,1.6,1.5,4.7,1.7,4.8"/><path class="cls-2" d="m183.8,274.2c-.9-1.1-1.5-2.5-1.5-3.8s.9-2.8,3.2-3.2c1.4-.2,2.6.1,3.5.7,1.6,1.2,2,3.6.4,5.5"/><path class="cls-2" d="m110.9,80.4s.4-.2,1-.5c.9-.4,2.3-.9,3.9-.9"/><path class="cls-1" d="m140.2,118.1c.1,0,.2.1.3.2.5.3,1.1.6,1.7.8,3,1.1,6.6.6,11.3-2.8.9-.7,1.9-1.5,2.9-2.4,2.2-1.9,7.4-7.3,8.4-13.8"/><line class="cls-2" x1="140.2" y1="118.1" x2="140.2" y2="118.1"/><path class="cls-1" d="m127.2,83.2c0,1.2,0,2.1,0,3,0,1,0,1.9,0,2.8,0,1,0,2,0,3.3,0,3.2.4,5.9.9,8.2,1.1,5,3,8.3,5.3,11,2.1,2.5,4.2,5.1,6.7,6.6"/><path class="cls-1" d="m140.6,100.7c-1,2.5,2.9,4.4,6.3,4.2"/><path class="cls-1" d="m137.8,108.3c.1,0,.3.1.4.2,3.5,1.5,9.9.6,13.6-.5.8-.2-3.1,4-7.8,3.9-2.8,0-4.7-.8-5.8-3.3"/><path class="cls-2" d="m119.7,116.4h0c-4.3,4.9-6,12-4.3,18.3"/><path class="cls-2" d="m121.9,117.2c-3.9,4.8-5.7,11.4-4.8,17.5,0,0,0,0,0,0"/><path class="cls-2" d="m174.7,116.5c3.8,5.3,5.9,12.9,3.8,19.1h0"/><path class="cls-2" d="m171.8,117.1h0c2.4,2.1,3.7,5.3,4.1,8.5.4,3.2,0,6.4-.4,9.6"/><path class="cls-2" d="m136.4,121.1c1.1-1.2,2.5-2.1,4-2.7"/><path class="cls-2" d="m154.6,118.1c1.5.4,2.7,1.5,3.2,3"/><path class="cls-1" d="m138.6,87.2c-.8-.4-4.3-.3-5.2.4-.4,0-.8.5-.8.9,0,.4.4.7.8.8.4,0,.8,0,1.2-.1.4-.1.7-.3,1.1-.4.5,0,.9,0,1.4,0,.5,0,1,0,1.4-.2.4-.2.7-.7.7-1.1,0,0-.4-.2-.5-.3Z"/><path class="cls-1" d="m155.4,87.4c-.3-.6-4.6-1.2-6.2-.4-.1.4,0,1.2.3,1.4.4.2.8.3,1.3.2.4,0,.9,0,1.3,0,.5,0,1,.2,1.5.3.5,0,1,0,1.4-.2.4-.3.7-1,.5-1.4Z"/><ellipse class="cls-1" cx="136.1" cy="94.2" rx="1.2" ry="2.3"/><path class="cls-1" d="m153.9,94.3c0,1.5-.7,2.6-1.4,2.6s-1.4-1.2-1.4-2.6.6-2.6,1.4-2.6,1.4,1.2,1.4,2.6Z"/><path class="cls-1" d="m126.1,89.2c0-1.3,0-2.8-.1-4.5,0-1.9,0-4,.3-6.1.2-1.2.4-2.4.7-3.5.3-.9.6-1.9,1-2.7,1.4-3.3,4.1-5.4,7.1-6.7,4-1.8,8.7-2.3,12.2-2.2,4.7.1,10.1,1.7,14.4,4.7,2.1,1.5,3.9,3.3,5.3,5.4.5.7.8,1.4,1,2.1.4,1,.6,2,.6,3.1h0c.1,2.6-.5,5.5-.8,9.4"/><path class="cls-1" d="m165.4,89.8c0,0,0-.1,0-.2.4-1.1,1.4-1.6,2.3-1.3.2,0,.4.1.6.2,1,.7,1.6,2.3,1.6,3.8,0,1.5-.4,3-1,4.3-.5,1.2-1.2,2.4-2.1,3-.6.4-1.3.6-1.9.4-.4,0-.8-.3-1-.7"/><path class="cls-1" d="m165.5,89.6c0,1.2-1.8,1.4-2.3.4-.6-1-1.7-4.9-3.4-7.6-.8-1.2-1.6-2.5-2.6-3.6-1.5-1.6-3.3-2.8-5.6-2.5-2.3.3-4.3,1.5-6.3,2.4-1.5.7-3.1,1.3-4.8,1.4-1.8.1-3.5-.5-5.1-1.2l-.4-.2s0,0,0,0c-1.4-.8-2.3-1.8-3.7-.7-.3.2-.6.5-.9.8-1.8,1.9-2.7,5.1-3.1,7.5,0,.2,0,.3,0,.4"/><path class="cls-1" d="m127.3,89c-.3,0-.8,0-1.2.2-.4.1-.7.3-.8.6-.3.5-.4,1.1-.5,1.6-.3,1.6-.5,3.3-.3,4.9.3,2.2,2.1,5.2,3.4,4.3"/></svg>