<?xml version="1.0" encoding="UTF-8"?><svg id="Layer_5" xmlns="http://www.w3.org/2000/svg" width="300" height="300" viewBox="0 0 300 300"><defs><style>.cls-1,.cls-2,.cls-3{stroke-linecap:round;}.cls-1,.cls-2,.cls-3,.cls-4{stroke:#000;}.cls-1,.cls-2,.cls-3,.cls-4,.cls-5{fill:none;}.cls-1,.cls-3{stroke-linejoin:round;}.cls-2,.cls-4,.cls-5{stroke-miterlimit:10;}.cls-3{stroke-width:.5px;}.cls-5{stroke:#fff;}.cls-6,.cls-7,.cls-8,.cls-9,.cls-10,.cls-11,.cls-12,.cls-13,.cls-14,.cls-15,.cls-16,.cls-17{stroke-width:0px;}.cls-7{fill:#4d0099;}.cls-8{fill:#4d443e;}.cls-9{fill:#956b4d;}.cls-10{fill:#1a1a1a;}.cls-11{fill:#444746;}.cls-12{fill:#cb4a80;}.cls-13{fill:#af856a;}.cls-14{fill:#af877b;}.cls-15{fill:#3246ff;}.cls-16{fill:#fff;}.cls-17{fill:#e6ced6;}</style></defs><path class="cls-16" d="m190.7,276.9c1.2-.2,2.2-.2,3.1,0,5,1.2,4.5,8.5,4.5,8.5,0,0-.5,2-3.4,3.1-4.4.8-8,.3-10.9-.7-.5-3.6.3-7,2.3-8.9h0c.5-.5,1.2-1,1.9-1.3.9-.3,1.7-.6,2.5-.7Z"/><path class="cls-9" d="m188.4,152.2c0,0-.1,0-.2.1h0c0-.1.1-.1.2-.1Z"/><path class="cls-12" d="m170.9,126.2c2-.9,3.9-2.1,5.7-3.6.6,1,1.2,2,1.8,2.9h-.1c-2.3,2-4.5,3.7-7.2,4.9h-.2c0-1.5,0-2.8,0-4.2Z"/><path class="cls-12" d="m172.9,220c1.1,0,2.1.9,2.1,2.1s-.9,2.1-2.1,2.1-2.1-.9-2.1-2.1.9-2.1,2.1-2.1Z"/><path class="cls-12" d="m172.3,202.3c-.6-1-.4-2.3.6-2.9s2.2-.4,2.9.6c.6.9.4,2.2-.6,2.9-.9.6-2.2.4-2.9-.6Z"/><path class="cls-9" d="m206.2,134.1c-.1-.2-.3-.2-.5-.3-3.9-.7-8,.4-11,2.9-1.7-.6-3.4-.1-4.8,1-1,.8-1.4,1.5-1.4,2.5-.6,0-1.2.5-1.8,1-1.6-.3-3.3-.6-4.8-.6v-.2c-1.2-2.1-3.5-7.1-4.7-10.1-2.4,1.7-5.6,3.8-6.5,4.1-.2,2.6-.5,5.5-.7,9.1h0c1.2,2.8,2.5,4.7,3.9,7.6h0c.6,1.7,1.5,3.4,2.4,4.1,1.9,1.6,5.9.4,8.1-.9,2.1-1.2,2.1-.7,4-1.8h0c0-.1.1-.1.2-.1,0,0-.1,0-.2.1,0,.4,0,.7-.1,1.1,0,.5,0,1.2.4,1.6.4.5,1.2.6,1.8.6.7,0,1.5,0,2-.3.4-.3.6-.8.7-1.3.1-.5,0-1.3-.2-2.2h0c.9-.2,1.6-.9,2.1-1.7.6.4,1.3.8,2,1,.8.2,1.7.2,2.3-.2.6-.4,1-1.2,1.2-1.9,0,0,0,0,0-.1h0c.5,0,1.1,0,1.6.1.5,0,1.1,0,1.5-.4.2-.2.4-.5.5-.8.4-.9.7-1.9,1.1-2.8.2-.5.5-1.2.2-1.7-.2-.4-.6-.6-1-.7-.4,0-.9,0-1.3.1-.3,0-.5.2-.8.3h0c-1.1,0-2.5,0-3.1-.9-.4-.6-.2-1.5.2-2.1.4-.6,1.1-1.1,1.7-1.5,1.5-1.1,3.1-2.1,4.6-3.2.3-.2.7-.7.5-1Z"/><path class="cls-12" d="m172.6,170.9c.4,2.8.7,5.5.9,8.1-5.9,2.3-12,3.8-18.1,4.3-8.1.7-16.3,0-24.2-2.4.6-1.2,1.2-4.6,1.6-8.8h.2c14.3,6.6,37.5-.4,39.7-1.1Z"/><path class="cls-12" d="m171.9,187c.9.6,1.2,1.9.6,2.9-.6,1-1.9,1.3-2.9.6s-1.2-1.9-.6-2.9c.6-1,1.9-1.2,2.9-.6Z"/><path class="cls-13" d="m176.1,266.7c-4.2-.4-3,6-3,6h0c-.8-.4-1.3-.7-1.6-.8-1.4-.4-2.2,1.5-3.3,1.4-.6,0-1.2-.7-1.7-1.3h0c-.2-1.2-.4-2.3-.6-3.4-2.8-14-6.3-22-6.7-29.8-.2-3.7,1-8.4,1-8.4v-.9c5.3-.3,13-1.4,16.8-3.9,0,.4.6,2.3.5,3.5,0,1.3-.8,4.6-.8,4.6,0,0-.6,28.8-.7,33.1Z"/><path class="cls-12" d="m168.8,212.5c-1,.6-2.2.4-2.9-.6-.6-.9-.4-2.2.6-2.9s2.2-.4,2.9.6c.6.9.4,2.2-.6,2.9Z"/><path class="cls-12" d="m161.2,199.5c.5,1,.2,2.3-.8,2.8-1,.6-2.3.2-2.8-.8-.5-1-.2-2.3.8-2.8,1-.6,2.3-.2,2.8.8Z"/><path class="cls-16" d="m160.6,86.1c.4,2.4-1.7,4.7-3.5,5.3-4.3,1.4-7.5-.9-8.4-2.5,4.4.3,8.8-.4,11.9-2.8Z"/><path class="cls-6" d="m160.2,78.2c-.6.2-1.5-.7-2-2.2-.6-1.4-.5-2.7,0-3,.6-.2,1.5.7,2,2.2.5,1.4.5,2.7,0,3Z"/><path class="cls-8" d="m158,105.9v-5.9c4.6-1.9,6.5-7.6,6.7-10.8.5,5.7.7,11.7,0,17.5h0c-1.1-.2-2.4-.4-3.5-.5,0,0,0,0,0,0,0,0-.2,0-.3,0-1.4-.2-2.6-.2-3-.2Z"/><path class="cls-12" d="m159.9,226.6c-.9.6-2.2.4-2.9-.6-.6-.9-.4-2.2.6-2.9,1-.6,2.3-.4,2.9.6.6.9.4,2.2-.6,2.9Z"/><path class="cls-12" d="m157.5,185.6c.6,1,.2,2.3-.8,2.8s-1.1.3-1.6.2c-.5-.1-1-.5-1.3-1-.6-1-.2-2.3.8-2.8.2-.1.5-.2.8-.2.8-.1,1.6.3,2.1,1Z"/><path class="cls-10" d="m159.2,68.7c-1.6-.2-3,0-4.8,1.4-.8-1.4.3-2,2.6-2.5.6-.1,1.1-.2,1.6,0,.2.4.5.8.7,1.2Z"/><path class="cls-12" d="m146.3,199.3c-.6-1-.2-2.3.8-2.8,1-.5,2.3-.2,2.8.8.6,1,.2,2.3-.8,2.8-1,.5-2.3.2-2.8-.8Z"/><path class="cls-12" d="m149,215.4c.6,1,.2,2.3-.8,2.8-1,.6-2.3.2-2.8-.8-.6-1-.2-2.3.8-2.8,1-.6,2.3-.2,2.8.8Z"/><path class="cls-6" d="m142.2,79.4c-.6-1.6-.5-3.1.1-3.3.7-.3,1.7.8,2.3,2.3.6,1.6.5,3.1-.1,3.3-.7.3-1.7-.8-2.3-2.3Z"/><path class="cls-12" d="m156,108.1c.9-.4,1.6-1.2,2-2.2.5.4,2.2.2,3,.2.1,0,.2,0,.3,0-.5,2.5-3.8,4.5-6.3,5.2-3.2.9-6.6,1.1-9.9.6-1.5-.2-3.1-.6-4.4-1.5-.9-.6-1.6-1.5-1.8-2.5-.2-.5-.2-1-.1-1.5v-.2c1.5-.2,2.7-.4,2.8-.5,0,.6.1,1.2.1,1.9,1.6,1.1,3.7,1.7,5.7,1.8,2,0,3.9-.2,5.9-.5,1-.2,2-.3,2.9-.7Z"/><path class="cls-12" d="m139.4,186.2c1.1,0,2.1.9,2.1,2.1s-.9,2.1-2.1,2.1-2.1-.9-2.1-2.1.9-2.1,2.1-2.1Z"/><path class="cls-12" d="m138.9,221.1c.6,1,.2,2.3-.8,2.8-1,.5-2.3.2-2.8-.8-.6-1-.2-2.3.8-2.8,1-.5,2.3-.2,2.8.8Z"/><path class="cls-12" d="m140.9,207.6c.6,1,.4,2.3-.6,2.9s-2.2.4-2.9-.6c-.6-.9-.4-2.2.6-2.9,1-.6,2.2-.4,2.9.6Z"/><path class="cls-8" d="m138.7,106.3c0,.5,0,1,.1,1.5h0c-.9-2.8-1.9-6-2.6-9.2,1.9.6,4.7,2.5,5.3,7-.1,0-1.3.2-2.8.5v.2Z"/><path class="cls-13" d="m157.1,91.4c1.8-.6,3.9-2.9,3.5-5.3-3.1,2.5-7.5,3.1-11.9,2.8.9,1.6,4.1,3.9,8.4,2.5Zm-14.9-15.3c-.7.3-.7,1.7-.1,3.3.6,1.6,1.7,2.6,2.3,2.3.7-.3.7-1.7.1-3.3-.6-1.6-1.7-2.6-2.3-2.3Zm15.9-3.1c-.6.2-.6,1.6,0,3,.5,1.4,1.5,2.4,2,2.2.6-.2.6-1.6,0-3-.5-1.4-1.5-2.4-2-2.2Zm1-4.3c2.6,4.9,4.7,12.6,5.3,18.1,0,.8.2,1.6.2,2.4-.2,3.2-2.1,8.9-6.7,10.8v5.9c-.3.9-1.1,1.8-2,2.2s-1.9.5-2.9.7c-1.9.3-3.9.6-5.9.5-2,0-4.1-.6-5.7-1.8,0-.7,0-1.3-.1-1.9-.6-4.5-3.4-6.4-5.3-7h0c-.8-3.3-1.3-6.4-1.4-8.9,0-4.6.5-9.2,1.9-13.6.8,0,2-4.2,7.9-3.6.4-.5,0-.8-.3-1-1.2-.8-3.4-.2-4.9.9-.4.3-1.3,1.1-2,1.9,0,0,0-.1,0-.2,1.5-3.9,6.8-15.2,8.6-15,5.2.5,9.9,4.5,12.4,8.5-.5,0-1,0-1.6,0-2.2.5-3.3,1.1-2.6,2.5,1.8-1.4,3.2-1.6,4.8-1.4Z"/><path class="cls-10" d="m144.6,72.5c-6-.5-7.2,3.6-7.9,3.6.2-.6.4-1.3.7-1.9.7-.8,1.6-1.6,2-1.9,1.5-1.1,3.8-1.7,4.9-.9.3.3.7.5.3,1Z"/><path class="cls-10" d="m137.4,74.3c-.2.6-.5,1.3-.7,1.9,0,0-.1,0-.2,0-.3-.3.2-1,.9-1.8Z"/><path class="cls-12" d="m129.4,199.5c-.6-1-.4-2.2.6-2.9,1-.6,2.2-.4,2.9.6.6,1,.4,2.2-.6,2.9-1,.6-2.2.4-2.9-.6Z"/><path class="cls-17" d="m169.9,143.4c.2-3.6.5-6.5.7-9.1.9-.3,4.1-2.4,6.5-4.1,1.5-1,2.7-2,3-2.2-.5-.8-1.1-1.6-1.7-2.5h-.1c-2.3,2-4.5,3.7-7.2,4.9h-.2c0-1.5,0-2.8,0-4.2,2-.9,3.9-2.1,5.7-3.6-3.9-6.3-8.2-13.7-9.9-15.6-1.1,6.6-2.7,10.7-3.7,10.1.9-3.4,1.5-6.8,1.8-10.4h0c-1.1-.2-2.4-.4-3.5-.5-.5,2.5-3.8,4.5-6.3,5.2-3.2.9-6.6,1.1-9.9.6-1.5-.2-3.1-.6-4.4-1.5-.9-.6-1.6-1.5-1.8-2.5h0c2.2,6.7,4.3,12,4.3,11.9,0,0-6.1-4.9-10.9-12.5h0c-2,.4-3,.7-3.1.8-2.4,1.2-4.5,4.3-6.3,7.4-.3.6-.7,1.1-1,1.7l-2.7,7.8c4.1,3.1,8.2,4.5,13,5.8h0c-.3,1-.7,2.1-1,3.2h-.2c-4.9-1.3-8.9-2.7-13.1-5.8l-.8,2.3c.8.7,1.8,1.3,2.9,1.9,4,2.1,9.1,3.4,10.4,3.7,1.4,3.4,3.1,11.4,3.4,15.3.1,1.8,0,7.4-.5,13.4-.2,2.6-.4,5.2-.6,7.7h.2c14.3,6.6,37.5-.4,39.7-1.1-1.3-9.9-3.1-20.7-2.8-26.7,0-.3,0-.5,0-.8Z"/><path class="cls-12" d="m128.5,213.2c.6,1,.4,2.2-.6,2.9-1,.6-2.3.4-2.9-.6-.6-1-.4-2.2.6-2.9.9-.6,2.2-.4,2.9.6Z"/><path class="cls-14" d="m125.4,160c0-.4.1-.8.2-1.2.2.5.4,1,.6,1.5-.2-.2-.5-.3-.8-.3h0Z"/><path class="cls-13" d="m129.4,273.9c-.6,1.2-1.5,2.5-2,1.6-.8-1.4-1.9-.5-2.1-.4h-.1c0-.2,0-.3,0-.4,0,0,3.7-6.2-3.4-6.2,0,0-1.5-.1-2.8.4,1.5-4.5,2.4-21.8,3.1-27,.6-4.7,3.7-13.6,4.5-15.9,4.4,1.1,9.8,1.8,14.8,2.3v.8c0,0,.2,8.2-2,13.7-3.5,9.1-7.8,17.8-9.7,28-.2,1-.3,2-.5,3h.2Z"/><path class="cls-11" d="m173.5,178.9c-5.9,2.3-12,3.8-18.1,4.3-8.1.7-16.3,0-24.2-2.4-2.9,14.3-10,40-9.3,41,.7.9,1.5,3.3,2.6,3.7.7.2,1.4.4,2.1.5,4.4,1.1,9.8,1.8,14.8,2.3,2.8.3,5.5.5,7.8.8,2-3.9,3.1-17,4.1-26.9,1.1,6,.3,26,1.2,26.9.3.2,2.6.4,5.7.2,5.4-.3,13.1-1.4,16.9-3.9,1.4-.9,2.3-2,2.3-3.4-1.9-13.5-4.9-35.8-5.9-43.2Zm-45.6,37.2c-1,.6-2.3.4-2.9-.6-.6-1-.4-2.2.6-2.9.9-.6,2.2-.4,2.9.6.6,1,.4,2.2-.6,2.9Zm4.4-16.1c-1,.6-2.2.4-2.9-.6-.6-1-.4-2.2.6-2.9,1-.6,2.2-.4,2.9.6.6,1,.4,2.2-.6,2.9Zm5.8,23.9c-1,.5-2.3.2-2.8-.8-.6-1-.2-2.3.8-2.8,1-.5,2.3-.2,2.8.8.6,1,.2,2.3-.8,2.8Zm2.2-13.5c-.9.6-2.2.4-2.9-.6-.6-.9-.4-2.2.6-2.9,1-.6,2.2-.4,2.9.6.6,1,.4,2.3-.6,2.9Zm-.9-20.1c-1.2,0-2.1-.9-2.1-2.1s.9-2.1,2.1-2.1,2.1.9,2.1,2.1-.9,2.1-2.1,2.1Zm8.8,27.9c-1,.6-2.3.2-2.8-.8-.6-1-.2-2.3.8-2.8,1-.6,2.3-.2,2.8.8.6,1,.2,2.3-.8,2.8Zm.9-18.1c-1,.5-2.3.2-2.8-.8-.6-1-.2-2.3.8-2.8,1-.5,2.3-.2,2.8.8.6,1,.2,2.3-.8,2.8Zm19.9-12.5c.6-1,1.9-1.2,2.9-.6.9.6,1.2,1.9.6,2.9-.6,1-1.9,1.3-2.9.6-1-.6-1.2-1.9-.6-2.9Zm-13.9,1c-.5-.1-1-.5-1.3-1-.6-1-.2-2.3.8-2.8.2-.1.5-.2.8-.2.8-.1,1.6.3,2.1,1,.6,1,.2,2.3-.8,2.8-.5.3-1.1.3-1.6.2Zm4.8,38c-.9.6-2.2.4-2.9-.6-.6-.9-.4-2.2.6-2.9,1-.6,2.3-.4,2.9.6.6.9.4,2.2-.6,2.9Zm.5-24.3c-1,.6-2.3.2-2.8-.8-.5-1-.2-2.3.8-2.8,1-.6,2.3-.2,2.8.8.5,1,.2,2.3-.8,2.8Zm8.4,10.2c-1,.6-2.2.4-2.9-.6-.6-.9-.4-2.2.6-2.9.9-.6,2.2-.4,2.9.6.6.9.4,2.2-.6,2.9Zm4,11.6c-1.2,0-2.1-.9-2.1-2.1s.9-2.1,2.1-2.1,2.1.9,2.1,2.1-.9,2.1-2.1,2.1Zm2.3-21.2c-.9.6-2.2.4-2.9-.6-.6-1-.4-2.3.6-2.9.9-.6,2.2-.4,2.9.6.6.9.4,2.2-.6,2.9Z"/><path class="cls-16" d="m121.1,282.8c3.4,2.5,4.2,6.8,4.2,6.8-2.7,4.1-6.3,6.9-12,5.5-4.6-1.2-6.9-5.7-6.7-7.1,0-.2,0-.4.2-.7.2-.7.7-1.6,1.4-2.8,0,0,0,0,0-.2.4-.6,2.1-2.7,5.5-3.2,1.1-.2,2.3-.2,3.7.1,1.5.3,2.7.8,3.6,1.5Z"/><path class="cls-8" d="m129,107.9c-2.4,1.2-4.5,4.3-6.3,7.4h0c.2-11.3-4.7-23.3-5.5-33.8-.4-5.5-.2-14,2.8-19.3,2.3-4,6.3-5.9,12-7.9,4.5-3.6,13.9-3.8,18.5-1.8,18.5,7.9,18.9,38.4,16.2,54.5-1.1,6.6-2.7,10.7-3.7,10.1.9-3.4,1.5-6.8,1.8-10.4.6-5.8.4-11.7,0-17.5,0-.8-.1-1.6-.2-2.4-.6-5.5-2.7-13.2-5.3-18.1-.2-.4-.4-.8-.7-1.2-2.5-4.1-7.2-8-12.4-8.5-1.8-.2-7.1,11.2-8.6,15,0,0,0,.1,0,.2-.6.7-1.1,1.5-.9,1.8,0,0,.1,0,.2,0-1.4,4.4-2,9-1.9,13.6,0,2.5.6,5.6,1.4,8.9h0c.7,3.1,1.7,6.3,2.6,9.2,2.2,6.7,4.3,12,4.3,11.9,0,0-6.1-4.9-10.9-12.5h0c-2,.4-3,.7-3.1.8Z"/><path class="cls-12" d="m119.1,124.7c4.1,3.1,8.2,4.5,13,5.8h0c-.3,1-.7,2.1-1,3.2h-.2c-4.9-1.3-8.9-2.7-13.1-5.8l1.1-3.2Z"/><path class="cls-9" d="m131,162.3c-.4-.4-.9-.6-1.5-.5-.5.2-.8.6-1,1.1-.2.4-.4.9-.8,1.3-.4.3-1,.5-1.4.2h0c.3-.6.5-1.3.6-2,0-.6,0-1.4-.4-1.9,0,0-.2-.2-.2-.2-.2-.2-.5-.3-.8-.3h0c0-.4.1-.8.2-1.2.2-1.7.1-3.2.3-4,.5-3.8,2.4-11.7,4.6-19.1-1.3-.2-6.4-1.6-10.4-3.7l-5.5,19.3c-.2.9-.2,1.7-.2,2.5-.6,0-1.3.3-1.8.5-2.1.9-3.8,2.4-5.4,4.1-.3.3-.6.7-.7,1.1-.1.4,0,.9.3,1.2.4.4,1.1.2,1.6,0,1.5-.5,3.1-.9,4.6-1.4,1.1,1,1.1,2.7,1,4.2,0,1.5.2,3.3,1.6,3.9,1,.4,2.1,0,3-.8.3.9,1.4,1.5,2.4,1.5,1,0,2-.5,2.8-1,1.6,1.3,4.1,1.4,5.8.2,1.1-.7,1.8-2,1.9-3.2,0-.2,0-.3,0-.4,0-.5-.2-1.1-.5-1.5Z"/><path class="cls-12" d="m198.3,285.4s-.5,2-3.4,3.1c-4.4.8-8,.3-10.9-.7-.5-3.6.3-7,2.3-8.9h0c.5-.5,1.2-1,1.9-1.3.9-.3,1.7-.6,2.5-.7,1.2-.2,2.2-.2,3.1,0h0s-14.4-6-14.4-6c0-.2,0-.3,0-.5.3-1.3.2-2.2-.4-2.5,0,0-.1,0-.2,0-1.2-.6-2.1-.9-2.8-1-4.2-.4-3,6-3,6h0c-.8-.4-1.3-.7-1.6-.8-1.4-.4-2.2,1.5-3.3,1.4-.6,0-1.2-.7-1.7-1.3h0c-.2-1.2-.4-2.3-.6-3.4-.9,0-2.3.4-2,2.3.3,2.4.6,7.9.5,9.3h0s-1.5.5,0,3c1.5,2.4,9.1,2.5,9.8,2.6.7.1,3.9,2.2,6.3,3.1,2.4.9,7.8,2,12.6,2.2s6-2.9,6-2.9v-2.2l-.8-.5Z"/><path class="cls-12" d="m129.7,270.8c-.2,1-.3,2-.5,3h.2c-.6,1.3-1.5,2.6-2,1.6-.8-1.4-1.9-.5-2.1-.4h-.1c0-.2,0-.3,0-.4,0,0,3.7-6.2-3.4-6.2,0,0-1.5-.1-2.8.4-1.5.6-2.8,1.9-2.3,4.9-.8.5-1.5,2-2.2,3.4-2.8,2.4-4.9,5-6.2,7.1.4-.6,2.1-2.7,5.5-3.2,1.1-.2,2.3-.2,3.7.1,1.5.3,2.7.8,3.6,1.5,3.4,2.5,4.2,6.8,4.2,6.8-2.7,4.1-6.3,6.9-12,5.5-4.6-1.2-6.9-5.7-6.7-7.1,0-.2,0-.4.2-.7l-1,.9v4.2s1.7,5.1,7.6,5.8,11.5-1.9,13.3-6.3c1.8-4.4,2.7-8.2,2.7-8.2l1.4-3.3s.5-1.7-.3-2.7c1.3-7.6-.8-7-.8-7Z"/><path class="cls-2" d="m179.4,222.1c-1.9-13.5-4.9-35.8-5.9-43.2"/><path class="cls-2" d="m126.7,225.5s0,.2-.2.5c-.8,2.3-3.9,11.2-4.5,15.9-.6,5.2-1.5,22.5-3.1,27,0,0,0,.2,0,.3"/><path class="cls-2" d="m141.3,229.2s.3,8.2-1.9,13.7c-3.5,9.1-7.8,17.8-9.7,28-.2,1-.3,2-.5,3"/><path class="cls-2" d="m177.1,225.4s0,0,0,0c0,.4.6,2.3.5,3.5,0,1.3-.8,4.6-.8,4.6,0,0-.6,28.8-.7,33.1v.5"/><path class="cls-2" d="m166.6,271.9c0,.2,0,.3,0,.5"/><path class="cls-2" d="m160.3,230.3s-1.2,4.8-1,8.4c.3,7.8,3.8,15.8,6.7,29.8.2,1.1.4,2.2.6,3.4"/><path class="cls-2" d="m108.3,284.4c1.3-2.1,3.4-4.7,6.2-7.1.8-1.4,1.5-3,2.2-3.4"/><path class="cls-2" d="m129.7,270.8s2.2-.6.8,7c0,.4-.2.9-.2,1.3-1.4,3.4-2.9,7.4-5,10.5-2.7,4.1-6.3,6.9-12,5.5-4.6-1.2-6.9-5.7-6.7-7.1,0-.2,0-.4.2-.7.2-.7.7-1.6,1.4-2.8"/><path class="cls-2" d="m125.3,289.6s-.8-4.3-4.2-6.8c-1-.7-2.2-1.3-3.6-1.5-1.4-.3-2.6-.3-3.7-.1-3.4.5-5.1,2.6-5.5,3.2,0,0,0,.2,0,.2"/><path class="cls-2" d="m125.3,275.1h0c.2-.2,1.3-1,2.1.3.6,1,1.5-.4,2-1.6.3-.6.5-1.2.5-1.3"/><path class="cls-2" d="m121.1,282.8l3.3-5.4s.5-1.1.8-2.3c0-.1,0-.2,0-.4.3-1.9.2-4.1-2.5-4.4-4.4-.5-6.2,2.2-5.7,4.5,0,.2.1.5.2.7-1.1,1.9-3.4,5.6-3.4,5.6"/><path class="cls-2" d="m125.2,274.7s3.7-6.2-3.4-6.2c0,0-1.5-.1-2.8.4-1.5.6-2.8,1.9-2.3,4.9,0,.3.1.6.2,1s0,.2.1.4"/><path class="cls-2" d="m106.7,287.3l-1,.9v4.2s1.7,5.1,7.6,5.8c5.9.7,11.5-1.9,13.3-6.3,1.8-4.4,2.7-8.2,2.7-8.2l1.4-3.3s.5-1.7-.3-2.7"/><path class="cls-2" d="m186.3,278.9c-2,2-2.8,5.3-2.3,8.9"/><path class="cls-2" d="m166.5,268.5s-.2,0-.6,0c-.9,0-2.3.4-2,2.3.3,2.4.6,7.9.5,9.3,0,.2,0,.3,0,.4,1.1.9,2.8,2.9,9.4,2.6,2.7.8,5.7,3.3,10.1,4.6,3,.9,6.5,1.4,10.9.7,3-1.1,3.4-3.1,3.4-3.1,0,0,.5-7.3-4.5-8.5-.9-.2-1.9-.2-3.1,0-.7.1-1.6.4-2.5.7-.7.3-1.4.8-1.9,1.3"/><path class="cls-2" d="m165.7,270.3c0,.3.4,1,.9,1.6h0c.5.7,1.1,1.3,1.7,1.3,1.1.1,1.9-1.8,3.3-1.4.3,0,.8.4,1.6.8.4.2.9.5,1.4.7,3.8,2.1,10,5.6,11.8,5.5h0"/><path class="cls-2" d="m179.1,267.8c.6.3.6,1.3.4,2.5,0,.2,0,.4,0,.5-.2,1.6.6,1.6.6,1.6l10.7,4.4"/><path class="cls-2" d="m174.5,273.4s-.3-4.4,2.3-5.4c1-.4,1.6-.5,2.1-.3"/><path class="cls-2" d="m173.2,272.6s-1.2-6.4,3-6c.7,0,1.7.4,2.8,1,0,0,.1,0,.2,0"/><line class="cls-2" x1="179.4" y1="270.8" x2="193.8" y2="276.9"/><path class="cls-2" d="m198.3,285.4l.8.5v2.2s-1.3,3-6,2.9-10.1-1.3-12.6-2.2-5.6-3-6.3-3.1c-.7-.1-8.3-.1-9.8-2.6-1.5-2.5,0-3,0-3"/><line class="cls-3" x1="202.3" y1="142.8" x2="202.4" y2="142.8"/><line class="cls-3" x1="192.9" y1="151.9" x2="192.9" y2="151.9"/><path class="cls-2" d="m125.8,154.8c.5-3.8,2.4-11.7,4.6-19.1.2-.7.4-1.4.6-2.1.3-1.1.7-2.2,1-3.2.5-1.5,1-2.9,1.5-4.2"/><line class="cls-2" x1="120" y1="132.1" x2="114.6" y2="151.4"/><path class="cls-2" d="m138.7,106.2c1.5-.2,2.7-.4,2.8-.5"/><path class="cls-2" d="m130.5,135.7c-1.3-.2-6.4-1.6-10.4-3.7-1.1-.6-2.1-1.2-2.9-1.9l.8-2.3,1.1-3.2,2.7-7.8c.3-.5.6-1.1,1-1.7,1.7-3.1,3.9-6.2,6.3-7.4.2,0,1.2-.4,3.1-.7"/><path class="cls-2" d="m177.1,130.3c1.3,3,3.5,8,4.7,10.1"/><path class="cls-2" d="m164.8,106.7c-1.1-.2-2.4-.4-3.5-.5-.1,0-.2,0-.3,0-1.4-.2-2.6-.2-3-.2"/><path class="cls-2" d="m170.6,134.3c.9-.3,4.1-2.4,6.5-4.1,1.5-1,2.7-2,3-2.2-.5-.8-1.1-1.6-1.7-2.5-.6-.9-1.2-1.9-1.8-2.9-3.9-6.3-8.2-13.7-9.9-15.6"/><path class="cls-2" d="m186.6,141.2c-1.6-.3-3.3-.6-4.8-.6-1.7,0-3.1.1-4.1.7-2.7,1.6-4.5,3.4-4.9,5.9,0,.7.3,2.2.9,3.8.6,1.7,1.5,3.4,2.4,4.1,1.9,1.6,5.9.4,8.1-.9,2.1-1.2,2.1-.7,4-1.8,0,0,.1,0,.2-.1"/><path class="cls-2" d="m125.6,158.8c.2-1.7.1-3.2.3-4"/><path class="cls-2" d="m114.6,151.4c-.2.9-.2,1.7-.2,2.5"/><path class="cls-2" d="m173.5,178.9c-5.9,2.3-12,3.8-18.1,4.3-8.1.7-16.3,0-24.2-2.4.6-1.2,1.2-4.6,1.6-8.8.2-2.4.5-5.1.6-7.7.4-6,.6-11.6.5-13.4-.3-3.9-1.9-11.9-3.4-15.3"/><path class="cls-2" d="m170.7,122.5c.2,1.3.2,2.5.2,3.7,0,1.4,0,2.8,0,4.2,0,1.3-.2,2.6-.3,4-.2,2.6-.5,5.5-.7,9.1,0,.2,0,.5,0,.8-.4,6,1.5,16.8,2.8,26.7.4,2.8.7,5.5.9,8.1"/><path class="cls-2" d="m169.9,143.4c1.2,2.8,2.5,4.7,3.9,7.6"/><path class="cls-2" d="m188.4,141.5c0-.5,0-.9,0-1.3,0-1,.4-1.6,1.4-2.5,1.4-1.1,3.1-1.6,4.8-1,3-2.5,7.2-3.6,11-2.9.2,0,.4,0,.5.3.2.3-.1.8-.5,1-1.5,1.1-3.1,2.1-4.6,3.2-.6.4-1.3.9-1.7,1.5-.4.6-.6,1.5-.2,2.1.6,1,2,1,3.1.9"/><path class="cls-2" d="m195.2,145.8c.1.6.9.7,1.4.5.5-.2.9-.7,1.3-1.1.4-.4,1-.7,1.6-.5.2,0,.4.2.5.5.3.4.4.9.4,1.5,0,.7.1,1.5,0,2.2,0,0,0,0,0,.1-.2.8-.5,1.5-1.2,1.9-.7.4-1.6.5-2.3.2-.7-.2-1.4-.6-2-1,0,0-.1,0-.2,0"/><path class="cls-2" d="m188.4,140.2c-.6,0-1.2.5-1.8,1-.7.7-1.4,1.6-1.6,2.6-.5,1.7-.3,5.2.4,6.3.6,1.1,1.7,2,2.9,2.1,0,0,.1,0,.2,0"/><path class="cls-2" d="m202.4,142.9c.2-.1.5-.2.8-.3.4-.1.9-.2,1.3-.1.4,0,.8.4,1,.7.2.5,0,1.2-.2,1.7-.4.9-.7,1.9-1.1,2.8-.1.3-.2.6-.5.8-.4.4-1,.5-1.5.4-.5,0-1.1-.2-1.6-.1"/><path class="cls-2" d="m200.2,145.1c.5-.9,1.2-1.8,2.2-2.3"/><path class="cls-2" d="m192.9,151.9c-.5-2-1.8-4.3-3.5-2.7-.5.4-.7,1-.9,1.6-.1.5-.2.9-.3,1.4h0c0,.5,0,.9-.1,1.2,0,.5,0,1.2.4,1.6.4.5,1.2.6,1.8.6.7,0,1.5,0,2-.3.4-.3.6-.8.7-1.3.1-.5,0-1.3-.2-2.2Z"/><path class="cls-2" d="m192.9,151.9c.9-.2,1.6-.9,2.1-1.7,0,0,0,0,0-.1"/><path class="cls-2" d="m126.2,160.4s0,0,0,0c-.2-.5-.4-1-.6-1.5-.2-.4-.4-.7-.6-1.1-.5-.8-1.3-1.5-2.1-1.9-1.2-.5-2.7-.3-3.7-1.1-1.3-.9-3.1-1.2-4.7-.9-.6,0-1.3.3-1.8.5-2.1.9-3.8,2.4-5.4,4.1-.3.3-.6.7-.7,1.1-.1.4,0,.9.3,1.2.4.4,1.1.2,1.6,0,1.5-.5,3.1-.9,4.6-1.4,1.1,1,1.1,2.7,1,4.2,0,1.5.2,3.3,1.6,3.9,1,.4,2.1,0,3-.8.3-.2.5-.5.8-.7.9-.9,1.7-1.9,2.4-3,.2-.3.4-.6.5-1,.1-.2.2-.5.2-.7.1-.6,0-1.3-.5-1.7-.7-.5-1.7-.2-2.5.2-.5.3-1.1.6-1.5,1-.5.4-.9.8-1.3,1.3"/><path class="cls-2" d="m118.4,166.7s0,0,0,.1c.3.9,1.4,1.5,2.4,1.5s2-.5,2.8-1c0,0,0,0,0,0,1-.8,1.9-1.7,2.4-2.9"/><path class="cls-2" d="m123.5,167.1c0,0,.2.2.2.2,1.6,1.3,4.1,1.4,5.8.2,1.1-.7,1.8-2,1.9-3.2,0-.2,0-.3,0-.4,0-.5-.2-1.1-.5-1.5-.4-.4-.9-.6-1.5-.5-.5.2-.8.6-1,1.1-.2.4-.4.9-.8,1.3-.4.3-1,.5-1.4.2"/><path class="cls-2" d="m117.9,127.9s0,0,0,0c4.1,3.1,8.2,4.4,13.1,5.7"/><path class="cls-2" d="m119.1,124.7c4.1,3.1,8.2,4.5,13,5.8"/><path class="cls-2" d="m119,124.7s0,0,0,0"/><path class="cls-4" d="m153.3,202.3h0c1.1,6,.3,26.1,1.2,26.9.3.2,2.6.4,5.7.2,5.4-.3,13.1-1.4,16.9-3.9,1.4-.9,2.3-2,2.3-3.4"/><path class="cls-4" d="m131.1,180.8c-2.9,14.3-10,40-9.3,41,.7.9,1.5,3.3,2.6,3.7.7.2,1.4.4,2.1.5,4.4,1.1,9.8,1.8,14.8,2.3,2.8.3,5.5.5,7.8.8,2-3.9,3.1-17,4.1-26.9.4-4.4.8-8.2,1.2-10.1"/><path class="cls-4" d="m132.9,172c14.3,6.5,37.5-.4,39.7-1.2.1,0,.2,0,.2,0"/><path class="cls-2" d="m178.3,125.6c-2.3,2-4.5,3.6-7.2,4.8"/><path class="cls-2" d="m170.9,126.2h0c0,0,.1,0,.2,0"/><path class="cls-2" d="m176.6,122.6c-1.8,1.4-3.7,2.6-5.7,3.6"/><line class="cls-1" x1="138.8" y1="107.8" x2="138.9" y2="107.8"/><path class="cls-4" d="m138.7,106.3c0,.5,0,1,.1,1.5.3,1,1,1.9,1.8,2.5,1.3.9,2.8,1.3,4.4,1.5,3.3.5,6.7.3,9.9-.6,2.5-.7,5.7-2.6,6.3-5.2,0,0,0,0,0,0,0,0-.2,0-.3,0-.8,0-2.4.2-3-.2-.3.9-1.1,1.8-2,2.2s-1.9.5-2.9.7c-1.9.3-3.9.6-5.9.5-2,0-4.1-.6-5.7-1.8,0-.7,0-1.3-.1-1.9-.6-4.5-3.4-6.4-5.3-7"/><path class="cls-4" d="m164.7,89.2c-.2,3.2-2.1,8.9-6.7,10.8v5.9"/><path class="cls-1" d="m159.9,68.8c-.2,0-.4,0-.7-.1-1.6-.2-3,0-4.8,1.4"/><path class="cls-1" d="m154.4,70.1c-.8-1.4.3-2,2.6-2.5.6-.1,1.1-.2,1.6,0,0,0,.2,0,.3,0"/><path class="cls-1" d="m136.7,76.2c.8,0,2-4.2,7.9-3.6.4-.5,0-.8-.3-1-1.2-.8-3.4-.2-4.9.9-.4.3-1.3,1.1-2,1.9-.6.7-1.1,1.5-.9,1.8,0,0,.1,0,.2,0Z"/><path class="cls-1" d="m158.2,76c.5,1.4,1.5,2.4,2,2.2.6-.2.6-1.6,0-3-.5-1.4-1.5-2.4-2-2.2-.6.2-.6,1.6,0,3Z"/><path class="cls-1" d="m142.2,79.4c.6,1.6,1.7,2.6,2.3,2.3.7-.3.7-1.7.1-3.3-.6-1.6-1.7-2.6-2.3-2.3-.7.3-.7,1.7-.1,3.3Z"/><path class="cls-1" d="m160.6,86.1c-3.1,2.5-7.5,3.1-11.9,2.8.9,1.6,4.1,3.9,8.4,2.5,1.8-.6,3.9-2.9,3.5-5.3Z"/><path class="cls-1" d="m136.2,98.7c.7,3.1,1.7,6.3,2.6,9.2,2.2,6.7,4.3,12,4.3,11.9"/><line class="cls-4" x1="136.2" y1="98.7" x2="136.2" y2="98.7"/><path class="cls-1" d="m163,117c.9-3.4,1.5-6.8,1.8-10.4.6-5.8.4-11.7,0-17.5,0-.8-.1-1.6-.2-2.4-.6-5.5-2.7-13.2-5.3-18.1-.2-.4-.4-.8-.7-1.2-2.5-4.1-7.2-8-12.4-8.5-1.8-.2-7.1,11.2-8.6,15,0,0,0,.1,0,.2-.2.6-.5,1.3-.7,1.9-1.4,4.4-2,9-1.9,13.6,0,2.5.6,5.6,1.4,8.9"/><path class="cls-1" d="m132.1,54.3c4.5-3.6,13.9-3.8,18.5-1.8,18.5,7.9,18.9,38.4,16.2,54.5-1.1,6.6-2.7,10.7-3.7,10.1"/><path class="cls-1" d="m122.7,115.2c.2-11.2-4.7-23.2-5.5-33.8-.4-5.5-.2-14,2.8-19.3,2.3-4,6.3-5.9,12-7.9"/><path class="cls-4" d="m153.1,84.5c.5-2.4,4.6-4.1,5.3-1.3"/><path class="cls-1" d="m126.3,88.9c0,6.8,2.6,13.1,5.9,18.2,4.8,7.6,10.9,12.5,10.9,12.5"/><path class="cls-4" d="m141.5,188.2c0,1.2-.9,2.1-2.1,2.1s-2.1-.9-2.1-2.1.9-2.1,2.1-2.1,2.1.9,2.1,2.1Z"/><path class="cls-4" d="m174.9,222c0,1.2-.9,2.1-2.1,2.1s-2.1-.9-2.1-2.1.9-2.1,2.1-2.1,2.1.9,2.1,2.1Z"/><path class="cls-4" d="m169.1,187.6c.6-1,1.9-1.2,2.9-.6.9.6,1.2,1.9.6,2.9-.6,1-1.9,1.3-2.9.6s-1.2-1.9-.6-2.9Z"/><path class="cls-4" d="m149.9,197.3c.6,1,.2,2.3-.8,2.8-1,.5-2.3.2-2.8-.8-.6-1-.2-2.3.8-2.8,1-.5,2.3-.2,2.8.8Z"/><path class="cls-4" d="m155.4,184.6c.8-.1,1.6.3,2.1,1,.6,1,.2,2.3-.8,2.8s-1.1.3-1.6.2c-.5-.1-1-.5-1.3-1-.6-1-.2-2.3.8-2.8.2-.1.5-.2.8-.2Z"/><path class="cls-4" d="m161.2,199.5c.5,1,.2,2.3-.8,2.8-1,.6-2.3.2-2.8-.8-.5-1-.2-2.3.8-2.8,1-.6,2.3-.2,2.8.8Z"/><path class="cls-4" d="m138.9,221.1c.6,1,.2,2.3-.8,2.8-1,.5-2.3.2-2.8-.8-.6-1-.2-2.3.8-2.8,1-.5,2.3-.2,2.8.8Z"/><path class="cls-4" d="m149,215.4c.6,1,.2,2.3-.8,2.8-1,.6-2.3.2-2.8-.8-.6-1-.2-2.3.8-2.8,1-.6,2.3-.2,2.8.8Z"/><path class="cls-4" d="m127.9,216.1c-1,.6-2.3.4-2.9-.6-.6-1-.4-2.2.6-2.9.9-.6,2.2-.4,2.9.6.6,1,.4,2.2-.6,2.9Z"/><path class="cls-4" d="m132.3,200c-1,.6-2.2.4-2.9-.6-.6-1-.4-2.2.6-2.9,1-.6,2.2-.4,2.9.6.6,1,.4,2.2-.6,2.9Z"/><path class="cls-4" d="m168.8,212.5c-1,.6-2.2.4-2.9-.6-.6-.9-.4-2.2.6-2.9s2.2-.4,2.9.6c.6.9.4,2.2-.6,2.9Z"/><path class="cls-4" d="m175.2,202.9c-.9.6-2.2.4-2.9-.6-.6-1-.4-2.3.6-2.9s2.2-.4,2.9.6c.6.9.4,2.2-.6,2.9Z"/><path class="cls-4" d="m140.3,210.4c-.9.6-2.2.4-2.9-.6-.6-.9-.4-2.2.6-2.9,1-.6,2.2-.4,2.9.6.6,1,.4,2.3-.6,2.9Z"/><path class="cls-4" d="m159.9,226.6c-.9.6-2.2.4-2.9-.6-.6-.9-.4-2.2.6-2.9,1-.6,2.3-.4,2.9.6.6.9.4,2.2-.6,2.9Z"/><rect class="cls-15" x="189.7" y="31.2" width="22.7" height="22.7" transform="translate(22.9 145) rotate(-41.9)"/><rect class="cls-7" x="189.7" y="95.2" width="22.7" height="22.7" transform="translate(-26.4 99.7) rotate(-26.2)"/><polygon class="cls-7" points="142.5 25.6 146.4 3.2 168.8 7.1 164.9 29.5 142.5 25.6"/><path class="cls-15" d="m121.2,160.5c-1.3-1.4-6.8,3.4-6.8,3.4l-.9-.2-1.6-.3.6-3.4,1-5.6,2.4-13.3,22.3,4.1-4.1,22.4-4.3-.8s0,0,0,0c.5-.8.3-3.3-.7-4s-1.9,1-2.6,1.9c-.2,0-.4-.2-.5-.2-.2,0-.6.1-.7.2.2-.3.4-.6.5-.7.4-.6.9-2-.5-2.8-1.3-.7-3.6,1.3-3.8,1.5h-.1c.3-.8.2-1.6-.3-2.2Z"/><path class="cls-13" d="m129.3,162.8c-.7-.5-1.9,1-2.6,1.9-.2,0-.4-.2-.5-.2-.2,0-.6.1-.7.2.2-.3.4-.6.5-.7.4-.6.9-2-.5-2.8-1.3-.7-3.6,1.3-3.8,1.5h-.1c.3-.8.2-1.6-.3-2.2-1.3-1.4-6.8,3.4-6.8,3.4l-.9-.2c-.3.9-.7,2.4-.5,3,.3.7,1.3,1,2.7,1.1.9,0,1.5-.3,2.2-.9h0c-.1.3.7,1.4,2.3,1.9,1.5.6,2.3-.5,2.6-.6,0,0,.2-.2.5-.5,0,0,1.1,1,3.1,1.1,1.9.2,3.2-1.2,3.7-2,0,0,0,0,0,0,.5-.8.3-3.3-.7-4Z"/><path class="cls-13" d="m106,161c-1.6-.9,4-5.9,5.4-6.2.6-.1,1.5-.2,2.2-.3l-1,5.6-.3-.7s-4.7,2.4-6.3,1.5Z"/><polygon class="cls-15" points="83 49.8 105 44.1 110.6 66.1 88.6 71.8 83 49.8"/><path class="cls-4" d="m112.6,160.1l-.3-.7s-4.7,2.4-6.3,1.5c-1.6-.9,4-5.9,5.4-6.2.6-.1,1.5-.2,2.2-.3"/><path class="cls-4" d="m113.1,166.7c-.2-.5.2-2,.5-3"/><polygon class="cls-5" points="142.5 25.6 164.9 29.5 168.8 7.1 146.4 3.2 142.5 25.6"/><polyline class="cls-5" points="129.8 166.8 130 166.8 134.3 167.6 138.4 145.3 116.1 141.2 113.6 154.5 112.6 160.1 112 163.5 113.5 163.8 114.4 163.9"/><path class="cls-4" d="m126.3,165.3s.2-.3.5-.7c.7-.9,1.9-2.4,2.6-1.9,1,.7,1.2,3.2.7,4,0,0,0,0,0,0-.5.8-1.8,2.2-3.7,2-2-.2-3.1-1.1-3.1-1.1"/><path class="cls-4" d="m121.7,162.7h0c.2-.2,2.5-2.3,3.8-1.6,1.4.8.9,2.2.5,2.8,0,.1-.3.4-.5.7s-.5.7-.8,1.1c-.5.7-1,1.4-1.4,1.9-.2.3-.4.5-.5.5-.3.1-1,1.2-2.6.6s-2.4-1.7-2.3-1.9"/><path class="cls-4" d="m121.5,162.6c-.2,1-.9,1.7-1.5,2.4-.2.2-.4.4-.8.8-.5.4-1,.8-1.4,1.1-.7.6-1.3,1-2.2.9-.1,0-2.3-.1-2.7-1.1-.5-1,1.4-2.6,4.4-5.2.1-.1.9-.8,2-1,.5-.1.7,0,1,0,.7.2,1,.9,1,1,.2.4.1.8,0,1.1Z"/><path class="cls-4" d="m126.7,164.7c-.2,0-.4-.2-.5-.2-.2,0-.6.1-.7.2"/><rect class="cls-5" x="189.7" y="95.2" width="22.7" height="22.7" transform="translate(-26.4 99.5) rotate(-26.2)"/><polygon class="cls-5" points="110.6 66.1 88.6 71.8 83 49.8 105 44.1 110.6 66.1"/><rect class="cls-5" x="189.7" y="31.2" width="22.7" height="22.7" transform="translate(22.9 144.9) rotate(-41.8)"/></svg>