<?xml version="1.0" encoding="UTF-8"?><svg id="Layer_5" xmlns="http://www.w3.org/2000/svg" width="300" height="300" viewBox="0 0 300 300"><defs><style>.cls-1,.cls-2{stroke-linejoin:round;}.cls-1,.cls-2,.cls-3{stroke-linecap:round;}.cls-1,.cls-2,.cls-3,.cls-4{stroke:#000;}.cls-1,.cls-2,.cls-3,.cls-4,.cls-5{fill:none;}.cls-2{stroke-width:.8px;}.cls-3,.cls-4,.cls-5{stroke-miterlimit:10;}.cls-6,.cls-7,.cls-8,.cls-9,.cls-10,.cls-11,.cls-12,.cls-13,.cls-14,.cls-15,.cls-16,.cls-17,.cls-18,.cls-19,.cls-20,.cls-21{stroke-width:0px;}.cls-7{fill:#4d0099;}.cls-8{fill:#5f4c49;}.cls-9{fill:#46474b;}.cls-10{fill:#383838;}.cls-11{fill:#39332e;}.cls-12{fill:#d2b390;}.cls-13{fill:#c9916c;}.cls-14{fill:#be423b;}.cls-15{fill:#a58442;}.cls-16{fill:#abb3d9;}.cls-17{fill:#9e3f35;}.cls-18{fill:#3246ff;}.cls-19{fill:#333855;}.cls-20{fill:#818dbd;}.cls-21{fill:#fff;}.cls-5{stroke:#fff;stroke-width:.5px;}</style></defs><path class="cls-8" d="m180.9,152.5c-.1,0-.2.1-.3.2,0,0,0,0,0,0,0-.3.2-.6.3-.8,0,.2,0,.5,0,.7Z"/><path class="cls-8" d="m180.6,140.8c0,0,0,.1,0,.2,0,0,0-.2,0-.2Z"/><path class="cls-8" d="m180.4,141.9c0-.4.1-.7.2-.9h0c0-.1,0-.2,0-.2,0,0,0,0,0,0,.1,0,0,1.3-.3,1.8,0-.2,0-.4,0-.5s0,0,0,0Z"/><path class="cls-8" d="m179.8,142.6l-.3-.3c.3-.2.6-.3.8-.3,0,.2,0,.3,0,.5-.1.2-.3.3-.6,0Z"/><path class="cls-8" d="m180.5,152.7c-.1.4-.2.9-.3,1.3-.6,0-1.1-.2-1.5-.5.6-.2,1.2-.5,1.8-.8Z"/><path class="cls-19" d="m173.6,146.2c.6-1.8,2.9-4.3,4.7-4.8h0c.7.1,1.4.3,2,.6-.3,0-.5.1-.8.3-.4-.3-.5-.1-.5.3-.9.7-1.8,1.8-2.1,3-.5,1.7-.3,5.2.4,6.4.3.6.8,1.2,1.4,1.5-1.2.5-2.3.8-3.7,1.6-.1-1.2-3.2-3-1.4-9Z"/><path class="cls-20" d="m173.6,146.2c-1.9,6,1.3,7.8,1.4,9-1.1.7-2.8,1.3-4.3,1.6-1.4-1.9-2.2-6.7-1.4-9.4.8-2.8,2.2-5.6,5-6.6,1.4,0,2.9.3,4.1.6h0c-1.8.6-4.2,3-4.7,4.8Z"/><path class="cls-14" d="m166,149.6c.2-1.9.8-3.7,2-5.5.4-.7,1-1.3,1.6-1.9.9-.9,2.4-1.4,4-1.5.2,0,.4,0,.7,0-2.7,1-4.1,3.8-5,6.6-.8,2.7,0,7.5,1.4,9.4-.9.1-1.8.1-2.6,0-.4-.1-.8-.3-1.1-.6-1.7-1.4-1.1-5-.9-6.4Z"/><path class="cls-20" d="m169.6,142.2c-.6.6-1.1,1.3-1.6,1.9-1.5,1-2.2,1.1-3.9,1.6-.1-1.8-.2-3.6-.4-5.5.1,0,.2,0,.3,0,2.7-.8,6.2-2.2,8.3-4.1.5,1.8.9,3.4,1.2,4.8-1.6,0-3.1.5-4,1.5Z"/><path class="cls-14" d="m167.2,119h0c-1.9,1.3-2.9,2.3-5.2,2.7h-.4c-.3-1.5-.8-2.9-1.3-4.2,1.8-.8,2.9-2.7,4.4-4,.7.9,1.5,2.9,2.5,5.5Z"/><path class="cls-19" d="m124.7,177.5c-.8-.1-1.7-.3-2.6-.5.3-2.4.7-4.9.9-7.3h.1c14.3,3.9,30.8,3.9,42.7,0,.2,2.6.5,5.1.6,7.7h-.1c-11.9,2.9-25.4,3.1-41.7.1Z"/><path class="cls-19" d="m166,149.6c-.2,1.4-.8,5,.9,6.4.3.3.7.5,1.1.6-2.3-.8-2.6-.9-3.4-2.7h0c-.1-2-.2-4.1-.4-6.3,0-.6,0-1.3-.1-2,1.7-.5,2.4-.6,3.9-1.6-1.2,1.8-1.8,3.7-2,5.5Z"/><path class="cls-19" d="m170.6,129.4c-1.2,2.4-5.1,3.5-7.4,4.2,0-.6-.1-1.2-.2-1.8-.2-1.4-.3-2.9-.6-4.3h0c.4-.2,4.7-2.2,6.5-3.5.6,1.7,1.1,3.6,1.7,5.4Z"/><path class="cls-19" d="m164.3,147.7c.1,2.2.3,4.3.4,6.3h0c0,.5,0,1,0,1.5h0c0,.9-7.1,2.5-17,3,0-1.7-.3-4.4-.5-7.6h0c7,.2,14-1.2,17-3.1Z"/><path class="cls-20" d="m164.2,145.7c0,.7,0,1.3.1,2-3,1.9-10,3.3-17,3.1h0c-.1-2.4-.3-5.1-.4-7.7,5.7-.4,11.4-1.3,16.9-2.9.2,1.9.3,3.8.4,5.5Z"/><path class="cls-14" d="m163.8,140.1c-.2-2.2-.4-4.3-.6-6.6,2.3-.7,6.2-1.8,7.4-4.2.7,2.2,1.3,4.5,1.8,6.5-2.1,1.9-5.6,3.3-8.3,4.1-.1,0-.2,0-.3,0Z"/><path class="cls-20" d="m162,124.3c0-.9-.2-1.7-.4-2.5h.4c2.3-.5,3.3-1.5,5.2-2.8h0c.6,1.5,1.1,3.2,1.7,5-1.7,1.4-6.1,3.3-6.5,3.5-.1-.7-.2-1.5-.3-2.2,0-.3,0-.7-.1-1Z"/><path class="cls-14" d="m163.2,133.6c.2,2.2.4,4.4.6,6.6-5.5,1.6-11.2,2.5-16.9,2.9,0-2.8-.1-5.6,0-8.2,5.6,0,12.2-.9,16.2-3,0,.6.1,1.2.2,1.8Z"/><path class="cls-19" d="m147.7,127c5.6,0,11-1.2,14.3-2.8,0,.3,0,.7.1,1,.1.7.2,1.5.3,2.2h0c.2,1.5.4,2.9.6,4.3-4,2.1-10.5,3-16.2,3,0-3.1.3-5.8.8-7.8Z"/><path class="cls-19" d="m160.3,117.5c-1.7-4.3-3.9-6.6-3.9-6.6h0c0-.3,0-.7,0-1h.4c3.5.5,6.3,1.4,7.9,3.7-1.5,1.3-2.6,3.1-4.4,4Z"/><path class="cls-10" d="m170.6,289.1c-2.4-.9-5.5-2.9-6.1-3-.7-.1-8.1-.1-9.5-2.5-1.5-2.4,0-2.9,0-2.9h0c0,.2,0,.3,0,.3,1.1.9,2.8,2.9,9.1,2.6,2.6.8,5.6,3.2,9.8,4.5,2.9.9,6.3,1.4,10.6.6,2.9-1.1,3.3-3,3.3-3l.8.5v2.2s-1.3,2.9-5.9,2.8c-4.6-.1-9.8-1.2-12.2-2.1Z"/><path class="cls-15" d="m156.3,110.8c0,1.1,0,2.2-.3,2.7-.7,1.5-2,3.7-4.1,4.5h-.2c0-.4-.2-.9-.4-1.3-.1-.3-.3-.7-.5-1-.3-.6-.7-1.1-1.1-1.6,1.3-.7,2.5-1.5,3.6-2.5,1.2-1.1,1.8-3.4,2.2-4.9.3-1.1-.7-2.5-1.2-3.5.6.7,1,1.5,1.2,2.3.2.9.5,2.6.7,4.3,0,.3,0,.7,0,1Z"/><path class="cls-12" d="m152.2,101.7c.8.2,1.6.8,2.2,1.5h0c.5,1,1.5,2.4,1.2,3.5-.4,1.6-1,3.8-2.2,4.9-1.1,1-2.3,1.8-3.6,2.5-.8-.9-1.7-1.6-2.8-2.2,1.6-1.3,2.2-2.8,3.2-4.6.9-1.8,1.2-4,.3-5.8.6,0,1.2,0,1.6.2Z"/><path class="cls-6" d="m150.3,72.6c.6,1.5.6,2.9,0,3.2-.6.2-1.6-.8-2.2-2.3-.6-1.5-.6-2.9,0-3.2.6-.2,1.6.8,2.2,2.3Z"/><path class="cls-20" d="m151.9,120.4c0-.8,0-1.6-.1-2.4h.2c2.1-.8,3.4-3,4.1-4.5.2-.6.3-1.6.3-2.7h0c0,0,2.2,2.4,3.9,6.6.5,1.3.9,2.7,1.3,4.3.2.8.3,1.6.4,2.5-3.3,1.6-8.7,2.8-14.3,2.8v-.4c.3-.1.7-.4,1.1-.6,1.9-1.2,3-3.4,3.1-5.6Z"/><path class="cls-9" d="m166.6,185.4c-2,.8-9.6,2.6-19.2,2.9-7.4.2-16.2-.6-24.7-3.4,0,.4-.2.8-.3,1.2-1,5.3-14.2,74.7-18.2,87.7,1,1.1,1.7,2.1,2.7,2.9.4.3.8.6,1.3.9,1.6.9,3.9,1,8.1,0,1.7-.5,3.7-1.1,6.1-2,.3-.1.6-.2.8-.3,1.6-8.5,15.2-54.9,20.3-72.9h.2c1.7,6.3,9.1,46.9,7.9,70.4,1,.5,2.2,1,3.5,1.4,2.8.9,6.1,1.3,9.7-.1,1.6-.6,3.2-1.6,4.8-3,1.1-26.1-3.1-82.4-2.9-85.7Z"/><path class="cls-15" d="m146.8,134.8c0,2.6,0,5.4,0,8.2,0,2.7.2,5.4.4,7.7.2,3.2.4,5.9.5,7.6,0,1.2,0,2,0,2-.5,0-2,.4-3.8.8-.7-5.8-1.2-13.6-1.1-19.1.1-6.1.2-9,1.3-14.7,1.2,0,2.4-.2,3.5-.6v.4c-.3,2-.6,4.7-.7,7.8Z"/><path class="cls-21" d="m151.3,86.5c-.4,3-1.3,4.8-3.9,6-1.6.7-4,1.1-6,.2-1.2-.6-3.7-2.1-4.9-3-.3-.3,2.1-.5,5.1-.9,3.1-.4,6.8-1,8.9-2.1.4-.2.8-.4,1-.7l-.3.4Z"/><path class="cls-17" d="m147,112c-1.1-.6-2.3-1-3.6-1.3,0,0,0,0,0,0v-.2c2-.3,3.7-1.8,4.2-3.7.3-1,.4-3.9,1-4.7.4-.4,1.1-.6,1.9-.6.9,1.8.6,4-.3,5.8-1,1.8-1.6,3.3-3.2,4.6Z"/><path class="cls-12" d="m137.1,141.4c.8-5.5,1.4-9.1,3.2-14.6.8.2,1.5.3,2.3.4.5,0,.9,0,1.4,0-1,5.8-1.1,8.6-1.3,14.7-.1,5.5.4,13.3,1.1,19.1-2,.5-4.6,1.1-6.7,1.4,0-1.5-.8-15.4,0-21.1Z"/><path class="cls-17" d="m137.1,141.4c-.8,5.7,0,19.6,0,21.1-1.4.2-2.7.3-3.5.2-.6,0-1-.3-1-.6,0-1.2,0-2.6,0-4.1,0-2.4,0-5.2.2-8.2,0-2.2.2-4.4.3-6.7.2-2.8.5-5.6.9-8.3.4-3,1-5.7,1.8-8.1l.3-.9v-.3c1.3.6,2.6,1,3.9,1.3-1.8,5.4-2.4,9-3.2,14.6Z"/><path class="cls-6" d="m130.6,78.7c-.7-1.7-.6-3.3.1-3.5.7-.3,1.8.8,2.5,2.5.7,1.7.6,3.3-.1,3.5-.7.3-1.9-.8-2.5-2.5Z"/><path class="cls-14" d="m134.2,134.8c-.4,2.6-.7,5.5-.9,8.3h-.6c-4.3-.2-7.4-.4-11.6-.8,0,0,0-.2,0-.3,0-.4,0-.8.1-1.2h0c.3-2.6.5-5.1.8-7.2,4,.3,7.9,1.2,12.3,1.2Z"/><path class="cls-20" d="m133.3,143.1c-.2,2.3-.3,4.5-.3,6.7h-.2c-2.5.2-4.1-.1-10.2-.6h-.3c-.3-2.9-.7-5.5-1.1-6.9,4.2.4,7.3.6,11.6.8h.6Z"/><path class="cls-14" d="m165.2,161.8c-.2-1.9-.3-4.1-.4-6.4h0c0,.9-7.1,2.5-17,3,0,1.2,0,2,0,2-.5,0-2,.4-3.8.8-2,.5-4.6,1.1-6.7,1.4-1.4.2-2.7.3-3.5.2-.6,0-1-.3-1-.6,0-1.2,0-2.6,0-4.1h0c-4.1-.3-6.7-.9-9.8-2.1.3,2.9.5,5.5.6,6.9,0,.3,0,.6,0,1,3.5,1,6.8,1.5,9.9,1.8,4,.4,7.7.4,11.1.6,14.3.9,20.4-2.8,20.7-3.3,0-.4,0-.8-.1-1.2Z"/><path class="cls-12" d="m136.3,113.6c4.3,2.4,9.8,4.4,14.4,2.2h.2c.2.2.3.6.5.9.2.4.3.9.4,1.3.2.8.2,1.6.1,2.4-.7.9-2.7,2.9-6.8,2.4-9.3-1.2-17.4-8-22.2-16.1h-.3c.1-.5.3-.9.5-1.3.8-1.5,2.3-2.6,3.9-3,1.7,4.7,5.1,8.7,9.4,11.1Z"/><path class="cls-17" d="m150.8,115.8c-4.6,2.2-10.1.2-14.4-2.2-4.3-2.4-7.7-6.5-9.4-11.1.7-.2,1.4-.2,2.1,0,5.2,1.2,9.1,7.3,14.4,8.2,0,0,0,0,0,0,1.3.2,2.5.7,3.6,1.3,1,.6,2,1.3,2.8,2.2.4.5.8,1,1.1,1.6h-.2Z"/><path class="cls-14" d="m166.5,177.4h-.1c-11.9,2.9-25.4,3.1-41.7.1-.8-.1-1.7-.3-2.6-.5-.4,3.1-.8,5.9-.8,7.4.5.2.9.3,1.4.5,8.5,2.8,17.2,3.6,24.7,3.4,9.7-.3,17.2-2.1,19.2-2.9,0-2.8,0-5.4-.2-8Z"/><path class="cls-20" d="m123.6,163.8c3.5,1,6.8,1.5,9.9,1.8,4,.4,7.7.4,11.1.6,14.3.9,20.4-2.8,20.7-3.3.2,2.3.4,4.5.6,6.7-11.9,4-28.4,4-42.7,0h-.1c.1-1.4.3-2.7.4-3.8,0-.8,0-1.5.1-2.1Z"/><path class="cls-15" d="m142.6,127.2c-.8,0-1.5-.2-2.3-.4-1.3-.3-2.6-.7-3.8-1.3-3.6-1.6-6.9-4.2-9.6-7.2-.8-.8-1.5-1.7-2.2-2.6-.7-1-1.4-2.1-1.8-3.3-.2-.5-.4-1.1-.5-1.6-.3-1.4-.3-2.9.2-4.2h.3c4.8,8.2,12.9,15,22.2,16.2,4.1.5,6.1-1.5,6.8-2.4-.2,2.2-1.3,4.4-3.1,5.6-.4.3-.8.5-1.3.6-1.1.4-2.3.6-3.5.6s-.9,0-1.4,0Z"/><path class="cls-19" d="m132.7,158c-4.1-.3-6.7-.9-9.8-2.1-.2-2.2-.4-4.6-.7-6.8h.3c6.1.5,7.7.8,10.2.6h.2c-.1,3-.2,5.8-.2,8.2h0Z"/><path class="cls-14" d="m121.9,120.3c.4,1.9.5,4.2.5,6.5h-.3c-3.8.3-9.5-.2-13.1-2.8h-.2s.2-1.4.2-1.4c.4-1.3,1-3.2,1.8-5,3.2,1.2,7.3,2.4,10.7,2.9h.3Z"/><path class="cls-20" d="m109.1,123.9c3.5,2.6,9.3,3.1,13.1,2.8h.3c0,1.7-.1,3.4-.3,4.9,0,.6-.1,1.2-.2,1.9-.1,0-.2,0-.3,0-3.7.8-8,0-13.8-1.9l1-7.8h.2Z"/><path class="cls-19" d="m134.2,134.8c-4.4,0-8.3-.9-12.3-1.2,0,0,0,0,0,0,0-.7.1-1.3.2-1.9.1-1.5.3-3.2.3-4.9,4.2,0,9.8.3,13.7,0-.8,2.3-1.4,5.1-1.8,8.1Z"/><path class="cls-20" d="m136.1,126.8c-3.8.3-9.5,0-13.7,0,0-2.3-.1-4.6-.5-6.5,0-.5-.2-.9-.3-1.3-.3-.9-.6-2-1-2.9h.2c1.3,0,2.6,0,3.9-.3.7.9,1.4,1.8,2.2,2.6,2.7,2.9,6,5.5,9.6,7.2v.3c-.2.3-.3.6-.5.9Z"/><path class="cls-19" d="m121.6,133.6c.1,0,.2,0,.3,0,0,0,0,0,0,0-.2,2.1-.5,4.7-.8,7.2h0c-5.1,1.1-10.3.2-14.3-2h0l1-7.1c5.8,1.9,10.1,2.6,13.8,1.9Z"/><path class="cls-14" d="m121,142c0,0,0,.2,0,.3,0,0,0,0-.1,0,0,0,0-.2,0-.3Z"/><path class="cls-14" d="m106.9,138.8c4,2.2,9.1,3.1,14.3,2,0,.4,0,.8-.1,1.2,0,0,0,.2,0,.3-.2,1.3-.3,2.6-.5,3.8,0,.5-.2,1.1-.3,1.6h0c-2.3,1.3-10.1,1.1-13.9-2h-.3s.3-2.8.3-2.8l.5-4.1h0Z"/><path class="cls-8" d="m117.1,161.9c0-.3,0-.8.1-1.2.2.5.5,1,.7,1.5-.2-.2-.5-.3-.8-.3t0,0Z"/><path class="cls-20" d="m106.3,145.7c3.8,3.1,11.6,3.3,13.9,2h0c-.4,2.1-.8,4-1.3,5.8-4.5,1-8.9.2-13.5-1.2l.6-6.6h.3Z"/><path class="cls-8" d="m115.9,162c.4-.1.8-.2,1.2-.1-.5.1-.9.2-1.4.2,0,0,.1,0,.2,0Z"/><path class="cls-19" d="m120.6,116.1c-.8-1.9-2-3.7-4.6-4.5h0c0,0,.1,0,.2,0l6.2-.7c.1.6.3,1.1.5,1.6.5,1.2,1.1,2.3,1.8,3.3-1.3.3-2.6.4-3.9.2h-.2Z"/><path class="cls-19" d="m116.1,111.6c2.5.8,3.8,2.6,4.6,4.5.4,1,.7,2,1,2.9.1.4.2.8.3,1.3h-.3c-3.4-.4-7.5-1.6-10.7-2.8,1.3-2.8,3-5.6,5.2-5.9h0Z"/><path class="cls-8" d="m114.2,163.3c0-.6,0-1.2-.4-1.6.6.3,1.3.4,2,.4-.6.3-1.1.8-1.6,1.3,0,0,0,0,0-.1Z"/><path class="cls-11" d="m121.4,83c.3,1.1.4,2.3-.2,3.2-.6.9-2.4.9-2.6-.2h-.2c-.7-.5-1.5-.8-2.3-.6-.8.1-1.6.7-1.8,1.5-.3,1,0,2.2.6,3.2s.4.8.6,1.2c-15.4-8.5-9.3-29.3-4.6-34.8,4.3-5.2,18.7-10,25.2-10,6.6,0,17.3,7.7,18.1,16.8-2.7-3.2-6.8-5.3-11-5.7,1,1.3,1.5,3,1.2,4.7-2.6-2.2-6.1-3.2-9.4-2.7,1.3,2.5,2.6,5.4,1.4,7.9-3.2-1.7-6.6-3-10.1-3.7,1.2,1.1.8,2.7.4,4.4-.4.2-.8.4-1.2.6-1.6-.3-3.1-.7-4.7-1-.7-.1-1.5-.3-2.1.1-.6.4-.8,1.3-.8,2.1-.1,4.6,2.4,8.8,3.5,13.2Z"/><path class="cls-8" d="m113.6,161.6c0,0,0,0,.1.1-.3-.1-.6-.3-.8-.4.3,0,.5.1.7.3Z"/><path class="cls-19" d="m110.8,156.7c-1.6-1.1-3.8-1.2-5.7-.7l.4-3.7c4.6,1.4,9,2.2,13.5,1.2-.7,3-1.5,5.5-1.7,7.2-.2-.4-.4-.7-.6-1-.5-.8-1.3-1.5-2.2-1.9-1.2-.5-2.6-.3-3.8-1.1Z"/><path class="cls-16" d="m183.2,277.5h0s-13.7-6.4-13.7-6.4c-1.6,1.4-3.3,2.4-4.8,3-3.6,1.4-6.9,1-9.7.1.3,2.2,0,5.4,0,6.4,0,.2,0,.3,0,.3,1.1.9,2.8,2.9,9.1,2.6,2.6.8,5.6,3.2,9.8,4.5,2.9.9,6.3,1.4,10.6.6,2.9-1.1,3.3-3,3.3-3,0,0,.5-7.3-4.6-8.3Z"/><path class="cls-16" d="m116.3,277.6c-4.1,1.1-6.4.9-8.1,0h0c-.5-.3-.9-.6-1.3-.9-3,2.6-5.3,5.7-6.7,8.2h0s0,0,0,0c-.7,1.1-1.1,2.1-1.3,2.7,0,.3-.1.5-.2.7-.1,1.4,2.1,5.7,6.6,6.9,5.5,1.4,9-1.3,11.6-5.3,2-3,3.5-6.9,4.9-10.2,0-.5.2-.9.3-1.3.3-1.5.4-1.9.4-2.9-2.4.9-4.4,1.5-6.1,2Z"/><path class="cls-13" d="m180.4,141.9c0-.4.1-.7.2-.9-.1.3-.2.6-.2.9Z"/><path class="cls-13" d="m198.3,135.9c-3.8-1.3-8.5.2-11.6,2.7-2.1-.9-4.8.3-5.9,2.2.2.1-.1,3.1-1.1,1.6-3.7,1.9-4,9.1-.8,11.2.6-.2,1.2-.5,1.8-.8,0-.3.2-.6.3-.9,0,.2,0,.5,0,.7-.1,0-.2.1-.3.2-2.6,6.3,6.1,6.7,4.4,1h0s0,0,0,0c.9-.3,1.6-.9,2.1-1.7,1.9,1.5,5.3,1.6,5.6-1.4,1,0,2.3.5,3.2-.3,1.4-2.2,3.6-7.9-1.3-5.7h0c-2,.4-4.3-1-2.9-3.1,1.6-2.4,5.9-3.2,6.8-5.7Z"/><path class="cls-13" d="m154.7,71.5c-.4-4.3-1-6.7-1.5-7.9h.2c.4,0,.8,0,1.2,0-.1-.2-.3-.3-.4-.5-2.7-3.2-6.8-5.3-11-5.7,1,1.3,1.5,3,1.2,4.7-2.6-2.2-6.1-3.2-9.4-2.7,1.3,2.5,2.6,5.4,1.4,7.9-3.2-1.7-6.6-3-10.1-3.7,1.2,1.1.8,2.7.4,4.4,0,.3-.1.6-.1.9-.3,0-.7-.1-1-.2-1.6-.3-3.1-.7-4.7-1-.7-.1-1.5-.3-2.1.1-.6.4-.8,1.3-.8,2.1-.1,4.6,2.4,8.8,3.5,13.2.3,1.1.4,2.3-.2,3.2-.6.9-2.4.9-2.6-.2h-.2c-.7-.5-1.5-.8-2.3-.6-.8.1-1.6.7-1.8,1.5-.3,1,0,2.2.6,3.2.2.4.4.8.6,1.2.7,1.2,1.5,2.2,2.4,3.2.6.7,1.3,1.3,2.1,1.6.7.3,1.6.3,2.3,0h.2c4.8,3.8,5.7,3.9,6.6,6.4,5.2,1.2,9.1,7.3,14.4,8.2v-.2c2-.3,3.7-1.8,4.2-3.7.3-1,.4-3.9,1-4.7,3.9-2.9,11-9.4,10-16.8-1.2-9.4-3.5-7.3-4-13.7Zm-21.5,9.7c-.7.3-1.9-.8-2.5-2.5-.7-1.7-.6-3.3.1-3.5.7-.3,1.8.8,2.5,2.5.7,1.7.6,3.3-.1,3.5Zm15-10.9c.6-.2,1.6.8,2.2,2.3.6,1.5.6,2.9,0,3.2-.6.2-1.6-.8-2.2-2.3-.6-1.5-.6-2.9,0-3.2Zm3.2,16.2c-.4,3-1.3,4.8-3.9,6-1.6.7-4,1.1-6,.2-1.2-.6-3.7-2.1-4.9-3-.3-.3,2.1-.5,5.1-.9,3.1-.4,6.8-1,8.9-2.1.4-.2.8-.4,1-.7l-.3.4Z"/><path class="cls-13" d="m121.2,163.8c-1.3.4-1.5,3.5-3.3,2.5.5-1.1,1.1-3.1,0-4h0c-1.3-.8-2.9.1-3.8,1.2.3-1-.3-1.8-1.3-2.1.3,0,.7.1.8.4.6.3,1.3.4,2,.4.4-.2.9-.3,1.4-.2t0,0c0-.3,0-.8.1-1.2-1-3-4-3.1-6.5-4-6.1-5.2-21.2,10.7-6.2,4.7,2.3,2.2-.8,11.3,5.6,7.3.8,2.2,3.9,1.7,5.3.4,4.4,4.5,11.4-4.4,5.7-5.4Z"/><path class="cls-10" d="m98.7,288.3c-.1,1.4,2.1,5.7,6.5,6.9,5.5,1.4,9-1.3,11.6-5.3,2-3,3.5-6.9,4.9-10.2,0-.5.2-.9.3-1.3.8.9.3,2.6.3,2.6l-1.4,3.2s-.9,3.7-2.7,8c-1.8,4.2-7.2,6.8-12.9,6.1s-7.4-5.6-7.4-5.6v-4.1l.9-.9c0,.3-.1.5-.2.7Z"/><path class="cls-3" d="m123.2,275.2c1.6-8.5,15.2-54.9,20.3-72.9,1.2-4.2,1.9-6.9,1.9-7"/><path class="cls-3" d="m122.7,184.9c0,.4-.2.8-.3,1.2-1,5.3-14.2,74.7-18.2,87.7,1,1.1,1.7,2.1,2.7,2.9.4.3.8.6,1.3.9,1.6.9,3.9,1,8.1,0,1.7-.5,3.7-1.1,6.1-2l.8-.3"/><path class="cls-3" d="m145.4,195.3s.9-1.6,2.2-2.7c.2-.2.4-.3.6-.4"/><path class="cls-3" d="m143.7,202.4c1.7,6.2,9.1,46.8,7.9,70.4,1,.5,2.2,1,3.5,1.4,2.8.9,6.1,1.3,9.7-.1,1.6-.6,3.2-1.6,4.8-3,1.1-26.1-3.1-82.4-2.9-85.7"/><path class="cls-3" d="m122.4,275.6c0,1,0,1.4-.4,2.9,0,.3-.2.8-.3,1.3-1.4,3.3-2.9,7.1-4.9,10.2-2.6,4-6.1,6.7-11.6,5.3-4.5-1.2-6.7-5.5-6.5-6.9,0-.2,0-.4.2-.7.2-.7.7-1.6,1.3-2.7,1.4-2.4,3.8-5.6,6.7-8.2"/><path class="cls-3" d="m116.9,289.9s-.8-4.2-4.1-6.6c-.9-.7-2.1-1.3-3.5-1.5-1.3-.3-2.5-.3-3.6-.1-3.8.5-5.5,3.2-5.5,3.2"/><path class="cls-3" d="m108.2,277.6c-1,1.8-2.5,4-2.5,4"/><line class="cls-3" x1="112.8" y1="283.3" x2="116.3" y2="277.6"/><path class="cls-3" d="m98.9,287.6l-.9.9v4.1s1.6,5,7.4,5.6,11.2-1.9,12.9-6.1c1.7-4.2,2.7-8,2.7-8l1.4-3.2s.5-1.7-.3-2.6h0"/><path class="cls-3" d="m176.2,279.4c-1.9,1.9-2.8,5.2-2.3,8.7"/><path class="cls-3" d="m155,274.3c.3,2.2,0,5.4,0,6.4,0,.2,0,.3,0,.3,1.1.9,2.8,2.9,9.1,2.6,2.6.8,5.6,3.2,9.8,4.5,2.9.9,6.3,1.4,10.6.6,2.9-1.1,3.3-3,3.3-3,0,0,.5-7.3-4.6-8.3-1.3-.3-3-.1-5.2.7-.7.3-1.3.7-1.8,1.3"/><path class="cls-3" d="m164.7,274.1c3.6,2,9.7,5.4,11.4,5.3h0"/><line class="cls-3" x1="169.6" y1="271.1" x2="183.2" y2="277.4"/><path class="cls-3" d="m187.9,285.7l.8.5v2.2s-1.3,2.9-5.9,2.8c-4.6-.1-9.8-1.2-12.2-2.1s-5.5-2.9-6.1-3c-.7-.1-8.1-.1-9.5-2.5-1.5-2.4,0-2.9,0-2.9"/><path class="cls-3" d="m129,102.4c-.9-2.6-1.8-2.6-6.6-6.4"/><path class="cls-3" d="m152.5,62.2c0,.1.3.5.7,1.4.5,1.3,1.1,3.6,1.5,7.9.5,6.4,2.8,4.3,4,13.7,1,7.4-6.1,13.9-10,16.8"/><path class="cls-4" d="m154.2,63.2c0,.1,0,.2,0,.4"/><path class="cls-3" d="m115.5,91.2c-15.4-8.5-9.3-29.3-4.6-34.8,4.3-5.2,18.7-10,25.2-10,6.6,0,17.3,7.7,18.1,16.8"/><path class="cls-1" d="m148.1,73.5c.6,1.5,1.6,2.5,2.2,2.3.6-.2.6-1.7,0-3.2-.6-1.5-1.6-2.5-2.2-2.3-.6.2-.6,1.7,0,3.2Z"/><path class="cls-1" d="m130.6,78.7c.6,1.7,1.8,2.8,2.5,2.5.7-.3.8-1.9.1-3.5-.7-1.7-1.8-2.8-2.5-2.5-.7.3-.8,1.9-.1,3.5Z"/><path class="cls-1" d="m118.4,85.9c-.7-.5-1.5-.7-2.3-.6-.8.1-1.6.7-1.8,1.5-.3,1,0,2.2.6,3.2s.4.8.6,1.2c.7,1.2,1.5,2.2,2.4,3.2.6.7,1.3,1.3,2.1,1.6.7.3,1.6.3,2.3,0,0,0,0,0,.1,0,.7-.5,1-1.6.6-2.4"/><path class="cls-1" d="m141.4,86.1c3.1-4.2,7.2-3.9,7.8-2.1"/><path class="cls-4" d="m121.9,133.6c0-.7.1-1.3.2-1.9"/><path class="cls-3" d="m121.2,140.8c.3-2.6.5-5.1.8-7.2"/><path class="cls-3" d="m120.5,146.1c.2-1.2.3-2.5.5-3.8,0,0,0-.2,0-.3,0-.4,0-.8.1-1.2"/><path class="cls-3" d="m117.3,160.7c.3-1.7,1-4.2,1.7-7.2.4-1.7.9-3.7,1.3-5.8,0-.5.2-1.1.3-1.6"/><polyline class="cls-3" points="106.3 142.9 106.1 145.7 105.5 152.3 105.1 156"/><path class="cls-3" d="m122.4,110.8h0l-6.2.7c0,0-.1,0-.2,0-2.1.4-3.9,3.1-5.2,5.9-.8,1.9-1.5,3.7-1.8,5l-.2,1.4-1,7.8-1,7.1-.5,4.1"/><path class="cls-3" d="m156.7,109.8c3.5.5,6.3,1.4,7.9,3.7s1.5,2.9,2.5,5.5c.6,1.5,1.1,3.2,1.7,5,.6,1.7,1.1,3.6,1.7,5.4.7,2.2,1.3,4.5,1.8,6.5.5,1.8.9,3.4,1.2,4.8,0,0,0,.1,0,.2"/><path class="cls-3" d="m179,142.7c0-.5.1-.7.5-.3"/><path class="cls-3" d="m178.4,141.3c-1.3-.3-2.8-.6-4.1-.6-.2,0-.5,0-.7,0-1.6,0-3.1.5-4,1.5-.6.6-1.1,1.3-1.6,1.9-1.2,1.8-1.8,3.7-2,5.5-.2,1.4-.8,5,.9,6.4.3.3.7.5,1.1.6.8.2,1.7.2,2.6,0,1.6-.2,3.2-.9,4.3-1.6,1.4-.8,2.5-1.1,3.7-1.6"/><path class="cls-3" d="m168,156.7c-2.3-.8-2.6-.9-3.4-2.7"/><path class="cls-3" d="m122.3,149.2c-.3-2.9-.7-5.5-1.1-6.9,0,0,0-.2,0-.3"/><path class="cls-4" d="m123,156c-.2-2.2-.4-4.6-.7-6.8"/><path class="cls-3" d="m166.6,185.4c-2,.8-9.6,2.6-19.2,2.9-7.4.2-16.2-.6-24.7-3.4-.5-.2-.9-.3-1.4-.5,0-1.5.4-4.3.8-7.4.3-2.4.7-4.9.9-7.3.1-1.4.3-2.7.4-3.8,0-.8,0-1.5.1-2.1,0-.4,0-.7,0-1-.1-1.4-.3-4-.6-6.9"/><path class="cls-3" d="m162.4,127.5c.2,1.4.4,2.9.6,4.3,0,.6.1,1.2.2,1.8.2,2.2.4,4.4.6,6.6.2,1.9.3,3.8.4,5.5,0,.7,0,1.3.1,2,.1,2.2.3,4.3.4,6.3h0c0,.5,0,1,0,1.5.1,2.4.3,4.5.4,6.4v1.2c.3,2.3.5,4.5.7,6.7.2,2.6.5,5.1.6,7.7.1,2.6.2,5.3.2,8"/><path class="cls-3" d="m162.1,125.3c.1.7.2,1.5.3,2.2"/><path class="cls-3" d="m116.1,111.6c2.5.8,3.8,2.6,4.6,4.5.4,1,.7,2,1,2.9.1.4.2.8.3,1.3.4,1.9.5,4.2.5,6.5,0,1.7-.1,3.4-.3,4.9"/><path class="cls-3" d="m162.1,125.3c0-.3,0-.7-.1-1,0-.9-.2-1.7-.4-2.5-.3-1.6-.8-3-1.3-4.3-1.7-4.3-3.9-6.6-3.9-6.6"/><path class="cls-1" d="m150.9,64.7c-1.1-2.2-7.9-2.2-8.4.5"/><path class="cls-1" d="m132.7,68.4c-1.7-1.6-4-1.3-6-.4-.4.2-.8.4-1.2.6-1.7,1.1-3.1,2.5-3.1,3.2"/><line class="cls-4" x1="194.4" y1="144.6" x2="194.4" y2="144.7"/><line class="cls-3" x1="184.9" y1="153.7" x2="184.9" y2="153.7"/><path class="cls-4" d="m180.4,143.3c0-.3,0-.5,0-.8,0-.2,0-.4,0-.5s0,0,0,0c0-.3,0-.6.2-.9h0c0-.1,0-.2,0-.2,0,0,0,0,0,0,.2-.4.6-.8,1.1-1.2,1.4-1.1,3.1-1.6,4.8-1,3.1-2.5,7.2-3.6,11.1-2.9.2,0,.4,0,.5.3.2.3-.1.8-.5,1-1.5,1.1-3.1,2.1-4.6,3.2-.6.4-1.3.9-1.7,1.5-.4.6-.6,1.5-.2,2.2.6,1,2,1,3.1.9"/><path class="cls-3" d="m187.2,147.6c.1.6.9.8,1.5.5.5-.2.9-.7,1.4-1.1s1-.7,1.6-.5c.2,0,.4.3.6.5.3.4.3,1,.4,1.5,0,.7.1,1.5,0,2.2,0,0,0,0,0,.1-.1.8-.5,1.5-1.2,1.9-.7.4-1.6.5-2.4.3-.7-.2-1.4-.6-2-1h-.2"/><path class="cls-3" d="m180.4,142c-.3,0-.5.1-.8.3-.2,0-.3.2-.5.3-.9.7-1.8,1.8-2.1,3-.5,1.7-.3,5.2.4,6.4.3.6.8,1.2,1.4,1.5.5.3,1,.5,1.5.5,0,0,.1,0,.2,0"/><path class="cls-4" d="m192.3,147c.4-1,1.2-1.8,2.2-2.3.3-.1.5-.2.8-.3.4-.1.8-.2,1.3-.1.4,0,.8.3,1,.7.3.6,0,1.2-.2,1.7-.4,1-.8,1.9-1.1,2.8-.1.3-.2.6-.5.8-.4.4-1,.5-1.5.4-.6,0-1.1-.2-1.6-.1"/><path class="cls-3" d="m184.9,153.7c-.5-2.1-1.8-4.3-3.5-2.7-.3.2-.4.5-.6.8-.1.3-.2.5-.3.8,0,0,0,0,0,0-.1.4-.2.9-.3,1.3,0,.4,0,.8-.1,1.2,0,.6,0,1.2.4,1.6.4.5,1.2.6,1.8.6.7,0,1.5,0,2-.3.4-.3.6-.8.7-1.3.1-.5,0-1.3-.2-2.2Z"/><path class="cls-3" d="m184.9,153.7c.9-.3,1.6-.9,2.1-1.7,0,0,0,0,0-.1"/><line class="cls-3" x1="117.9" y1="166.3" x2="118" y2="166.3"/><path class="cls-4" d="m117.9,162.2c-.2-.5-.4-1-.7-1.5-.2-.4-.4-.7-.6-1-.5-.8-1.3-1.5-2.2-1.9-1.2-.5-2.6-.3-3.8-1.1-1.6-1.1-3.8-1.2-5.7-.7-.3,0-.6.2-.9.3-2.1.8-3.8,2.4-5.4,4.1-.3.3-.6.7-.8,1.1-.1.4,0,1,.3,1.3.4.3,1.1.2,1.6,0,1.5-.5,3.1-.9,4.6-1.4,1.1,1,1.1,2.7,1,4.2,0,1.5.2,3.3,1.6,3.9,1,.4,2.1,0,3-.8s.6-.5.8-.7c.9-.9,1.7-2,2.4-3,.3-.5.6-1,.8-1.6,0,0,0,0,0-.1,0-.6,0-1.2-.4-1.6,0,0,0,0-.1-.1-.2-.2-.5-.3-.7-.3"/><path class="cls-3" d="m110.2,168.7c.3,1,1.3,1.5,2.4,1.5s2.1-.5,2.9-1.1c1-.8,1.9-1.7,2.4-2.9.3-.6.5-1.3.6-2,0-.7,0-1.4-.4-1.9,0,0-.1-.1-.2-.2h0c-.2-.2-.5-.3-.8-.3-.4,0-.8,0-1.2.1,0,0-.1,0-.2,0-.6.3-1.1.8-1.6,1.3h-.1"/><path class="cls-3" d="m115.5,169.1c1.6,1.5,4,1.6,5.8.3,1.2-.8,2-2.1,2-3.5v-.2c0-.6-.2-1.1-.6-1.5-.3-.4-1-.6-1.5-.5-.5.2-.8.6-1,1s-.4.9-.8,1.3c-.4.3-1,.5-1.4.2"/><path class="cls-1" d="m151.6,86.1c-.3.3-.6.5-1,.7-2.1,1-5.8,1.7-8.9,2.1-3,.4-5.4.6-5.1.9,1.1.9,3.6,2.4,4.9,3,2,.9,4.4.5,6-.2,2.6-1.2,3.5-3,3.9-6"/><path class="cls-4" d="m143.4,110.7s0,0,0,0c1.3.2,2.5.7,3.6,1.3,1,.6,2,1.3,2.8,2.2.4.5.8,1,1.1,1.6.2.3.3.7.5,1,.2.4.3.9.4,1.3.2.8.2,1.6.1,2.4-.2,2.2-1.3,4.4-3.1,5.6-.4.3-.8.5-1.3.6-1.1.4-2.3.6-3.5.6s-.9,0-1.4,0c-.8,0-1.5-.2-2.3-.4-1.3-.3-2.6-.7-3.8-1.3-3.6-1.6-6.9-4.2-9.6-7.2-.8-.8-1.5-1.7-2.2-2.6-.7-1-1.4-2.1-1.8-3.3-.2-.5-.4-1.1-.5-1.6-.3-1.4-.3-2.9.2-4.2.1-.4.3-.8.5-1.2.8-1.5,2.3-2.6,3.9-3,.7-.2,1.4-.2,2.1,0,5.2,1.2,9.1,7.3,14.4,8.2Z"/><path class="cls-4" d="m136.4,125.8l-.3.9c-.8,2.3-1.4,5.1-1.8,8.1-.4,2.6-.7,5.5-.9,8.3-.2,2.3-.3,4.5-.3,6.7-.1,3-.2,5.8-.2,8.2,0,1.5,0,2.9,0,4.1,0,.4.3.6,1,.6.8.1,2,0,3.5-.2,2.1-.3,4.6-.9,6.7-1.4,1.8-.4,3.3-.8,3.8-.8.1,0,.1-.7,0-2,0-1.7-.3-4.4-.5-7.6-.1-2.4-.3-5.1-.4-7.7,0-2.8-.1-5.6,0-8.2,0-3.1.3-5.8.8-7.8"/><path class="cls-4" d="m154.4,103.2c.6.7,1,1.5,1.2,2.3.2.9.5,2.6.7,4.3,0,.3,0,.7,0,1,0,1.1,0,2.2-.3,2.7-.7,1.5-2,3.7-4.1,4.5"/><path class="cls-4" d="m150.5,101.5c.6,0,1.2,0,1.6.2.8.2,1.6.8,2.2,1.5"/><path class="cls-3" d="m148.7,102.1c.4-.4,1.1-.6,1.9-.6"/><path class="cls-4" d="m143.5,110.5c2-.3,3.7-1.8,4.2-3.7.3-1,.4-3.9,1-4.7"/><path class="cls-4" d="m121.6,120.4c-3.4-.5-7.5-1.6-10.7-2.9"/><path class="cls-4" d="m105.4,152.3s0,0,0,0c4.6,1.4,9,2.2,13.5,1.2.1,0,.3,0,.4,0"/><path class="cls-4" d="m106.3,145.7c3.8,3.1,11.6,3.3,13.9,2"/><path class="cls-4" d="m106.9,138.8c4,2.2,9.1,3.1,14.3,2h0"/><path class="cls-4" d="m107.8,131.7c5.8,1.9,10.1,2.6,13.8,1.9"/><path class="cls-4" d="m109.1,123.9c3.5,2.6,9.3,3.1,13.1,2.8"/><path class="cls-4" d="m164.7,113.5c-1.5,1.3-2.6,3.1-4.4,4,0,0,0,0,0,0"/><line class="cls-4" x1="162.4" y1="127.5" x2="162.4" y2="127.5"/><path class="cls-4" d="m168.9,123.9s0,0,0,0c-1.7,1.4-6.1,3.3-6.5,3.5h0"/><path class="cls-4" d="m170.7,129.1c0,.1,0,.2-.2.3-1.2,2.4-5.1,3.5-7.4,4.2h0"/><path class="cls-4" d="m172.5,135.9s0,0,0,0c-2.1,1.9-5.6,3.3-8.3,4.1"/><path class="cls-4" d="m168,144.1c-1.5,1-2.2,1.1-3.9,1.6,0,0,0,0,0,0"/><path class="cls-4" d="m174.3,140.7c-2.7,1-4.1,3.8-5,6.6-.8,2.7,0,7.5,1.4,9.4,0,0,0,0,0,.1"/><path class="cls-4" d="m178.4,141.4c-1.8.5-4.2,2.9-4.7,4.8-1.9,6,1.3,7.8,1.4,9"/><path class="cls-4" d="m161.9,121.7c2.3-.4,3.3-1.4,5.2-2.7"/><path class="cls-4" d="m122.9,106.7c4.8,8.1,12.9,14.9,22.2,16.1,4.1.5,6.1-1.5,6.8-2.4,0,0,0,0,0,0"/><path class="cls-4" d="m126.9,102.4h0c1.7,4.7,5.1,8.7,9.4,11.2,4.3,2.4,9.8,4.4,14.4,2.2"/><path class="cls-4" d="m140.3,126.8s0,0,0,0c-1.8,5.4-2.4,9-3.2,14.6-.8,5.7,0,19.6,0,21.1,0,0,0,.1,0,.1"/><path class="cls-4" d="m144.1,127.2s0,0,0,0c-1,5.8-1.1,8.6-1.3,14.7-.1,5.5.4,13.3,1.1,19.1"/><path class="cls-4" d="m150.5,101.4s0,0,0,.1c.9,1.8.6,4-.3,5.8-1,1.8-1.6,3.3-3.2,4.6"/><path class="cls-4" d="m154.4,103.2h0c.5,1,1.5,2.4,1.2,3.5-.4,1.6-1,3.8-2.2,4.9-1.1,1-2.3,1.8-3.6,2.5-.2,0-.3.2-.5.3"/><path class="cls-4" d="m120.9,116c1.3.1,2.6,0,3.9-.2h.2"/><path class="cls-4" d="m122.1,126.8h.3c4.2,0,9.8.3,13.7,0"/><path class="cls-4" d="m121.6,133.6c.1,0,.2,0,.3,0,0,0,0,0,0,0,4,.3,7.9,1.2,12.3,1.2-.1,0-.3,0-.4,0"/><path class="cls-4" d="m147.7,127c5.6,0,11-1.2,14.3-2.8h.1"/><path class="cls-4" d="m146.8,134.8h0c5.6,0,12.2-.9,16.2-3,0,0,.1,0,.2,0"/><path class="cls-4" d="m122.6,149.2c6.1.5,7.7.9,10.2.6"/><path class="cls-4" d="m147.3,150.8c7,.2,14-1.2,17-3.1,0,0,0,0,0,0"/><path class="cls-4" d="m121.9,177c0,0,.1,0,.2,0,.9.2,1.7.3,2.6.5,16.3,3,29.8,2.8,41.7-.1"/><path class="cls-4" d="m123.2,169.8c14.3,3.9,30.8,3.9,42.7,0"/><path class="cls-4" d="m123.4,163.7c0,0,.1,0,.2,0,3.5,1,6.8,1.5,9.9,1.8,4,.4,7.7.4,11.1.6,14.3.9,20.4-2.8,20.7-3.3,0,0,0,0,0,0"/><path class="cls-4" d="m147.7,158.4h0c9.8-.4,17-2,17-3s0,0,0-.1"/><path class="cls-4" d="m123,156c3.1,1.1,5.7,1.7,9.8,2.1"/><path class="cls-4" d="m146.2,143.1h.7c5.7-.5,11.4-1.4,16.9-2.9.1,0,.2,0,.3,0"/><path class="cls-4" d="m120.9,142.2c0,0,.1,0,.2,0s0,0,.1,0c4.2.4,7.3.6,11.6.8"/><path class="cls-4" d="m118.6,86c.2,1.1,2,1.1,2.6.2.6-.9.5-2.1.2-3.2-1.1-4.4-3.7-8.6-3.5-13.2,0-.8.2-1.6.8-2.1.6-.4,1.4-.3,2.1-.1,1.6.3,3.1.7,4.7,1l1,.2c0-.3,0-.6.1-.9.3-1.7.8-3.3-.4-4.4,3.5.7,6.9,2,10.1,3.7,1.2-2.5-.1-5.4-1.4-7.9,3.3-.5,6.8.5,9.4,2.7.2-1.6-.2-3.3-1.2-4.7,4.2.4,8.3,2.5,11,5.7.2.2.3.3.4.5-.4,0-.8,0-1.2-.1"/><polygon class="cls-7" points="195.3 98.3 203 114 187.3 121.7 179.6 106 195.3 98.3"/><polygon class="cls-18" points="163.7 15.5 151.6 28.1 138.9 16 151.1 3.3 163.7 15.5"/><polygon class="cls-18" points="126.8 146.8 123.6 164 122.1 163.8 107.9 161.2 106.4 160.9 109.5 143.7 126.8 146.8"/><polygon class="cls-5" points="138.9 16 151.6 28.1 163.7 15.5 151.1 3.3 138.9 16"/><polyline class="cls-5" points="122.1 163.8 123.6 164 126.8 146.8 109.5 143.7 106.4 160.9 107.9 161.2"/><polygon class="cls-5" points="203 114 187.3 121.7 179.6 106 195.3 98.3 203 114"/><path class="cls-13" d="m122.7,164.3c-.4-.4-1-.6-1.5-.5-.5.2-.8.6-1,1.1-.2.5-.4.9-.8,1.3-.4.3-1,.5-1.4.2h0c.3-.7.5-1.3.6-2,0-.7,0-1.4-.4-1.9-.5-.6-1.5-.7-2.2-.4-.8.3-1.2.7-1.7,1.3.1-.6,0-1.3-.6-1.7-.7-.6-1.7-.3-2.5.2-.9.5-1.7.8-2.3,1.5-1-.3-1.8-.9-2.6-1.6-.1-2.1.2-4.2.8-6.3-1.1,0-1.8.3-2.8.8-2.1.9-3.9,2.5-5.4,4.2-.3.3-.6.7-.8,1.1-.1.4,0,1,.3,1.3.4.4,1.1.2,1.6,0,1.5-.5,3.1-.9,4.6-1.4.1,0,.2.2.3.3.8,1,.8,2.6.7,4,0,1.5.2,3.4,1.6,4,1,.4,2.1,0,3-.8h.1c.3,1.2,1.3,1.5,2.3,1.5,1.1,0,2.1-.5,2.9-1.1,1.6,1.5,4,1.6,5.8.3,1.2-.8,2-2.3,1.9-3.8,0-.6-.2-1.1-.6-1.6Z"/><path class="cls-2" d="m107,155.5c-1.1,0-1.8.3-2.8.8-2.1.9-3.9,2.5-5.4,4.2-.3.3-.6.7-.8,1.1-.1.4,0,1,.3,1.3.4.4,1.1.2,1.6,0,1.5-.5,3.1-.9,4.6-1.4.1,0,.2.2.3.3.8,1,.8,2.6.7,4,0,1.5.2,3.4,1.6,4,1,.4,2.1,0,3-.8.3-.2.6-.5.8-.8.9-1,1.7-2,2.4-3.1.4-.5.7-1.1.8-1.7.1-.6,0-1.3-.6-1.7-.7-.6-1.7-.3-2.5.2-.9.5-1.7.8-2.3,1.5-.2.1-.3.3-.5.5"/><path class="cls-2" d="m110.3,169.1c.3,1,1.3,1.4,2.3,1.4s2.1-.5,2.9-1.1c1-.8,1.9-1.8,2.4-2.9h0c.3-.6.5-1.3.6-2,0-.7,0-1.4-.4-1.9-.5-.6-1.5-.7-2.3-.4-.8.3-1.2.7-1.7,1.3"/><path class="cls-2" d="m115.5,169.3c1.6,1.5,4,1.6,5.8.3,1.2-.8,2-2.3,1.9-3.8,0-.6-.2-1.1-.6-1.6-.4-.4-1-.6-1.5-.5-.5.2-.8.6-1,1.1s-.4.9-.8,1.3c-.4.3-1,.5-1.4.2"/></svg>