<?xml version="1.0" encoding="UTF-8"?><svg id="Layer_5" xmlns="http://www.w3.org/2000/svg" width="300" height="300" viewBox="0 0 300 300"><defs><style>.cls-1{stroke:#fff;}.cls-1,.cls-2{fill:none;stroke-miterlimit:10;stroke-width:1px;}.cls-2{stroke:#000;}.cls-3{fill:#4d0099;}.cls-3,.cls-4,.cls-5,.cls-6,.cls-7,.cls-8,.cls-9,.cls-10,.cls-11{stroke-width:0px;}.cls-4{fill:#626365;}.cls-5{fill:#967246;}.cls-6{fill:#e1c0a5;}.cls-7{fill:#b3282e;}.cls-8{fill:#3246ff;}.cls-9{fill:#fff;}.cls-10{fill:#ffd204;}.cls-11{fill:#050504;}</style></defs><rect class="cls-8" x="189.2" y="32" width="22.4" height="22.4" transform="translate(22.3 144.7) rotate(-41.9)"/><rect class="cls-3" x="189.2" y="95.3" width="22.4" height="22.4" transform="translate(-26.4 99.4) rotate(-26.2)"/><path class="cls-6" d="m204,130.2c2.5-1.6,1.7-2,1.7-2,0,0-4.5-1.1-7.8,1.4-3.3,2.5-.8.4-.8.4,0,0-6.3,1.4-7,2.2-.3.3-.4.8-.6,1.3,0,0-.7.3-1.5.8-2.4-.2-4.3,0-5.9.5-3.9,1.2-5.6,3.9-6.4,6.2h0s-.9.5-2.3.9l.9,2.9s-.1,1.8,1,2.3c1.1.5,5.6,3.1,7.8,2.5,2-.6,5.2-3.7,5.7-4.2.2,0,.3.1.5.1h.4c0,.6-.1.9-.1.9,0,.5,0,2,2.4,1.9,2.3,0,1.8-2.4,1.8-2.4,0,0,0-.4-.1-.9h.1c.7,0,2.3-1.5,2.3-1.5.7.4,1.6.9,2.2,1,.8.1,1.5-.2,2-1.4.2-.5.4-.9.4-1.4h.2c.4.9,3.4.3,3.3-.5-.1-.8.8-2.7.8-2.7.2-.5,1-1.8-1.2-2.1-1.1-.1-1.8.3-2.3.8h-.1c-1.5-.3-2.3-1-2.3-1l.6-2.4s2-2.1,4.5-3.8Z"/><path class="cls-6" d="m166.2,231.3c-.4-1.5-.7-3.6-.7-3.6,3.7.9,8.3,1,12.9-1.9,0,0,.8,3,.7,4.3s-.7,4.3-.7,4.3c0,0-.6,27.2-.7,31.3-4-.4-2.8,5.6-2.8,5.6-.7-.4-1.3-.7-1.5-.7-1.3-.4-2.1,1.4-3.1,1.3-.5,0-1.1-.6-1.5-1.1,0-1.1,0-2.2-.1-3.3-.7-10.7-3.8-19.7-4.1-27-.1-3.5,1.8-9.2,1.8-9.2Z"/><path class="cls-4" d="m155.7,204.2c-1.3,6.3-3,14.6-4.1,20.4-1.9.8-3.7,1.2-5.4,1.5-6.5,1-11.4-.9-15-3.5-2.4-1.7-4.2-3.6-5.4-5,4.4-7.6,8.2-26.1,9.2-31.2,1-5.2,2.8-10.3,2.8-10.3,6.9,4.2,16.7,6.8,21.4,6.5,4.8-.3,12.6-5.2,15.8-7.1-.1,3.2,7,28.4,9.3,44.7-1.9,2.6-4,4.4-6,5.7-4.6,2.9-9.2,2.8-12.9,1.9-2.8-.7-5.1-1.8-6.5-2.5.1-6.6-3.2-20.6-3.2-21Z"/><path class="cls-6" d="m142.9,103.7c-.5-2.5-1.1-4-1.1-4-3.7-1.1-7.4-4.2-7.4-4.2,3.1-2.2,6.8-4,8.4-4.5-15.3-7.1-18.1-21.7-18.1-21.7l-.3-.2c1.5-2.2,5.7-6.8,6.7-7.7-.6-2.5-.6-12.8-.6-12.8,0,0,2.6,6.7,4,11.7,10.3-4,20.6-4.5,28.9-3.7.1.5,1.6,7.1,4,8.6,2.5,1.6,3.7,4.3,3.8,5.7.1,1.4,5,19.8-13.6,28-.7.2-.9,1.3-.9,2.8,0,1.4.2,3.2.5,4.9.1,1,.3,1.9.5,2.8h0c-.4,2.1-1.8,6.6-4.9,7.6-3.4,1.2-7.7-5-9.1-7.2,0-.8-.1-1.5-.2-2.3-.1-1.4-.4-2.7-.6-3.7Zm16.7-37.3c.5-.1.7-1.1.5-2.2-.2-1.1-.8-1.9-1.4-1.8s-.7,1.1-.5,2.2c.2,1.1.8,1.9,1.4,1.8Zm-8,19.4c4.6,0,8.3-5.2,9.4-7.5-12.5-3.5-20.1,1.8-20.1,1.8,1.9,3,6.1,5.7,10.7,5.7Zm-11.2-17.9c.7-.2,1-1.3.7-2.5-.3-1.2-1.1-2-1.8-1.9-.7.2-1,1.3-.6,2.5s1.1,2,1.8,1.8Z"/><polygon class="cls-3" points="168.5 8.2 164.7 30.3 142.6 26.5 146.5 4.4 168.5 8.2"/><path class="cls-11" d="m160.2,64.2c.2,1.1,0,2.1-.5,2.2s-1.1-.7-1.4-1.8c-.2-1.1,0-2.1.5-2.2s1.1.7,1.4,1.8Z"/><path class="cls-9" d="m161.1,78.3c-1.1,2.3-4.8,7.5-9.4,7.5s-8.8-2.6-10.7-5.7c0,0,7.7-5.4,20.1-1.8Z"/><path class="cls-6" d="m142.9,231s2,7,0,12.2c-3.3,8.6-7.4,16.8-9.2,26.4-.2.9-.3,1.9-.4,2.8h.2c-.5,1.2-1.4,2.5-1.9,1.6-.8-1.3-1.8-.5-2-.3h-.1c0-.1,0-.3,0-.4,0,0,3.5-5.8-3.3-5.8,0,0-1.4-.1-2.7.4,1.4-4.3,2.3-20.6,2.9-25.6.6-5.1,4.2-12.1,4.2-12.1l.6-7.6c3.6,2.5,8.5,4.5,15,3.5,0,0-1.3,2.5-3.3,4.9Z"/><path class="cls-11" d="m141.2,65.4c.3,1.2,0,2.3-.7,2.5-.7.2-1.5-.6-1.8-1.8s0-2.3.6-2.5c.7-.2,1.5.6,1.8,1.9Z"/><path class="cls-5" d="m168.6,57.1c7.7,1.2,12.7,3.1,12.7,3.1-21.6-34.1-52.8-19.3-53.3-18.1-.2.6,0,1.5.1,2.3l-2.1,3.1s-1.6,0-2.3.5c-.2.1-.9,1.2-1.8,2.9-2.8,5.2-7.8,16.6-5.8,27.7,2.7,14.7,13.6,25.5,13.6,25.5,0,0,4.7.3,11.5-.2.6,0,1.1,0,1.7-.1-.5-2.5-1.1-4-1.1-4-3.7-1.1-7.4-4.2-7.4-4.2,3.1-2.2,6.8-4,8.4-4.5-15.3-7.1-18.1-21.7-18.1-21.7l-.3-.2c1.5-2.2,5.7-6.8,6.7-7.7-.6-2.5-.6-12.8-.6-12.8,0,0,2.6,6.7,4,11.7,10.3-4,20.6-4.5,28.9-3.7.1.5,1.6,7.1,4,8.6,2.5,1.6,3.7,4.3,3.8,5.7.1,1.4,5,19.8-13.6,28-.7.2-.9,1.3-.9,2.8,10.8-2.5,22.3-7.5,29.3-17.1,0,0-13.1-5-17.4-27.3Z"/><path class="cls-10" d="m181.9,134c-1.8-3.9-8.9-22.7-8.9-22.7-.4-.1-.9-.3-1.5-.3-3.6-.5-10.9-.4-10.9-.4-1.2-2.2-2.9-4.1-3.4-4,.1,1,.3,1.9.5,2.8h0c-.4,2.1-1.8,6.6-4.9,7.6-3.4,1.2-7.7-5-9.1-7.2,0-.8-.1-1.5-.2-2.3-.3,0-2.8-.3-3.5,2.8,0,0-7.5-1.5-11-1.3-.8,0-1.4.2-1.6.4-1.1,1.4-8,18.2-11.8,20.8.8,1.4,2.5,4.4,5.1,6.9,2.3,2.1,5.4,3.8,9.1,3.5.9,0,1.8-.3,2.8-.6,0,0,.2-1.2.6-2.9.7,1,1.5,3.7,2.3,7.1h0s3,.6,3,.6l-1.4,7.5c.8,4.7,1.4,9.1,1.5,10.9.1,4.4-1.1,6.1-2.7,11.8.6.4,1.2.8,1.8,1.2,6.9,4.2,16.7,6.8,21.4,6.5,4.8-.3,12.6-5.2,15.8-7.1.3-.1.5-.3.7-.4,0-.3-1.8-8.6-3.3-23.4,0-3.3,0-6.6-.2-9.5.4,0,.8-.2,1.1-.3,1.5-.4,2.3-1,2.3-1h0c.8-2.2,2.5-5,6.4-6.1l-.2-.8Z"/><path class="cls-6" d="m129.9,140.5h0s-.7,2.5-.7,2.5l-9.4-1.7,1-4.3c2.3,2.1,5.4,3.8,9.1,3.5Z"/><path class="cls-7" d="m198.6,283.3s.5-6.9-4.3-8h0s-13.6-5.7-13.6-5.7c0-.2,0-.3,0-.5.3-1.2.2-2.1-.3-2.4,0,0-.1,0-.2-.1-1.1-.6-2-.8-2.7-.9-4-.4-2.8,5.6-2.8,5.6-.7-.4-1.3-.7-1.5-.7-1.3-.4-2.1,1.4-3.1,1.3-.5,0-1.1-.6-1.5-1.1,0-1.1,0-2.2-.1-3.3-.3,0-2.8-.3-2.5,2.2.3,2.3.5,7.4.5,8.8h0s-1.5.5,0,2.8c1.5,2.3,8.6,2.3,9.3,2.5.7.1,3.7,2.1,6,2.9,2.3.9,7.4,2,11.9,2.1,4.5.1,5.7-2.8,5.7-2.8v-2.1l-.8-.5Z"/><path class="cls-7" d="m133.7,269.6c-.2.9-.3,1.9-.4,2.8h.2c-.5,1.2-1.4,2.5-1.9,1.6-.8-1.3-1.8-.5-2-.3h-.1c0-.1,0-.3,0-.4,0,0,3.5-5.8-3.3-5.8,0,0-1.4-.1-2.7.4-1.4.5-2.7,1.8-2.1,4.6-.7.4-1.4,1.9-2.1,3.2-2.6,2.3-4.6,4.8-5.9,6.7,0,0,0,.1,0,.1-.7,1.1-1.1,2-1.4,2.6l-.9.9v4s1.6,4.9,7.2,5.5c5.6.6,10.9-1.8,12.6-5.9,1.7-4.1,2.6-7.8,2.6-7.8l1.3-3.1s.5-1.6-.3-2.5c1.3-7.1-.8-6.6-.8-6.6Z"/><path class="cls-8" d="m135.6,144.1l-6.4-1.2-9.4-1.7-3.3-.6-2.4,13.1-1,5.6-.6,3.4,1.5.3.9.2s5.4-4.8,6.7-3.4c.5.6.6,1.3.3,2.1h.1c.2-.2,2.5-2.2,3.7-1.5,1.3.8.8,2.2.4,2.8,0,.1-.3.4-.5.7.2,0,.6-.1.7-.2.2,0,.4.2.5.2.7-.9,1.9-2.3,2.6-1.9,1,.7,1.2,3.1.7,3.9,0,0,0,0,0,0l4.3.8,2.7-14.6,1.4-7.5-3-.6Z"/><path class="cls-6" d="m129.6,162c-.7-.5-1.9,1-2.6,1.9-.2,0-.4-.2-.5-.2-.2,0-.6.1-.7.2.2-.3.4-.6.5-.7.4-.6.9-2-.4-2.8-1.3-.7-3.5,1.3-3.7,1.5h-.1c.3-.8.2-1.6-.3-2.1-1.3-1.4-6.7,3.4-6.7,3.4l-.9-.2c-.3.9-.7,2.4-.5,2.9.3.7,1.2.9,2.6,1.1.9,0,1.5-.3,2.1-.9h0c-.1.3.7,1.3,2.2,1.9s2.2-.5,2.5-.6c0,0,.2-.2.5-.5,0,0,1.1,1,3.1,1.1,1.9.2,3.1-1.2,3.7-2,0,0,0,0,0,0,.5-.8.3-3.2-.7-3.9Z"/><path class="cls-6" d="m111.9,154c-1.4.3-6.9,5.3-5.3,6.2,1.6.9,6.2-1.5,6.2-1.5l.3.6,1-5.6c-.7,0-1.5.1-2.2.3Z"/><polygon class="cls-8" points="105.5 44.8 111.1 66.5 89.4 72.1 83.8 50.4 105.5 44.8"/><path class="cls-2" d="m113,159.3l-.3-.6s-4.7,2.4-6.2,1.5c-1.6-.9,3.9-5.9,5.3-6.2.6-.1,1.5-.2,2.2-.3"/><path class="cls-2" d="m113.5,165.9c-.2-.5.2-2,.5-2.9"/><line class="cls-2" x1="129.9" y1="140.5" x2="129.2" y2="143"/><path class="cls-2" d="m135.6,144.1c-.8-3.4-1.6-6.1-2.3-7.1"/><path class="cls-2" d="m170.2,122.5s1.5,8.1,2,19.6c.1,3,.2,6.2.2,9.5,1.5,14.8,3.2,23.1,3.3,23.4-.2.1-.4.3-.7.4-3.2,1.9-11,6.9-15.8,7.1-4.7.3-14.5-2.3-21.4-6.5-.6-.4-1.2-.8-1.8-1.2,1.6-5.7,2.8-7.4,2.7-11.8,0-1.9-.7-6.2-1.5-10.9"/><polygon class="cls-1" points="142.6 26.5 164.7 30.3 168.5 8.2 146.5 4.4 142.6 26.5"/><line class="cls-2" x1="120.8" y1="137" x2="119.8" y2="141.2"/><polyline class="cls-1" points="130.1 165.9 130.2 166 134.5 166.8 137.2 152.2 138.5 144.7 135.6 144.1 129.2 143 119.8 141.2 116.5 140.6 114.1 153.8 113 159.3 112.4 162.7 114 163 114.9 163.1"/><path class="cls-2" d="m128.6,45.7s-.2-.6-.4-1.3c-.2-.7-.4-1.6-.1-2.3.4-1.2,31.7-16,53.3,18.1,0,0-5-1.9-12.7-3.1-1.6-.2-3.4-.5-5.2-.6-8.3-.7-18.6-.3-28.9,3.7-1.5-4.9-4-11.7-4-11.7,0,0,0,10.2.6,12.8-1,.9-5.2,5.5-6.7,7.7-.2.3-.4.6-.5.8-.4-5.3.8-15.8,2.5-19"/><path class="cls-2" d="m156.4,101.6c.1,0,.2,0,.3,0,10.8-2.5,22.3-7.5,29.3-17.1,0,0-13.1-5-17.4-27.3"/><path class="cls-2" d="m128.1,44.4l-2.1,3.1s-1.6,0-2.3.5c-.2.1-.9,1.2-1.8,2.9-2.8,5.2-7.8,16.6-5.8,27.7,2.7,14.7,13.6,25.5,13.6,25.5,0,0,4.7.3,11.5-.2.6,0,1.1,0,1.7-.1,0,0,.2,0,.3,0"/><path class="cls-2" d="m124.6,69.3s2.8,14.6,18.1,21.7c-1.5.4-5.2,2.3-8.4,4.5-3.5,2.5-6.4,5.4-4.5,7.2,2.1,1.5,9.9,1.2,11.4,1.1.2,0,.3,0,.3,0"/><path class="cls-2" d="m163.4,56.5h0c.1.5,1.6,7.1,4,8.6,2.5,1.6,3.7,4.3,3.8,5.7.1,1.4,5,19.8-13.6,28-.7.2-.9,1.3-.9,2.8,0,1.4.2,3.2.5,4.9.1,1,.3,1.9.5,2.8"/><path class="cls-2" d="m134.4,95.5s3.7,3.2,7.4,4.2c0,0,.6,1.5,1.1,4,.2,1.1.4,2.3.6,3.7,0,.7.1,1.5.2,2.3h0"/><path class="cls-2" d="m155.2,92.2s-2.2,2.5-4.8.6"/><path class="cls-2" d="m143.5,107.5h0c-.3,0-2.8-.3-3.5,2.8.8,2.8,7.3,13.4,13.6,13.4s7.2-11.3,6.9-13.1c-1.2-2.2-2.9-4.1-3.4-4"/><path class="cls-2" d="m143.2,108.9s.2.3.5.8c1.4,2.3,5.7,8.4,9.1,7.2,3.1-1.1,4.5-5.5,4.9-7.6.2-.7.2-1.2.2-1.2"/><path class="cls-2" d="m140.1,110.2s-7.5-1.5-11-1.3c-.8,0-1.4.2-1.6.4-1.1,1.4-8,18.2-11.8,20.8.8,1.4,2.5,4.4,5.1,6.9,2.3,2.1,5.4,3.8,9.1,3.5.9,0,1.8-.3,2.8-.6,0,0,.2-1.2.6-2.9.9-4.6,2.5-13.1,2.8-14.1"/><path class="cls-2" d="m160.6,110.5s7.3-.1,10.9.4c.6,0,1.2.2,1.5.3,0,0,7.1,18.8,8.9,22.7"/><path class="cls-2" d="m175.1,144.2s0-1.4.6-3.2c.8-2.2,2.5-5,6.4-6.2,1.6-.5,3.5-.7,5.9-.5"/><path class="cls-2" d="m175.7,140.9s-.9.5-2.3,1c-.3.1-.7.2-1.1.3h-.3"/><path class="cls-2" d="m173.3,141.9l.9,2.9s-.1,1.8,1,2.3c1.1.5,5.6,3.1,7.8,2.5,2-.6,5.2-3.7,5.7-4.2h0"/><path class="cls-2" d="m189.1,135.5s.2-1.1.4-2c.2-.6.4-1.1.6-1.3.7-.7,7-2.2,7-2.2,0,0-2.5,2.2.8-.4,3.3-2.5,7.8-1.4,7.8-1.4,0,0,.8.4-1.7,2-2.5,1.6-4.5,3.8-4.5,3.8l-.6,2.4s.9.7,2.3.8"/><path class="cls-2" d="m189.5,133.4s-.7.3-1.5.8c-.9.6-1.8,1.6-2.1,2.9-.6,2.5-1.1,6.9,2.7,8.2.2,0,.3.1.5.1"/><path class="cls-2" d="m200.4,139.2s.2-1.1,1-1.9c.5-.5,1.2-.9,2.3-.8,2.1.2,1.4,1.6,1.2,2.1,0,0-.9,2-.8,2.7.1.8-2.9,1.5-3.3.6"/><path class="cls-2" d="m196.7,141.1c0-.1.9-2.8,2.5-2.4.4.1.8.3,1,.7.4.6.6,1.4.3,2.5,0,.4-.2.9-.4,1.4-.6,1.2-1.3,1.6-2,1.4-.6-.1-1.5-.6-2.2-1-.2-.1-.4-.2-.5-.3"/><path class="cls-2" d="m195.6,140.1s.7-.4,1.2-.2"/><path class="cls-2" d="m195.9,143.6s-1.5,1.4-2.3,1.5"/><path class="cls-2" d="m193.5,145.1c0,.5.1.9.1.9,0,0,.5,2.4-1.8,2.4s-2.5-1.5-2.4-1.9c0,0,0-.4.1-.9.2-1.3.8-3.5,2.1-3.1,1.2.4,1.7,1.7,1.9,2.6Z"/><path class="cls-2" d="m126.6,164.5s.2-.3.4-.7c.7-.9,1.9-2.3,2.6-1.9,1,.7,1.2,3.1.7,3.9,0,0,0,0,0,0-.5.8-1.8,2.2-3.7,2-2-.2-3.1-1.1-3.1-1.1"/><path class="cls-2" d="m122,161.9h0c.2-.2,2.5-2.3,3.7-1.5,1.3.8.8,2.2.4,2.8,0,.1-.3.4-.5.7s-.5.7-.8,1.1c-.5.7-1,1.4-1.4,1.8-.2.3-.4.5-.5.5-.3.1-1,1.2-2.5.6s-2.3-1.7-2.2-1.9"/><path class="cls-2" d="m114.9,163.1s5.4-4.8,6.7-3.4c.5.6.6,1.3.3,2.1-.3.8-.8,1.6-1.5,2.3-.3.3-.6.6-.8.8-.5.4-.9.8-1.3,1.1-.7.6-1.2,1-2.1.9-1.4-.1-2.3-.3-2.6-1.1"/><path class="cls-2" d="m137.7,176.1s-1.8,5.1-2.8,10.3c-1,5.1-4.8,23.6-9.2,31.2,1.2,1.4,3,3.3,5.4,5,3.6,2.5,8.5,4.5,15,3.5,1.7-.3,3.5-.8,5.4-1.5,1.1-5.8,2.8-14.1,4.1-20.4.9-4.8,1.6-8.4,1.5-8.8-.1-1.8-2-5.7-2.7-6.5"/><path class="cls-2" d="m157.2,194.9s3.4,0,5.1-1c1.6-1,3.4-4.2,3.4-4.2"/><path class="cls-2" d="m155.7,204.1h0c0,.4,3.4,14.4,3.2,21,1.4.7,3.7,1.9,6.5,2.5,3.7.9,8.3,1,12.9-1.9,2-1.3,4-3.1,6-5.7-2.2-16.3-9.4-41.5-9.3-44.7"/><path class="cls-2" d="m131.2,222.6l-.6,7.6s-3.6,7.1-4.2,12.1c-.6,5-1.5,21.3-2.9,25.6,0,0,0,.2,0,.3"/><path class="cls-2" d="m146.2,226.1s-1.3,2.5-3.3,4.9c-.3.3-.5.6-.8.9"/><path class="cls-2" d="m142.9,231s2,7,0,12.2c-3.3,8.6-7.4,16.8-9.2,26.4-.2.9-.3,1.9-.4,2.8"/><path class="cls-2" d="m178.3,225.8s.8,3,.7,4.3-.7,4.3-.7,4.3c0,0-.6,27.2-.7,31.3v.5"/><path class="cls-2" d="m165.4,227.7s.4,2.1.7,3.6.3,1.4.5,1.5"/><path class="cls-2" d="m166.2,231.3s-1.9,5.8-1.8,9.2c.3,7.3,3.5,16.2,4.1,27,0,1.1.1,2.2.1,3.3v.4"/><path class="cls-2" d="m113.5,282.4c1.3-2,3.2-4.4,5.9-6.7.7-1.3,1.4-2.8,2.1-3.2"/><path class="cls-2" d="m133.7,269.6s2-.5.8,6.6c0,.4-.1.8-.2,1.3-1.4,3.2-2.8,6.9-4.7,9.9-2.5,3.9-6,6.5-11.3,5.2-4.4-1.1-6.5-5.4-6.4-6.7,0-.2,0-.4.2-.7.2-.6.7-1.6,1.4-2.6"/><path class="cls-2" d="m129.6,287.4s-.7-4.1-4-6.4c-.9-.7-2-1.2-3.4-1.5-1.3-.3-2.5-.3-3.5-.1-3.2.4-4.8,2.5-5.2,3,0,0,0,.1,0,.1"/><path class="cls-2" d="m129.6,273.7h0c.2-.1,1.2-1,2,.3.5.9,1.4-.4,1.9-1.5.3-.6.5-1.1.5-1.2"/><path class="cls-2" d="m125.6,281l3.1-5.1s.5-1,.8-2.2c0-.1,0-.2,0-.3.3-1.8.1-3.8-2.4-4.2-4.1-.5-5.8,2-5.4,4.2,0,.2.1.4.2.6-1,1.8-3.2,5.3-3.2,5.3"/><path class="cls-2" d="m129.5,273.3s3.5-5.8-3.3-5.8c0,0-1.4-.1-2.7.4-1.4.5-2.7,1.8-2.1,4.6,0,.3.1.6.2.9s0,.2.1.4"/><path class="cls-2" d="m112,285.2l-.9.9v4s1.6,4.9,7.2,5.5c5.6.6,10.9-1.8,12.6-5.9,1.7-4.1,2.6-7.8,2.6-7.8l1.3-3.1s.5-1.6-.3-2.5"/><path class="cls-2" d="m187.2,277.2c-1.9,1.9-2.7,5-2.2,8.5"/><path class="cls-2" d="m168.5,267.4h0c-.3,0-2.8-.3-2.5,2.2.3,2.3.5,7.4.5,8.8,0,.2,0,.3,0,.3,1.1.8,2.7,2.8,8.9,2.5,2.5.8,5.4,3.1,9.6,4.4,2.8.9,6.1,1.3,10.3.6,2.8-1.1,3.2-2.9,3.2-2.9,0,0,.5-6.9-4.3-8-.8-.2-1.8-.2-2.9,0-.7.1-1.5.3-2.3.7-.7.3-1.3.7-1.8,1.2"/><path class="cls-2" d="m167.7,269.1c0,.4.5,1.1,1,1.7.4.6,1,1.1,1.5,1.1,1.1.1,1.8-1.7,3.1-1.3.2,0,.8.3,1.5.7.4.2.8.4,1.3.7,3.6,2,9.5,5.3,11.1,5.2h0"/><path class="cls-2" d="m176.1,272s-.3-4.1,2.2-5.1c.9-.3,1.5-.4,2-.3,0,0,.1,0,.2.1.6.3.6,1.2.3,2.4,0,.2,0,.4,0,.5-.2,1.5.5,1.5.5,1.5l10.1,4.2"/><path class="cls-2" d="m174.8,271.3s-1.1-6,2.8-5.6c.7,0,1.6.4,2.7.9,0,0,.1,0,.2.1"/><line class="cls-2" x1="180.7" y1="269.6" x2="194.3" y2="275.3"/><path class="cls-2" d="m198.6,283.3l.8.5v2.1s-1.2,2.9-5.7,2.8c-4.5-.1-9.6-1.2-11.9-2.1-2.3-.8-5.3-2.8-6-2.9-.7-.1-7.8-.1-9.3-2.5-1.5-2.3,0-2.8,0-2.8"/><path class="cls-2" d="m129.1,110.3s5.6,1.3,6.7,8.6"/><path class="cls-2" d="m170,120.9s1.2-1.7,1.3-8.3"/><path class="cls-2" d="m127,163.8c-.2,0-.4-.2-.5-.2-.2,0-.6.1-.7.2"/><rect class="cls-1" x="189.2" y="95.3" width="22.4" height="22.4" transform="translate(-26.4 99.2) rotate(-26.2)"/><polygon class="cls-1" points="111.1 66.5 89.4 72.1 83.8 50.4 105.5 44.8 111.1 66.5"/><rect class="cls-1" x="189.2" y="32" width="22.4" height="22.4" transform="translate(22.3 144.6) rotate(-41.8)"/><path class="cls-2" d="m141.2,65.4c.3,1.2,0,2.3-.7,2.5-.7.2-1.5-.6-1.8-1.8s0-2.3.6-2.5c.7-.2,1.5.6,1.8,1.9Z"/><path class="cls-2" d="m160.2,64.2c.2,1.1,0,2.1-.5,2.2s-1.1-.7-1.4-1.8c-.2-1.1,0-2.1.5-2.2s1.1.7,1.4,1.8Z"/><path class="cls-2" d="m156.3,58.3s.8-.9,2.6-.8c1.7.1,2.2,1.2,2.2,1.2"/><path class="cls-2" d="m141.3,59.9s-1.3-.6-3.1,0c-1.8.6-2.3,1.9-2.3,1.9"/><path class="cls-2" d="m150.7,67c.5,1.7,2,1.8,3.2.9.2,1.5-.1,3.4-.4,3.7"/><path class="cls-2" d="m140.9,80.2s7.7-5.4,20.1-1.8c-1.1,2.3-4.8,7.5-9.4,7.5s-8.8-2.6-10.7-5.7Z"/><polyline class="cls-9" points="144 145.9 162.1 127.1 163.8 151.3 154.5 148.5 158.9 136.3 152.1 148.3"/><polyline class="cls-9" points="155.1 150.5 158.6 151.7 156.4 157.2"/></svg>