<?xml version="1.0" encoding="UTF-8"?><svg id="Layer_5" xmlns="http://www.w3.org/2000/svg" width="300" height="300" viewBox="0 0 300 300"><defs><style>.cls-1{fill:#e1c0a5;}.cls-1,.cls-2,.cls-3,.cls-4,.cls-5,.cls-6,.cls-7,.cls-8{stroke:#000;stroke-linecap:round;stroke-linejoin:round;}.cls-2{fill:#967246;}.cls-3{fill:#626365;}.cls-4{fill:#b3282e;}.cls-5{fill:#ffd204;}.cls-6,.cls-9{fill:#fff;}.cls-7{fill:none;}.cls-10{fill:#3246ff;}.cls-10,.cls-11{stroke:#fff;stroke-miterlimit:10;stroke-width:4.2px;}.cls-11{fill:#4d0099;}.cls-9{stroke-width:0px;}</style></defs><rect class="cls-10" x="41.8" y="183.7" width="70.4" height="76.5"/><rect class="cls-10" x="112.3" y="183.7" width="76.5" height="76.5"/><rect class="cls-11" x="112.3" y="114.3" width="76.5" height="69.4"/><rect class="cls-10" x="188.7" y="183.7" width="69.4" height="76.5"/><rect class="cls-10" x="188.7" y="114.3" width="69.4" height="69.4"/><rect class="cls-10" x="188.7" y="39.8" width="69.4" height="74.5"/><rect class="cls-11" x="112.3" y="39.8" width="76.5" height="74.5"/><rect class="cls-11" x="41.8" y="114.3" width="70.4" height="69.4"/><rect class="cls-11" x="41.8" y="39.8" width="70.4" height="74.5"/><path class="cls-2" d="M278.5,84.4s0,0,0,0c-5.2-1.3-8.8-1.8-14.6-3.3,1.2-1.6,2.2-3.3,3-5.1,4-8.6,4.2-19.1,1-29.6v-.7c-3.5-.2-7.8-.2-12.5.2-1-3.7-2.5-8.3-.8-11.7-1.8,3.5-3.1,7.2-3.2,11.5-6.4.2-14,0-20.7,2-1.3.4-2.5.8-3.7,1.4-2.2,1-4.2,2.3-5.8,4.1,2.7-10.1,5.3-20.5,14.2-26.5,3.2-2.1,8.6-6.3,12.7-6.7,5.2-.5,4.4,4.4,12.2,1.4,8.2-.2,11.7,3.8,13.7,5.6,4.9,4.5,10.8,18.8,12,29.3,1.4,12.8-3.1,17.6-7.4,28.1Z"/><path class="cls-3" d="M281.6,204.7c-.8.8-2.8,1.9-4.9,2.9-2.4,1.1-4.9,2.1-6.2,2.4-4.3,1.1-7.3.8-10.8.1-.5,0-1.1-.2-1.7-.3-1.1-.2-2.2-.5-3.5-.7,0-.7-.7-11.8-1.7-20.3h-.1c-.5,6.4-2.2,12.8-3.5,19.1-.7.2-1.3.5-1.9.7-7.3,2.3-13,2-18,.4-2.3-.7-4.3-1.7-6.3-2.9,1.1-9.4,5.7-42.2,6.4-45.6,2.4,1.4,4.5,1.2,6.6,1.6,1.6,1.5,3.3,2.9,5.2,4.2h0c0,.9.1,1.7.4,2.5.9,2.3,3.4,3.7,5.8,3.5,2.2-.2,4.1-1,5.6-2.6,2.4-1.7,5.5-3.8,8.7-6,7.7,0,8.1-.5,12.6-2.1h.4c1.6,9.6,6.8,43,6.8,43Z"/><path class="cls-5" d="M286.1,125c0,1-.7,1.2-1.9,1.2-2.9,0-8.4-2.1-11.1-1.3-.5,6.4-.9,7.8-1.9,13.1-.3,1.6-.6,3.3-1.4,4.7-1,1.9-1.2,2.1-2.9,3.5-4.6,3.9-8.6,11.3-13,15.4-2.6-.7-4.3-3.9-7-4.1-1.3-.1-2.5.5-3.4,1.5-4-6.4-7.5-13.1-12-19.2.5-3.1,0-8.5-.2-11.6-3.1-.7-6-1.7-8.2-2.8-1.5-.8-2.7-1.7-3.4-2.7,1-2.8,4.5-25.3,7.4-28.7,2.3-2.7,6.8-4.1,16-6.8h.1c-.2,2.1,1,5.6,2.7,7.2,4.7,4.3,16.9,3,19.2-2.6.4-1,.7-2.8.4-4.3h0c1.4.4,11.5,3.6,12.9,4.1,6.2,2.6,8.8,21.4,7.6,33.3Z"/><path class="cls-1" d="M246.4,213.4c1.3,7.4,0,13.8-.7,15.9-3.7,13-5.5,14.9-6.2,28.2,0,.5,0,1.1,0,1.6-.2.7-1.4,2.7-2.5,2.8-1.1.1-1.8-1.7-3.1-1.3-.2,0-.8.3-1.5.7h0s1.9-4.7-2.7-5.5c-.5,0-.9-.2-1.4,0,.6-3.5.7-22.8.4-26.6-.3-5.1-.8-8.4,1-16.7-.2-1-.3-2.3-.3-3.6,4.9,1.6,10.7,1.9,18-.4-.2,1.7-.5,3.3-1,4.8Z"/><path class="cls-7" d="M266.7,260.2c0,0,0,.1,0,.2"/><path class="cls-1" d="M278.5,258.3c-1.4-1.5-4.1-1.3-4.1-1.3-6.9,0-3.3,5.9-3.3,5.9-.4.8-4.1.9-4.3-2.7.6-8.5-.9-15.6-1.9-20.3-1.7-7.7-3.6-9.5-4.2-17.3-.2-3.4,0-6.2-.4-9.5-.1-1.2-.3-2.1-.5-3,3.5.7,6.5.9,10.8-.1,1.3-.3,3.8-1.3,6.2-2.4,0,3-.2,5.8.1,7.7.6,3.3,1.8,5.7,2.2,9.4.9,8.1-2.1,18.4-.6,33.6Z"/><path class="cls-4" d="M287.3,272.1c-.6-.8-3.3-3.9-8.8-2.9-6.3,1.2-7,7.3-7,7.3-2.2-2.5-3.9-5.8-5.3-9.2,0,0,0-.2-.1-.3,0-.4-.1-.7-.2-1.1-1.3-7.2.8-6.7.8-6.7,0,.4,0,.7,0,1,.2,3.6,3.9,3.5,4.3,2.7,0,0-3.6-5.9,3.3-5.9,0,0,2.7-.2,4.1,1.3.7.8,1.1,1.9.8,3.7h0c.7.4,1.3,1.7,2,3,0,.2.2.3.4.5,2.6,2.3,4.5,4.6,5.7,6.6Z"/><path class="cls-4" d="M283.3,280c-5.3,1.3-9-.4-11.8-3.5,0,0,.7-6.1,7-7.3,5.6-1,8.2,2.1,8.8,2.9,0,0,0,0,0,.1,0,0,0,0,0,0,.7,1.1,1.2,2,1.4,2.6.1.3.2.5.2.7,0,1.4-1.2,3.2-5.7,4.4Z"/><path class="cls-7" d="M279.2,262.1c0,.4-.2.8-.3,1.3"/><path class="cls-4" d="M289.7,278.2c-.3,2.4-2,3.2-6.3,4.5-5.5,1.6-9.9-1.5-12.3-4.3-2.6-3.1-3.8-6.1-3.9-6.7,0,0,0-.2,0-.2l-1.3-2.9c0,0,0-.2,0-.3-.1-.4-.3-1.7.3-2.4,0,.3.1.7.2,1.1,0,.1,0,.2.1.3,1.4,3.3,3,6.7,5.3,9.2,2.8,3.1,6.5,4.8,11.8,3.5,4.5-1.1,5.8-3,5.7-4.4,0-.2,0-.4-.2-.7l.4.4c.3.3.4,2.5.4,2.9Z"/><line class="cls-7" x1="266" y1="265.9" x2="265.9" y2="265.9"/><path class="cls-4" d="M241.1,259.7c-.3,2.1-.5,6.6-.5,8.4,0,.1,0,.2,0,.4,0,.3-.3.6-.5.9-1.1.9-3.1,2.1-8,2-.2,0-.4,0-.6,0-2.5.8-5.3,3-9.3,4.3h0c.6-4.4-.9-8.3-4-9.6-2.2-.8-3.9-1-5.3-.7l13.6-5.6c.6-2.6,1.2-3.5,1.9-3.8h0c.4-.2.9-.1,1.4,0,4.5.9,2.7,5.5,2.7,5.5h0c.7-.4,1.3-.6,1.5-.7,1.3-.4,2.1,1.4,3.1,1.3,1-.1,2.3-2.1,2.5-2.8,0-.6,0-1.1,0-1.6.4,0,1.9,0,1.6,2.2Z"/><path class="cls-4" d="M222.2,275.6h0c-2.7.9-6,1.3-10.1.6-.1,0-.3,0-.4,0-2-.8-2.7-2-3-2.5,0-.1,0-.2,0-.3,0,0,0-.2,0-.3,0-1.3.1-6.7,4.3-7.7h0c1.3-.3,3-.2,5.3.7,3.1,1.3,4.6,5.2,4,9.6Z"/><path class="cls-7" d="M239.5,257.5s0,0,0,0"/><path class="cls-7" d="M232.4,261.4c-.7.4-1.7.9-2.7,1.4"/><path class="cls-4" d="M240.6,271.3c-1.5,2.3-8.6,2.3-9.3,2.4-.7.1-3.7,2.1-6,2.9-2.3.9-7.4,1.9-11.9,2-3.3,0-4.8-1.4-5.4-2.2-.2-.3-.3-.6-.3-.9v-.8c0-.5.3-1.1.8-1.4h0c0,.1,0,.2,0,.3.2.5,1,1.7,3,2.5.1,0,.3,0,.4,0,4.1.7,7.4.2,10.1-.6,4-1.3,6.9-3.4,9.3-4.3.2,0,.4,0,.6,0,4.9.2,6.9-1.1,8-2,.3-.2.5-.5.5-.9h0s1.5.5,0,2.8Z"/><path class="cls-7" d="M231.5,128.3s0,0-.1,0"/><path class="cls-7" d="M271.6,110.5c.6,3.6.6,8,1.2,14.5.1,0,.2,0,.3-.1"/><path class="cls-1" d="M284.2,126.2h0c-1.4,10.8-1.1,10.5-4.7,20.4-.8,2.2-2.5,4.6-4.8,6.9-3.5,3.6-8.3,7.1-12.9,10.3-3.2,2.2-6.3,4.3-8.7,6-1.5,1.7-3.4,2.4-5.6,2.6-2.4.2-4.9-1.2-5.8-3.5-.3-.8-.4-1.6-.4-2.5h0c0-.7,0-1.3.2-2,.2-1.6.6-3.3,1.5-4.7.2-.3.4-.5.6-.7.9-1,2.1-1.6,3.4-1.5,2.7.2,4.4,3.4,7,4.1,4.4-4.2,8.3-11.6,13-15.4,1.6-1.4,1.9-1.5,2.9-3.5.8-1.5,1.1-3.1,1.4-4.7,1-5.3,1.4-6.7,1.9-13.1,2.7-.8,8.2,1.2,11.1,1.3Z"/><path class="cls-7" d="M253.1,169.8c-.2.1-.4.3-.6.4"/><path class="cls-1" d="M243.6,159c-.2.2-.4.5-.6.7-.9,1.3-1.3,3-1.5,4.7,0,.7-.2,1.3-.2,2-1.8-1.3-3.6-2.7-5.2-4.2-2.6-2.3-4.8-4.8-6.7-7.3-2.3-3.1-3.9-6.2-4.7-9.2-1.5-6-2.3-7.7-1.5-20.2,2.2,1.2,5,2.1,8.2,2.8.2,3.1.7,8.4.2,11.6,4.5,6,8,12.8,12,19.2Z"/><line class="cls-7" x1="241.3" y1="166.4" x2="241.3" y2="166.4"/><path class="cls-7" d="M273.2,124.9h0"/><path class="cls-5" d="M236.1,162.2c-2.1-.4-4.2-.2-6.6-1.6-.8-.4-.3.6-.3-5.5l.3-.2c1.8,2.5,4.1,4.9,6.7,7.3Z"/><path class="cls-7" d="M231.4,128.3c0-1.1-.2-1.9-.1-2.2.2-4.1,0-8.6,0-15.6"/><path class="cls-7" d="M274.7,161.1c0-.1,0-.2,0-.3"/><path class="cls-7" d="M236.6,162.3c-.1,0-.3,0-.4,0"/><line class="cls-7" x1="258" y1="210.2" x2="258" y2="209.8"/><path class="cls-5" d="M274.8,161.6h-.4c-4.5,1.6-4.9,2.1-12.6,2.1,4.5-3.2,9.4-6.7,12.9-10.3h0c0,7.5-.2,5.8,0,7.4,0,.2,0,.5.1.8Z"/><path class="cls-7" d="M274.7,160.8c0-.1,0-.2,0-.3"/><path class="cls-7" d="M252.9,188.8c-.3-2.6-.6-5-1-6.8"/><path class="cls-7" d="M254.6,209.2h0"/><path class="cls-7" d="M248.4,178.8c1.9,1.8,2.5,2.2,3.5,3.3"/><path class="cls-7" d="M253.4,169.3c-.1.1-.2.3-.4.4"/><path class="cls-7" d="M264.6,28c5.9,4.1,7.9,11.2,8.5,18.1-1.5-.1-3.2-.3-5.2-.4"/><path class="cls-2" d="M243.6,81.3v.2c-5.2,1.5-14.7,2.6-19.5,0,3-4.8,6.1-24.8,3-32.1v-.2c1.1-.6,2.3-1,3.6-1.4.2,3.4,1.2,6.7,2,10.4,0,0-1.1,4.1,0,8.9,1,4.5,2.3,7.1,5.8,10,1.9,1.6,3.5,3.1,5.2,4.3Z"/><path class="cls-1" d="M267.9,46.4v-.7c-3.5-.2-7.8-.2-12.5.2-1-3.7-2.5-8.3-.8-11.7-1.8,3.5-3.1,7.2-3.2,11.5-6.4.2-14,0-20.7,2,.2,3.4,1.2,6.7,2,10.4,0,0-1.1,4.1,0,8.9,1,4.5,2.3,7.1,5.8,10,1.9,1.6,3.5,3.1,5.2,4.3.8.6,1.6,1,2.4,1.5,4.3,2.2,8.9,2,16.6-3.4,1.3-.9,2.8-2,4.3-3.3h0c4-8.6,4.2-19.1,1-29.6ZM238.5,59.1c-.7,0-1.2-1.1-1.2-2.5s.5-2.5,1.2-2.5,1.2,1.1,1.2,2.5-.6,2.5-1.2,2.5ZM254.6,74.8c-1.8,1.1-5.3,1.5-7.1,1.2-2.9-.4-4.2-1.6-5.5-3.9h0c5.1,1.7,16.1-.9,17.1-1.9-2.1,3-2.8,3.4-4.5,4.5ZM259,59.7c-.8,0-1.5-1.3-1.5-2.8s.7-2.8,1.5-2.8,1.5,1.3,1.5,2.8-.7,2.8-1.5,2.8Z"/><path class="cls-6" d="M259.1,70.3c-2.1,3-2.8,3.4-4.5,4.5-1.8,1.1-5.3,1.5-7.1,1.2-2.9-.4-4.2-1.6-5.5-3.9h0c5.1,1.7,16.1-.9,17.1-1.9Z"/><path class="cls-7" d="M236.5,51.2c.9-2.1,2.7-1.9,3.6-.7"/><path class="cls-7" d="M257.8,50.7c1.7-1.7,4-.9,4.4.5"/><path class="cls-7" d="M262.6,79.3v-.2"/><path class="cls-7" d="M263.1,86.1c0-.4,0-.8-.1-1.2"/><line class="cls-7" x1="278.6" y1="84.4" x2="278.6" y2="84.4"/><path class="cls-2" d="M278.5,84.4c-.9,0-11.2-.7-15.8-2.1,0-.9-.1-1.9-.1-3,1.3-.9,2.8-2,4.3-3.3h0c-.8,1.8-1.8,3.5-3,5.1,5.7,1.5,9.4,2,14.6,3.3Z"/><path class="cls-7" d="M262.7,82.3s0,0-.1,0"/><path class="cls-8" d="M239.8,56.6c0,1.4-.6,2.5-1.2,2.5s-1.2-1.1-1.2-2.5.5-2.5,1.2-2.5,1.2,1.1,1.2,2.5Z"/><path class="cls-8" d="M260.6,56.8c0,1.6-.7,2.8-1.5,2.8s-1.5-1.3-1.5-2.8.7-2.8,1.5-2.8,1.5,1.3,1.5,2.8Z"/><path class="cls-7" d="M245.8,62.8c0,1.1-.8,1.4-1.9,1.2,0,.9.4,3.5,1.8,3.9"/><path class="cls-7" d="M242,72.1c-.1,0-.3,0-.4-.2"/><path class="cls-1" d="M262.7,84.9c0,.8.2,1.7.3,2.6.2,3-3.9,4.9-8,5.2-4.7.4-8.4-1.4-9.3-6.5h-.1s0-.4,0-.4l.5-3.1c4.3,2.2,8.9,2,16.6-3.4,0,1.1,0,2.1.1,3,0,.9.2,1.8.3,2.6,0,0-.2,0-.3,0Z"/><line class="cls-7" x1="245.5" y1="86.2" x2="245.4" y2="86.6"/><line class="cls-7" x1="246" y1="82.6" x2="246" y2="82.7"/><path class="cls-7" d="M262.7,84.9c-.1-1.3-.2-2.7-.2-4.9"/><path class="cls-7" d="M245.8,86c0,0-.2,0-.2-.1"/><path class="cls-5" d="M265.2,91.8c-2.3,5.6-14.4,6.9-19.2,2.6-1.7-1.6-2.9-5-2.7-7.2,0-1.4.8-2.2,2.2-1.4v.4c0,0,0,0,0,0,1,5.1,4.6,6.8,9.3,6.5,4.1-.3,8.3-2.2,8-5.2,0-1-.2-1.8-.3-2.6,0,0,.2,0,.3,0,1.6,0,2.4,1.2,2.7,2.6.3,1.5,0,3.3-.4,4.3Z"/><polyline class="cls-9" points="239.1 129.6 262 113.1 261.6 134.2 251.1 131.8 257.4 121.1 248.3 131.6"/><polyline class="cls-9" points="251.5 133.6 255.5 134.6 252.4 139.4"/></svg>