<?xml version="1.0" encoding="UTF-8"?><svg id="Layer_5" xmlns="http://www.w3.org/2000/svg" width="300" height="300" viewBox="0 0 300 300"><defs><style>.cls-1{fill:#e1c0a5;}.cls-1,.cls-2,.cls-3,.cls-4,.cls-5,.cls-6,.cls-7,.cls-8{stroke:#000;stroke-linecap:round;stroke-linejoin:round;}.cls-2{fill:#967246;}.cls-3{fill:#626365;}.cls-4{fill:#b3282e;}.cls-5{fill:#ffd204;}.cls-6{fill:#fff;}.cls-7{fill:none;}.cls-9{fill:#3246ff;}.cls-9,.cls-10{stroke:#fff;stroke-miterlimit:10;stroke-width:4.2px;}.cls-10{fill:#4d0099;}</style></defs><rect class="cls-9" x="41.8" y="183.7" width="70.4" height="76.5"/><rect class="cls-9" x="112.3" y="183.7" width="76.5" height="76.5"/><rect class="cls-9" x="112.3" y="114.3" width="76.5" height="69.4"/><rect class="cls-9" x="188.7" y="183.7" width="69.4" height="76.5"/><rect class="cls-9" x="188.7" y="114.3" width="69.4" height="69.4"/><rect class="cls-9" x="188.7" y="39.8" width="69.4" height="74.5"/><rect class="cls-9" x="112.3" y="39.8" width="76.5" height="74.5"/><rect class="cls-9" x="41.8" y="114.3" width="70.4" height="69.4"/><rect class="cls-10" x="41.8" y="39.8" width="70.4" height="74.5"/><path class="cls-1" d="M237.9,231.5c-6.3,3.8-11.8,10.7-14.1,17.9h0c-3.1-6.2-3.1-6.1-4.3-9.8h-.2c-.5,13.6-7.4,15.4-9,26.9h0c0,0-.2,0-.4,0-2.7.2-5.3.3-8,.5-1.2,0-2.3.1-3.4-.1-1.1-.2-2.2-.9-2.8-1.9,0,0,0-.2-.1-.3,4.5-15.4,8.2-42.3,12.7-48.9h0c1.7,2.4,6.6,3.8,9.7,4.3.4,0,4.8-1,9.8-2.2,3.6,4.5,6.9,8.9,10,13.5Z"/><path class="cls-1" d="M244.3,213.9c-.6.1-9.2,2.3-16.4,4.1-5,1.3-9.4,2.3-9.8,2.2-3.2-.5-8-2-9.7-4.4-.3-.5-.5-1-.6-1.5,0,0-1.4-6.7,4.3-10.5,1.2-.8,3.2-1.5,4.5-1.9,1-.3,2.1-.3,3,.1h0c.4.2.7.4.9.6l.2.5c5-1.8,10.7-3.8,16.2-6,.8-.3,1.6-.6,2.3-1-1.6,5.8.5,15.7,5.1,17.6Z"/><path class="cls-1" d="M236.7,196.9v.4c-5.3,2.2-11,4.2-16,6l-.2-.5c-.3-.3-.6-.5-.9-.6,6.1-3,12.1-6.4,17.9-10-.6,1.5-.8,3.2-.8,4.8Z"/><path class="cls-2" d="M289.1,172.9h0c-5.6-1.4-9.5-1.9-15.7-3.5,1.2-1.7,2.3-3.5,3.2-5.5,4.3-9.2,4.6-20.4,1-31.7v-.7c-3.8-.2-8.4-.2-13.4.2-1.1-4-2.6-8.9-.9-12.5-2,3.8-3.3,7.7-3.4,12.3-6.8.2-15,0-22.1,2.2-1.4.4-2.7.9-4,1.5-2.3,1.1-4.4,2.5-6.2,4.4,2.8-10.8,5.7-22,15.2-28.3,3.5-2.3,9.2-6.8,13.6-7.2,5.5-.5,4.6,4.7,13.1,1.5,8.8-.2,12.5,4.1,14.6,6,5.2,4.8,11.6,20.1,12.8,31.3,1.5,13.7-3.3,18.8-7.9,30.1Z"/><path class="cls-5" d="M281.9,212.5c-2.2,12.1-1,16.2-2.4,30.5-.6,6.1-1.9,16.7-3.5,22.6-.6,2.4-1.7,4.7-3,6.8-7.6-5.9-14.8-12.5-21.4-19.6h0c-3.3-5.5-6.6-10.8-10-16,2-7.3,1.7-8.5,4.7-22.5v-.3c-.7,0-1.3,0-1.9-.3h0c-4.7-1.9-6.7-11.8-5.1-17.6,3.6-1.5,7.1-3.1,10.2-4.9.9-4,3.2-8.3,5-11.3.6-1,1.2-1.8,1.6-2.4.1.5.4,1.1,1,1.8,1.8.8,3.9.5,5.7-.3,1.8-.8,3.4-2.1,5-3.2,1.6-1.1,4.9-2.1,6.9-2.3,0-.6,0-1.1,0-1.6h0c12.4,7.4,9.6,28.2,7.4,40.3Z"/><path class="cls-1" d="M220.7,203.2c-3.3,1.2-6.3,2.3-8.9,3.4"/><path class="cls-7" d="M249.4,191.4c1.6-.9,3.2-1.9,4.6-2.9,7.9-5.5,8.7-7.2,17.1-6.2"/><path class="cls-7" d="M241.5,236.9c0,.1,0,.2-.1.4"/><path class="cls-3" d="M273,272.5c-2,3.1-4.7,5.6-8.2,7-4.4,1.7-13.5,1.7-17.8,0-4.4-1.8-8.8-5.8-11.4-9.7-6.1-9-8.3-10.4-12.4-18.3h0c.2-.7.3-1.3.5-1.9,2.3-7.2,7.8-14.1,14.1-17.9,1.2,1.8,2.4,3.6,3.6,5.4,3.4,5.2,6.6,10.5,10,16.1h0c6.6,7,13.8,13.6,21.4,19.5Z"/><path class="cls-7" d="M223.2,251.3c0-.2-.2-.4-.3-.6"/><path class="cls-7" d="M219.5,239.6c-.4-1.3-1-3-2-5.7"/><path class="cls-7" d="M251.6,253.1s0,0,0-.1"/><path class="cls-7" d="M244.4,213.9s0,0,0,0"/><path class="cls-1" d="M220.6,202.7c-.2,0-.4,0-.6,0"/><path class="cls-7" d="M257.3,172.2h0"/><line class="cls-7" x1="272.7" y1="166.8" x2="272.7" y2="167"/><path class="cls-5" d="M274.6,173.8c-2,.2-5.3,1.2-6.9,2.3-1.6,1.1-3.2,2.4-5,3.2-1.8.8-3.9,1.1-5.7.3-.6-.8-.9-1.4-1-1.8-.2-1,.4-1.5,1.4-1.8,1.7-.5,4.3-.4,5.3-.8,1.5-.7,6.9-4.2,8.4-5,.5-.3,1-.5,1.6-.5.7,0,1.3.3,1.6,1.5,0,.3.2.7.2,1.2,0,.5,0,1,0,1.6Z"/><path class="cls-7" d="M246.2,214.2c.5,0,1-.1,1.5-.3,9.1-3.3,13-5.6,21-11"/><path class="cls-5" d="M254.4,180.1c-1.8,2.9-4.1,7.3-5,11.3-3.1,1.8-6.6,3.4-10.2,4.9-.8.3-1.5.6-2.3,1v-.4c-.2-1.6,0-3.3.6-4.8,5.8-3.7,11.5-7.7,16.8-12h0Z"/><path class="cls-1" d="M219.6,202.1s0,0-.1,0"/><path class="cls-7" d="M273.2,272.7c0,0-.2-.1-.2-.2"/><path class="cls-7" d="M237.5,191.9s0,0,0,.1"/><path class="cls-7" d="M195.7,264.8c0,.1,0,.2,0,.3"/><path class="cls-4" d="M186,279v.4c-1.6.3-3.2.5-4.5.6-4,.4-8,.1-11.2-2.3,0,0,0-.1,0-.2.3-4.8,2.2-7.6,4.4-8.3,2.6-.8,4.4-1.4,7.1-1.7,1.2-.1,3,.4,3.8,3h0c.6,1.7.8,4.4.3,8.4Z"/><path class="cls-4" d="M212,280c-1.1.8-3.9,1.9-5.2,1.9-3.4.2-6.5-.4-9.9-.7-3.8-.3-9.6,1.1-13.4,1.4-3.8.3-7.9,1.2-11.4-.3-.9-.4-2.9-1.1-3.2-2.1-.3-1,.2-3.1,1.1-2.7h.3c0,0,0,.2,0,.2,3.2,2.4,7.2,2.7,11.2,2.3,1.2-.1,2.8-.4,4.5-.6,3.8-.6,8.2-1.3,11-1.1,2.5.2,5.4.2,7.9.5,2.5.2,5.1-.6,7.1-2,.3,1.3,1.1,2.5,0,3.3Z"/><path class="cls-4" d="M195.8,265.1c-2.5,2.3-7.3,4.1-10.1,5.4h0c-.9-2.7-2.7-3.1-3.8-3,1.2-.2,3.8-1,4.9-1.6,1.1-.6,4.6-1.8,4.8-3,.2-.7,1.8-2.1,2.5-1.7.6.4,1,1.1,1.2,1.8.2.6.3,1.2.5,1.8,0,0,0,.2.1.3Z"/><path class="cls-4" d="M212.3,270c.2,2.6.2,4.1-.3,6.6-2.1,1.5-4.6,2.3-7.1,2-2.5-.2-5.3-.3-7.9-.5-2.8-.2-7.2.5-11,1.1v-.4c.5-4,.2-6.7-.3-8.4,2.8-1.4,7.6-3.1,10.1-5.4.5,1,1.6,1.6,2.8,1.9,1.1.3,2.3.2,3.4.1,2.7-.2,5.3-.3,8-.5.1,0,.3,0,.4,0,.6,0,.2-.2,1.1.3,1,.6,1.6,2.2.8,3.1Z"/><path class="cls-7" d="M274.1,112.6c6.3,4.4,8.4,12,9.1,19.3-1.6-.1-3.5-.3-5.6-.4"/><path class="cls-2" d="M251.8,169.6v.2c-5.5,1.6-15.7,2.8-20.9,0,3.3-5.1,6.5-26.6,3.2-34.3v-.3c1.2-.6,2.5-1.1,3.9-1.5.2,3.6,1.2,7.2,2.1,11.1,0,0-1.1,4.4,0,9.5,1,4.8,2.5,7.6,6.2,10.7,2,1.7,3.8,3.3,5.6,4.6Z"/><path class="cls-1" d="M277.7,132.3v-.7c-3.8-.2-8.4-.2-13.4.2-1.1-4-2.6-8.9-.9-12.5-2,3.8-3.3,7.7-3.4,12.3-6.8.2-15,0-22.1,2.2.2,3.6,1.2,7.2,2.1,11.1,0,0-1.1,4.4,0,9.5,1,4.8,2.5,7.6,6.2,10.7,2,1.7,3.8,3.3,5.6,4.6,1.8,1.3,3.6,2.2,5.6,2.7,4,.9,8.6-.3,15.4-5.3,1.2-.9,2.5-1.9,3.9-3,4.3-9.2,4.6-20.4,1-31.7ZM246.3,145.8c-.7,0-1.3-1.2-1.3-2.6s.6-2.6,1.3-2.6,1.3,1.2,1.3,2.6-.6,2.6-1.3,2.6ZM263.5,162.6c-1.9,1.2-5.7,1.6-7.6,1.3-3.1-.4-4.5-1.7-5.9-4.2h0c5.4,1.8,17.2-1,18.3-2-2.2,3.2-3,3.6-4.8,4.8ZM268.2,146.5c-.9,0-1.6-1.4-1.6-3s.7-3,1.6-3,1.6,1.3,1.6,3-.7,3-1.6,3Z"/><path class="cls-1" d="M272.7,167v2.5c-.6,0-1.2.3-1.6.5-1.5.8-6.8,4.3-8.4,5-1,.5-3.6.3-5.3.8,0-4.1,0,.3,0-3.6,4,.9,8.6-.3,15.4-5.3Z"/><path class="cls-6" d="M268.3,157.8c-2.2,3.2-3,3.6-4.8,4.8-1.9,1.2-5.7,1.6-7.6,1.3-3.1-.4-4.5-1.7-5.9-4.2h0c5.4,1.8,17.2-1,18.3-2Z"/><path class="cls-7" d="M244.1,137.3c1-2.2,2.9-2,3.8-.8"/><path class="cls-7" d="M266.9,136.8c1.8-1.8,4.3-.9,4.7.5"/><line class="cls-7" x1="289.1" y1="172.9" x2="289.1" y2="172.9"/><path class="cls-2" d="M289.1,172.9c-.5,0-9.8-.4-14.7-1.9h0c-.4-1.1-1-1.5-1.6-1.5v-2.5c1.3-.9,2.6-1.9,4-3-.9,1.9-1.9,3.7-3.2,5.5,6.2,1.6,10,2.1,15.7,3.5Z"/><path class="cls-8" d="M247.6,143.1c0,1.5-.6,2.6-1.3,2.6s-1.3-1.2-1.3-2.6.6-2.6,1.3-2.6,1.3,1.2,1.3,2.6Z"/><path class="cls-8" d="M269.9,143.4c0,1.7-.7,3-1.6,3s-1.6-1.4-1.6-3,.7-3,1.6-3,1.6,1.3,1.6,3Z"/><path class="cls-7" d="M254,149.8c0,1.2-.9,1.5-2,1.3,0,.9.5,3.7,1.9,4.2"/><path class="cls-7" d="M250,159.7c-.1,0-.3-.1-.4-.2"/><path class="cls-7" d="M237.9,231.5s0,0,0,0"/></svg>