<?xml version="1.0" encoding="UTF-8"?><svg id="Layer_5" xmlns="http://www.w3.org/2000/svg" width="300" height="300" viewBox="0 0 300 300"><defs><style>.cls-1,.cls-2{stroke-linejoin:round;}.cls-1,.cls-2,.cls-3{stroke-linecap:round;}.cls-1,.cls-2,.cls-3,.cls-4,.cls-5{fill:none;}.cls-1,.cls-2,.cls-3,.cls-5{stroke:#000;}.cls-2,.cls-4{stroke-width:.8px;}.cls-3,.cls-4,.cls-5{stroke-miterlimit:10;}.cls-4{stroke:#fff;}.cls-6,.cls-7,.cls-8,.cls-9,.cls-10,.cls-11,.cls-12,.cls-13,.cls-14,.cls-15,.cls-16,.cls-17{stroke-width:0px;}.cls-7{fill:#4d0099;}.cls-8{fill:#274a85;}.cls-9{fill:#6db3c8;}.cls-10{fill:#2e1f20;}.cls-11{fill:#3879d2;}.cls-12{fill:#1f4172;}.cls-13{fill:#b68060;}.cls-14{fill:#3246ff;}.cls-15{fill:#fff;}.cls-16{fill:#ebae52;}.cls-17{fill:#e99454;}</style></defs><path class="cls-12" d="m108.8,176.6c-1,.3-2.1.7-3.1,1v.2c2.5,13.9,5.6,16.4,8.8,16.8,3.7.4,6.6-1.9,9.7-7.9-1.2,0-2.5-.4-3.4-1.2-.9.7-2,1.2-3.1,1.2-1.1,0-2.2-.7-2.6-1.7-1,.8-2.2,1.4-3.3.9-1.5-.6-1.8-2.7-1.8-4.5,0-1.7.2-3.7-1.1-4.8Z"/><path class="cls-8" d="m106.2,171.1c-.2.6-.3,1-.4,1.2.8-.6,1.7-1.1,2.6-1.5,2.3-1,5.1-1,7.2.4,1.2.8,2.8.6,4.1,1.2,1,.4,1.8,1.2,2.4,2.2.6.9,1,1.9,1.4,2.9,0,0,.2.1.2.2.5.6.5,1.4.4,2.1,0,.8-.3,1.5-.7,2.3,0,0,0,0,0,0h0s0,0,0,0c.4.4,1.1.2,1.5-.2s.6-.9.9-1.5c0-.5,0-1.2,0-2.1h-.1c-.2-3.3-3.9-7.5-6.6-8.8-2.9-1.3-10.7-2.3-12.8,1.6h-.2c0,0,0,0,0,0Z"/><path class="cls-11" d="m127.4,155.3h.2c.4,5,.2,14.3-.3,23.9h0c.5,0,1,.2,1.4.6.4.5.6,1.1.6,1.7,0,1.7-.8,3.3-2.1,4.2-.1,0-.2.2-.4.2,0,4-10.3,56.6-13.4,85.9,2.8,2.5,5.4,3.6,8.2,6.3,3.6-3.2,6.8-6.9,9.5-11,3.3,4,6.8,8.8,11,11.7,1.8-3.2,4.6-7.3,7.5-9.5,2.7,4.2,6.1,7.9,10.2,10.9,3-3.9,5.9-7.8,8.9-11.6,3.1,3.3,6.8,6.1,10.8,8.4,1.7-3.3,4.8-6.6,6.5-9.9,2.7,3.3,4.6,4.9,7.2,7.9-1.2-11.4-3.8-26.8-6.6-42-3.9,1.3-12.1,2.4-12.1,1.7,0-2.6,4.1-11.6,5.4-14.4,2.5,2.1,3.9,3.6,5.6,7-1.8-9.3-3.6-18.3-5.1-26h-.2c-3.1,1.2-4.4,1.1-4.6.8-.9-2,.8-8.6,2.1-13.4h.2c-.9-4.5-1.5-7.8-1.6-9.1h0c-.4-2.5-1-6.5-1.6-10.8-3.4,1-8.6,1.6-8.7.9-.6-2.9,2.1-13.7,2.9-17,2.2,2.2,3,4.1,4.5,7.4h0c.1.8.2,1.6.4,2.5h.3c1.5.3.7.2,2.8,0,.2-2.3,1.2-4.5,3.1-6.6.3-.3.6-.6.9-.9.6-.6,1.4-1,2.2-1.3-1.2-3.1-2.4-8-3.7-13.2h0c-2,.7-2.2.5-2.4.1-.8-2-.6-7.5-.3-11.8-1.8-7.1-3.5-12.9-5.1-13.4,0,0-3,7.6-9.2,12.1,1.7,1.7,2.5,3.4,4.5,6.9-3.3,3.8-12.7,4.1-12.9,3.2-.3-1.4.2-3.7.9-6.7-9.5,2.7-17.8.2-21.4-5.1-6.3-9.5-10.7-10.3-17.7-10.4-1,.7-2.2,7.3-3.6,15.7,1.4-3.2,3.5-6.7,4.8-8.4,1.4,3.8,3.4,7.9,4,14.3-6.4,0-9.3-.6-9.6-1.3-2,14-4.1,30.7-5.2,35.4h.2c2-3.8,9.9-2.8,12.8-1.5,2.7,1.3,6.4,5.5,6.6,8.8h.1c.2-4.6.8-14.5,1.5-23Zm-1.1,8.9c-2.4-.5-10.4-1.3-10.2-2,.5-2.3,5.7-9.3,7.2-11.4,1.4,3.8,2.3,7.2,3,13.5Zm8.2,86.5c-2.8,3.6-16.1-.3-16-2,.1-2.6,7.2-11.4,8.8-14,2,3.9,5.7,9.2,7.2,16Zm8.6-41.2c-2.8,3.6-16.1-.3-16-2,.1-2.6,7.2-11.4,8.8-14,2,3.9,5.7,9.2,7.2,16Zm-9.3-52.2c0-2.6,4.5-11.4,5.9-14.2,2.3,3.8,5.3,7.7,7.4,14.5-2.3,1.7-13.3.5-13.3-.3Zm12.5,71.1c0-2.6,4.4-11.5,5.7-14.3,2.4,3.7,5.5,7.6,7.7,14.3-4.3,1.8-13.4.8-13.4,0Zm3.7-41.5c-.3-2.6,2.7-12,3.6-14.9,2.9,3.3,6.4,6.8,9.5,13-5.1.1-13,2.7-13.1,1.9Zm18.6,75c0-2.6,4.1-11.6,5.4-14.4,2.5,3.7,6.2,6,8.6,12.6-2.3,2.7-13.9,4.5-13.9,1.8Z"/><path class="cls-17" d="m112.1,131.1c-.2,1.5-.5,3.1-.7,4.7.2.7,3.1,1.3,9.6,1.3-.6-6.4-2.6-10.5-4-14.3-1.3,1.7-3.4,5.2-4.8,8.4Z"/><path class="cls-8" d="m112.5,282.7c-.2,4.8.1,7.9,1.1,8.6,5,3.3,22.4,6.4,41.5,7,12.9.4,31-4,38.4-7.7.4-2,.5-5.1.2-9.1-23.1,12.1-54,7-81.2,1.2Z"/><path class="cls-8" d="m115.7,115.3c7,0,11.4.9,17.7,10.4,3.5,5.3,11.8,7.8,21.4,5.1,1.2-.3,2.4-.7,3.6-1.2,1.4-.6,2.7-1.3,3.9-2.2,6.1-4.5,9.2-12.1,9.2-12.1-1.5-7.7-4-10.1-5.7-24.6h-.1c-.8,8.6-5.3,13.7-9,14.7-25.5,6.2-29.5-23.8-29.1-30.9,0-.1,0-.3,0-.4,0-.4,0-.9.2-1.3,1.6-11.3,9.6-15.7,13.4-16.5,7.9-1.7,13.9,1.4,17.7,6.3h0c2,2.6,3.4,5.8,4.1,9,.3,4.6,1.2,5.4,1.9,8.1-.4-14.2-5.6-26.8-14.3-29.8-10.5-3.6-35,2.1-37.4,18.8-2.3,15.8,5.5,31,1.4,46.7.4,0,.8,0,1.1,0Z"/><path class="cls-16" d="m113.3,271.9c-.4,4.1-.7,7.8-.8,10.8,27.2,5.9,58.1,10.9,81.2-1.2-.1-2-.3-4.1-.5-6.5h0c-2.6-3-4.4-4.6-7.2-7.9-1.7,3.3-4.8,6.6-6.5,9.9-4-2.2-7.6-5.1-10.8-8.4-3,3.9-5.9,7.8-8.9,11.6-4.1-3-7.6-6.7-10.2-10.9-3,2.2-5.8,6.3-7.5,9.5-4.3-3-7.8-7.8-11-11.7-2.6,4-5.8,7.7-9.5,11-2.8-2.6-5.4-3.8-8.2-6.3Z"/><path class="cls-16" d="m116.1,162.2c-.2.7,7.8,1.5,10.2,2-.7-6.3-1.6-9.7-3-13.5-1.6,2.2-6.8,9.1-7.2,11.4Z"/><path class="cls-9" d="m118.5,248.7c0,1.7,13.2,5.6,16,2-1.6-6.9-5.2-12.1-7.2-16-1.6,2.6-8.6,11.4-8.8,14Z"/><path class="cls-13" d="m128.7,179.8c-.4-.4-.9-.7-1.4-.6,0,0-.2,0-.2,0-.5.2-.9.7-1.1,1.2-.3.5-.5,1.1-.9,1.5s-1.1.6-1.5.2h0s0,0,0,0c.3-.7.6-1.5.7-2.3,0-.7,0-1.6-.4-2.1,0,0-.2-.2-.2-.2-.4-1-.8-2-1.4-2.9-.6-.9-1.4-1.7-2.4-2.2-1.3-.6-2.9-.4-4.1-1.2-2.1-1.5-4.9-1.4-7.2-.4-.9.4-1.8.9-2.6,1.5-1.2.9-2.3,2-3.3,3.2-.3.4-.7.8-.8,1.3-.2.5,0,1.1.3,1.4.5.4,1.2.2,1.8,0,.6-.2,1.3-.4,1.9-.6,1-.3,2.1-.7,3.1-1,1.3,1.1,1.2,3.1,1.1,4.8,0,1.7.2,3.8,1.8,4.5,1.1.5,2.3,0,3.3-.9.4,1.1,1.5,1.7,2.6,1.7,1.1,0,2.2-.5,3.1-1.2,1,.8,2.2,1.2,3.4,1.2.9,0,1.8-.2,2.6-.7.1,0,.2-.2.4-.2,1.3-.9,2.2-2.6,2.1-4.2,0-.6-.2-1.3-.6-1.7Z"/><path class="cls-9" d="m127.1,207.5c0,1.7,13.2,5.6,16,2-1.6-6.9-5.2-12.1-7.2-16-1.6,2.6-8.6,11.4-8.8,14Z"/><path class="cls-13" d="m127.5,74.5c-.4,7.1,3.6,37.1,29.1,30.9,3.7-1,8.2-6.1,9-14.7,0-1.1.1-2.3,0-3.6-.1-3.9-.5-6-.9-7.5-.7-2.7-1.7-3.5-1.9-8.1-.7-3.2-2.1-6.4-4.1-9h0c-4.7-4.3-25.7-.5-31.1,10.3,0,.4-.1.9-.2,1.3,0,.1,0,.3,0,.4Zm10.3.2c-1.8.3-5,2.3-4.9,1.7.2-.8,1.2-2.1,3.1-3.2,1.5-.9,6.8-2.7,6.7-.2,0,.5,0,.7-.4.9-.6.3-2.6.5-4.5.8Zm1.3,8.2c-.7-1.9-.7-3.7.1-4,.8-.3,2,.9,2.8,2.8.7,1.9.7,3.7-.1,4-.8.3-2-1-2.8-2.9Zm7.5,10.6c-.6-.7,10.4-2,13.3-2.8,0,0,.7,4.8-4.1,5.9-6.1,1.3-8.1-1.8-9.2-3.1Zm5.5-23.1c0-.5.5-1.2,1.3-1.6,2-1,4.6-.8,6.3-.2.2,0,.5.2.6.3s.2.4,0,.5-2.9.1-3.2.2c-2.5.5-3.5,1.1-3.8,1.2-1.2.4-1.2,0-1.2-.5Zm5.1,7.6c-.7-1.7-.6-3.3,0-3.6s1.8.9,2.4,2.6c.7,1.7.6,3.4,0,3.6-.7.3-1.7-.9-2.4-2.6Z"/><path class="cls-11" d="m141.1,56.2c-3.8.8-11.8,5.3-13.4,16.5,5.3-10.8,26.4-14.5,31.1-10.3-3.8-4.9-9.7-7.9-17.7-6.3Z"/><path class="cls-10" d="m132.9,76.4c-.1.6,3.1-1.4,4.9-1.7,1.9-.3,3.9-.4,4.5-.8.3-.2.4-.3.4-.9.1-2.5-5.2-.7-6.7.2-1.9,1.1-2.9,2.3-3.1,3.2Z"/><path class="cls-16" d="m139.7,143.1c-1.4,2.7-5.8,11.6-5.9,14.2,0,.8,11,2,13.3.3-2.1-6.7-5.1-10.7-7.4-14.5Z"/><path class="cls-6" d="m139.2,78.8c-.8.3-.9,2.1-.1,4,.7,1.9,2,3.2,2.8,2.9.8-.3.9-2.1.1-4-.7-1.9-2-3.2-2.8-2.8Z"/><path class="cls-15" d="m159.8,90.6c-3,.8-13.9,2.1-13.3,2.8,1.1,1.3,3.1,4.4,9.2,3.1,4.8-1,4.1-5.9,4.1-5.9Z"/><path class="cls-16" d="m152,214.1c-1.3,2.8-5.7,11.7-5.7,14.3,0,.8,9.2,1.9,13.4,0-2.2-6.7-5.3-10.6-7.7-14.3Z"/><path class="cls-17" d="m153.7,172c-.9,2.9-4,12.3-3.6,14.9,0,.8,8-1.7,13.1-1.9-3.1-6.3-6.6-9.7-9.5-13Z"/><path class="cls-10" d="m153.3,68.8c-.8.4-1.4,1-1.3,1.6s0,.8,1.2.5c.3,0,1.3-.7,3.8-1.2.3,0,3,0,3.2-.2s.2-.4,0-.5-.4-.3-.6-.3c-1.7-.6-4.3-.8-6.3.2Z"/><path class="cls-9" d="m154.7,130.8c-.7,3-1.2,5.3-.9,6.7.2.9,9.6.6,12.9-3.2-2-3.4-2.8-5.2-4.5-6.9-1.2.9-2.5,1.6-3.9,2.2-1.2.5-2.4.9-3.6,1.2Z"/><path class="cls-6" d="m157.1,74.3c-.7.3-.7,1.9,0,3.6s1.7,2.9,2.4,2.6c.7-.3.7-1.9,0-3.6-.7-1.7-1.7-2.9-2.4-2.6Z"/><path class="cls-16" d="m173.6,162.5c-.1-.9-.2-1.7-.4-2.5h0c-1.5-3.2-2.4-5.1-4.5-7.3-.8,3.4-3.5,14.2-2.9,17,.1.6,5.3,0,8.7-.9-.3-2.1-.6-4.3-.9-6.3Z"/><path class="cls-17" d="m174,247.5c-1.3,2.8-5.4,11.8-5.4,14.4s11.6.9,13.9-1.8c-2.4-6.6-6-8.9-8.6-12.6Z"/><path class="cls-9" d="m175.2,168.5c1.7,2.5,7.6,8,9.8,8.8-.6-.4-1.2-.9-1.7-1.3-.2-.2-.4-.3-.7-.6,0,0-.1-.1-.2-.2-1.9-1.8-3.2-3.6-3.7-4.6-1.1-2.4-2.3-4.9-2-8.2-2.1.3-1.3.4-2.8,0h0s-.3,0-.3,0c.3,2,.6,4.2.9,6.3,0,0,.2,0,.3,0h.4c0-.1,0-.1,0-.1Z"/><path class="cls-9" d="m179.8,220.3c-1.3,2.8-5.4,11.8-5.4,14.4,0,.7,8.1-.3,12.1-1.7-.4-1.9-.7-3.9-1.1-5.8-1.7-3.4-3.2-4.9-5.6-7Z"/><path class="cls-17" d="m177.6,188.6c-1.3,4.8-3,11.4-2.1,13.4.2.4,1.4.4,4.6-.7h.2c-1-4.9-1.8-9.2-2.5-12.7h-.2Z"/><path class="cls-17" d="m176.5,128.7c-.3,4.3-.6,9.9.3,11.8.2.4.4.5,2.4-.1h0c-.9-3.9-1.8-8-2.8-11.7Z"/><path class="cls-11" d="m176.7,162.4c-.3,3.3.9,5.8,2,8.2.5,1,1.9,2.9,3.7,4.6-1.4-1.4-3-3.7-2.9-3.9,0-.2,3.4-2.2,3.5-2.4,0,0,0,0,0,0,0-.5-3-3-3.9-4.3,1.9-1.2,3.2-2.5,4.5-3h0c-.8-1.7-1.5-3.4-2.3-5,0,0,.1,0,.2,0l-1.8-.7h0c-1.9,2.1-2.9,4.3-3.1,6.6Z"/><path class="cls-16" d="m183.3,176c.5.5,1.1.9,1.7,1.3,0,0,0,0,0,0-1.1-2.7-1.7-5.5-1.7-8.5h-.4s0,0,0,0c-.1.3-3.4,2.2-3.5,2.4,0,.2,1.6,2.5,2.9,3.9,0,0,.1.1.2.2.2.2.4.4.7.6Z"/><path class="cls-11" d="m179.8,155.8h0l1.8.7h0c1-.3,4.7-.3,4.9-.4h0s.3-2.4,0-3.2c-1.2,0-2.5.2-3.6.6-.9.3-1.6.8-2.2,1.3s-.6.6-.9.9Z"/><path class="cls-16" d="m183.6,161.7c-1.3.5-2.6,1.8-4.5,3,.9,1.3,3.9,3.8,3.9,4.3h.4c0-.5,0-.9,0-1.4,0-1.7.4-4,.7-5.8h-.5c0,0,0,0,0,0Z"/><path class="cls-16" d="m181.4,156.6c.8,1.7,1.5,3.4,2.3,5h.5c0-.3.1-.6.2-.9.3-1.1,1-2.9,2.2-4.4h-.1c0-.1,0-.1,0-.1-.2,0-3.8,0-4.9.4h0c0,0-.1,0-.2,0Z"/><path class="cls-11" d="m183.3,176c-.2-.2-.4-.4-.7-.6.2.2.5.4.7.6Z"/><path class="cls-8" d="m191.9,154.5h0c-.1-.5-.2-.1-.6-.6-.3-.1-.6-.2-.9-.3h0c-1.5.5-2.8,1.5-3.8,2.7-1.2,1.5-2,3.4-2.2,4.4,0,.3-.1.6-.2,1-.4,1.8-.7,4.1-.7,5.8,0,.5,0,.9,0,1.3,0,2.9.6,5.7,1.7,8.5,0,0,0,0,0,0,1.5,1,3.1,1.8,4.8,2.1.2,0,.5,0,.7,0h0c-.7,0-1.5-.5-1.9-1.1-.5-.6-2-4.3-1.9-7.4,0-3.5.4-8.8,1.3-11.9h0c0-.2,0-.4.1-.6.6-1.9,2.3-3.9,3.8-4.1h0Z"/><path class="cls-16" d="m186.5,156.2h.1c1-1.1,2.2-2.1,3.8-2.5h0c-1.2-.5-2.6-.7-3.9-.7.3.8,0,3.2,0,3.2Z"/><path class="cls-12" d="m190.5,179.5h0c3.6,0,5.7-3.9,5.7-7.7-.6.5-1.4.5-2.2.4-.7,0-1.6-.2-2-.7-.4-.5-.4-1.2-.4-1.8,0-.5,0-.9.1-1.4-1.4,0-2.6-1.1-3.3-2.4-.6-1.2-.9-4.5-.6-6.6-.9,3.1-1.2,8.3-1.3,11.9,0,3,1.4,6.7,1.9,7.4.5.6,1.2,1,1.9,1Z"/><path class="cls-13" d="m211.5,147.5c-.1-.2-.4-.3-.6-.3-4.3-.8-8.8.5-12.2,3.3-1.9-.7-3.8-.2-5.3,1.1-1.1.9-1.5,1.7-1.6,2.8h0s0,0,0,0c-1.5.2-3.2,2.2-3.8,4.1,0,.2-.1.4-.1.6h0c-.4,2.1,0,5.4.6,6.6.7,1.3,1.9,2.3,3.3,2.4,0,.5-.1.9-.1,1.4,0,.6,0,1.3.4,1.8.5.6,1.3.7,2,.7.8,0,1.6,0,2.2-.4.4-.3.7-.9.8-1.4.1-.5,0-1.5-.2-2.5h0s0,0,0,0c1-.3,1.8-1,2.3-1.9.7.4,1.4.9,2.2,1.1.9.2,1.8.2,2.6-.3.7-.5,1.1-1.3,1.3-2.2,0,0,0,0,0-.1h0s0,0,0,0c.6,0,1.2,0,1.8.1.6,0,1.2,0,1.7-.5.2-.3.4-.6.5-.9.4-1.1.8-2.1,1.2-3.2.2-.6.5-1.4.2-2-.2-.4-.6-.7-1.1-.8-.5,0-.9,0-1.4.1-.3,0-.6.2-.9.4h0c-1.2,0-2.7,0-3.4-1-.4-.7-.3-1.7.2-2.5.5-.7,1.2-1.2,1.9-1.7,1.7-1.2,3.3-2.4,5-3.6.4-.3.8-.8.5-1.2Z"/><line class="cls-5" x1="180.3" y1="155" x2="180.2" y2="155"/><path class="cls-5" d="m193.1,275c.2,2.3.4,4.5.5,6.5.2,3.9.2,7.1-.2,9.1-7.3,3.7-25.5,8.1-38.4,7.7-19-.6-36.5-3.7-41.5-7-1-.7-1.3-3.8-1.1-8.6.1-3,.4-6.6.8-10.8,3.1-29.3,13.3-81.9,13.4-85.9,0-.1,0-.2,0-.2"/><path class="cls-5" d="m176.2,179.5c.1,1.4.7,4.6,1.6,9.1.7,3.5,1.5,7.8,2.5,12.7,1.5,7.7,3.3,16.7,5.1,26,.4,1.9.7,3.8,1.1,5.8,2.8,15.2,5.4,30.6,6.6,42"/><path class="cls-1" d="m127.3,234.7c2,3.9,5.7,9.2,7.2,16-2.8,3.6-16.1-.3-16-2,.1-2.6,7.2-11.4,8.8-14Z"/><path class="cls-1" d="m152,214.1c2.4,3.7,5.5,7.6,7.7,14.3-4.3,1.8-13.4.8-13.4,0,0-2.6,4.4-11.5,5.7-14.3Z"/><path class="cls-1" d="m174,247.5c2.5,3.7,6.2,6,8.6,12.6-2.3,2.7-13.9,4.5-13.9,1.8s4.1-11.6,5.4-14.4Z"/><path class="cls-5" d="m185.4,227.3c0,.1.1.2.2.3"/><path class="cls-1" d="m186.6,233s0,0,0,0c-3.9,1.3-12.1,2.4-12.1,1.7,0-2.6,4.1-11.6,5.4-14.4,2.5,2.1,3.9,3.6,5.6,7"/><path class="cls-1" d="m112,282.6c.2,0,.3,0,.5.1,27.2,5.9,58.1,10.9,81.2-1.2"/><line class="cls-5" x1="193.1" y1="275" x2="193.1" y2="275"/><path class="cls-1" d="m112.8,271.5c.2.2.3.3.5.4,2.8,2.5,5.4,3.6,8.2,6.3,3.6-3.2,6.8-6.9,9.5-11,3.3,4,6.8,8.8,11,11.7,1.8-3.2,4.6-7.3,7.5-9.5,2.7,4.2,6.1,7.9,10.2,10.9,3-3.9,5.9-7.8,8.9-11.6,3.1,3.3,6.8,6.1,10.8,8.4,1.7-3.3,4.8-6.6,6.5-9.9,2.7,3.3,4.6,4.9,7.2,7.9"/><path class="cls-1" d="m135.8,193.5c2,3.9,5.7,9.2,7.2,16-2.8,3.6-16.1-.3-16-2,.1-2.6,7.2-11.4,8.8-14Z"/><line class="cls-1" x1="179.8" y1="155.8" x2="181.5" y2="156.6"/><path class="cls-3" d="m162.9,71.5c.3,4.6,1.2,5.4,1.9,8.1.4,1.5.8,3.7.9,7.5,0,1.3,0,2.4,0,3.6-.8,8.6-5.3,13.7-9,14.7"/><path class="cls-5" d="m114.5,115.3c4.1-15.8-3.7-31-1.4-46.7,2.4-16.6,26.8-22.4,37.4-18.8,8.7,3,13.9,15.6,14.3,29.8"/><path class="cls-1" d="m157.1,77.9c.7,1.7,1.7,2.9,2.4,2.6.7-.3.7-1.9,0-3.6-.7-1.7-1.7-2.9-2.4-2.6s-.7,1.9,0,3.6Z"/><path class="cls-1" d="m139,82.8c.7,1.9,2,3.2,2.8,2.9.8-.3.9-2.1.1-4-.7-1.9-2-3.2-2.8-2.8-.8.3-.9,2.1-.1,4Z"/><path class="cls-3" d="m127.5,74.5c-.4,7.1,3.6,37.1,29.1,30.9"/><path class="cls-5" d="m158.7,62.5c-3.8-4.9-9.7-7.9-17.7-6.3-3.8.8-11.8,5.3-13.4,16.5,0,.4-.1.9-.2,1.3"/><path class="cls-5" d="m162.9,71.5c-.7-3.2-2.1-6.4-4.1-9"/><path class="cls-3" d="m171.4,115.3c1.6.5,3.4,6.3,5.1,13.4.9,3.7,1.8,7.8,2.8,11.7,1.2,5.2,2.5,10.1,3.7,13.2"/><path class="cls-5" d="m182.7,175.5c.2.2.4.4.7.6.5.5,1.1.9,1.7,1.3,1.5,1,3.1,1.8,4.8,2.1.2,0,.5,0,.7,0,3.6,0,5.7-4,5.7-7.8"/><path class="cls-5" d="m191.9,154.5c-.1-.5-.2,0-.6-.6-.3-.1-.6-.2-.9-.3h0c-1.2-.4-2.6-.6-3.9-.6-1.2,0-2.5.2-3.6.6-.9.3-1.6.8-2.2,1.3s-.6.6-.9.9c-1.9,2.1-2.9,4.3-3.1,6.6-.3,3.3.9,5.8,2,8.2.5,1,1.9,2.9,3.7,4.6"/><path class="cls-5" d="m125.9,180.5c0-.5,0-1.2,0-2.1.2-4.6.8-14.5,1.5-23,.6-8,1.2-14.8,1.3-15.3"/><path class="cls-3" d="m115.7,115.3s0,0,0,0c-1,.7-2.2,7.3-3.6,15.7-.2,1.5-.5,3.1-.7,4.7-2,14-4.1,30.7-5.2,35.4-.2.6-.3,1-.4,1.2"/><path class="cls-3" d="m185.1,177.4s0,0,0,0c-2.3-.8-8.1-6.3-9.8-8.8-.2-.3-.3-.5-.4-.7"/><path class="cls-3" d="m127.3,179.2c.5-9.6.7-18.9.3-23.9"/><path class="cls-3" d="m171.4,130.7c.1,2.4,1.7,15.4,1,22.9,0,0,.4,2.7.9,6.4.1.8.2,1.6.4,2.5.3,2,.6,4.2.9,6.3.6,4.2,1.2,8.3,1.6,10.8"/><path class="cls-5" d="m151.1,88.5c2.6-5.2,7.2-4.1,7.7-2.2"/><line class="cls-5" x1="207.3" y1="157.5" x2="207.3" y2="157.5"/><path class="cls-5" d="m191.9,156c0-.6,0-1,0-1.5h0c0-1.1.4-1.9,1.6-2.8,1.6-1.3,3.5-1.8,5.3-1.1,3.3-2.9,7.9-4.1,12.2-3.3.2,0,.5,0,.6.3.3.4-.2.9-.5,1.2-1.7,1.2-3.3,2.4-5,3.6-.7.5-1.4,1-1.9,1.7s-.6,1.7-.2,2.5c.6,1.1,2.2,1.1,3.4,1"/><path class="cls-5" d="m199.4,160.9c.2.7,1,.9,1.6.6s1-.8,1.5-1.2c.5-.4,1.1-.8,1.7-.6.3.1.5.3.6.5.3.5.4,1.1.4,1.7,0,.8.1,1.7,0,2.5,0,0,0,0,0,.1-.2.9-.6,1.7-1.3,2.2-.7.5-1.7.5-2.6.3-.8-.2-1.5-.7-2.2-1.1,0,0-.1,0-.2-.1"/><path class="cls-5" d="m187.9,159.2c-.4,2.1,0,5.4.6,6.6.7,1.3,1.9,2.3,3.3,2.4,0,0,.1,0,.2,0"/><path class="cls-5" d="m191.9,154.5c-1.5.2-3.2,2.2-3.8,4.1,0,.2-.1.4-.1.6"/><path class="cls-5" d="m204.9,160.1h0c.5-1.1,1.4-2,2.4-2.6.3-.2.6-.3.9-.4.5-.1.9-.2,1.4-.1.5,0,.9.4,1.1.8.3.6,0,1.3-.2,2-.4,1.1-.8,2.1-1.2,3.2-.1.3-.3.7-.5.9-.4.4-1.1.5-1.7.5-.6,0-1.2-.2-1.8-.1"/><path class="cls-5" d="m196.9,167.9c-.6-2.3-2-4.9-3.9-3.1-.5.5-.8,1.2-.9,1.9-.1.5-.2,1.1-.3,1.6,0,.5-.1.9-.1,1.4,0,.6,0,1.3.4,1.8.5.6,1.3.7,2,.7.8,0,1.6,0,2.2-.4.4-.3.7-.9.8-1.4s0-1.5-.2-2.5Z"/><path class="cls-5" d="m196.9,167.8c1-.3,1.8-1,2.3-1.9,0,0,0-.1,0-.2"/><line class="cls-5" x1="123.4" y1="182.1" x2="123.5" y2="182.1"/><line class="cls-5" x1="123.4" y1="182.1" x2="123.4" y2="182.1"/><path class="cls-5" d="m123.4,177.5s0,0,0,0c-.4-1-.8-2-1.4-2.9-.6-.9-1.4-1.7-2.4-2.2-1.3-.6-2.9-.4-4.1-1.2-2.1-1.5-4.9-1.4-7.2-.4-.9.4-1.8.9-2.6,1.5-1.2.9-2.3,2-3.3,3.2-.3.4-.7.8-.8,1.3s0,1.1.3,1.4c.5.4,1.2.2,1.8,0,.6-.2,1.3-.4,1.9-.6,1-.3,2.1-.7,3.1-1,1.3,1.1,1.2,3.1,1.1,4.8,0,1.7.2,3.8,1.8,4.5,1.1.5,2.3,0,3.3-.9.3-.3.6-.5.9-.8,1-1.1,1.9-2.2,2.7-3.4.4-.6.7-1.1.8-1.8,0,0,0,0,0-.1.1-.7,0-1.5-.6-1.9-.8-.6-1.9-.3-2.8.2-1.2.7-2.2,1.6-3.1,2.6"/><path class="cls-5" d="m114.9,184.8c0,0,0,.1,0,.2.4,1.1,1.5,1.7,2.6,1.7,1.1,0,2.2-.5,3.1-1.2,0,0,0,0,0,0,1.1-.9,2.1-2,2.7-3.3,0,0,0,0,0,0,.3-.7.6-1.5.7-2.3,0-.7,0-1.6-.4-2.1,0,0-.2-.2-.2-.2-.6-.5-1.5-.5-2.2-.2-.8.3-1.4.9-1.9,1.5,0,0,0,0-.1.2"/><path class="cls-5" d="m120.4,185.2c0,0,.2.2.3.2,1,.8,2.2,1.2,3.4,1.2.9,0,1.8-.2,2.6-.7.1,0,.2-.2.4-.2,1.3-.9,2.2-2.6,2.1-4.2,0-.6-.2-1.3-.6-1.7-.4-.4-.9-.7-1.4-.6,0,0-.2,0-.2,0-.5.2-.9.7-1.1,1.2-.3.5-.5,1.1-.9,1.5s-1.1.6-1.5.2"/><path class="cls-3" d="m114.5,115.3c.4,0,.8,0,1.1,0,7,0,11.4.9,17.7,10.4,3.5,5.3,11.8,7.8,21.4,5.1,1.2-.3,2.4-.7,3.6-1.2,1.4-.6,2.7-1.3,3.9-2.2,6.1-4.5,9.2-12.1,9.2-12.1-1.5-7.7-4-10.1-5.7-24.6"/><path class="cls-5" d="m127.5,74.1c0,.1,0,.3,0,.4-1.1,14.5,3.6,25.8,10.9,35.3"/><path class="cls-1" d="m142.7,73c0,.5,0,.7-.4.9-.6.3-2.6.5-4.5.8-1.8.3-5,2.3-4.9,1.7.2-.8,1.2-2.1,3.1-3.2,1.5-.9,6.8-2.7,6.7-.2Z"/><path class="cls-1" d="m153.3,68.8c-.8.4-1.4,1-1.3,1.6s0,.8,1.2.5c.3,0,1.3-.7,3.8-1.2.3,0,3,0,3.2-.2s.2-.4,0-.5-.4-.3-.6-.3c-1.7-.6-4.3-.8-6.3.2Z"/><path class="cls-5" d="m127.7,72.8s0,0,0,0c5.3-10.8,26.4-14.5,31.1-10.3h0"/><path class="cls-5" d="m187.9,159.2h0c-.9,3.1-1.2,8.3-1.3,11.9,0,3,1.4,6.7,1.9,7.4.5.6,1.2,1,1.9,1s.1,0,.2,0"/><path class="cls-5" d="m165,94.6c.7,2.9-.7,15.1-5,16.9"/><path class="cls-3" d="m105.7,177.8c2.4,13.9,5.5,16.4,8.7,16.8,3.7.4,6.6-1.9,9.7-7.9"/><path class="cls-1" d="m153.7,172c2.9,3.3,6.4,6.8,9.5,13-5.1.1-13,2.7-13.1,1.9-.3-2.6,2.7-12,3.6-14.9Z"/><path class="cls-1" d="m123.3,150.8c1.4,3.8,2.3,7.2,3,13.5-2.4-.5-10.4-1.3-10.2-2,.5-2.3,5.7-9.3,7.2-11.4Z"/><path class="cls-3" d="m154.7,130.8c0-.1,0-.2,0-.3"/><path class="cls-1" d="m162.2,127.4c1.7,1.7,2.5,3.4,4.5,6.9-3.3,3.8-12.7,4.1-12.9,3.2-.3-1.4.2-3.7.9-6.7"/><path class="cls-1" d="m112.1,131.1s0,0,0,0c1.4-3.2,3.5-6.7,4.8-8.4,1.4,3.8,3.4,7.9,4,14.3-6.4,0-9.3-.6-9.6-1.3,0,0,0-.1,0-.2"/><path class="cls-1" d="m139.7,143.1c2.3,3.8,5.3,7.7,7.4,14.5-2.3,1.7-13.3.5-13.3-.3,0-2.6,4.5-11.4,5.9-14.2Z"/><path class="cls-1" d="m174.8,168.6h0c0,0-.2,0-.3,0-3.4,1-8.6,1.6-8.7.9-.6-2.9,2.1-13.7,2.9-17,2.2,2.2,3,4.1,4.5,7.4"/><path class="cls-1" d="m173.9,162.4c1.5.4.7.2,2.8,0"/><path class="cls-1" d="m179.2,140.5c-2,.7-2.2.5-2.4.1-.8-2-.6-7.5-.3-11.8,0-.2,0-.4,0-.6"/><path class="cls-1" d="m190.4,153.7c-1.5.3-2.8,1.4-3.8,2.6-1.2,1.5-2,3.4-2.2,4.4,0,.3-.1.6-.2,1-.4,1.8-.7,4.1-.7,5.8,0,.5,0,.9,0,1.3,0,2.9.6,5.7,1.7,8.5"/><path class="cls-1" d="m186.5,153c.3.8,0,3.2,0,3.2h0c-.2,0-3.8,0-4.9.4h0c0,0-.1,0-.2,0,.8,1.7,1.5,3.4,2.3,5h0c-1.3.5-2.6,1.8-4.5,3,.9,1.3,3.9,3.8,3.9,4.3,0,0,0,0,0,0-.1.3-3.4,2.2-3.5,2.4,0,.2,1.6,2.5,2.9,3.9,0,0,.1.1.2.2.2.2.5.4.7.6h0"/><path class="cls-1" d="m106.4,171.2c2-3.9,9.9-2.9,12.8-1.6,2.7,1.3,6.4,5.5,6.6,8.8"/><path class="cls-1" d="m159.8,90.6c-3,.8-13.9,2.1-13.3,2.8,1.1,1.3,3.1,4.4,9.2,3.1,4.8-1,4.1-5.9,4.1-5.9Z"/><path class="cls-1" d="m180.1,201.3c-3.1,1.1-4.4,1.1-4.6.7-.9-2,.8-8.6,2.1-13.4"/><rect class="cls-14" x="187.2" y="52.7" width="21.3" height="21.3" transform="translate(8.2 148.2) rotate(-41.9)"/><rect class="cls-7" x="187.2" y="112.8" width="21.3" height="21.3" transform="translate(-34.2 100) rotate(-26.2)"/><polygon class="cls-7" points="168.6 18.2 165 39.2 144 35.5 147.6 14.5 168.6 18.2"/><polygon class="cls-14" points="139.1 159.7 135.3 180.7 131.1 179.9 116.6 177.2 114.3 176.8 118.2 155.9 139.1 159.7"/><polygon class="cls-14" points="100.8 60.9 106.1 81.5 85.4 86.8 80.1 66.2 100.8 60.9"/><polygon class="cls-4" points="144 35.5 165 39.2 168.6 18.2 147.6 14.5 144 35.5"/><polyline class="cls-4" points="131.1 179.9 135.3 180.7 139.1 159.7 118.2 155.9 114.3 176.8 116.6 177.2"/><line class="cls-4" x1="116.6" y1="177.2" x2="131.1" y2="179.9"/><rect class="cls-4" x="187.2" y="112.8" width="21.3" height="21.3" transform="translate(-34.2 99.8) rotate(-26.2)"/><polygon class="cls-4" points="106.1 81.5 85.4 86.8 80.1 66.2 100.8 60.9 106.1 81.5"/><rect class="cls-4" x="187.2" y="52.7" width="21.3" height="21.3" transform="translate(8.1 148.1) rotate(-41.8)"/><path class="cls-13" d="m128.8,179.8c-.4-.5-1.1-.7-1.6-.5-.5.2-.9.7-1.2,1.2-.3.5-.5,1-.9,1.4-.4.4-1.1.6-1.5.2h0c.3-.7.6-1.5.7-2.2,0-.7,0-1.5-.4-2.1-.6-.7-1.7-.8-2.5-.4-.8.3-1.3.7-1.9,1.4.1-.7,0-1.5-.6-1.9-.8-.6-1.9-.3-2.8.2-1,.5-1.8.9-2.6,1.6-1.1-.4-2-.9-2.9-1.7-.1-2.3.2-4.7.9-6.9-1.2,0-2,.4-3.1.8-2.3,1-4.3,2.7-6,4.6-.3.4-.7.8-.8,1.3-.2.5,0,1.1.3,1.4.5.4,1.2.2,1.8,0,1.7-.5,3.4-1,5.1-1.6.1.1.2.2.3.3.9,1.1.8,2.9.8,4.4,0,1.7.2,3.8,1.8,4.4,1.1.5,2.3,0,3.3-.9v.2c.5,1.2,1.5,1.5,2.7,1.5,1.2,0,2.3-.5,3.3-1.3,1.8,1.7,4.4,1.7,6.4.3,1.3-.9,2.2-2.5,2.2-4.2,0-.6-.2-1.3-.6-1.7Z"/><path class="cls-2" d="m111.4,170c-1.2,0-2,.4-3.1.8-2.3,1-4.3,2.7-6,4.6-.3.4-.7.8-.8,1.3-.2.5,0,1.1.3,1.4.5.4,1.2.2,1.8,0,1.7-.5,3.4-1,5.1-1.6.1.1.2.2.3.3.9,1.1.8,2.9.8,4.4,0,1.7.2,3.8,1.8,4.4,1.1.5,2.3,0,3.3-.9.3-.3.6-.6.9-.8,1-1.1,1.9-2.2,2.7-3.4.4-.6.8-1.2.9-1.9.1-.7,0-1.5-.6-1.9-.8-.6-1.9-.3-2.8.2-1,.5-1.8.9-2.6,1.6-.2.2-.3.3-.5.5"/><path class="cls-2" d="m115,185.1c.3,1.2,1.4,1.5,2.6,1.5,1.2,0,2.3-.5,3.3-1.3,1.1-.8,2.1-2,2.7-3.3h0c.3-.7.6-1.4.7-2.2,0-.7,0-1.5-.4-2.1-.6-.7-1.7-.8-2.5-.4-.8.3-1.3.7-1.9,1.4"/><path class="cls-2" d="m120.9,185.3c1.8,1.7,4.4,1.7,6.4.3,1.3-.9,2.2-2.5,2.2-4.2,0-.6-.2-1.3-.6-1.7-.4-.5-1.1-.7-1.6-.5-.5.2-.9.7-1.2,1.2s-.5,1-.9,1.4c-.4.4-1.1.6-1.5.2"/></svg>