<?xml version="1.0" encoding="UTF-8"?><svg id="Layer_5" xmlns="http://www.w3.org/2000/svg" width="300" height="300" viewBox="0 0 300 300"><defs><style>.cls-1{stroke:#fff;stroke-width:1.5px;}.cls-1,.cls-2{fill:none;stroke-miterlimit:10;}.cls-2{stroke:#000;stroke-width:1px;}.cls-3{fill:#4d0099;}.cls-3,.cls-4,.cls-5,.cls-6,.cls-7,.cls-8,.cls-9,.cls-10{stroke-width:0px;}.cls-4{fill:#626365;}.cls-5{fill:#967246;}.cls-6{fill:#e1c0a5;}.cls-7{fill:#b3282e;}.cls-8{fill:#3246ff;}.cls-9{fill:#ffd204;}.cls-10{fill:#050504;}</style></defs><path class="cls-5" d="m179.1,38.7c1.5.2,26.4,13.3,24.7,31-1.7,17.7-8.3,26.9-12.9,30.2-3.2,0-6.6-.1-9.8-.2-1.5,0-2.9-.1-4.2-.2-1.6-.1-3.1-.3-4.2-.5,3.3-7.5,9.1-20.4,7.5-33.8,3.4.1,7.2.5,9.6,1.4-1.1-5.5-4-19.7-13.8-25.5-1.5.4-2.6,1-3.5,1.8,0,0-.3-1.1-.9-2.4,0,0,1.6-.5,3.3-.9,1.6-.4,3.4-.8,4.1-.7Z"/><path class="cls-7" d="m198,285.5c.7,1.1.5,3.7.5,3.7,0,0-4.6,4.5-11.3,5.2-6.8.8-11.3-5.1-11.3-5.1l-.4-4.5.8-1h.1c0,.4-.1.6-.1.6,0,0,1.2,7.6,11.7,7,8.8-.5,9.8-4.6,9.9-6h.1Z"/><path class="cls-7" d="m196.1,278.9c2.6,4.5,1.8,6.2,1.8,6.2,0,0,0,.2,0,.4,0,1.4-1.1,5.5-9.9,6-10.6.6-11.7-7-11.7-7,0,0,0-.2.1-.6,0-.1,0-.3.1-.5h0c.2-.3,3.1-4,7.3-6,2.2-1,4.8-1.6,7.6-.9,1.5.4,3.1,1.1,4.7,2.3h0Z"/><path class="cls-9" d="m197.3,103.4c1.8,2.5,5.6,8.8-1.5,37.9-1.3.9-3.9,2-7.1,2.5-1.1.2-2.2.2-3.3.2-3.5,0-7.2-1-10.4-3.7-.4-.4-.8-.8-1.2-1.2,2-4.2,8.4-17.4,8.4-17.4l1.6-4.1c4.2-9.5,12.7-13.4,12.7-13.4v-.8c.4,0,.6,0,.8,0Z"/><path class="cls-9" d="m162.3,108.7c0,0,0-.1,0-.1l3.5-1.7h.2c-.6,1.7-1.1,3.9-1.3,6-.3,3.4,2.6,4.6,2.6,4.6,3.1,1,10-4.5,11.9-6,2-1.5,4.2-4.4,6.2-7.6,0-.2-.2-.4-.3-.7.5,0,8.2,0,11.4.2v.8s-8.5,3.9-12.7,13.4l-1.6,4.1s-6.3,13.2-8.4,17.4c.4.4.8.8,1.2,1.2-.1.6-1.6,5.1-2.3,8.4,0,0-.6,1-1.5,2.5v-.4c.1,0,.1-1,.1-1l.4-22.6-17.6-.5h-2c0,0,0-.6,0-.6,2.1-7.5,9.3-16.4,10-17.3Z"/><path class="cls-7" d="m191,271.7c2.5,2.9,4.1,5.3,5.1,7.2-1.6-1.2-3.2-2-4.7-2.3l-2.6-4s1.4-.5,1-3c0-.3-.1-.6-.3-.8,0,0,0,0,0,0-.2-.6-.5-1.1-1-1.5h0c0-.3,0-.5,0-.7,2.1,1.6,1.8,3.4,2.4,5.2Z"/><path class="cls-7" d="m188.9,272.6l2.6,4c-2.8-.7-5.4-.1-7.6.9l-2-6.3c.2-3.1,3.7-3.8,4.4-3.7.6,0,2.4-.2,3.2,1.4,0,0,0,0,0,0,.1.3.2.5.3.8.5,2.4-1,3-1,3Z"/><path class="cls-4" d="m188.1,192.5c.6,9.5,1.3,25.9,1.3,25.9,0,0-1.5,1.4-3.7,2.9h0c-2.2,1.5-5.2,3.1-8.1,3.4-2,.2-4.1,0-6.1-.5-3.7-.9-6.6-2.4-6.6-2.4l-3.4-21.7c.7.4,1.2.6,1.6.8,2.1.7,7.4-4.8,9.8-6,0-3.5-1-5.7-2.1-9.6,0-.6.1-1.4.3-2.4l.7.2c3-.3,7-3.1,9.5-5,0,0,6.2,5,6.8,14.5Z"/><path class="cls-7" d="m188.6,267.2c.4.4.7.9,1,1.5-.8-1.5-2.6-1.3-3.2-1.4-.7,0-4.2.6-4.4,3.7l-.4-1.2h0c0-.5.1-3,3.4-3.6,1.7-.3,2.9,0,3.7.9Z"/><path class="cls-6" d="m181,267.2c-.2-6.5-5.1-18-5.6-21-.5-3.3.2-9.5,0-11.5s-3.6-7.3-4-10.6c1.9.5,4.1.8,6.1.5,2.9-.3,5.9-1.9,8.1-3.4-.2.4,0,7.2,0,10.4,1,3.7,2.2,6.1,3,10.8.7,4.5-.5,19.2,0,24,0,.3,0,.5,0,.7h0c-.8-.8-2-1.1-3.7-.8-3.3.5-3.4,3.1-3.4,3.5l-.5-1.5c0-.4,0-.8,0-1.2Z"/><path class="cls-5" d="m176.1,41c9.8,5.8,12.8,20.1,13.8,25.5-2.4-.9-6.2-1.3-9.6-1.4-3.6-.2-6.7,0-6.7,0l-2.1-17-2.6,16.6c-9.8.5-17.6,2-24,3.8-1.1.3-2.1.7-3.1,1-4.9,1.7-8.8,3.6-11.7,5.3,3.2-29,33.4-38,38.8-38.7.6.5,1.2,1.2,1.7,2,.5.7.8,1.6,1.1,2.3.6,1.4.9,2.4.9,2.4.9-.8,2-1.4,3.5-1.8Z"/><path class="cls-9" d="m185.4,144c1.1,0,2.3,0,3.3-.2,0,0-7.8,13.7-8.6,18.7-.8,5,3.2,13.7,3.2,13.7,0,0-.8.8-2.1,1.8-2.4,1.9-6.5,4.7-9.5,5l-.7-.2c1.2-5.7,5.2-16.4,7.4-21.7,2.5-6.1,1.3-10.4,1.3-10.4.2-.3.5-.6.8-.9,1.3-1.4,4.9-5.8,4.9-5.8Z"/><path class="cls-9" d="m185.1,103.1c.2.3.3.5.3.7-2,3.2-4.2,6.1-6.2,7.6-1.9,1.5-8.8,7.1-11.9,6,0,0-3-1.2-2.6-4.6.2-2.1.7-4.3,1.3-5.9.4-1,.9-1.8,1.4-2h.2c0,1,0,2.2,0,3.4-.5.6-1.2,5.3.9,5.2,2.2-.1,7.1-5.4,7.1-5.4,3.2-2.6,5.6-7.9,5.6-7.9,0,0,1,0,2,.7.8.5,1.6,1.4,2,2.1Z"/><path class="cls-7" d="m181,268.4l.5,1.5h0c0,0,.4,1.3.4,1.3l2,6.3c-4.2,2-7.1,5.7-7.3,6,.7-3.4,3-13.8,3-14.4,0-.6,1.4-1.7,1.5-1.8,0,.4,0,.8,0,1.2Z"/><path class="cls-6" d="m177,99.4c-1.6-.1-3.1-.3-4.2-.5,3.3-7.5,9.1-20.4,7.5-33.8-3.6-.2-6.7,0-6.7,0l-2.1-17-2.6,16.6c-9.8.5-17.6,2-24,3.8,0,0-.2,1,0,2.9.9,2.6,1.3,8.1,1.3,8.1-.2,2-2.1,2.7-2.1,5.8.3,6.2,6.1,13.9,10.1,17.5,1.3,1.2,2.5,1.9,3.2,2,2.7.2,6.5-.7,10-1.8,0,0,0,.8.1,2,0,1,0,2.2,0,3.4-.5.6-1.2,5.3.9,5.2,2.2-.1,7.1-5.4,7.1-5.4,3.2-2.6,5.6-7.9,5.6-7.9v-.6c-1.5,0-2.9-.1-4.2-.2Zm-27.1-20.5c-.4,0-.7-1-.7-2.3s.3-2.4.7-2.4.7,1.1.7,2.4-.3,2.3-.7,2.3Zm17,0c-.8,0-1.5-1.2-1.5-2.8s.7-2.8,1.5-2.8,1.5,1.3,1.5,2.8-.7,2.8-1.5,2.8Z"/><path class="cls-10" d="m166.9,73.3c.8,0,1.5,1.3,1.5,2.8s-.7,2.8-1.5,2.8-1.5-1.2-1.5-2.8.7-2.8,1.5-2.8Z"/><path class="cls-4" d="m161.5,200l3.4,21.7c-1.1.5-2.3,1-3.4,1.3-5.2,1.5-9.8.7-13.4-.6-1.8-.7-3.3-1.5-4.5-2.2l1.5-25.8,7.6-.4v.4s5.7,3.8,8.8,5.6Z"/><path class="cls-6" d="m155,264.2c-.1.6-.2,1.2-.2,1.7h0c-.5.8-1.3,2.1-2,2.3-1.1.4-1.4,0-2.9-.5-.3-.1-.9.1-1.7.6h0s1.4-2.3,0-3.8c-.4-.5-.9-.8-1.5-1h0c1.5-10.3.5-35.1.5-36.9s.9-4.3.9-4.3c3.6,1.3,8.2,2.1,13.4.6h0s-1.2,5.1-1.3,5.8c-.1.6,2.5,6.7,2.3,10-.5,6.8-6.3,19.1-7.6,25.4Z"/><path class="cls-6" d="m185.4,144c-3.5,0-7.2-1-10.4-3.7-.1.6-1.6,5.1-2.3,8.4,0,0-.6,1-1.5,2.5-1.3,2.3-3,5.8-3.6,8.9-.4,2.1-1,6.2-1.7,10.6h0,0c-1,6.5-2.1,13.4-2.9,15.4,0,0-4.1,1.8-4.8,3.1-.2.3-.5.6-.9.8-1.1.7-2.9,1-3.4.8-.7-.2-.1,2.6,1.7,2.9v.2c-.1,0-2.4.1-2.4.1h-.5s0,.4,0,.4c0,0,5.6,3.8,8.8,5.6.7.4,1.2.6,1.6.8,2.1.7,7.4-4.8,9.8-6,0-3.5-1-5.7-2.1-9.6,0-.6.1-1.4.3-2.4,1.2-5.7,5.2-16.4,7.4-21.7,2.5-6.1,1.3-10.4,1.3-10.4.2-.3.5-.6.8-.9,1.3-1.4,4.9-5.8,4.9-5.8Z"/><path class="cls-7" d="m154.8,265.9h0c0-.5.1-1.1.2-1.7.2,0,1.6.4,1.4,1.7-.2,1.4,1.3,7.5.8,8.8,0,.1-.1.3-.3.4-1.2,1.4-5.9,3.7-6.5,4.4-.6.7-4.9,4.9-7.4,6.5h0c.4-4.8-2.2-8.4-4.9-10.4,0,0,4.5-3.7,8-6,.7-.5,1.5-.9,2.1-1.3.8-.4,1.4-.7,1.7-.6,1.5.5,1.8.9,2.9.5.7-.3,1.5-1.5,2-2.3Z"/><path class="cls-7" d="m156.9,275.1c.4,1.5,0,2.7,0,2.7,0,0-4.7,2.4-5.6,2.9s-3.7,4.4-6.4,6.8c-2.8,2.4-8.2,3.3-12.1,3-3.9-.3-8.8-4.2-8.8-4.2v-2.7l.9-.8h0c0,.2,0,.5,0,.7,3.1,5.7,15.1,3.9,17.3,3,.3-.1.5-.3.9-.5,2.5-1.6,6.8-5.8,7.4-6.5.6-.7,5.3-3.1,6.5-4.4Z"/><path class="cls-5" d="m154.2,102.7c-2.5.5-10.9.5-14-.5,3.6-8.6,1.6-32.8,1.6-32.8,1-.4,2-.7,3.1-1,0,0-.2,1,0,2.9.9,2.6,1.3,8.1,1.3,8.1-.2,2-2.1,2.7-2.1,5.8.3,6.2,6.1,13.9,10.1,17.5Z"/><path class="cls-10" d="m149.9,74.3c.4,0,.7,1.1.7,2.4s-.3,2.3-.7,2.3-.7-1-.7-2.3.3-2.4.7-2.4Z"/><path class="cls-7" d="m148.2,264.5c1.4,1.5,0,3.8,0,3.8h0c-.6.3-1.3.8-2.1,1.3h0c2.4-3.5-.3-5.4-1.5-5.4-.9,0-2.6-.1-3.3.5.6-.8,1.8-1.7,2.4-1.7.5,0,1.7,0,2.9.6.5.2,1,.5,1.5,1Z"/><path class="cls-7" d="m144.7,264.2c1.1,0,3.9,2,1.5,5.4h0c-3.5,2.3-8,6-8,6-1.5-1.1-3.1-1.7-4.2-1.8-.3,0-.7,0-1,.1l8.7-5.6s-.6-2-.4-3.2c0-.2.2-.3.3-.5,0,0,0,0,0,0,.7-.6,2.4-.5,3.3-.5Z"/><path class="cls-7" d="m138.1,275.6c2.8,2,5.4,5.6,4.9,10.4h0c-.3.2-.6.4-.9.5-2.2.9-14.2,2.7-17.3-3,0-.2,0-.5,0-.7.3-4.4,4.8-8.2,7.9-8.9.4,0,.7-.1,1-.1,1.1,0,2.7.7,4.2,1.8Z"/><polygon class="cls-3" points="152.2 126.6 134 126 114.5 125.5 114.4 149.6 114.4 171.8 133.6 171.4 153.6 170.9 153.9 149.7 154.2 126.6 152.2 126.6"/><polygon class="cls-3" points="101.1 129 101 149.2 101 167.9 107.2 169.8 113.9 171.8 114 149.6 114.1 125.7 107.3 127.4 101.1 129"/><path class="cls-8" d="m154.2,126.6l-.3,23.1-.3,21.2-20,.4-19.2.4v24.1c0,0,19-.9,19-.9l11.8-.6,7.6-.4h.5s2.3-.1,2.3-.1v-.2c-1.8-.4-2.3-3.2-1.6-2.9.6.2,2.3-.2,3.4-.8.4-.2.7-.5.9-.8.7-1.2,4.8-3.1,4.8-3.1.7-2,1.9-8.9,2.9-15.3h0s0,0,0,0h0c.7-4.4,1.3-8.5,1.7-10.6.6-3.1,2.3-6.6,3.6-8.9v-.4c.1,0,.1-1,.1-1l.4-22.6-17.6-.5Z"/><polygon class="cls-8" points="101 167.9 101 149.2 101.1 129 96.3 130.2 96.2 149 96.1 166.5 96.1 185.7 100.9 188.6 107.1 192.2 113.8 196.2 113.9 171.8 107.2 169.8 101 167.9"/><path class="cls-2" d="m145.2,194.4l-1.5,25.8c1.2.7,2.7,1.5,4.5,2.2,3.6,1.3,8.2,2.1,13.4.6,1.1-.3,2.2-.7,3.4-1.3"/><path class="cls-2" d="m179.8,150.7s1.2,4.3-1.3,10.4c-2.2,5.2-6.2,16-7.4,21.7-.2,1-.3,1.8-.3,2.4,1.1,3.9,2.1,6.1,2.1,9.6-2.4,1.2-7.7,6.8-9.8,6-.4-.1-.9-.4-1.6-.8-3.1-1.7-8.8-5.6-8.8-5.6"/><polyline class="cls-1" points="133.4 195 114.3 195.9 114.4 171.8"/><polyline class="cls-1" points="153.3 194 152.7 194.1 145.2 194.4 133.4 195 133.6 171.4"/><line class="cls-1" x1="153.6" y1="170.9" x2="133.6" y2="171.4"/><polyline class="cls-1" points="155.6 193.9 153.3 194 153.6 170.9"/><polyline class="cls-1" points="153.9 149.7 153.6 170.9 166 170.7 166 170.7"/><line class="cls-1" x1="171.4" y1="150.7" x2="171.4" y2="149.8"/><polyline class="cls-1" points="154.2 126.6 171.8 127.1 171.4 149.8 153.9 149.7"/><polyline class="cls-1" points="134 126 152.2 126.6 154.2 126.6 153.9 149.7 133.8 149.7"/><polyline class="cls-1" points="133.8 149.7 133.6 171.4 114.4 171.8 114.4 149.6"/><polygon class="cls-1" points="133.8 149.7 114.4 149.6 114.5 125.5 134 126 133.8 149.7"/><polyline class="cls-1" points="107.1 192.2 113.8 196.2 113.9 171.8"/><polyline class="cls-1" points="100.9 188.6 107.1 192.2 107.2 169.8"/><line class="cls-1" x1="101" y1="167.9" x2="107.2" y2="169.8"/><polyline class="cls-1" points="96.1 166.5 96.1 185.7 100.9 188.6 101 167.9"/><polyline class="cls-1" points="96.2 149 96.1 166.5 101 167.9 101 149.2"/><polyline class="cls-1" points="101.1 129 96.3 130.2 96.2 149 101 149.2"/><polyline class="cls-1" points="107.3 127.4 101.1 129 101 149.2 107.2 149.4"/><polyline class="cls-1" points="107.2 149.4 107.2 169.8 113.9 171.8 114 149.6"/><polygon class="cls-1" points="107.2 149.4 114 149.6 114.1 125.7 107.3 127.4 107.2 149.4"/><path class="cls-2" d="m180.3,65.1c3.4.1,7.2.5,9.6,1.4-1.1-5.5-4-19.7-13.8-25.5-1.5.4-2.6,1-3.5,1.8,0,0-.3-1.1-.9-2.4-.3-.8-.7-1.6-1.1-2.3-.5-.8-1-1.5-1.7-2-5.4.7-35.7,9.7-38.8,38.7,3-1.7,6.8-3.6,11.7-5.3,1-.4,2-.7,3.1-1,6.3-1.9,14.2-3.4,24-3.8l2.6-16.6,2.1,17s3-.1,6.7,0Z"/><path class="cls-2" d="m170.6,38s2.5,1.1,4.4,1.4"/><path class="cls-2" d="m171.8,40.3s1.6-.5,3.3-.9c1.6-.4,3.4-.8,4.1-.7,1.5.2,26.4,13.3,24.7,31-1.7,17.7-8.3,26.9-12.9,30.2-3.2,0-6.6-.1-9.8-.2-1.5,0-2.9-.1-4.2-.2-1.6-.1-3.1-.3-4.2-.5,3.3-7.5,9.1-20.4,7.5-33.8"/><path class="cls-2" d="m141.8,69.5s2,24.2-1.6,32.8c3.1,1,11.5,1,14,.5"/><path class="cls-2" d="m177,99.4s-4.5,2-9.6,3.5c-3.5,1.1-7.3,1.9-10,1.8-.7,0-1.8-.8-3.2-2-4-3.6-9.7-11.3-10.1-17.5,0-3.2,2-3.8,2.1-5.8,0,0-.4-5.5-1.3-8.1-.2-1.9,0-2.9,0-2.9"/><path class="cls-2" d="m167.2,110.9c.2-.7.3-1.6.4-2.5,0-1.2,0-2.4,0-3.4,0-1.1-.1-2-.1-2"/><path class="cls-2" d="m181.2,100.2s1,0,2,.7c.8.5,1.6,1.4,2,2.1.2.3.3.5.3.7-2,3.2-4.2,6.1-6.2,7.6-1.9,1.5-8.8,7.1-11.9,6,0,0-3-1.2-2.6-4.6.2-2.1.7-4.3,1.3-5.9.4-1,.9-1.8,1.4-2"/><path class="cls-2" d="m167.6,108.3s0,0,0,0c-.5.6-1.2,5.3.9,5.2,2.2-.1,7.1-5.4,7.1-5.4,3.2-2.6,5.6-7.9,5.6-7.9"/><path class="cls-2" d="m185.1,103.1h0c.5,0,8.2,0,11.4.2.3,0,.6,0,.8,0,1.8,2.5,5.6,8.8-1.5,37.9-1.3.9-3.9,2-7.1,2.5-1.1.2-2.2.2-3.3.2-3.5,0-7.2-1-10.4-3.7-.4-.4-.8-.8-1.2-1.2,2-4.2,8.4-17.4,8.4-17.4"/><path class="cls-2" d="m196.5,104.2s-8.4,3.9-12.7,13.4"/><path class="cls-2" d="m162.3,108.7c-.6,1-5.7,9.4-7.8,17.3"/><line class="cls-2" x1="165.8" y1="106.9" x2="162.3" y2="108.6"/><path class="cls-2" d="m162.3,108.6s0,0,0,.1c-.8.9-7.9,9.8-10,17.3"/><path class="cls-2" d="m188.8,143.8s-7.8,13.7-8.6,18.7c-.8,5,3.2,13.7,3.2,13.7,0,0-.8.8-2.1,1.8-2.4,1.9-6.5,4.7-9.5,5"/><path class="cls-2" d="m185.4,144s-3.5,4.4-4.9,5.8c-.3.3-.5.6-.8.9-.8,1.1-1.3,2.2-1.3,2.6"/><polyline class="cls-2" points="161.4 192.9 161.4 192.9 159.4 194.4"/><path class="cls-2" d="m163.1,186s-4.1,1.8-4.8,3.1c-.2.3-.5.6-.9.8-1.1.7-2.9,1-3.4.8-.7-.2-.1,2.6,1.7,2.9,0,0,0,0,0,0,1.8.3,5.3-.7,5.7-.8"/><path class="cls-2" d="m175,140.3c-.1.6-1.6,5.1-2.3,8.4-.2.8-.3,1.5-.4,2.1"/><path class="cls-2" d="m172.8,148.7s-.6,1-1.5,2.5c-1.3,2.3-3,5.8-3.6,8.9-.4,2.1-1,6.2-1.7,10.6h0c-1,6.5-2.1,13.4-2.9,15.4"/><path class="cls-2" d="m185.7,221.3c-2.2,1.5-5.2,3-8.1,3.4-2,.2-4.1,0-6.1-.5-3.7-.9-6.6-2.4-6.6-2.4l-3.4-21.7"/><path class="cls-2" d="m181.3,177.9s6.2,5,6.8,14.5c.6,9.5,1.3,25.9,1.3,25.9,0,0-1.5,1.4-3.7,2.9"/><path class="cls-2" d="m154.8,265.9c0-.5.1-1.1.2-1.7,1.2-6.3,7.1-18.6,7.6-25.4.2-3.3-2.4-9.4-2.3-10,.1-.6,1.3-5.8,1.3-5.8"/><path class="cls-2" d="m148.2,222.4s-.9,2.5-.9,4.3.9,26.6-.5,36.8"/><path class="cls-2" d="m155,264.2h0c.2,0,1.6.4,1.4,1.7-.2,1.4,1.3,7.5.8,8.8,0,.1-.1.3-.3.4-1.2,1.4-5.9,3.7-6.5,4.4-.6.7-4.9,4.9-7.4,6.5-.3.2-.6.4-.9.5-2.2.9-14.2,2.7-17.3-3,0-.2,0-.5,0-.7.3-4.4,4.8-8.2,7.9-8.9.4,0,.7-.1,1-.1,1.1,0,2.7.7,4.2,1.8,2.8,2,5.4,5.6,4.9,10.4"/><path class="cls-2" d="m138.1,275.6s4.5-3.7,8-6c.7-.5,1.5-.9,2.1-1.3.8-.4,1.4-.7,1.7-.6,1.5.5,1.8.9,2.9.5.7-.3,1.5-1.5,2-2.3.3-.4.4-.8.4-.8"/><path class="cls-2" d="m141.4,264.7c.7-.6,2.4-.5,3.3-.5,1.1,0,3.9,2,1.5,5.4"/><path class="cls-2" d="m132.8,273.9l8.7-5.6s-.6-2-.4-3.2c0-.2.1-.3.3-.5"/><path class="cls-2" d="m148.2,268.3s1.4-2.3,0-3.8c-.4-.5-.9-.8-1.5-1-1.1-.5-2.3-.5-2.9-.6-.6,0-1.9.8-2.4,1.7,0,0,0,0,0,0-.1.2-.2.3-.3.5"/><path class="cls-2" d="m124.9,282.8l-.9.8v2.7s4.9,3.9,8.8,4.2c3.9.3,9.4-.5,12.1-3,2.8-2.4,5.6-6.3,6.4-6.8s5.6-2.9,5.6-2.9c0,0,.4-1.3,0-2.7"/><path class="cls-2" d="m171.5,224.1c.4,3.3,3.8,8.6,4,10.6s-.5,8.2,0,11.5c.5,3,5.4,14.5,5.6,21,0,.4,0,.8,0,1.2,0,.2,0,.4,0,.6"/><path class="cls-2" d="m185.7,221.3h0c-.2.5,0,7.3,0,10.4,1,3.7,2.2,6.1,3,10.8.7,4.5-.5,19.2,0,24,0,.3,0,.5,0,.7"/><path class="cls-2" d="m183.4,229.2c0,.3,2.1,3,1.3,7.5"/><path class="cls-2" d="m176.3,232.1s0,2.9,1.7,4.5"/><path class="cls-2" d="m196.1,278.9c-1-1.9-2.7-4.2-5.1-7.2-.6-1.8-.3-3.6-2.4-5.2"/><path class="cls-2" d="m176.5,283.4c0,.2,0,.4-.1.5,0,.4-.1.6-.1.6,0,0,1.2,7.6,11.7,7,8.8-.5,9.8-4.6,9.9-6,0-.3,0-.4,0-.4,0,0,.8-1.7-1.8-6.2"/><path class="cls-2" d="m181,267.2h0c-.2.1-1.6,1.2-1.5,1.9,0,.6-2.2,11-3,14.4"/><path class="cls-2" d="m176.5,283.4h0c.2-.3,3.1-4,7.3-6,2.2-1,4.8-1.6,7.6-.9,1.5.4,3.1,1.1,4.7,2.3h0"/><polyline class="cls-2" points="181.5 269.9 181.9 271.1 183.9 277.4"/><line class="cls-2" x1="181" y1="268.4" x2="181.5" y2="269.9"/><path class="cls-2" d="m189.5,268.8c-.8-1.5-2.6-1.3-3.2-1.4-.7,0-4.2.6-4.4,3.7"/><path class="cls-2" d="m191.5,276.5l-2.6-4s1.4-.5,1-3c0-.3-.1-.6-.3-.8"/><path class="cls-2" d="m181.5,269.9h0c0-.5.1-3,3.4-3.6,1.7-.3,2.9,0,3.7.9.4.4.7.9,1,1.5,0,0,0,0,0,0,.1.3.2.5.3.8"/><path class="cls-2" d="m176.3,283.9l-.8,1,.4,4.5s4.5,5.8,11.3,5.1c6.8-.8,11.3-5.2,11.3-5.2,0,0,.3-2.6-.5-3.7"/><path class="cls-2" d="m153.6,80.9c0,1.8-.4,3.4-2.5,2.6,0,1.6.3,3.2,1.7,3.7"/><path class="cls-2" d="m147.7,70.8s.9-1.5,2-1.5c1,0,2,1.5,2,1.5"/><path class="cls-2" d="m164.9,68.5s.2-2.4,2.9-2c2.7.4,2.6,3.6,2.6,3.6"/><path class="cls-2" d="m161.1,91s-1.9,2.8-5.2,2.7c-3.3-.1-4.3-2-4.3-2"/><path class="cls-2" d="m168.4,76.1c0,1.6-.7,2.8-1.5,2.8s-1.5-1.2-1.5-2.8.7-2.8,1.5-2.8,1.5,1.3,1.5,2.8Z"/><path class="cls-2" d="m150.6,76.6c0,1.3-.3,2.3-.7,2.3s-.7-1-.7-2.3.3-2.4.7-2.4.7,1.1.7,2.4Z"/></svg>