<?xml version="1.0" encoding="UTF-8"?><svg id="Layer_5" xmlns="http://www.w3.org/2000/svg" width="300" height="300" viewBox="0 0 300 300"><defs><style>.cls-1{stroke:#fff;stroke-width:1.5px;}.cls-1,.cls-2{fill:none;stroke-miterlimit:10;}.cls-2{stroke:#000;stroke-width:1px;}.cls-3{fill:#4d0099;}.cls-3,.cls-4,.cls-5,.cls-6,.cls-7,.cls-8,.cls-9,.cls-10{stroke-width:0px;}.cls-4{fill:#626365;}.cls-5{fill:#967246;}.cls-6{fill:#e1c0a5;}.cls-7{fill:#b3282e;}.cls-8{fill:#3246ff;}.cls-9{fill:#ffd204;}.cls-10{fill:#050504;}</style></defs><path class="cls-6" d="m185.6,253.5c-.3-.6-1.6-5.3.4-10.1,2.1-5.1,7.8-5.2,7.8-5.2,1,.2,1.9.6,2.4,1,0,0,1.3.2,2.6.5,1.3.3,4.5,1.6,5.3,2.6.6.7,3,4.1,2.8,7.6h0s2.9,6.2-1.9,10.6c-4.8,4.4-15.1,11.6-16.5,16v.2c-.6-.2-1.3-.3-2.2-.2-4.3-.3-5.5,2.1-5.6,4.3h-.2c-1.4,1.1-2.4.5-2.8,0,0,0,.1-.5.3-1.4.8-3.2,2.6-10.8,3-11.9.5-1.4,1.4-8.5,3.6-12.5.3-.5.6-1,1-1.4Z"/><path class="cls-7" d="m198.5,290.5s.2,1.9,0,2c-.2.2-6.1,2.5-11.8,1.8-5.7-.7-10.8-4.1-10.8-4.1v-1.6c.1.1.2.2.2.3.5.4,1.5,1,2.7,1.5h0c2.1.9,5,1.7,8.3,1.6,5.3-.1,10.7-1.6,10.7-1.6,0,0,0-.2,0-.4h.2l.5.4Z"/><path class="cls-7" d="m190.3,281.1c7,.8,7.5,7.3,7.4,9,0,.3,0,.4,0,.4,0,0-5.4,1.5-10.7,1.6-3.3,0-6.2-.7-8.3-1.6h0c-.2-1.1.3-4,2.4-6.3.4-.4.8-.8,1.3-1.2,1.6-1.2,3.9-2.1,7-1.9.3,0,.6,0,.8,0Z"/><path class="cls-4" d="m185,238.8c1.8-.7,3.6-1.1,5.4-1.2,0,0,1.8.2,3.5.6,0,0-5.7.2-7.8,5.2-2,4.9-.7,9.6-.4,10.1-.4.4-.7.8-1,1.4-2.2,4-3.1,11.1-3.6,12.5-1.7,2.2-5.7,4.8-8.5,5.4-2.2.5-4.2,0-4.9-.3l.3-14.8h0c1.3-3.5,2.6-7,3.6-9.7h0c.4-.4,6.6-6.6,13.5-9.2Z"/><path class="cls-7" d="m188.5,276.6c2.7.8,2.1,4,1.8,4.5-.3,0-.6,0-.8,0-3.1-.2-5.4.7-7,1.9,0,0-2.1-6,3.9-6.5.9,0,1.6,0,2.1.2Z"/><path class="cls-9" d="m147.7,214.7l-1.7-.4-7.8-1.7c-.2-.3-.5-.9-.9-1.8,6.2-4.3,9.7-14.7,9.7-14.7,1.1-5.6,4.5-6.2,4.7-6.6.2-.3,5.4-3.1,5.4-3.1h.2c-.5,4.4.2,7.3,1.3,8.1,7.6.3,14.9-7.8,18.8-13,0-.4,0-.7,0-1h5.5c1.8-.3,3.8-.4,5.6.5,3.6,2,2.8,9.3.3,14.8-.3.7-.7,1.5-1.1,2.1,0,0-5.5,14.4-4,23.6-2.1.4-4.2.8-6.5.7-3.2,0-6.8-1-10.9-3.9,0,0,0,.2,0,.4l-7.3-1.6-11.3-2.5Z"/><path class="cls-9" d="m188.9,195.8h0c-.2,1.5-3.6,25-5.1,31.4.2,5.1.9,10.1,1.1,11.6-7,2.7-13.1,8.8-13.5,9.2.6-1.7,1.1-3.1,1.4-4,1.6-5.4,1.8-12.8,1.8-12.8,1-3,2.8-8.8,2.8-8.8h0c2.3,0,4.4-.3,6.5-.7-1.5-9.3,4-23.6,4-23.6.4-.7.7-1.4,1.1-2.1Z"/><path class="cls-7" d="m180.8,280.8c.2-2.2,1.3-4.6,5.6-4.3-6,.5-3.9,6.5-3.9,6.5-.5.4-.9.8-1.3,1.2,0,0-.5-1.6-.4-3.4Z"/><path class="cls-5" d="m123.5,149.9c-4.8,2-8.5,3.6-8.5,3.6,3.7-34.6,26.3-38.9,29.5-40.1.3,0,.7.2,1.1.4h0c.3,0,3.3.3,4.4.5.8-1,3.1-3.3,3.1-3.3,0,0,49.1,8.3,28.6,61.7,0,0-3.2.9-8.3,1.3-3,.3-6.7.4-10.8.2-.9,0-1.9-.1-2.9-.3,0,0,11.8-11.2,3.1-33.7h0c-5,.4-11.8,1.3-14,2.1-.9-1.4-4.2-11.6-4.2-11.6,0,0-.1,6.2,0,11.9-2.9.1-10.2,2.8-16.9,5.4-1.5.6-2.9,1.2-4.2,1.7Z"/><path class="cls-7" d="m177.7,280.8c.4.5,1.4,1.1,2.8,0h.2c-.1,1.8.4,3.4.4,3.4-2,2.3-2.6,5.2-2.4,6.3-1.2-.5-2.2-1.1-2.7-1.5,0-.1,0-.2,0-.3-.5-2.7.7-8.8.7-8.8l1.3-.5c-.2.9-.3,1.4-.3,1.4Z"/><path class="cls-9" d="m173.9,176.1s3.7,0,3.7,4.5c0,.3,0,.7,0,1-3.9,5.1-11.3,13.3-18.8,13-1.1-.8-1.8-3.7-1.3-8.1,0-.8.2-1.6.4-2.5.8-2.1,1.8-3,1.8-3h0c.1.6.2,1.2.2,1.6,0,.8.4,4,1,5.1,9.2-2.5,13.6-10.1,13.6-10.1l-.5-1.5Z"/><path class="cls-6" d="m173.9,176.1l.5,1.5s-4.4,7.6-13.6,10.1c-.6-1.1-1-4.3-1-5.1,0-.4,0-1-.2-1.6-.2-1.1-.6-2.5-1-3.5,1.4-.9,2.7-1.9,4-3v-.2c4.1.3,7.8.1,10.8-.2v.3s.6,1.6.6,1.6Z"/><path class="cls-6" d="m143.9,181.6h0c-6.8-2.9-12.7-11-13.7-14.5-1.2-4,0-10.3,0-11.7,0-1.4-2.5-7.2-2.5-7.2,6.6-2.7,14-5.3,16.9-5.4-.1-5.7,0-11.9,0-11.9,0,0,3.3,10.2,4.2,11.6,2.2-.8,9-1.8,14-2.1h0c8.6,22.5-3.1,33.7-3.1,33.7,1,.1,2,.2,2.9.3v.2c-1.3,1-2.6,2-4,3-4.7,3.2-9.5,5.3-11.8,5.1-1-.2-2-.5-2.9-.9Zm8.8-22.9c.9-.1,1.5-1.7,1.2-3.6-.2-1.9-1.1-3.3-2-3.2-.9.1-1.5,1.7-1.2,3.6s1.1,3.3,2,3.2Zm-17.5,0c.6-.1.8-1.4.5-2.8-.3-1.4-1-2.4-1.6-2.3-.6.1-.8,1.4-.5,2.8.3,1.4,1,2.4,1.6,2.3Z"/><path class="cls-6" d="m166.4,218.4s0,.2,0,.4c-.4,1.8-1.7,8.7-1.8,9.3,0,.6-2.8,5.5-4.2,9.2l-.4,1.4c0,.2-.1.3-.1.5-.5,2.4-.5,11.2-1.4,19.3h0v.6c-.1,0-.1.1-.1.2-.2,1.3-.4,2.5-.6,3.7-.5,2.8-1.2,5.2-2.2,7-.9.4-2.1.9-2.5,1.6-.7,1.2-1.1,2.1-1.9,2.7-.8.6-4.1,1.3-4.1,1.3,0,0-.7,3.2,1.7,3.4,2.4.2,3.2-1.5,4.4-1.1,1,.3,1.8,1.9,1.8,3.3h0c0,0-5.6,2.2-5.6,2.2.3.1,4.7,1.7,6.8,2.2.6.1,1,.2,1.1.2.8-.2,1-1.3,1.4-1.4.4-.1,1.4.5,1.9.3.5-.1,1-1,1.2-1.1.3-.1,1.2-.5,1.4-.6.2,0,.2-.9.4-1,.2,0,.9-.2,1.1-.7,0-.2.2-1.8.2-3.8h0,0c0-2.8-.3-6.2-1-8.3.8-2.6,2.5-6.9,4.1-11.4,1.3-3.5,2.6-7,3.6-9.7h0c.6-1.7,1.1-3.1,1.4-4.1,1.6-5.4,1.8-12.8,1.8-12.8,1-3,2.8-8.8,2.8-8.8h0c-3.2-.1-6.8-1.1-10.9-3.9Z"/><path class="cls-7" d="m156,287.4s.4.9.3,1.2c-.1.3-8.7,4.7-13,4.7s-8.3-.6-11-2.7v-.8c0,0,2.7-1,2.7-1,.8.6,4.2,1.8,7.7,1.8s12.7-2.9,13.3-3.2Z"/><path class="cls-7" d="m156,285.7s.6,1.5,0,1.7c-.6.3-9.6,3.2-13.3,3.2s-6.9-1.2-7.7-1.8l10.3-4,3.9-1.5c.3.1,4.7,1.7,6.8,2.2v.2Z"/><path class="cls-10" d="m153.9,155.1c.2,1.9-.3,3.5-1.2,3.6s-1.8-1.4-2-3.2.3-3.5,1.2-3.6c.9-.1,1.8,1.4,2,3.2Z"/><path class="cls-5" d="m143.9,181.6c-2.6.4-11.3.3-16.5,0,5.3-14.1-3.5-31-3.9-31.7,1.3-.6,2.8-1.1,4.2-1.7,0,0,2.5,5.8,2.5,7.2,0,1.4-1.2,7.7,0,11.7,1,3.5,7,11.6,13.7,14.5Z"/><path class="cls-10" d="m135.8,155.9c.3,1.4,0,2.6-.5,2.8-.6.1-1.3-.9-1.6-2.3-.3-1.4,0-2.6.5-2.8.6-.1,1.3.9,1.6,2.3Z"/><polygon class="cls-3" points="138.2 212.6 131 211 130.7 238.1 130.7 238.3 145.8 238.5 146 214.3 138.2 212.6"/><polygon class="cls-3" points="115.2 214 115.1 238.1 130.6 238.1 130.8 210.9 131 211 131 210.7 115.2 214"/><polygon class="cls-3" points="131 211 130.7 238.1 130.6 238.1 130.8 210.9 131 211"/><path class="cls-8" d="m167.9,257.8c-1.7,4.5-3.3,8.8-4.1,11.4.8,2.1,1,5.6,1,8.3h0c0,0,0,0,0,0l2.8-1.1v-3.8c0,0,.3-14.8.3-14.8h0Z"/><path class="cls-8" d="m166.4,218.8l-7.3-1.6-11.3-2.5-1.7-.4-.3,24.2-15.1-.2v-.2h-15.6s.1-24.2.1-24.2l-13.3,2.7-9.7,2v19.4c0,0,.1,17.8.1,17.8v19.4c0,0,9.6,3.8,9.6,3.8l13,5.2,15.3,6.1.3-27.1v-9.6c.1,0,0,9.7,0,9.7v27.2c-.1,0,1.9-.8,1.9-.8l2.7-1,10.3-4,3.9-1.5,5.6-2.1h0c0-1.5-.8-3.2-1.8-3.4-1.2-.3-2,1.3-4.4,1.1-2.4-.2-1.7-3.4-1.7-3.4,0,0,3.3-.6,4.1-1.3.8-.6,1.2-1.5,1.9-2.7.4-.7,1.6-1.3,2.5-1.6,1-1.8,1.7-4.2,2.2-7l.6-3.7c0,0,0-.1,0-.2v-.6c.1,0,0,0,0,0h-.4c0,0,.7-19.8.7-19.8h1.2s.4-1.3.4-1.3c1.3-3.7,4.1-8.6,4.2-9.2.1-.6,1.4-7.5,1.8-9.3Z"/><path class="cls-2" d="m167.6,272.6c.7.2,2.7.8,4.9.3,2.8-.6,6.9-3.3,8.5-5.4"/><path class="cls-2" d="m157.2,186.5s-5.2,2.8-5.4,3.1c-.2.3-3.6,1-4.7,6.6,0,0-3.5,10.3-9.7,14.7.3.9.7,1.5.9,1.8"/><path class="cls-2" d="m150.1,195.4s-2.2,10.6-2.3,19.3"/><polyline class="cls-1" points="145.3 284.9 135 288.8 132.3 289.8 130.4 290.6 130.5 263.4"/><polyline class="cls-1" points="158 258.6 158.4 258.5 158.4 258.5"/><polyline class="cls-1" points="154.8 281.2 149.2 283.4 145.3 284.9 145.5 260.8"/><line class="cls-1" x1="158" y1="258.6" x2="145.5" y2="260.8"/><polyline class="cls-1" points="167.9 257.8 167.6 272.6 167.5 276.4 164.8 277.4 164.7 277.4"/><line class="cls-1" x1="158.5" y1="256.2" x2="158.7" y2="238.7"/><line class="cls-1" x1="159" y1="217.2" x2="166.4" y2="218.8"/><line class="cls-1" x1="160" y1="238.7" x2="158.7" y2="238.7"/><polyline class="cls-1" points="146 214.3 147.7 214.7 159 217.2 158.7 238.7 145.8 238.5"/><polyline class="cls-1" points="145.8 238.5 145.5 260.8 130.5 263.4 130.5 253.7"/><polyline class="cls-1" points="131 211 138.2 212.6 146 214.3 145.8 238.5 130.7 238.3"/><polyline class="cls-1" points="114.9 284.3 130.2 290.4 130.4 263.2"/><polyline class="cls-1" points="101.9 279.1 114.9 284.3 115 260.3"/><line class="cls-1" x1="101.9" y1="257.8" x2="115" y2="260.3"/><polyline class="cls-1" points="92.3 255.9 92.3 275.3 101.9 279.1 101.9 257.8"/><polyline class="cls-1" points="92.2 238.1 92.3 255.9 101.9 257.8 101.9 238.1"/><polyline class="cls-1" points="101.9 216.7 92.2 218.7 92.2 238.1 101.9 238.1"/><polyline class="cls-1" points="115.2 214 101.9 216.7 101.9 238.1 115.1 238.1"/><polyline class="cls-1" points="115.1 238.1 115 260.3 130.4 263.2 130.5 253.7 130.7 238.3 130.7 238.1"/><polygon class="cls-1" points="115.1 238.1 130.6 238.1 130.7 238.1 131 211 131 210.7 115.2 214 115.1 238.1"/><path class="cls-2" d="m145.6,113.8c-.4-.3-.8-.4-1.1-.4-3.3,1.2-25.9,5.5-29.5,40.1,0,0,3.7-1.6,8.5-3.6,1.3-.6,2.8-1.1,4.2-1.7,6.6-2.7,14-5.3,16.9-5.4-.1-5.7,0-11.9,0-11.9,0,0,3.3,10.2,4.2,11.6,2.2-.8,9-1.8,14-2.1,2.5-.2,4.5-.2,5.4,0-1.1-3.6-3.4-14.6-14.2-20.1"/><path class="cls-2" d="m148.1,116.1s-1.2-1.5-2.4-2.2"/><path class="cls-2" d="m145.6,113.8h0c.3,0,3.3.3,4.4.5.8-1,3.1-3.3,3.1-3.3,0,0,49.1,8.3,28.6,61.7,0,0-3.2.9-8.3,1.3-3,.3-6.7.4-10.8.2-.9,0-1.9-.1-2.9-.3,0,0,11.8-11.2,3.1-33.7"/><path class="cls-2" d="m143.9,181.6c0,0,.1,0,.2,0"/><path class="cls-2" d="m123.5,149.9h0c.4.7,9.2,17.5,3.9,31.7,5.2.3,13.9.4,16.5,0"/><path class="cls-2" d="m127.7,148.2s2.5,5.8,2.5,7.2c0,1.4-1.2,7.7,0,11.7,1,3.5,7,11.6,13.7,14.5h0c.9.4,1.9.7,2.9.9,2.2.2,7.1-1.9,11.8-5.1,1.4-.9,2.7-1.9,4-3"/><path class="cls-2" d="m173.4,174.5l.6,1.6.5,1.5s-4.4,7.6-13.6,10.1c-.6-1.1-1-4.3-1-5.1,0-.4,0-1-.2-1.6-.2-1.1-.6-2.5-1-3.5"/><path class="cls-2" d="m173.9,176.1s3.7,0,3.7,4.5c0,.3,0,.7,0,1-3.9,5.1-11.3,13.3-18.8,13-1.1-.8-1.8-3.7-1.3-8.1,0-.8.2-1.6.4-2.5.8-2.1,1.8-3,1.8-3"/><line class="cls-2" x1="177.6" y1="180.6" x2="183" y2="180.6"/><path class="cls-2" d="m178.5,182.5s2-1.3,4.6-1.9c1.8-.4,3.8-.5,5.6.4,3.6,2,2.8,9.3.3,14.8-.3.7-.7,1.5-1.1,2.1,0,0-5.5,14.4-4,23.6-2.1.4-4.2.8-6.5.7-3.2,0-6.8-1-10.9-3.9-1.4-1-2.9-2.2-4.5-3.6,2.3-5.6,11.9-21.8,12.5-22.2"/><path class="cls-2" d="m189,195.8s0,0,0,0c-.2,1.5-3.6,25-5.1,31.4.2,5.1.9,10.1,1.1,11.6,0,.3,0,.4,0,.4"/><path class="cls-2" d="m156.8,269.5s0,0-.1,0c-.2,0-.6.2-1.2.4-.9.4-2.1.9-2.5,1.6-.7,1.2-1.1,2.1-1.9,2.7-.8.6-4.1,1.3-4.1,1.3,0,0-.7,3.2,1.7,3.4,2.4.2,3.2-1.5,4.4-1.1,1,.3,1.8,1.9,1.8,3.3,0,.3,0,.6,0,.8-.7-.2-.9-.2-.9-.2"/><path class="cls-2" d="m149.2,283.3h0c.3.1,4.7,1.7,6.8,2.2.6.1,1,.2,1.1.2.8-.2,1-1.3,1.4-1.4.4-.1,1.4.5,1.9.3s1-1,1.2-1.1c.3-.1,1.2-.5,1.4-.6.2,0,.2-.9.4-1,.2,0,.9-.2,1.1-.7,0-.2.2-1.8.2-3.8h0c0-2.8-.3-6.2-1-8.3,0,0,0-.1,0-.2"/><path class="cls-2" d="m177.4,222.3s-1.8,5.8-2.8,8.8c-.3.8-.5,1.4-.6,1.7"/><path class="cls-2" d="m171.4,248c-1,2.8-2.3,6.3-3.6,9.7-1.7,4.5-3.3,8.8-4.1,11.4-.3,1-.5,1.8-.6,2.1"/><path class="cls-2" d="m174.6,231.1s-.2,7.5-1.8,12.8c-.3,1-.8,2.4-1.4,4"/><path class="cls-2" d="m171.4,248h0c.4-.4,6.6-6.6,13.5-9.2,1.8-.7,3.6-1.1,5.4-1.2,0,0,1.8.2,3.5.6,1,.2,1.9.6,2.4,1,0,0,1.3.2,2.6.5,1.3.3,4.5,1.6,5.3,2.6.6.7,3,4.1,2.8,7.6,0,1.4-.5,2.7-1.7,4"/><path class="cls-2" d="m193.9,238.2s-5.7.2-7.8,5.2c-2,4.9-.7,9.6-.4,10.1,0,0,0,0,0,0"/><path class="cls-2" d="m191.8,251.2s-3.8-.2-6.2,2.3c-.4.4-.7.8-1,1.4-2.2,4-3.1,11.1-3.6,12.5-.4,1.1-2.2,8.7-3,11.9-.2.9-.3,1.4-.3,1.4"/><path class="cls-2" d="m207,249.9s2.9,6.2-1.9,10.6c-4.8,4.4-15.1,11.6-16.5,16"/><path class="cls-2" d="m178,279.3l-1.3.5s-1.2,6.2-.7,8.8c0,.1,0,.2,0,.3.5.4,1.5,1,2.7,1.5h0c2.1.9,5,1.7,8.3,1.6,5.3-.1,10.7-1.6,10.7-1.6,0,0,0-.2,0-.4,0-1.7-.4-8.2-7.4-9-.3,0-.6,0-.8,0-3.1-.2-5.4.7-7,1.9-.5.4-.9.8-1.3,1.2-2,2.3-2.6,5.2-2.4,6.3"/><path class="cls-2" d="m177.4,280.3s.1.2.3.4c.4.5,1.4,1.1,2.8,0"/><path class="cls-2" d="m182.5,283s-2.1-6,3.9-6.5c.9,0,1.6,0,2.1.2,2.7.8,2.1,4,1.8,4.5h0"/><path class="cls-2" d="m181.2,284.2s-.5-1.6-.4-3.4c.2-2.2,1.3-4.6,5.6-4.3"/><path class="cls-2" d="m197.9,290.1l.5.4s.2,1.9,0,2c-.2.2-6.1,2.5-11.8,1.8-5.7-.7-10.8-4.1-10.8-4.1v-1.6"/><path class="cls-2" d="m156,285.7s.6,1.5,0,1.7c-.6.3-9.6,3.2-13.3,3.2s-6.9-1.2-7.7-1.8h-.1"/><path class="cls-2" d="m156,287.4s.4.9.3,1.2c-.1.3-8.7,4.7-13,4.7s-8.3-.6-11-2.7v-.8c0,0,.1-.8.1-.8"/><path class="cls-2" d="m166.4,218.4s0,.2,0,.4c-.4,1.8-1.7,8.7-1.8,9.3,0,.6-2.8,5.5-4.2,9.2-.2.5-.3.9-.4,1.4,0,.2-.1.3-.1.5-.5,2.4-.5,11.2-1.4,19.3,0,.2,0,.4,0,.6,0,0,0,.1,0,.2-.2,1.3-.4,2.5-.6,3.7-.5,2.8-1.2,5.2-2.2,7"/><path class="cls-2" d="m132,150.4s1-1.4,2.2-1.4,2.1.9,2.1.9"/><path class="cls-2" d="m149.6,148.2s1.2-1,3-.4c1.7.6,2.1,2.1,2.1,2.1"/><path class="cls-2" d="m139.2,163s.1,2-2.4,1.5c.3,1.5,1.6,3.2,3.2,3.4"/><path class="cls-2" d="m149.8,172.2s-2.6,1.7-5.5,1.4c-3-.3-4.3-1.4-4.3-1.4"/><path class="cls-2" d="m153.9,155.1c.2,1.9-.3,3.5-1.2,3.6s-1.8-1.4-2-3.2.3-3.5,1.2-3.6c.9-.1,1.8,1.4,2,3.2Z"/><path class="cls-2" d="m135.8,155.9c.3,1.4,0,2.6-.5,2.8-.6.1-1.3-.9-1.6-2.3-.3-1.4,0-2.6.5-2.8.6-.1,1.3.9,1.6,2.3Z"/></svg>