<?xml version="1.0" encoding="UTF-8"?><svg id="Layer_5" xmlns="http://www.w3.org/2000/svg" width="300" height="300" viewBox="0 0 300 300"><defs><style>.cls-1{fill:none;stroke:#231f20;stroke-width:.5px;}.cls-1,.cls-2,.cls-3{stroke-miterlimit:10;}.cls-2{fill:#3246ff;}.cls-2,.cls-3{stroke:#fff;stroke-width:4.2px;}.cls-3{fill:#4d0099;}.cls-4{fill:#626365;}.cls-4,.cls-5,.cls-6,.cls-7,.cls-8,.cls-9,.cls-10{stroke-width:0px;}.cls-5{fill:#967246;}.cls-6{fill:#231f20;}.cls-7{fill:#e1c0a5;}.cls-8{fill:#b3282e;}.cls-9{fill:#ffd204;}.cls-10{fill:#050504;}</style></defs><rect class="cls-2" x="41.8" y="183.7" width="70.4" height="76.5"/><rect class="cls-2" x="112.3" y="183.7" width="76.5" height="76.5"/><rect class="cls-2" x="112.3" y="114.3" width="76.5" height="69.4"/><rect class="cls-2" x="188.7" y="183.7" width="69.4" height="76.5"/><rect class="cls-2" x="188.7" y="114.3" width="69.4" height="69.4"/><rect class="cls-2" x="188.7" y="39.8" width="69.4" height="74.5"/><rect class="cls-2" x="112.3" y="39.8" width="76.5" height="74.5"/><rect class="cls-2" x="41.8" y="114.3" width="70.4" height="69.4"/><rect class="cls-3" x="41.8" y="39.8" width="70.4" height="74.5"/><path class="cls-6" d="m285,113.4c17.3,19,15.3,41.9,3.1,63-.1,0-.4,0-.5,0,0,0,0,0,0,0l-.3-.7h0c0-.1.3,0,.3,0,0,0,0,.2-.1.2l.3-.2h-.2c8-15.9,12.7-35,3.3-51.2-3.5-6.7-9.2-16.4-18-15h0s-.7-.5-.7-.5c4.7-1.7,9.5,1.2,12.7,4.5Z"/><path class="cls-5" d="m296.5,144.1c-.1-11-9.7-36.8-23.5-34.7l-.4.5-3.2-2.2,1.4,3.1-.6.3-1.9-4.1s0-.2,0-.2c-19-1.6-38.5,11.2-41.4,30.8,11.9-4.4,25.3-4.2,37.8-2.4.4-1.4,4.1-15.2,4.3-16.1,0,1,1,14.3,1.1,15.7,4.2,1.7,10.5,3.1,15,4.3,2.7-8.4-2-17.4-8-23.2l.5-.5c6.3,6.1,11.2,15.8,7.9,24.5h-.3c0,0-6-1.6-6-1.6.8,10.9-1.1,23.2-9.1,31.3,5.8,2,11.7,4.3,17.6,5.9,4.6-9.9,8.7-20.4,8.7-31.5Z"/><path class="cls-6" d="m288,175.6l-.3.2c0,0,0-.2.1-.2h.2Z"/><path class="cls-6" d="m287.4,175.6l.3.7c-1.5-.2-2.9-.6-4.3-1,2.2.3,3.8.4,4.1.3Z"/><path class="cls-6" d="m286.6,176.1l1,.2c-2.5.2-10.2-1.1-14.6-1.7,0-.2,0-.5,0-.7,4.4.7,9.4,1,13.6,2.2Z"/><path class="cls-6" d="m287.5,175.5h0c-3.8.3-10.4-2.1-14.5-3.2,0-.4,0-.6,0-.6h-.7c0,0,0,.2,0,.4-.2,0-.4-.1-.6-.2.2-.2.3-.3.3-.3l-.6-.4s-.1.2-.4.5c-.6-.2-1.3-.4-1.9-.6.1-.6.7-.9,1.1-1.3,5.7,2,11.5,4.2,17.3,5.8Z"/><path class="cls-6" d="m286.5,133c.1,2.4,0,4.8-1,7h-.3c0,0-6-1.6-6-1.6,0-.2,0-.3,0-.5h-.7c0,.2,0,.2,0,.3-3.1-.8-6.1-1.7-9.1-2.9,0-1.7-1.4-12.7-.3-14h0l1,13.5c0,0-.1,0-.2,0l.2.3v-.2c4.2,1.7,10.5,3.1,15,4.3,0,0,0,.2-.1.3l.4-.2h-.3c1.9-5.3,0-11-2.1-15.8-1.4-2.7-3.9-5.2-5.9-7.5l.5-.5c2.1,2.3,4.6,4.8,6,7.6,1.3,3,2.7,6.6,2.9,10Z"/><path class="cls-6" d="m285.3,139.2l-.4.2c0,0,0-.2.1-.3h.3Z"/><path class="cls-6" d="m284.5,195.7c0,4.7-.9,9.4-2.9,13.7-5.5,15.9-6.3,23.2-2.9,39.7-.6.4-1.2.8-1.8,1.1,0,0,0-.2,0-.3l-.7.2c0,.1,0,.3,0,.5-1.6.9-3.1,1.7-4.8,2.5v-.3s-.7,0-.7,0v.5c-.5.3-1.1.5-1.7.8v-.3s-.7,0-.7,0v.5c-1.6.6-3.2,1.1-5,1.3,0-.4,0-.4,0-.7h-1.5c5.8-.3,11.1-3.5,16.1-6.4,0,0,0,.2,0,.2l.2-.4c0,0-.1,0-.2.1-1-6.6-2.3-13.3-2.2-20,1.3-7.3,3.3-14.4,5.8-21.3,3.4-8.1,2.9-18.2-4.8-23.6.2-.4.3-.5.2-.8,4,3,7,7.5,7.5,12.6Z"/><path class="cls-9" d="m283.8,195.7c-2.4,19.8-12.1,32-5.8,53.1-14.6,9.5-25.3,8.5-35-6.5,1.7-5.8,2.8-12.1,3.4-18,.4.4,1,.9,1.4,1.3,7.2-7.5,15.3-14.7,24.8-19v-.7c-9.5,3.8-17.6,10.3-24.8,17.3-6.7-5.2-5.6-14.5-5.7-22,3.4-1.6,9.3-3.4,12.3-5.5,4.6-3.5,9.6-7.3,15.7-5.5v-.7c-.8-.2-1.7-.3-2.6-.4,2.8-1.3,7.9-2.3,9.4-5.1,3.7,2.8,6.5,7.1,7,11.8Z"/><path class="cls-5" d="m282.9,175.1c.1,0,.3,0,.5.1-3.1-.4-7.2-.9-10.3-1.4,0-.7,0-1.2,0-1.7,3.3,1,6.6,2,9.9,2.9Z"/><path class="cls-6" d="m279.4,142.3c0,9.7-2.1,20.3-9.3,27.4l-1.3-.5.3,1.4h0v.4c-.6-.1-1.7-.5-2.1-.6l1.1-1h0c8.8-7.5,11-20.1,10.5-31.2l.7.2c.1,1.3.2,2.6.2,3.9Z"/><path class="cls-6" d="m279.2,137.9c0,.2,0,.3,0,.5l-.7-.2c0,0,0-.2,0-.3h.7Z"/><path class="cls-7" d="m278.5,138.2c.5,11-1.7,23.6-10.5,31.2h0s-1.1,1-1.1,1c1.3.4,2.7.8,4,1.2-19.2,14.6-39.2-4.6-33.4-25.9-.6-3-2.2-6.4-2.8-9.2,9.9-2,20.4-2,30.4-.5,0-.3,3.3-12.4,3.4-12.7,0,.2.9,11.8.9,12,2.9,1.2,6,2.1,9.1,2.9Zm-7.7,2.5l.5-.5c-.8-1.4-4.7-2.5-6-1l.4.6c1.1-1.3,4.4-.1,5,.9Zm-1.5,10c2.4-.3,1.4-6.9-1-6.4-2.4.3-1.4,6.9,1,6.4Zm-9.4,13.6l-.6-.3c-.8,2.8-8.8,2.4-9.7.4l-.5.5c1.2,2.2,9.8,2.6,10.8-.6Zm-7.8-9.2c0-.3,0-.5,0-.7h-.2c0,1.5-1.2.8-2,.3-.4,1.8.1,4,2,4.6v-.4c-1.2-.4-1.7-1.9-1.5-3.2.6.3,1.5.3,1.6-.6Zm-5.7-5.5c1-1.6-.7-7.1-2.5-3.8-1,1.7.8,7.2,2.5,3.8Zm-1.3-8.2l.6-.3c-.4-1.4-3.4-1.6-3.6.6h.7c0-1.1,1.9-1.2,2.2-.3Z"/><path class="cls-6" d="m268.8,277.4s0,0,0,0c0,0,0,0,.2,0,0,0-.1,0-.1,0Zm-43.3-23.6v.4-.2c2.5,5.5,5.7,10.8,9.6,15.5,3.2,3,6.5,6.6,11,7.6h0s.2,0,.2,0c0,0,0,0,0,0,7.3,1.2,15.3.9,22.6.3,0,0,0,0,0,0,0,0,0,0,.1,0h0c2.3-2.1,4.5-4.4,6.5-6.7,3-6.2,1.8-13.5,1.2-20.1.2-.1.4-.3.7-.4,1.3,7,3,15.2-.6,21.7-2.1,2.5-4.3,5-6.8,7.2-.2.1-.4.2-.7.2-8.9.4-19,1.8-27.4-2h0c-2.7-2-5.3-4.3-7.6-6.7-4-4.9-7.2-10.5-9.5-16.4h0v-.2c0,0,.8-2.2.9-2.3,0,0,0,0,0,0l1.4-.6h0s-1.1,2.8-1.1,2.8c0,0,0-.1,0-.2Z"/><path class="cls-6" d="m278.2,248.6l-.2.4c0,0,0-.2,0-.2,0,0,.1,0,.2-.1Z"/><path class="cls-6" d="m277,249.9c0,0,0,.2,0,.3-.2.1-.4.3-.7.4,0-.2,0-.3,0-.5l.7-.2Z"/><path class="cls-4" d="m277,260.2c0,3.5-.1,7.2-1.9,10.4-1.9,2.4-4.2,4.7-6.5,6.7-8.5.4-18.2,1.7-26.3-1.7-2.5-1.9-5.1-4.1-7.3-6.3-3.9-4.6-7.1-9.9-9.5-15.5.6-1.4,1.7-4.1,2.3-5.5,6.7,16.5,30.6,40.3,35.6,7.4,1.7-.2,3.4-.7,5-1.3l.2,2.3,3.4-.2-.4-3.4c1.6-.8,3.2-1.6,4.8-2.5.5,3.2.6,6.4.6,9.6Z"/><path class="cls-6" d="m277,183.1c.1.3,0,.4-.2.8-.1,0-.2-.2-.3-.3l.4-.6s0,0,.1,0Z"/><path class="cls-6" d="m277,183s0,0,0,0c0,0,0,0-.1,0l-.4.6c.1,0,.2.2.3.3-1.8,2.7-7.2,4.5-10.4,5.1l-.2-.3c2.3-1.2,8.9-2.7,10-5.4-1.1-2.1.9-4.7-3-4.7,0-.2,0-.4,0-.7,4.4,0,2.8,2.4,3.7,5.1Z"/><path class="cls-9" d="m276.3,183.3h0c-1.1,2.7-7.7,4.2-10,5.4l.2.3c-2.6-.2-5.1.9-7.3,2.3v-.5c-.3-.3-5.4.7-4.6-1.2.9-2,1.5-4.5,3-6.1,0,.5.1,1.1.3,1.5h-.6c4.6,3.2,15.3-2.4,16.6-5.6l-.4-.3c0-.2,0-.3,0-.5,3.8,0,1.9,2.6,3,4.7Z"/><path class="cls-6" d="m273.4,179.1l.4.3c-1.3,3.2-11.9,8.7-16.6,5.7h.6s0,.1,0,.1l.4-.2c3,1.3,12.9-2,14.4-5.4,0,0,0,0,0,.1l.7-.2c0-.1,0-.3,0-.5Z"/><path class="cls-6" d="m273.5,179.6l-.7.2s0,0,0-.1c.3-.4.5-.6.5-.6h.1c0,.3,0,.4,0,.6Z"/><path class="cls-6" d="m273.4,179.1h-.1c0,0-.2.1-.5.5-.3-1.4-.5-6.3-.6-7.6.2,0,.5.1.7.2,0,.4,0,1,0,1.7,0,0-.2,0-.3,0v.7s.2,0,.3,0c0,1.1.1,2.3.2,3.3-.2,0-.4,0-.4,0l.2.7s.1,0,.3,0c0,.2,0,.4,0,.5Z"/><path class="cls-6" d="m273.3,177.9c0,.3,0,.5,0,.7-.2,0-.3,0-.3,0l-.2-.7s.2,0,.4,0Z"/><polygon class="cls-6" points="273.1 109.4 273 109.4 272.4 109.6 272.1 108.9 272.3 108.9 273.1 109.4"/><path class="cls-6" d="m273,173.9c0,.2,0,.5,0,.7-.1,0-.3,0-.4,0v-.7c.2,0,.3,0,.4,0Z"/><path class="cls-6" d="m273,109.4l-.4.5-3.2-2.2s-.6-1.3-.6-1.2l3.5,2.4h-.2c0,0,.3.7.3.7l.6-.2Z"/><path class="cls-6" d="m273,172.2c-.2,0-.5-.1-.7-.2,0-.2,0-.3,0-.3h.7s0,.2,0,.6Z"/><path class="cls-6" d="m272.5,205.8v.7c-9.4,4.3-17.5,11.5-24.7,19-.4-.4-1-.9-1.4-1.3,0-.5,0-1.2,0-1.7h-.7c0,.4,0,.7,0,1-1.8-1.9-3.2-4.1-3.8-6.6.4-.2.7-.3.7-.3l-.3-.6s-.2,0-.6.2c-.9-4.6-.6-9.3-.4-14,.2,0,.4-.1.5-.2l-.2-.7s-.1,0-.2,0c0-.3,0-.6,0-.9,2.2-.9,8.1-3.4,10.2-4.2,0,0,0,0,0,0h1c0,.1,0,.2,0,.2-2.3,1.1-8.1,3.4-10.6,4.4v-.2l-.2.3h.2c.1,5.8-.5,12,2,17.4.9,1.7,2.3,3.2,3.8,4.5-.2.2-.4.4-.6.6h1.2c-.2-.2-.4-.4-.6-.6,7.2-7,15.4-13.4,24.7-17.3Z"/><path class="cls-7" d="m272.3,172c0,1.4.3,6.2.6,7.6-1.5,3.4-11.4,6.6-14.4,5.4h.2c-.4-1.9-.4-5.5-.4-7.1,4.8-1.3,10.4-3,13.5-6,.2,0,.4.1.6.2Z"/><path class="cls-6" d="m271.6,253.1l.4,3.4-3.4.2-.2-2.3c.2,0,.5-.2.7-.3l.2,1.8h1.9c0-.1-.3-2.6-.3-2.6.2,0,.5-.2.7-.3Z"/><path class="cls-6" d="m271.4,171.1l.6.4s0,.1-.3.3c-.3,0-.5-.1-.8-.2.3-.3.4-.5.4-.5Z"/><path class="cls-6" d="m270.9,171.6c.3,0,.5.2.8.2-3.1,3-8.7,4.7-13.5,6,0-.3,0-.4,0-.4h-1.1s0,.3,0,.6c-2.4.6-4.8-.4-6.9-1.4h.5c0-.2,0-.8.1-.9,6,3.6,15.3-1,20.1-4.1Z"/><path class="cls-6" d="m271.6,252.8v.3c-.2.1-.4.2-.6.3v-.5c0,0,.6,0,.6,0Z"/><path class="cls-6" d="m271.3,140.3l-.5.5c-.6-1.1-3.9-2.2-5-.9l-.4-.6c1.3-1.5,5.2-.4,6,1Z"/><path class="cls-4" d="m271,253.4l.3,2.5h-1.9c0,.1-.2-1.7-.2-1.7.6-.2,1.2-.5,1.8-.8Z"/><polygon class="cls-6" points="269.4 107.7 270.8 110.9 270.2 111.1 268.3 107 268.4 107 269.4 107.7"/><path class="cls-6" d="m270.6,147.2c.7,4.2-3.2,4.7-3.7.6-.7-4.2,3.1-4.8,3.7-.6Zm-1.5,2.8c1.5-.1.7-5.3-.8-5-1.5.1-.7,5.4.8,5Z"/><path class="cls-6" d="m270.2,189.3v.7c-7-2.1-12.3,3.2-17.6,6.6h0s0-.4.1-.8c2-1.3,4.1-3,6.1-4.3.2,0,.4,0,.4,0v-.2c2.2-1.4,4.6-2.5,7.3-2.3l.2.4c.8-.6,2.5,0,3.5,0Z"/><path class="cls-6" d="m268.8,169.2l1.3.5c-.3.3-.7.6-1,1h0l-.3-1.4Z"/><path class="cls-6" d="m270.1,134.9v.2s-.2-.3-.2-.3c0,0,.1,0,.2,0Z"/><path class="cls-10" d="m269.9,147.3c.5,3.3-1.8,3.6-2.3.4-.5-3.3,1.8-3.6,2.3-.4Z"/><path class="cls-6" d="m269.4,107.7l-1.1-.7.4-.6c.2,0,.6,1.2.7,1.3Z"/><path class="cls-6" d="m269.1,253.9v.3c-.2,0-.4.2-.7.3v-.5s.7,0,.7,0Z"/><path class="cls-6" d="m269.1,121.2h0c0,.1-.7,0-.7,0,0-.1.5-2,.6-2.1v2.1Z"/><polygon class="cls-6" points="269.1 121.3 268.5 123.3 268.4 121.3 269.1 121.3"/><path class="cls-6" d="m268.9,277.4h.1c0,0-.1,0-.2,0,0,0,0,0,0,0h0Z"/><path class="cls-6" d="m268.9,106.5h0c0,0-.4.5-.4.5h0s0-.2,0-.2c-9.7-.8-20.7,2.7-28.7,8.5-6.9,5.3-10.8,14-12.7,22.3l-1.1.5c.1.1.9.7.9.9-.3.1-1.2.5-1.5.7,1.8-9.4,6-19.2,13.7-25.1,6.8-5.1,21.9-10.5,30-8Z"/><path class="cls-6" d="m268.8,277.4s0,0-.1,0c0,0,0,0,0,0h0Z"/><path class="cls-6" d="m229,138l-2.3,1c-.2-.1.1-1.2.2-1.4,11.9-4.4,25.3-4.2,37.8-2.4v.3c0,0,.3-.3.3-.3h-.3s3.8-14,3.8-14h0c.8,1.5-3,13.1-3.3,14.8-10-1.5-20.5-1.6-30.4.5,0-.3-.1-.5-.1-.5h-.7c0,0,0,.2.1.7-.2,0-.8.2-1,.2,0-.2,0-.4,0-.5h-.7c0,.3,0,.5,0,.7-1,.3-2.3.6-3.3.9Z"/><path class="cls-6" d="m267.5,189c-.6.2-.7.3-.7.3l-.2-.4c.3,0,.6,0,1,0Z"/><polygon class="cls-6" points="264.9 135.3 264.5 135.5 264.6 135.2 264.9 135.3"/><path class="cls-6" d="m263.4,255.1c0,.3,0,.3,0,.7-.2,0-.5,0-.7,0,0,0,0,0,0,0h-2.3c0-.1,0,0,0,0-.1,0-.6,0-.7,0,0-.4,0-.5,0-.8.9,0,2.9.2,3.8.2Z"/><path class="cls-6" d="m263.3,255.8h.1c-.1,2.4-1.3,16.1-12.3,16.3-10.8.2-21-19.2-23.3-23.7,0-.2.3-.7.4-.8,1.5,3,12.2,24,22.9,23.8,10.4-.2,11.5-13.1,11.6-15.6.2,0,.4,0,.6,0Z"/><path class="cls-6" d="m262.7,255.8s0,0,0,0c-.7,0-1.6,0-2.3-.1h0c0,0,2.3,0,2.3,0Z"/><path class="cls-4" d="m262.6,255.9h.1c-.1,2.5-1.3,15.4-11.6,15.6-10.7.2-21.4-20.8-22.9-23.8.3-.7.8-1.8,1.2-2.4,1.9,4.2,11.1,23.4,21.6,22.8,6.6.5,10.2-8.4,9.4-12.2.7,0,1.5.2,2.2.1Z"/><path class="cls-6" d="m242.9,242v.4c0,0,.1-.2.1-.2,4.8,7,9.9,12.6,19,12.8h0s-2.3-.1-2.3-.1c0,.3,0,.4,0,.8-1-.2-2.1-.3-3.1-.6l.2-.3-.6-.3-.2.5c-.6-.2-1.3-.4-1.9-.7l.2-.4-.6-.3-.2.4c-5.1-2.3-8.3-7.2-11.6-11.5.3-1,1.6-5.2,1.7-6.2l.2.2.5-.5h.2c-.1,1.1-1.3,5.1-1.6,6.2,0,0,0-.1-.1-.2Z"/><path class="cls-6" d="m260.4,255.8c.8,3.8-2.8,12.8-9.4,12.2-10.5.6-19.7-18.5-21.6-22.8.1-.2.3-.5.5-.7,1.3,2.9,10.8,23.4,21.1,22.8,6.2.6,9.5-8.2,8.7-11.6.1,0,.6,0,.7,0Z"/><path class="cls-6" d="m259.2,164l.6.3c-1,3.2-9.6,2.8-10.8.6l.5-.5c.9,1.9,8.9,2.3,9.7-.4Z"/><path class="cls-4" d="m259.7,255.7c.8,3.4-2.5,12.2-8.7,11.6-10.4.6-19.8-19.9-21.1-22.8,3.6-5.3,5.3-8.4,11.6-10.7l2.1,2.4c-.2,1-1.5,5.2-1.7,6.2,3.3,4.3,6.5,9.2,11.6,11.5l-1.4,2.4,3,1.8,1.5-3.1c1,.3,2,.5,3.1.6Zm-9.2,5.9c-2.8-2.6-4.9-10.2-4.4-13.6-.6-.2,0,0-3-.4,0,0-.4,0-.4,0-.6,3.1-.4,10.8,2.2,13.8.4.7,5,1.5,5.6.2Z"/><path class="cls-6" d="m259.2,191.3v.2s-.1,0-.4,0l.4-.2Z"/><path class="cls-6" d="m259.2,190.8v.5c-1.2.4-3.7.6-5-.2.1-.3.2-.6.2-.6l-.6-.3s0,0-.1.3c-.4-1.4,2.5-7.4,3.8-7.8,0,.3,0,.5,0,.8-1.5,1.7-2.3,4.4-3.1,6.5.4,1.2,4.4.5,4.7.8Z"/><path class="cls-9" d="m258.9,191.5c-2.1,1.3-4.1,2.9-6.1,4.3.3-1.4,1-3.5,1.5-4.7,1.2.9,3.4.3,4.6.4Z"/><path class="cls-6" d="m258.6,184.9h-.2c-.3,0-.4,0-.5,0,0,0,0,0,0,.2h0c-.1-.4-.2-1-.3-1.5h0c.2-.1.4-.2.5-.3l-.3-.6s-.2,0-.3.1c-.2-1.4-.3-3.7-.4-4.7.4,0,.7-.1,1-.2,0,1.7,0,5.2.4,7Z"/><path class="cls-6" d="m258.4,185l-.4.2s0-.2,0-.2h0c0-.1,0-.2,0-.2,0,0,.2.1.5.1Z"/><path class="cls-6" d="m258.2,177.4s0,.2,0,.4c-.3,0-.7.1-1,.2,0-.4,0-.6,0-.6h1.1Z"/><path class="cls-6" d="m257.8,182.6l.3.6c-.1,0-.3.2-.5.3h0c0-.2,0-.5,0-.8,0,0,.3-.1.3-.1Z"/><path class="cls-6" d="m256.8,254.7l-.2.3c-.2,0-.5-.1-.7-.2l.2-.5.6.3Z"/><path class="cls-6" d="m256.7,255.1l-1.5,3.1-3-1.8,1.4-2.4c.2.1.4.2.6.3l-1.1,1.9,1.8,1.1,1.1-2.3c.2,0,.5.1.7.2Z"/><path class="cls-4" d="m256,254.9l-1.1,2.3-1.8-1.1,1.1-1.9c.6.2,1.2.4,1.9.7Z"/><path class="cls-6" d="m253.8,190.3l.6.3s0,.2-.2.6c-.2-.2-.4-.3-.5-.6,0-.2.1-.3.1-.3Z"/><path class="cls-6" d="m254.3,253.9l-.2.4c-.2,0-.4-.2-.6-.3l.2-.4.6.3Z"/><path class="cls-6" d="m254.2,191.1c-.5,1.2-1.2,3.3-1.5,4.7-.4.2-.8.4-1.2.6.3-1.6,1.5-4.6,2.1-5.8.1.2.3.4.5.6Z"/><path class="cls-6" d="m252.4,196c.1,0,.2-.1.3-.2,0,.5-.1.8-.1.8h-1c0-.1,0-.2,0-.2.3-.1.6-.2.8-.4Z"/><path class="cls-6" d="m251.3,155.4c.3,0,.4-.7.5-1h.2c.2,1.1-.7,1.8-1.7,1.3,0-.1,0-.3,0-.4l-.5.2c.2,0,.3.1.5.2-.2,1.3.3,2.7,1.7,3.2v.4c-2.1-.6-2.6-2.8-2.2-4.6.5.2,1,.6,1.5.7Z"/><path class="cls-6" d="m236.5,145.8c-.6-3-2-6.4-2.5-9.1h.7c.7,2.6,2.2,6,2.8,9-2.6,12.5.5,24.9,13.3,30v.2c-13.9-2.7-17.1-18.1-14.3-30.1Z"/><path class="cls-6" d="m250.7,175.9v.7c-.7,0-1.3-.5-2-.8h2Z"/><path class="cls-6" d="m250.3,261.3l.2.2c-.6,1.4-5.2.5-5.6-.2-2.6-3-2.8-10.8-2.2-13.8h.4c3,.4,2.4.3,3,.4-.4,3.1,1.7,11,4.3,13.3Zm-2.3.3c.7,0,1.2-.1,1.5-.2-2.3-2-4.6-10.1-4.1-12.9-.4,0-1.2-.1-2-.2-.6,3,0,10.4,2.1,12.5.3.2,1.4.8,2.7.8Z"/><path class="cls-6" d="m249.9,155.5l.5-.2c0,.1,0,.3,0,.4-.1,0-.3-.1-.5-.2Z"/><path class="cls-6" d="m250.2,176.6c-7.9.2-15.8-1.9-22.8-5.6,5.7-10.2,5.6-22.6,4.9-34,.2,0,.5-.1.7-.2.9,11.2,1.2,23.3-3.9,33.6l-.5-.3.2.9.3-.6c4,2.1,8.5,3.7,13,4.6,2.6.8,5.7.1,8.1,1.5Z"/><path class="cls-5" d="m248.7,175.8c-6.8-.2-13.6-2.2-19.6-5.3,5.1-10.3,4.8-22.4,3.9-33.6.2,0,.8-.2,1-.2,5.2,14.5-4,30.8,14.7,39.2Z"/><path class="cls-6" d="m248.4,223.6h-1.2c.2-.1.4-.4.6-.5.2.2.4.4.6.5Z"/><path class="cls-4" d="m249.5,261.4c-.8.5-3.8-.1-4.1-.6-2-2.2-2.7-9.6-2.1-12.5.8,0,1.6.2,2,.2-.4,2.7,1.8,10.9,4.1,12.9Z"/><path class="cls-10" d="m245.2,150.3v-.3c1.2-.5.6-4.5-.3-4.5-1.2.5-.6,4.5.3,4.5v.3Zm1.4-2.6c.4,3.5-2.8,4.3-3,.2-.4-3.8,2.9-3.9,3-.2Z"/><path class="cls-6" d="m246.4,223.2c0,.2,0,.8,0,1-.2-.2-.5-.5-.7-.7,0-.3,0-.6,0-.8h.7c0,0,0,.3,0,.6Z"/><path class="cls-6" d="m246.4,224.2c-.3,4-1.1,8-1.8,11.9h-.2s-.6-.7-.6-.7c.8-3.9,1.7-7.9,1.9-11.9.2.2.5.5.7.7Z"/><path class="cls-6" d="m246.1,277.1h-.2c0,0,.1,0,.2,0Z"/><path class="cls-10" d="m245.9,147.7c0,.8,0,2-.6,2.3v.3s0-.3,0-.3c-1.9-.5-.3-8.1.7-2.3Z"/><path class="cls-6" d="m245.7,141.2l-.6.3c-.3-1-2.3-.9-2.2.4h-.7c.1-2.2,3.2-2.1,3.6-.7Z"/><path class="cls-6" d="m243.8,235.4l.6.6-.5.5-.2-.2s.2-.8.2-.9Z"/><path class="cls-6" d="m244,218.5h0s0,0,0,0h0Z"/><path class="cls-6" d="m243.8,235.4s-.2.8-.2.9l-2.1-2.4c0,0,.1,0,.2,0h-.4c0,0,.2,0,.2,0-6.3,2.3-8.1,5.3-11.6,10.7,0-.2-.1-.3-.2-.3l-.6.3c0,0,.2.4.4.8-.4.6-.9,1.7-1.2,2.4-.1-.2-.2-.3-.2-.4l-.6.3c0,0,.2.4.4.9l-1.1,2.6v.2c0,0,0,0,0,0,0,0-.2-.5-.6-1.4,1.1-2.9,2.7-5.9,4.7-8.3,2.8-4,5-6.4,9.7-8,0,0,0,0,0,0,.3-.3.8-.5,1.2-.6,0,0,2,2.2,2.1,2.4Z"/><path class="cls-6" d="m243,242.2v.2c0,0-.1-.4-.1-.4,0,0,0,.1.1.2Z"/><path class="cls-6" d="m242.2,215.9l.3.6s-.2,0-.7.3c0-.2-.1-.5-.2-.7.4-.2.6-.2.6-.2Z"/><path class="cls-6" d="m242.1,200.8v.2h-.2c0,0,.2-.2.2-.2Z"/><path class="cls-6" d="m241.8,216.8h0c-2.8,1.3-6.1,2.7-9.3,3.8-.1-.2-.2-.3-.3-.4l-.6.3s0,.1.2.3c-5.1,1.5-10.7,2-16,1.6h0c0,0-.6-.4-.6-.4v.3c-14.3-2.8,2.4-18.1,10.5-15.2-6,.7-12.6,2.9-15,9.3-2.1,10.7,26.4,2.8,30.9-.1,0,.2.1.4.1.6Z"/><path class="cls-6" d="m241.6,201.3l.2.7c-.2,0-.3.1-.5.2v-.8c.2,0,.2,0,.3,0Z"/><path class="cls-6" d="m241.7,233.7c0,0-.1,0-.2,0l-.2-.2h.4Z"/><path class="cls-7" d="m241.7,216.2c-4.4,2.9-33,10.9-30.9.1,2.1-5.2,7.8-9,13.3-8.7-4.5,1.5-7.2,2.6-7.7,3.3l.6.4c.5-.6,6.1-2.7,9-3.5h0c4.4-1.6,8.1-3.1,15.3-5.6-.2,4.6-.5,9.4.4,14Z"/><path class="cls-6" d="m241.3,201.4v.8c-7.3,2.5-11,4-15.4,5.5v-.6c0,0,0,0-.2,0,3.3-1.1,11.5-4.2,15.6-5.6Z"/><path class="cls-6" d="m241.1,233.2c-.2.1-.4.2-.7.3-.8-1.2-7.3-10.9-8.5-12.8.2,0,.5-.1.7-.2,1.2,1.8,5.9,8.8,8.5,12.7Z"/><path class="cls-6" d="m241,233.3l-.5.3s0,0,0,0c.2,0,.4-.2.6-.2Z"/><path class="cls-7" d="m240.4,233.5c-4.7,1.6-6.9,4-9.7,8-1.9,2.4-3.5,5.4-4.7,8.3-4.3-8.8-6-17.8-5.8-27.2h-.3v-.2c4-.2,8.1-.4,12-1.7,1.2,1.9,7.8,11.6,8.5,12.8Z"/><path class="cls-6" d="m234.7,136.5h-.7c0-.3-.1-.5-.1-.5h.7c0,0,0,.1.1.5Z"/><path class="cls-6" d="m233,136.3c0,.2,0,.4,0,.5-.2,0-.5.1-.7.2,0-.2,0-.4,0-.6h.7Z"/><path class="cls-6" d="m232.6,220.5c-.2,0-.5.2-.7.2,0-.1-.1-.2-.2-.3l.6-.3c0,0,.1.2.3.4Z"/><path class="cls-6" d="m229.9,244.5c-.1.2-.3.5-.5.7-.2-.4-.3-.7-.4-.8l.6-.3s0,.1.2.3Z"/><polygon class="cls-6" points="229.1 170.5 228.8 171.1 228.6 170.2 229.1 170.5"/><path class="cls-6" d="m228.2,247.6c0,.2-.3.7-.4.8-.2-.5-.4-.8-.4-.9l.6-.3s0,.1.2.4Z"/><path class="cls-6" d="m226.8,137.6s-.3,1.2-.3,1.2l-.8-.7,1.1-.5Z"/><path class="cls-6" d="m226.7,251.2l-1.4.6s0,0,0,0c.2-.5.6-1.5.8-1.9.4.9.6,1.4.6,1.4Z"/><path class="cls-6" d="m226.1,249.8c-.2.5-.6,1.4-.8,1.9-.2-.4-1.9-5.1-2.5-6.9.2-.5.3-1.1.3-1.9h-.7c0,.3,0,.5,0,.7-2.5-5.7-2.5-15.5-2.4-20.9h.3c-.2,9.3,1.5,18.4,5.8,27.2Z"/><path class="cls-6" d="m226,207.1v.6c-.7.1-1.2-.1-2-.1.6-.1,1.3-.6,2-.5Z"/><path class="cls-6" d="m225.9,207.7h0c0,0,0,0-.1,0,0,0,0,0,.1,0Z"/><path class="cls-6" d="m225.5,253.8c0,0,0,.1,0,.2v.2c0,0,0-.4,0-.4Z"/><path class="cls-6" d="m225.3,207.7c.2,0,.4,0,.5,0-2.9,1-8.4,2.8-8.9,3.5l-.6-.4c-.1,0,5.3-3.3,9-3.2Z"/><path class="cls-6" d="m223.1,242.9c0,.8-.1,1.4-.3,1.9-.2-.6-.5-1.2-.4-1.8h.7Z"/><path class="cls-6" d="m222.3,243.6c.1.4.3.8.4,1.2-1.9,4.3-6.4,9-6.4,14.5,0,0-.2,0-.2,0l-.2.7s.1,0,.3,0c0,.6,0,1.1,0,1.1h-.1l-.2-.2s-.1.1-.3.2h0c-.4-7.2,4.8-11.8,6.9-17.6Z"/><path class="cls-7" d="m222.1,242.9c.5,4.5-7.2,9.7-6.6,18.3h0c-2.5,2.6-6-.6-9.1-.4,0,0,0,0,0,0,.4-.6.1-1.9-.5-2.4,4.3-11.1,7.1-24.9,9.9-36.1,1.3.2,2.7.2,4.1.1,0,5.3-.2,14.8,2.2,20.4Z"/><path class="cls-6" d="m183.8,274.5h0s0,0,0,0c0,0,0,0,0,0h0s0,0,0,0c-.2.6,0,1.4.2,2,0,0-.1,0-.2,0l.2.2s0,0,0-.1c5.2,2.1,11.2.6,16.5.3,6-.8,12,2.1,17.9,0,0,0,0,0,0,0,0,0,0,0,0,0,0,0,0,0,0,0,0,0,0,0,0,0,0,0,0,0-.1,0,.1-.6.1-1.4.3-2h0s0,0,0,0c0,0,0,0,0,0t0,0h0s0,0,0,0c0,0,0,0,0,0h0s0,0,0,0c0-.1-.2-.2-.3-.3,0,0,.1,0,.2,0h0c0-.2,0-.4,0-.6.6.3.9.9.6,1.7-.1.6,0,1.4-.4,1.9h0s0,0,0,0c0,0,0,0-.1,0-6,2.1-12.1-.7-18.2,0-5.6.4-11.7,1.8-17.1-.4-1-1.5-1.5-3.7.6-4.5h.2c0,.5,0,.8,0,.8l.7.2s.2-.2.3-.4c2.2,1.1,4.5,1.9,7,1.9h0c2.4-.1,5.2-.4,7.6-.6,0,.2,0,.3,0,.5h.7c0-.2,0-.4,0-.6,3.1-.4,6.5-.5,9.6.2,2.6.4,5.4.6,7.9-.6,0,.1,0,.2,0,.2h.2s0,0,0,0c.1,0,.3.2.4.2-4,2.2-8.6.8-12.9.6-7.1.3-14.9,3.1-21.5-.7l.4-.2h-.8c.1,0,.2.1.4.2h-.2c0,.1,0,0,0,0Z"/><path class="cls-6" d="m217.9,260.6c1.6,2.8,1.4,9.8.6,13.2,0,0-.1,0-.2-.1v.2c0,0-.1,0-.1,0-.1,0-.3.1-.4.2.5-3.3,1.9-11.9-1.6-13.9,0-.2,0-.5,0-.7.4.1,1.2.5,1.6,1.2Z"/><path class="cls-6" d="m218.6,274.8s0,0,0,0h0s0,0,0,0Z"/><path class="cls-6" d="m218.6,274.8s0,0,0,0h0s0,0,0,0Z"/><path class="cls-6" d="m218.6,274.8s0,0,0,0h0,0Z"/><path class="cls-6" d="m218.6,274.8h0s0,0,0,0Z"/><path class="cls-8" d="m218.6,274.8c-.2.6-.2,1.4-.3,2-5.9,2-11.9-.8-17.9,0-5.3.4-11.3,1.8-16.5-.3-.2-.6-.4-1.4-.2-2h.2c6.6,3.7,14.4.9,21.5.6,4.3.2,8.9,1.6,12.9-.6,0,0,.2.2.3.3Z"/><path class="cls-8" d="m217.3,260.9c1.6,2.7,1.2,10.1.5,13.1-2.5,1.2-5.3,1.1-7.9.6-3.1-.6-6.5-.6-9.6-.2,0-3.7-1.3-6.2-2.6-7.6,2.3-.8,6-4.5,8.3-5.3,2.9-.4,8,3.2,10.4,0l-.3-.3h.1s0-.4,0-1.1c.3.1.8.4,1.1.9Z"/><path class="cls-6" d="m218.5,274.3h0c0,.2-.1.2-.2.2-.1,0-.2-.2-.4-.2h0s.5,0,.5,0c0,0,0,0,0,0Z"/><path class="cls-6" d="m218.5,273.8c0,.2,0,.4,0,.5l-.2-.5v-.2c.2,0,.2,0,.3.1Z"/><path class="cls-6" d="m218.2,273.8s.3.5.2.5h-.5c0,0,.2-.5.2-.5Z"/><path class="cls-6" d="m218.3,276.9h0s0,0,0,0c0,0,0,0,0,0,0,0,0,0,0,0,0,0,0,0,.1,0,0,0,0,0,0,0h0Z"/><path class="cls-6" d="m218.3,276.9h0s0,0,0,0h0Z"/><path class="cls-6" d="m218.2,273.8l-.2.4h-.2s0-.1,0-.3c.1,0,.3-.1.4-.2h0Z"/><path class="cls-6" d="m216.1,261.2l.3.3c-2.5,3.3-7.5-.4-10.4,0-2.3.8-5.9,4.5-8.3,5.3-.2-.2-.3-.4-.5-.5h0c1.9-.5,6.6-5.1,8.8-5.5l.3.3c0,0,.2-.2.3-.4,3.1-.3,6.6,3,9.1.4h.5Z"/><path class="cls-6" d="m216.3,259.3c0,.3,0,.5,0,.7-.2,0-.3,0-.3,0l.2-.7s0,0,.2,0Z"/><path class="cls-6" d="m216.1,261.2h-.5c.2-.1.3-.2.3-.2l.2.2Z"/><path class="cls-6" d="m215.3,221.9l.6.3h0c-.2,0-.5,0-.7,0v-.3Z"/><path class="cls-6" d="m215.2,222.2c.2,0,.5,0,.7.1-2.8,11.2-5.6,25-9.9,36.1-.2-.2-.4-.3-.6-.5,3.8-11.1,6.6-24.8,9.8-35.7Z"/><path class="cls-6" d="m201.4,258.8s0,0,0,0h0c.9,4-1.8,5.2-5.1,6.7-.4-.3-.7-.5-.7-.5v-.2c1.4-.6,2.9-1.4,4.2-2.3.5-.6.6-1.3.9-1.9,0,0,0,0,0,0,0,0,0,0,0,0h0c-.1-.7-.6-1.8,0-2.5,1.4-1,3.2-1.3,4.6-.3,0,.2-.2.4-.2.4l.6.4s0,0,.1-.3c.7.5.9,1.8.5,2.4,0,0,0,0,0,0-.2,0-.4,0-.6,0l-.2-.2s0,0,0,0c.9-2.3-2.9-3.1-4.3-1.8Z"/><path class="cls-6" d="m206.5,260.8c0,.2-.2.3-.3.4l-.3-.3c.2,0,.4,0,.6,0Z"/><path class="cls-8" d="m205.9,259.7c0,.4,0,.7-.2.8,0,0,0,0,0,0l.2.2c-2.1.5-6.9,5.1-8.8,5.5-.3-.3-.6-.5-.8-.7,3.2-1.5,6-2.7,5.1-6.7h0c1.4-1.2,4-1,4.6.8Z"/><path class="cls-6" d="m206,258.4c0,.2-.1.3-.1.3l-.6-.4s0-.1.2-.4c.2.1.4.3.6.5Z"/><path class="cls-6" d="m200.7,260.6s0,0,0,0c0,0,0,0,0,0h0Z"/><path class="cls-6" d="m197.6,266.9c1.3,1.5,2.7,3.9,2.6,7.6h-.7c.2-5.5-3.2-8-4.1-8.6.3,0,.6-.2.8-.3.2.2.5.4.9.7l.3.6s0,0,.2,0Z"/><path class="cls-6" d="m200.3,274.5c0,.2,0,.4,0,.6h-.7c0-.2,0-.4,0-.6h.7Z"/><path class="cls-8" d="m195.5,265.9c.9.6,4.3,3.2,4.1,8.7-4.9.5-10.1,1.3-14.5-1.3,1.4-4.6,5.9-6.8,10.4-7.4Z"/><path class="cls-6" d="m197.6,266.9c0,0-.1,0-.2,0l-.3-.6c.2.2.3.3.5.5Z"/><path class="cls-6" d="m196.3,265.6c-.3.1-.5.2-.8.3-.2-.1-.2-.2-.3-.2l.3-.6s.3.2.7.5Z"/><path class="cls-6" d="m195.5,264.9v.2c0,0-.2.6-.2.6,0,0,0,0,.3.2-4.5.6-9.1,2.8-10.4,7.4-.3-.2-.6-.3-.9-.5,1.3-5,6.6-7.3,11.3-7.9Z"/><path class="cls-6" d="m192,275.2h0s0,0,0,0Z"/><path class="cls-6" d="m185,273.3c0,.1-.3.4-.3.4l-.7-.2s0-.3,0-.7c.3.2.6.3.9.5Z"/><path class="cls-6" d="m184.4,274.2l-.4.2c-.1,0-.2-.1-.4-.2h.8Z"/><path class="cls-6" d="m183.9,276.6s0,0,0,.1l-.2-.2s.1,0,.2,0Z"/><path class="cls-6" d="m183.7,274.5s0,0,0,0h0s0,0,0,0Z"/><path class="cls-1" d="m253.8,166.8c-2.7,0-4.6-1.8-4.7-1.9l.5-.5c.9,1.9,8.9,2.3,9.7-.4l.6.3c-.9,1.6-3,2.4-6,2.5Z"/></svg>