<?xml version="1.0" encoding="UTF-8"?><svg id="Layer_5" xmlns="http://www.w3.org/2000/svg" width="300" height="300" viewBox="0 0 300 300"><defs><style>.cls-1{fill:#e1c0a5;}.cls-1,.cls-2,.cls-3,.cls-4,.cls-5,.cls-6,.cls-7,.cls-8{stroke:#000;stroke-linecap:round;stroke-linejoin:round;}.cls-2{fill:#967246;}.cls-3{fill:#626365;}.cls-4{fill:#b3282e;}.cls-5{fill:#ffd204;}.cls-6,.cls-9{fill:#fff;}.cls-7{fill:none;}.cls-10{fill:#4d0099;stroke:#fff;stroke-miterlimit:10;stroke-width:4.2px;}.cls-9{stroke-width:0px;}</style></defs><rect class="cls-10" x="41.8" y="183.7" width="70.4" height="76.5"/><rect class="cls-10" x="112.3" y="183.7" width="76.5" height="76.5"/><rect class="cls-10" x="112.3" y="114.3" width="76.5" height="69.4"/><rect class="cls-10" x="188.7" y="183.7" width="69.4" height="76.5"/><rect class="cls-10" x="188.7" y="114.3" width="69.4" height="69.4"/><rect class="cls-10" x="188.7" y="39.8" width="69.4" height="74.5"/><rect class="cls-10" x="112.3" y="39.8" width="76.5" height="74.5"/><rect class="cls-10" x="41.8" y="114.3" width="70.4" height="69.4"/><rect class="cls-10" x="41.8" y="39.8" width="70.4" height="74.5"/><path class="cls-3" d="M277,205c-.8.9-2.8,1.9-4.8,2.9-2.4,1.1-4.9,2.1-6.2,2.4-4.3,1.1-7.2.8-10.7.1-.5-.1-1.1-.2-1.7-.3-1.1-.2-2.2-.5-3.5-.7,0-.7-.7-11.8-1.7-20.2h-.1c-.5,6.4-2.2,12.8-3.5,19.1-.6.2-1.3.5-1.9.6-7.2,2.3-13,2-17.9.4-2.3-.7-4.3-1.7-6.3-2.9,1.1-9.4,5.7-42,6.4-45.4,2.2,4.8,30.3,6.7,45,.9h.2c2,12.3,6.6,43.1,6.6,43.1Z"/><path class="cls-5" d="M291,113.7c0,.7-.5,1.6-1.4,2.5-2.2,2.2-6.5,4.6-9.9,6.2-1.4.7-2.6,1.2-3.5,1.6-2.6-2.9-5.6-7.4-8.1-11.2h0c-.3,3.4-.7,19.4-.5,22.9.1,1.7.2,4.1.3,6.8-3.4,0-7.8,0-7.4,4.2-1.8,1.5-3.2,3.3.3,4.5-1,1.7.2,3.1,1.3,3.4-1.3,1.3.7,2.6,1.6,2.7-.5,2.9,3.4,1.8,5.9.6v.2c.2.9.4,2.1.7,3.7h-.2c-14.7,5.8-42.8,3.9-45-.8l.3-.5c0-.8.1-1.6.2-2.4.5-7,1.3-12.2,1.5-17.5.1-3.2,0-6.5-.5-10.2-.6-4.7-.8-9.5-.6-14.2h0c-.7,1.1-3.5,4.9-4.2,6.1h0c-1-.2-2.2-.6-3.4-1.1-3.5-1.5-7.1-3.8-8.5-5.7-.7-.9-.9-1.8-.2-2.4,1-2.7,10.2-16.4,13.3-19.8,2.4-2.6,5.5-6.7,13.7-6.7l.4-.4c0,.1,0,.3,0,.4-.6,4.1.3,6,2.8,8.3,4.7,4.3,17.2,1.6,19.5-4,.4-.8.5-2.3.4-3.7h.2c0,.6,8.1.6,9.8,1.1,6.5,1.9,21.3,25.3,21.3,25.3Z"/><path class="cls-7" d="M222.1,122.4c-.1,0-.2,0-.3,0"/><path class="cls-7" d="M268.1,112.8c-.8-1.2-1.6-2.4-2.2-3.4"/><path class="cls-1" d="M227.1,140.7c-.2,5.3-1,10.5-1.5,17.5h0c-1.6-.4-2.4-.5-3.3-3.2-.7-2-1.1-3.7-1.8-5.8-1.5-4.6-4.7-7.2-8.3-11-4.8-5-9.5-11.4-5.3-17.7.7-1,1.3-2,3-5.1,1.4,1.9,5.1,4.3,8.5,5.7h0c-1.2,2.3-1.8,3.5-2,3.3,1.4,2.4,2.3,5.2,3.5,7.6.9,1.8,2,3.1,3.3,4.6.8,1,3.7,3.7,3.7,3.9h.3Z"/><path class="cls-7" d="M227.4,104.5c-.8,3.8-1.3,7.7-1.4,11.7"/><path class="cls-7" d="M267.9,142.7s0,0,0-.1"/><path class="cls-7" d="M216.3,124.5s0,0,0,0"/><path class="cls-7" d="M226.7,140.7s0,0,0,0"/><path class="cls-7" d="M216.3,124.5s0,0,0,0c-.9-1.5-2-2.9-3.6-3.9"/><path class="cls-7" d="M279.6,122.4s0,0,0,0"/><path class="cls-1" d="M287.3,139.2c-2.9,2.6-8.9,7.5-11.6,10.4.8,2.6-2.3,6-4.3,7.5-.3.2-1,.6-1.7.9-2.5,1.1-6.4,2.2-5.9-.6-.9-.1-2.9-1.5-1.6-2.7-1.1-.3-2.3-1.7-1.3-3.4-3.5-1.3-2.1-3.1-.3-4.5-.4-4.2,3.9-4.1,7.4-4.2,1,0,1.8,0,2.5-.2,5.1-1.1,7.5-8.9,9.5-12,1.2-1.9,2.1-3.1,3.1-4.1-.6-.7-2.2-2.5-3.4-3.8,3.3-1.6,7.7-4.1,9.9-6.2,2.4,3.1,3.5,3.9,4.4,6.2,2,4.8-2.8,13.2-6.7,16.7Z"/><path class="cls-7" d="M283,126.2c1.2-1.3,2.5-2.2,4.8-3.6"/><path class="cls-7" d="M263,144.7c-.5.5-1.5,1.2-2.5,1.9"/><line class="cls-7" x1="274.7" y1="262.1" x2="274.7" y2="262.1"/><line class="cls-7" x1="224" y1="256" x2="224" y2="256"/><line class="cls-7" x1="217.8" y1="275.6" x2="217.8" y2="275.7"/><line class="cls-7" x1="208.6" y1="265.4" x2="208.6" y2="265.4"/><path class="cls-1" d="M241.9,213.6c1.3,7.4,0,13.7-.6,15.9-3.7,13-5.5,14.8-6.2,28.1,0,.5,0,1.1,0,1.6-.2.7-1.4,2.7-2.4,2.8-1.1.1-1.8-1.7-3.1-1.3-.2,0-.8.3-1.5.7h0s1.9-4.6-2.7-5.5c-.5,0-.9-.2-1.3,0,.6-3.5.7-22.7.4-26.5-.3-5.1-.8-8.4.9-16.6-.2-1-.3-2.3-.3-3.6,4.9,1.6,10.7,1.9,17.9-.4-.2,1.6-.5,3.3-1,4.8Z"/><path class="cls-1" d="M273.9,258.4c-1.4-1.5-4.1-1.3-4.1-1.3-6.9,0-3.3,5.9-3.3,5.9-.4.8-4.2.9-4.3-2.8.6-8.5-.9-15.5-1.9-20.1-1.7-7.6-3.6-9.5-4.2-17.2-.2-3.4,0-6.1-.4-9.4-.1-1.2-.3-2.1-.5-2.9,3.5.7,6.5.9,10.7-.1,1.2-.3,3.8-1.3,6.2-2.4,0,3-.2,5.7.1,7.7.6,3.3,1.8,5.7,2.2,9.4.9,8.1-2.1,18.4-.6,33.4Z"/><path class="cls-7" d="M262.2,260.2c0,0,0,.2,0,.3"/><path class="cls-4" d="M282.7,272c-.7-.9-3.4-3.8-8.7-2.8-6.1,1.1-6.9,6.9-7,7.2-2.2-2.5-3.8-5.8-5.2-9.1,0,0,0-.2,0-.3,0-.4-.2-.8-.2-1.1-1.3-7.2.8-6.7.8-6.7,0,.3,0,.6,0,.9.1,3.7,3.9,3.6,4.3,2.8,0,0-3.6-5.9,3.3-5.9,0,0,2.7-.2,4.1,1.3.7.8,1.1,1.9.8,3.7.7.4,1.3,1.7,2,3,0,.2.2.3.4.5,2.5,2.2,4.4,4.5,5.6,6.4Z"/><path class="cls-7" d="M282.9,272.3s0,0,0,0"/><path class="cls-7" d="M274.7,262.2c0,.4-.2.8-.3,1.3"/><path class="cls-4" d="M278.8,280c-5.3,1.3-9-.4-11.8-3.5h0c0-.3.9-6.1,7-7.2,5.3-1,8,1.8,8.7,2.8,0,0,0,0,.1.1,0,0,0,0,0,0h0s0,0,0,0c.7,1.1,1.1,2,1.4,2.6.1.3.2.5.2.7.1,1.4-1.2,3.2-5.6,4.4Z"/><path class="cls-4" d="M285,278.2c-.3,2.4-2,3.2-6.3,4.5-5.5,1.6-9.9-1.5-12.3-4.3-2.6-3.1-3.7-6.1-3.9-6.7,0,0,0-.2,0-.2l-1.2-2.9c0,0,0-.2,0-.3-.1-.4-.3-1.7.3-2.4,0,.3.1.7.2,1.1,0,0,0,.2,0,.3,1.4,3.3,3,6.6,5.2,9.1h0c2.8,3.1,6.5,4.8,11.8,3.5,4.4-1.1,5.8-3,5.6-4.4,0-.2,0-.4-.2-.7h0l.4.4c.3.3.4,2.5.4,2.9Z"/><line class="cls-7" x1="261.4" y1="265.9" x2="261.4" y2="266"/><path class="cls-4" d="M236.7,259.8c-.3,2.1-.5,6.6-.5,8.4,0,.1,0,.2,0,.4,0,.3-.3.6-.5.9-1.1.9-3.1,2.1-7.9,2-.2,0-.4,0-.6,0-2.4.9-5.3,3-9.3,4.3h0c.6-4.3-.9-8.2-4-9.6-2.2-.8-3.9-1-5.2-.7l13.5-5.6c.6-2.6,1.2-3.5,1.9-3.8.4-.2.8-.1,1.3,0,4.5.9,2.7,5.5,2.7,5.5h0s0,0,0,0c.7-.4,1.2-.6,1.5-.7,1.3-.4,2.1,1.4,3.1,1.3,1-.1,2.3-2.1,2.4-2.8,0-.6,0-1.1,0-1.6.4,0,1.9,0,1.6,2.1Z"/><path class="cls-4" d="M217.8,275.6h0c-.7.2-1.5.4-2.3.6-2.2.4-4.8.5-7.8,0-.1,0-.3,0-.4-.1-2-.8-2.7-2-2.9-2.5,0,0,0-.2,0-.3,0,0,0-.2,0-.3,0-1.3.1-6.7,4.3-7.7h0s0,0,0,0t0,0c1.3-.3,3-.1,5.2.7,3.1,1.3,4.6,5.2,4,9.6Z"/><path class="cls-7" d="M235.1,257.6c0,0,0,0,0,0"/><path class="cls-7" d="M228,261.5c-.7.4-1.6.9-2.7,1.4"/><path class="cls-4" d="M236.2,271.3c-1.5,2.3-8.6,2.3-9.3,2.4-.7.1-3.7,2-6,2.9-1.2.4-3.1.9-5.2,1.3-2.1.4-4.4.6-6.6.7-3.3,0-4.8-1.4-5.4-2.2-.2-.3-.3-.6-.3-.9v-.8c0-.6.3-1.1.8-1.3h0s0,0,0,0c0,.1,0,.2,0,.3.2.5,1,1.7,2.9,2.5.1,0,.3,0,.4.1,3,.5,5.5.4,7.8,0,.8-.2,1.6-.4,2.3-.6,4-1.3,6.8-3.4,9.3-4.3.2,0,.4,0,.6,0,4.9.2,6.8-1.1,7.9-2,.3-.2.5-.5.5-.9h0s1.4.5,0,2.8Z"/><path class="cls-7" d="M248.4,189.2c-.3-2.6-.6-5-1-6.7"/><path class="cls-7" d="M250.1,209.4h0"/><path class="cls-7" d="M243.9,179.2c1.9,1.8,2.5,2.2,3.5,3.3"/><path class="cls-5" d="M259.2,91c-2.3,5.6-14.8,8.4-19.5,4-2.6-2.3-3.4-4.3-2.8-8.3,0-.1,0-.3,0-.4,0-.1,0-.3,0-.5,0-.3.1-.6.2-1,.3-.5,1.6-1.2,2.1-.6h.1v2.3h0c1.4,4.5,4.2,5.7,8.5,5.4,4.1-.3,9-2.8,8.8-5.7,0-1-.2-1.8-.3-2.6,2.1,0,3,1.7,3.2,3.6.2,1.4,0,2.9-.4,3.7Z"/><path class="cls-2" d="M271.9,84.2s0,0,0,0c-5.2-1.3-8.8-1.8-14.5-3.3,1.2-1.6,2.1-3.3,3-5.1,4-8.6,4.2-19,1-29.5h0s0-.7,0-.7c-3.6-.2-7.9-.2-12.5.2-1.1-3.7-2.5-8.3-.8-11.6-1.8,3.5-3.1,7.2-3.2,11.4-6.3.2-14,0-20.6,2-1.3.4-2.5.8-3.7,1.4-2.2,1-4.1,2.3-5.8,4.1,2.6-10,5.3-20.5,14.2-26.3,3.2-2.2,8.6-6.3,12.6-6.7,5.1-.5,4.3,4.3,12.2,1.4,8.2-.2,11.6,3.8,13.6,5.6,4.9,4.5,10.8,18.8,12,29.2,1.4,12.7-3.1,17.5-7.4,28Z"/><path class="cls-7" d="M256.2,79v-.3"/><path class="cls-7" d="M239.4,86.6c-.1-.4-.2-.8-.3-1.2"/><path class="cls-1" d="M256.7,86.2c.2,2.9-4.7,5.4-8.8,5.7-4.3.3-7.1-.8-8.5-5.4h0v-4.1c4.2,2.2,8.9,2,16.5-3.4,0,1.1,0,2.1.1,3,0,0,0,0,.2,0,0,.5,0,1,.1,1.5,0,.8.2,1.7.3,2.6Z"/><path class="cls-7" d="M236.7,86.7h-.2"/><path class="cls-7" d="M259.8,87.2s0,0,0,0"/><line class="cls-7" x1="260.3" y1="75.8" x2="260.3" y2="75.8"/><path class="cls-7" d="M261.3,45.6c2,.1,3.7.2,5.2.4-.7-6.9-2.6-13.9-8.5-18"/><path class="cls-2" d="M237.1,81v.2h-.1c-5,1.5-14.5,2.6-19.3,0,3-4.7,6.1-24.7,2.9-32h0s0-.3,0-.3c1.2-.5,2.4-1,3.7-1.4.2,3.3,1.1,6.7,2,10.3,0,0-1.1,4.1,0,8.9,1,4.4,2.3,7,5.7,10,1.9,1.6,3.5,3.1,5.2,4.2Z"/><path class="cls-1" d="M261.2,46.3h0s0-.7,0-.7c-3.6-.2-7.9-.2-12.5.2-1.1-3.7-2.5-8.3-.8-11.6-1.8,3.5-3.1,7.2-3.2,11.4-6.3.2-14,0-20.6,2,.2,3.3,1.1,6.7,2,10.3,0,0-1.1,4.1,0,8.9,1,4.4,2.3,7,5.7,10,1.9,1.6,3.5,3.1,5.2,4.2.8.6,1.6,1,2.4,1.5,4.2,2.2,8.9,2,16.5-3.4,0,0,.1,0,.2-.1,1.3-.9,2.6-2,4.1-3.2h0c4-8.6,4.2-19,1-29.5ZM232,58.9c-.7,0-1.2-1.1-1.2-2.5s.5-2.5,1.2-2.5,1.2,1.1,1.2,2.5-.5,2.5-1.2,2.5ZM248,74.6c-1.8,1.1-5.3,1.5-7.1,1.2-2.9-.4-4.2-1.6-5.5-3.9h0s0,0,0,0h0c5.1,1.8,16-.8,17-1.8-2,3-2.8,3.4-4.5,4.5ZM252.5,59.5c-.8,0-1.5-1.3-1.5-2.8s.7-2.8,1.5-2.8,1.5,1.3,1.5,2.8-.7,2.8-1.5,2.8Z"/><path class="cls-6" d="M252.5,70.1c-2,3-2.8,3.4-4.5,4.5-1.8,1.1-5.3,1.5-7.1,1.2-2.9-.4-4.2-1.6-5.5-3.9h0s0,0,0,0h0c5.1,1.8,16-.8,17-1.8Z"/><path class="cls-7" d="M230,51.1c.9-2.1,2.7-1.9,3.6-.7"/><path class="cls-7" d="M251.2,50.6c1.7-1.7,4-.9,4.4.5"/><path class="cls-7" d="M256,79.1v-.2"/><path class="cls-7" d="M256.5,85.8c0-1.2-.2-2.3-.4-3.7"/><line class="cls-7" x1="271.9" y1="84.2" x2="271.9" y2="84.2"/><path class="cls-2" d="M271.8,84.2c-.9,0-10.9-.7-15.6-2,0-.9-.1-1.9-.1-3.2,1.3-.9,2.6-2,4.1-3.2h0c-.8,1.8-1.8,3.5-3,5.1,5.7,1.5,9.3,2,14.5,3.3Z"/><path class="cls-7" d="M256.1,82.1c0,0,0,0-.1,0"/><path class="cls-8" d="M233.3,56.5c0,1.4-.5,2.5-1.2,2.5s-1.2-1.1-1.2-2.5.5-2.5,1.2-2.5,1.2,1.1,1.2,2.5Z"/><path class="cls-8" d="M254,56.7c0,1.6-.7,2.8-1.5,2.8s-1.5-1.3-1.5-2.8.7-2.8,1.5-2.8,1.5,1.3,1.5,2.8Z"/><path class="cls-7" d="M239.2,62.6c0,1.1-.8,1.4-1.8,1.2,0,.9.4,3.4,1.8,3.9"/><path class="cls-7" d="M235.5,71.9c-.1,0-.3,0-.4-.1"/><line class="cls-7" x1="239.5" y1="82.5" x2="239.5" y2="82.3"/><polyline class="cls-9" points="234.1 129.6 257 113.1 256.6 134.2 246.1 131.8 252.4 121.1 243.3 131.6"/><polyline class="cls-9" points="246.5 133.6 250.5 134.6 247.4 139.4"/></svg>