<?xml version="1.0" encoding="UTF-8"?><svg id="Layer_5" xmlns="http://www.w3.org/2000/svg" width="300" height="300" viewBox="0 0 300 300"><defs><style>.cls-1{stroke-linejoin:round;}.cls-1,.cls-2{stroke-linecap:round;}.cls-1,.cls-2,.cls-3,.cls-4{fill:none;}.cls-1,.cls-2,.cls-4{stroke:#000;}.cls-2,.cls-3,.cls-4{stroke-miterlimit:10;}.cls-3{stroke:#fff;stroke-width:.8px;}.cls-5,.cls-6,.cls-7,.cls-8,.cls-9,.cls-10,.cls-11,.cls-12,.cls-13,.cls-14{stroke-width:0px;}.cls-6{fill:#4d0099;}.cls-7{fill:#2e2e2e;}.cls-8{fill:#1a1a1a;}.cls-9{fill:#414141;}.cls-10{fill:#bdcae8;}.cls-11{fill:#3246ff;}.cls-12{fill:#8ea3d6;}.cls-13{fill:#7d574c;}.cls-14{fill:#fff;}</style></defs><path class="cls-10" d="m160.6,232.3c-6.3.5-12.7,0-18.4-.8-5.7-.9-10.7-2.3-14-3.6-2.1-.8-3.6-1.6-4.2-2.3,1.2-9.2,7.3-33.8,8.3-39,.3-1.7.5-2.5.5-2.9h0c0,1.3-.2,2.3-.3,3,4.6,1.4,9.3,2.2,14,2.6,2.3.2,4.9.6,7.1.2,1-.2,1.1-.8,1.7-1.6.7-.9,1.5-1.7,2.4-2.4.1-.1.3-.2.5-.2.3,0,.5.1.7.3.9.8,2.3,2.5,3.4,2.9,1,.4,2.8-.3,3.8-.6,2.9-.7,5.8-1.5,8.7-2.6v-.7c2.3,10.5,6.2,27.4,7.8,38.8-1.7,1.7-3.7,3.1-5.9,4.3-4.8,2.6-10.4,3.9-16.3,4.4Z"/><rect class="cls-6" x="185.2" y="99.1" width="20" height="20" transform="translate(-28.1 97.3) rotate(-26.2)"/><path class="cls-13" d="m205.3,140.9c-.1-.1-.3-.2-.5-.2-3.8-.7-7.8.4-10.7,2.8-1.6-.6-3.3-.1-4.7,1-.7.5-1,1-1.2,1.5h-.2c0-.6-.2-1-.5-1.4-1.6-.7-3.7-1-5.7-.7-1.4.2-2.8.8-3.7,1.7-1.5,1.5-2.4,3.1-2.9,4.8h0c-.2.2-2,1.8-2.1,2.6h0c0,1.4.1,2.7.2,4,0,0,0,0,0,0,.7,1.7,1.1,1.8,3.1,2.6,0,0,0,0,.1,0,2,.6,5-.4,6.7-1.4,1-.5,1.3-.7,2.1-1,.6.8,1.5,1.4,2.5,1.4,0,.4,0,.8-.1,1.2,0,.5,0,1.1.3,1.5.4.5,1.1.6,1.8.6.7,0,1.4,0,1.9-.3.4-.3.6-.8.7-1.2.1-.5,0-1.2-.1-2.1h0c.8-.3,1.6-.9,2-1.7.6.4,1.2.7,1.9.9.8.2,1.6.2,2.3-.3.6-.4,1-1.1,1.1-1.9,0,0,0,0,0-.1h0c.5,0,1,0,1.6.1.5,0,1.1,0,1.5-.4.2-.2.3-.5.4-.8.4-.9.7-1.8,1.1-2.7.2-.5.4-1.2.2-1.7-.2-.4-.6-.6-1-.7-.4,0-.8,0-1.2.1-.3,0-.5.2-.8.3h0c-1.1,0-2.4,0-3-.9-.4-.6-.2-1.5.2-2.1.4-.6,1-1.1,1.6-1.5,1.5-1,2.9-2.1,4.4-3.1.3-.2.7-.6.5-1Z"/><path class="cls-13" d="m173.1,273.5c-.8-.4-1.3-.7-1.5-.8-1.4-.4-2.1,1.4-3.2,1.3-.5,0-1.2-.6-1.6-1.3-.2-1.1-.4-2.2-.6-3.3-2.7-13.5-6.1-21.3-6.4-28.9-.2-3.5,1-8.1,1-8.1v-.2c5.8-.5,11.5-1.8,16.2-4.4,0,.4.5,2.3.5,3.4,0,1.3-.7,4.4-.7,4.4,0,0-.6,27.8-.7,32-4-.4-2.9,5.8-2.9,5.8h0Z"/><path class="cls-9" d="m197.4,285.8s.5-7.1-4.4-8.2h0s-13.9-5.8-13.9-5.8c0-.2,0-.3,0-.5.3-1.2.2-2.1-.3-2.4,0,0-.1,0-.2,0-1.1-.6-2-.9-2.7-1-4-.4-2.9,5.8-2.9,5.8h0c-.8-.4-1.3-.7-1.5-.7-1.4-.4-2.1,1.4-3.2,1.3-.5,0-1.2-.6-1.6-1.3-.2-1.1-.4-2.2-.6-3.3-.8,0-2.2.4-2,2.2.3,2.3.5,7.6.5,9h0s-1.5.5,0,2.9c1.5,2.4,8.8,2.4,9.5,2.5.7.1,3.8,2.1,6.1,3s7.6,2,12.1,2.1,5.8-2.8,5.8-2.8v-2.2l-.8-.5Z"/><path class="cls-13" d="m151.2,71.9c2.7-1,4.7-1.4,7-1.4.2-.8-2.9-.8-5.3-.2-2.3.6-2.2,1.1-1.7,1.6Zm7.5,17.7c-3.8,2.9-9.5,4.6-13.7,3.1,1.1,1.4,2.8,2.6,4.4,3.4,1.6.8,4.9.8,6.5-.1,2.1-1.2,3-3.9,2.8-6.3Zm-2.1-10.1c.6,1.5,1.5,2.5,2.1,2.2.6-.2.6-1.6,0-3.1-.6-1.5-1.5-2.5-2.1-2.2-.6.2-.6,1.6,0,3.1Zm-34.7,13.9c0-1,.2-2.2,1.2-2.9s3.3-.5,4.1,0c1.4-3.5-.8-11,2.7-19.9,2.6-6.8,8-11,10.3-11.8.5-.2,1.1-.3,1.8-.3,5.8-.1,17,5.8,19.6,12.1.1.3,1.1,3.6,1.1,5,0,1.6.4,2.6,1,3.5,1.2,1.8,3.1,3.1,3.8,8.5.9,6.5-1.5,11.2-9.8,18.7,0,0-.8,1.7-1.3,3.7-.3,1.4-.6,2.9-.4,4.2,0,2.9-2.8,14.7-2.8,14.7h0c-.5-.5-9.8-10.1-12.5-14.5-.3-.9-.6-1.8-1-2.7-1.3-3.2-3.2-6.6-7.9-10.4-1.1.6-3.2.2-4.4-.6-1.6-1-4.2-4.2-4.9-5.5-.2-.3-.3-1-.4-1.7Zm20.6-7.9c.7-.3.8-1.8.1-3.4s-1.7-2.7-2.4-2.4c-.7.3-.8,1.8-.1,3.4.6,1.6,1.7,2.7,2.4,2.4Zm-.7-11c.4-.5,0-1-.3-1.1-.9-.4-3.4,0-4.9,1-.8.5-3.5,2.9-3,4.1.6.5,2.3-3.3,8.2-4Z"/><path class="cls-5" d="m156.6,79.6c-.6-1.5-.5-2.8,0-3.1.6-.2,1.5.8,2.1,2.2.6,1.5.5,2.8,0,3.1-.6.2-1.5-.8-2.1-2.2Z"/><path class="cls-14" d="m158.7,89.7c.3,2.4-.6,5.2-2.8,6.3-1.6.9-4.9.9-6.5.1-1.6-.8-3.3-2-4.4-3.4,4.2,1.5,9.9-.2,13.7-3.1Z"/><path class="cls-8" d="m152.9,70.3c2.4-.6,5.5-.6,5.3.2-2.3,0-4.3.5-7,1.4-.5-.5-.6-1.1,1.7-1.6Z"/><path class="cls-10" d="m155.8,114.2c-.2-1.3,0-2.8.4-4.2h.6c0,.1,0,.2,0,.2,2.3.6,8.7,3.9,10.7,5.2l-5.2.8c1.1,1.3,2.9,2,4.2,3.2-3.5,1.1-9.7,9-13.4,9.5,0,0,2.8-11.7,2.8-14.7Z"/><path class="cls-14" d="m155.5,177.3c-.8.8-2.1.8-2.8,0s-.6-.9-.6-1.4.2-1,.6-1.4c.8-.8,2.1-.8,2.8,0,.4.4.6.9.6,1.4s-.2,1-.6,1.4Z"/><path class="cls-14" d="m154,153.9c.4.4.6.9.6,1.4s-.2,1-.6,1.4c-.8.8-2.1.8-2.8,0s-.8-2.1,0-2.8.4-.3.7-.4c.7-.3,1.6-.1,2.2.4Z"/><path class="cls-14" d="m148.1,133.4c0-1.1.9-2,2-2s2,.9,2,2-.9,2-2,2-2-.9-2-2Z"/><path class="cls-5" d="m142.6,82.1c.6,1.6.6,3.2-.1,3.4s-1.8-.8-2.4-2.4c-.6-1.6-.6-3.2.1-3.4.7-.3,1.8.8,2.4,2.4Z"/><path class="cls-8" d="m141.6,73.4c.3.1.7.7.3,1.1-6,.7-7.6,4.4-8.2,4-.5-1.2,2.3-3.6,3-4.1,1.6-1,4-1.3,4.9-1Z"/><path class="cls-12" d="m181.8,143.4c-2-8-3.1-19-5.8-22.7-1.6-2.2-6.8-4.9-8.6-5.4l-5.2.8c1.1,1.3,2.9,2,4.2,3.2-3.5,1.1-9.7,9-13.4,9.5h0c-1.2,0-16.6-8.6-20.4-8.6,1-1,3.4-2.7,3.4-2.9.2-.5-2.5-.3-4.2-.3h0s-5.6,2.3-5.6,2.3c-3.4.4-6.1,5.5-7,8.7l-4.4,23.5c.4.4.7.8,1.1,1,.7.6,1.3,1,1.9,1.3l2.7-14.5,11.1,2.1,6.1,1.1,2.4.4-1.3,7.1-2.3,12.6-3.1-.6c0,1.4.1,2.5.2,3.3,0,.8,0,1.9,0,3.4,0,.3,0,.7,0,1.1,0,4.2-.4,10.1-.7,13.9,0,1.3-.2,2.3-.3,3,4.6,1.4,9.3,2.2,14,2.6,2.3.2,4.9.6,7.1.2,1-.2,1.1-.8,1.7-1.6.7-.9,1.5-1.7,2.4-2.4.1-.1.3-.2.5-.2.3,0,.5.1.7.3.9.8,2.3,2.5,3.4,2.9,1,.4,2.8-.3,3.8-.6,2.9-.7,5.8-1.5,8.7-2.6v-.7c.1-7.5-.4-12.6-1.1-20.4-.2-2.2-.3-4.8-.5-7.6,0,0,0,0,0,0,0-1.3-.1-2.6-.2-4h0c0-.8,1.8-2.4,2.1-2.6h0c.5-1.7,1.4-3.3,2.9-4.8,1-1,2.3-1.5,3.7-1.7v-.3Zm-27.8,10.4c.4.4.6.9.6,1.4s-.2,1-.6,1.4c-.8.8-2.1.8-2.8,0-.8-.8-.8-2.1,0-2.8.2-.2.4-.3.7-.4.7-.3,1.6-.1,2.2.4Zm-3.9-22.5c1.1,0,2,.9,2,2s-.9,2-2,2-2-.9-2-2,.9-2,2-2Zm5.4,45.9c-.8.8-2.1.8-2.8,0-.4-.4-.6-.9-.6-1.4s.2-1,.6-1.4c.8-.8,2.1-.8,2.8,0,.4.4.6.9.6,1.4s-.2,1-.6,1.4Z"/><path class="cls-10" d="m130.4,117c1.8-2.1,6.6-4,9.1-5.4.4.9.7,1.8,1,2.7,2.8,4.4,12,13.9,12.5,14.5-1.2,0-16.6-8.6-20.4-8.6,1-1,3.4-2.7,3.4-2.9.2-.5-2.5-.3-4.2-.3-.6,0-1.1,0-1.4,0Z"/><path class="cls-13" d="m126.8,275.5s3.6-6-3.3-6c0,0-1.4-.1-2.7.4,1.5-4.4,2.4-21.1,2.9-26.1.6-5.2,4.5-15.9,4.5-15.9,3.3,1.3,8.3,2.6,14,3.6,0,0,.3,7.9-1.8,13.3-3.4,8.8-7.6,17.2-9.4,27-.2,1-.3,1.9-.5,2.9h.2c-.5,1.2-1.4,2.5-2,1.6-.8-1.3-1.8-.5-2-.3h-.1c0-.1,0-.3,0-.4Z"/><polygon class="cls-11" points="147.2 18.1 143.8 37.8 163.5 41.2 166.9 21.6 147.2 18.1"/><polygon class="cls-11" points="131.7 141.5 120.5 139.4 117.9 153.9 116.9 159.1 122.9 160.2 123.9 160.4 126.4 160.8 132.6 162 133.4 162.1 136.6 162.7 138.9 150.1 140.2 143.1 137.8 142.6 131.7 141.5"/><path class="cls-10" d="m114.7,69.7c.1-.5.3-.9.4-1.3.5-1.9,1.2-3.2,3-4.1.4-.2.8-.3,1.2-.2.2,0,.4.2.5.3.5.4.8,1,1,2.2-1.4,2.5-2.3,4.3-2.8,7.7-.5.1-1,.2-1.4.2-.5,0-1,0-1.4-.4,0,0-.2-.2-.3-.3l.9-.2-1-3.8Z"/><path class="cls-13" d="m132.3,168.2c-.3-.4-.9-.6-1.4-.4-.5.1-.8.6-1,1-.2.4-.4.9-.8,1.2-.4.3-1,.5-1.3.2h0c.3-.6.5-1.3.6-1.9,0-.6,0-1.3-.4-1.8,0,0-.1-.1-.2-.2-.3-.9-.7-1.7-1.2-2.5,0-.1-.1-.2-.2-.3,0-1,0-1.9,0-2.7l-2.5-.5-1-.2-6-1.1,1-5.2c-.6-.3-1.2-.7-1.9-1.3-.3,1.5-1.2,4.6-1.1,6.1,0,.5.1.9.3,1.2v.4c-.2,0-.5.2-.7.3-.5.2-1,.5-1.5.7-1.4.9-2.6,2-3.7,3.2-.3.3-.6.7-.7,1.1-.1.4,0,.9.3,1.2.4.3,1,.2,1.6,0,1.5-.4,2.9-.9,4.4-1.3,1.1.9,1,2.6,1,4.1,0,1.4.2,3.2,1.5,3.8,1,.4,2,0,2.9-.8.3.9,1.4,1.5,2.3,1.5,1,0,2-.4,2.8-1,1.6,1.3,4,1.4,5.7.2,1.1-.8,1.9-2.1,1.9-3.4v-.2c0-.5-.2-1.1-.5-1.5Z"/><path class="cls-7" d="m166.7,57.5c-1-2.9-3.1-2.2-4.2-2.3.9-1.5.3-3.7-1.2-4.6-1.5-.9-3.7-.3-4.6,1.2-.4-1.4-1.6-2.6-3.1-2.7-1.4,0-2.4,2-2.2,3.4h0c-5.6-2.4-12.7-3.5-16.9.5-2.7-.7-10.7,1.2-13.4,5.7-.6-.9-1.9-1-2.9-.8-1,.2-1.9.9-2.7,1.6-.1-2.9-2.6-3.7-3.9-2.1l3.1,12.2c.1-.5.3-.9.4-1.3.5-1.9,1.2-3.2,3-4.1.4-.2.8-.3,1.2-.2.2,0,.4.2.5.3.5.4.8,1,1,2.2-1.4,2.5-2.3,4.3-2.8,7.7-.5.1-1,.2-1.4.2-.5,0-1,0-1.4-.4,0,0-.2-.2-.3-.3l-3.3.8-4.2,1.1c.4.6.9,1.2,1.4,1.3,1,.3,2.2-1.2,2.9-2,1.1,1.6,2.2,1.9,3.2,1.6h0s0,0,0,0c0,2,.3,3.4.9,6.2,1,4.7,2.4,7.5,6.1,10.9,0-1,.2-2.2,1.2-2.9.7-.5,3.3-.5,4.1,0,1.4-3.5-.8-11,2.7-19.9,2.6-6.8,8-11,10.3-11.8.5-.2,1.1-.3,1.8-.3,5.8-.1,17,5.8,19.6,12.1.1.3,1.1,3.6,1.1,5,0,1.6.4,2.6,1,3.5.4-4.7.4-8.8-.3-12.4,0,0,3.5-2.3.1-4.3,1.9-1,4.1-1.5,3.3-5Z"/><path class="cls-9" d="m131.9,278.5c1.3-7.3-.8-6.8-.8-6.8-.2,1-.3,1.9-.5,2.9h.2c-.5,1.2-1.4,2.5-2,1.6-.8-1.3-1.9-.5-2-.3h-.1c0-.1,0-.3,0-.4,0,0,3.6-6-3.3-6,0,0-1.4-.1-2.7.4-1.4.5-2.7,1.8-2.2,4.7-.7.5-1.4,1.9-2.2,3.3-2.6,2.3-4.6,4.7-5.9,6.7-.1.2-.2.3-.2.3-.7,1.1-1.2,2-1.4,2.7l-.9.9v4.1s1.6,5,7.3,5.6c5.7.7,11.1-1.8,12.9-6.1,1.7-4.2,2.7-7.9,2.7-7.9l1.4-3.2s.5-1.7-.3-2.6Z"/><path class="cls-6" d="m114.8,73.7l.9-.2-1-3.8h0s-3.1-12.2-3.1-12.2l-.9-3.3-19.3,5,5,19.3,11-2.8,4.2-1.1,3.3-.8"/><path class="cls-4" d="m132.5,184.5s.4-1.4.3-.7c0,.3-.2,1.2-.5,2.9-1,5.3-7.1,29.8-8.3,39,.6.6,2,1.4,4.2,2.3,3.3,1.3,8.3,2.6,14,3.6,5.7.9,12.1,1.3,18.4.8,5.8-.5,11.5-1.8,16.3-4.4,2.2-1.2,4.1-2.6,5.9-4.3"/><path class="cls-2" d="m182.8,223.7c-1.6-11.4-5.5-28.3-7.8-38.8"/><path class="cls-2" d="m128.2,227.9s-3.9,10.7-4.5,15.9c-.6,5.1-1.5,21.8-2.9,26.1,0,0,0,.2,0,.3"/><path class="cls-2" d="m142.2,231.5s.3,7.9-1.8,13.3c-3.4,8.8-7.6,17.2-9.4,27-.2,1-.3,1.9-.5,2.9"/><path class="cls-2" d="m176.9,227.9s0,0,0,0c0,.4.5,2.3.5,3.4,0,1.3-.7,4.4-.7,4.4,0,0-.6,27.8-.7,32v.5"/><path class="cls-2" d="m160.7,232.5s-1.2,4.6-1,8.1c.3,7.6,3.7,15.3,6.4,28.9.2,1.1.4,2.2.6,3.3,0,.1,0,.3,0,.5"/><path class="cls-2" d="m110.5,284.7c1.3-2,3.3-4.4,5.9-6.7.7-1.4,1.4-2.9,2.2-3.3"/><path class="cls-2" d="m131.1,271.8s2.1-.5.8,6.8c0,.4-.1.8-.2,1.3-1.4,3.3-2.8,7.1-4.8,10.1-2.6,4-6.1,6.7-11.6,5.3-4.5-1.2-6.6-5.5-6.5-6.9,0-.2,0-.4.2-.7.2-.7.7-1.6,1.4-2.7"/><path class="cls-2" d="m126.8,289.9s-.8-4.2-4.1-6.6c-.9-.7-2.1-1.2-3.5-1.5-1.3-.3-2.5-.3-3.5-.1-3,.4-4.7,2.2-5.2,2.9-.1.2-.2.3-.2.3"/><path class="cls-2" d="m126.8,275.9h0c.2-.1,1.2-1,2,.3.5,1,1.4-.4,2-1.5.3-.6.5-1.1.5-1.3"/><path class="cls-2" d="m122.7,283.4l3.2-5.2s.5-1,.8-2.3c0-.1,0-.2,0-.3.3-1.8.1-3.9-2.5-4.2-4.2-.5-6,2.1-5.5,4.3,0,.2.1.4.2.7-1,1.8-3.3,5.4-3.3,5.4"/><path class="cls-2" d="m126.8,275.5s3.6-6-3.3-6c0,0-1.4-.1-2.7.4-1.4.5-2.7,1.8-2.2,4.7,0,.3.1.6.2.9s0,.2.1.4"/><path class="cls-2" d="m108.9,287.7l-.9.9v4.1s1.6,5,7.3,5.6c5.7.7,11.1-1.8,12.9-6.1,1.7-4.2,2.7-7.9,2.7-7.9l1.4-3.2s.5-1.7-.3-2.6"/><path class="cls-2" d="m185.8,279.5c-1.9,1.9-2.7,5.1-2.3,8.6"/><path class="cls-2" d="m166.7,269.5s-.2,0-.6,0c-.8,0-2.2.4-2,2.2.3,2.3.5,7.6.5,9,0,.2,0,.3,0,.3,1.1.9,2.7,2.8,9.1,2.5,2.6.8,5.5,3.2,9.8,4.5,2.9.9,6.3,1.4,10.6.6,2.9-1.1,3.3-3,3.3-3,0,0,.5-7.1-4.4-8.2-.8-.2-1.8-.2-3,0-.7.1-1.5.3-2.4.7-.7.3-1.3.7-1.8,1.2"/><path class="cls-2" d="m165.8,271.2c0,.3.4,1,.9,1.6.5.6,1.1,1.2,1.6,1.3,1.1.1,1.8-1.8,3.2-1.3.3,0,.8.3,1.5.8.4.2.8.4,1.3.7,3.7,2,9.7,5.4,11.4,5.3h0"/><path class="cls-2" d="m178.9,268.8c.6.3.6,1.2.3,2.4,0,.2,0,.4,0,.5-.2,1.6.5,1.5.5,1.5l10.3,4.3"/><path class="cls-2" d="m174.4,274.2s-.3-4.2,2.3-5.2c.9-.3,1.6-.4,2-.3"/><path class="cls-2" d="m173.1,273.5s-1.2-6.2,2.9-5.8c.7,0,1.6.4,2.7,1,0,0,.1,0,.2,0"/><line class="cls-2" x1="179.1" y1="271.8" x2="193" y2="277.6"/><path class="cls-2" d="m197.4,285.8l.8.5v2.2s-1.2,2.9-5.8,2.8-9.8-1.2-12.1-2.1-5.4-2.9-6.1-3c-.7-.1-8-.1-9.5-2.5-1.5-2.4,0-2.9,0-2.9"/><line class="cls-1" x1="111.6" y1="74.5" x2="111.7" y2="74.9"/><path class="cls-4" d="m153.1,128.9c-.5-.5-9.8-10.1-12.5-14.5,0,0,0-.1-.1-.2"/><path class="cls-1" d="m155.8,114.2c0,2.9-2.8,14.7-2.8,14.7"/><path class="cls-1" d="m131.7,141.5c.2-2,.3-4.1.6-6.1"/><path class="cls-1" d="m131.8,117.1l-5.6,2.3c-3.4.4-6.1,5.5-7,8.7l-4.4,23.5c.4.4.7.8,1.1,1,.7.6,1.3,1,1.9,1.3"/><path class="cls-1" d="m167.5,115.4c1.8.5,7,3.2,8.6,5.4,2.7,3.7,3.8,14.7,5.8,22.7"/><path class="cls-1" d="m132.6,120.3h0c3.8,0,19.2,8.6,20.4,8.6h0c3.6-.4,9.9-8.3,13.4-9.5-1.2-1.2-3.1-1.9-4.2-3.2l5.2-.8c-2-1.3-8.4-4.6-10.7-5.2"/><path class="cls-1" d="m139.6,111.6s0,0-.1,0c-2.5,1.4-7.3,3.3-9.1,5.4.3,0,.8,0,1.4,0,1.8,0,4.4-.2,4.2.3,0,.2-2.4,1.9-3.4,2.9"/><path class="cls-1" d="m176.6,159.5c2,.6,5-.4,6.7-1.4,1-.5,1.3-.7,2.1-1"/><path class="cls-1" d="m175.2,150.3c-.3.8-.4,1.6-.5,2.4-.2,1.4-.8,4.9.9,6.2.3.2.6.4,1,.5"/><path class="cls-1" d="m188,145.9c0-.5-.2-.9-.5-1.4-1.6-.7-3.7-1-5.7-.7-1.4.2-2.8.8-3.7,1.7-1.5,1.5-2.4,3.1-2.9,4.8"/><path class="cls-1" d="m126.3,163.7h0c0-1.1,0-2.1,0-2.9"/><path class="cls-1" d="m115.9,152.6c-.3,1.5-1.2,4.6-1.1,6.1,0,.5.1.9.3,1.2"/><path class="cls-1" d="m176.6,159.5s0,0-.1,0c-2.1-.7-2.4-.9-3.2-2.6"/><path class="cls-1" d="m175,185.5c-2.8,1.1-5.7,2-8.7,2.6-1,.2-2.8.9-3.8.6-1.2-.4-2.5-2.1-3.4-2.9-.2-.2-.4-.3-.7-.3-.2,0-.3.1-.5.2-.9.7-1.7,1.5-2.4,2.4-.6.8-.8,1.4-1.7,1.6-2.2.4-4.9,0-7.1-.2-4.8-.4-9.5-1.2-14-2.6,0-.7.2-1.8.3-3,.3-3.8.6-9.7.7-13.9,0-.4,0-.7,0-1.1,0-1.4,0-2.6,0-3.4,0-.8-.1-1.9-.2-3.3"/><path class="cls-1" d="m173.1,152.9c0,1.4.1,2.7.2,4,0,0,0,0,0,0,.1,2.8.3,5.4.5,7.6.7,7.8,1.2,12.9,1.1,20.4v.7"/><path class="cls-1" d="m170.9,129.1c.8,4.9,1.3,9.9,1.7,14.5.3,3.2.5,6.3.6,9.2"/><path class="cls-1" d="m173.1,152.9h0c0-.8,1.8-2.4,2.1-2.6h0"/><path class="cls-1" d="m188,146.8c-1.3.2-2.8,1.8-3.3,3.5-.5,1.7-.2,5.1.4,6.2.1.2.3.4.4.6.6.8,1.5,1.4,2.5,1.4,0,0,.1,0,.2,0"/><line class="cls-1" x1="127.7" y1="170.2" x2="127.8" y2="170.2"/><path class="cls-1" d="m119.1,167.3c-.3.2-.5.5-.7.8"/><path class="cls-1" d="m127.7,166.3s0,0,0,0c-.3-.9-.7-1.7-1.2-2.5,0-.1-.1-.2-.2-.3-.5-.7-1.1-1.2-1.8-1.6-.2,0-.4-.1-.6-.2-1-.3-2.1-.2-3-.8-1.6-1.1-3.7-1.2-5.6-.6-.2,0-.5.2-.7.3-.5.2-1,.5-1.5.7-1.4.9-2.6,2-3.7,3.2-.3.3-.6.7-.7,1.1-.1.4,0,.9.3,1.2.4.3,1,.2,1.6,0,1.5-.4,2.9-.9,4.4-1.3,1.1.9,1,2.6,1,4.1,0,1.4.2,3.2,1.5,3.8,1,.4,2,0,2.9-.8.3-.2.5-.5.8-.7.9-.9,1.6-1.9,2.3-2.9.3-.5.6-1,.7-1.5,0,0,0,0,0-.1.1-.6,0-1.3-.5-1.6,0,0,0,0-.1,0-.7-.4-1.6-.1-2.3.3-.7.4-1.4.9-2,1.5"/><path class="cls-1" d="m120.1,172.4c0,0,0,.1,0,.1.3.9,1.4,1.5,2.3,1.5,1,0,2-.4,2.8-1,0,0,0,0,0,0,1-.7,1.8-1.7,2.3-2.8h0c.3-.6.5-1.2.6-1.9,0-.6,0-1.3-.4-1.8,0,0-.1-.1-.2-.2-.5-.4-1.3-.4-1.9-.1-.7.3-1.2.8-1.7,1.3h-.1"/><path class="cls-1" d="m125.1,172.9c0,0,.2.1.2.2,1.6,1.3,4,1.4,5.7.2,1.1-.8,1.9-2.1,1.9-3.4v-.2c0-.5-.2-1.1-.5-1.5-.3-.4-.9-.6-1.4-.4-.5.1-.8.6-1,1-.2.4-.4.9-.8,1.2-.4.3-1,.5-1.3.2"/><line class="cls-1" x1="201.6" y1="149.3" x2="201.6" y2="149.4"/><line class="cls-1" x1="199.8" y1="155.2" x2="199.9" y2="155.2"/><line class="cls-1" x1="199.4" y1="151.6" x2="199.5" y2="151.6"/><path class="cls-1" d="m188.1,148c0-.5,0-.9,0-1.2,0-.3,0-.6.1-.9.2-.5.6-1,1.2-1.5,1.4-1.1,3-1.6,4.7-1,2.9-2.4,7-3.5,10.7-2.8.2,0,.4,0,.5.2.2.3-.1.8-.5,1-1.5,1-3,2.1-4.4,3.1-.6.4-1.2.9-1.6,1.5-.4.6-.6,1.4-.2,2.1.6.9,1.9.9,3,.8"/><path class="cls-1" d="m194.7,152.2c.1.5.9.7,1.4.5.5-.2.9-.7,1.3-1,.4-.4,1-.7,1.5-.5.2,0,.4.2.5.4.3.4.4,1,.4,1.5,0,.7.1,1.4,0,2.1,0,0,0,0,0,.1-.1.8-.5,1.5-1.1,1.9-.7.4-1.5.5-2.3.3-.7-.2-1.3-.6-1.9-.9,0,0-.1,0-.2,0"/><path class="cls-1" d="m199.5,151.6c.4-.9,1.2-1.7,2.1-2.2.3-.1.5-.2.8-.3.4-.1.8-.2,1.2-.1s.8.3,1,.7c.3.5,0,1.2-.2,1.7-.4.9-.7,1.8-1.1,2.7s-.2.6-.4.8c-.4.4-1,.4-1.5.4-.5,0-1-.2-1.6-.1"/><path class="cls-1" d="m192.4,158.1c-.5-2-1.8-4.2-3.4-2.7-.4.4-.7,1-.8,1.6-.1.4-.2.9-.3,1.4,0,.4,0,.8-.1,1.2,0,.5,0,1.1.3,1.5.4.5,1.1.6,1.8.6.7,0,1.4,0,1.9-.3.4-.3.6-.8.7-1.2.1-.5,0-1.2-.1-2.1Z"/><path class="cls-1" d="m192.4,158.1c.8-.2,1.6-.9,2-1.6,0,0,0,0,0-.1"/><line class="cls-1" x1="119.1" y1="167.3" x2="119.1" y2="167.3"/><path class="cls-4" d="m153.1,129c.8,2.7,1.4,7.5,1.9,11.9.3,3.1.6,6,.8,7.9.1,1.3.3,3.5.5,6.2.3,4.1.6,9.4,1,14.7.1,2,.3,4,.4,6,.3,3.7.5,7.2.7,9.7"/><path class="cls-4" d="m159.3,140.5c0-.8,0-1.4,0-1.6.3-1.5,8.6-1.9,8.7-1.6.6,2.1.9,4.4,1.1,6.6,0,.3,0,.6,0,1,0,1.7,0,6.9-2.8,7.2-4.4.5-5.7-4.4-6-5.3-.4-1.5-.9-4.4-1.1-6.2Z"/><path class="cls-4" d="m161.8,169.7c0-.8,0-1.4,0-1.6.3-1.5,8.6-2,8.7-1.6.7,2.4,1,5,1.2,7.5,0,.4,0,.9,0,1.5,0,2.2-.6,5.4-2.8,5.7-4.4.5-5.7-4.4-6-5.3-.4-1.5-.9-4.4-1.1-6.2Z"/><path class="cls-4" d="m139.2,169.5c0-.1,0-.2,0-.3.6-1.5,10.4-.6,10.5-.2.5,2.3.6,4.5.5,6.8,0,.3,0,.6,0,.8-.1,1.7-.8,6.8-4.2,6.7-5.3-.2-6.2-5.2-6.4-6.2-.4-2.1-.7-6.2-.4-7.7Z"/><path class="cls-4" d="m137.8,142.6c0-1.2,0-2.1.2-2.5.6-1.5,10.4-.7,10.5-.3.5,2.5.6,5.1.5,7.7,0,1.2-.4,3.9-1.7,5.5-.6.8-1.4,1.3-2.5,1.2-3.5,0-5.1-2.4-5.8-4.2"/><path class="cls-4" d="m152.1,133.4c0,1.1-.9,2-2,2s-2-.9-2-2,.9-2,2-2,2,.9,2,2Z"/><path class="cls-4" d="m151.8,153.4c.7-.3,1.6-.1,2.2.4.4.4.6.9.6,1.4s-.2,1-.6,1.4c-.8.8-2.1.8-2.8,0s-.8-2.1,0-2.8.4-.3.7-.4Z"/><path class="cls-4" d="m152.1,175.9c0-.5.2-1,.6-1.4.8-.8,2.1-.8,2.8,0,.4.4.6.9.6,1.4s-.2,1-.6,1.4c-.8.8-2.1.8-2.8,0s-.6-.9-.6-1.4Z"/><line class="cls-1" x1="115.1" y1="74.1" x2="115.1" y2="74"/><path class="cls-4" d="m140.5,114.5s0,0,0,0c-.3-.9-.6-1.8-1-2.7-1.3-3.2-3.2-6.6-7.9-10.4"/><path class="cls-1" d="m156.2,110c-.3,1.4-.6,2.9-.4,4.2"/><path class="cls-4" d="m161.5,70.7c.1.3,1.1,3.6,1.1,5,0,1.6.4,2.6,1,3.5,1.2,1.8,3.1,3.1,3.8,8.5.9,6.5-1.5,11.2-9.8,18.7,0,0-.8,1.7-1.3,3.7"/><path class="cls-1" d="m151.2,71.9c-.5-.5-.6-1.1,1.7-1.6,2.4-.6,5.5-.6,5.3.2-2.3,0-4.3.5-7,1.4Z"/><path class="cls-1" d="m141.8,74.6c.4-.5,0-1-.3-1.1-.9-.4-3.4,0-4.9,1-.8.5-3.5,2.9-3,4.1.6.5,2.3-3.3,8.2-4Z"/><path class="cls-1" d="m156.6,79.6c.6,1.5,1.5,2.5,2.1,2.2.6-.2.6-1.6,0-3.1-.6-1.5-1.5-2.5-2.1-2.2-.6.2-.6,1.6,0,3.1Z"/><path class="cls-1" d="m140.1,83.1c.6,1.6,1.7,2.7,2.4,2.4s.8-1.8.1-3.4-1.7-2.7-2.4-2.4c-.7.3-.8,1.8-.1,3.4Z"/><path class="cls-1" d="m145,92.8c4.2,1.5,9.9-.2,13.7-3.1.3,2.4-.6,5.2-2.8,6.3-1.6.9-4.9.9-6.5.1-1.6-.8-3.3-2-4.4-3.4Z"/><path class="cls-1" d="m127.1,90.6c-.8-.5-3.4-.5-4.1,0s-1.2,1.9-1.2,2.9c0,.7.2,1.4.4,1.7.7,1.3,3.3,4.5,4.9,5.5,1.2.7,3.3,1.2,4.4.6.5-.3.8-.7.6-1.5"/><path class="cls-1" d="m151.9,87.6c.5-1.4,1-2.2,2.4-2.8,1.5-.7,2.1-.5,3.2.9"/><path class="cls-1" d="m161.5,70.7c-2.6-6.3-13.8-12.3-19.6-12.1-.7,0-1.3.1-1.8.3-2.3.8-7.7,5-10.3,11.8-3.4,9-1.2,16.4-2.7,19.9"/><path class="cls-1" d="m121.1,58.8c2.6-4.5,10.7-6.4,13.4-5.7,4.3-3.9,11.3-2.9,16.9-.4.8.4,1.6.8,2.4,1.2,4.2,2.3,6.9,5.3,8.4,9.1.5,1.2.8,2.5,1.1,3.9.7,3.5.7,7.6.3,12.4h0"/><path class="cls-1" d="m122.1,93.7c0,0-.2-.2-.3-.2-3.7-3.4-5.1-6.1-6.1-10.9-.6-2.8-1-4.2-.9-6.2"/><path class="cls-1" d="m134.4,53.1c3.3.8,5.4,2.5,7.4,5.3-.1,0-.3-.2-.4-.3"/><path class="cls-1" d="m107.4,75.6c.4.6.9,1.2,1.4,1.3,1,.3,2.2-1.2,2.9-2,1.1,1.6,2.2,1.9,3.2,1.6.8-.3,1.4-1.1,1.7-2"/><path class="cls-1" d="m119.8,64.3c2.1-1.3,3.1-2.9,1.3-5.6-.6-.9-1.9-1-2.9-.8-1,.2-1.9.9-2.7,1.6-.1-2.9-2.6-3.7-3.9-2.1"/><path class="cls-1" d="m114.7,69.7c.1-.5.3-.9.4-1.3.5-1.9,1.2-3.2,3-4.1.4-.2.8-.3,1.2-.2.2,0,.4.2.5.3.5.4.8,1,1,2.2-1.4,2.5-2.3,4.3-2.8,7.7-.5.1-1,.2-1.4.2-.5,0-1,0-1.4-.4,0,0-.2-.2-.3-.3"/><path class="cls-1" d="m163.3,66.8s3.5-2.3.1-4.3c1.9-1,4.1-1.5,3.3-5-1-2.9-3.1-2.2-4.2-2.3.9-1.5.3-3.7-1.2-4.6-1.5-.9-3.7-.3-4.6,1.2-.4-1.4-1.6-2.6-3.1-2.7-1.4,0-2.4,2-2.2,3.4"/><polygon class="cls-3" points="143.8 37.8 163.5 41.2 166.9 21.6 147.2 18.1 143.8 37.8"/><polyline class="cls-3" points="132.6 162 133.4 162.1 136.6 162.7 138.9 150.1 140.2 143.1 137.8 142.6 131.7 141.5 120.5 139.4 117.9 153.9 116.9 159.1 122.9 160.2 123.9 160.4 126.4 160.8"/><polyline class="cls-3" points="119.1 159.5 122.9 160.2 123.9 160.4 126.4 160.8 132.6 162"/><rect class="cls-3" x="185.2" y="99.1" width="20" height="20" transform="translate(-28.1 97.3) rotate(-26.2)"/><polygon class="cls-3" points="114.7 69.7 115.7 73.5 114.8 73.7 111.6 74.5 107.4 75.6 96.4 78.4 91.4 59.1 110.7 54.1 111.6 57.5 114.7 69.7"/></svg>