<?xml version="1.0" encoding="UTF-8"?><svg id="Layer_5" xmlns="http://www.w3.org/2000/svg" width="300" height="300" viewBox="0 0 300 300"><defs><style>.cls-1{stroke-linecap:round;stroke-linejoin:round;}.cls-1,.cls-2{stroke:#000;}.cls-1,.cls-2,.cls-3{fill:none;}.cls-2,.cls-3{stroke-miterlimit:10;}.cls-3{stroke:#fff;}.cls-4,.cls-5,.cls-6,.cls-7,.cls-8,.cls-9,.cls-10,.cls-11,.cls-12{stroke-width:0px;}.cls-5{fill:#f6faf4;}.cls-6{fill:#4d0099;}.cls-7{fill:#598fcd;}.cls-8{fill:#3f414f;}.cls-9{fill:#454545;}.cls-10{fill:#1e160d;}.cls-11{fill:#3246ff;}.cls-12{fill:#7d574b;}</style></defs><path class="cls-8" d="m205.4,290.1s.2,2.1,0,2.2c-.2.2-6.8,2.8-13.1,2-6.3-.7-12-4.6-12-4.6v-1.7c.1.1.2.2.2.3.6.5,1.6,1.1,3,1.7h0c2.3,1,5.5,1.9,9.2,1.8,5.8-.1,11.8-1.7,11.8-1.7,0,0,0-.2,0-.5h.2l.6.5Z"/><path class="cls-12" d="m157.8,157.6h0c1.1,3,3.1,3.8,6,4,4.9.2,9-4.5,8.2-4.2-3.8,1.1-10.6,2-14.1.3Zm28.9-5.4h0c-2.1,7.7-6.8,9.9-9.3,12.2-6.4,5.9-11.1,6.7-15,5-3.3-1.4-6.1-4.5-8.9-7.8-2.2-2.6-4-5.5-5.1-9.7-.9-3.2-1.4-7-1.5-12,0-.4,0-.7,0-1,0-2.9.2-.4,0-4.1h0c.4-17.8,7.9-7.4,16.7-9.9,10.8-3.1,14.7-4.4,20.2,4.5,2,3.1,1.2,10.2,1.9,11.4.4.8,1.4-.3,2.1-1.6.4-.4,1.1-.6,1.7-.6.6,0,1.2.1,1.7.3,1.5.6,1.8,1.6,1.8,3.3,0,1.8-.5,3.6-1.2,5.1-.6,1.4-1.8,3.8-2.8,4.5-.7.5-1.5.6-2.2.4Zm-12.1-10.1c0-1.7-.7-3-1.6-3s-1.6,1.4-1.6,3,.7,3.1,1.6,3.1,1.6-1.4,1.6-3.1Zm-19.1-.1c0-1.5-.6-2.6-1.3-2.6s-1.3,1.2-1.3,2.6.6,2.6,1.3,2.6,1.3-1.2,1.3-2.6Z"/><path class="cls-10" d="m146.9,134.8c.2,3.7,0,1.1,0,4.1-.5,0-1,0-1.4,0h0c0-4.8,0-8.6,1.3-15.4,1.8-9.3,6.2-12.6,18.2-13.5,8-.6,21,1.9,23.3,10.4,1.6,5.8,1.1,10.9,1.1,17.2v.9c-.6,0-1.2.2-1.7.6-.7,1.3-1.7,2.4-2.1,1.6-.7-1.2,0-8.2-1.9-11.4-5.5-8.8-9.3-7.5-20.2-4.5-8.8,2.5-16.3-7.8-16.7,9.8h0Z"/><path class="cls-12" d="m162.2,254.7c0-.5.2-1,.3-1.6,1.5-7,2.5-13.6,3.7-20.5h0v-.4c0,0,0-.2,0-.3,1.2-7,2.6-14.2,4.5-22.3l.3-.4c3.9,2.8,9.9,4.9,13.5,4.9h.5c-1.8,6.3-5.6,14.9-7.4,21-.4,1.5-.9,2.9-1.3,4.2-1.7,5.4-3.2,9.9-4.5,16.3-.3,1.4-.6,2.9-1,4.3-.9,3.7-2.1,7.3-3.5,10.7.6,1.5.8,3.1.8,4.6,0,2.3-.5,4.2-.7,4.6-.2.5-1,.7-1.2.7-.2,0-.2,1-.5,1.1-.3,0-1.2.5-1.6.7-.3.1-.9,1.1-1.4,1.3s-1.7-.5-2.1-.4c-.4.1-.6,1.3-1.5,1.5-.2,0-.6,0-1.2-.2-2.3-.6-6.8-2.2-6.8-2.2l-.2-.4,5.6-2.2h0c0-1.6-.9-3.5-2-3.8-1.3-.4-2.2,1.5-4.9,1.3-1.7-.1-2-1.5-2-2.6s.1-1.2.1-1.2c0,0,3.7-.7,4.6-1.4.9-.7,1.3-1.7,2.1-3s3.1-1.9,3.1-1.9c.7-.2,1.9-1.2,2.1-1.9,1-3.5,1.4-7,2.1-10.6Z"/><path class="cls-4" d="m173,139.1c.9,0,1.6,1.4,1.6,3s-.7,3.1-1.6,3.1-1.6-1.4-1.6-3.1.7-3,1.6-3Z"/><path class="cls-12" d="m177.4,164.4s-7.9,15-15.6,19c-.6-1.1.4-10.4.6-13.2,0-.4,0-.7,0-.8,3.9,1.6,8.6.9,15-5Z"/><path class="cls-5" d="m171.9,157.3c.8-.2-3.3,4.4-8.2,4.2-2.9-.1-4.9-1-6-3.8h0c3.6,1.7,10.3.7,14.1-.4Z"/><path class="cls-8" d="m158.2,286.7s.4,1,.3,1.4c-.1.3-9.6,5.2-14.4,5.2s-9.2-.6-12.2-3l-.3-.7,3.5-1.4v.3c.6.6,4.2,1.8,8.3,1.8s14.1-3.2,14.8-3.5Z"/><path class="cls-9" d="m208.9,247.8c2.2-6.4,1.9-8.7,1-12-2-7.1-13.4-4.5-13.4-4.5-1.7.1-3.8.7-5.9,1.4-6.7,2.3-13.9,6.6-13.9,6.6h0c-1.7,5.4-3.2,9.9-4.5,16.3-.3,1.4-.6,2.9-1,4.3v11c1.3,0,3.4-.1,5.4-.6,3.1-.7,7.6-3.6,9.5-6-.6,1.6-4.8,13.8-4.8,13.8,0,0-1.3,6.8-.8,9.8,0,.1,0,.2,0,.3.6.5,1.6,1.1,3,1.7h0c2.3,1,5.5,1.9,9.2,1.8,5.8-.1,11.8-1.7,11.8-1.7,0,0,0-.2,0-.5,0-1.7,0-7.8-5-8.3.4,0,.8,0,1.1-.1,1.5-4.9-1.5-4.9,1.5-15.1,2-6.9,6.7-18.3,6.7-18.3Z"/><path class="cls-9" d="m158.3,284.6c-2.3-.6-6.8-2.2-6.8-2.2l-.2-.4-4.9,1.9-11.2,4.3v.3c.6.6,4.2,1.8,8.3,1.8s14.1-3.2,14.8-3.5c.6-.3,0-1.9,0-1.9v-.2Z"/><path class="cls-4" d="m154.2,139.3c.7,0,1.3,1.2,1.3,2.6s-.6,2.6-1.3,2.6-1.3-1.2-1.3-2.6.6-2.6,1.3-2.6Z"/><path class="cls-7" d="m194.4,168.6c-2.5-1-6.2-.5-6.2-.5h-6.1c-.9-2-2.5-3.5-4.8-3.7,0,0-7.9,15-15.6,19-.6-1.1.4-10.4.6-13.2h-.3c-2.5,1.6-4.7,4.4-6.3,6.9,0,0-2,.6-2.2,1-.2.3-3.5,1-5,6.2,0,.4-.2.7-.3,1.1,0,0-5,9.2-9,18.5l7.8,1.7,1.9.4,8.5,1.9h0s4,.9,4,.9l8.1,1.8-3.4,21.4c1.2-7,2.6-14.2,4.5-22.3l.3-.4c3.9,2.8,9.9,4.9,13.5,4.9h.5c-1.8,6.3-5.6,14.9-7.4,21-.4,1.5-.9,2.9-1.3,4.2h0s7.3-4.3,13.9-6.6l6.7-49.4h0c1.2-6.2.7-13.3-2.7-14.8Z"/><path class="cls-12" d="m148.4,151.9c-1.5.9-3.6-4.8-4-7.3-.2-1.6-1.2-5.1,1.1-5.7.4-.1.8-.1,1.4,0,0,.3,0,.6,0,1,0,5,.6,8.9,1.5,12Z"/><polygon class="cls-6" points="139.3 203.8 147.2 205.5 146.9 232.4 130.2 232.2 130.2 232 130.5 201.8 139.3 203.8"/><polygon class="cls-6" points="130.5 201.6 130.5 201.8 130.2 201.8 130.1 232 112.9 231.9 113 205.2 130.5 201.6"/><polygon class="cls-6" points="130.5 201.8 130.2 232 130.1 232 130.2 201.8 130.5 201.8"/><path class="cls-11" d="m167.7,270.7c.6,1.5.8,3.1.8,4.6l2.6-.9v-3.4s.1-11,.1-11c-.9,3.7-2.1,7.3-3.5,10.7Z"/><path class="cls-11" d="m161.6,208.7l-4-.9h0s-8.5-1.9-8.5-1.9l-1.9-.4-.3,26.9-16.7-.2v-.2h-17.3s.1-26.8.1-26.8l-14.8,3-10.8,2.2v21.5c0,0,.1,19.8.1,19.8v21.5c0,0,10.6,4.2,10.6,4.2l14.4,5.8,17,6.8.3-30.1v-10.6c.1,0,0,10.8,0,10.8v30.2c-.1,0,1.7-.7,1.7-.7l3.5-1.4,11.2-4.3v-3s0,3,0,3l4.9-1.9,5.6-2.2h0c0-1.6-.9-3.5-2-3.8-1.3-.4-2.2,1.5-4.9,1.3-1.7-.1-2-1.5-2-2.6s.1-1.2.1-1.2c0,0,3.7-.7,4.6-1.4.9-.7,1.3-1.7,2.1-3,.8-1.4,3.1-1.9,3.1-1.9.7-.2,1.9-1.2,2.1-1.9,1-3.5,1.4-7,2.1-10.6l-1.1.2,1.1-.2c0-.5.2-1,.3-1.6,1.5-7,2.5-13.6,3.7-20.5h0v-.4c0,0,0-.2,0-.3l3.4-21.4-8.1-1.8Z"/><path class="cls-2" d="m171.1,271c1.4,0,3.5-.1,5.5-.6,3.1-.7,7.6-3.6,9.5-6"/><path class="cls-2" d="m155.8,177.1s-2,.6-2.2,1c-.2.3-3.5,1-5,6.2,0,.4-.2.7-.3,1.1,0,0-5,9.2-9,18.5"/><path class="cls-2" d="m151.7,184.5s0,.2-.1.5c-.5,2.4-2.4,12.4-2.5,20.9"/><polyline class="cls-3" points="146.4 283.8 135.2 288.1 131.6 289.5 129.8 290.2 129.9 260"/><polyline class="cls-3" points="156.9 279.8 151.3 281.9 146.4 283.8 146.5 274.7 146.6 257.1 158.7 255.3"/><polyline class="cls-3" points="162.5 254.6 162.2 254.7 161.1 254.8 146.6 257.1"/><polyline class="cls-3" points="171.2 260 171.1 271 171 274.4 168.4 275.3"/><polyline class="cls-3" points="161.1 260 161.1 254.8 161.2 232.6"/><line class="cls-3" x1="161.6" y1="208.7" x2="169.7" y2="210.5"/><polyline class="cls-3" points="166.3 232.6 166.3 232.6 161.2 232.6"/><polyline class="cls-3" points="147.2 205.5 149.1 205.9 157.6 207.8 157.6 207.8 161.6 208.7 161.2 232.6 146.9 232.4"/><polyline class="cls-3" points="146.9 232.4 146.6 257.1 129.9 260 130 249.2"/><polyline class="cls-3" points="130.5 201.8 139.3 203.8 147.2 205.5 146.9 232.4 130.2 232.2"/><polyline class="cls-3" points="112.6 283.2 129.6 290 129.9 259.8"/><polyline class="cls-3" points="98.2 277.4 112.6 283.2 112.8 256.5"/><line class="cls-3" x1="98.2" y1="253.7" x2="112.8" y2="256.5"/><polyline class="cls-3" points="87.5 251.7 87.6 273.2 98.2 277.4 98.2 253.7"/><polyline class="cls-3" points="87.5 231.9 87.5 251.7 98.2 253.7 98.2 231.9"/><polyline class="cls-3" points="98.2 208.2 87.4 210.4 87.5 231.9 98.2 231.9"/><polyline class="cls-3" points="113 205.2 98.2 208.2 98.2 231.9 112.9 231.9"/><polyline class="cls-3" points="112.9 231.9 112.8 256.5 129.9 259.8 130 249.2 130.2 232.2 130.2 232"/><polygon class="cls-3" points="112.9 231.9 130.1 232 130.2 232 130.5 201.8 130.5 201.6 113 205.2 112.9 231.9"/><path class="cls-2" d="m177.4,164.4s-7.9,15-15.6,19c-.6-1.1.4-10.4.6-13.2,0-.4,0-.7,0-.8"/><path class="cls-2" d="m177.4,164.4c2.3.1,3.9,1.7,4.8,3.7.8,1.9,1.1,4.1,1,5.8-1.8-.3-3.6-.6-5.4-.9,0,2,0,4,0,6-5.6-1.2-10.6,2.5-15.9,4.5-1.6-3.5-2.6-6.2-6-6.3,1.6-2.5,3.8-5.3,6.3-6.9"/><line class="cls-2" x1="182.2" y1="168.1" x2="188.2" y2="168.1"/><path class="cls-2" d="m197.2,183.4c-.5,2.5-1.3,4.9-2.3,6.6,0,0-2.4,8.5-7.3,22.9-.3.9-1.3,1.3-2.7,1.3h-.1c-3.6,0-9.6-2.2-13.5-4.9-.5-.3-.9-.7-1.3-1,2.5-9.6,7.3-26.8,8.8-26.8h0"/><path class="cls-2" d="m188.2,168.1s3.7-.5,6.2.5c3.4,1.4,4,8.5,2.7,14.7"/><polyline class="cls-2" points="197.3 182.1 197.2 183.3 197.2 183.4 190.5 232.8 190.5 233.2"/><path class="cls-2" d="m166.3,232.2c0,.1,0,.3,0,.4-1.2,6.9-2.3,13.5-3.7,20.5-.1.5-.2,1-.3,1.6-.7,3.5-1.1,7.1-2.1,10.6-.2.7-1.4,1.6-2.1,1.9,0,0-2.3.6-3.1,1.9s-1.2,2.3-2.1,3c-.9.7-4.6,1.4-4.6,1.4,0,0-.1.5-.1,1.2,0,1,.3,2.5,2,2.6,2.7.2,3.6-1.6,4.9-1.3,1.1.3,2,2.2,2,3.8,0,.3,0,.6,0,.8"/><path class="cls-2" d="m185.2,214.2c-1.8,6.3-5.6,14.9-7.4,21-.4,1.5-.9,2.9-1.3,4.2-1.7,5.4-3.2,9.9-4.5,16.3-.3,1.4-.6,2.9-1,4.3-.9,3.7-2.1,7.3-3.5,10.7.6,1.5.8,3.1.8,4.6,0,2.3-.5,4.2-.7,4.6-.2.5-1,.7-1.2.7-.2,0-.2,1-.5,1.1-.3,0-1.2.5-1.6.7-.3.1-.9,1.1-1.4,1.3s-1.7-.5-2.1-.4c-.4.1-.6,1.3-1.5,1.5-.2,0-.6,0-1.2-.2-2.3-.6-6.8-2.2-6.8-2.2"/><path class="cls-2" d="m176.6,239.4s7.3-4.3,13.9-6.6c2.1-.7,4.2-1.3,5.9-1.4,0,0,11.4-2.6,13.4,4.5,1,3.3,1.2,5.6-1,12"/><path class="cls-2" d="m195.1,244.2s-2.7,1.9-5.1,6.3c-2.4,4.4-3.4,12.3-4,13.9-.6,1.6-4.8,13.8-4.8,13.8"/><path class="cls-2" d="m181.2,278.3c.7,3,3,4.2,5.7,4.5,4,.4,9-.9,12.6-1.4.4,0,.8,0,1.1-.1,1.5-4.9-1.5-4.9,1.5-15.1,2-6.9,6.7-18.3,6.7-18.3"/><path class="cls-2" d="m186.9,282.9c-2.2.9-3.7,5.6-3.4,7.2"/><path class="cls-2" d="m181.2,278.3s-1.3,6.8-.8,9.8c0,.1,0,.2,0,.3.6.5,1.6,1.1,3,1.7h0c2.3,1,5.5,1.9,9.2,1.8,5.8-.1,11.8-1.7,11.8-1.7,0,0,0-.2,0-.5,0-1.7,0-7.8-5-8.3"/><path class="cls-2" d="m204.8,289.7l.6.5s.2,2.1,0,2.2c-.2.2-6.8,2.8-13.1,2-6.3-.7-12-4.6-12-4.6v-1.7"/><path class="cls-2" d="m158.2,284.8s.6,1.6,0,1.9c-.6.3-10.6,3.5-14.8,3.5s-7.7-1.2-8.2-1.8"/><path class="cls-2" d="m158.2,286.7s.4,1,.3,1.4c-.1.3-9.6,5.2-14.4,5.2s-9.2-.6-12.2-3"/><path class="cls-2" d="m161.8,183.4c-3.8,9.9-3.1,13.5-4.2,24.3"/><path class="cls-1" d="m146.9,134.8c.2,3.7,0,1.1,0,4.1,0,.3,0,.6,0,1,0,5,.6,8.9,1.5,12,1.1,4.2,2.9,7.1,5.1,9.7,2.8,3.3,5.6,6.4,8.9,7.8,3.9,1.6,8.6.9,15-5,2.5-2.2,7.2-4.5,9.3-12.1"/><path class="cls-1" d="m151.2,136.7c1-.8,5-.9,6-.4"/><path class="cls-1" d="m170,136.3c1.9-.9,6.8-.3,7.2.4"/><path class="cls-1" d="m155.5,141.9c0,1.5-.6,2.6-1.3,2.6s-1.3-1.2-1.3-2.6.6-2.6,1.3-2.6,1.3,1.2,1.3,2.6Z"/><path class="cls-1" d="m174.6,142.1c0,1.7-.7,3.1-1.6,3.1s-1.6-1.4-1.6-3.1.7-3,1.6-3,1.6,1.4,1.6,3Z"/><path class="cls-1" d="m157.8,151.4c1,2.5,6,2.7,9.8.8"/><path class="cls-1" d="m157.4,157.4c.1,0,.3.1.4.2,3.6,1.8,10.3.8,14.1-.3.8-.2-3.3,4.4-8.2,4.2-2.9-.1-4.9-1-6-3.8"/><path class="cls-1" d="m145.5,138.8c0-4.7,0-8.5,1.3-15.3,1.8-9.3,6.2-12.6,18.2-13.5,8-.6,21,1.9,23.3,10.4,1.6,5.8,1.1,10.9,1.1,17.2"/><path class="cls-1" d="m187.2,139.9c.1-.3.3-.6.5-.8.4-.4,1.1-.6,1.7-.6.6,0,1.2.1,1.7.3,1.5.6,1.8,1.6,1.8,3.3,0,1.8-.5,3.6-1.2,5.1-.6,1.4-1.8,3.8-2.8,4.5-.7.5-1.5.6-2.2.4-.4-.1-.8-.4-1.2-.8"/><path class="cls-1" d="m146.9,138.8h0c-.5,0-1,0-1.4,0-2.3.6-1.4,4.1-1.1,5.7.4,2.5,2.5,8.2,4,7.3,0,0,0,0,0,0"/><path class="cls-1" d="m188.3,137.2c0,.5-.2,1.2-.6,1.9-.7,1.3-1.7,2.4-2.1,1.6-.7-1.2,0-8.2-1.9-11.4-5.5-8.8-9.3-7.5-20.2-4.5-8.8,2.5-16.3-7.8-16.7,9.8h0c0,.5,0,.9,0,1.4"/></svg>